%MOIN*%
%OFA0B0*%
%FSLAX46Y46*%
%IPPOS*%
%LPD*%
%ADD10C,0.004921259842519685*%
%ADD11C,0.0039370078740157488*%
%ADD12C,0.006889763779527559*%
%ADD13C,0.00984251968503937*%
%ADD14C,0.0078740157480314977*%
%ADD15C,0.0047244094488188976*%
%ADD16C,0.005905511811023622*%
%ADD17C,0.0035433070866141732*%
%ADD18R,0.093700787401574809X0.17165354330708663*%
%ADD19O,0.093700787401574809X0.17165354330708663*%
%ADD20R,0.065748031496063X0.053937007874015758*%
%ADD21C,0.1*%
%ADD22C,0.1141732283464567*%
%ADD23R,0.082677165354330714X0.082677165354330714*%
%ADD24O,0.082677165354330714X0.082677165354330714*%
%ADD25C,0.074848031496062992*%
%ADD26O,0.070866141732283464X0.16535433070866143*%
%ADD27C,0.074803149606299218*%
%ADD38C,0.004921259842519685*%
%ADD39C,0.0039370078740157488*%
%ADD40C,0.006889763779527559*%
%ADD41C,0.00984251968503937*%
%ADD42C,0.0078740157480314977*%
%ADD43C,0.0047244094488188976*%
%ADD44C,0.005905511811023622*%
%ADD45C,0.0035433070866141732*%
%ADD46R,0.093700787401574809X0.17165354330708663*%
%ADD47O,0.093700787401574809X0.17165354330708663*%
%ADD48R,0.065748031496063X0.053937007874015758*%
%ADD49C,0.1*%
%ADD50C,0.1141732283464567*%
%ADD51R,0.082677165354330714X0.082677165354330714*%
%ADD52O,0.082677165354330714X0.082677165354330714*%
%ADD53C,0.074848031496062992*%
%ADD54O,0.070866141732283464X0.16535433070866143*%
%ADD55C,0.074803149606299218*%
%ADD66C,0.004921259842519685*%
%ADD67C,0.0039370078740157488*%
%ADD68C,0.006889763779527559*%
%ADD69C,0.00984251968503937*%
%ADD70C,0.0078740157480314977*%
%ADD71C,0.0047244094488188976*%
%ADD72C,0.005905511811023622*%
%ADD73C,0.0035433070866141732*%
%ADD74R,0.093700787401574809X0.17165354330708663*%
%ADD75O,0.093700787401574809X0.17165354330708663*%
%ADD76R,0.065748031496063X0.053937007874015758*%
%ADD77C,0.1*%
%ADD78C,0.1141732283464567*%
%ADD79R,0.082677165354330714X0.082677165354330714*%
%ADD80O,0.082677165354330714X0.082677165354330714*%
%ADD81C,0.074848031496062992*%
%ADD82O,0.070866141732283464X0.16535433070866143*%
%ADD83C,0.074803149606299218*%
%ADD94C,0.004921259842519685*%
%ADD95C,0.0039370078740157488*%
%ADD96C,0.006889763779527559*%
%ADD97C,0.00984251968503937*%
%ADD98C,0.0078740157480314977*%
%ADD99C,0.0047244094488188976*%
%ADD100C,0.005905511811023622*%
%ADD101C,0.0035433070866141732*%
%ADD102R,0.093700787401574809X0.17165354330708663*%
%ADD103O,0.093700787401574809X0.17165354330708663*%
%ADD104R,0.065748031496063X0.053937007874015758*%
%ADD105C,0.1*%
%ADD106C,0.1141732283464567*%
%ADD107R,0.082677165354330714X0.082677165354330714*%
%ADD108O,0.082677165354330714X0.082677165354330714*%
%ADD109C,0.074848031496062992*%
%ADD110O,0.070866141732283464X0.16535433070866143*%
%ADD111C,0.074803149606299218*%
%ADD122C,0.004921259842519685*%
%ADD123C,0.0039370078740157488*%
%ADD124C,0.006889763779527559*%
%ADD125C,0.00984251968503937*%
%ADD126C,0.0078740157480314977*%
%ADD127C,0.0047244094488188976*%
%ADD128C,0.005905511811023622*%
%ADD129C,0.0035433070866141732*%
%ADD130R,0.093700787401574809X0.17165354330708663*%
%ADD131O,0.093700787401574809X0.17165354330708663*%
%ADD132R,0.065748031496063X0.053937007874015758*%
%ADD133C,0.1*%
%ADD134C,0.1141732283464567*%
%ADD135R,0.082677165354330714X0.082677165354330714*%
%ADD136O,0.082677165354330714X0.082677165354330714*%
%ADD137C,0.074848031496062992*%
%ADD138O,0.070866141732283464X0.16535433070866143*%
%ADD139C,0.074803149606299218*%
%ADD150C,0.004921259842519685*%
%ADD151C,0.0039370078740157488*%
%ADD152C,0.006889763779527559*%
%ADD153C,0.00984251968503937*%
%ADD154C,0.0078740157480314977*%
%ADD155C,0.0047244094488188976*%
%ADD156C,0.005905511811023622*%
%ADD157C,0.0035433070866141732*%
%ADD158R,0.093700787401574809X0.17165354330708663*%
%ADD159O,0.093700787401574809X0.17165354330708663*%
%ADD160R,0.065748031496063X0.053937007874015758*%
%ADD161C,0.1*%
%ADD162C,0.1141732283464567*%
%ADD163R,0.082677165354330714X0.082677165354330714*%
%ADD164O,0.082677165354330714X0.082677165354330714*%
%ADD165C,0.074848031496062992*%
%ADD166O,0.070866141732283464X0.16535433070866143*%
%ADD167C,0.074803149606299218*%
%LPD*%
G01*
D10*
X0001486227Y0002180429D02*
X0001486227Y0002200114D01*
X0001479666Y0002186053D01*
X0001473104Y0002200114D01*
X0001473104Y0002180429D01*
X0001464668Y0002186053D02*
X0001455294Y0002186053D01*
X0001466541Y0002180429D02*
X0001459981Y0002200114D01*
X0001453418Y0002180429D01*
X0001447795Y0002181366D02*
X0001444983Y0002180429D01*
X0001440295Y0002180429D01*
X0001438421Y0002181366D01*
X0001437484Y0002182304D01*
X0001436546Y0002184178D01*
X0001436546Y0002186053D01*
X0001437484Y0002187928D01*
X0001438421Y0002188865D01*
X0001440295Y0002189803D01*
X0001444045Y0002190740D01*
X0001445920Y0002191678D01*
X0001446857Y0002192615D01*
X0001447795Y0002194490D01*
X0001447795Y0002196364D01*
X0001446857Y0002198239D01*
X0001445920Y0002199177D01*
X0001444045Y0002200114D01*
X0001439358Y0002200114D01*
X0001436546Y0002199177D01*
X0001430922Y0002200114D02*
X0001419673Y0002200114D01*
X0001425298Y0002180429D02*
X0001425298Y0002200114D01*
X0001413112Y0002190740D02*
X0001406550Y0002190740D01*
X0001403737Y0002180429D02*
X0001413112Y0002180429D01*
X0001413112Y0002200114D01*
X0001403737Y0002200114D01*
X0001384053Y0002180429D02*
X0001390614Y0002189803D01*
X0001395301Y0002180429D02*
X0001395301Y0002200114D01*
X0001387802Y0002200114D01*
X0001385927Y0002199177D01*
X0001384990Y0002198239D01*
X0001384053Y0002196364D01*
X0001384053Y0002193552D01*
X0001384990Y0002191678D01*
X0001385927Y0002190740D01*
X0001387802Y0002189803D01*
X0001395301Y0002189803D01*
X0001474510Y0002145980D02*
X0001481072Y0002155354D01*
X0001485759Y0002145980D02*
X0001485759Y0002165665D01*
X0001478259Y0002165665D01*
X0001476385Y0002164728D01*
X0001475448Y0002163790D01*
X0001474510Y0002161916D01*
X0001474510Y0002159103D01*
X0001475448Y0002157229D01*
X0001476385Y0002156291D01*
X0001478259Y0002155354D01*
X0001485759Y0002155354D01*
X0001466074Y0002156291D02*
X0001459512Y0002156291D01*
X0001456700Y0002145980D02*
X0001466074Y0002145980D01*
X0001466074Y0002165665D01*
X0001456700Y0002165665D01*
X0001449201Y0002146918D02*
X0001446389Y0002145980D01*
X0001441702Y0002145980D01*
X0001439827Y0002146918D01*
X0001438890Y0002147855D01*
X0001437952Y0002149730D01*
X0001437952Y0002151604D01*
X0001438890Y0002153479D01*
X0001439827Y0002154417D01*
X0001441702Y0002155354D01*
X0001445451Y0002156291D01*
X0001447326Y0002157229D01*
X0001448263Y0002158166D01*
X0001449201Y0002160041D01*
X0001449201Y0002161916D01*
X0001448263Y0002163790D01*
X0001447326Y0002164728D01*
X0001445451Y0002165665D01*
X0001440764Y0002165665D01*
X0001437952Y0002164728D01*
X0001429516Y0002145980D02*
X0001429516Y0002165665D01*
X0001421079Y0002146918D02*
X0001418267Y0002145980D01*
X0001413580Y0002145980D01*
X0001411706Y0002146918D01*
X0001410768Y0002147855D01*
X0001409831Y0002149730D01*
X0001409831Y0002151604D01*
X0001410768Y0002153479D01*
X0001411706Y0002154417D01*
X0001413580Y0002155354D01*
X0001417330Y0002156291D01*
X0001419205Y0002157229D01*
X0001420142Y0002158166D01*
X0001421079Y0002160041D01*
X0001421079Y0002161916D01*
X0001420142Y0002163790D01*
X0001419205Y0002164728D01*
X0001417330Y0002165665D01*
X0001412643Y0002165665D01*
X0001409831Y0002164728D01*
X0001404206Y0002165665D02*
X0001392958Y0002165665D01*
X0001398582Y0002145980D02*
X0001398582Y0002165665D01*
X0001382647Y0002165665D02*
X0001378897Y0002165665D01*
X0001377022Y0002164728D01*
X0001375148Y0002162853D01*
X0001374210Y0002159103D01*
X0001374210Y0002152542D01*
X0001375148Y0002148792D01*
X0001377022Y0002146918D01*
X0001378897Y0002145980D01*
X0001382647Y0002145980D01*
X0001384521Y0002146918D01*
X0001386396Y0002148792D01*
X0001387334Y0002152542D01*
X0001387334Y0002159103D01*
X0001386396Y0002162853D01*
X0001384521Y0002164728D01*
X0001382647Y0002165665D01*
X0001354524Y0002145980D02*
X0001361087Y0002155354D01*
X0001365774Y0002145980D02*
X0001365774Y0002165665D01*
X0001358275Y0002165665D01*
X0001356400Y0002164728D01*
X0001355463Y0002163790D01*
X0001354524Y0002161916D01*
X0001354524Y0002159103D01*
X0001355463Y0002157229D01*
X0001356400Y0002156291D01*
X0001358275Y0002155354D01*
X0001365774Y0002155354D01*
D11*
X0001448796Y0001947424D02*
X0001460044Y0001947424D01*
X0001460044Y0001971046D01*
X0001440922Y0001947424D02*
X0001440922Y0001971046D01*
X0001429673Y0001947424D02*
X0001429673Y0001971046D01*
X0001416175Y0001947424D01*
X0001416175Y0001971046D01*
X0001346106Y0001969921D02*
X0001348357Y0001971046D01*
X0001351732Y0001971046D01*
X0001355106Y0001969921D01*
X0001357355Y0001967671D01*
X0001358481Y0001965421D01*
X0001359606Y0001960922D01*
X0001359606Y0001957547D01*
X0001358481Y0001953048D01*
X0001357355Y0001950798D01*
X0001355106Y0001948548D01*
X0001351732Y0001947424D01*
X0001349482Y0001947424D01*
X0001346106Y0001948548D01*
X0001344983Y0001949673D01*
X0001344983Y0001957547D01*
X0001349482Y0001957547D01*
X0001334859Y0001947424D02*
X0001334859Y0001971046D01*
X0001321361Y0001947424D01*
X0001321361Y0001971046D01*
X0001310112Y0001947424D02*
X0001310112Y0001971046D01*
X0001304488Y0001971046D01*
X0001301113Y0001969921D01*
X0001298862Y0001967671D01*
X0001297739Y0001965421D01*
X0001296614Y0001960922D01*
X0001296614Y0001957547D01*
X0001297739Y0001953048D01*
X0001298862Y0001950798D01*
X0001301113Y0001948548D01*
X0001304488Y0001947424D01*
X0001310112Y0001947424D01*
X0001260168Y0001959797D02*
X0001256794Y0001958671D01*
X0001255669Y0001957547D01*
X0001254544Y0001955298D01*
X0001254544Y0001951923D01*
X0001255669Y0001949673D01*
X0001256794Y0001948548D01*
X0001259043Y0001947424D01*
X0001268042Y0001947424D01*
X0001268042Y0001971046D01*
X0001260168Y0001971046D01*
X0001257918Y0001969921D01*
X0001256794Y0001968796D01*
X0001255669Y0001966545D01*
X0001255669Y0001964296D01*
X0001256794Y0001962047D01*
X0001257918Y0001960922D01*
X0001260168Y0001959797D01*
X0001268042Y0001959797D01*
X0001245545Y0001954173D02*
X0001234296Y0001954173D01*
X0001247795Y0001947424D02*
X0001239921Y0001971046D01*
X0001232047Y0001947424D01*
X0001227547Y0001971046D02*
X0001214049Y0001971046D01*
X0001220798Y0001947424D02*
X0001220798Y0001971046D01*
X0001206175Y0001956422D02*
X0001188177Y0001956422D01*
X0001197176Y0001947424D02*
X0001197176Y0001965421D01*
D12*
X0001359482Y0002099886D02*
X0001359482Y0002122383D01*
X0001312238Y0002122383D01*
X0001359482Y0002084137D02*
X0001312238Y0002084137D01*
X0001359482Y0002061640D02*
X0001312238Y0002061640D01*
X0001359482Y0002034644D01*
X0001312238Y0002034644D01*
X0001164488Y0002119636D02*
X0001162238Y0002124135D01*
X0001162238Y0002130884D01*
X0001164488Y0002137634D01*
X0001168987Y0002142133D01*
X0001173487Y0002144383D01*
X0001182485Y0002146632D01*
X0001189235Y0002146632D01*
X0001198233Y0002144383D01*
X0001202733Y0002142133D01*
X0001207232Y0002137634D01*
X0001209482Y0002130884D01*
X0001209482Y0002126385D01*
X0001207232Y0002119636D01*
X0001204983Y0002117386D01*
X0001189235Y0002117386D01*
X0001189235Y0002126385D01*
X0001209482Y0002097138D02*
X0001162238Y0002097138D01*
X0001209482Y0002070142D01*
X0001162238Y0002070142D01*
X0001209482Y0002047645D02*
X0001162238Y0002047645D01*
X0001162238Y0002036395D01*
X0001164488Y0002029647D01*
X0001168987Y0002025148D01*
X0001173487Y0002022898D01*
X0001182485Y0002020648D01*
X0001189235Y0002020648D01*
X0001198233Y0002022898D01*
X0001202733Y0002025148D01*
X0001207232Y0002029647D01*
X0001209482Y0002036395D01*
X0001209482Y0002047645D01*
X0001024735Y0002128635D02*
X0001026985Y0002121886D01*
X0001029234Y0002119636D01*
X0001033733Y0002117386D01*
X0001040483Y0002117386D01*
X0001044983Y0002119636D01*
X0001047231Y0002121886D01*
X0001049482Y0002126385D01*
X0001049482Y0002144383D01*
X0001002238Y0002144383D01*
X0001002238Y0002128635D01*
X0001004488Y0002124135D01*
X0001006737Y0002121886D01*
X0001011236Y0002119636D01*
X0001015736Y0002119636D01*
X0001020235Y0002121886D01*
X0001022485Y0002124135D01*
X0001024735Y0002128635D01*
X0001024735Y0002144383D01*
X0001035984Y0002099388D02*
X0001035984Y0002076890D01*
X0001049482Y0002103888D02*
X0001002238Y0002088140D01*
X0001049482Y0002072391D01*
X0001002238Y0002063393D02*
X0001002238Y0002036395D01*
X0001049482Y0002049894D02*
X0001002238Y0002049894D01*
X0001031484Y0002020648D02*
X0001031484Y0001984653D01*
X0001049482Y0002002650D02*
X0001013487Y0002002650D01*
D11*
X0001398054Y0002457401D02*
X0001409303Y0002457401D01*
X0001409303Y0002481023D01*
X0001390180Y0002481023D02*
X0001390180Y0002461901D01*
X0001389055Y0002459651D01*
X0001387931Y0002458526D01*
X0001385681Y0002457401D01*
X0001381181Y0002457401D01*
X0001378932Y0002458526D01*
X0001377807Y0002459651D01*
X0001376682Y0002461901D01*
X0001376682Y0002481023D01*
X0001351935Y0002459651D02*
X0001353060Y0002458526D01*
X0001356434Y0002457401D01*
X0001358684Y0002457401D01*
X0001362059Y0002458526D01*
X0001364308Y0002460776D01*
X0001365433Y0002463026D01*
X0001366558Y0002467525D01*
X0001366558Y0002470900D01*
X0001365433Y0002475399D01*
X0001364308Y0002477649D01*
X0001362059Y0002479898D01*
X0001358684Y0002481023D01*
X0001356434Y0002481023D01*
X0001353060Y0002479898D01*
X0001351935Y0002478774D01*
X0001329438Y0002457401D02*
X0001342936Y0002457401D01*
X0001336186Y0002457401D02*
X0001336186Y0002481023D01*
X0001338437Y0002477649D01*
X0001340686Y0002475399D01*
X0001342936Y0002474274D01*
X0001319314Y0002459651D02*
X0001318189Y0002458526D01*
X0001319314Y0002457401D01*
X0001320439Y0002458526D01*
X0001319314Y0002459651D01*
X0001319314Y0002457401D01*
X0001303566Y0002481023D02*
X0001301316Y0002481023D01*
X0001299067Y0002479898D01*
X0001297942Y0002478774D01*
X0001296817Y0002476524D01*
X0001295692Y0002472024D01*
X0001295692Y0002466400D01*
X0001296817Y0002461901D01*
X0001297942Y0002459651D01*
X0001299067Y0002458526D01*
X0001301316Y0002457401D01*
X0001303566Y0002457401D01*
X0001305816Y0002458526D01*
X0001306941Y0002459651D01*
X0001308065Y0002461901D01*
X0001309190Y0002466400D01*
X0001309190Y0002472024D01*
X0001308065Y0002476524D01*
X0001306941Y0002478774D01*
X0001305816Y0002479898D01*
X0001303566Y0002481023D01*
D13*
X0001433186Y0002533051D02*
X0001433186Y0002472496D01*
X0001435999Y0002465372D01*
X0001438811Y0002461810D01*
X0001444435Y0002458248D01*
X0001455684Y0002458248D01*
X0001461308Y0002461810D01*
X0001464121Y0002465372D01*
X0001466933Y0002472496D01*
X0001466933Y0002533051D01*
D11*
X0001403307Y0002494839D02*
X0001404807Y0002493339D01*
X0001409307Y0002491839D01*
X0001412306Y0002491839D01*
X0001416806Y0002493339D01*
X0001419805Y0002496339D01*
X0001421305Y0002499338D01*
X0001422804Y0002505337D01*
X0001422804Y0002509837D01*
X0001421305Y0002515836D01*
X0001419805Y0002518836D01*
X0001416806Y0002521834D01*
X0001412306Y0002523335D01*
X0001409307Y0002523335D01*
X0001404807Y0002521834D01*
X0001403307Y0002520336D01*
X0001391309Y0002500838D02*
X0001376311Y0002500838D01*
X0001394308Y0002491839D02*
X0001383810Y0002523335D01*
X0001373311Y0002491839D01*
X0001362811Y0002491839D02*
X0001362811Y0002523335D01*
X0001344815Y0002491839D01*
X0001344815Y0002523335D01*
D14*
X0001434060Y0002534087D02*
X0001329902Y0002534087D01*
D15*
X0001519291Y0001816141D02*
X0001519291Y0001320078D01*
X0001519291Y0001320078D02*
X0000912992Y0001320078D01*
X0000912992Y0001320078D02*
X0000912992Y0001357479D01*
X0000912992Y0001357479D02*
X0000893307Y0001345669D01*
X0000893307Y0001345669D02*
X0000893307Y0001424409D01*
X0000893307Y0001424409D02*
X0000912992Y0001414566D01*
X0000912992Y0001414566D02*
X0000912992Y0001627165D01*
X0000912992Y0001627165D02*
X0000893307Y0001617322D01*
X0000893307Y0001617322D02*
X0000893307Y0001816141D01*
X0000893307Y0001816141D02*
X0001519291Y0001816141D01*
X0001409070Y0002002110D02*
X0001409070Y0002102110D01*
X0001479149Y0002102110D02*
X0001479149Y0002002110D01*
X0001479149Y0002102110D02*
X0001409070Y0002102110D01*
X0001409070Y0002002110D02*
X0001479149Y0002002110D01*
X0001490472Y0001940471D02*
X0001490472Y0001835747D01*
X0001288109Y0001940471D02*
X0001490472Y0001940471D01*
X0001288109Y0001835747D02*
X0001490472Y0001835747D01*
X0001288109Y0001940471D02*
X0001288109Y0001835747D01*
X0001238110Y0001940471D02*
X0001185748Y0001940471D01*
X0001185748Y0001940471D02*
X0001185748Y0001888110D01*
D16*
X0001453144Y0002573026D02*
X0001453144Y0003128026D01*
X0000863144Y0003128026D02*
X0000863144Y0002573026D01*
X0001453144Y0002573026D02*
X0000863144Y0002573026D01*
X0001453144Y0003128026D02*
X0000863144Y0003128026D01*
D17*
X0001463358Y0001756734D02*
X0001463358Y0001745485D01*
X0001464109Y0001743235D01*
X0001465609Y0001741735D01*
X0001467859Y0001740986D01*
X0001469358Y0001740986D01*
X0001456610Y0001755233D02*
X0001455860Y0001755984D01*
X0001454360Y0001756734D01*
X0001450611Y0001756734D01*
X0001449111Y0001755984D01*
X0001448361Y0001755233D01*
X0001447611Y0001753734D01*
X0001447611Y0001752234D01*
X0001448361Y0001749984D01*
X0001457360Y0001740986D01*
X0001447611Y0001740986D01*
X0001392734Y0002016859D02*
X0001381485Y0002016859D01*
X0001379235Y0002016109D01*
X0001377736Y0002014611D01*
X0001376986Y0002012360D01*
X0001376986Y0002010860D01*
X0001392734Y0002022860D02*
X0001392734Y0002032608D01*
X0001386734Y0002027359D01*
X0001386734Y0002029609D01*
X0001385984Y0002031108D01*
X0001385235Y0002031858D01*
X0001383735Y0002032608D01*
X0001379984Y0002032608D01*
X0001378485Y0002031858D01*
X0001377736Y0002031108D01*
X0001376986Y0002029609D01*
X0001376986Y0002025109D01*
X0001377736Y0002023610D01*
X0001378485Y0002022860D01*
X0001169486Y0001843359D02*
X0001180734Y0001843359D01*
X0001182984Y0001844109D01*
X0001184484Y0001845609D01*
X0001185234Y0001847858D01*
X0001185234Y0001849358D01*
X0001185234Y0001827611D02*
X0001185234Y0001836609D01*
X0001185234Y0001832110D02*
X0001169486Y0001832110D01*
X0001171736Y0001833610D01*
X0001173235Y0001835110D01*
X0001173985Y0001836609D01*
X0000939486Y0002623359D02*
X0000950733Y0002623359D01*
X0000952984Y0002624109D01*
X0000954484Y0002625609D01*
X0000955234Y0002627858D01*
X0000955234Y0002629358D01*
X0000944735Y0002609111D02*
X0000955234Y0002609111D01*
X0000938736Y0002612860D02*
X0000949985Y0002616610D01*
X0000949985Y0002606861D01*
%LPC*%
D18*
X0001414960Y0001568109D03*
D19*
X0001218110Y0001568109D03*
X0001021258Y0001568109D03*
D20*
X0001444110Y0002026913D03*
X0001444110Y0002077306D03*
D21*
X0001158110Y0002728110D03*
D22*
X0000888110Y0001558110D03*
D23*
X0001238110Y0001888110D03*
D24*
X0001338110Y0001888110D03*
X0001438110Y0001888110D03*
D25*
X0001298144Y0002618026D03*
X0001198144Y0002618026D03*
X0001118144Y0002618026D03*
X0001018143Y0002618026D03*
D26*
X0001388110Y0002708110D03*
X0000928110Y0002708110D03*
D27*
X0001068110Y0002713110D03*
X0001248110Y0002713110D03*
%LPD*%
G01*
D38*
X0002304338Y0002180429D02*
X0002304338Y0002200114D01*
X0002297776Y0002186053D01*
X0002291214Y0002200114D01*
X0002291214Y0002180429D01*
X0002282778Y0002186053D02*
X0002273404Y0002186053D01*
X0002284653Y0002180429D02*
X0002278091Y0002200114D01*
X0002271529Y0002180429D01*
X0002265905Y0002181366D02*
X0002263093Y0002180429D01*
X0002258406Y0002180429D01*
X0002256531Y0002181366D01*
X0002255594Y0002182304D01*
X0002254656Y0002184178D01*
X0002254656Y0002186053D01*
X0002255594Y0002187928D01*
X0002256531Y0002188865D01*
X0002258406Y0002189803D01*
X0002262155Y0002190740D01*
X0002264030Y0002191678D01*
X0002264968Y0002192615D01*
X0002265905Y0002194490D01*
X0002265905Y0002196364D01*
X0002264968Y0002198239D01*
X0002264030Y0002199177D01*
X0002262155Y0002200114D01*
X0002257469Y0002200114D01*
X0002254656Y0002199177D01*
X0002249032Y0002200114D02*
X0002237784Y0002200114D01*
X0002243408Y0002180429D02*
X0002243408Y0002200114D01*
X0002231222Y0002190740D02*
X0002224660Y0002190740D01*
X0002221848Y0002180429D02*
X0002231222Y0002180429D01*
X0002231222Y0002200114D01*
X0002221848Y0002200114D01*
X0002202163Y0002180429D02*
X0002208725Y0002189803D01*
X0002213412Y0002180429D02*
X0002213412Y0002200114D01*
X0002205913Y0002200114D01*
X0002204038Y0002199177D01*
X0002203100Y0002198239D01*
X0002202163Y0002196364D01*
X0002202163Y0002193552D01*
X0002203100Y0002191678D01*
X0002204038Y0002190740D01*
X0002205913Y0002189803D01*
X0002213412Y0002189803D01*
X0002292620Y0002145980D02*
X0002299182Y0002155354D01*
X0002303869Y0002145980D02*
X0002303869Y0002165665D01*
X0002296370Y0002165665D01*
X0002294495Y0002164728D01*
X0002293558Y0002163790D01*
X0002292620Y0002161916D01*
X0002292620Y0002159103D01*
X0002293558Y0002157229D01*
X0002294495Y0002156291D01*
X0002296370Y0002155354D01*
X0002303869Y0002155354D01*
X0002284184Y0002156291D02*
X0002277622Y0002156291D01*
X0002274810Y0002145980D02*
X0002284184Y0002145980D01*
X0002284184Y0002165665D01*
X0002274810Y0002165665D01*
X0002267311Y0002146918D02*
X0002264499Y0002145980D01*
X0002259812Y0002145980D01*
X0002257937Y0002146918D01*
X0002257000Y0002147855D01*
X0002256063Y0002149730D01*
X0002256063Y0002151604D01*
X0002257000Y0002153479D01*
X0002257937Y0002154417D01*
X0002259812Y0002155354D01*
X0002263562Y0002156291D01*
X0002265436Y0002157229D01*
X0002266374Y0002158166D01*
X0002267311Y0002160041D01*
X0002267311Y0002161916D01*
X0002266374Y0002163790D01*
X0002265436Y0002164728D01*
X0002263562Y0002165665D01*
X0002258875Y0002165665D01*
X0002256063Y0002164728D01*
X0002247626Y0002145980D02*
X0002247626Y0002165665D01*
X0002239190Y0002146918D02*
X0002236377Y0002145980D01*
X0002231691Y0002145980D01*
X0002229816Y0002146918D01*
X0002228878Y0002147855D01*
X0002227941Y0002149730D01*
X0002227941Y0002151604D01*
X0002228878Y0002153479D01*
X0002229816Y0002154417D01*
X0002231691Y0002155354D01*
X0002235440Y0002156291D01*
X0002237315Y0002157229D01*
X0002238252Y0002158166D01*
X0002239190Y0002160041D01*
X0002239190Y0002161916D01*
X0002238252Y0002163790D01*
X0002237315Y0002164728D01*
X0002235440Y0002165665D01*
X0002230753Y0002165665D01*
X0002227941Y0002164728D01*
X0002222317Y0002165665D02*
X0002211068Y0002165665D01*
X0002216692Y0002145980D02*
X0002216692Y0002165665D01*
X0002200757Y0002165665D02*
X0002197007Y0002165665D01*
X0002195133Y0002164728D01*
X0002193258Y0002162853D01*
X0002192320Y0002159103D01*
X0002192320Y0002152542D01*
X0002193258Y0002148792D01*
X0002195133Y0002146918D01*
X0002197007Y0002145980D01*
X0002200757Y0002145980D01*
X0002202632Y0002146918D01*
X0002204506Y0002148792D01*
X0002205444Y0002152542D01*
X0002205444Y0002159103D01*
X0002204506Y0002162853D01*
X0002202632Y0002164728D01*
X0002200757Y0002165665D01*
X0002172635Y0002145980D02*
X0002179197Y0002155354D01*
X0002183884Y0002145980D02*
X0002183884Y0002165665D01*
X0002176385Y0002165665D01*
X0002174510Y0002164728D01*
X0002173573Y0002163790D01*
X0002172635Y0002161916D01*
X0002172635Y0002159103D01*
X0002173573Y0002157229D01*
X0002174510Y0002156291D01*
X0002176385Y0002155354D01*
X0002183884Y0002155354D01*
D39*
X0002266906Y0001947424D02*
X0002278155Y0001947424D01*
X0002278155Y0001971046D01*
X0002259032Y0001947424D02*
X0002259032Y0001971046D01*
X0002247784Y0001947424D02*
X0002247784Y0001971046D01*
X0002234285Y0001947424D01*
X0002234285Y0001971046D01*
X0002164218Y0001969921D02*
X0002166467Y0001971046D01*
X0002169842Y0001971046D01*
X0002173217Y0001969921D01*
X0002175466Y0001967671D01*
X0002176591Y0001965421D01*
X0002177716Y0001960922D01*
X0002177716Y0001957547D01*
X0002176591Y0001953048D01*
X0002175466Y0001950798D01*
X0002173217Y0001948548D01*
X0002169842Y0001947424D01*
X0002167592Y0001947424D01*
X0002164218Y0001948548D01*
X0002163093Y0001949673D01*
X0002163093Y0001957547D01*
X0002167592Y0001957547D01*
X0002152969Y0001947424D02*
X0002152969Y0001971046D01*
X0002139471Y0001947424D01*
X0002139471Y0001971046D01*
X0002128222Y0001947424D02*
X0002128222Y0001971046D01*
X0002122598Y0001971046D01*
X0002119223Y0001969921D01*
X0002116974Y0001967671D01*
X0002115849Y0001965421D01*
X0002114724Y0001960922D01*
X0002114724Y0001957547D01*
X0002115849Y0001953048D01*
X0002116974Y0001950798D01*
X0002119223Y0001948548D01*
X0002122598Y0001947424D01*
X0002128222Y0001947424D01*
X0002078278Y0001959797D02*
X0002074904Y0001958671D01*
X0002073779Y0001957547D01*
X0002072654Y0001955298D01*
X0002072654Y0001951923D01*
X0002073779Y0001949673D01*
X0002074904Y0001948548D01*
X0002077154Y0001947424D01*
X0002086151Y0001947424D01*
X0002086151Y0001971046D01*
X0002078278Y0001971046D01*
X0002076029Y0001969921D01*
X0002074904Y0001968796D01*
X0002073779Y0001966545D01*
X0002073779Y0001964296D01*
X0002074904Y0001962047D01*
X0002076029Y0001960922D01*
X0002078278Y0001959797D01*
X0002086151Y0001959797D01*
X0002063654Y0001954173D02*
X0002052407Y0001954173D01*
X0002065904Y0001947424D02*
X0002058031Y0001971046D01*
X0002050157Y0001947424D01*
X0002045658Y0001971046D02*
X0002032159Y0001971046D01*
X0002038908Y0001947424D02*
X0002038908Y0001971046D01*
X0002024285Y0001956422D02*
X0002006287Y0001956422D01*
X0002015286Y0001947424D02*
X0002015286Y0001965421D01*
D40*
X0002177592Y0002099886D02*
X0002177592Y0002122383D01*
X0002130348Y0002122383D01*
X0002177592Y0002084137D02*
X0002130348Y0002084137D01*
X0002177592Y0002061640D02*
X0002130348Y0002061640D01*
X0002177592Y0002034644D01*
X0002130348Y0002034644D01*
X0001982598Y0002119636D02*
X0001980348Y0002124135D01*
X0001980348Y0002130884D01*
X0001982598Y0002137634D01*
X0001987097Y0002142133D01*
X0001991597Y0002144383D01*
X0002000595Y0002146632D01*
X0002007345Y0002146632D01*
X0002016344Y0002144383D01*
X0002020843Y0002142133D01*
X0002025343Y0002137634D01*
X0002027591Y0002130884D01*
X0002027591Y0002126385D01*
X0002025343Y0002119636D01*
X0002023092Y0002117386D01*
X0002007345Y0002117386D01*
X0002007345Y0002126385D01*
X0002027591Y0002097138D02*
X0001980348Y0002097138D01*
X0002027591Y0002070142D01*
X0001980348Y0002070142D01*
X0002027591Y0002047645D02*
X0001980348Y0002047645D01*
X0001980348Y0002036395D01*
X0001982598Y0002029647D01*
X0001987097Y0002025148D01*
X0001991597Y0002022898D01*
X0002000595Y0002020648D01*
X0002007345Y0002020648D01*
X0002016344Y0002022898D01*
X0002020843Y0002025148D01*
X0002025343Y0002029647D01*
X0002027591Y0002036395D01*
X0002027591Y0002047645D01*
X0001842845Y0002128635D02*
X0001845095Y0002121886D01*
X0001847345Y0002119636D01*
X0001851844Y0002117386D01*
X0001858592Y0002117386D01*
X0001863093Y0002119636D01*
X0001865343Y0002121886D01*
X0001867592Y0002126385D01*
X0001867592Y0002144383D01*
X0001820348Y0002144383D01*
X0001820348Y0002128635D01*
X0001822598Y0002124135D01*
X0001824848Y0002121886D01*
X0001829347Y0002119636D01*
X0001833847Y0002119636D01*
X0001838345Y0002121886D01*
X0001840596Y0002124135D01*
X0001842845Y0002128635D01*
X0001842845Y0002144383D01*
X0001854094Y0002099388D02*
X0001854094Y0002076890D01*
X0001867592Y0002103888D02*
X0001820348Y0002088140D01*
X0001867592Y0002072391D01*
X0001820348Y0002063393D02*
X0001820348Y0002036395D01*
X0001867592Y0002049894D02*
X0001820348Y0002049894D01*
X0001849594Y0002020648D02*
X0001849594Y0001984653D01*
X0001867592Y0002002650D02*
X0001831597Y0002002650D01*
D39*
X0002216165Y0002457401D02*
X0002227413Y0002457401D01*
X0002227413Y0002481023D01*
X0002208291Y0002481023D02*
X0002208291Y0002461901D01*
X0002207166Y0002459651D01*
X0002206041Y0002458526D01*
X0002203791Y0002457401D01*
X0002199292Y0002457401D01*
X0002197042Y0002458526D01*
X0002195917Y0002459651D01*
X0002194792Y0002461901D01*
X0002194792Y0002481023D01*
X0002170045Y0002459651D02*
X0002171170Y0002458526D01*
X0002174545Y0002457401D01*
X0002176794Y0002457401D01*
X0002180169Y0002458526D01*
X0002182419Y0002460776D01*
X0002183544Y0002463026D01*
X0002184668Y0002467525D01*
X0002184668Y0002470900D01*
X0002183544Y0002475399D01*
X0002182419Y0002477649D01*
X0002180169Y0002479898D01*
X0002176794Y0002481023D01*
X0002174545Y0002481023D01*
X0002171170Y0002479898D01*
X0002170045Y0002478774D01*
X0002147548Y0002457401D02*
X0002161046Y0002457401D01*
X0002154297Y0002457401D02*
X0002154297Y0002481023D01*
X0002156547Y0002477649D01*
X0002158797Y0002475399D01*
X0002161046Y0002474274D01*
X0002137424Y0002459651D02*
X0002136300Y0002458526D01*
X0002137424Y0002457401D01*
X0002138549Y0002458526D01*
X0002137424Y0002459651D01*
X0002137424Y0002457401D01*
X0002121676Y0002481023D02*
X0002119427Y0002481023D01*
X0002117177Y0002479898D01*
X0002116052Y0002478774D01*
X0002114927Y0002476524D01*
X0002113802Y0002472024D01*
X0002113802Y0002466400D01*
X0002114927Y0002461901D01*
X0002116052Y0002459651D01*
X0002117177Y0002458526D01*
X0002119427Y0002457401D01*
X0002121676Y0002457401D01*
X0002123926Y0002458526D01*
X0002125051Y0002459651D01*
X0002126176Y0002461901D01*
X0002127301Y0002466400D01*
X0002127301Y0002472024D01*
X0002126176Y0002476524D01*
X0002125051Y0002478774D01*
X0002123926Y0002479898D01*
X0002121676Y0002481023D01*
D41*
X0002251297Y0002533051D02*
X0002251297Y0002472496D01*
X0002254109Y0002465372D01*
X0002256922Y0002461810D01*
X0002262546Y0002458248D01*
X0002273794Y0002458248D01*
X0002279419Y0002461810D01*
X0002282231Y0002465372D01*
X0002285043Y0002472496D01*
X0002285043Y0002533051D01*
D39*
X0002221418Y0002494839D02*
X0002222917Y0002493339D01*
X0002227417Y0002491839D01*
X0002230417Y0002491839D01*
X0002234916Y0002493339D01*
X0002237916Y0002496339D01*
X0002239415Y0002499338D01*
X0002240915Y0002505337D01*
X0002240915Y0002509837D01*
X0002239415Y0002515836D01*
X0002237916Y0002518836D01*
X0002234916Y0002521834D01*
X0002230417Y0002523335D01*
X0002227417Y0002523335D01*
X0002222917Y0002521834D01*
X0002221418Y0002520336D01*
X0002209419Y0002500838D02*
X0002194421Y0002500838D01*
X0002212419Y0002491839D02*
X0002201920Y0002523335D01*
X0002191421Y0002491839D01*
X0002180923Y0002491839D02*
X0002180923Y0002523335D01*
X0002162925Y0002491839D01*
X0002162925Y0002523335D01*
D42*
X0002252170Y0002534087D02*
X0002148013Y0002534087D01*
D43*
X0002337401Y0001816141D02*
X0002337401Y0001320078D01*
X0002337401Y0001320078D02*
X0001731102Y0001320078D01*
X0001731102Y0001320078D02*
X0001731102Y0001357479D01*
X0001731102Y0001357479D02*
X0001711417Y0001345669D01*
X0001711417Y0001345669D02*
X0001711417Y0001424409D01*
X0001711417Y0001424409D02*
X0001731102Y0001414566D01*
X0001731102Y0001414566D02*
X0001731102Y0001627165D01*
X0001731102Y0001627165D02*
X0001711417Y0001617322D01*
X0001711417Y0001617322D02*
X0001711417Y0001816141D01*
X0001711417Y0001816141D02*
X0002337401Y0001816141D01*
X0002227181Y0002002110D02*
X0002227181Y0002102110D01*
X0002297259Y0002102110D02*
X0002297259Y0002002110D01*
X0002297259Y0002102110D02*
X0002227181Y0002102110D01*
X0002227181Y0002002110D02*
X0002297259Y0002002110D01*
X0002308582Y0001940471D02*
X0002308582Y0001835747D01*
X0002106220Y0001940471D02*
X0002308582Y0001940471D01*
X0002106220Y0001835747D02*
X0002308582Y0001835747D01*
X0002106220Y0001940471D02*
X0002106220Y0001835747D01*
X0002056220Y0001940471D02*
X0002003858Y0001940471D01*
X0002003858Y0001940471D02*
X0002003858Y0001888110D01*
D44*
X0002271254Y0002573026D02*
X0002271254Y0003128026D01*
X0001681254Y0003128026D02*
X0001681254Y0002573026D01*
X0002271254Y0002573026D02*
X0001681254Y0002573026D01*
X0002271254Y0003128026D02*
X0001681254Y0003128026D01*
D45*
X0002281469Y0001756734D02*
X0002281469Y0001745485D01*
X0002282219Y0001743235D01*
X0002283719Y0001741735D01*
X0002285969Y0001740986D01*
X0002287469Y0001740986D01*
X0002274720Y0001755233D02*
X0002273970Y0001755984D01*
X0002272470Y0001756734D01*
X0002268721Y0001756734D01*
X0002267221Y0001755984D01*
X0002266471Y0001755233D01*
X0002265721Y0001753734D01*
X0002265721Y0001752234D01*
X0002266471Y0001749984D01*
X0002275470Y0001740986D01*
X0002265721Y0001740986D01*
X0002210844Y0002016859D02*
X0002199595Y0002016859D01*
X0002197346Y0002016109D01*
X0002195846Y0002014611D01*
X0002195096Y0002012360D01*
X0002195096Y0002010860D01*
X0002210844Y0002022860D02*
X0002210844Y0002032608D01*
X0002204845Y0002027359D01*
X0002204845Y0002029609D01*
X0002204095Y0002031108D01*
X0002203345Y0002031858D01*
X0002201845Y0002032608D01*
X0002198096Y0002032608D01*
X0002196596Y0002031858D01*
X0002195846Y0002031108D01*
X0002195096Y0002029609D01*
X0002195096Y0002025109D01*
X0002195846Y0002023610D01*
X0002196596Y0002022860D01*
X0001987596Y0001843359D02*
X0001998845Y0001843359D01*
X0002001094Y0001844109D01*
X0002002594Y0001845609D01*
X0002003343Y0001847858D01*
X0002003343Y0001849358D01*
X0002003343Y0001827611D02*
X0002003343Y0001836609D01*
X0002003343Y0001832110D02*
X0001987596Y0001832110D01*
X0001989846Y0001833610D01*
X0001991346Y0001835110D01*
X0001992096Y0001836609D01*
X0001757596Y0002623359D02*
X0001768845Y0002623359D01*
X0001771094Y0002624109D01*
X0001772594Y0002625609D01*
X0001773343Y0002627858D01*
X0001773343Y0002629358D01*
X0001762845Y0002609111D02*
X0001773343Y0002609111D01*
X0001756846Y0002612860D02*
X0001768095Y0002616610D01*
X0001768095Y0002606861D01*
%LPC*%
D46*
X0002233070Y0001568109D03*
D47*
X0002036220Y0001568109D03*
X0001839370Y0001568109D03*
D48*
X0002262220Y0002026913D03*
X0002262220Y0002077306D03*
D49*
X0001976220Y0002728110D03*
D50*
X0001706220Y0001558110D03*
D51*
X0002056220Y0001888110D03*
D52*
X0002156220Y0001888110D03*
X0002256220Y0001888110D03*
D53*
X0002116254Y0002618026D03*
X0002016254Y0002618026D03*
X0001936254Y0002618026D03*
X0001836254Y0002618026D03*
D54*
X0002206220Y0002708110D03*
X0001746220Y0002708110D03*
D55*
X0001886220Y0002713110D03*
X0002066220Y0002713110D03*
G04 next file*
%LPD*%
G01*
D66*
X0000668117Y0000722319D02*
X0000668117Y0000742004D01*
X0000661556Y0000727943D01*
X0000654994Y0000742004D01*
X0000654994Y0000722319D01*
X0000646557Y0000727943D02*
X0000637183Y0000727943D01*
X0000648432Y0000722319D02*
X0000641870Y0000742004D01*
X0000635309Y0000722319D01*
X0000629685Y0000723256D02*
X0000626872Y0000722319D01*
X0000622185Y0000722319D01*
X0000620311Y0000723256D01*
X0000619373Y0000724194D01*
X0000618436Y0000726068D01*
X0000618436Y0000727943D01*
X0000619373Y0000729818D01*
X0000620311Y0000730755D01*
X0000622185Y0000731693D01*
X0000625935Y0000732630D01*
X0000627810Y0000733567D01*
X0000628747Y0000734505D01*
X0000629685Y0000736380D01*
X0000629685Y0000738254D01*
X0000628747Y0000740129D01*
X0000627810Y0000741066D01*
X0000625935Y0000742004D01*
X0000621248Y0000742004D01*
X0000618436Y0000741066D01*
X0000612812Y0000742004D02*
X0000601563Y0000742004D01*
X0000607187Y0000722319D02*
X0000607187Y0000742004D01*
X0000595001Y0000732630D02*
X0000588440Y0000732630D01*
X0000585628Y0000722319D02*
X0000595001Y0000722319D01*
X0000595001Y0000742004D01*
X0000585628Y0000742004D01*
X0000565942Y0000722319D02*
X0000572504Y0000731693D01*
X0000577191Y0000722319D02*
X0000577191Y0000742004D01*
X0000569692Y0000742004D01*
X0000567817Y0000741066D01*
X0000566880Y0000740129D01*
X0000565942Y0000738254D01*
X0000565942Y0000735442D01*
X0000566880Y0000733567D01*
X0000567817Y0000732630D01*
X0000569692Y0000731693D01*
X0000577191Y0000731693D01*
X0000656399Y0000687870D02*
X0000662962Y0000697244D01*
X0000667649Y0000687870D02*
X0000667649Y0000707554D01*
X0000660149Y0000707554D01*
X0000658275Y0000706618D01*
X0000657336Y0000705680D01*
X0000656399Y0000703805D01*
X0000656399Y0000700993D01*
X0000657336Y0000699119D01*
X0000658275Y0000698181D01*
X0000660149Y0000697244D01*
X0000667649Y0000697244D01*
X0000647963Y0000698181D02*
X0000641402Y0000698181D01*
X0000638590Y0000687870D02*
X0000647963Y0000687870D01*
X0000647963Y0000707554D01*
X0000638590Y0000707554D01*
X0000631090Y0000688807D02*
X0000628278Y0000687870D01*
X0000623592Y0000687870D01*
X0000621717Y0000688807D01*
X0000620779Y0000689745D01*
X0000619842Y0000691619D01*
X0000619842Y0000693494D01*
X0000620779Y0000695368D01*
X0000621717Y0000696306D01*
X0000623592Y0000697244D01*
X0000627341Y0000698181D01*
X0000629216Y0000699119D01*
X0000630153Y0000700056D01*
X0000631090Y0000701930D01*
X0000631090Y0000703805D01*
X0000630153Y0000705680D01*
X0000629216Y0000706618D01*
X0000627341Y0000707554D01*
X0000622654Y0000707554D01*
X0000619842Y0000706618D01*
X0000611406Y0000687870D02*
X0000611406Y0000707554D01*
X0000602969Y0000688807D02*
X0000600157Y0000687870D01*
X0000595470Y0000687870D01*
X0000593595Y0000688807D01*
X0000592658Y0000689745D01*
X0000591721Y0000691619D01*
X0000591721Y0000693494D01*
X0000592658Y0000695368D01*
X0000593595Y0000696306D01*
X0000595470Y0000697244D01*
X0000599220Y0000698181D01*
X0000601094Y0000699119D01*
X0000602032Y0000700056D01*
X0000602969Y0000701930D01*
X0000602969Y0000703805D01*
X0000602032Y0000705680D01*
X0000601094Y0000706618D01*
X0000599220Y0000707554D01*
X0000594533Y0000707554D01*
X0000591721Y0000706618D01*
X0000586096Y0000707554D02*
X0000574848Y0000707554D01*
X0000580472Y0000687870D02*
X0000580472Y0000707554D01*
X0000564536Y0000707554D02*
X0000560787Y0000707554D01*
X0000558912Y0000706618D01*
X0000557037Y0000704743D01*
X0000556100Y0000700993D01*
X0000556100Y0000694431D01*
X0000557037Y0000690682D01*
X0000558912Y0000688807D01*
X0000560787Y0000687870D01*
X0000564536Y0000687870D01*
X0000566411Y0000688807D01*
X0000568286Y0000690682D01*
X0000569223Y0000694431D01*
X0000569223Y0000700993D01*
X0000568286Y0000704743D01*
X0000566411Y0000706618D01*
X0000564536Y0000707554D01*
X0000536415Y0000687870D02*
X0000542977Y0000697244D01*
X0000547664Y0000687870D02*
X0000547664Y0000707554D01*
X0000540164Y0000707554D01*
X0000538290Y0000706618D01*
X0000537352Y0000705680D01*
X0000536415Y0000703805D01*
X0000536415Y0000700993D01*
X0000537352Y0000699119D01*
X0000538290Y0000698181D01*
X0000540164Y0000697244D01*
X0000547664Y0000697244D01*
D67*
X0000630686Y0000489313D02*
X0000641934Y0000489313D01*
X0000641934Y0000512935D01*
X0000622812Y0000489313D02*
X0000622812Y0000512935D01*
X0000611563Y0000489313D02*
X0000611563Y0000512935D01*
X0000598065Y0000489313D01*
X0000598065Y0000512935D01*
X0000527997Y0000511810D02*
X0000530247Y0000512935D01*
X0000533622Y0000512935D01*
X0000536996Y0000511810D01*
X0000539246Y0000509561D01*
X0000540371Y0000507310D01*
X0000541496Y0000502812D01*
X0000541496Y0000499437D01*
X0000540371Y0000494938D01*
X0000539246Y0000492688D01*
X0000536996Y0000490438D01*
X0000533622Y0000489313D01*
X0000531372Y0000489313D01*
X0000527997Y0000490438D01*
X0000526872Y0000491563D01*
X0000526872Y0000499437D01*
X0000531372Y0000499437D01*
X0000516749Y0000489313D02*
X0000516749Y0000512935D01*
X0000503250Y0000489313D01*
X0000503250Y0000512935D01*
X0000492002Y0000489313D02*
X0000492002Y0000512935D01*
X0000486377Y0000512935D01*
X0000483002Y0000511810D01*
X0000480753Y0000509561D01*
X0000479628Y0000507310D01*
X0000478502Y0000502812D01*
X0000478502Y0000499437D01*
X0000479628Y0000494938D01*
X0000480753Y0000492688D01*
X0000483002Y0000490438D01*
X0000486377Y0000489313D01*
X0000492002Y0000489313D01*
X0000442058Y0000501687D02*
X0000438683Y0000500561D01*
X0000437559Y0000499437D01*
X0000436434Y0000497186D01*
X0000436434Y0000493813D01*
X0000437559Y0000491563D01*
X0000438683Y0000490438D01*
X0000440933Y0000489313D01*
X0000449931Y0000489313D01*
X0000449931Y0000512935D01*
X0000442058Y0000512935D01*
X0000439808Y0000511810D01*
X0000438683Y0000510686D01*
X0000437559Y0000508436D01*
X0000437559Y0000506186D01*
X0000438683Y0000503936D01*
X0000439808Y0000502812D01*
X0000442058Y0000501687D01*
X0000449931Y0000501687D01*
X0000427435Y0000496062D02*
X0000416185Y0000496062D01*
X0000429685Y0000489313D02*
X0000421811Y0000512935D01*
X0000413937Y0000489313D01*
X0000409437Y0000512935D02*
X0000395939Y0000512935D01*
X0000402688Y0000489313D02*
X0000402688Y0000512935D01*
X0000388065Y0000498312D02*
X0000370067Y0000498312D01*
X0000379065Y0000489313D02*
X0000379065Y0000507310D01*
D68*
X0000541372Y0000641774D02*
X0000541372Y0000664273D01*
X0000494128Y0000664273D01*
X0000541372Y0000626027D02*
X0000494128Y0000626027D01*
X0000541372Y0000603530D02*
X0000494128Y0000603530D01*
X0000541372Y0000576534D01*
X0000494128Y0000576534D01*
X0000346377Y0000661526D02*
X0000344128Y0000666025D01*
X0000344128Y0000672774D01*
X0000346377Y0000679523D01*
X0000350877Y0000684023D01*
X0000355376Y0000686273D01*
X0000364375Y0000688521D01*
X0000371124Y0000688521D01*
X0000380123Y0000686273D01*
X0000384623Y0000684023D01*
X0000389122Y0000679523D01*
X0000391372Y0000672774D01*
X0000391372Y0000668275D01*
X0000389122Y0000661526D01*
X0000386872Y0000659275D01*
X0000371124Y0000659275D01*
X0000371124Y0000668275D01*
X0000391372Y0000639028D02*
X0000344128Y0000639028D01*
X0000391372Y0000612032D01*
X0000344128Y0000612032D01*
X0000391372Y0000589535D02*
X0000344128Y0000589535D01*
X0000344128Y0000578286D01*
X0000346377Y0000571537D01*
X0000350877Y0000567037D01*
X0000355376Y0000564788D01*
X0000364375Y0000562538D01*
X0000371124Y0000562538D01*
X0000380123Y0000564788D01*
X0000384623Y0000567037D01*
X0000389122Y0000571537D01*
X0000391372Y0000578286D01*
X0000391372Y0000589535D01*
X0000206625Y0000670524D02*
X0000208875Y0000663775D01*
X0000211123Y0000661526D01*
X0000215623Y0000659275D01*
X0000222373Y0000659275D01*
X0000226872Y0000661526D01*
X0000229122Y0000663775D01*
X0000231372Y0000668275D01*
X0000231372Y0000686273D01*
X0000184128Y0000686273D01*
X0000184128Y0000670524D01*
X0000186377Y0000666025D01*
X0000188627Y0000663775D01*
X0000193127Y0000661526D01*
X0000197626Y0000661526D01*
X0000202125Y0000663775D01*
X0000204375Y0000666025D01*
X0000206625Y0000670524D01*
X0000206625Y0000686273D01*
X0000217873Y0000641278D02*
X0000217873Y0000618781D01*
X0000231372Y0000645778D02*
X0000184128Y0000630029D01*
X0000231372Y0000614282D01*
X0000184128Y0000605283D02*
X0000184128Y0000578286D01*
X0000231372Y0000591784D02*
X0000184128Y0000591784D01*
X0000213373Y0000562538D02*
X0000213373Y0000526542D01*
X0000231372Y0000544540D02*
X0000195376Y0000544540D01*
D67*
X0000579944Y0000999291D02*
X0000591193Y0000999291D01*
X0000591193Y0001022913D01*
X0000572070Y0001022913D02*
X0000572070Y0001003790D01*
X0000570945Y0001001541D01*
X0000569820Y0001000416D01*
X0000567571Y0000999291D01*
X0000563071Y0000999291D01*
X0000560821Y0001000416D01*
X0000559697Y0001001541D01*
X0000558572Y0001003790D01*
X0000558572Y0001022913D01*
X0000533825Y0001001541D02*
X0000534950Y0001000416D01*
X0000538324Y0000999291D01*
X0000540574Y0000999291D01*
X0000543949Y0001000416D01*
X0000546198Y0001002666D01*
X0000547323Y0001004915D01*
X0000548448Y0001009415D01*
X0000548448Y0001012788D01*
X0000547323Y0001017289D01*
X0000546198Y0001019539D01*
X0000543949Y0001021787D01*
X0000540574Y0001022913D01*
X0000538324Y0001022913D01*
X0000534950Y0001021787D01*
X0000533825Y0001020663D01*
X0000511328Y0000999291D02*
X0000524826Y0000999291D01*
X0000518077Y0000999291D02*
X0000518077Y0001022913D01*
X0000520325Y0001019539D01*
X0000522576Y0001017289D01*
X0000524826Y0001016164D01*
X0000501204Y0001001541D02*
X0000500079Y0001000416D01*
X0000501204Y0000999291D01*
X0000502329Y0001000416D01*
X0000501204Y0001001541D01*
X0000501204Y0000999291D01*
X0000485456Y0001022913D02*
X0000483206Y0001022913D01*
X0000480956Y0001021787D01*
X0000479832Y0001020663D01*
X0000478707Y0001018413D01*
X0000477582Y0001013914D01*
X0000477582Y0001008289D01*
X0000478707Y0001003790D01*
X0000479832Y0001001541D01*
X0000480956Y0001000416D01*
X0000483206Y0000999291D01*
X0000485456Y0000999291D01*
X0000487706Y0001000416D01*
X0000488830Y0001001541D01*
X0000489955Y0001003790D01*
X0000491079Y0001008289D01*
X0000491079Y0001013914D01*
X0000489955Y0001018413D01*
X0000488830Y0001020663D01*
X0000487706Y0001021787D01*
X0000485456Y0001022913D01*
D69*
X0000615077Y0001074941D02*
X0000615077Y0001014386D01*
X0000617889Y0001007262D01*
X0000620701Y0001003700D01*
X0000626325Y0001000138D01*
X0000637574Y0001000138D01*
X0000643198Y0001003700D01*
X0000646010Y0001007262D01*
X0000648821Y0001014386D01*
X0000648821Y0001074941D01*
D67*
X0000585197Y0001036729D02*
X0000586697Y0001035229D01*
X0000591196Y0001033728D01*
X0000594196Y0001033728D01*
X0000598695Y0001035229D01*
X0000601695Y0001038227D01*
X0000603195Y0001041228D01*
X0000604695Y0001047226D01*
X0000604695Y0001051727D01*
X0000603195Y0001057726D01*
X0000601695Y0001060726D01*
X0000598695Y0001063725D01*
X0000594196Y0001065225D01*
X0000591196Y0001065225D01*
X0000586697Y0001063725D01*
X0000585197Y0001062225D01*
X0000573199Y0001042728D02*
X0000558200Y0001042728D01*
X0000576198Y0001033728D02*
X0000565700Y0001065225D01*
X0000555201Y0001033728D01*
X0000544702Y0001033728D02*
X0000544702Y0001065225D01*
X0000526704Y0001033728D01*
X0000526704Y0001065225D01*
D70*
X0000615950Y0001075977D02*
X0000511792Y0001075977D01*
D71*
X0000701181Y0000358031D02*
X0000701181Y-0000138031D01*
X0000701181Y-0000138031D02*
X0000094881Y-0000138031D01*
X0000094881Y-0000138031D02*
X0000094881Y-0000100629D01*
X0000094881Y-0000100629D02*
X0000075196Y-0000112440D01*
X0000075196Y-0000112440D02*
X0000075196Y-0000033700D01*
X0000075196Y-0000033700D02*
X0000094881Y-0000043543D01*
X0000094881Y-0000043543D02*
X0000094881Y0000169055D01*
X0000094881Y0000169055D02*
X0000075196Y0000159212D01*
X0000075196Y0000159212D02*
X0000075196Y0000358031D01*
X0000075196Y0000358031D02*
X0000701181Y0000358031D01*
X0000590960Y0000543999D02*
X0000590960Y0000643999D01*
X0000661038Y0000643999D02*
X0000661038Y0000543999D01*
X0000661038Y0000643999D02*
X0000590960Y0000643999D01*
X0000590960Y0000543999D02*
X0000661038Y0000543999D01*
X0000672362Y0000482362D02*
X0000672362Y0000377637D01*
X0000470000Y0000482362D02*
X0000672362Y0000482362D01*
X0000470000Y0000377637D02*
X0000672362Y0000377637D01*
X0000470000Y0000482362D02*
X0000470000Y0000377637D01*
X0000420000Y0000482362D02*
X0000367637Y0000482362D01*
X0000367637Y0000482362D02*
X0000367637Y0000429999D01*
D72*
X0000635033Y0001114916D02*
X0000635033Y0001669916D01*
X0000045033Y0001669916D02*
X0000045033Y0001114916D01*
X0000635033Y0001114916D02*
X0000045033Y0001114916D01*
X0000635033Y0001669916D02*
X0000045033Y0001669916D01*
D73*
X0000645249Y0000298623D02*
X0000645249Y0000287375D01*
X0000645999Y0000285125D01*
X0000647499Y0000283625D01*
X0000649748Y0000282875D01*
X0000651248Y0000282875D01*
X0000638500Y0000297124D02*
X0000637750Y0000297873D01*
X0000636250Y0000298623D01*
X0000632500Y0000298623D01*
X0000631000Y0000297873D01*
X0000630251Y0000297124D01*
X0000629501Y0000295624D01*
X0000629501Y0000294124D01*
X0000630251Y0000291874D01*
X0000639250Y0000282875D01*
X0000629501Y0000282875D01*
X0000574623Y0000558750D02*
X0000563375Y0000558750D01*
X0000561125Y0000558000D01*
X0000559625Y0000556500D01*
X0000558875Y0000554251D01*
X0000558875Y0000552751D01*
X0000574623Y0000564749D02*
X0000574623Y0000574498D01*
X0000568624Y0000569249D01*
X0000568624Y0000571499D01*
X0000567874Y0000572998D01*
X0000567124Y0000573748D01*
X0000565625Y0000574498D01*
X0000561875Y0000574498D01*
X0000560375Y0000573748D01*
X0000559625Y0000572998D01*
X0000558875Y0000571499D01*
X0000558875Y0000566999D01*
X0000559625Y0000565499D01*
X0000560375Y0000564749D01*
X0000351376Y0000385249D02*
X0000362624Y0000385249D01*
X0000364874Y0000385999D01*
X0000366374Y0000387499D01*
X0000367124Y0000389748D01*
X0000367124Y0000391248D01*
X0000367124Y0000369500D02*
X0000367124Y0000378500D01*
X0000367124Y0000374000D02*
X0000351376Y0000374000D01*
X0000353625Y0000375500D01*
X0000355125Y0000377000D01*
X0000355875Y0000378500D01*
X0000121376Y0001165249D02*
X0000132624Y0001165249D01*
X0000134874Y0001165999D01*
X0000136374Y0001167499D01*
X0000137124Y0001169748D01*
X0000137124Y0001171248D01*
X0000126623Y0001151001D02*
X0000137124Y0001151001D01*
X0000120626Y0001154750D02*
X0000131874Y0001158500D01*
X0000131874Y0001148751D01*
%LPC*%
D74*
X0000596850Y0000109999D03*
D75*
X0000400000Y0000109999D03*
X0000203149Y0000109999D03*
D76*
X0000626000Y0000568803D03*
X0000626000Y0000619196D03*
D77*
X0000339999Y0001269999D03*
D78*
X0000070000Y0000099999D03*
D79*
X0000420000Y0000429999D03*
D80*
X0000520000Y0000429999D03*
X0000620000Y0000429999D03*
D81*
X0000480033Y0001159916D03*
X0000380033Y0001159916D03*
X0000300033Y0001159916D03*
X0000200033Y0001159916D03*
D82*
X0000570000Y0001249999D03*
X0000110000Y0001249999D03*
D83*
X0000250000Y0001254999D03*
X0000430000Y0001254999D03*
%LPD*%
G01*
D94*
X0000668117Y0002180429D02*
X0000668117Y0002200114D01*
X0000661556Y0002186053D01*
X0000654994Y0002200114D01*
X0000654994Y0002180429D01*
X0000646557Y0002186053D02*
X0000637183Y0002186053D01*
X0000648432Y0002180429D02*
X0000641870Y0002200114D01*
X0000635309Y0002180429D01*
X0000629685Y0002181366D02*
X0000626872Y0002180429D01*
X0000622185Y0002180429D01*
X0000620311Y0002181366D01*
X0000619373Y0002182304D01*
X0000618436Y0002184178D01*
X0000618436Y0002186053D01*
X0000619373Y0002187928D01*
X0000620311Y0002188865D01*
X0000622185Y0002189803D01*
X0000625935Y0002190740D01*
X0000627810Y0002191678D01*
X0000628747Y0002192615D01*
X0000629685Y0002194490D01*
X0000629685Y0002196364D01*
X0000628747Y0002198239D01*
X0000627810Y0002199177D01*
X0000625935Y0002200114D01*
X0000621248Y0002200114D01*
X0000618436Y0002199177D01*
X0000612812Y0002200114D02*
X0000601563Y0002200114D01*
X0000607187Y0002180429D02*
X0000607187Y0002200114D01*
X0000595001Y0002190740D02*
X0000588440Y0002190740D01*
X0000585628Y0002180429D02*
X0000595001Y0002180429D01*
X0000595001Y0002200114D01*
X0000585628Y0002200114D01*
X0000565942Y0002180429D02*
X0000572504Y0002189803D01*
X0000577191Y0002180429D02*
X0000577191Y0002200114D01*
X0000569692Y0002200114D01*
X0000567817Y0002199177D01*
X0000566880Y0002198239D01*
X0000565942Y0002196364D01*
X0000565942Y0002193552D01*
X0000566880Y0002191678D01*
X0000567817Y0002190740D01*
X0000569692Y0002189803D01*
X0000577191Y0002189803D01*
X0000656399Y0002145980D02*
X0000662962Y0002155354D01*
X0000667649Y0002145980D02*
X0000667649Y0002165665D01*
X0000660149Y0002165665D01*
X0000658275Y0002164728D01*
X0000657336Y0002163790D01*
X0000656399Y0002161916D01*
X0000656399Y0002159103D01*
X0000657336Y0002157229D01*
X0000658275Y0002156291D01*
X0000660149Y0002155354D01*
X0000667649Y0002155354D01*
X0000647963Y0002156291D02*
X0000641402Y0002156291D01*
X0000638590Y0002145980D02*
X0000647963Y0002145980D01*
X0000647963Y0002165665D01*
X0000638590Y0002165665D01*
X0000631090Y0002146918D02*
X0000628278Y0002145980D01*
X0000623592Y0002145980D01*
X0000621717Y0002146918D01*
X0000620779Y0002147855D01*
X0000619842Y0002149730D01*
X0000619842Y0002151604D01*
X0000620779Y0002153479D01*
X0000621717Y0002154417D01*
X0000623592Y0002155354D01*
X0000627341Y0002156291D01*
X0000629216Y0002157229D01*
X0000630153Y0002158166D01*
X0000631090Y0002160041D01*
X0000631090Y0002161916D01*
X0000630153Y0002163790D01*
X0000629216Y0002164728D01*
X0000627341Y0002165665D01*
X0000622654Y0002165665D01*
X0000619842Y0002164728D01*
X0000611406Y0002145980D02*
X0000611406Y0002165665D01*
X0000602969Y0002146918D02*
X0000600157Y0002145980D01*
X0000595470Y0002145980D01*
X0000593595Y0002146918D01*
X0000592658Y0002147855D01*
X0000591721Y0002149730D01*
X0000591721Y0002151604D01*
X0000592658Y0002153479D01*
X0000593595Y0002154417D01*
X0000595470Y0002155354D01*
X0000599220Y0002156291D01*
X0000601094Y0002157229D01*
X0000602032Y0002158166D01*
X0000602969Y0002160041D01*
X0000602969Y0002161916D01*
X0000602032Y0002163790D01*
X0000601094Y0002164728D01*
X0000599220Y0002165665D01*
X0000594533Y0002165665D01*
X0000591721Y0002164728D01*
X0000586096Y0002165665D02*
X0000574848Y0002165665D01*
X0000580472Y0002145980D02*
X0000580472Y0002165665D01*
X0000564536Y0002165665D02*
X0000560787Y0002165665D01*
X0000558912Y0002164728D01*
X0000557037Y0002162853D01*
X0000556100Y0002159103D01*
X0000556100Y0002152542D01*
X0000557037Y0002148792D01*
X0000558912Y0002146918D01*
X0000560787Y0002145980D01*
X0000564536Y0002145980D01*
X0000566411Y0002146918D01*
X0000568286Y0002148792D01*
X0000569223Y0002152542D01*
X0000569223Y0002159103D01*
X0000568286Y0002162853D01*
X0000566411Y0002164728D01*
X0000564536Y0002165665D01*
X0000536415Y0002145980D02*
X0000542977Y0002155354D01*
X0000547664Y0002145980D02*
X0000547664Y0002165665D01*
X0000540164Y0002165665D01*
X0000538290Y0002164728D01*
X0000537352Y0002163790D01*
X0000536415Y0002161916D01*
X0000536415Y0002159103D01*
X0000537352Y0002157229D01*
X0000538290Y0002156291D01*
X0000540164Y0002155354D01*
X0000547664Y0002155354D01*
D95*
X0000630686Y0001947424D02*
X0000641934Y0001947424D01*
X0000641934Y0001971046D01*
X0000622812Y0001947424D02*
X0000622812Y0001971046D01*
X0000611563Y0001947424D02*
X0000611563Y0001971046D01*
X0000598065Y0001947424D01*
X0000598065Y0001971046D01*
X0000527997Y0001969921D02*
X0000530247Y0001971046D01*
X0000533622Y0001971046D01*
X0000536996Y0001969921D01*
X0000539246Y0001967671D01*
X0000540371Y0001965421D01*
X0000541496Y0001960922D01*
X0000541496Y0001957547D01*
X0000540371Y0001953048D01*
X0000539246Y0001950798D01*
X0000536996Y0001948548D01*
X0000533622Y0001947424D01*
X0000531372Y0001947424D01*
X0000527997Y0001948548D01*
X0000526872Y0001949673D01*
X0000526872Y0001957547D01*
X0000531372Y0001957547D01*
X0000516749Y0001947424D02*
X0000516749Y0001971046D01*
X0000503250Y0001947424D01*
X0000503250Y0001971046D01*
X0000492002Y0001947424D02*
X0000492002Y0001971046D01*
X0000486377Y0001971046D01*
X0000483002Y0001969921D01*
X0000480753Y0001967671D01*
X0000479628Y0001965421D01*
X0000478502Y0001960922D01*
X0000478502Y0001957547D01*
X0000479628Y0001953048D01*
X0000480753Y0001950798D01*
X0000483002Y0001948548D01*
X0000486377Y0001947424D01*
X0000492002Y0001947424D01*
X0000442058Y0001959797D02*
X0000438683Y0001958670D01*
X0000437559Y0001957547D01*
X0000436434Y0001955298D01*
X0000436434Y0001951923D01*
X0000437559Y0001949673D01*
X0000438683Y0001948548D01*
X0000440933Y0001947424D01*
X0000449931Y0001947424D01*
X0000449931Y0001971046D01*
X0000442058Y0001971046D01*
X0000439808Y0001969921D01*
X0000438683Y0001968796D01*
X0000437559Y0001966545D01*
X0000437559Y0001964296D01*
X0000438683Y0001962047D01*
X0000439808Y0001960922D01*
X0000442058Y0001959797D01*
X0000449931Y0001959797D01*
X0000427435Y0001954173D02*
X0000416185Y0001954173D01*
X0000429685Y0001947424D02*
X0000421811Y0001971046D01*
X0000413937Y0001947424D01*
X0000409437Y0001971046D02*
X0000395939Y0001971046D01*
X0000402688Y0001947424D02*
X0000402688Y0001971046D01*
X0000388065Y0001956422D02*
X0000370067Y0001956422D01*
X0000379065Y0001947424D02*
X0000379065Y0001965421D01*
D96*
X0000541372Y0002099886D02*
X0000541372Y0002122383D01*
X0000494128Y0002122383D01*
X0000541372Y0002084137D02*
X0000494128Y0002084137D01*
X0000541372Y0002061640D02*
X0000494128Y0002061640D01*
X0000541372Y0002034644D01*
X0000494128Y0002034644D01*
X0000346377Y0002119636D02*
X0000344128Y0002124135D01*
X0000344128Y0002130884D01*
X0000346377Y0002137634D01*
X0000350877Y0002142133D01*
X0000355376Y0002144383D01*
X0000364375Y0002146632D01*
X0000371124Y0002146632D01*
X0000380123Y0002144383D01*
X0000384623Y0002142133D01*
X0000389122Y0002137634D01*
X0000391372Y0002130884D01*
X0000391372Y0002126385D01*
X0000389122Y0002119636D01*
X0000386872Y0002117386D01*
X0000371124Y0002117386D01*
X0000371124Y0002126385D01*
X0000391372Y0002097138D02*
X0000344128Y0002097138D01*
X0000391372Y0002070142D01*
X0000344128Y0002070142D01*
X0000391372Y0002047645D02*
X0000344128Y0002047645D01*
X0000344128Y0002036395D01*
X0000346377Y0002029647D01*
X0000350877Y0002025148D01*
X0000355376Y0002022898D01*
X0000364375Y0002020648D01*
X0000371124Y0002020648D01*
X0000380123Y0002022898D01*
X0000384623Y0002025148D01*
X0000389122Y0002029647D01*
X0000391372Y0002036395D01*
X0000391372Y0002047645D01*
X0000206625Y0002128635D02*
X0000208875Y0002121886D01*
X0000211123Y0002119636D01*
X0000215623Y0002117386D01*
X0000222373Y0002117386D01*
X0000226872Y0002119636D01*
X0000229122Y0002121886D01*
X0000231372Y0002126385D01*
X0000231372Y0002144383D01*
X0000184128Y0002144383D01*
X0000184128Y0002128635D01*
X0000186377Y0002124135D01*
X0000188627Y0002121886D01*
X0000193127Y0002119636D01*
X0000197626Y0002119636D01*
X0000202125Y0002121886D01*
X0000204375Y0002124135D01*
X0000206625Y0002128635D01*
X0000206625Y0002144383D01*
X0000217873Y0002099388D02*
X0000217873Y0002076890D01*
X0000231372Y0002103888D02*
X0000184128Y0002088140D01*
X0000231372Y0002072391D01*
X0000184128Y0002063393D02*
X0000184128Y0002036395D01*
X0000231372Y0002049894D02*
X0000184128Y0002049894D01*
X0000213373Y0002020648D02*
X0000213373Y0001984653D01*
X0000231372Y0002002650D02*
X0000195376Y0002002650D01*
D95*
X0000579944Y0002457401D02*
X0000591193Y0002457401D01*
X0000591193Y0002481023D01*
X0000572070Y0002481023D02*
X0000572070Y0002461901D01*
X0000570945Y0002459651D01*
X0000569820Y0002458526D01*
X0000567571Y0002457401D01*
X0000563071Y0002457401D01*
X0000560821Y0002458526D01*
X0000559697Y0002459651D01*
X0000558572Y0002461901D01*
X0000558572Y0002481023D01*
X0000533825Y0002459651D02*
X0000534950Y0002458526D01*
X0000538324Y0002457401D01*
X0000540574Y0002457401D01*
X0000543949Y0002458526D01*
X0000546198Y0002460776D01*
X0000547323Y0002463026D01*
X0000548448Y0002467525D01*
X0000548448Y0002470900D01*
X0000547323Y0002475399D01*
X0000546198Y0002477649D01*
X0000543949Y0002479898D01*
X0000540574Y0002481023D01*
X0000538324Y0002481023D01*
X0000534950Y0002479898D01*
X0000533825Y0002478774D01*
X0000511328Y0002457401D02*
X0000524826Y0002457401D01*
X0000518077Y0002457401D02*
X0000518077Y0002481023D01*
X0000520325Y0002477649D01*
X0000522576Y0002475399D01*
X0000524826Y0002474274D01*
X0000501204Y0002459651D02*
X0000500079Y0002458526D01*
X0000501204Y0002457401D01*
X0000502329Y0002458526D01*
X0000501204Y0002459651D01*
X0000501204Y0002457401D01*
X0000485456Y0002481023D02*
X0000483206Y0002481023D01*
X0000480956Y0002479898D01*
X0000479832Y0002478774D01*
X0000478707Y0002476524D01*
X0000477582Y0002472024D01*
X0000477582Y0002466400D01*
X0000478707Y0002461901D01*
X0000479832Y0002459651D01*
X0000480956Y0002458526D01*
X0000483206Y0002457401D01*
X0000485456Y0002457401D01*
X0000487706Y0002458526D01*
X0000488830Y0002459651D01*
X0000489955Y0002461901D01*
X0000491079Y0002466400D01*
X0000491079Y0002472024D01*
X0000489955Y0002476524D01*
X0000488830Y0002478774D01*
X0000487706Y0002479898D01*
X0000485456Y0002481023D01*
D97*
X0000615077Y0002533051D02*
X0000615077Y0002472496D01*
X0000617889Y0002465372D01*
X0000620701Y0002461810D01*
X0000626325Y0002458248D01*
X0000637574Y0002458248D01*
X0000643198Y0002461810D01*
X0000646010Y0002465372D01*
X0000648821Y0002472496D01*
X0000648821Y0002533051D01*
D95*
X0000585197Y0002494839D02*
X0000586697Y0002493339D01*
X0000591196Y0002491839D01*
X0000594196Y0002491839D01*
X0000598695Y0002493339D01*
X0000601695Y0002496339D01*
X0000603195Y0002499338D01*
X0000604695Y0002505337D01*
X0000604695Y0002509837D01*
X0000603195Y0002515836D01*
X0000601695Y0002518836D01*
X0000598695Y0002521834D01*
X0000594196Y0002523335D01*
X0000591196Y0002523335D01*
X0000586697Y0002521834D01*
X0000585197Y0002520336D01*
X0000573199Y0002500838D02*
X0000558200Y0002500838D01*
X0000576198Y0002491839D02*
X0000565700Y0002523335D01*
X0000555201Y0002491839D01*
X0000544702Y0002491839D02*
X0000544702Y0002523335D01*
X0000526704Y0002491839D01*
X0000526704Y0002523335D01*
D98*
X0000615950Y0002534087D02*
X0000511792Y0002534087D01*
D99*
X0000701181Y0001816141D02*
X0000701181Y0001320078D01*
X0000701181Y0001320078D02*
X0000094881Y0001320078D01*
X0000094881Y0001320078D02*
X0000094881Y0001357478D01*
X0000094881Y0001357478D02*
X0000075196Y0001345669D01*
X0000075196Y0001345669D02*
X0000075196Y0001424409D01*
X0000075196Y0001424409D02*
X0000094881Y0001414566D01*
X0000094881Y0001414566D02*
X0000094881Y0001627165D01*
X0000094881Y0001627165D02*
X0000075196Y0001617322D01*
X0000075196Y0001617322D02*
X0000075196Y0001816141D01*
X0000075196Y0001816141D02*
X0000701181Y0001816141D01*
X0000590960Y0002002110D02*
X0000590960Y0002102110D01*
X0000661038Y0002102110D02*
X0000661038Y0002002110D01*
X0000661038Y0002102110D02*
X0000590960Y0002102110D01*
X0000590960Y0002002110D02*
X0000661038Y0002002110D01*
X0000672362Y0001940470D02*
X0000672362Y0001835747D01*
X0000470000Y0001940470D02*
X0000672362Y0001940470D01*
X0000470000Y0001835747D02*
X0000672362Y0001835747D01*
X0000470000Y0001940470D02*
X0000470000Y0001835747D01*
X0000420000Y0001940470D02*
X0000367637Y0001940470D01*
X0000367637Y0001940470D02*
X0000367637Y0001888110D01*
D100*
X0000635033Y0002573026D02*
X0000635033Y0003128026D01*
X0000045033Y0003128026D02*
X0000045033Y0002573026D01*
X0000635033Y0002573026D02*
X0000045033Y0002573026D01*
X0000635033Y0003128026D02*
X0000045033Y0003128026D01*
D101*
X0000645249Y0001756734D02*
X0000645249Y0001745485D01*
X0000645999Y0001743235D01*
X0000647499Y0001741735D01*
X0000649748Y0001740986D01*
X0000651248Y0001740986D01*
X0000638500Y0001755233D02*
X0000637750Y0001755984D01*
X0000636250Y0001756734D01*
X0000632500Y0001756734D01*
X0000631000Y0001755984D01*
X0000630251Y0001755233D01*
X0000629501Y0001753734D01*
X0000629501Y0001752234D01*
X0000630251Y0001749984D01*
X0000639250Y0001740986D01*
X0000629501Y0001740986D01*
X0000574623Y0002016859D02*
X0000563375Y0002016859D01*
X0000561125Y0002016109D01*
X0000559625Y0002014611D01*
X0000558875Y0002012360D01*
X0000558875Y0002010860D01*
X0000574623Y0002022860D02*
X0000574623Y0002032608D01*
X0000568624Y0002027359D01*
X0000568624Y0002029609D01*
X0000567874Y0002031108D01*
X0000567124Y0002031858D01*
X0000565625Y0002032608D01*
X0000561875Y0002032608D01*
X0000560375Y0002031858D01*
X0000559625Y0002031108D01*
X0000558875Y0002029609D01*
X0000558875Y0002025109D01*
X0000559625Y0002023610D01*
X0000560375Y0002022860D01*
X0000351376Y0001843359D02*
X0000362624Y0001843359D01*
X0000364874Y0001844109D01*
X0000366374Y0001845609D01*
X0000367124Y0001847858D01*
X0000367124Y0001849358D01*
X0000367124Y0001827611D02*
X0000367124Y0001836609D01*
X0000367124Y0001832110D02*
X0000351376Y0001832110D01*
X0000353625Y0001833610D01*
X0000355125Y0001835110D01*
X0000355875Y0001836609D01*
X0000121376Y0002623359D02*
X0000132624Y0002623359D01*
X0000134874Y0002624109D01*
X0000136374Y0002625609D01*
X0000137124Y0002627858D01*
X0000137124Y0002629358D01*
X0000126623Y0002609111D02*
X0000137124Y0002609111D01*
X0000120626Y0002612860D02*
X0000131874Y0002616610D01*
X0000131874Y0002606861D01*
%LPC*%
D102*
X0000596850Y0001568108D03*
D103*
X0000400000Y0001568108D03*
X0000203149Y0001568108D03*
D104*
X0000626000Y0002026913D03*
X0000626000Y0002077306D03*
D105*
X0000339999Y0002728110D03*
D106*
X0000070000Y0001558110D03*
D107*
X0000420000Y0001888110D03*
D108*
X0000520000Y0001888110D03*
X0000620000Y0001888110D03*
D109*
X0000480033Y0002618026D03*
X0000380033Y0002618026D03*
X0000300033Y0002618026D03*
X0000200033Y0002618026D03*
D110*
X0000570000Y0002708110D03*
X0000110000Y0002708110D03*
D111*
X0000250000Y0002713110D03*
X0000430000Y0002713110D03*
G04 next file*
%LPD*%
G01*
D122*
X0001486227Y0000722319D02*
X0001486227Y0000742004D01*
X0001479666Y0000727943D01*
X0001473104Y0000742004D01*
X0001473104Y0000722319D01*
X0001464668Y0000727943D02*
X0001455294Y0000727943D01*
X0001466540Y0000722319D02*
X0001459981Y0000742004D01*
X0001453417Y0000722319D01*
X0001447795Y0000723256D02*
X0001444983Y0000722319D01*
X0001440294Y0000722319D01*
X0001438421Y0000723256D01*
X0001437484Y0000724194D01*
X0001436546Y0000726068D01*
X0001436546Y0000727943D01*
X0001437484Y0000729818D01*
X0001438421Y0000730755D01*
X0001440294Y0000731693D01*
X0001444045Y0000732630D01*
X0001445920Y0000733567D01*
X0001446857Y0000734505D01*
X0001447795Y0000736380D01*
X0001447795Y0000738254D01*
X0001446857Y0000740129D01*
X0001445920Y0000741066D01*
X0001444045Y0000742004D01*
X0001439358Y0000742004D01*
X0001436546Y0000741066D01*
X0001430922Y0000742004D02*
X0001419673Y0000742004D01*
X0001425298Y0000722319D02*
X0001425298Y0000742004D01*
X0001413112Y0000732630D02*
X0001406550Y0000732630D01*
X0001403737Y0000722319D02*
X0001413112Y0000722319D01*
X0001413112Y0000742004D01*
X0001403737Y0000742004D01*
X0001384053Y0000722319D02*
X0001390614Y0000731693D01*
X0001395301Y0000722319D02*
X0001395301Y0000742004D01*
X0001387802Y0000742004D01*
X0001385927Y0000741066D01*
X0001384990Y0000740129D01*
X0001384053Y0000738254D01*
X0001384053Y0000735442D01*
X0001384990Y0000733567D01*
X0001385927Y0000732630D01*
X0001387802Y0000731693D01*
X0001395301Y0000731693D01*
X0001474510Y0000687870D02*
X0001481072Y0000697244D01*
X0001485759Y0000687870D02*
X0001485759Y0000707554D01*
X0001478259Y0000707554D01*
X0001476385Y0000706618D01*
X0001475448Y0000705680D01*
X0001474510Y0000703805D01*
X0001474510Y0000700993D01*
X0001475448Y0000699119D01*
X0001476385Y0000698181D01*
X0001478259Y0000697244D01*
X0001485759Y0000697244D01*
X0001466074Y0000698181D02*
X0001459512Y0000698181D01*
X0001456700Y0000687870D02*
X0001466074Y0000687870D01*
X0001466074Y0000707554D01*
X0001456700Y0000707554D01*
X0001449201Y0000688807D02*
X0001446389Y0000687870D01*
X0001441702Y0000687870D01*
X0001439827Y0000688807D01*
X0001438890Y0000689745D01*
X0001437952Y0000691619D01*
X0001437952Y0000693494D01*
X0001438890Y0000695368D01*
X0001439827Y0000696306D01*
X0001441702Y0000697244D01*
X0001445451Y0000698181D01*
X0001447326Y0000699119D01*
X0001448263Y0000700056D01*
X0001449201Y0000701930D01*
X0001449201Y0000703805D01*
X0001448263Y0000705680D01*
X0001447326Y0000706618D01*
X0001445451Y0000707554D01*
X0001440764Y0000707554D01*
X0001437952Y0000706618D01*
X0001429516Y0000687870D02*
X0001429516Y0000707554D01*
X0001421079Y0000688807D02*
X0001418267Y0000687870D01*
X0001413580Y0000687870D01*
X0001411706Y0000688807D01*
X0001410768Y0000689745D01*
X0001409831Y0000691619D01*
X0001409831Y0000693494D01*
X0001410768Y0000695368D01*
X0001411706Y0000696306D01*
X0001413580Y0000697244D01*
X0001417330Y0000698181D01*
X0001419205Y0000699119D01*
X0001420142Y0000700056D01*
X0001421079Y0000701930D01*
X0001421079Y0000703805D01*
X0001420142Y0000705680D01*
X0001419205Y0000706618D01*
X0001417330Y0000707554D01*
X0001412643Y0000707554D01*
X0001409831Y0000706618D01*
X0001404206Y0000707554D02*
X0001392958Y0000707554D01*
X0001398582Y0000687870D02*
X0001398582Y0000707554D01*
X0001382647Y0000707554D02*
X0001378897Y0000707554D01*
X0001377022Y0000706618D01*
X0001375148Y0000704743D01*
X0001374210Y0000700993D01*
X0001374210Y0000694431D01*
X0001375148Y0000690682D01*
X0001377022Y0000688807D01*
X0001378897Y0000687870D01*
X0001382647Y0000687870D01*
X0001384521Y0000688807D01*
X0001386396Y0000690682D01*
X0001387334Y0000694431D01*
X0001387334Y0000700993D01*
X0001386396Y0000704743D01*
X0001384521Y0000706618D01*
X0001382647Y0000707554D01*
X0001354523Y0000687870D02*
X0001361087Y0000697244D01*
X0001365774Y0000687870D02*
X0001365774Y0000707554D01*
X0001358275Y0000707554D01*
X0001356400Y0000706618D01*
X0001355463Y0000705680D01*
X0001354523Y0000703805D01*
X0001354523Y0000700993D01*
X0001355463Y0000699119D01*
X0001356400Y0000698181D01*
X0001358275Y0000697244D01*
X0001365774Y0000697244D01*
D123*
X0001448796Y0000489313D02*
X0001460044Y0000489313D01*
X0001460044Y0000512935D01*
X0001440922Y0000489313D02*
X0001440922Y0000512935D01*
X0001429673Y0000489313D02*
X0001429673Y0000512935D01*
X0001416175Y0000489313D01*
X0001416175Y0000512935D01*
X0001346105Y0000511810D02*
X0001348357Y0000512935D01*
X0001351732Y0000512935D01*
X0001355106Y0000511810D01*
X0001357354Y0000509561D01*
X0001358481Y0000507310D01*
X0001359606Y0000502812D01*
X0001359606Y0000499437D01*
X0001358481Y0000494938D01*
X0001357354Y0000492688D01*
X0001355106Y0000490438D01*
X0001351732Y0000489313D01*
X0001349482Y0000489313D01*
X0001346105Y0000490438D01*
X0001344983Y0000491563D01*
X0001344983Y0000499437D01*
X0001349482Y0000499437D01*
X0001334859Y0000489313D02*
X0001334859Y0000512935D01*
X0001321361Y0000489313D01*
X0001321361Y0000512935D01*
X0001310112Y0000489313D02*
X0001310112Y0000512935D01*
X0001304488Y0000512935D01*
X0001301113Y0000511810D01*
X0001298862Y0000509561D01*
X0001297739Y0000507310D01*
X0001296614Y0000502812D01*
X0001296614Y0000499437D01*
X0001297739Y0000494938D01*
X0001298862Y0000492688D01*
X0001301113Y0000490438D01*
X0001304488Y0000489313D01*
X0001310112Y0000489313D01*
X0001260168Y0000501687D02*
X0001256794Y0000500561D01*
X0001255669Y0000499437D01*
X0001254544Y0000497186D01*
X0001254544Y0000493813D01*
X0001255669Y0000491563D01*
X0001256794Y0000490438D01*
X0001259043Y0000489313D01*
X0001268042Y0000489313D01*
X0001268042Y0000512935D01*
X0001260168Y0000512935D01*
X0001257918Y0000511810D01*
X0001256794Y0000510686D01*
X0001255669Y0000508436D01*
X0001255669Y0000506186D01*
X0001256794Y0000503936D01*
X0001257918Y0000502812D01*
X0001260168Y0000501687D01*
X0001268042Y0000501687D01*
X0001245545Y0000496062D02*
X0001234296Y0000496062D01*
X0001247795Y0000489313D02*
X0001239921Y0000512935D01*
X0001232047Y0000489313D01*
X0001227547Y0000512935D02*
X0001214049Y0000512935D01*
X0001220798Y0000489313D02*
X0001220798Y0000512935D01*
X0001206175Y0000498312D02*
X0001188177Y0000498312D01*
X0001197176Y0000489313D02*
X0001197176Y0000507310D01*
D124*
X0001359482Y0000641774D02*
X0001359482Y0000664273D01*
X0001312238Y0000664273D01*
X0001359482Y0000626027D02*
X0001312238Y0000626027D01*
X0001359482Y0000603530D02*
X0001312238Y0000603530D01*
X0001359482Y0000576534D01*
X0001312238Y0000576534D01*
X0001164488Y0000661526D02*
X0001162238Y0000666025D01*
X0001162238Y0000672774D01*
X0001164488Y0000679523D01*
X0001168987Y0000684023D01*
X0001173487Y0000686273D01*
X0001182485Y0000688521D01*
X0001189235Y0000688521D01*
X0001198233Y0000686273D01*
X0001202733Y0000684023D01*
X0001207232Y0000679523D01*
X0001209482Y0000672774D01*
X0001209482Y0000668275D01*
X0001207232Y0000661526D01*
X0001204983Y0000659275D01*
X0001189235Y0000659275D01*
X0001189235Y0000668275D01*
X0001209482Y0000639028D02*
X0001162238Y0000639028D01*
X0001209482Y0000612032D01*
X0001162238Y0000612032D01*
X0001209482Y0000589535D02*
X0001162238Y0000589535D01*
X0001162238Y0000578286D01*
X0001164488Y0000571537D01*
X0001168987Y0000567037D01*
X0001173487Y0000564788D01*
X0001182485Y0000562538D01*
X0001189235Y0000562538D01*
X0001198233Y0000564788D01*
X0001202733Y0000567037D01*
X0001207232Y0000571537D01*
X0001209482Y0000578286D01*
X0001209482Y0000589535D01*
X0001024735Y0000670524D02*
X0001026985Y0000663775D01*
X0001029234Y0000661526D01*
X0001033733Y0000659275D01*
X0001040483Y0000659275D01*
X0001044983Y0000661526D01*
X0001047231Y0000663775D01*
X0001049482Y0000668275D01*
X0001049482Y0000686273D01*
X0001002238Y0000686273D01*
X0001002238Y0000670524D01*
X0001004488Y0000666025D01*
X0001006737Y0000663775D01*
X0001011236Y0000661526D01*
X0001015736Y0000661526D01*
X0001020235Y0000663775D01*
X0001022485Y0000666025D01*
X0001024735Y0000670524D01*
X0001024735Y0000686273D01*
X0001035984Y0000641278D02*
X0001035984Y0000618781D01*
X0001049482Y0000645778D02*
X0001002238Y0000630029D01*
X0001049482Y0000614282D01*
X0001002238Y0000605283D02*
X0001002238Y0000578286D01*
X0001049482Y0000591784D02*
X0001002238Y0000591784D01*
X0001031484Y0000562538D02*
X0001031484Y0000526542D01*
X0001049482Y0000544540D02*
X0001013487Y0000544540D01*
D123*
X0001398054Y0000999291D02*
X0001409303Y0000999291D01*
X0001409303Y0001022913D01*
X0001390180Y0001022913D02*
X0001390180Y0001003790D01*
X0001389055Y0001001541D01*
X0001387931Y0001000416D01*
X0001385681Y0000999291D01*
X0001381181Y0000999291D01*
X0001378932Y0001000416D01*
X0001377807Y0001001541D01*
X0001376682Y0001003790D01*
X0001376682Y0001022913D01*
X0001351935Y0001001541D02*
X0001353060Y0001000416D01*
X0001356434Y0000999291D01*
X0001358684Y0000999291D01*
X0001362059Y0001000416D01*
X0001364308Y0001002666D01*
X0001365433Y0001004915D01*
X0001366558Y0001009415D01*
X0001366558Y0001012788D01*
X0001365433Y0001017289D01*
X0001364308Y0001019539D01*
X0001362059Y0001021787D01*
X0001358684Y0001022913D01*
X0001356434Y0001022913D01*
X0001353060Y0001021787D01*
X0001351935Y0001020663D01*
X0001329438Y0000999291D02*
X0001342936Y0000999291D01*
X0001336185Y0000999291D02*
X0001336185Y0001022913D01*
X0001338437Y0001019539D01*
X0001340686Y0001017289D01*
X0001342936Y0001016164D01*
X0001319314Y0001001541D02*
X0001318189Y0001000416D01*
X0001319314Y0000999291D01*
X0001320439Y0001000416D01*
X0001319314Y0001001541D01*
X0001319314Y0000999291D01*
X0001303566Y0001022913D02*
X0001301316Y0001022913D01*
X0001299067Y0001021787D01*
X0001297942Y0001020663D01*
X0001296817Y0001018413D01*
X0001295692Y0001013914D01*
X0001295692Y0001008289D01*
X0001296817Y0001003790D01*
X0001297942Y0001001541D01*
X0001299067Y0001000416D01*
X0001301316Y0000999291D01*
X0001303566Y0000999291D01*
X0001305816Y0001000416D01*
X0001306941Y0001001541D01*
X0001308065Y0001003790D01*
X0001309190Y0001008289D01*
X0001309190Y0001013914D01*
X0001308065Y0001018413D01*
X0001306941Y0001020663D01*
X0001305816Y0001021787D01*
X0001303566Y0001022913D01*
D125*
X0001433185Y0001074941D02*
X0001433185Y0001014386D01*
X0001435999Y0001007262D01*
X0001438811Y0001003700D01*
X0001444435Y0001000138D01*
X0001455684Y0001000138D01*
X0001461308Y0001003700D01*
X0001464121Y0001007262D01*
X0001466933Y0001014386D01*
X0001466933Y0001074941D01*
D123*
X0001403307Y0001036729D02*
X0001404807Y0001035229D01*
X0001409307Y0001033728D01*
X0001412306Y0001033728D01*
X0001416806Y0001035229D01*
X0001419805Y0001038227D01*
X0001421305Y0001041228D01*
X0001422804Y0001047226D01*
X0001422804Y0001051727D01*
X0001421305Y0001057726D01*
X0001419805Y0001060726D01*
X0001416806Y0001063725D01*
X0001412306Y0001065225D01*
X0001409307Y0001065225D01*
X0001404807Y0001063725D01*
X0001403307Y0001062225D01*
X0001391309Y0001042728D02*
X0001376311Y0001042728D01*
X0001394308Y0001033728D02*
X0001383810Y0001065225D01*
X0001373311Y0001033728D01*
X0001362811Y0001033728D02*
X0001362811Y0001065225D01*
X0001344815Y0001033728D01*
X0001344815Y0001065225D01*
D126*
X0001434060Y0001075977D02*
X0001329902Y0001075977D01*
D127*
X0001519291Y0000358031D02*
X0001519291Y-0000138031D01*
X0001519291Y-0000138031D02*
X0000912992Y-0000138031D01*
X0000912992Y-0000138031D02*
X0000912992Y-0000100629D01*
X0000912992Y-0000100629D02*
X0000893307Y-0000112440D01*
X0000893307Y-0000112440D02*
X0000893307Y-0000033700D01*
X0000893307Y-0000033700D02*
X0000912992Y-0000043543D01*
X0000912992Y-0000043543D02*
X0000912992Y0000169055D01*
X0000912992Y0000169055D02*
X0000893307Y0000159212D01*
X0000893307Y0000159212D02*
X0000893307Y0000358031D01*
X0000893307Y0000358031D02*
X0001519291Y0000358031D01*
X0001409070Y0000543999D02*
X0001409070Y0000643999D01*
X0001479149Y0000643999D02*
X0001479149Y0000543999D01*
X0001479149Y0000643999D02*
X0001409070Y0000643999D01*
X0001409070Y0000543999D02*
X0001479149Y0000543999D01*
X0001490472Y0000482362D02*
X0001490472Y0000377637D01*
X0001288109Y0000482362D02*
X0001490472Y0000482362D01*
X0001288109Y0000377637D02*
X0001490472Y0000377637D01*
X0001288109Y0000482362D02*
X0001288109Y0000377637D01*
X0001238110Y0000482362D02*
X0001185748Y0000482362D01*
X0001185748Y0000482362D02*
X0001185748Y0000429999D01*
D128*
X0001453144Y0001114916D02*
X0001453144Y0001669916D01*
X0000863144Y0001669916D02*
X0000863144Y0001114916D01*
X0001453144Y0001114916D02*
X0000863144Y0001114916D01*
X0001453144Y0001669916D02*
X0000863144Y0001669916D01*
D129*
X0001463358Y0000298623D02*
X0001463358Y0000287375D01*
X0001464109Y0000285125D01*
X0001465609Y0000283625D01*
X0001467859Y0000282875D01*
X0001469358Y0000282875D01*
X0001456610Y0000297124D02*
X0001455860Y0000297873D01*
X0001454360Y0000298623D01*
X0001450611Y0000298623D01*
X0001449111Y0000297873D01*
X0001448361Y0000297124D01*
X0001447611Y0000295624D01*
X0001447611Y0000294124D01*
X0001448361Y0000291874D01*
X0001457360Y0000282875D01*
X0001447611Y0000282875D01*
X0001392734Y0000558750D02*
X0001381485Y0000558750D01*
X0001379235Y0000558000D01*
X0001377736Y0000556500D01*
X0001376986Y0000554251D01*
X0001376986Y0000552751D01*
X0001392734Y0000564749D02*
X0001392734Y0000574498D01*
X0001386734Y0000569249D01*
X0001386734Y0000571499D01*
X0001385984Y0000572998D01*
X0001385235Y0000573748D01*
X0001383735Y0000574498D01*
X0001379984Y0000574498D01*
X0001378485Y0000573748D01*
X0001377736Y0000572998D01*
X0001376986Y0000571499D01*
X0001376986Y0000566999D01*
X0001377736Y0000565499D01*
X0001378485Y0000564749D01*
X0001169486Y0000385249D02*
X0001180734Y0000385249D01*
X0001182984Y0000385999D01*
X0001184484Y0000387499D01*
X0001185234Y0000389748D01*
X0001185234Y0000391248D01*
X0001185234Y0000369500D02*
X0001185234Y0000378500D01*
X0001185234Y0000374000D02*
X0001169486Y0000374000D01*
X0001171736Y0000375500D01*
X0001173235Y0000377000D01*
X0001173985Y0000378500D01*
X0000939486Y0001165249D02*
X0000950733Y0001165249D01*
X0000952984Y0001165999D01*
X0000954484Y0001167499D01*
X0000955234Y0001169748D01*
X0000955234Y0001171248D01*
X0000944735Y0001151001D02*
X0000955234Y0001151001D01*
X0000938736Y0001154750D02*
X0000949985Y0001158500D01*
X0000949985Y0001148751D01*
%LPC*%
D130*
X0001414960Y0000109999D03*
D131*
X0001218110Y0000109999D03*
X0001021258Y0000109999D03*
D132*
X0001444110Y0000568803D03*
X0001444110Y0000619196D03*
D133*
X0001158110Y0001269999D03*
D134*
X0000888110Y0000099999D03*
D135*
X0001238110Y0000429999D03*
D136*
X0001338110Y0000429999D03*
X0001438110Y0000429999D03*
D137*
X0001298144Y0001159916D03*
X0001198144Y0001159916D03*
X0001118144Y0001159916D03*
X0001018143Y0001159916D03*
D138*
X0001388110Y0001249999D03*
X0000928110Y0001249999D03*
D139*
X0001068110Y0001254999D03*
X0001248110Y0001254999D03*
G04 next file*
%LPD*%
G04 #@! TF.GenerationSoftware,KiCad,Pcbnew,(2018-02-16 revision c95340fba)-makepkg*
G04 #@! TF.CreationDate,2018-05-25T20:47:33+02:00*
G04 #@! TF.ProjectId,LIN_USB_CONVERTER,4C494E5F5553425F434F4E5645525445,rev?*
G04 #@! TF.SameCoordinates,PX85b9e30PY4aad300*
G04 #@! TF.FileFunction,Legend,Bot*
G04 #@! TF.FilePolarity,Positive*
G04 Gerber Fmt 4.6, Leading zero omitted, Abs format (unit mm)*
G04 Created by KiCad (PCBNEW (2018-02-16 revision c95340fba)-makepkg) date 05/25/18 20:47:33*
G01*
G04 APERTURE LIST*
G04 APERTURE END LIST*
D150*
X0002304338Y0000722319D02*
X0002304338Y0000742004D01*
X0002297776Y0000727943D01*
X0002291214Y0000742004D01*
X0002291214Y0000722319D01*
X0002282778Y0000727943D02*
X0002273404Y0000727943D01*
X0002284653Y0000722319D02*
X0002278091Y0000742004D01*
X0002271529Y0000722319D01*
X0002265905Y0000723256D02*
X0002263093Y0000722319D01*
X0002258406Y0000722319D01*
X0002256531Y0000723256D01*
X0002255594Y0000724194D01*
X0002254656Y0000726068D01*
X0002254656Y0000727943D01*
X0002255594Y0000729818D01*
X0002256531Y0000730755D01*
X0002258406Y0000731693D01*
X0002262155Y0000732630D01*
X0002264030Y0000733567D01*
X0002264968Y0000734505D01*
X0002265905Y0000736380D01*
X0002265905Y0000738254D01*
X0002264968Y0000740129D01*
X0002264030Y0000741066D01*
X0002262155Y0000742004D01*
X0002257469Y0000742004D01*
X0002254656Y0000741066D01*
X0002249032Y0000742004D02*
X0002237784Y0000742004D01*
X0002243408Y0000722319D02*
X0002243408Y0000742004D01*
X0002231222Y0000732630D02*
X0002224660Y0000732630D01*
X0002221848Y0000722319D02*
X0002231222Y0000722319D01*
X0002231222Y0000742004D01*
X0002221848Y0000742004D01*
X0002202163Y0000722319D02*
X0002208725Y0000731693D01*
X0002213412Y0000722319D02*
X0002213412Y0000742004D01*
X0002205913Y0000742004D01*
X0002204038Y0000741066D01*
X0002203100Y0000740129D01*
X0002202163Y0000738254D01*
X0002202163Y0000735442D01*
X0002203100Y0000733567D01*
X0002204038Y0000732630D01*
X0002205913Y0000731693D01*
X0002213412Y0000731693D01*
X0002292620Y0000687870D02*
X0002299182Y0000697244D01*
X0002303869Y0000687870D02*
X0002303869Y0000707554D01*
X0002296370Y0000707554D01*
X0002294495Y0000706618D01*
X0002293558Y0000705680D01*
X0002292620Y0000703805D01*
X0002292620Y0000700993D01*
X0002293558Y0000699119D01*
X0002294495Y0000698181D01*
X0002296370Y0000697244D01*
X0002303869Y0000697244D01*
X0002284184Y0000698181D02*
X0002277622Y0000698181D01*
X0002274810Y0000687870D02*
X0002284184Y0000687870D01*
X0002284184Y0000707554D01*
X0002274810Y0000707554D01*
X0002267311Y0000688807D02*
X0002264499Y0000687870D01*
X0002259812Y0000687870D01*
X0002257937Y0000688807D01*
X0002257000Y0000689745D01*
X0002256063Y0000691619D01*
X0002256063Y0000693494D01*
X0002257000Y0000695368D01*
X0002257937Y0000696306D01*
X0002259812Y0000697244D01*
X0002263562Y0000698181D01*
X0002265436Y0000699119D01*
X0002266374Y0000700056D01*
X0002267311Y0000701930D01*
X0002267311Y0000703805D01*
X0002266374Y0000705680D01*
X0002265436Y0000706618D01*
X0002263562Y0000707554D01*
X0002258875Y0000707554D01*
X0002256063Y0000706618D01*
X0002247626Y0000687870D02*
X0002247626Y0000707554D01*
X0002239190Y0000688807D02*
X0002236377Y0000687870D01*
X0002231691Y0000687870D01*
X0002229816Y0000688807D01*
X0002228878Y0000689745D01*
X0002227941Y0000691619D01*
X0002227941Y0000693494D01*
X0002228878Y0000695368D01*
X0002229816Y0000696306D01*
X0002231691Y0000697244D01*
X0002235440Y0000698181D01*
X0002237315Y0000699119D01*
X0002238252Y0000700056D01*
X0002239190Y0000701930D01*
X0002239190Y0000703805D01*
X0002238252Y0000705680D01*
X0002237315Y0000706618D01*
X0002235440Y0000707554D01*
X0002230753Y0000707554D01*
X0002227941Y0000706618D01*
X0002222317Y0000707554D02*
X0002211068Y0000707554D01*
X0002216692Y0000687870D02*
X0002216692Y0000707554D01*
X0002200757Y0000707554D02*
X0002197007Y0000707554D01*
X0002195133Y0000706618D01*
X0002193258Y0000704743D01*
X0002192320Y0000700993D01*
X0002192320Y0000694431D01*
X0002193258Y0000690682D01*
X0002195133Y0000688807D01*
X0002197007Y0000687870D01*
X0002200757Y0000687870D01*
X0002202632Y0000688807D01*
X0002204506Y0000690682D01*
X0002205444Y0000694431D01*
X0002205444Y0000700993D01*
X0002204506Y0000704743D01*
X0002202632Y0000706618D01*
X0002200757Y0000707554D01*
X0002172635Y0000687870D02*
X0002179197Y0000697244D01*
X0002183884Y0000687870D02*
X0002183884Y0000707554D01*
X0002176385Y0000707554D01*
X0002174510Y0000706618D01*
X0002173573Y0000705680D01*
X0002172635Y0000703805D01*
X0002172635Y0000700993D01*
X0002173573Y0000699119D01*
X0002174510Y0000698181D01*
X0002176385Y0000697244D01*
X0002183884Y0000697244D01*
D151*
X0002266906Y0000489313D02*
X0002278155Y0000489313D01*
X0002278155Y0000512935D01*
X0002259032Y0000489313D02*
X0002259032Y0000512935D01*
X0002247784Y0000489313D02*
X0002247784Y0000512935D01*
X0002234285Y0000489313D01*
X0002234285Y0000512935D01*
X0002164218Y0000511810D02*
X0002166467Y0000512935D01*
X0002169842Y0000512935D01*
X0002173217Y0000511810D01*
X0002175466Y0000509561D01*
X0002176591Y0000507310D01*
X0002177716Y0000502812D01*
X0002177716Y0000499437D01*
X0002176591Y0000494938D01*
X0002175466Y0000492688D01*
X0002173217Y0000490438D01*
X0002169842Y0000489313D01*
X0002167592Y0000489313D01*
X0002164218Y0000490438D01*
X0002163093Y0000491563D01*
X0002163093Y0000499437D01*
X0002167592Y0000499437D01*
X0002152969Y0000489313D02*
X0002152969Y0000512935D01*
X0002139471Y0000489313D01*
X0002139471Y0000512935D01*
X0002128222Y0000489313D02*
X0002128222Y0000512935D01*
X0002122598Y0000512935D01*
X0002119223Y0000511810D01*
X0002116974Y0000509561D01*
X0002115849Y0000507310D01*
X0002114724Y0000502812D01*
X0002114724Y0000499437D01*
X0002115849Y0000494938D01*
X0002116974Y0000492688D01*
X0002119223Y0000490438D01*
X0002122598Y0000489313D01*
X0002128222Y0000489313D01*
X0002078278Y0000501687D02*
X0002074904Y0000500561D01*
X0002073779Y0000499437D01*
X0002072654Y0000497186D01*
X0002072654Y0000493813D01*
X0002073779Y0000491563D01*
X0002074904Y0000490438D01*
X0002077154Y0000489313D01*
X0002086151Y0000489313D01*
X0002086151Y0000512935D01*
X0002078278Y0000512935D01*
X0002076029Y0000511810D01*
X0002074904Y0000510686D01*
X0002073779Y0000508436D01*
X0002073779Y0000506186D01*
X0002074904Y0000503936D01*
X0002076029Y0000502812D01*
X0002078278Y0000501687D01*
X0002086151Y0000501687D01*
X0002063654Y0000496062D02*
X0002052407Y0000496062D01*
X0002065904Y0000489313D02*
X0002058031Y0000512935D01*
X0002050157Y0000489313D01*
X0002045658Y0000512935D02*
X0002032159Y0000512935D01*
X0002038908Y0000489313D02*
X0002038908Y0000512935D01*
X0002024285Y0000498312D02*
X0002006287Y0000498312D01*
X0002015286Y0000489313D02*
X0002015286Y0000507310D01*
D152*
X0002177592Y0000641774D02*
X0002177592Y0000664273D01*
X0002130348Y0000664273D01*
X0002177592Y0000626027D02*
X0002130348Y0000626027D01*
X0002177592Y0000603530D02*
X0002130348Y0000603530D01*
X0002177592Y0000576534D01*
X0002130348Y0000576534D01*
X0001982598Y0000661526D02*
X0001980348Y0000666025D01*
X0001980348Y0000672774D01*
X0001982598Y0000679523D01*
X0001987097Y0000684023D01*
X0001991597Y0000686273D01*
X0002000595Y0000688521D01*
X0002007345Y0000688521D01*
X0002016344Y0000686273D01*
X0002020843Y0000684023D01*
X0002025343Y0000679523D01*
X0002027591Y0000672774D01*
X0002027591Y0000668275D01*
X0002025343Y0000661526D01*
X0002023092Y0000659275D01*
X0002007345Y0000659275D01*
X0002007345Y0000668275D01*
X0002027591Y0000639028D02*
X0001980348Y0000639028D01*
X0002027591Y0000612032D01*
X0001980348Y0000612032D01*
X0002027591Y0000589535D02*
X0001980348Y0000589535D01*
X0001980348Y0000578286D01*
X0001982598Y0000571537D01*
X0001987097Y0000567037D01*
X0001991597Y0000564788D01*
X0002000595Y0000562538D01*
X0002007345Y0000562538D01*
X0002016344Y0000564788D01*
X0002020843Y0000567037D01*
X0002025343Y0000571537D01*
X0002027591Y0000578286D01*
X0002027591Y0000589535D01*
X0001842845Y0000670524D02*
X0001845095Y0000663775D01*
X0001847345Y0000661526D01*
X0001851844Y0000659275D01*
X0001858591Y0000659275D01*
X0001863093Y0000661526D01*
X0001865343Y0000663775D01*
X0001867592Y0000668275D01*
X0001867592Y0000686273D01*
X0001820348Y0000686273D01*
X0001820348Y0000670524D01*
X0001822598Y0000666025D01*
X0001824848Y0000663775D01*
X0001829347Y0000661526D01*
X0001833847Y0000661526D01*
X0001838345Y0000663775D01*
X0001840596Y0000666025D01*
X0001842845Y0000670524D01*
X0001842845Y0000686273D01*
X0001854094Y0000641278D02*
X0001854094Y0000618781D01*
X0001867592Y0000645778D02*
X0001820348Y0000630029D01*
X0001867592Y0000614282D01*
X0001820348Y0000605283D02*
X0001820348Y0000578286D01*
X0001867592Y0000591784D02*
X0001820348Y0000591784D01*
X0001849594Y0000562538D02*
X0001849594Y0000526542D01*
X0001867592Y0000544540D02*
X0001831597Y0000544540D01*
D151*
X0002216165Y0000999291D02*
X0002227413Y0000999291D01*
X0002227413Y0001022913D01*
X0002208291Y0001022913D02*
X0002208291Y0001003790D01*
X0002207166Y0001001541D01*
X0002206041Y0001000416D01*
X0002203791Y0000999291D01*
X0002199292Y0000999291D01*
X0002197042Y0001000416D01*
X0002195917Y0001001541D01*
X0002194792Y0001003790D01*
X0002194792Y0001022913D01*
X0002170045Y0001001541D02*
X0002171170Y0001000416D01*
X0002174545Y0000999291D01*
X0002176794Y0000999291D01*
X0002180169Y0001000416D01*
X0002182419Y0001002666D01*
X0002183544Y0001004915D01*
X0002184668Y0001009415D01*
X0002184668Y0001012788D01*
X0002183544Y0001017289D01*
X0002182419Y0001019539D01*
X0002180169Y0001021787D01*
X0002176794Y0001022913D01*
X0002174545Y0001022913D01*
X0002171170Y0001021787D01*
X0002170045Y0001020663D01*
X0002147548Y0000999291D02*
X0002161046Y0000999291D01*
X0002154297Y0000999291D02*
X0002154297Y0001022913D01*
X0002156547Y0001019539D01*
X0002158797Y0001017289D01*
X0002161046Y0001016164D01*
X0002137424Y0001001541D02*
X0002136300Y0001000416D01*
X0002137424Y0000999291D01*
X0002138549Y0001000416D01*
X0002137424Y0001001541D01*
X0002137424Y0000999291D01*
X0002121676Y0001022913D02*
X0002119427Y0001022913D01*
X0002117177Y0001021787D01*
X0002116052Y0001020663D01*
X0002114927Y0001018413D01*
X0002113802Y0001013914D01*
X0002113802Y0001008289D01*
X0002114927Y0001003790D01*
X0002116052Y0001001541D01*
X0002117177Y0001000416D01*
X0002119427Y0000999291D01*
X0002121676Y0000999291D01*
X0002123926Y0001000416D01*
X0002125051Y0001001541D01*
X0002126176Y0001003790D01*
X0002127301Y0001008289D01*
X0002127301Y0001013914D01*
X0002126176Y0001018413D01*
X0002125051Y0001020663D01*
X0002123926Y0001021787D01*
X0002121676Y0001022913D01*
D153*
X0002251297Y0001074941D02*
X0002251297Y0001014386D01*
X0002254109Y0001007262D01*
X0002256922Y0001003700D01*
X0002262546Y0001000138D01*
X0002273794Y0001000138D01*
X0002279419Y0001003700D01*
X0002282231Y0001007262D01*
X0002285043Y0001014386D01*
X0002285043Y0001074941D01*
D151*
X0002221418Y0001036729D02*
X0002222917Y0001035229D01*
X0002227417Y0001033728D01*
X0002230417Y0001033728D01*
X0002234916Y0001035229D01*
X0002237916Y0001038227D01*
X0002239415Y0001041228D01*
X0002240915Y0001047226D01*
X0002240915Y0001051727D01*
X0002239415Y0001057726D01*
X0002237916Y0001060726D01*
X0002234916Y0001063725D01*
X0002230417Y0001065225D01*
X0002227417Y0001065225D01*
X0002222917Y0001063725D01*
X0002221418Y0001062225D01*
X0002209419Y0001042728D02*
X0002194421Y0001042728D01*
X0002212419Y0001033728D02*
X0002201920Y0001065225D01*
X0002191421Y0001033728D01*
X0002180923Y0001033728D02*
X0002180923Y0001065225D01*
X0002162925Y0001033728D01*
X0002162925Y0001065225D01*
D154*
X0002252170Y0001075977D02*
X0002148013Y0001075977D01*
D155*
X0002337401Y0000358031D02*
X0002337401Y-0000138031D01*
X0002337401Y-0000138031D02*
X0001731102Y-0000138031D01*
X0001731102Y-0000138031D02*
X0001731102Y-0000100629D01*
X0001731102Y-0000100629D02*
X0001711417Y-0000112440D01*
X0001711417Y-0000112440D02*
X0001711417Y-0000033700D01*
X0001711417Y-0000033700D02*
X0001731102Y-0000043543D01*
X0001731102Y-0000043543D02*
X0001731102Y0000169055D01*
X0001731102Y0000169055D02*
X0001711417Y0000159212D01*
X0001711417Y0000159212D02*
X0001711417Y0000358031D01*
X0001711417Y0000358031D02*
X0002337401Y0000358031D01*
X0002227181Y0000543999D02*
X0002227181Y0000643999D01*
X0002297259Y0000643999D02*
X0002297259Y0000543999D01*
X0002297259Y0000643999D02*
X0002227181Y0000643999D01*
X0002227181Y0000543999D02*
X0002297259Y0000543999D01*
X0002308582Y0000482362D02*
X0002308582Y0000377637D01*
X0002106220Y0000482362D02*
X0002308582Y0000482362D01*
X0002106220Y0000377637D02*
X0002308582Y0000377637D01*
X0002106220Y0000482362D02*
X0002106220Y0000377637D01*
X0002056220Y0000482362D02*
X0002003858Y0000482362D01*
X0002003858Y0000482362D02*
X0002003858Y0000429999D01*
D156*
X0002271254Y0001114916D02*
X0002271254Y0001669916D01*
X0001681254Y0001669916D02*
X0001681254Y0001114916D01*
X0002271254Y0001114916D02*
X0001681254Y0001114916D01*
X0002271254Y0001669916D02*
X0001681254Y0001669916D01*
D157*
X0002281469Y0000298623D02*
X0002281469Y0000287375D01*
X0002282219Y0000285125D01*
X0002283719Y0000283625D01*
X0002285969Y0000282875D01*
X0002287469Y0000282875D01*
X0002274720Y0000297124D02*
X0002273970Y0000297873D01*
X0002272470Y0000298623D01*
X0002268721Y0000298623D01*
X0002267221Y0000297873D01*
X0002266471Y0000297124D01*
X0002265721Y0000295624D01*
X0002265721Y0000294124D01*
X0002266471Y0000291874D01*
X0002275470Y0000282875D01*
X0002265721Y0000282875D01*
X0002210844Y0000558750D02*
X0002199595Y0000558750D01*
X0002197346Y0000558000D01*
X0002195846Y0000556500D01*
X0002195096Y0000554251D01*
X0002195096Y0000552751D01*
X0002210844Y0000564749D02*
X0002210844Y0000574498D01*
X0002204845Y0000569249D01*
X0002204845Y0000571499D01*
X0002204095Y0000572998D01*
X0002203345Y0000573748D01*
X0002201845Y0000574498D01*
X0002198096Y0000574498D01*
X0002196596Y0000573748D01*
X0002195846Y0000572998D01*
X0002195096Y0000571499D01*
X0002195096Y0000566999D01*
X0002195846Y0000565499D01*
X0002196596Y0000564749D01*
X0001987596Y0000385249D02*
X0001998845Y0000385249D01*
X0002001094Y0000385999D01*
X0002002594Y0000387499D01*
X0002003343Y0000389748D01*
X0002003343Y0000391248D01*
X0002003343Y0000369500D02*
X0002003343Y0000378500D01*
X0002003343Y0000374000D02*
X0001987596Y0000374000D01*
X0001989846Y0000375500D01*
X0001991346Y0000377000D01*
X0001992096Y0000378500D01*
X0001757596Y0001165249D02*
X0001768845Y0001165249D01*
X0001771094Y0001165999D01*
X0001772594Y0001167499D01*
X0001773343Y0001169748D01*
X0001773343Y0001171248D01*
X0001762845Y0001151001D02*
X0001773343Y0001151001D01*
X0001756846Y0001154750D02*
X0001768095Y0001158500D01*
X0001768095Y0001148751D01*
%LPC*%
D158*
X0002233070Y0000109999D03*
D159*
X0002036220Y0000109999D03*
X0001839370Y0000109999D03*
D160*
X0002262220Y0000568803D03*
X0002262220Y0000619196D03*
D161*
X0001976220Y0001269999D03*
D162*
X0001706220Y0000099999D03*
D163*
X0002056220Y0000429999D03*
D164*
X0002156220Y0000429999D03*
X0002256220Y0000429999D03*
D165*
X0002116254Y0001159916D03*
X0002016254Y0001159916D03*
X0001936254Y0001159916D03*
X0001836254Y0001159916D03*
D166*
X0002206220Y0001249999D03*
X0001746220Y0001249999D03*
D167*
X0001886220Y0001254999D03*
X0002066220Y0001254999D03*
M02*