%MOIN*%
%OFA0B0*%
%FSLAX46Y46*%
%IPPOS*%
%LPD*%
%ADD10R,0.093700787401574809X0.17165354330708663*%
%ADD11O,0.093700787401574809X0.17165354330708663*%
%ADD12R,0.065748031496063X0.053937007874015758*%
%ADD13C,0.1*%
%ADD14C,0.1141732283464567*%
%ADD15R,0.082677165354330714X0.082677165354330714*%
%ADD16O,0.082677165354330714X0.082677165354330714*%
%ADD17C,0.074848031496062992*%
%ADD18O,0.070866141732283464X0.16535433070866143*%
%ADD19C,0.074803149606299218*%
%ADD30R,0.093700787401574809X0.17165354330708663*%
%ADD31O,0.093700787401574809X0.17165354330708663*%
%ADD32R,0.065748031496063X0.053937007874015758*%
%ADD33C,0.1*%
%ADD34C,0.1141732283464567*%
%ADD35R,0.082677165354330714X0.082677165354330714*%
%ADD36O,0.082677165354330714X0.082677165354330714*%
%ADD37C,0.074848031496062992*%
%ADD38O,0.070866141732283464X0.16535433070866143*%
%ADD39C,0.074803149606299218*%
%ADD50R,0.093700787401574809X0.17165354330708663*%
%ADD51O,0.093700787401574809X0.17165354330708663*%
%ADD52R,0.065748031496063X0.053937007874015758*%
%ADD53C,0.1*%
%ADD54C,0.1141732283464567*%
%ADD55R,0.082677165354330714X0.082677165354330714*%
%ADD56O,0.082677165354330714X0.082677165354330714*%
%ADD57C,0.074848031496062992*%
%ADD58O,0.070866141732283464X0.16535433070866143*%
%ADD59C,0.074803149606299218*%
%ADD70R,0.093700787401574809X0.17165354330708663*%
%ADD71O,0.093700787401574809X0.17165354330708663*%
%ADD72R,0.065748031496063X0.053937007874015758*%
%ADD73C,0.1*%
%ADD74C,0.1141732283464567*%
%ADD75R,0.082677165354330714X0.082677165354330714*%
%ADD76O,0.082677165354330714X0.082677165354330714*%
%ADD77C,0.074848031496062992*%
%ADD78O,0.070866141732283464X0.16535433070866143*%
%ADD79C,0.074803149606299218*%
%ADD90R,0.093700787401574809X0.17165354330708663*%
%ADD91O,0.093700787401574809X0.17165354330708663*%
%ADD92R,0.065748031496063X0.053937007874015758*%
%ADD93C,0.1*%
%ADD94C,0.1141732283464567*%
%ADD95R,0.082677165354330714X0.082677165354330714*%
%ADD96O,0.082677165354330714X0.082677165354330714*%
%ADD97C,0.074848031496062992*%
%ADD98O,0.070866141732283464X0.16535433070866143*%
%ADD99C,0.074803149606299218*%
%ADD110R,0.093700787401574809X0.17165354330708663*%
%ADD111O,0.093700787401574809X0.17165354330708663*%
%ADD112R,0.065748031496063X0.053937007874015758*%
%ADD113C,0.1*%
%ADD114C,0.1141732283464567*%
%ADD115R,0.082677165354330714X0.082677165354330714*%
%ADD116O,0.082677165354330714X0.082677165354330714*%
%ADD117C,0.074848031496062992*%
%ADD118O,0.070866141732283464X0.16535433070866143*%
%ADD119C,0.074803149606299218*%
%LPD*%
G01*
D10*
X0000818110Y0002798110D02*
X0001414960Y0001568109D03*
D11*
X0001218110Y0001568109D03*
X0001021258Y0001568109D03*
D12*
X0001444110Y0002026913D03*
X0001444110Y0002077306D03*
D13*
X0001158110Y0002728110D03*
D14*
X0000888110Y0001558110D03*
D15*
X0001238110Y0001888110D03*
D16*
X0001338110Y0001888110D03*
X0001438110Y0001888110D03*
D17*
X0001298144Y0002618026D03*
X0001198144Y0002618026D03*
X0001118144Y0002618026D03*
X0001018143Y0002618026D03*
D18*
X0001388110Y0002708110D03*
X0000928110Y0002708110D03*
D19*
X0001068110Y0002713110D03*
X0001248110Y0002713110D03*
G01*
D30*
X0001636220Y0002798110D02*
X0002233070Y0001568109D03*
D31*
X0002036220Y0001568109D03*
X0001839370Y0001568109D03*
D32*
X0002262220Y0002026913D03*
X0002262220Y0002077306D03*
D33*
X0001976220Y0002728110D03*
D34*
X0001706220Y0001558110D03*
D35*
X0002056220Y0001888110D03*
D36*
X0002156220Y0001888110D03*
X0002256220Y0001888110D03*
D37*
X0002116254Y0002618026D03*
X0002016254Y0002618026D03*
X0001936254Y0002618026D03*
X0001836254Y0002618026D03*
D38*
X0002206220Y0002708110D03*
X0001746220Y0002708110D03*
D39*
X0001886220Y0002713110D03*
X0002066220Y0002713110D03*
G04 next file*
%LPD*%
G01*
D50*
X0000000000Y0001339999D02*
X0000596850Y0000109999D03*
D51*
X0000400000Y0000109999D03*
X0000203149Y0000109999D03*
D52*
X0000626000Y0000568803D03*
X0000626000Y0000619196D03*
D53*
X0000339999Y0001269999D03*
D54*
X0000070000Y0000099999D03*
D55*
X0000420000Y0000429999D03*
D56*
X0000520000Y0000429999D03*
X0000620000Y0000429999D03*
D57*
X0000480033Y0001159916D03*
X0000380033Y0001159916D03*
X0000300033Y0001159916D03*
X0000200033Y0001159916D03*
D58*
X0000570000Y0001249999D03*
X0000110000Y0001249999D03*
D59*
X0000250000Y0001254999D03*
X0000430000Y0001254999D03*
G01*
D70*
X0000000000Y0002798110D02*
X0000596850Y0001568108D03*
D71*
X0000400000Y0001568108D03*
X0000203149Y0001568108D03*
D72*
X0000626000Y0002026913D03*
X0000626000Y0002077306D03*
D73*
X0000339999Y0002728110D03*
D74*
X0000070000Y0001558110D03*
D75*
X0000420000Y0001888110D03*
D76*
X0000520000Y0001888110D03*
X0000620000Y0001888110D03*
D77*
X0000480033Y0002618026D03*
X0000380033Y0002618026D03*
X0000300033Y0002618026D03*
X0000200033Y0002618026D03*
D78*
X0000570000Y0002708110D03*
X0000110000Y0002708110D03*
D79*
X0000250000Y0002713110D03*
X0000430000Y0002713110D03*
G04 next file*
G01*
D90*
X0000818110Y0001339999D02*
X0001414960Y0000109999D03*
D91*
X0001218110Y0000109999D03*
X0001021258Y0000109999D03*
D92*
X0001444110Y0000568803D03*
X0001444110Y0000619196D03*
D93*
X0001158110Y0001269999D03*
D94*
X0000888110Y0000099999D03*
D95*
X0001238110Y0000429999D03*
D96*
X0001338110Y0000429999D03*
X0001438110Y0000429999D03*
D97*
X0001298144Y0001159916D03*
X0001198144Y0001159916D03*
X0001118144Y0001159916D03*
X0001018143Y0001159916D03*
D98*
X0001388110Y0001249999D03*
X0000928110Y0001249999D03*
D99*
X0001068110Y0001254999D03*
X0001248110Y0001254999D03*
G04 next file*
G04 #@! TF.GenerationSoftware,KiCad,Pcbnew,(2018-02-16 revision c95340fba)-makepkg*
G04 #@! TF.CreationDate,2018-05-25T20:47:33+02:00*
G04 #@! TF.ProjectId,LIN_USB_CONVERTER,4C494E5F5553425F434F4E5645525445,rev?*
G04 #@! TF.SameCoordinates,PX85b9e30PY4aad300*
G04 #@! TF.FileFunction,Soldermask,Bot*
G04 #@! TF.FilePolarity,Negative*
G04 Gerber Fmt 4.6, Leading zero omitted, Abs format (unit mm)*
G04 Created by KiCad (PCBNEW (2018-02-16 revision c95340fba)-makepkg) date 05/25/18 20:47:33*
G01*
G04 APERTURE LIST*
G04 APERTURE END LIST*
D110*
X0001636220Y0001339999D02*
X0002233070Y0000109999D03*
D111*
X0002036220Y0000109999D03*
X0001839370Y0000109999D03*
D112*
X0002262220Y0000568803D03*
X0002262220Y0000619196D03*
D113*
X0001976220Y0001269999D03*
D114*
X0001706220Y0000099999D03*
D115*
X0002056220Y0000429999D03*
D116*
X0002156220Y0000429999D03*
X0002256220Y0000429999D03*
D117*
X0002116254Y0001159916D03*
X0002016254Y0001159916D03*
X0001936254Y0001159916D03*
X0001836254Y0001159916D03*
D118*
X0002206220Y0001249999D03*
X0001746220Y0001249999D03*
D119*
X0001886220Y0001254999D03*
X0002066220Y0001254999D03*
M02*