%MOIN*%
%OFA0B0*%
%FSLAX46Y46*%
%IPPOS*%
%LPD*%
%ADD10C,0.0039370078740157488*%
%ADD11C,0.0047244094488188976*%
%ADD12C,0.005905511811023622*%
%ADD13C,0.0035433070866141732*%
%ADD14R,0.051181102362204731X0.035433070866141732*%
%ADD15R,0.093700787401574809X0.17165354330708663*%
%ADD16O,0.093700787401574809X0.17165354330708663*%
%ADD17R,0.064960629921259838X0.055118110236220472*%
%ADD18R,0.035748031496062996X0.094488188976377951*%
%ADD19R,0.035433070866141732X0.051181102362204731*%
%ADD20R,0.051181102362204731X0.047244094488188976*%
%ADD21R,0.086614173228346469X0.055118110236220472*%
%ADD22R,0.02763779527559055X0.01188976377952756*%
%ADD23R,0.01188976377952756X0.02763779527559055*%
%ADD24R,0.0040157480314960631X0.0040157480314960631*%
%ADD25C,0.008425196850393701*%
%ADD26R,0.0059842519685039371X0.0059842519685039371*%
%ADD27R,0.019763779527559058X0.01188976377952756*%
%ADD28R,0.01188976377952756X0.019763779527559058*%
%ADD29C,0.1*%
%ADD30C,0.1141732283464567*%
%ADD31R,0.0452755905511811X0.047244094488188976*%
%ADD32R,0.082677165354330714X0.082677165354330714*%
%ADD33O,0.082677165354330714X0.082677165354330714*%
%ADD34C,0.074848031496062992*%
%ADD35O,0.070866141732283464X0.16535433070866143*%
%ADD36C,0.074803149606299218*%
%ADD37R,0.055118110236220472X0.064960629921259838*%
%ADD38R,0.076771653543307089X0.03937007874015748*%
%ADD39R,0.047244094488188976X0.0452755905511811*%
%ADD50C,0.0039370078740157488*%
%ADD51C,0.0047244094488188976*%
%ADD52C,0.005905511811023622*%
%ADD53C,0.0035433070866141732*%
%ADD54R,0.051181102362204731X0.035433070866141732*%
%ADD55R,0.093700787401574809X0.17165354330708663*%
%ADD56O,0.093700787401574809X0.17165354330708663*%
%ADD57R,0.064960629921259838X0.055118110236220472*%
%ADD58R,0.035748031496062996X0.094488188976377951*%
%ADD59R,0.035433070866141732X0.051181102362204731*%
%ADD60R,0.051181102362204731X0.047244094488188976*%
%ADD61R,0.086614173228346469X0.055118110236220472*%
%ADD62R,0.02763779527559055X0.01188976377952756*%
%ADD63R,0.01188976377952756X0.02763779527559055*%
%ADD64R,0.0040157480314960631X0.0040157480314960631*%
%ADD65C,0.008425196850393701*%
%ADD66R,0.0059842519685039371X0.0059842519685039371*%
%ADD67R,0.019763779527559058X0.01188976377952756*%
%ADD68R,0.01188976377952756X0.019763779527559058*%
%ADD69C,0.1*%
%ADD70C,0.1141732283464567*%
%ADD71R,0.0452755905511811X0.047244094488188976*%
%ADD72R,0.082677165354330714X0.082677165354330714*%
%ADD73O,0.082677165354330714X0.082677165354330714*%
%ADD74C,0.074848031496062992*%
%ADD75O,0.070866141732283464X0.16535433070866143*%
%ADD76C,0.074803149606299218*%
%ADD77R,0.055118110236220472X0.064960629921259838*%
%ADD78R,0.076771653543307089X0.03937007874015748*%
%ADD79R,0.047244094488188976X0.0452755905511811*%
%ADD90C,0.0039370078740157488*%
%ADD91C,0.0047244094488188976*%
%ADD92C,0.005905511811023622*%
%ADD93C,0.0035433070866141732*%
%ADD94R,0.051181102362204731X0.035433070866141732*%
%ADD95R,0.093700787401574809X0.17165354330708663*%
%ADD96O,0.093700787401574809X0.17165354330708663*%
%ADD97R,0.064960629921259838X0.055118110236220472*%
%ADD98R,0.035748031496062996X0.094488188976377951*%
%ADD99R,0.035433070866141732X0.051181102362204731*%
%ADD100R,0.051181102362204731X0.047244094488188976*%
%ADD101R,0.086614173228346469X0.055118110236220472*%
%ADD102R,0.02763779527559055X0.01188976377952756*%
%ADD103R,0.01188976377952756X0.02763779527559055*%
%ADD104R,0.0040157480314960631X0.0040157480314960631*%
%ADD105C,0.008425196850393701*%
%ADD106R,0.0059842519685039371X0.0059842519685039371*%
%ADD107R,0.019763779527559058X0.01188976377952756*%
%ADD108R,0.01188976377952756X0.019763779527559058*%
%ADD109C,0.1*%
%ADD110C,0.1141732283464567*%
%ADD111R,0.0452755905511811X0.047244094488188976*%
%ADD112R,0.082677165354330714X0.082677165354330714*%
%ADD113O,0.082677165354330714X0.082677165354330714*%
%ADD114C,0.074848031496062992*%
%ADD115O,0.070866141732283464X0.16535433070866143*%
%ADD116C,0.074803149606299218*%
%ADD117R,0.055118110236220472X0.064960629921259838*%
%ADD118R,0.076771653543307089X0.03937007874015748*%
%ADD119R,0.047244094488188976X0.0452755905511811*%
%ADD130C,0.0039370078740157488*%
%ADD131C,0.0047244094488188976*%
%ADD132C,0.005905511811023622*%
%ADD133C,0.0035433070866141732*%
%ADD134R,0.051181102362204731X0.035433070866141732*%
%ADD135R,0.093700787401574809X0.17165354330708663*%
%ADD136O,0.093700787401574809X0.17165354330708663*%
%ADD137R,0.064960629921259838X0.055118110236220472*%
%ADD138R,0.035748031496062996X0.094488188976377951*%
%ADD139R,0.035433070866141732X0.051181102362204731*%
%ADD140R,0.051181102362204731X0.047244094488188976*%
%ADD141R,0.086614173228346469X0.055118110236220472*%
%ADD142R,0.02763779527559055X0.01188976377952756*%
%ADD143R,0.01188976377952756X0.02763779527559055*%
%ADD144R,0.0040157480314960631X0.0040157480314960631*%
%ADD145C,0.008425196850393701*%
%ADD146R,0.0059842519685039371X0.0059842519685039371*%
%ADD147R,0.019763779527559058X0.01188976377952756*%
%ADD148R,0.01188976377952756X0.019763779527559058*%
%ADD149C,0.1*%
%ADD150C,0.1141732283464567*%
%ADD151R,0.0452755905511811X0.047244094488188976*%
%ADD152R,0.082677165354330714X0.082677165354330714*%
%ADD153O,0.082677165354330714X0.082677165354330714*%
%ADD154C,0.074848031496062992*%
%ADD155O,0.070866141732283464X0.16535433070866143*%
%ADD156C,0.074803149606299218*%
%ADD157R,0.055118110236220472X0.064960629921259838*%
%ADD158R,0.076771653543307089X0.03937007874015748*%
%ADD159R,0.047244094488188976X0.0452755905511811*%
%ADD170C,0.0039370078740157488*%
%ADD171C,0.0047244094488188976*%
%ADD172C,0.005905511811023622*%
%ADD173C,0.0035433070866141732*%
%ADD174R,0.051181102362204731X0.035433070866141732*%
%ADD175R,0.093700787401574809X0.17165354330708663*%
%ADD176O,0.093700787401574809X0.17165354330708663*%
%ADD177R,0.064960629921259838X0.055118110236220472*%
%ADD178R,0.035748031496062996X0.094488188976377951*%
%ADD179R,0.035433070866141732X0.051181102362204731*%
%ADD180R,0.051181102362204731X0.047244094488188976*%
%ADD181R,0.086614173228346469X0.055118110236220472*%
%ADD182R,0.02763779527559055X0.01188976377952756*%
%ADD183R,0.01188976377952756X0.02763779527559055*%
%ADD184R,0.0040157480314960631X0.0040157480314960631*%
%ADD185C,0.008425196850393701*%
%ADD186R,0.0059842519685039371X0.0059842519685039371*%
%ADD187R,0.019763779527559058X0.01188976377952756*%
%ADD188R,0.01188976377952756X0.019763779527559058*%
%ADD189C,0.1*%
%ADD190C,0.1141732283464567*%
%ADD191R,0.0452755905511811X0.047244094488188976*%
%ADD192R,0.082677165354330714X0.082677165354330714*%
%ADD193O,0.082677165354330714X0.082677165354330714*%
%ADD194C,0.074848031496062992*%
%ADD195O,0.070866141732283464X0.16535433070866143*%
%ADD196C,0.074803149606299218*%
%ADD197R,0.055118110236220472X0.064960629921259838*%
%ADD198R,0.076771653543307089X0.03937007874015748*%
%ADD199R,0.047244094488188976X0.0452755905511811*%
%ADD210C,0.0039370078740157488*%
%ADD211C,0.0047244094488188976*%
%ADD212C,0.005905511811023622*%
%ADD213C,0.0035433070866141732*%
%ADD214R,0.051181102362204731X0.035433070866141732*%
%ADD215R,0.093700787401574809X0.17165354330708663*%
%ADD216O,0.093700787401574809X0.17165354330708663*%
%ADD217R,0.064960629921259838X0.055118110236220472*%
%ADD218R,0.035748031496062996X0.094488188976377951*%
%ADD219R,0.035433070866141732X0.051181102362204731*%
%ADD220R,0.051181102362204731X0.047244094488188976*%
%ADD221R,0.086614173228346469X0.055118110236220472*%
%ADD222R,0.02763779527559055X0.01188976377952756*%
%ADD223R,0.01188976377952756X0.02763779527559055*%
%ADD224R,0.0040157480314960631X0.0040157480314960631*%
%ADD225C,0.008425196850393701*%
%ADD226R,0.0059842519685039371X0.0059842519685039371*%
%ADD227R,0.019763779527559058X0.01188976377952756*%
%ADD228R,0.01188976377952756X0.019763779527559058*%
%ADD229C,0.1*%
%ADD230C,0.1141732283464567*%
%ADD231R,0.0452755905511811X0.047244094488188976*%
%ADD232R,0.082677165354330714X0.082677165354330714*%
%ADD233O,0.082677165354330714X0.082677165354330714*%
%ADD234C,0.074848031496062992*%
%ADD235O,0.070866141732283464X0.16535433070866143*%
%ADD236C,0.074803149606299218*%
%ADD237R,0.055118110236220472X0.064960629921259838*%
%ADD238R,0.076771653543307089X0.03937007874015748*%
%ADD239R,0.047244094488188976X0.0452755905511811*%
%LPD*%
G01*
D10*
X0000855174Y0002231424D02*
X0000847300Y0002242672D01*
X0000841676Y0002231424D02*
X0000841676Y0002255046D01*
X0000850674Y0002255046D01*
X0000852924Y0002253921D01*
X0000854049Y0002252796D01*
X0000855174Y0002250546D01*
X0000855174Y0002247172D01*
X0000854049Y0002244922D01*
X0000852924Y0002243797D01*
X0000850674Y0002242672D01*
X0000841676Y0002242672D01*
X0000864173Y0002232548D02*
X0000867547Y0002231424D01*
X0000873172Y0002231424D01*
X0000875421Y0002232548D01*
X0000876546Y0002233673D01*
X0000877671Y0002235923D01*
X0000877671Y0002238173D01*
X0000876546Y0002240422D01*
X0000875421Y0002241547D01*
X0000873172Y0002242672D01*
X0000868671Y0002243797D01*
X0000866422Y0002244922D01*
X0000865298Y0002246047D01*
X0000864173Y0002248296D01*
X0000864173Y0002250546D01*
X0000865298Y0002252796D01*
X0000866422Y0002253921D01*
X0000868671Y0002255046D01*
X0000874296Y0002255046D01*
X0000877671Y0002253921D01*
X0000884420Y0002255046D02*
X0000897917Y0002255046D01*
X0000891169Y0002231424D02*
X0000891169Y0002255046D01*
X0000838863Y0002355046D02*
X0000853487Y0002355046D01*
X0000845613Y0002346047D01*
X0000848987Y0002346047D01*
X0000851237Y0002344922D01*
X0000852362Y0002343797D01*
X0000853487Y0002341547D01*
X0000853487Y0002335923D01*
X0000852362Y0002333673D01*
X0000851237Y0002332548D01*
X0000848987Y0002331424D01*
X0000842238Y0002331424D01*
X0000839988Y0002332548D01*
X0000838863Y0002333673D01*
X0000860236Y0002355046D02*
X0000868110Y0002331424D01*
X0000875984Y0002355046D01*
X0000881608Y0002355046D02*
X0000896231Y0002355046D01*
X0000888356Y0002346047D01*
X0000891732Y0002346047D01*
X0000893980Y0002344922D01*
X0000895106Y0002343797D01*
X0000896231Y0002341547D01*
X0000896231Y0002335923D01*
X0000895106Y0002333673D01*
X0000893980Y0002332548D01*
X0000891732Y0002331424D01*
X0000884983Y0002331424D01*
X0000882733Y0002332548D01*
X0000881608Y0002333673D01*
X0000854049Y0002433673D02*
X0000852924Y0002432548D01*
X0000849550Y0002431424D01*
X0000847300Y0002431424D01*
X0000843925Y0002432548D01*
X0000841676Y0002434798D01*
X0000840551Y0002437048D01*
X0000839425Y0002441547D01*
X0000839425Y0002444922D01*
X0000840551Y0002449421D01*
X0000841676Y0002451671D01*
X0000843925Y0002453921D01*
X0000847300Y0002455046D01*
X0000849550Y0002455046D01*
X0000852924Y0002453921D01*
X0000854049Y0002452796D01*
X0000875421Y0002431424D02*
X0000864173Y0002431424D01*
X0000864173Y0002455046D01*
X0000883295Y0002431424D02*
X0000883295Y0002455046D01*
X0000896794Y0002431424D02*
X0000886670Y0002444922D01*
X0000896794Y0002455046D02*
X0000883295Y0002441547D01*
X0000843925Y0002531424D02*
X0000843925Y0002555045D01*
X0000849550Y0002555045D01*
X0000852924Y0002553921D01*
X0000855174Y0002551671D01*
X0000856299Y0002549421D01*
X0000857424Y0002544922D01*
X0000857424Y0002541547D01*
X0000856299Y0002537048D01*
X0000855174Y0002534798D01*
X0000852924Y0002532547D01*
X0000849550Y0002531424D01*
X0000843925Y0002531424D01*
X0000867547Y0002531424D02*
X0000867547Y0002555045D01*
X0000883295Y0002555045D02*
X0000887794Y0002555045D01*
X0000890044Y0002553921D01*
X0000892294Y0002551671D01*
X0000893419Y0002547172D01*
X0000893419Y0002539298D01*
X0000892294Y0002534798D01*
X0000890044Y0002532547D01*
X0000887794Y0002531424D01*
X0000883295Y0002531424D01*
X0000881046Y0002532547D01*
X0000878796Y0002534798D01*
X0000877671Y0002539298D01*
X0000877671Y0002547172D01*
X0000878796Y0002551671D01*
X0000881046Y0002553921D01*
X0000883295Y0002555045D01*
X0000850112Y0002653921D02*
X0000847862Y0002655046D01*
X0000844488Y0002655046D01*
X0000841113Y0002653921D01*
X0000838863Y0002651671D01*
X0000837739Y0002649421D01*
X0000836614Y0002644922D01*
X0000836614Y0002641547D01*
X0000837739Y0002637047D01*
X0000838863Y0002634798D01*
X0000841113Y0002632548D01*
X0000844488Y0002631424D01*
X0000846737Y0002631424D01*
X0000850112Y0002632548D01*
X0000851237Y0002633673D01*
X0000851237Y0002641547D01*
X0000846737Y0002641547D01*
X0000861361Y0002631424D02*
X0000861361Y0002655046D01*
X0000874859Y0002631424D01*
X0000874859Y0002655046D01*
X0000886107Y0002631424D02*
X0000886107Y0002655046D01*
X0000891732Y0002655046D01*
X0000895106Y0002653921D01*
X0000897356Y0002651671D01*
X0000898481Y0002649421D01*
X0000899606Y0002644922D01*
X0000899606Y0002641547D01*
X0000898481Y0002637047D01*
X0000897356Y0002634798D01*
X0000895106Y0002632548D01*
X0000891732Y0002631424D01*
X0000886107Y0002631424D01*
D11*
X0000972880Y0002011795D02*
X0000972880Y0001972425D01*
X0000919338Y0001972425D02*
X0000919338Y0002011795D01*
X0001151574Y0001564425D02*
X0001151574Y0001603795D01*
X0001084645Y0001603795D02*
X0001084645Y0001564425D01*
D12*
X0000883556Y0001889510D02*
G75*
G03X0000883556Y0001889510I-0000003046D01*
G01*
X0000884109Y0002082110D02*
X0001084110Y0002082110D01*
X0001084110Y0002082110D02*
X0001084110Y0001902110D01*
X0001084110Y0001902110D02*
X0000884109Y0001902110D01*
X0000884109Y0001902110D02*
X0000884109Y0002082110D01*
X0000884109Y0002022110D02*
X0000904110Y0002022110D01*
X0000904110Y0002022110D02*
X0000904110Y0001972110D01*
X0000904110Y0001972110D02*
X0000884109Y0001972110D01*
D11*
X0001008424Y0002254881D02*
X0001047795Y0002254881D01*
X0001047795Y0002201338D02*
X0001008424Y0002201338D01*
X0001448031Y0002325905D02*
X0001448031Y0002362519D01*
X0001448031Y0002450314D02*
X0001448031Y0002413700D01*
X0001448031Y0002450314D02*
X0001362992Y0002450314D01*
X0001448031Y0002325905D02*
X0001390551Y0002325905D01*
X0001058527Y0002502574D02*
X0001058527Y0002490763D01*
X0001229086Y0002504574D02*
X0001229086Y0002492763D01*
X0001231086Y0002331015D02*
X0001231086Y0002342826D01*
X0001061307Y0002347984D02*
X0001061307Y0002359795D01*
X0001229086Y0002504574D02*
X0001217275Y0002504574D01*
X0001231086Y0002331015D02*
X0001219275Y0002331015D01*
X0001058527Y0002502574D02*
X0001070338Y0002502574D01*
D12*
X0001056659Y0002327795D02*
G75*
G03X0001056659Y0002327795I-0000003352D01*
G01*
D11*
X0001341732Y0001621889D02*
X0001341732Y0001594330D01*
X0001294488Y0001594330D02*
X0001294488Y0001621889D01*
X0001421337Y0001718425D02*
X0001421337Y0001757795D01*
X0001474881Y0001757795D02*
X0001474881Y0001718425D01*
X0000877559Y0001802913D02*
X0000877559Y0001766299D01*
X0000877559Y0001678503D02*
X0000877559Y0001715118D01*
X0000877559Y0001678503D02*
X0000962598Y0001678503D01*
X0000877559Y0001802913D02*
X0000935039Y0001802913D01*
X0001036880Y0002011795D02*
X0001036880Y0001972425D01*
X0000983338Y0001972425D02*
X0000983338Y0002011795D01*
X0000910881Y0002011795D02*
X0000910881Y0001972425D01*
X0000857338Y0001972425D02*
X0000857338Y0002011795D01*
X0001096881Y0002012267D02*
X0001096881Y0001972896D01*
X0001043338Y0001972896D02*
X0001043338Y0002012267D01*
X0001358661Y0001678503D02*
X0001358661Y0001715118D01*
X0001358661Y0001802913D02*
X0001358661Y0001766299D01*
X0001358661Y0001802913D02*
X0001273622Y0001802913D01*
X0001358661Y0001678503D02*
X0001301181Y0001678503D01*
X0001092425Y0001746645D02*
X0001131795Y0001746645D01*
X0001131795Y0001813574D02*
X0001092425Y0001813574D01*
D12*
X0001361803Y0001956700D02*
X0001416921Y0001956700D01*
X0001361803Y0002157488D02*
X0001198417Y0002157488D01*
X0001361803Y0001954731D02*
X0001198417Y0001954731D01*
X0001361803Y0002157488D02*
X0001361803Y0002151779D01*
X0001198417Y0002157488D02*
X0001198417Y0002151779D01*
X0001198417Y0001954731D02*
X0001198417Y0001960440D01*
X0001361803Y0001954731D02*
X0001361803Y0001956700D01*
D11*
X0001491385Y0002063889D02*
X0001491385Y0002036330D01*
X0001444141Y0002036330D02*
X0001444141Y0002063889D01*
X0001307543Y0002184488D02*
X0001279984Y0002184488D01*
X0001279984Y0002231732D02*
X0001307543Y0002231732D01*
X0001417889Y0002494488D02*
X0001390330Y0002494488D01*
X0001390330Y0002541732D02*
X0001417889Y0002541732D01*
X0001314330Y0002301732D02*
X0001341889Y0002301732D01*
X0001341889Y0002254488D02*
X0001314330Y0002254488D01*
X0001284488Y0002484330D02*
X0001284488Y0002511889D01*
X0001331732Y0002511889D02*
X0001331732Y0002484330D01*
X0001144330Y0002261732D02*
X0001171889Y0002261732D01*
X0001171889Y0002214488D02*
X0001144330Y0002214488D01*
D13*
X0000953234Y0001989484D02*
X0000945735Y0001984236D01*
X0000953234Y0001980486D02*
X0000937486Y0001980486D01*
X0000937486Y0001986485D01*
X0000938236Y0001987985D01*
X0000938986Y0001988735D01*
X0000940485Y0001989484D01*
X0000942735Y0001989484D01*
X0000944235Y0001988735D01*
X0000944985Y0001987985D01*
X0000945735Y0001986485D01*
X0000945735Y0001980486D01*
X0000937486Y0002002983D02*
X0000937486Y0001999984D01*
X0000938236Y0001998484D01*
X0000938986Y0001997734D01*
X0000941235Y0001996234D01*
X0000944235Y0001995484D01*
X0000950234Y0001995484D01*
X0000951734Y0001996234D01*
X0000952484Y0001996984D01*
X0000953234Y0001998484D01*
X0000953234Y0002001484D01*
X0000952484Y0002002983D01*
X0000951734Y0002003733D01*
X0000950234Y0002004483D01*
X0000946485Y0002004483D01*
X0000944985Y0002003733D01*
X0000944235Y0002002983D01*
X0000943485Y0002001484D01*
X0000943485Y0001998484D01*
X0000944235Y0001996984D01*
X0000944985Y0001996234D01*
X0000946485Y0001995484D01*
X0001121734Y0001581485D02*
X0001122484Y0001580735D01*
X0001123234Y0001578485D01*
X0001123234Y0001576986D01*
X0001122484Y0001574736D01*
X0001120984Y0001573236D01*
X0001119484Y0001572486D01*
X0001116485Y0001571736D01*
X0001114235Y0001571736D01*
X0001111235Y0001572486D01*
X0001109736Y0001573236D01*
X0001108236Y0001574736D01*
X0001107486Y0001576986D01*
X0001107486Y0001578485D01*
X0001108236Y0001580735D01*
X0001108986Y0001581485D01*
X0001108986Y0001587484D02*
X0001108236Y0001588234D01*
X0001107486Y0001589734D01*
X0001107486Y0001593484D01*
X0001108236Y0001594983D01*
X0001108986Y0001595733D01*
X0001110485Y0001596482D01*
X0001111985Y0001596482D01*
X0001114235Y0001595733D01*
X0001123234Y0001586734D01*
X0001123234Y0001596482D01*
X0000850485Y0001910111D02*
X0000863234Y0001910111D01*
X0000864734Y0001910861D01*
X0000865484Y0001911611D01*
X0000866234Y0001913111D01*
X0000866234Y0001916110D01*
X0000865484Y0001917610D01*
X0000864734Y0001918360D01*
X0000863234Y0001919110D01*
X0000850485Y0001919110D01*
X0000851986Y0001925859D02*
X0000851236Y0001926609D01*
X0000850485Y0001928109D01*
X0000850485Y0001931858D01*
X0000851236Y0001933358D01*
X0000851986Y0001934108D01*
X0000853485Y0001934858D01*
X0000854985Y0001934858D01*
X0000857235Y0001934108D01*
X0000866234Y0001925109D01*
X0000866234Y0001934858D01*
X0001025485Y0002220986D02*
X0001020235Y0002228485D01*
X0001016486Y0002220986D02*
X0001016486Y0002236734D01*
X0001022485Y0002236734D01*
X0001023984Y0002235984D01*
X0001024735Y0002235234D01*
X0001025485Y0002233734D01*
X0001025485Y0002231484D01*
X0001024735Y0002229984D01*
X0001023984Y0002229235D01*
X0001022485Y0002228485D01*
X0001016486Y0002228485D01*
X0001030734Y0002236734D02*
X0001040483Y0002236734D01*
X0001035234Y0002230734D01*
X0001037484Y0002230734D01*
X0001038983Y0002229984D01*
X0001039733Y0002229235D01*
X0001040483Y0002227735D01*
X0001040483Y0002223985D01*
X0001039733Y0002222485D01*
X0001038983Y0002221735D01*
X0001037484Y0002220986D01*
X0001032983Y0002220986D01*
X0001031484Y0002221735D01*
X0001030734Y0002222485D01*
X0001460116Y0002323513D02*
X0001472864Y0002323513D01*
X0001474364Y0002324263D01*
X0001475114Y0002325013D01*
X0001475864Y0002326512D01*
X0001475864Y0002329512D01*
X0001475114Y0002331012D01*
X0001474364Y0002331762D01*
X0001472864Y0002332512D01*
X0001460116Y0002332512D01*
X0001460116Y0002338511D02*
X0001460116Y0002348260D01*
X0001466115Y0002343010D01*
X0001466115Y0002345260D01*
X0001466864Y0002346760D01*
X0001467615Y0002347510D01*
X0001469115Y0002348260D01*
X0001472864Y0002348260D01*
X0001474364Y0002347510D01*
X0001475114Y0002346760D01*
X0001475864Y0002345260D01*
X0001475864Y0002340761D01*
X0001475114Y0002339261D01*
X0001474364Y0002338511D01*
X0001004486Y0002331111D02*
X0001017234Y0002331111D01*
X0001018734Y0002331861D01*
X0001019484Y0002332611D01*
X0001020234Y0002334111D01*
X0001020234Y0002337110D01*
X0001019484Y0002338610D01*
X0001018734Y0002339360D01*
X0001017234Y0002340110D01*
X0001004486Y0002340110D01*
X0001009735Y0002354358D02*
X0001020234Y0002354358D01*
X0001003736Y0002350609D02*
X0001014985Y0002346859D01*
X0001014985Y0002356608D01*
X0001315485Y0001532485D02*
X0001314735Y0001531735D01*
X0001312485Y0001530985D01*
X0001310986Y0001530985D01*
X0001308735Y0001531735D01*
X0001307236Y0001533235D01*
X0001306486Y0001534735D01*
X0001305736Y0001537735D01*
X0001305736Y0001539984D01*
X0001306486Y0001542984D01*
X0001307236Y0001544484D01*
X0001308735Y0001545984D01*
X0001310986Y0001546734D01*
X0001312485Y0001546734D01*
X0001314735Y0001545984D01*
X0001315485Y0001545234D01*
X0001330483Y0001530985D02*
X0001321484Y0001530985D01*
X0001325983Y0001530985D02*
X0001325983Y0001546734D01*
X0001324484Y0001544484D01*
X0001322984Y0001542984D01*
X0001321484Y0001542234D01*
X0001455234Y0001735485D02*
X0001447735Y0001730236D01*
X0001455234Y0001726486D02*
X0001439486Y0001726486D01*
X0001439486Y0001732485D01*
X0001440236Y0001733985D01*
X0001440986Y0001734735D01*
X0001442485Y0001735485D01*
X0001444735Y0001735485D01*
X0001446235Y0001734735D01*
X0001446984Y0001733985D01*
X0001447735Y0001732485D01*
X0001447735Y0001726486D01*
X0001455234Y0001750483D02*
X0001455234Y0001741483D01*
X0001455234Y0001745984D02*
X0001439486Y0001745984D01*
X0001441735Y0001744484D01*
X0001443235Y0001742984D01*
X0001443985Y0001741483D01*
X0000914604Y0001731683D02*
X0000898856Y0001731683D01*
X0000898856Y0001735432D01*
X0000899606Y0001737681D01*
X0000901106Y0001739182D01*
X0000902605Y0001739932D01*
X0000905605Y0001740682D01*
X0000907855Y0001740682D01*
X0000910854Y0001739932D01*
X0000912354Y0001739182D01*
X0000913854Y0001737681D01*
X0000914604Y0001735432D01*
X0000914604Y0001731683D01*
X0000914604Y0001755680D02*
X0000914604Y0001746681D01*
X0000914604Y0001751181D02*
X0000898856Y0001751181D01*
X0000901106Y0001749681D01*
X0000902605Y0001748181D01*
X0000903355Y0001746681D01*
X0001017234Y0001989484D02*
X0001009735Y0001984236D01*
X0001017234Y0001980486D02*
X0001001486Y0001980486D01*
X0001001486Y0001986485D01*
X0001002235Y0001987985D01*
X0001002985Y0001988735D01*
X0001004485Y0001989484D01*
X0001006734Y0001989484D01*
X0001008235Y0001988735D01*
X0001008985Y0001987985D01*
X0001009735Y0001986485D01*
X0001009735Y0001980486D01*
X0001006734Y0002002983D02*
X0001017234Y0002002983D01*
X0001000736Y0001999234D02*
X0001011984Y0001995484D01*
X0001011984Y0002005233D01*
X0000891234Y0001989484D02*
X0000883735Y0001984236D01*
X0000891234Y0001980486D02*
X0000875486Y0001980486D01*
X0000875486Y0001986485D01*
X0000876236Y0001987985D01*
X0000876986Y0001988735D01*
X0000878485Y0001989484D01*
X0000880735Y0001989484D01*
X0000882235Y0001988735D01*
X0000882985Y0001987985D01*
X0000883735Y0001986485D01*
X0000883735Y0001980486D01*
X0000875486Y0001994733D02*
X0000875486Y0002005233D01*
X0000891234Y0001998484D01*
X0001077234Y0001989957D02*
X0001069735Y0001984708D01*
X0001077234Y0001980959D02*
X0001061486Y0001980959D01*
X0001061486Y0001986958D01*
X0001062236Y0001988457D01*
X0001062986Y0001989208D01*
X0001064485Y0001989957D01*
X0001066735Y0001989957D01*
X0001068235Y0001989208D01*
X0001068985Y0001988457D01*
X0001069735Y0001986958D01*
X0001069735Y0001980959D01*
X0001068235Y0001998956D02*
X0001067485Y0001997457D01*
X0001066735Y0001996707D01*
X0001065235Y0001995957D01*
X0001064485Y0001995957D01*
X0001062986Y0001996707D01*
X0001062236Y0001997457D01*
X0001061486Y0001998956D01*
X0001061486Y0002001955D01*
X0001062236Y0002003456D01*
X0001062986Y0002004206D01*
X0001064485Y0002004956D01*
X0001065235Y0002004956D01*
X0001066735Y0002004206D01*
X0001067485Y0002003456D01*
X0001068235Y0002001955D01*
X0001068235Y0001998956D01*
X0001068985Y0001997457D01*
X0001069735Y0001996707D01*
X0001071235Y0001995957D01*
X0001074234Y0001995957D01*
X0001075734Y0001996707D01*
X0001076484Y0001997457D01*
X0001077234Y0001998956D01*
X0001077234Y0002001955D01*
X0001076484Y0002003456D01*
X0001075734Y0002004206D01*
X0001074234Y0002004956D01*
X0001071235Y0002004956D01*
X0001069735Y0002004206D01*
X0001068985Y0002003456D01*
X0001068235Y0002001955D01*
X0001335864Y0001729085D02*
X0001320116Y0001729085D01*
X0001320116Y0001732834D01*
X0001320865Y0001735083D01*
X0001322365Y0001736584D01*
X0001323865Y0001737334D01*
X0001326865Y0001738083D01*
X0001329115Y0001738083D01*
X0001332114Y0001737334D01*
X0001333614Y0001736584D01*
X0001335114Y0001735083D01*
X0001335864Y0001732834D01*
X0001335864Y0001729085D01*
X0001320116Y0001743333D02*
X0001320116Y0001753082D01*
X0001326115Y0001747832D01*
X0001326115Y0001750081D01*
X0001326865Y0001751582D01*
X0001327615Y0001752332D01*
X0001329115Y0001753082D01*
X0001332864Y0001753082D01*
X0001334364Y0001752332D01*
X0001335114Y0001751582D01*
X0001335864Y0001750081D01*
X0001335864Y0001745582D01*
X0001335114Y0001744083D01*
X0001334364Y0001743333D01*
X0001109485Y0001833540D02*
X0001108735Y0001832791D01*
X0001106485Y0001832041D01*
X0001104986Y0001832041D01*
X0001102736Y0001832791D01*
X0001101236Y0001834290D01*
X0001100486Y0001835790D01*
X0001099736Y0001838790D01*
X0001099736Y0001841039D01*
X0001100486Y0001844039D01*
X0001101236Y0001845539D01*
X0001102736Y0001847038D01*
X0001104986Y0001847789D01*
X0001106485Y0001847789D01*
X0001108735Y0001847038D01*
X0001109485Y0001846289D01*
X0001114734Y0001847789D02*
X0001125233Y0001847789D01*
X0001118484Y0001832041D01*
X0001439765Y0001982733D02*
X0001439765Y0001969985D01*
X0001440515Y0001968485D01*
X0001441265Y0001967735D01*
X0001442764Y0001966986D01*
X0001445764Y0001966986D01*
X0001447264Y0001967735D01*
X0001448014Y0001968485D01*
X0001448764Y0001969985D01*
X0001448764Y0001982733D01*
X0001464512Y0001966986D02*
X0001455512Y0001966986D01*
X0001460012Y0001966986D02*
X0001460012Y0001982733D01*
X0001458512Y0001980484D01*
X0001457013Y0001978984D01*
X0001455512Y0001978234D01*
X0001515041Y0002051485D02*
X0001515791Y0002050735D01*
X0001516540Y0002048485D01*
X0001516540Y0002046986D01*
X0001515791Y0002044736D01*
X0001514291Y0002043235D01*
X0001512791Y0002042485D01*
X0001509792Y0002041736D01*
X0001507542Y0002041736D01*
X0001504542Y0002042485D01*
X0001503043Y0002043235D01*
X0001501542Y0002044736D01*
X0001500793Y0002046986D01*
X0001500793Y0002048485D01*
X0001501542Y0002050735D01*
X0001502293Y0002051485D01*
X0001500793Y0002056734D02*
X0001500793Y0002066482D01*
X0001506792Y0002061233D01*
X0001506792Y0002063483D01*
X0001507542Y0002064982D01*
X0001508292Y0002065732D01*
X0001509792Y0002066482D01*
X0001513541Y0002066482D01*
X0001515041Y0002065732D01*
X0001515791Y0002064982D01*
X0001516540Y0002063483D01*
X0001516540Y0002058984D01*
X0001515791Y0002057484D01*
X0001515041Y0002056734D01*
X0001369388Y0002209485D02*
X0001370137Y0002208735D01*
X0001370887Y0002206485D01*
X0001370887Y0002204986D01*
X0001370137Y0002202736D01*
X0001368638Y0002201236D01*
X0001367137Y0002200486D01*
X0001364138Y0002199736D01*
X0001361888Y0002199736D01*
X0001358889Y0002200486D01*
X0001357389Y0002201236D01*
X0001355888Y0002202736D01*
X0001355139Y0002204986D01*
X0001355139Y0002206485D01*
X0001355888Y0002208735D01*
X0001356639Y0002209485D01*
X0001360389Y0002222983D02*
X0001370887Y0002222983D01*
X0001354389Y0002219234D02*
X0001365638Y0002215484D01*
X0001365638Y0002225233D01*
X0001403138Y0002550485D02*
X0001402389Y0002549735D01*
X0001400139Y0002548986D01*
X0001398639Y0002548986D01*
X0001396389Y0002549735D01*
X0001394890Y0002551234D01*
X0001394140Y0002552735D01*
X0001393390Y0002555735D01*
X0001393390Y0002557984D01*
X0001394140Y0002560983D01*
X0001394890Y0002562484D01*
X0001396389Y0002563984D01*
X0001398639Y0002564734D01*
X0001400139Y0002564734D01*
X0001402389Y0002563984D01*
X0001403138Y0002563234D01*
X0001417387Y0002564734D02*
X0001409888Y0002564734D01*
X0001409137Y0002557235D01*
X0001409888Y0002557984D01*
X0001411388Y0002558734D01*
X0001415137Y0002558734D01*
X0001416637Y0002557984D01*
X0001417387Y0002557235D01*
X0001418137Y0002555735D01*
X0001418137Y0002551985D01*
X0001417387Y0002550485D01*
X0001416637Y0002549735D01*
X0001415137Y0002548986D01*
X0001411388Y0002548986D01*
X0001409888Y0002549735D01*
X0001409137Y0002550485D01*
X0001319139Y0002312485D02*
X0001318389Y0002311735D01*
X0001316139Y0002310986D01*
X0001314639Y0002310986D01*
X0001312389Y0002311735D01*
X0001310890Y0002313235D01*
X0001310139Y0002314735D01*
X0001309390Y0002317735D01*
X0001309390Y0002319984D01*
X0001310139Y0002322984D01*
X0001310890Y0002324484D01*
X0001312389Y0002325984D01*
X0001314639Y0002326734D01*
X0001316139Y0002326734D01*
X0001318389Y0002325984D01*
X0001319139Y0002325234D01*
X0001332637Y0002326734D02*
X0001329637Y0002326734D01*
X0001328137Y0002325984D01*
X0001327388Y0002325234D01*
X0001325888Y0002322984D01*
X0001325137Y0002319984D01*
X0001325137Y0002313985D01*
X0001325888Y0002312485D01*
X0001326638Y0002311735D01*
X0001328137Y0002310986D01*
X0001331136Y0002310986D01*
X0001332637Y0002311735D01*
X0001333387Y0002312485D01*
X0001334137Y0002313985D01*
X0001334137Y0002317735D01*
X0001333387Y0002319235D01*
X0001332637Y0002319984D01*
X0001331136Y0002320734D01*
X0001328137Y0002320734D01*
X0001326638Y0002319984D01*
X0001325888Y0002319235D01*
X0001325137Y0002317735D01*
X0001275388Y0002495485D02*
X0001276137Y0002494735D01*
X0001276887Y0002492485D01*
X0001276887Y0002490986D01*
X0001276137Y0002488736D01*
X0001274638Y0002487236D01*
X0001273138Y0002486486D01*
X0001270137Y0002485736D01*
X0001267888Y0002485736D01*
X0001264888Y0002486486D01*
X0001263389Y0002487236D01*
X0001261889Y0002488736D01*
X0001261139Y0002490986D01*
X0001261139Y0002492485D01*
X0001261889Y0002494735D01*
X0001262639Y0002495485D01*
X0001267888Y0002504484D02*
X0001267139Y0002502984D01*
X0001266389Y0002502234D01*
X0001264888Y0002501484D01*
X0001264139Y0002501484D01*
X0001262639Y0002502234D01*
X0001261889Y0002502984D01*
X0001261139Y0002504484D01*
X0001261139Y0002507484D01*
X0001261889Y0002508983D01*
X0001262639Y0002509733D01*
X0001264139Y0002510483D01*
X0001264888Y0002510483D01*
X0001266389Y0002509733D01*
X0001267139Y0002508983D01*
X0001267888Y0002507484D01*
X0001267888Y0002504484D01*
X0001268638Y0002502984D01*
X0001269388Y0002502234D01*
X0001270888Y0002501484D01*
X0001273888Y0002501484D01*
X0001275388Y0002502234D01*
X0001276137Y0002502984D01*
X0001276887Y0002504484D01*
X0001276887Y0002507484D01*
X0001276137Y0002508983D01*
X0001275388Y0002509733D01*
X0001273888Y0002510483D01*
X0001270888Y0002510483D01*
X0001269388Y0002509733D01*
X0001268638Y0002508983D01*
X0001267888Y0002507484D01*
X0001151139Y0002268485D02*
X0001150389Y0002267735D01*
X0001148139Y0002266986D01*
X0001146639Y0002266986D01*
X0001144389Y0002267735D01*
X0001142890Y0002269235D01*
X0001142140Y0002270735D01*
X0001141390Y0002273735D01*
X0001141390Y0002275984D01*
X0001142140Y0002278984D01*
X0001142890Y0002280484D01*
X0001144389Y0002281984D01*
X0001146639Y0002282734D01*
X0001148139Y0002282734D01*
X0001150389Y0002281984D01*
X0001151139Y0002281234D01*
X0001158638Y0002266986D02*
X0001161637Y0002266986D01*
X0001163137Y0002267735D01*
X0001163887Y0002268485D01*
X0001165387Y0002270735D01*
X0001166137Y0002273735D01*
X0001166137Y0002279734D01*
X0001165387Y0002281234D01*
X0001164637Y0002281984D01*
X0001163137Y0002282734D01*
X0001160137Y0002282734D01*
X0001158638Y0002281984D01*
X0001157888Y0002281234D01*
X0001157138Y0002279734D01*
X0001157138Y0002275984D01*
X0001157888Y0002274485D01*
X0001158638Y0002273735D01*
X0001160137Y0002272985D01*
X0001163137Y0002272985D01*
X0001164637Y0002273735D01*
X0001165387Y0002274485D01*
X0001166137Y0002275984D01*
%LPC*%
D14*
X0000946110Y0001962582D03*
X0000946110Y0002021637D03*
D15*
X0001414960Y0001568109D03*
D16*
X0001218110Y0001568109D03*
X0001021258Y0001568109D03*
D17*
X0001118110Y0001623479D03*
X0001118110Y0001544740D03*
D18*
X0000909110Y0002090535D03*
X0000959110Y0002090535D03*
X0001009110Y0002090535D03*
X0001059110Y0002090535D03*
X0001059110Y0001893683D03*
X0001009110Y0001893683D03*
X0000959110Y0001893683D03*
X0000909110Y0001893683D03*
D19*
X0001057637Y0002228110D03*
X0000998582Y0002228110D03*
D20*
X0001378740Y0002425511D03*
X0001378740Y0002350708D03*
X0001457480Y0002388110D03*
D21*
X0000878109Y0002192110D03*
X0000878109Y0002492110D03*
X0000878109Y0002392110D03*
X0000878109Y0002592110D03*
X0000878109Y0002292110D03*
D22*
X0001066535Y0002457165D03*
D23*
X0001103937Y0002494566D03*
X0001182677Y0002494566D03*
D22*
X0001220078Y0002457165D03*
X0001066535Y0002378425D03*
X0001220078Y0002398110D03*
D23*
X0001162992Y0002341023D03*
X0001123622Y0002341023D03*
D24*
X0001088188Y0002362677D03*
X0001088188Y0002472913D03*
X0001198425Y0002472913D03*
X0001198425Y0002362677D03*
D25*
X0001202477Y0002488776D03*
D10*
G36*
X0001208434Y0002488776D02*
X0001202477Y0002482818D01*
X0001196519Y0002488776D01*
X0001202477Y0002494733D01*
X0001208434Y0002488776D01*
X0001208434Y0002488776D01*
G37*
D25*
X0001202677Y0002346814D03*
D10*
G36*
X0001208634Y0002346814D02*
X0001202677Y0002340856D01*
X0001196719Y0002346814D01*
X0001202677Y0002352771D01*
X0001208634Y0002346814D01*
X0001208634Y0002346814D01*
G37*
D25*
X0001083937Y0002488576D03*
D10*
G36*
X0001089894Y0002488576D02*
X0001083937Y0002482618D01*
X0001077979Y0002488576D01*
X0001083937Y0002494533D01*
X0001089894Y0002488576D01*
X0001089894Y0002488576D01*
G37*
D25*
X0001083907Y0002346995D03*
D10*
G36*
X0001089864Y0002346995D02*
X0001083907Y0002341037D01*
X0001077949Y0002346995D01*
X0001083907Y0002352952D01*
X0001089864Y0002346995D01*
X0001089864Y0002346995D01*
G37*
D25*
X0001214288Y0002476965D03*
D10*
G36*
X0001220245Y0002476965D02*
X0001214288Y0002471007D01*
X0001208330Y0002476965D01*
X0001214288Y0002482922D01*
X0001220245Y0002476965D01*
X0001220245Y0002476965D01*
G37*
D25*
X0001214488Y0002358425D03*
D10*
G36*
X0001220445Y0002358425D02*
X0001214488Y0002352467D01*
X0001208530Y0002358425D01*
X0001214488Y0002364382D01*
X0001220445Y0002358425D01*
X0001220445Y0002358425D01*
G37*
D25*
X0001072525Y0002476965D03*
D10*
G36*
X0001078483Y0002476965D02*
X0001072525Y0002471007D01*
X0001066568Y0002476965D01*
X0001072525Y0002482922D01*
X0001078483Y0002476965D01*
X0001078483Y0002476965D01*
G37*
D25*
X0001072107Y0002358595D03*
D10*
G36*
X0001078064Y0002358595D02*
X0001072107Y0002352637D01*
X0001066149Y0002358595D01*
X0001072107Y0002364552D01*
X0001078064Y0002358595D01*
X0001078064Y0002358595D01*
G37*
D26*
X0001075107Y0002361577D03*
X0001075478Y0002474012D03*
X0001086889Y0002485623D03*
X0001199524Y0002485823D03*
X0001211335Y0002474012D03*
X0001211535Y0002361377D03*
X0001199724Y0002349766D03*
X0001086907Y0002349995D03*
D27*
X0001062307Y0002358595D03*
D22*
X0001066535Y0002398110D03*
X0001066535Y0002417795D03*
X0001066535Y0002437480D03*
D27*
X0001062707Y0002476965D03*
D28*
X0001083907Y0002498595D03*
D23*
X0001123622Y0002494566D03*
X0001143307Y0002494566D03*
X0001162992Y0002494566D03*
D28*
X0001202507Y0002498595D03*
D27*
X0001224107Y0002476995D03*
D22*
X0001220078Y0002437480D03*
X0001220078Y0002417795D03*
X0001220078Y0002378425D03*
D27*
X0001224307Y0002358395D03*
D28*
X0001202677Y0002336995D03*
D23*
X0001182677Y0002341023D03*
X0001143307Y0002341023D03*
X0001103937Y0002341023D03*
D28*
X0001083937Y0002337124D03*
D29*
X0001158110Y0002728110D03*
D30*
X0000888110Y0001558110D03*
D31*
X0001318110Y0001637636D03*
X0001318110Y0001578582D03*
D14*
X0001448110Y0001767637D03*
X0001448110Y0001708582D03*
D20*
X0000946850Y0001703307D03*
X0000946850Y0001778110D03*
X0000868110Y0001740708D03*
D32*
X0001238110Y0001888110D03*
D33*
X0001338110Y0001888110D03*
X0001438110Y0001888110D03*
D14*
X0001010110Y0001962582D03*
X0001010110Y0002021637D03*
X0000884109Y0001962582D03*
X0000884109Y0002021637D03*
X0001070110Y0001963055D03*
X0001070110Y0002022110D03*
D20*
X0001289370Y0001778110D03*
X0001289370Y0001703307D03*
X0001368110Y0001740708D03*
D34*
X0001298144Y0002618026D03*
X0001198144Y0002618026D03*
X0001118144Y0002618026D03*
X0001018143Y0002618026D03*
D35*
X0001388110Y0002708110D03*
X0000928110Y0002708110D03*
D36*
X0001068110Y0002713110D03*
X0001248110Y0002713110D03*
D37*
X0001151480Y0001780110D03*
X0001072740Y0001780110D03*
D38*
X0001173811Y0001981110D03*
X0001173811Y0002031110D03*
X0001173811Y0002081109D03*
X0001173811Y0002131110D03*
X0001386409Y0002131110D03*
X0001386409Y0002081109D03*
X0001386409Y0002031110D03*
X0001386409Y0001981110D03*
D31*
X0001467763Y0002079637D03*
X0001467763Y0002020582D03*
D39*
X0001323290Y0002208110D03*
X0001264236Y0002208110D03*
X0001433637Y0002518110D03*
X0001374582Y0002518110D03*
X0001298581Y0002278110D03*
X0001357637Y0002278110D03*
D31*
X0001308110Y0002468582D03*
X0001308110Y0002527637D03*
D39*
X0001128582Y0002238110D03*
X0001187637Y0002238110D03*
%LPD*%
G01*
D50*
X0001673284Y0002231424D02*
X0001665410Y0002242672D01*
X0001659786Y0002231424D02*
X0001659786Y0002255046D01*
X0001668785Y0002255046D01*
X0001671033Y0002253921D01*
X0001672159Y0002252796D01*
X0001673284Y0002250546D01*
X0001673284Y0002247172D01*
X0001672159Y0002244922D01*
X0001671033Y0002243797D01*
X0001668785Y0002242672D01*
X0001659786Y0002242672D01*
X0001682282Y0002232548D02*
X0001685658Y0002231424D01*
X0001691282Y0002231424D01*
X0001693532Y0002232548D01*
X0001694656Y0002233673D01*
X0001695781Y0002235923D01*
X0001695781Y0002238173D01*
X0001694656Y0002240422D01*
X0001693532Y0002241547D01*
X0001691282Y0002242672D01*
X0001686782Y0002243797D01*
X0001684533Y0002244922D01*
X0001683408Y0002246047D01*
X0001682282Y0002248296D01*
X0001682282Y0002250546D01*
X0001683408Y0002252796D01*
X0001684533Y0002253921D01*
X0001686782Y0002255046D01*
X0001692407Y0002255046D01*
X0001695781Y0002253921D01*
X0001702530Y0002255046D02*
X0001716029Y0002255046D01*
X0001709279Y0002231424D02*
X0001709279Y0002255046D01*
X0001656973Y0002355046D02*
X0001671597Y0002355046D01*
X0001663723Y0002346047D01*
X0001667097Y0002346047D01*
X0001669347Y0002344922D01*
X0001670472Y0002343797D01*
X0001671597Y0002341547D01*
X0001671597Y0002335923D01*
X0001670472Y0002333673D01*
X0001669347Y0002332548D01*
X0001667097Y0002331424D01*
X0001660348Y0002331424D01*
X0001658099Y0002332548D01*
X0001656973Y0002333673D01*
X0001678346Y0002355046D02*
X0001686220Y0002331424D01*
X0001694094Y0002355046D01*
X0001699718Y0002355046D02*
X0001714341Y0002355046D01*
X0001706467Y0002346047D01*
X0001709842Y0002346047D01*
X0001712092Y0002344922D01*
X0001713217Y0002343797D01*
X0001714341Y0002341547D01*
X0001714341Y0002335923D01*
X0001713217Y0002333673D01*
X0001712092Y0002332548D01*
X0001709842Y0002331424D01*
X0001703093Y0002331424D01*
X0001700843Y0002332548D01*
X0001699718Y0002333673D01*
X0001672159Y0002433673D02*
X0001671033Y0002432548D01*
X0001667660Y0002431424D01*
X0001665410Y0002431424D01*
X0001662035Y0002432548D01*
X0001659786Y0002434798D01*
X0001658661Y0002437048D01*
X0001657536Y0002441547D01*
X0001657536Y0002444922D01*
X0001658661Y0002449421D01*
X0001659786Y0002451671D01*
X0001662035Y0002453921D01*
X0001665410Y0002455046D01*
X0001667660Y0002455046D01*
X0001671033Y0002453921D01*
X0001672159Y0002452796D01*
X0001693532Y0002431424D02*
X0001682282Y0002431424D01*
X0001682282Y0002455046D01*
X0001701405Y0002431424D02*
X0001701405Y0002455046D01*
X0001714904Y0002431424D02*
X0001704780Y0002444922D01*
X0001714904Y0002455046D02*
X0001701405Y0002441547D01*
X0001662035Y0002531424D02*
X0001662035Y0002555045D01*
X0001667660Y0002555045D01*
X0001671033Y0002553921D01*
X0001673284Y0002551671D01*
X0001674409Y0002549421D01*
X0001675534Y0002544922D01*
X0001675534Y0002541547D01*
X0001674409Y0002537048D01*
X0001673284Y0002534798D01*
X0001671033Y0002532547D01*
X0001667660Y0002531424D01*
X0001662035Y0002531424D01*
X0001685658Y0002531424D02*
X0001685658Y0002555045D01*
X0001701405Y0002555045D02*
X0001705905Y0002555045D01*
X0001708155Y0002553921D01*
X0001710404Y0002551671D01*
X0001711529Y0002547172D01*
X0001711529Y0002539298D01*
X0001710404Y0002534798D01*
X0001708155Y0002532547D01*
X0001705905Y0002531424D01*
X0001701405Y0002531424D01*
X0001699156Y0002532547D01*
X0001696906Y0002534798D01*
X0001695781Y0002539298D01*
X0001695781Y0002547172D01*
X0001696906Y0002551671D01*
X0001699156Y0002553921D01*
X0001701405Y0002555045D01*
X0001668221Y0002653921D02*
X0001665973Y0002655046D01*
X0001662598Y0002655046D01*
X0001659223Y0002653921D01*
X0001656973Y0002651671D01*
X0001655849Y0002649421D01*
X0001654724Y0002644922D01*
X0001654724Y0002641547D01*
X0001655849Y0002637047D01*
X0001656973Y0002634798D01*
X0001659223Y0002632548D01*
X0001662598Y0002631424D01*
X0001664848Y0002631424D01*
X0001668221Y0002632548D01*
X0001669347Y0002633673D01*
X0001669347Y0002641547D01*
X0001664848Y0002641547D01*
X0001679471Y0002631424D02*
X0001679471Y0002655046D01*
X0001692969Y0002631424D01*
X0001692969Y0002655046D01*
X0001704218Y0002631424D02*
X0001704218Y0002655046D01*
X0001709842Y0002655046D01*
X0001713217Y0002653921D01*
X0001715465Y0002651671D01*
X0001716591Y0002649421D01*
X0001717716Y0002644922D01*
X0001717716Y0002641547D01*
X0001716591Y0002637047D01*
X0001715465Y0002634798D01*
X0001713217Y0002632548D01*
X0001709842Y0002631424D01*
X0001704218Y0002631424D01*
D51*
X0001790992Y0002011795D02*
X0001790992Y0001972425D01*
X0001737448Y0001972425D02*
X0001737448Y0002011795D01*
X0001969685Y0001564425D02*
X0001969685Y0001603795D01*
X0001902755Y0001603795D02*
X0001902755Y0001564425D01*
D52*
X0001701666Y0001889510D02*
G75*
G03X0001701666Y0001889510I-0000003046D01*
G01*
X0001702220Y0002082110D02*
X0001902220Y0002082110D01*
X0001902220Y0002082110D02*
X0001902220Y0001902110D01*
X0001902220Y0001902110D02*
X0001702220Y0001902110D01*
X0001702220Y0001902110D02*
X0001702220Y0002082110D01*
X0001702220Y0002022110D02*
X0001722220Y0002022110D01*
X0001722220Y0002022110D02*
X0001722220Y0001972110D01*
X0001722220Y0001972110D02*
X0001702220Y0001972110D01*
D51*
X0001826535Y0002254881D02*
X0001865905Y0002254881D01*
X0001865905Y0002201338D02*
X0001826535Y0002201338D01*
X0002266141Y0002325905D02*
X0002266141Y0002362519D01*
X0002266141Y0002450314D02*
X0002266141Y0002413700D01*
X0002266141Y0002450314D02*
X0002181102Y0002450314D01*
X0002266141Y0002325905D02*
X0002208661Y0002325905D01*
X0001876637Y0002502574D02*
X0001876637Y0002490763D01*
X0002047196Y0002504574D02*
X0002047196Y0002492763D01*
X0002049195Y0002331015D02*
X0002049195Y0002342826D01*
X0001879417Y0002347984D02*
X0001879417Y0002359795D01*
X0002047196Y0002504574D02*
X0002035385Y0002504574D01*
X0002049195Y0002331015D02*
X0002037385Y0002331015D01*
X0001876637Y0002502574D02*
X0001888448Y0002502574D01*
D52*
X0001874769Y0002327795D02*
G75*
G03X0001874769Y0002327795I-0000003352D01*
G01*
D51*
X0002159842Y0001621889D02*
X0002159842Y0001594330D01*
X0002112598Y0001594330D02*
X0002112598Y0001621889D01*
X0002239448Y0001718425D02*
X0002239448Y0001757795D01*
X0002292992Y0001757795D02*
X0002292992Y0001718425D01*
X0001695669Y0001802913D02*
X0001695669Y0001766299D01*
X0001695669Y0001678503D02*
X0001695669Y0001715118D01*
X0001695669Y0001678503D02*
X0001780708Y0001678503D01*
X0001695669Y0001802913D02*
X0001753149Y0001802913D01*
X0001854992Y0002011795D02*
X0001854992Y0001972425D01*
X0001801448Y0001972425D02*
X0001801448Y0002011795D01*
X0001728992Y0002011795D02*
X0001728992Y0001972425D01*
X0001675448Y0001972425D02*
X0001675448Y0002011795D01*
X0001914992Y0002012267D02*
X0001914992Y0001972896D01*
X0001861448Y0001972896D02*
X0001861448Y0002012267D01*
X0002176771Y0001678503D02*
X0002176771Y0001715118D01*
X0002176771Y0001802913D02*
X0002176771Y0001766299D01*
X0002176771Y0001802913D02*
X0002091732Y0001802913D01*
X0002176771Y0001678503D02*
X0002119291Y0001678503D01*
X0001910535Y0001746645D02*
X0001949905Y0001746645D01*
X0001949905Y0001813574D02*
X0001910535Y0001813574D01*
D52*
X0002179913Y0001956700D02*
X0002235031Y0001956700D01*
X0002179913Y0002157488D02*
X0002016527Y0002157488D01*
X0002179913Y0001954731D02*
X0002016527Y0001954731D01*
X0002179913Y0002157488D02*
X0002179913Y0002151779D01*
X0002016527Y0002157488D02*
X0002016527Y0002151779D01*
X0002016527Y0001954731D02*
X0002016527Y0001960440D01*
X0002179913Y0001954731D02*
X0002179913Y0001956700D01*
D51*
X0002309496Y0002063889D02*
X0002309496Y0002036330D01*
X0002262252Y0002036330D02*
X0002262252Y0002063889D01*
X0002125653Y0002184488D02*
X0002098094Y0002184488D01*
X0002098094Y0002231732D02*
X0002125653Y0002231732D01*
X0002236000Y0002494488D02*
X0002208440Y0002494488D01*
X0002208440Y0002541732D02*
X0002236000Y0002541732D01*
X0002132440Y0002301732D02*
X0002160000Y0002301732D01*
X0002160000Y0002254488D02*
X0002132440Y0002254488D01*
X0002102598Y0002484330D02*
X0002102598Y0002511889D01*
X0002149842Y0002511889D02*
X0002149842Y0002484330D01*
X0001962439Y0002261732D02*
X0001990000Y0002261732D01*
X0001990000Y0002214488D02*
X0001962439Y0002214488D01*
D53*
X0001771344Y0001989484D02*
X0001763845Y0001984236D01*
X0001771344Y0001980486D02*
X0001755596Y0001980486D01*
X0001755596Y0001986485D01*
X0001756346Y0001987985D01*
X0001757096Y0001988735D01*
X0001758596Y0001989484D01*
X0001760845Y0001989484D01*
X0001762345Y0001988735D01*
X0001763095Y0001987985D01*
X0001763845Y0001986485D01*
X0001763845Y0001980486D01*
X0001755596Y0002002983D02*
X0001755596Y0001999984D01*
X0001756346Y0001998484D01*
X0001757096Y0001997734D01*
X0001759345Y0001996234D01*
X0001762345Y0001995484D01*
X0001768343Y0001995484D01*
X0001769844Y0001996234D01*
X0001770594Y0001996984D01*
X0001771344Y0001998484D01*
X0001771344Y0002001484D01*
X0001770594Y0002002983D01*
X0001769844Y0002003733D01*
X0001768343Y0002004483D01*
X0001764595Y0002004483D01*
X0001763095Y0002003733D01*
X0001762345Y0002002983D01*
X0001761595Y0002001484D01*
X0001761595Y0001998484D01*
X0001762345Y0001996984D01*
X0001763095Y0001996234D01*
X0001764595Y0001995484D01*
X0001939844Y0001581485D02*
X0001940594Y0001580735D01*
X0001941344Y0001578485D01*
X0001941344Y0001576986D01*
X0001940594Y0001574736D01*
X0001939094Y0001573236D01*
X0001937595Y0001572486D01*
X0001934594Y0001571736D01*
X0001932345Y0001571736D01*
X0001929345Y0001572486D01*
X0001927846Y0001573236D01*
X0001926346Y0001574736D01*
X0001925596Y0001576986D01*
X0001925596Y0001578485D01*
X0001926346Y0001580735D01*
X0001927096Y0001581485D01*
X0001927096Y0001587484D02*
X0001926346Y0001588234D01*
X0001925596Y0001589734D01*
X0001925596Y0001593484D01*
X0001926346Y0001594983D01*
X0001927096Y0001595733D01*
X0001928596Y0001596482D01*
X0001930096Y0001596482D01*
X0001932345Y0001595733D01*
X0001941344Y0001586734D01*
X0001941344Y0001596482D01*
X0001668596Y0001910111D02*
X0001681344Y0001910111D01*
X0001682844Y0001910861D01*
X0001683594Y0001911611D01*
X0001684344Y0001913111D01*
X0001684344Y0001916110D01*
X0001683594Y0001917610D01*
X0001682844Y0001918360D01*
X0001681344Y0001919110D01*
X0001668596Y0001919110D01*
X0001670095Y0001925859D02*
X0001669346Y0001926609D01*
X0001668596Y0001928109D01*
X0001668596Y0001931858D01*
X0001669346Y0001933358D01*
X0001670095Y0001934108D01*
X0001671596Y0001934858D01*
X0001673096Y0001934858D01*
X0001675344Y0001934108D01*
X0001684344Y0001925109D01*
X0001684344Y0001934858D01*
X0001843594Y0002220986D02*
X0001838345Y0002228485D01*
X0001834596Y0002220986D02*
X0001834596Y0002236734D01*
X0001840596Y0002236734D01*
X0001842096Y0002235984D01*
X0001842845Y0002235234D01*
X0001843594Y0002233734D01*
X0001843594Y0002231484D01*
X0001842845Y0002229984D01*
X0001842096Y0002229235D01*
X0001840596Y0002228485D01*
X0001834596Y0002228485D01*
X0001848845Y0002236734D02*
X0001858592Y0002236734D01*
X0001853344Y0002230734D01*
X0001855594Y0002230734D01*
X0001857094Y0002229984D01*
X0001857844Y0002229235D01*
X0001858592Y0002227735D01*
X0001858592Y0002223985D01*
X0001857844Y0002222485D01*
X0001857094Y0002221735D01*
X0001855594Y0002220986D01*
X0001851094Y0002220986D01*
X0001849594Y0002221735D01*
X0001848845Y0002222485D01*
X0002278226Y0002323513D02*
X0002290974Y0002323513D01*
X0002292474Y0002324263D01*
X0002293224Y0002325013D01*
X0002293974Y0002326512D01*
X0002293974Y0002329512D01*
X0002293224Y0002331012D01*
X0002292474Y0002331762D01*
X0002290974Y0002332512D01*
X0002278226Y0002332512D01*
X0002278226Y0002338511D02*
X0002278226Y0002348260D01*
X0002284225Y0002343010D01*
X0002284225Y0002345260D01*
X0002284975Y0002346760D01*
X0002285725Y0002347510D01*
X0002287225Y0002348260D01*
X0002290974Y0002348260D01*
X0002292474Y0002347510D01*
X0002293224Y0002346760D01*
X0002293974Y0002345260D01*
X0002293974Y0002340761D01*
X0002293224Y0002339261D01*
X0002292474Y0002338511D01*
X0001822596Y0002331111D02*
X0001835344Y0002331111D01*
X0001836844Y0002331861D01*
X0001837594Y0002332611D01*
X0001838344Y0002334111D01*
X0001838344Y0002337110D01*
X0001837594Y0002338610D01*
X0001836844Y0002339360D01*
X0001835344Y0002340110D01*
X0001822596Y0002340110D01*
X0001827845Y0002354358D02*
X0001838344Y0002354358D01*
X0001821846Y0002350609D02*
X0001833095Y0002346859D01*
X0001833095Y0002356608D01*
X0002133595Y0001532485D02*
X0002132845Y0001531735D01*
X0002130596Y0001530985D01*
X0002129096Y0001530985D01*
X0002126846Y0001531735D01*
X0002125346Y0001533235D01*
X0002124596Y0001534735D01*
X0002123847Y0001537735D01*
X0002123847Y0001539984D01*
X0002124596Y0001542984D01*
X0002125346Y0001544484D01*
X0002126846Y0001545984D01*
X0002129096Y0001546734D01*
X0002130596Y0001546734D01*
X0002132845Y0001545984D01*
X0002133595Y0001545234D01*
X0002148593Y0001530985D02*
X0002139595Y0001530985D01*
X0002144094Y0001530985D02*
X0002144094Y0001546734D01*
X0002142594Y0001544484D01*
X0002141094Y0001542984D01*
X0002139595Y0001542234D01*
X0002273344Y0001735485D02*
X0002265845Y0001730236D01*
X0002273344Y0001726486D02*
X0002257596Y0001726486D01*
X0002257596Y0001732485D01*
X0002258346Y0001733985D01*
X0002259096Y0001734735D01*
X0002260596Y0001735485D01*
X0002262845Y0001735485D01*
X0002264345Y0001734735D01*
X0002265095Y0001733985D01*
X0002265845Y0001732485D01*
X0002265845Y0001726486D01*
X0002273344Y0001750483D02*
X0002273344Y0001741483D01*
X0002273344Y0001745984D02*
X0002257596Y0001745984D01*
X0002259846Y0001744484D01*
X0002261346Y0001742984D01*
X0002262096Y0001741483D01*
X0001732713Y0001731683D02*
X0001716966Y0001731683D01*
X0001716966Y0001735432D01*
X0001717716Y0001737681D01*
X0001719216Y0001739182D01*
X0001720716Y0001739932D01*
X0001723715Y0001740682D01*
X0001725965Y0001740682D01*
X0001728965Y0001739932D01*
X0001730464Y0001739182D01*
X0001731964Y0001737681D01*
X0001732713Y0001735432D01*
X0001732713Y0001731683D01*
X0001732713Y0001755680D02*
X0001732713Y0001746681D01*
X0001732713Y0001751181D02*
X0001716966Y0001751181D01*
X0001719216Y0001749681D01*
X0001720716Y0001748181D01*
X0001721465Y0001746681D01*
X0001835344Y0001989484D02*
X0001827845Y0001984236D01*
X0001835344Y0001980486D02*
X0001819596Y0001980486D01*
X0001819596Y0001986485D01*
X0001820345Y0001987985D01*
X0001821096Y0001988735D01*
X0001822596Y0001989484D01*
X0001824845Y0001989484D01*
X0001826345Y0001988735D01*
X0001827095Y0001987985D01*
X0001827845Y0001986485D01*
X0001827845Y0001980486D01*
X0001824845Y0002002983D02*
X0001835344Y0002002983D01*
X0001818846Y0001999234D02*
X0001830095Y0001995484D01*
X0001830095Y0002005233D01*
X0001709344Y0001989484D02*
X0001701845Y0001984236D01*
X0001709344Y0001980486D02*
X0001693596Y0001980486D01*
X0001693596Y0001986485D01*
X0001694346Y0001987985D01*
X0001695095Y0001988735D01*
X0001696596Y0001989484D01*
X0001698845Y0001989484D01*
X0001700344Y0001988735D01*
X0001701095Y0001987985D01*
X0001701845Y0001986485D01*
X0001701845Y0001980486D01*
X0001693596Y0001994733D02*
X0001693596Y0002005233D01*
X0001709344Y0001998484D01*
X0001895343Y0001989957D02*
X0001887845Y0001984708D01*
X0001895343Y0001980959D02*
X0001879595Y0001980959D01*
X0001879595Y0001986958D01*
X0001880346Y0001988457D01*
X0001881096Y0001989208D01*
X0001882596Y0001989957D01*
X0001884845Y0001989957D01*
X0001886345Y0001989208D01*
X0001887095Y0001988457D01*
X0001887845Y0001986958D01*
X0001887845Y0001980959D01*
X0001886345Y0001998956D02*
X0001885595Y0001997457D01*
X0001884845Y0001996707D01*
X0001883346Y0001995957D01*
X0001882596Y0001995957D01*
X0001881096Y0001996707D01*
X0001880346Y0001997457D01*
X0001879595Y0001998956D01*
X0001879595Y0002001955D01*
X0001880346Y0002003456D01*
X0001881096Y0002004206D01*
X0001882596Y0002004956D01*
X0001883346Y0002004956D01*
X0001884845Y0002004206D01*
X0001885595Y0002003456D01*
X0001886345Y0002001955D01*
X0001886345Y0001998956D01*
X0001887095Y0001997457D01*
X0001887845Y0001996707D01*
X0001889345Y0001995957D01*
X0001892344Y0001995957D01*
X0001893844Y0001996707D01*
X0001894594Y0001997457D01*
X0001895343Y0001998956D01*
X0001895343Y0002001955D01*
X0001894594Y0002003456D01*
X0001893844Y0002004206D01*
X0001892344Y0002004956D01*
X0001889345Y0002004956D01*
X0001887845Y0002004206D01*
X0001887095Y0002003456D01*
X0001886345Y0002001955D01*
X0002153974Y0001729085D02*
X0002138226Y0001729085D01*
X0002138226Y0001732834D01*
X0002138976Y0001735083D01*
X0002140476Y0001736584D01*
X0002141976Y0001737334D01*
X0002144975Y0001738083D01*
X0002147225Y0001738083D01*
X0002150225Y0001737334D01*
X0002151724Y0001736584D01*
X0002153224Y0001735083D01*
X0002153974Y0001732834D01*
X0002153974Y0001729085D01*
X0002138226Y0001743333D02*
X0002138226Y0001753082D01*
X0002144225Y0001747832D01*
X0002144225Y0001750081D01*
X0002144975Y0001751582D01*
X0002145725Y0001752332D01*
X0002147225Y0001753082D01*
X0002150974Y0001753082D01*
X0002152474Y0001752332D01*
X0002153224Y0001751582D01*
X0002153974Y0001750081D01*
X0002153974Y0001745582D01*
X0002153224Y0001744083D01*
X0002152474Y0001743333D01*
X0001927595Y0001833540D02*
X0001926845Y0001832791D01*
X0001924596Y0001832041D01*
X0001923096Y0001832041D01*
X0001920846Y0001832791D01*
X0001919346Y0001834290D01*
X0001918596Y0001835790D01*
X0001917847Y0001838790D01*
X0001917847Y0001841039D01*
X0001918596Y0001844039D01*
X0001919346Y0001845539D01*
X0001920846Y0001847038D01*
X0001923096Y0001847789D01*
X0001924596Y0001847789D01*
X0001926845Y0001847038D01*
X0001927595Y0001846289D01*
X0001932845Y0001847789D02*
X0001943343Y0001847789D01*
X0001936593Y0001832041D01*
X0002257875Y0001982733D02*
X0002257875Y0001969985D01*
X0002258625Y0001968485D01*
X0002259375Y0001967735D01*
X0002260875Y0001966986D01*
X0002263874Y0001966986D01*
X0002265374Y0001967735D01*
X0002266124Y0001968485D01*
X0002266874Y0001969985D01*
X0002266874Y0001982733D01*
X0002282622Y0001966986D02*
X0002273623Y0001966986D01*
X0002278122Y0001966986D02*
X0002278122Y0001982733D01*
X0002276623Y0001980484D01*
X0002275123Y0001978984D01*
X0002273623Y0001978234D01*
X0002333151Y0002051485D02*
X0002333901Y0002050735D01*
X0002334651Y0002048485D01*
X0002334651Y0002046986D01*
X0002333901Y0002044736D01*
X0002332401Y0002043235D01*
X0002330902Y0002042485D01*
X0002327902Y0002041736D01*
X0002325652Y0002041736D01*
X0002322653Y0002042485D01*
X0002321153Y0002043235D01*
X0002319653Y0002044736D01*
X0002318903Y0002046986D01*
X0002318903Y0002048485D01*
X0002319653Y0002050735D01*
X0002320403Y0002051485D01*
X0002318903Y0002056734D02*
X0002318903Y0002066482D01*
X0002324902Y0002061233D01*
X0002324902Y0002063483D01*
X0002325652Y0002064982D01*
X0002326402Y0002065732D01*
X0002327902Y0002066482D01*
X0002331652Y0002066482D01*
X0002333151Y0002065732D01*
X0002333901Y0002064982D01*
X0002334651Y0002063483D01*
X0002334651Y0002058984D01*
X0002333901Y0002057484D01*
X0002333151Y0002056734D01*
X0002187498Y0002209485D02*
X0002188248Y0002208735D01*
X0002188998Y0002206485D01*
X0002188998Y0002204986D01*
X0002188248Y0002202736D01*
X0002186748Y0002201236D01*
X0002185248Y0002200486D01*
X0002182248Y0002199736D01*
X0002179999Y0002199736D01*
X0002176999Y0002200486D01*
X0002175499Y0002201236D01*
X0002174000Y0002202736D01*
X0002173250Y0002204986D01*
X0002173250Y0002206485D01*
X0002174000Y0002208735D01*
X0002174749Y0002209485D01*
X0002178499Y0002222983D02*
X0002188998Y0002222983D01*
X0002172500Y0002219234D02*
X0002183748Y0002215484D01*
X0002183748Y0002225233D01*
X0002221249Y0002550485D02*
X0002220499Y0002549735D01*
X0002218249Y0002548986D01*
X0002216749Y0002548986D01*
X0002214500Y0002549735D01*
X0002213000Y0002551234D01*
X0002212250Y0002552735D01*
X0002211500Y0002555735D01*
X0002211500Y0002557984D01*
X0002212250Y0002560983D01*
X0002213000Y0002562484D01*
X0002214500Y0002563984D01*
X0002216749Y0002564734D01*
X0002218249Y0002564734D01*
X0002220499Y0002563984D01*
X0002221249Y0002563234D01*
X0002235497Y0002564734D02*
X0002227998Y0002564734D01*
X0002227248Y0002557235D01*
X0002227998Y0002557984D01*
X0002229498Y0002558734D01*
X0002233247Y0002558734D01*
X0002234747Y0002557984D01*
X0002235497Y0002557235D01*
X0002236247Y0002555735D01*
X0002236247Y0002551985D01*
X0002235497Y0002550485D01*
X0002234747Y0002549735D01*
X0002233247Y0002548986D01*
X0002229498Y0002548986D01*
X0002227998Y0002549735D01*
X0002227248Y0002550485D01*
X0002137249Y0002312485D02*
X0002136499Y0002311735D01*
X0002134249Y0002310986D01*
X0002132749Y0002310986D01*
X0002130500Y0002311735D01*
X0002129000Y0002313235D01*
X0002128250Y0002314735D01*
X0002127500Y0002317735D01*
X0002127500Y0002319984D01*
X0002128250Y0002322984D01*
X0002129000Y0002324484D01*
X0002130500Y0002325984D01*
X0002132749Y0002326734D01*
X0002134249Y0002326734D01*
X0002136499Y0002325984D01*
X0002137249Y0002325234D01*
X0002150747Y0002326734D02*
X0002147748Y0002326734D01*
X0002146248Y0002325984D01*
X0002145498Y0002325234D01*
X0002143998Y0002322984D01*
X0002143248Y0002319984D01*
X0002143248Y0002313985D01*
X0002143998Y0002312485D01*
X0002144748Y0002311735D01*
X0002146248Y0002310986D01*
X0002149247Y0002310986D01*
X0002150747Y0002311735D01*
X0002151497Y0002312485D01*
X0002152247Y0002313985D01*
X0002152247Y0002317735D01*
X0002151497Y0002319235D01*
X0002150747Y0002319984D01*
X0002149247Y0002320734D01*
X0002146248Y0002320734D01*
X0002144748Y0002319984D01*
X0002143998Y0002319235D01*
X0002143248Y0002317735D01*
X0002093497Y0002495485D02*
X0002094248Y0002494735D01*
X0002094998Y0002492485D01*
X0002094998Y0002490986D01*
X0002094248Y0002488736D01*
X0002092747Y0002487236D01*
X0002091248Y0002486486D01*
X0002088248Y0002485736D01*
X0002085999Y0002485736D01*
X0002082999Y0002486486D01*
X0002081499Y0002487236D01*
X0002080000Y0002488736D01*
X0002079250Y0002490986D01*
X0002079250Y0002492485D01*
X0002080000Y0002494735D01*
X0002080749Y0002495485D01*
X0002085999Y0002504484D02*
X0002085249Y0002502984D01*
X0002084499Y0002502234D01*
X0002082999Y0002501484D01*
X0002082249Y0002501484D01*
X0002080749Y0002502234D01*
X0002080000Y0002502984D01*
X0002079250Y0002504484D01*
X0002079250Y0002507484D01*
X0002080000Y0002508983D01*
X0002080749Y0002509733D01*
X0002082249Y0002510483D01*
X0002082999Y0002510483D01*
X0002084499Y0002509733D01*
X0002085249Y0002508983D01*
X0002085999Y0002507484D01*
X0002085999Y0002504484D01*
X0002086749Y0002502984D01*
X0002087499Y0002502234D01*
X0002088998Y0002501484D01*
X0002091997Y0002501484D01*
X0002093497Y0002502234D01*
X0002094248Y0002502984D01*
X0002094998Y0002504484D01*
X0002094998Y0002507484D01*
X0002094248Y0002508983D01*
X0002093497Y0002509733D01*
X0002091997Y0002510483D01*
X0002088998Y0002510483D01*
X0002087499Y0002509733D01*
X0002086749Y0002508983D01*
X0002085999Y0002507484D01*
X0001969249Y0002268485D02*
X0001968499Y0002267735D01*
X0001966249Y0002266986D01*
X0001964749Y0002266986D01*
X0001962500Y0002267735D01*
X0001961000Y0002269235D01*
X0001960250Y0002270735D01*
X0001959500Y0002273735D01*
X0001959500Y0002275984D01*
X0001960250Y0002278984D01*
X0001961000Y0002280484D01*
X0001962500Y0002281984D01*
X0001964749Y0002282734D01*
X0001966249Y0002282734D01*
X0001968499Y0002281984D01*
X0001969249Y0002281234D01*
X0001976747Y0002266986D02*
X0001979748Y0002266986D01*
X0001981247Y0002267735D01*
X0001981996Y0002268485D01*
X0001983497Y0002270735D01*
X0001984247Y0002273735D01*
X0001984247Y0002279734D01*
X0001983497Y0002281234D01*
X0001982746Y0002281984D01*
X0001981247Y0002282734D01*
X0001978248Y0002282734D01*
X0001976747Y0002281984D01*
X0001975998Y0002281234D01*
X0001975248Y0002279734D01*
X0001975248Y0002275984D01*
X0001975998Y0002274485D01*
X0001976747Y0002273735D01*
X0001978248Y0002272985D01*
X0001981247Y0002272985D01*
X0001982746Y0002273735D01*
X0001983497Y0002274485D01*
X0001984247Y0002275984D01*
%LPC*%
D54*
X0001764220Y0001962582D03*
X0001764220Y0002021637D03*
D55*
X0002233070Y0001568109D03*
D56*
X0002036220Y0001568109D03*
X0001839370Y0001568109D03*
D57*
X0001936220Y0001623479D03*
X0001936220Y0001544740D03*
D58*
X0001727220Y0002090535D03*
X0001777220Y0002090535D03*
X0001827220Y0002090535D03*
X0001877220Y0002090535D03*
X0001877220Y0001893683D03*
X0001827220Y0001893683D03*
X0001777220Y0001893683D03*
X0001727220Y0001893683D03*
D59*
X0001875748Y0002228110D03*
X0001816692Y0002228110D03*
D60*
X0002196850Y0002425511D03*
X0002196850Y0002350708D03*
X0002275590Y0002388110D03*
D61*
X0001696220Y0002192110D03*
X0001696220Y0002492110D03*
X0001696220Y0002392110D03*
X0001696220Y0002592110D03*
X0001696220Y0002292110D03*
D62*
X0001884645Y0002457165D03*
D63*
X0001922047Y0002494566D03*
X0002000786Y0002494566D03*
D62*
X0002038189Y0002457165D03*
X0001884645Y0002378425D03*
X0002038189Y0002398110D03*
D63*
X0001981101Y0002341023D03*
X0001941731Y0002341023D03*
D64*
X0001906299Y0002362677D03*
X0001906299Y0002472913D03*
X0002016535Y0002472913D03*
X0002016535Y0002362677D03*
D65*
X0002020587Y0002488776D03*
D50*
G36*
X0002026544Y0002488776D02*
X0002020587Y0002482818D01*
X0002014628Y0002488776D01*
X0002020587Y0002494733D01*
X0002026544Y0002488776D01*
X0002026544Y0002488776D01*
G37*
D65*
X0002020787Y0002346814D03*
D50*
G36*
X0002026743Y0002346814D02*
X0002020787Y0002340856D01*
X0002014829Y0002346814D01*
X0002020787Y0002352771D01*
X0002026743Y0002346814D01*
X0002026743Y0002346814D01*
G37*
D65*
X0001902047Y0002488576D03*
D50*
G36*
X0001908004Y0002488576D02*
X0001902047Y0002482618D01*
X0001896089Y0002488576D01*
X0001902047Y0002494533D01*
X0001908004Y0002488576D01*
X0001908004Y0002488576D01*
G37*
D65*
X0001902017Y0002346995D03*
D50*
G36*
X0001907974Y0002346995D02*
X0001902017Y0002341037D01*
X0001896059Y0002346995D01*
X0001902017Y0002352952D01*
X0001907974Y0002346995D01*
X0001907974Y0002346995D01*
G37*
D65*
X0002032398Y0002476965D03*
D50*
G36*
X0002038355Y0002476965D02*
X0002032398Y0002471007D01*
X0002026440Y0002476965D01*
X0002032398Y0002482922D01*
X0002038355Y0002476965D01*
X0002038355Y0002476965D01*
G37*
D65*
X0002032598Y0002358425D03*
D50*
G36*
X0002038555Y0002358425D02*
X0002032598Y0002352467D01*
X0002026640Y0002358425D01*
X0002032598Y0002364382D01*
X0002038555Y0002358425D01*
X0002038555Y0002358425D01*
G37*
D65*
X0001890636Y0002476965D03*
D50*
G36*
X0001896593Y0002476965D02*
X0001890636Y0002471007D01*
X0001884678Y0002476965D01*
X0001890636Y0002482922D01*
X0001896593Y0002476965D01*
X0001896593Y0002476965D01*
G37*
D65*
X0001890217Y0002358595D03*
D50*
G36*
X0001896174Y0002358595D02*
X0001890217Y0002352637D01*
X0001884259Y0002358595D01*
X0001890217Y0002364552D01*
X0001896174Y0002358595D01*
X0001896174Y0002358595D01*
G37*
D66*
X0001893217Y0002361577D03*
X0001893589Y0002474012D03*
X0001905000Y0002485623D03*
X0002017634Y0002485823D03*
X0002029445Y0002474012D03*
X0002029645Y0002361377D03*
X0002017834Y0002349766D03*
X0001905017Y0002349995D03*
D67*
X0001880417Y0002358595D03*
D62*
X0001884645Y0002398110D03*
X0001884645Y0002417795D03*
X0001884645Y0002437480D03*
D67*
X0001880817Y0002476965D03*
D68*
X0001902017Y0002498595D03*
D63*
X0001941731Y0002494566D03*
X0001961417Y0002494566D03*
X0001981101Y0002494566D03*
D68*
X0002020617Y0002498595D03*
D67*
X0002042217Y0002476995D03*
D62*
X0002038189Y0002437480D03*
X0002038189Y0002417795D03*
X0002038189Y0002378425D03*
D67*
X0002042417Y0002358395D03*
D68*
X0002020787Y0002336995D03*
D63*
X0002000786Y0002341023D03*
X0001961417Y0002341023D03*
X0001922047Y0002341023D03*
D68*
X0001902047Y0002337124D03*
D69*
X0001976220Y0002728110D03*
D70*
X0001706220Y0001558110D03*
D71*
X0002136220Y0001637636D03*
X0002136220Y0001578582D03*
D54*
X0002266220Y0001767637D03*
X0002266220Y0001708582D03*
D60*
X0001764960Y0001703307D03*
X0001764960Y0001778110D03*
X0001686220Y0001740708D03*
D72*
X0002056220Y0001888110D03*
D73*
X0002156220Y0001888110D03*
X0002256220Y0001888110D03*
D54*
X0001828219Y0001962582D03*
X0001828219Y0002021637D03*
X0001702220Y0001962582D03*
X0001702220Y0002021637D03*
X0001888220Y0001963055D03*
X0001888220Y0002022110D03*
D60*
X0002107480Y0001778110D03*
X0002107480Y0001703307D03*
X0002186220Y0001740708D03*
D74*
X0002116254Y0002618026D03*
X0002016254Y0002618026D03*
X0001936254Y0002618026D03*
X0001836254Y0002618026D03*
D75*
X0002206220Y0002708110D03*
X0001746220Y0002708110D03*
D76*
X0001886220Y0002713110D03*
X0002066220Y0002713110D03*
D77*
X0001969590Y0001780110D03*
X0001890850Y0001780110D03*
D78*
X0001991921Y0001981110D03*
X0001991921Y0002031110D03*
X0001991921Y0002081109D03*
X0001991921Y0002131110D03*
X0002204519Y0002131110D03*
X0002204519Y0002081109D03*
X0002204519Y0002031110D03*
X0002204519Y0001981110D03*
D71*
X0002285874Y0002079637D03*
X0002285874Y0002020582D03*
D79*
X0002141401Y0002208110D03*
X0002082345Y0002208110D03*
X0002251748Y0002518110D03*
X0002192692Y0002518110D03*
X0002116692Y0002278110D03*
X0002175748Y0002278110D03*
D71*
X0002126220Y0002468582D03*
X0002126220Y0002527637D03*
D79*
X0001946692Y0002238110D03*
X0002005748Y0002238110D03*
G04 next file*
%LPD*%
G01*
D90*
X0000037064Y0000773313D02*
X0000029190Y0000784562D01*
X0000023565Y0000773313D02*
X0000023565Y0000796935D01*
X0000032564Y0000796935D01*
X0000034814Y0000795809D01*
X0000035939Y0000794686D01*
X0000037064Y0000792436D01*
X0000037064Y0000789061D01*
X0000035939Y0000786812D01*
X0000034814Y0000785686D01*
X0000032564Y0000784562D01*
X0000023565Y0000784562D01*
X0000046062Y0000774437D02*
X0000049437Y0000773313D01*
X0000055061Y0000773313D01*
X0000057311Y0000774437D01*
X0000058436Y0000775563D01*
X0000059561Y0000777813D01*
X0000059561Y0000780062D01*
X0000058436Y0000782312D01*
X0000057311Y0000783437D01*
X0000055061Y0000784562D01*
X0000050562Y0000785686D01*
X0000048312Y0000786812D01*
X0000047187Y0000787936D01*
X0000046062Y0000790186D01*
X0000046062Y0000792436D01*
X0000047187Y0000794686D01*
X0000048312Y0000795809D01*
X0000050562Y0000796935D01*
X0000056186Y0000796935D01*
X0000059561Y0000795809D01*
X0000066310Y0000796935D02*
X0000079808Y0000796935D01*
X0000073059Y0000773313D02*
X0000073059Y0000796935D01*
X0000020753Y0000896935D02*
X0000035376Y0000896935D01*
X0000027502Y0000887936D01*
X0000030877Y0000887936D01*
X0000033127Y0000886812D01*
X0000034251Y0000885686D01*
X0000035376Y0000883437D01*
X0000035376Y0000877813D01*
X0000034251Y0000875563D01*
X0000033127Y0000874438D01*
X0000030877Y0000873313D01*
X0000024128Y0000873313D01*
X0000021878Y0000874438D01*
X0000020753Y0000875563D01*
X0000042124Y0000896935D02*
X0000050000Y0000873313D01*
X0000057874Y0000896935D01*
X0000063498Y0000896935D02*
X0000078121Y0000896935D01*
X0000070247Y0000887936D01*
X0000073622Y0000887936D01*
X0000075871Y0000886812D01*
X0000076996Y0000885686D01*
X0000078121Y0000883437D01*
X0000078121Y0000877813D01*
X0000076996Y0000875563D01*
X0000075871Y0000874438D01*
X0000073622Y0000873313D01*
X0000066872Y0000873313D01*
X0000064623Y0000874438D01*
X0000063498Y0000875563D01*
X0000035939Y0000975563D02*
X0000034814Y0000974438D01*
X0000031439Y0000973313D01*
X0000029190Y0000973313D01*
X0000025815Y0000974438D01*
X0000023565Y0000976688D01*
X0000022440Y0000978938D01*
X0000021316Y0000983437D01*
X0000021316Y0000986812D01*
X0000022440Y0000991311D01*
X0000023565Y0000993561D01*
X0000025815Y0000995810D01*
X0000029190Y0000996935D01*
X0000031439Y0000996935D01*
X0000034814Y0000995810D01*
X0000035939Y0000994686D01*
X0000057311Y0000973313D02*
X0000046062Y0000973313D01*
X0000046062Y0000996935D01*
X0000065185Y0000973313D02*
X0000065185Y0000996935D01*
X0000078683Y0000973313D02*
X0000068560Y0000986812D01*
X0000078683Y0000996935D02*
X0000065185Y0000983437D01*
X0000025815Y0001073313D02*
X0000025815Y0001096935D01*
X0000031439Y0001096935D01*
X0000034814Y0001095810D01*
X0000037064Y0001093561D01*
X0000038188Y0001091311D01*
X0000039313Y0001086812D01*
X0000039313Y0001083437D01*
X0000038188Y0001078938D01*
X0000037064Y0001076688D01*
X0000034814Y0001074438D01*
X0000031439Y0001073313D01*
X0000025815Y0001073313D01*
X0000049437Y0001073313D02*
X0000049437Y0001096935D01*
X0000065185Y0001096935D02*
X0000069685Y0001096935D01*
X0000071934Y0001095810D01*
X0000074184Y0001093561D01*
X0000075309Y0001089061D01*
X0000075309Y0001081187D01*
X0000074184Y0001076688D01*
X0000071934Y0001074438D01*
X0000069685Y0001073313D01*
X0000065185Y0001073313D01*
X0000062935Y0001074438D01*
X0000060686Y0001076688D01*
X0000059561Y0001081187D01*
X0000059561Y0001089061D01*
X0000060686Y0001093561D01*
X0000062935Y0001095810D01*
X0000065185Y0001096935D01*
X0000032002Y0001195810D02*
X0000029752Y0001196935D01*
X0000026377Y0001196935D01*
X0000023003Y0001195810D01*
X0000020753Y0001193561D01*
X0000019628Y0001191311D01*
X0000018503Y0001186812D01*
X0000018503Y0001183437D01*
X0000019628Y0001178938D01*
X0000020753Y0001176688D01*
X0000023003Y0001174438D01*
X0000026377Y0001173313D01*
X0000028627Y0001173313D01*
X0000032002Y0001174438D01*
X0000033127Y0001175563D01*
X0000033127Y0001183437D01*
X0000028627Y0001183437D01*
X0000043250Y0001173313D02*
X0000043250Y0001196935D01*
X0000056749Y0001173313D01*
X0000056749Y0001196935D01*
X0000067997Y0001173313D02*
X0000067997Y0001196935D01*
X0000073622Y0001196935D01*
X0000076996Y0001195810D01*
X0000079246Y0001193561D01*
X0000080371Y0001191311D01*
X0000081496Y0001186812D01*
X0000081496Y0001183437D01*
X0000080371Y0001178938D01*
X0000079246Y0001176688D01*
X0000076996Y0001174438D01*
X0000073622Y0001173313D01*
X0000067997Y0001173313D01*
D91*
X0000154771Y0000553685D02*
X0000154771Y0000514314D01*
X0000101228Y0000514314D02*
X0000101228Y0000553685D01*
X0000333464Y0000106314D02*
X0000333464Y0000145685D01*
X0000266535Y0000145685D02*
X0000266535Y0000106314D01*
D92*
X0000065446Y0000431399D02*
G75*
G03X0000065446Y0000431399I-0000003046D01*
G01*
X0000066000Y0000623999D02*
X0000266000Y0000623999D01*
X0000266000Y0000623999D02*
X0000266000Y0000443999D01*
X0000266000Y0000443999D02*
X0000066000Y0000443999D01*
X0000066000Y0000443999D02*
X0000066000Y0000623999D01*
X0000066000Y0000563999D02*
X0000086000Y0000563999D01*
X0000086000Y0000563999D02*
X0000086000Y0000513999D01*
X0000086000Y0000513999D02*
X0000066000Y0000513999D01*
D91*
X0000190313Y0000796770D02*
X0000229685Y0000796770D01*
X0000229685Y0000743228D02*
X0000190313Y0000743228D01*
X0000629921Y0000867795D02*
X0000629921Y0000904409D01*
X0000629921Y0000992203D02*
X0000629921Y0000955589D01*
X0000629921Y0000992203D02*
X0000544881Y0000992203D01*
X0000629921Y0000867795D02*
X0000572440Y0000867795D01*
X0000240417Y0001044464D02*
X0000240417Y0001032653D01*
X0000410976Y0001046464D02*
X0000410976Y0001034653D01*
X0000412976Y0000872904D02*
X0000412976Y0000884716D01*
X0000243196Y0000889873D02*
X0000243196Y0000901685D01*
X0000410976Y0001046464D02*
X0000399165Y0001046464D01*
X0000412976Y0000872904D02*
X0000401165Y0000872904D01*
X0000240417Y0001044464D02*
X0000252228Y0001044464D01*
D92*
X0000238549Y0000869685D02*
G75*
G03X0000238549Y0000869685I-0000003352D01*
G01*
D91*
X0000523622Y0000163779D02*
X0000523622Y0000136220D01*
X0000476377Y0000136220D02*
X0000476377Y0000163779D01*
X0000603228Y0000260314D02*
X0000603228Y0000299685D01*
X0000656771Y0000299685D02*
X0000656771Y0000260314D01*
X0000059448Y0000344803D02*
X0000059448Y0000308188D01*
X0000059448Y0000220393D02*
X0000059448Y0000257007D01*
X0000059448Y0000220393D02*
X0000144488Y0000220393D01*
X0000059448Y0000344803D02*
X0000116929Y0000344803D01*
X0000218771Y0000553685D02*
X0000218771Y0000514314D01*
X0000165228Y0000514314D02*
X0000165228Y0000553685D01*
X0000092771Y0000553685D02*
X0000092771Y0000514314D01*
X0000039228Y0000514314D02*
X0000039228Y0000553685D01*
X0000278771Y0000554157D02*
X0000278771Y0000514787D01*
X0000225228Y0000514787D02*
X0000225228Y0000554157D01*
X0000540551Y0000220393D02*
X0000540551Y0000257007D01*
X0000540551Y0000344803D02*
X0000540551Y0000308188D01*
X0000540551Y0000344803D02*
X0000455511Y0000344803D01*
X0000540551Y0000220393D02*
X0000483070Y0000220393D01*
X0000274314Y0000288535D02*
X0000313685Y0000288535D01*
X0000313685Y0000355464D02*
X0000274314Y0000355464D01*
D92*
X0000543692Y0000498590D02*
X0000598811Y0000498590D01*
X0000543692Y0000699377D02*
X0000380307Y0000699377D01*
X0000543692Y0000496621D02*
X0000380307Y0000496621D01*
X0000543692Y0000699377D02*
X0000543692Y0000693669D01*
X0000380307Y0000699377D02*
X0000380307Y0000693669D01*
X0000380307Y0000496621D02*
X0000380307Y0000502330D01*
X0000543692Y0000496621D02*
X0000543692Y0000498590D01*
D91*
X0000673275Y0000605779D02*
X0000673275Y0000578220D01*
X0000626031Y0000578220D02*
X0000626031Y0000605779D01*
X0000489433Y0000726377D02*
X0000461874Y0000726377D01*
X0000461874Y0000773622D02*
X0000489433Y0000773622D01*
X0000599779Y0001036377D02*
X0000572220Y0001036377D01*
X0000572220Y0001083622D02*
X0000599779Y0001083622D01*
X0000496220Y0000843622D02*
X0000523779Y0000843622D01*
X0000523779Y0000796377D02*
X0000496220Y0000796377D01*
X0000466377Y0001026219D02*
X0000466377Y0001053779D01*
X0000513622Y0001053779D02*
X0000513622Y0001026219D01*
X0000326220Y0000803622D02*
X0000353779Y0000803622D01*
X0000353779Y0000756377D02*
X0000326220Y0000756377D01*
D93*
X0000135124Y0000531375D02*
X0000127623Y0000526125D01*
X0000135124Y0000522375D02*
X0000119376Y0000522375D01*
X0000119376Y0000528375D01*
X0000120125Y0000529875D01*
X0000120875Y0000530625D01*
X0000122375Y0000531375D01*
X0000124625Y0000531375D01*
X0000126124Y0000530625D01*
X0000126873Y0000529875D01*
X0000127623Y0000528375D01*
X0000127623Y0000522375D01*
X0000119376Y0000544873D02*
X0000119376Y0000541873D01*
X0000120125Y0000540374D01*
X0000120875Y0000539624D01*
X0000123125Y0000538124D01*
X0000126124Y0000537374D01*
X0000132124Y0000537374D01*
X0000133624Y0000538124D01*
X0000134374Y0000538874D01*
X0000135124Y0000540374D01*
X0000135124Y0000543373D01*
X0000134374Y0000544873D01*
X0000133624Y0000545623D01*
X0000132124Y0000546373D01*
X0000128372Y0000546373D01*
X0000126873Y0000545623D01*
X0000126124Y0000544873D01*
X0000125374Y0000543373D01*
X0000125374Y0000540374D01*
X0000126124Y0000538874D01*
X0000126873Y0000538124D01*
X0000128372Y0000537374D01*
X0000303624Y0000123375D02*
X0000304374Y0000122625D01*
X0000305124Y0000120375D01*
X0000305124Y0000118875D01*
X0000304374Y0000116626D01*
X0000302874Y0000115126D01*
X0000301374Y0000114376D01*
X0000298374Y0000113626D01*
X0000296125Y0000113626D01*
X0000293125Y0000114376D01*
X0000291625Y0000115126D01*
X0000290125Y0000116626D01*
X0000289376Y0000118875D01*
X0000289376Y0000120375D01*
X0000290125Y0000122625D01*
X0000290875Y0000123375D01*
X0000290875Y0000129372D02*
X0000290125Y0000130122D01*
X0000289376Y0000131624D01*
X0000289376Y0000135373D01*
X0000290125Y0000136873D01*
X0000290875Y0000137623D01*
X0000292375Y0000138373D01*
X0000293875Y0000138373D01*
X0000296125Y0000137623D01*
X0000305124Y0000128622D01*
X0000305124Y0000138373D01*
X0000032376Y0000452001D02*
X0000045123Y0000452001D01*
X0000046624Y0000452751D01*
X0000047374Y0000453501D01*
X0000048124Y0000455001D01*
X0000048124Y0000458000D01*
X0000047374Y0000459500D01*
X0000046624Y0000460250D01*
X0000045123Y0000461000D01*
X0000032376Y0000461000D01*
X0000033875Y0000467749D02*
X0000033125Y0000468499D01*
X0000032376Y0000469999D01*
X0000032376Y0000473747D01*
X0000033125Y0000475247D01*
X0000033875Y0000475998D01*
X0000035375Y0000476747D01*
X0000036875Y0000476747D01*
X0000039125Y0000475998D01*
X0000048124Y0000466999D01*
X0000048124Y0000476747D01*
X0000207375Y0000762875D02*
X0000202125Y0000770374D01*
X0000198376Y0000762875D02*
X0000198376Y0000778622D01*
X0000204375Y0000778622D01*
X0000205875Y0000777873D01*
X0000206625Y0000777124D01*
X0000207375Y0000775624D01*
X0000207375Y0000773374D01*
X0000206625Y0000771874D01*
X0000205875Y0000771124D01*
X0000204375Y0000770374D01*
X0000198376Y0000770374D01*
X0000212623Y0000778622D02*
X0000222373Y0000778622D01*
X0000217123Y0000772624D01*
X0000219373Y0000772624D01*
X0000220873Y0000771874D01*
X0000221623Y0000771124D01*
X0000222373Y0000769625D01*
X0000222373Y0000765875D01*
X0000221623Y0000764375D01*
X0000220873Y0000763625D01*
X0000219373Y0000762875D01*
X0000214873Y0000762875D01*
X0000213373Y0000763625D01*
X0000212623Y0000764375D01*
X0000642005Y0000865402D02*
X0000654754Y0000865402D01*
X0000656254Y0000866152D01*
X0000657004Y0000866901D01*
X0000657754Y0000868402D01*
X0000657754Y0000871402D01*
X0000657004Y0000872901D01*
X0000656254Y0000873652D01*
X0000654754Y0000874401D01*
X0000642005Y0000874401D01*
X0000642005Y0000880401D02*
X0000642005Y0000890149D01*
X0000648005Y0000884900D01*
X0000648005Y0000887150D01*
X0000648755Y0000888650D01*
X0000649505Y0000889400D01*
X0000651004Y0000890149D01*
X0000654754Y0000890149D01*
X0000656254Y0000889400D01*
X0000657004Y0000888650D01*
X0000657754Y0000887150D01*
X0000657754Y0000882650D01*
X0000657004Y0000881150D01*
X0000656254Y0000880401D01*
X0000186376Y0000873001D02*
X0000199124Y0000873001D01*
X0000200624Y0000873751D01*
X0000201374Y0000874501D01*
X0000202124Y0000876001D01*
X0000202124Y0000879000D01*
X0000201374Y0000880500D01*
X0000200624Y0000881250D01*
X0000199124Y0000882000D01*
X0000186376Y0000882000D01*
X0000191625Y0000896248D02*
X0000202124Y0000896248D01*
X0000185626Y0000892499D02*
X0000196874Y0000888748D01*
X0000196874Y0000898498D01*
X0000497375Y0000074375D02*
X0000496625Y0000073625D01*
X0000494375Y0000072875D01*
X0000492875Y0000072875D01*
X0000490626Y0000073625D01*
X0000489126Y0000075125D01*
X0000488376Y0000076625D01*
X0000487626Y0000079625D01*
X0000487626Y0000081874D01*
X0000488376Y0000084874D01*
X0000489126Y0000086374D01*
X0000490626Y0000087873D01*
X0000492875Y0000088623D01*
X0000494375Y0000088623D01*
X0000496625Y0000087873D01*
X0000497375Y0000087123D01*
X0000512372Y0000072875D02*
X0000503374Y0000072875D01*
X0000507874Y0000072875D02*
X0000507874Y0000088623D01*
X0000506374Y0000086374D01*
X0000504874Y0000084874D01*
X0000503374Y0000084124D01*
X0000637124Y0000277375D02*
X0000629625Y0000272125D01*
X0000637124Y0000268376D02*
X0000621376Y0000268376D01*
X0000621376Y0000274375D01*
X0000622125Y0000275875D01*
X0000622875Y0000276625D01*
X0000624375Y0000277375D01*
X0000626625Y0000277375D01*
X0000628125Y0000276625D01*
X0000628875Y0000275875D01*
X0000629625Y0000274375D01*
X0000629625Y0000268376D01*
X0000637124Y0000292373D02*
X0000637124Y0000283374D01*
X0000637124Y0000287873D02*
X0000621376Y0000287873D01*
X0000623625Y0000286374D01*
X0000625125Y0000284874D01*
X0000625875Y0000283374D01*
X0000096494Y0000273573D02*
X0000080746Y0000273573D01*
X0000080746Y0000277322D01*
X0000081496Y0000279572D01*
X0000082995Y0000281072D01*
X0000084495Y0000281822D01*
X0000087495Y0000282572D01*
X0000089745Y0000282572D01*
X0000092744Y0000281822D01*
X0000094244Y0000281072D01*
X0000095744Y0000279572D01*
X0000096494Y0000277322D01*
X0000096494Y0000273573D01*
X0000096494Y0000297570D02*
X0000096494Y0000288571D01*
X0000096494Y0000293070D02*
X0000080746Y0000293070D01*
X0000082995Y0000291571D01*
X0000084495Y0000290071D01*
X0000085245Y0000288571D01*
X0000199124Y0000531375D02*
X0000191625Y0000526125D01*
X0000199124Y0000522375D02*
X0000183376Y0000522375D01*
X0000183376Y0000528375D01*
X0000184125Y0000529875D01*
X0000184875Y0000530625D01*
X0000186375Y0000531375D01*
X0000188625Y0000531375D01*
X0000190125Y0000530625D01*
X0000190875Y0000529875D01*
X0000191625Y0000528375D01*
X0000191625Y0000522375D01*
X0000188625Y0000544873D02*
X0000199124Y0000544873D01*
X0000182626Y0000541124D02*
X0000193874Y0000537374D01*
X0000193874Y0000547123D01*
X0000073124Y0000531375D02*
X0000065625Y0000526125D01*
X0000073124Y0000522375D02*
X0000057376Y0000522375D01*
X0000057376Y0000528375D01*
X0000058125Y0000529875D01*
X0000058875Y0000530625D01*
X0000060375Y0000531375D01*
X0000062625Y0000531375D01*
X0000064125Y0000530625D01*
X0000064875Y0000529875D01*
X0000065625Y0000528375D01*
X0000065625Y0000522375D01*
X0000057376Y0000536624D02*
X0000057376Y0000547123D01*
X0000073124Y0000540374D01*
X0000259124Y0000531847D02*
X0000251625Y0000526598D01*
X0000259124Y0000522848D02*
X0000243376Y0000522848D01*
X0000243376Y0000528848D01*
X0000244125Y0000530347D01*
X0000244875Y0000531097D01*
X0000246375Y0000531847D01*
X0000248625Y0000531847D01*
X0000250125Y0000531097D01*
X0000250875Y0000530347D01*
X0000251625Y0000528848D01*
X0000251625Y0000522848D01*
X0000250125Y0000540846D02*
X0000249375Y0000539346D01*
X0000248625Y0000538596D01*
X0000247125Y0000537847D01*
X0000246375Y0000537847D01*
X0000244875Y0000538596D01*
X0000244125Y0000539346D01*
X0000243376Y0000540846D01*
X0000243376Y0000543846D01*
X0000244125Y0000545346D01*
X0000244875Y0000546095D01*
X0000246375Y0000546845D01*
X0000247125Y0000546845D01*
X0000248625Y0000546095D01*
X0000249375Y0000545346D01*
X0000250125Y0000543846D01*
X0000250125Y0000540846D01*
X0000250875Y0000539346D01*
X0000251625Y0000538596D01*
X0000253124Y0000537847D01*
X0000256124Y0000537847D01*
X0000257624Y0000538596D01*
X0000258374Y0000539346D01*
X0000259124Y0000540846D01*
X0000259124Y0000543846D01*
X0000258374Y0000545346D01*
X0000257624Y0000546095D01*
X0000256124Y0000546845D01*
X0000253124Y0000546845D01*
X0000251625Y0000546095D01*
X0000250875Y0000545346D01*
X0000250125Y0000543846D01*
X0000517754Y0000270974D02*
X0000502005Y0000270974D01*
X0000502005Y0000274724D01*
X0000502754Y0000276974D01*
X0000504255Y0000278473D01*
X0000505754Y0000279223D01*
X0000508754Y0000279973D01*
X0000511004Y0000279973D01*
X0000514004Y0000279223D01*
X0000515503Y0000278473D01*
X0000517004Y0000276974D01*
X0000517754Y0000274724D01*
X0000517754Y0000270974D01*
X0000502005Y0000285223D02*
X0000502005Y0000294971D01*
X0000508005Y0000289722D01*
X0000508005Y0000291972D01*
X0000508754Y0000293472D01*
X0000509505Y0000294221D01*
X0000511004Y0000294971D01*
X0000514754Y0000294971D01*
X0000516254Y0000294221D01*
X0000517004Y0000293472D01*
X0000517754Y0000291972D01*
X0000517754Y0000287472D01*
X0000517004Y0000285972D01*
X0000516254Y0000285223D01*
X0000291375Y0000375430D02*
X0000290625Y0000374680D01*
X0000288375Y0000373930D01*
X0000286875Y0000373930D01*
X0000284626Y0000374680D01*
X0000283126Y0000376180D01*
X0000282376Y0000377680D01*
X0000281626Y0000380680D01*
X0000281626Y0000382929D01*
X0000282376Y0000385929D01*
X0000283126Y0000387429D01*
X0000284626Y0000388929D01*
X0000286875Y0000389679D01*
X0000288375Y0000389679D01*
X0000290625Y0000388929D01*
X0000291375Y0000388179D01*
X0000296624Y0000389679D02*
X0000307123Y0000389679D01*
X0000300374Y0000373930D01*
X0000621655Y0000524623D02*
X0000621655Y0000511874D01*
X0000622404Y0000510375D01*
X0000623154Y0000509625D01*
X0000624654Y0000508874D01*
X0000627654Y0000508874D01*
X0000629154Y0000509625D01*
X0000629903Y0000510375D01*
X0000630652Y0000511874D01*
X0000630652Y0000524623D01*
X0000646401Y0000508874D02*
X0000637403Y0000508874D01*
X0000641902Y0000508874D02*
X0000641902Y0000524623D01*
X0000640402Y0000522374D01*
X0000638902Y0000520873D01*
X0000637403Y0000520124D01*
X0000696931Y0000593375D02*
X0000697681Y0000592625D01*
X0000698430Y0000590375D01*
X0000698430Y0000588875D01*
X0000697681Y0000586626D01*
X0000696181Y0000585126D01*
X0000694681Y0000584376D01*
X0000691682Y0000583626D01*
X0000689432Y0000583626D01*
X0000686432Y0000584376D01*
X0000684932Y0000585126D01*
X0000683433Y0000586626D01*
X0000682683Y0000588875D01*
X0000682683Y0000590375D01*
X0000683433Y0000592625D01*
X0000684182Y0000593375D01*
X0000682683Y0000598624D02*
X0000682683Y0000608373D01*
X0000688682Y0000603124D01*
X0000688682Y0000605373D01*
X0000689432Y0000606873D01*
X0000690182Y0000607623D01*
X0000691682Y0000608373D01*
X0000695430Y0000608373D01*
X0000696931Y0000607623D01*
X0000697681Y0000606873D01*
X0000698430Y0000605373D01*
X0000698430Y0000600874D01*
X0000697681Y0000599374D01*
X0000696931Y0000598624D01*
X0000551277Y0000751375D02*
X0000552027Y0000750625D01*
X0000552777Y0000748375D01*
X0000552777Y0000746875D01*
X0000552027Y0000744626D01*
X0000550527Y0000743126D01*
X0000549028Y0000742376D01*
X0000546028Y0000741626D01*
X0000543778Y0000741626D01*
X0000540779Y0000742376D01*
X0000539279Y0000743126D01*
X0000537779Y0000744626D01*
X0000537029Y0000746875D01*
X0000537029Y0000748375D01*
X0000537779Y0000750625D01*
X0000538529Y0000751375D01*
X0000542278Y0000764873D02*
X0000552777Y0000764873D01*
X0000536279Y0000761124D02*
X0000547528Y0000757374D01*
X0000547528Y0000767123D01*
X0000585028Y0001092375D02*
X0000584278Y0001091625D01*
X0000582029Y0001090875D01*
X0000580529Y0001090875D01*
X0000578279Y0001091625D01*
X0000576779Y0001093125D01*
X0000576029Y0001094625D01*
X0000575280Y0001097625D01*
X0000575280Y0001099874D01*
X0000576029Y0001102874D01*
X0000576779Y0001104374D01*
X0000578279Y0001105873D01*
X0000580529Y0001106623D01*
X0000582029Y0001106623D01*
X0000584278Y0001105873D01*
X0000585028Y0001105124D01*
X0000599277Y0001106623D02*
X0000591777Y0001106623D01*
X0000591028Y0001099124D01*
X0000591777Y0001099874D01*
X0000593277Y0001100624D01*
X0000597027Y0001100624D01*
X0000598527Y0001099874D01*
X0000599277Y0001099124D01*
X0000600026Y0001097625D01*
X0000600026Y0001093875D01*
X0000599277Y0001092375D01*
X0000598527Y0001091625D01*
X0000597027Y0001090875D01*
X0000593277Y0001090875D01*
X0000591777Y0001091625D01*
X0000591028Y0001092375D01*
X0000501028Y0000854375D02*
X0000500278Y0000853625D01*
X0000498028Y0000852875D01*
X0000496528Y0000852875D01*
X0000494279Y0000853625D01*
X0000492779Y0000855125D01*
X0000492028Y0000856625D01*
X0000491280Y0000859625D01*
X0000491280Y0000861874D01*
X0000492028Y0000864874D01*
X0000492779Y0000866374D01*
X0000494279Y0000867872D01*
X0000496528Y0000868623D01*
X0000498028Y0000868623D01*
X0000500278Y0000867872D01*
X0000501028Y0000867124D01*
X0000514526Y0000868623D02*
X0000511526Y0000868623D01*
X0000510027Y0000867872D01*
X0000509277Y0000867124D01*
X0000507777Y0000864874D01*
X0000507028Y0000861874D01*
X0000507028Y0000855875D01*
X0000507777Y0000854375D01*
X0000508526Y0000853625D01*
X0000510027Y0000852875D01*
X0000513027Y0000852875D01*
X0000514526Y0000853625D01*
X0000515277Y0000854375D01*
X0000516026Y0000855875D01*
X0000516026Y0000859625D01*
X0000515277Y0000861124D01*
X0000514526Y0000861874D01*
X0000513027Y0000862623D01*
X0000510027Y0000862623D01*
X0000508526Y0000861874D01*
X0000507777Y0000861124D01*
X0000507028Y0000859625D01*
X0000457277Y0001037374D02*
X0000458027Y0001036624D01*
X0000458777Y0001034375D01*
X0000458777Y0001032875D01*
X0000458027Y0001030626D01*
X0000456527Y0001029126D01*
X0000455027Y0001028376D01*
X0000452027Y0001027625D01*
X0000449778Y0001027625D01*
X0000446779Y0001028376D01*
X0000445279Y0001029126D01*
X0000443779Y0001030626D01*
X0000443029Y0001032875D01*
X0000443029Y0001034375D01*
X0000443779Y0001036624D01*
X0000444529Y0001037374D01*
X0000449778Y0001046373D02*
X0000449027Y0001044874D01*
X0000448278Y0001044124D01*
X0000446779Y0001043374D01*
X0000446029Y0001043374D01*
X0000444529Y0001044124D01*
X0000443779Y0001044874D01*
X0000443029Y0001046373D01*
X0000443029Y0001049373D01*
X0000443779Y0001050873D01*
X0000444529Y0001051623D01*
X0000446029Y0001052373D01*
X0000446779Y0001052373D01*
X0000448278Y0001051623D01*
X0000449027Y0001050873D01*
X0000449778Y0001049373D01*
X0000449778Y0001046373D01*
X0000450527Y0001044874D01*
X0000451278Y0001044124D01*
X0000452778Y0001043374D01*
X0000455777Y0001043374D01*
X0000457277Y0001044124D01*
X0000458027Y0001044874D01*
X0000458777Y0001046373D01*
X0000458777Y0001049373D01*
X0000458027Y0001050873D01*
X0000457277Y0001051623D01*
X0000455777Y0001052373D01*
X0000452778Y0001052373D01*
X0000451278Y0001051623D01*
X0000450527Y0001050873D01*
X0000449778Y0001049373D01*
X0000333028Y0000810375D02*
X0000332278Y0000809625D01*
X0000330029Y0000808875D01*
X0000328529Y0000808875D01*
X0000326279Y0000809625D01*
X0000324779Y0000811125D01*
X0000324029Y0000812625D01*
X0000323280Y0000815625D01*
X0000323280Y0000817874D01*
X0000324029Y0000820874D01*
X0000324779Y0000822374D01*
X0000326279Y0000823873D01*
X0000328529Y0000824623D01*
X0000330029Y0000824623D01*
X0000332278Y0000823873D01*
X0000333028Y0000823123D01*
X0000340527Y0000808875D02*
X0000343527Y0000808875D01*
X0000345027Y0000809625D01*
X0000345777Y0000810375D01*
X0000347277Y0000812625D01*
X0000348026Y0000815625D01*
X0000348026Y0000821624D01*
X0000347277Y0000823123D01*
X0000346527Y0000823873D01*
X0000345027Y0000824623D01*
X0000342027Y0000824623D01*
X0000340527Y0000823873D01*
X0000339777Y0000823123D01*
X0000339028Y0000821624D01*
X0000339028Y0000817874D01*
X0000339777Y0000816374D01*
X0000340527Y0000815625D01*
X0000342027Y0000814875D01*
X0000345027Y0000814875D01*
X0000346527Y0000815625D01*
X0000347277Y0000816374D01*
X0000348026Y0000817874D01*
%LPC*%
D94*
X0000128000Y0000504472D03*
X0000128000Y0000563527D03*
D95*
X0000596850Y0000109999D03*
D96*
X0000400000Y0000109999D03*
X0000203149Y0000109999D03*
D97*
X0000300000Y0000165370D03*
X0000300000Y0000086629D03*
D98*
X0000091000Y0000632425D03*
X0000141000Y0000632425D03*
X0000191000Y0000632425D03*
X0000241000Y0000632425D03*
X0000241000Y0000435574D03*
X0000191000Y0000435574D03*
X0000141000Y0000435574D03*
X0000091000Y0000435574D03*
D99*
X0000239527Y0000769999D03*
X0000180472Y0000769999D03*
D100*
X0000560629Y0000967401D03*
X0000560629Y0000892598D03*
X0000639370Y0000929999D03*
D101*
X0000060000Y0000733999D03*
X0000060000Y0001033998D03*
X0000060000Y0000933999D03*
X0000060000Y0001133999D03*
X0000060000Y0000833999D03*
D102*
X0000248425Y0000999055D03*
D103*
X0000285826Y0001036456D03*
X0000364566Y0001036456D03*
D102*
X0000401968Y0000999055D03*
X0000248425Y0000920314D03*
X0000401968Y0000939999D03*
D103*
X0000344880Y0000882913D03*
X0000305511Y0000882913D03*
D104*
X0000270078Y0000904566D03*
X0000270078Y0001014802D03*
X0000380314Y0001014802D03*
X0000380314Y0000904566D03*
D105*
X0000384366Y0001030666D03*
D90*
G36*
X0000390323Y0001030666D02*
X0000384366Y0001024708D01*
X0000378409Y0001030666D01*
X0000384366Y0001036623D01*
X0000390323Y0001030666D01*
X0000390323Y0001030666D01*
G37*
D105*
X0000384566Y0000888703D03*
D90*
G36*
X0000390523Y0000888703D02*
X0000384566Y0000882746D01*
X0000378609Y0000888703D01*
X0000384566Y0000894661D01*
X0000390523Y0000888703D01*
X0000390523Y0000888703D01*
G37*
D105*
X0000265826Y0001030466D03*
D90*
G36*
X0000271784Y0001030466D02*
X0000265826Y0001024508D01*
X0000259869Y0001030466D01*
X0000265826Y0001036423D01*
X0000271784Y0001030466D01*
X0000271784Y0001030466D01*
G37*
D105*
X0000265796Y0000888885D03*
D90*
G36*
X0000271754Y0000888885D02*
X0000265796Y0000882927D01*
X0000259839Y0000888885D01*
X0000265796Y0000894841D01*
X0000271754Y0000888885D01*
X0000271754Y0000888885D01*
G37*
D105*
X0000396177Y0001018855D03*
D90*
G36*
X0000402135Y0001018855D02*
X0000396177Y0001012896D01*
X0000390220Y0001018855D01*
X0000396177Y0001024812D01*
X0000402135Y0001018855D01*
X0000402135Y0001018855D01*
G37*
D105*
X0000396377Y0000900314D03*
D90*
G36*
X0000402335Y0000900314D02*
X0000396377Y0000894356D01*
X0000390420Y0000900314D01*
X0000396377Y0000906272D01*
X0000402335Y0000900314D01*
X0000402335Y0000900314D01*
G37*
D105*
X0000254415Y0001018855D03*
D90*
G36*
X0000260373Y0001018855D02*
X0000254415Y0001012896D01*
X0000248458Y0001018855D01*
X0000254415Y0001024812D01*
X0000260373Y0001018855D01*
X0000260373Y0001018855D01*
G37*
D105*
X0000253996Y0000900485D03*
D90*
G36*
X0000259954Y0000900485D02*
X0000253996Y0000894527D01*
X0000248039Y0000900485D01*
X0000253996Y0000906442D01*
X0000259954Y0000900485D01*
X0000259954Y0000900485D01*
G37*
D106*
X0000256996Y0000903467D03*
X0000257368Y0001015902D03*
X0000268779Y0001027512D03*
X0000381414Y0001027713D03*
X0000393225Y0001015902D03*
X0000393425Y0000903266D03*
X0000381614Y0000891656D03*
X0000268796Y0000891885D03*
D107*
X0000244196Y0000900485D03*
D102*
X0000248425Y0000939999D03*
X0000248425Y0000959685D03*
X0000248425Y0000979370D03*
D107*
X0000244596Y0001018855D03*
D108*
X0000265796Y0001040484D03*
D103*
X0000305511Y0001036456D03*
X0000325196Y0001036456D03*
X0000344880Y0001036456D03*
D108*
X0000384396Y0001040484D03*
D107*
X0000405996Y0001018885D03*
D102*
X0000401968Y0000979370D03*
X0000401968Y0000959685D03*
X0000401968Y0000920314D03*
D107*
X0000406196Y0000900285D03*
D108*
X0000384566Y0000878885D03*
D103*
X0000364566Y0000882913D03*
X0000325196Y0000882913D03*
X0000285826Y0000882913D03*
D108*
X0000265826Y0000879014D03*
D109*
X0000339999Y0001269999D03*
D110*
X0000070000Y0000099999D03*
D111*
X0000500000Y0000179527D03*
X0000500000Y0000120472D03*
D94*
X0000629998Y0000309527D03*
X0000629998Y0000250471D03*
D100*
X0000128740Y0000245196D03*
X0000128740Y0000319998D03*
X0000050000Y0000282598D03*
D112*
X0000420000Y0000429999D03*
D113*
X0000520000Y0000429999D03*
X0000620000Y0000429999D03*
D94*
X0000192000Y0000504472D03*
X0000192000Y0000563527D03*
X0000066000Y0000504472D03*
X0000066000Y0000563527D03*
X0000252000Y0000504943D03*
X0000252000Y0000563999D03*
D100*
X0000471259Y0000319998D03*
X0000471259Y0000245196D03*
X0000550000Y0000282598D03*
D114*
X0000480033Y0001159916D03*
X0000380033Y0001159916D03*
X0000300033Y0001159916D03*
X0000200033Y0001159916D03*
D115*
X0000570000Y0001249999D03*
X0000110000Y0001249999D03*
D116*
X0000250000Y0001254999D03*
X0000430000Y0001254999D03*
D117*
X0000333370Y0000321999D03*
X0000254629Y0000321999D03*
D118*
X0000355700Y0000522999D03*
X0000355700Y0000572999D03*
X0000355700Y0000622999D03*
X0000355700Y0000672999D03*
X0000568299Y0000672999D03*
X0000568299Y0000622999D03*
X0000568299Y0000572999D03*
X0000568299Y0000522999D03*
D111*
X0000649653Y0000621527D03*
X0000649653Y0000562472D03*
D119*
X0000505181Y0000749999D03*
X0000446125Y0000749999D03*
X0000615527Y0001059999D03*
X0000556472Y0001059999D03*
X0000480472Y0000819999D03*
X0000539527Y0000819999D03*
D111*
X0000490000Y0001010472D03*
X0000490000Y0001069527D03*
D119*
X0000310472Y0000779999D03*
X0000369526Y0000779999D03*
%LPD*%
G01*
D130*
X0000037064Y0002231424D02*
X0000029190Y0002242672D01*
X0000023565Y0002231424D02*
X0000023565Y0002255046D01*
X0000032564Y0002255046D01*
X0000034814Y0002253921D01*
X0000035939Y0002252796D01*
X0000037064Y0002250546D01*
X0000037064Y0002247172D01*
X0000035939Y0002244922D01*
X0000034814Y0002243797D01*
X0000032564Y0002242672D01*
X0000023565Y0002242672D01*
X0000046062Y0002232548D02*
X0000049437Y0002231424D01*
X0000055061Y0002231424D01*
X0000057311Y0002232548D01*
X0000058436Y0002233673D01*
X0000059561Y0002235923D01*
X0000059561Y0002238173D01*
X0000058436Y0002240422D01*
X0000057311Y0002241547D01*
X0000055061Y0002242672D01*
X0000050562Y0002243797D01*
X0000048312Y0002244922D01*
X0000047187Y0002246047D01*
X0000046062Y0002248296D01*
X0000046062Y0002250546D01*
X0000047187Y0002252796D01*
X0000048312Y0002253921D01*
X0000050562Y0002255046D01*
X0000056186Y0002255046D01*
X0000059561Y0002253921D01*
X0000066310Y0002255046D02*
X0000079808Y0002255046D01*
X0000073059Y0002231424D02*
X0000073059Y0002255046D01*
X0000020753Y0002355046D02*
X0000035376Y0002355046D01*
X0000027502Y0002346047D01*
X0000030877Y0002346047D01*
X0000033127Y0002344922D01*
X0000034251Y0002343797D01*
X0000035376Y0002341547D01*
X0000035376Y0002335923D01*
X0000034251Y0002333673D01*
X0000033127Y0002332548D01*
X0000030877Y0002331424D01*
X0000024128Y0002331424D01*
X0000021878Y0002332548D01*
X0000020753Y0002333673D01*
X0000042124Y0002355046D02*
X0000050000Y0002331424D01*
X0000057874Y0002355046D01*
X0000063498Y0002355046D02*
X0000078121Y0002355046D01*
X0000070247Y0002346047D01*
X0000073622Y0002346047D01*
X0000075871Y0002344922D01*
X0000076996Y0002343797D01*
X0000078121Y0002341547D01*
X0000078121Y0002335923D01*
X0000076996Y0002333673D01*
X0000075871Y0002332548D01*
X0000073622Y0002331424D01*
X0000066872Y0002331424D01*
X0000064623Y0002332548D01*
X0000063498Y0002333673D01*
X0000035939Y0002433673D02*
X0000034814Y0002432548D01*
X0000031439Y0002431424D01*
X0000029190Y0002431424D01*
X0000025815Y0002432548D01*
X0000023565Y0002434798D01*
X0000022440Y0002437048D01*
X0000021316Y0002441547D01*
X0000021316Y0002444922D01*
X0000022440Y0002449421D01*
X0000023565Y0002451671D01*
X0000025815Y0002453921D01*
X0000029190Y0002455046D01*
X0000031439Y0002455046D01*
X0000034814Y0002453921D01*
X0000035939Y0002452796D01*
X0000057311Y0002431424D02*
X0000046062Y0002431424D01*
X0000046062Y0002455046D01*
X0000065185Y0002431424D02*
X0000065185Y0002455046D01*
X0000078683Y0002431424D02*
X0000068560Y0002444922D01*
X0000078683Y0002455046D02*
X0000065185Y0002441547D01*
X0000025815Y0002531424D02*
X0000025815Y0002555045D01*
X0000031439Y0002555045D01*
X0000034814Y0002553921D01*
X0000037064Y0002551671D01*
X0000038188Y0002549421D01*
X0000039313Y0002544922D01*
X0000039313Y0002541547D01*
X0000038188Y0002537048D01*
X0000037064Y0002534798D01*
X0000034814Y0002532547D01*
X0000031439Y0002531424D01*
X0000025815Y0002531424D01*
X0000049437Y0002531424D02*
X0000049437Y0002555045D01*
X0000065185Y0002555045D02*
X0000069685Y0002555045D01*
X0000071934Y0002553921D01*
X0000074184Y0002551671D01*
X0000075309Y0002547172D01*
X0000075309Y0002539298D01*
X0000074184Y0002534798D01*
X0000071934Y0002532547D01*
X0000069685Y0002531424D01*
X0000065185Y0002531424D01*
X0000062935Y0002532547D01*
X0000060686Y0002534798D01*
X0000059561Y0002539298D01*
X0000059561Y0002547172D01*
X0000060686Y0002551671D01*
X0000062935Y0002553921D01*
X0000065185Y0002555045D01*
X0000032002Y0002653921D02*
X0000029752Y0002655046D01*
X0000026377Y0002655046D01*
X0000023003Y0002653921D01*
X0000020753Y0002651671D01*
X0000019628Y0002649421D01*
X0000018503Y0002644922D01*
X0000018503Y0002641547D01*
X0000019628Y0002637047D01*
X0000020753Y0002634798D01*
X0000023003Y0002632548D01*
X0000026377Y0002631424D01*
X0000028627Y0002631424D01*
X0000032002Y0002632548D01*
X0000033127Y0002633673D01*
X0000033127Y0002641547D01*
X0000028627Y0002641547D01*
X0000043250Y0002631424D02*
X0000043250Y0002655046D01*
X0000056749Y0002631424D01*
X0000056749Y0002655046D01*
X0000067997Y0002631424D02*
X0000067997Y0002655046D01*
X0000073622Y0002655046D01*
X0000076996Y0002653921D01*
X0000079246Y0002651671D01*
X0000080371Y0002649421D01*
X0000081496Y0002644922D01*
X0000081496Y0002641547D01*
X0000080371Y0002637047D01*
X0000079246Y0002634798D01*
X0000076996Y0002632548D01*
X0000073622Y0002631424D01*
X0000067997Y0002631424D01*
D131*
X0000154771Y0002011795D02*
X0000154771Y0001972425D01*
X0000101228Y0001972425D02*
X0000101228Y0002011795D01*
X0000333464Y0001564425D02*
X0000333464Y0001603795D01*
X0000266535Y0001603795D02*
X0000266535Y0001564425D01*
D132*
X0000065446Y0001889510D02*
G75*
G03X0000065446Y0001889510I-0000003046D01*
G01*
X0000066000Y0002082110D02*
X0000266000Y0002082110D01*
X0000266000Y0002082110D02*
X0000266000Y0001902110D01*
X0000266000Y0001902110D02*
X0000066000Y0001902110D01*
X0000066000Y0001902110D02*
X0000066000Y0002082110D01*
X0000066000Y0002022110D02*
X0000086000Y0002022110D01*
X0000086000Y0002022110D02*
X0000086000Y0001972110D01*
X0000086000Y0001972110D02*
X0000066000Y0001972110D01*
D131*
X0000190313Y0002254881D02*
X0000229685Y0002254881D01*
X0000229685Y0002201338D02*
X0000190313Y0002201338D01*
X0000629921Y0002325905D02*
X0000629921Y0002362519D01*
X0000629921Y0002450314D02*
X0000629921Y0002413700D01*
X0000629921Y0002450314D02*
X0000544881Y0002450314D01*
X0000629921Y0002325905D02*
X0000572440Y0002325905D01*
X0000240417Y0002502574D02*
X0000240417Y0002490763D01*
X0000410976Y0002504574D02*
X0000410976Y0002492763D01*
X0000412976Y0002331015D02*
X0000412976Y0002342826D01*
X0000243196Y0002347984D02*
X0000243196Y0002359795D01*
X0000410976Y0002504574D02*
X0000399165Y0002504574D01*
X0000412976Y0002331015D02*
X0000401165Y0002331015D01*
X0000240417Y0002502574D02*
X0000252228Y0002502574D01*
D132*
X0000238549Y0002327795D02*
G75*
G03X0000238549Y0002327795I-0000003352D01*
G01*
D131*
X0000523622Y0001621889D02*
X0000523622Y0001594330D01*
X0000476377Y0001594330D02*
X0000476377Y0001621889D01*
X0000603228Y0001718425D02*
X0000603228Y0001757795D01*
X0000656771Y0001757795D02*
X0000656771Y0001718425D01*
X0000059448Y0001802913D02*
X0000059448Y0001766299D01*
X0000059448Y0001678503D02*
X0000059448Y0001715118D01*
X0000059448Y0001678503D02*
X0000144488Y0001678503D01*
X0000059448Y0001802913D02*
X0000116929Y0001802913D01*
X0000218771Y0002011795D02*
X0000218771Y0001972425D01*
X0000165228Y0001972425D02*
X0000165228Y0002011795D01*
X0000092771Y0002011795D02*
X0000092771Y0001972425D01*
X0000039228Y0001972425D02*
X0000039228Y0002011795D01*
X0000278771Y0002012267D02*
X0000278771Y0001972896D01*
X0000225228Y0001972896D02*
X0000225228Y0002012267D01*
X0000540551Y0001678503D02*
X0000540551Y0001715118D01*
X0000540551Y0001802913D02*
X0000540551Y0001766299D01*
X0000540551Y0001802913D02*
X0000455511Y0001802913D01*
X0000540551Y0001678503D02*
X0000483070Y0001678503D01*
X0000274314Y0001746645D02*
X0000313685Y0001746645D01*
X0000313685Y0001813574D02*
X0000274314Y0001813574D01*
D132*
X0000543692Y0001956700D02*
X0000598811Y0001956700D01*
X0000543692Y0002157488D02*
X0000380307Y0002157488D01*
X0000543692Y0001954730D02*
X0000380307Y0001954730D01*
X0000543692Y0002157488D02*
X0000543692Y0002151779D01*
X0000380307Y0002157488D02*
X0000380307Y0002151779D01*
X0000380307Y0001954730D02*
X0000380307Y0001960440D01*
X0000543692Y0001954730D02*
X0000543692Y0001956700D01*
D131*
X0000673275Y0002063889D02*
X0000673275Y0002036330D01*
X0000626031Y0002036330D02*
X0000626031Y0002063889D01*
X0000489433Y0002184488D02*
X0000461874Y0002184488D01*
X0000461874Y0002231732D02*
X0000489433Y0002231732D01*
X0000599779Y0002494488D02*
X0000572220Y0002494488D01*
X0000572220Y0002541732D02*
X0000599779Y0002541732D01*
X0000496220Y0002301732D02*
X0000523779Y0002301732D01*
X0000523779Y0002254488D02*
X0000496220Y0002254488D01*
X0000466377Y0002484330D02*
X0000466377Y0002511889D01*
X0000513622Y0002511889D02*
X0000513622Y0002484330D01*
X0000326220Y0002261732D02*
X0000353779Y0002261732D01*
X0000353779Y0002214488D02*
X0000326220Y0002214488D01*
D133*
X0000135124Y0001989484D02*
X0000127623Y0001984236D01*
X0000135124Y0001980486D02*
X0000119376Y0001980486D01*
X0000119376Y0001986485D01*
X0000120125Y0001987985D01*
X0000120875Y0001988735D01*
X0000122375Y0001989484D01*
X0000124625Y0001989484D01*
X0000126124Y0001988735D01*
X0000126873Y0001987985D01*
X0000127623Y0001986485D01*
X0000127623Y0001980486D01*
X0000119376Y0002002983D02*
X0000119376Y0001999984D01*
X0000120125Y0001998484D01*
X0000120875Y0001997734D01*
X0000123125Y0001996234D01*
X0000126124Y0001995484D01*
X0000132124Y0001995484D01*
X0000133624Y0001996234D01*
X0000134374Y0001996984D01*
X0000135124Y0001998484D01*
X0000135124Y0002001484D01*
X0000134374Y0002002983D01*
X0000133624Y0002003733D01*
X0000132124Y0002004483D01*
X0000128372Y0002004483D01*
X0000126873Y0002003733D01*
X0000126124Y0002002983D01*
X0000125374Y0002001484D01*
X0000125374Y0001998484D01*
X0000126124Y0001996984D01*
X0000126873Y0001996234D01*
X0000128372Y0001995484D01*
X0000303624Y0001581485D02*
X0000304374Y0001580735D01*
X0000305124Y0001578485D01*
X0000305124Y0001576986D01*
X0000304374Y0001574736D01*
X0000302874Y0001573236D01*
X0000301374Y0001572486D01*
X0000298374Y0001571736D01*
X0000296125Y0001571736D01*
X0000293125Y0001572486D01*
X0000291625Y0001573236D01*
X0000290125Y0001574736D01*
X0000289376Y0001576986D01*
X0000289376Y0001578485D01*
X0000290125Y0001580735D01*
X0000290875Y0001581485D01*
X0000290875Y0001587484D02*
X0000290125Y0001588234D01*
X0000289376Y0001589734D01*
X0000289376Y0001593484D01*
X0000290125Y0001594983D01*
X0000290875Y0001595733D01*
X0000292375Y0001596482D01*
X0000293875Y0001596482D01*
X0000296125Y0001595733D01*
X0000305124Y0001586734D01*
X0000305124Y0001596482D01*
X0000032376Y0001910111D02*
X0000045123Y0001910111D01*
X0000046624Y0001910861D01*
X0000047374Y0001911611D01*
X0000048124Y0001913111D01*
X0000048124Y0001916110D01*
X0000047374Y0001917610D01*
X0000046624Y0001918360D01*
X0000045123Y0001919110D01*
X0000032376Y0001919110D01*
X0000033875Y0001925859D02*
X0000033125Y0001926609D01*
X0000032376Y0001928109D01*
X0000032376Y0001931858D01*
X0000033125Y0001933358D01*
X0000033875Y0001934108D01*
X0000035375Y0001934858D01*
X0000036875Y0001934858D01*
X0000039125Y0001934108D01*
X0000048124Y0001925109D01*
X0000048124Y0001934858D01*
X0000207375Y0002220986D02*
X0000202125Y0002228485D01*
X0000198376Y0002220986D02*
X0000198376Y0002236734D01*
X0000204375Y0002236734D01*
X0000205875Y0002235984D01*
X0000206625Y0002235234D01*
X0000207375Y0002233734D01*
X0000207375Y0002231484D01*
X0000206625Y0002229984D01*
X0000205875Y0002229235D01*
X0000204375Y0002228485D01*
X0000198376Y0002228485D01*
X0000212623Y0002236734D02*
X0000222373Y0002236734D01*
X0000217123Y0002230734D01*
X0000219373Y0002230734D01*
X0000220873Y0002229984D01*
X0000221623Y0002229235D01*
X0000222373Y0002227735D01*
X0000222373Y0002223985D01*
X0000221623Y0002222485D01*
X0000220873Y0002221735D01*
X0000219373Y0002220986D01*
X0000214873Y0002220986D01*
X0000213373Y0002221735D01*
X0000212623Y0002222485D01*
X0000642005Y0002323513D02*
X0000654754Y0002323513D01*
X0000656254Y0002324263D01*
X0000657004Y0002325013D01*
X0000657754Y0002326512D01*
X0000657754Y0002329512D01*
X0000657004Y0002331012D01*
X0000656254Y0002331762D01*
X0000654754Y0002332512D01*
X0000642005Y0002332512D01*
X0000642005Y0002338511D02*
X0000642005Y0002348260D01*
X0000648005Y0002343010D01*
X0000648005Y0002345260D01*
X0000648755Y0002346760D01*
X0000649505Y0002347510D01*
X0000651004Y0002348260D01*
X0000654754Y0002348260D01*
X0000656254Y0002347510D01*
X0000657004Y0002346760D01*
X0000657754Y0002345260D01*
X0000657754Y0002340761D01*
X0000657004Y0002339261D01*
X0000656254Y0002338511D01*
X0000186376Y0002331111D02*
X0000199124Y0002331111D01*
X0000200624Y0002331861D01*
X0000201374Y0002332611D01*
X0000202124Y0002334111D01*
X0000202124Y0002337110D01*
X0000201374Y0002338610D01*
X0000200624Y0002339360D01*
X0000199124Y0002340110D01*
X0000186376Y0002340110D01*
X0000191625Y0002354358D02*
X0000202124Y0002354358D01*
X0000185626Y0002350609D02*
X0000196874Y0002346859D01*
X0000196874Y0002356608D01*
X0000497375Y0001532485D02*
X0000496625Y0001531735D01*
X0000494375Y0001530985D01*
X0000492875Y0001530985D01*
X0000490626Y0001531735D01*
X0000489126Y0001533235D01*
X0000488376Y0001534735D01*
X0000487626Y0001537735D01*
X0000487626Y0001539984D01*
X0000488376Y0001542984D01*
X0000489126Y0001544484D01*
X0000490626Y0001545984D01*
X0000492875Y0001546734D01*
X0000494375Y0001546734D01*
X0000496625Y0001545984D01*
X0000497375Y0001545234D01*
X0000512372Y0001530985D02*
X0000503374Y0001530985D01*
X0000507874Y0001530985D02*
X0000507874Y0001546734D01*
X0000506374Y0001544484D01*
X0000504874Y0001542984D01*
X0000503374Y0001542234D01*
X0000637124Y0001735485D02*
X0000629625Y0001730236D01*
X0000637124Y0001726486D02*
X0000621376Y0001726486D01*
X0000621376Y0001732485D01*
X0000622125Y0001733985D01*
X0000622875Y0001734735D01*
X0000624375Y0001735485D01*
X0000626625Y0001735485D01*
X0000628125Y0001734735D01*
X0000628875Y0001733985D01*
X0000629625Y0001732485D01*
X0000629625Y0001726486D01*
X0000637124Y0001750483D02*
X0000637124Y0001741483D01*
X0000637124Y0001745984D02*
X0000621376Y0001745984D01*
X0000623625Y0001744484D01*
X0000625125Y0001742984D01*
X0000625875Y0001741483D01*
X0000096494Y0001731683D02*
X0000080746Y0001731683D01*
X0000080746Y0001735432D01*
X0000081496Y0001737681D01*
X0000082995Y0001739182D01*
X0000084495Y0001739932D01*
X0000087495Y0001740682D01*
X0000089745Y0001740682D01*
X0000092744Y0001739932D01*
X0000094244Y0001739182D01*
X0000095744Y0001737681D01*
X0000096494Y0001735432D01*
X0000096494Y0001731683D01*
X0000096494Y0001755680D02*
X0000096494Y0001746681D01*
X0000096494Y0001751181D02*
X0000080746Y0001751181D01*
X0000082995Y0001749681D01*
X0000084495Y0001748181D01*
X0000085245Y0001746681D01*
X0000199124Y0001989484D02*
X0000191625Y0001984236D01*
X0000199124Y0001980486D02*
X0000183376Y0001980486D01*
X0000183376Y0001986485D01*
X0000184125Y0001987985D01*
X0000184875Y0001988735D01*
X0000186375Y0001989484D01*
X0000188625Y0001989484D01*
X0000190125Y0001988735D01*
X0000190875Y0001987985D01*
X0000191625Y0001986485D01*
X0000191625Y0001980486D01*
X0000188625Y0002002983D02*
X0000199124Y0002002983D01*
X0000182626Y0001999234D02*
X0000193874Y0001995484D01*
X0000193874Y0002005233D01*
X0000073124Y0001989484D02*
X0000065625Y0001984236D01*
X0000073124Y0001980486D02*
X0000057376Y0001980486D01*
X0000057376Y0001986485D01*
X0000058125Y0001987985D01*
X0000058875Y0001988735D01*
X0000060375Y0001989484D01*
X0000062625Y0001989484D01*
X0000064125Y0001988735D01*
X0000064875Y0001987985D01*
X0000065625Y0001986485D01*
X0000065625Y0001980486D01*
X0000057376Y0001994733D02*
X0000057376Y0002005233D01*
X0000073124Y0001998484D01*
X0000259124Y0001989957D02*
X0000251625Y0001984708D01*
X0000259124Y0001980959D02*
X0000243376Y0001980959D01*
X0000243376Y0001986958D01*
X0000244125Y0001988457D01*
X0000244875Y0001989208D01*
X0000246375Y0001989957D01*
X0000248625Y0001989957D01*
X0000250125Y0001989208D01*
X0000250875Y0001988457D01*
X0000251625Y0001986958D01*
X0000251625Y0001980959D01*
X0000250125Y0001998956D02*
X0000249375Y0001997457D01*
X0000248625Y0001996707D01*
X0000247125Y0001995957D01*
X0000246375Y0001995957D01*
X0000244875Y0001996707D01*
X0000244125Y0001997457D01*
X0000243376Y0001998956D01*
X0000243376Y0002001955D01*
X0000244125Y0002003456D01*
X0000244875Y0002004206D01*
X0000246375Y0002004956D01*
X0000247125Y0002004956D01*
X0000248625Y0002004206D01*
X0000249375Y0002003456D01*
X0000250125Y0002001955D01*
X0000250125Y0001998956D01*
X0000250875Y0001997457D01*
X0000251625Y0001996707D01*
X0000253124Y0001995957D01*
X0000256124Y0001995957D01*
X0000257624Y0001996707D01*
X0000258374Y0001997457D01*
X0000259124Y0001998956D01*
X0000259124Y0002001955D01*
X0000258374Y0002003456D01*
X0000257624Y0002004206D01*
X0000256124Y0002004956D01*
X0000253124Y0002004956D01*
X0000251625Y0002004206D01*
X0000250875Y0002003456D01*
X0000250125Y0002001955D01*
X0000517754Y0001729085D02*
X0000502005Y0001729085D01*
X0000502005Y0001732834D01*
X0000502754Y0001735083D01*
X0000504255Y0001736584D01*
X0000505754Y0001737334D01*
X0000508754Y0001738083D01*
X0000511004Y0001738083D01*
X0000514004Y0001737334D01*
X0000515503Y0001736584D01*
X0000517004Y0001735083D01*
X0000517754Y0001732834D01*
X0000517754Y0001729085D01*
X0000502005Y0001743333D02*
X0000502005Y0001753082D01*
X0000508005Y0001747832D01*
X0000508005Y0001750080D01*
X0000508754Y0001751582D01*
X0000509505Y0001752332D01*
X0000511004Y0001753082D01*
X0000514754Y0001753082D01*
X0000516254Y0001752332D01*
X0000517004Y0001751582D01*
X0000517754Y0001750080D01*
X0000517754Y0001745582D01*
X0000517004Y0001744083D01*
X0000516254Y0001743333D01*
X0000291375Y0001833540D02*
X0000290625Y0001832791D01*
X0000288375Y0001832041D01*
X0000286875Y0001832041D01*
X0000284626Y0001832791D01*
X0000283126Y0001834290D01*
X0000282376Y0001835790D01*
X0000281626Y0001838790D01*
X0000281626Y0001841038D01*
X0000282376Y0001844039D01*
X0000283126Y0001845539D01*
X0000284626Y0001847038D01*
X0000286875Y0001847789D01*
X0000288375Y0001847789D01*
X0000290625Y0001847038D01*
X0000291375Y0001846289D01*
X0000296624Y0001847789D02*
X0000307123Y0001847789D01*
X0000300374Y0001832041D01*
X0000621655Y0001982732D02*
X0000621655Y0001969985D01*
X0000622404Y0001968485D01*
X0000623154Y0001967735D01*
X0000624654Y0001966986D01*
X0000627654Y0001966986D01*
X0000629154Y0001967735D01*
X0000629903Y0001968485D01*
X0000630652Y0001969985D01*
X0000630652Y0001982732D01*
X0000646401Y0001966986D02*
X0000637403Y0001966986D01*
X0000641902Y0001966986D02*
X0000641902Y0001982732D01*
X0000640402Y0001980484D01*
X0000638902Y0001978984D01*
X0000637403Y0001978234D01*
X0000696931Y0002051485D02*
X0000697681Y0002050735D01*
X0000698430Y0002048485D01*
X0000698430Y0002046986D01*
X0000697681Y0002044736D01*
X0000696181Y0002043235D01*
X0000694681Y0002042485D01*
X0000691682Y0002041736D01*
X0000689432Y0002041736D01*
X0000686432Y0002042485D01*
X0000684932Y0002043235D01*
X0000683433Y0002044736D01*
X0000682683Y0002046986D01*
X0000682683Y0002048485D01*
X0000683433Y0002050735D01*
X0000684182Y0002051485D01*
X0000682683Y0002056734D02*
X0000682683Y0002066482D01*
X0000688682Y0002061233D01*
X0000688682Y0002063483D01*
X0000689432Y0002064982D01*
X0000690182Y0002065732D01*
X0000691682Y0002066482D01*
X0000695430Y0002066482D01*
X0000696931Y0002065732D01*
X0000697681Y0002064982D01*
X0000698430Y0002063483D01*
X0000698430Y0002058984D01*
X0000697681Y0002057484D01*
X0000696931Y0002056734D01*
X0000551277Y0002209485D02*
X0000552027Y0002208735D01*
X0000552777Y0002206485D01*
X0000552777Y0002204986D01*
X0000552027Y0002202736D01*
X0000550527Y0002201236D01*
X0000549028Y0002200486D01*
X0000546028Y0002199736D01*
X0000543778Y0002199736D01*
X0000540779Y0002200486D01*
X0000539279Y0002201236D01*
X0000537779Y0002202736D01*
X0000537029Y0002204986D01*
X0000537029Y0002206485D01*
X0000537779Y0002208735D01*
X0000538529Y0002209485D01*
X0000542278Y0002222983D02*
X0000552777Y0002222983D01*
X0000536279Y0002219234D02*
X0000547528Y0002215484D01*
X0000547528Y0002225233D01*
X0000585028Y0002550485D02*
X0000584278Y0002549735D01*
X0000582029Y0002548986D01*
X0000580529Y0002548986D01*
X0000578279Y0002549735D01*
X0000576779Y0002551234D01*
X0000576029Y0002552735D01*
X0000575280Y0002555735D01*
X0000575280Y0002557984D01*
X0000576029Y0002560983D01*
X0000576779Y0002562484D01*
X0000578279Y0002563984D01*
X0000580529Y0002564734D01*
X0000582029Y0002564734D01*
X0000584278Y0002563984D01*
X0000585028Y0002563234D01*
X0000599277Y0002564734D02*
X0000591777Y0002564734D01*
X0000591028Y0002557235D01*
X0000591777Y0002557984D01*
X0000593277Y0002558734D01*
X0000597027Y0002558734D01*
X0000598527Y0002557984D01*
X0000599277Y0002557235D01*
X0000600026Y0002555735D01*
X0000600026Y0002551985D01*
X0000599277Y0002550485D01*
X0000598527Y0002549735D01*
X0000597027Y0002548986D01*
X0000593277Y0002548986D01*
X0000591777Y0002549735D01*
X0000591028Y0002550485D01*
X0000501028Y0002312485D02*
X0000500278Y0002311735D01*
X0000498028Y0002310986D01*
X0000496528Y0002310986D01*
X0000494279Y0002311735D01*
X0000492779Y0002313235D01*
X0000492028Y0002314735D01*
X0000491280Y0002317735D01*
X0000491280Y0002319984D01*
X0000492028Y0002322984D01*
X0000492779Y0002324484D01*
X0000494279Y0002325984D01*
X0000496528Y0002326734D01*
X0000498028Y0002326734D01*
X0000500278Y0002325984D01*
X0000501028Y0002325234D01*
X0000514526Y0002326734D02*
X0000511526Y0002326734D01*
X0000510027Y0002325984D01*
X0000509277Y0002325234D01*
X0000507777Y0002322984D01*
X0000507028Y0002319984D01*
X0000507028Y0002313985D01*
X0000507777Y0002312485D01*
X0000508526Y0002311735D01*
X0000510027Y0002310986D01*
X0000513027Y0002310986D01*
X0000514526Y0002311735D01*
X0000515277Y0002312485D01*
X0000516026Y0002313985D01*
X0000516026Y0002317735D01*
X0000515277Y0002319235D01*
X0000514526Y0002319984D01*
X0000513027Y0002320734D01*
X0000510027Y0002320734D01*
X0000508526Y0002319984D01*
X0000507777Y0002319235D01*
X0000507028Y0002317735D01*
X0000457277Y0002495485D02*
X0000458027Y0002494735D01*
X0000458777Y0002492485D01*
X0000458777Y0002490986D01*
X0000458027Y0002488736D01*
X0000456527Y0002487236D01*
X0000455027Y0002486486D01*
X0000452027Y0002485736D01*
X0000449778Y0002485736D01*
X0000446779Y0002486486D01*
X0000445279Y0002487236D01*
X0000443779Y0002488736D01*
X0000443029Y0002490986D01*
X0000443029Y0002492485D01*
X0000443779Y0002494735D01*
X0000444529Y0002495485D01*
X0000449778Y0002504484D02*
X0000449027Y0002502984D01*
X0000448278Y0002502234D01*
X0000446779Y0002501484D01*
X0000446029Y0002501484D01*
X0000444529Y0002502234D01*
X0000443779Y0002502984D01*
X0000443029Y0002504484D01*
X0000443029Y0002507484D01*
X0000443779Y0002508983D01*
X0000444529Y0002509733D01*
X0000446029Y0002510483D01*
X0000446779Y0002510483D01*
X0000448278Y0002509733D01*
X0000449027Y0002508983D01*
X0000449778Y0002507484D01*
X0000449778Y0002504484D01*
X0000450527Y0002502984D01*
X0000451278Y0002502234D01*
X0000452778Y0002501484D01*
X0000455777Y0002501484D01*
X0000457277Y0002502234D01*
X0000458027Y0002502984D01*
X0000458777Y0002504484D01*
X0000458777Y0002507484D01*
X0000458027Y0002508983D01*
X0000457277Y0002509733D01*
X0000455777Y0002510483D01*
X0000452778Y0002510483D01*
X0000451278Y0002509733D01*
X0000450527Y0002508983D01*
X0000449778Y0002507484D01*
X0000333028Y0002268485D02*
X0000332278Y0002267735D01*
X0000330029Y0002266986D01*
X0000328529Y0002266986D01*
X0000326279Y0002267735D01*
X0000324779Y0002269235D01*
X0000324029Y0002270735D01*
X0000323280Y0002273735D01*
X0000323280Y0002275984D01*
X0000324029Y0002278984D01*
X0000324779Y0002280484D01*
X0000326279Y0002281984D01*
X0000328529Y0002282734D01*
X0000330029Y0002282734D01*
X0000332278Y0002281984D01*
X0000333028Y0002281234D01*
X0000340527Y0002266986D02*
X0000343527Y0002266986D01*
X0000345027Y0002267735D01*
X0000345777Y0002268485D01*
X0000347277Y0002270735D01*
X0000348026Y0002273735D01*
X0000348026Y0002279734D01*
X0000347277Y0002281234D01*
X0000346527Y0002281984D01*
X0000345027Y0002282734D01*
X0000342027Y0002282734D01*
X0000340527Y0002281984D01*
X0000339777Y0002281234D01*
X0000339028Y0002279734D01*
X0000339028Y0002275984D01*
X0000339777Y0002274485D01*
X0000340527Y0002273735D01*
X0000342027Y0002272985D01*
X0000345027Y0002272985D01*
X0000346527Y0002273735D01*
X0000347277Y0002274485D01*
X0000348026Y0002275984D01*
%LPC*%
D134*
X0000128000Y0001962582D03*
X0000128000Y0002021637D03*
D135*
X0000596850Y0001568108D03*
D136*
X0000400000Y0001568108D03*
X0000203149Y0001568108D03*
D137*
X0000300000Y0001623479D03*
X0000300000Y0001544740D03*
D138*
X0000091000Y0002090535D03*
X0000141000Y0002090535D03*
X0000191000Y0002090535D03*
X0000241000Y0002090535D03*
X0000241000Y0001893683D03*
X0000191000Y0001893683D03*
X0000141000Y0001893683D03*
X0000091000Y0001893683D03*
D139*
X0000239527Y0002228110D03*
X0000180472Y0002228110D03*
D140*
X0000560629Y0002425511D03*
X0000560629Y0002350708D03*
X0000639370Y0002388110D03*
D141*
X0000060000Y0002192110D03*
X0000060000Y0002492110D03*
X0000060000Y0002392110D03*
X0000060000Y0002592110D03*
X0000060000Y0002292110D03*
D142*
X0000248425Y0002457165D03*
D143*
X0000285826Y0002494566D03*
X0000364566Y0002494566D03*
D142*
X0000401968Y0002457165D03*
X0000248425Y0002378425D03*
X0000401968Y0002398110D03*
D143*
X0000344880Y0002341023D03*
X0000305511Y0002341023D03*
D144*
X0000270078Y0002362677D03*
X0000270078Y0002472913D03*
X0000380314Y0002472913D03*
X0000380314Y0002362677D03*
D145*
X0000384366Y0002488776D03*
D130*
G36*
X0000390323Y0002488776D02*
X0000384366Y0002482818D01*
X0000378409Y0002488776D01*
X0000384366Y0002494733D01*
X0000390323Y0002488776D01*
X0000390323Y0002488776D01*
G37*
D145*
X0000384566Y0002346814D03*
D130*
G36*
X0000390523Y0002346814D02*
X0000384566Y0002340856D01*
X0000378609Y0002346814D01*
X0000384566Y0002352771D01*
X0000390523Y0002346814D01*
X0000390523Y0002346814D01*
G37*
D145*
X0000265826Y0002488576D03*
D130*
G36*
X0000271784Y0002488576D02*
X0000265826Y0002482618D01*
X0000259869Y0002488576D01*
X0000265826Y0002494533D01*
X0000271784Y0002488576D01*
X0000271784Y0002488576D01*
G37*
D145*
X0000265796Y0002346995D03*
D130*
G36*
X0000271754Y0002346995D02*
X0000265796Y0002341037D01*
X0000259839Y0002346995D01*
X0000265796Y0002352952D01*
X0000271754Y0002346995D01*
X0000271754Y0002346995D01*
G37*
D145*
X0000396177Y0002476965D03*
D130*
G36*
X0000402135Y0002476965D02*
X0000396177Y0002471007D01*
X0000390220Y0002476965D01*
X0000396177Y0002482922D01*
X0000402135Y0002476965D01*
X0000402135Y0002476965D01*
G37*
D145*
X0000396377Y0002358425D03*
D130*
G36*
X0000402335Y0002358425D02*
X0000396377Y0002352467D01*
X0000390420Y0002358425D01*
X0000396377Y0002364382D01*
X0000402335Y0002358425D01*
X0000402335Y0002358425D01*
G37*
D145*
X0000254415Y0002476965D03*
D130*
G36*
X0000260373Y0002476965D02*
X0000254415Y0002471007D01*
X0000248458Y0002476965D01*
X0000254415Y0002482922D01*
X0000260373Y0002476965D01*
X0000260373Y0002476965D01*
G37*
D145*
X0000253996Y0002358595D03*
D130*
G36*
X0000259954Y0002358595D02*
X0000253996Y0002352637D01*
X0000248039Y0002358595D01*
X0000253996Y0002364552D01*
X0000259954Y0002358595D01*
X0000259954Y0002358595D01*
G37*
D146*
X0000256996Y0002361577D03*
X0000257368Y0002474012D03*
X0000268779Y0002485623D03*
X0000381414Y0002485823D03*
X0000393225Y0002474012D03*
X0000393425Y0002361377D03*
X0000381614Y0002349766D03*
X0000268796Y0002349995D03*
D147*
X0000244196Y0002358595D03*
D142*
X0000248425Y0002398110D03*
X0000248425Y0002417795D03*
X0000248425Y0002437480D03*
D147*
X0000244596Y0002476965D03*
D148*
X0000265796Y0002498595D03*
D143*
X0000305511Y0002494566D03*
X0000325196Y0002494566D03*
X0000344880Y0002494566D03*
D148*
X0000384396Y0002498595D03*
D147*
X0000405996Y0002476995D03*
D142*
X0000401968Y0002437480D03*
X0000401968Y0002417795D03*
X0000401968Y0002378425D03*
D147*
X0000406196Y0002358395D03*
D148*
X0000384566Y0002336995D03*
D143*
X0000364566Y0002341023D03*
X0000325196Y0002341023D03*
X0000285826Y0002341023D03*
D148*
X0000265826Y0002337124D03*
D149*
X0000339999Y0002728110D03*
D150*
X0000070000Y0001558110D03*
D151*
X0000500000Y0001637635D03*
X0000500000Y0001578582D03*
D134*
X0000629998Y0001767637D03*
X0000629998Y0001708582D03*
D140*
X0000128740Y0001703307D03*
X0000128740Y0001778110D03*
X0000050000Y0001740708D03*
D152*
X0000420000Y0001888110D03*
D153*
X0000520000Y0001888110D03*
X0000620000Y0001888110D03*
D134*
X0000192000Y0001962582D03*
X0000192000Y0002021637D03*
X0000066000Y0001962582D03*
X0000066000Y0002021637D03*
X0000252000Y0001963055D03*
X0000252000Y0002022110D03*
D140*
X0000471259Y0001778110D03*
X0000471259Y0001703307D03*
X0000550000Y0001740708D03*
D154*
X0000480033Y0002618026D03*
X0000380033Y0002618026D03*
X0000300033Y0002618026D03*
X0000200033Y0002618026D03*
D155*
X0000570000Y0002708110D03*
X0000110000Y0002708110D03*
D156*
X0000250000Y0002713110D03*
X0000430000Y0002713110D03*
D157*
X0000333370Y0001780110D03*
X0000254629Y0001780110D03*
D158*
X0000355700Y0001981110D03*
X0000355700Y0002031110D03*
X0000355700Y0002081109D03*
X0000355700Y0002131110D03*
X0000568299Y0002131110D03*
X0000568299Y0002081109D03*
X0000568299Y0002031110D03*
X0000568299Y0001981110D03*
D151*
X0000649653Y0002079637D03*
X0000649653Y0002020582D03*
D159*
X0000505181Y0002208110D03*
X0000446125Y0002208110D03*
X0000615527Y0002518110D03*
X0000556472Y0002518110D03*
X0000480472Y0002278110D03*
X0000539527Y0002278110D03*
D151*
X0000490000Y0002468582D03*
X0000490000Y0002527637D03*
D159*
X0000310472Y0002238110D03*
X0000369526Y0002238110D03*
G04 next file*
%LPD*%
G01*
D170*
X0000855174Y0000773313D02*
X0000847300Y0000784562D01*
X0000841676Y0000773313D02*
X0000841676Y0000796935D01*
X0000850674Y0000796935D01*
X0000852924Y0000795809D01*
X0000854049Y0000794686D01*
X0000855174Y0000792436D01*
X0000855174Y0000789061D01*
X0000854049Y0000786812D01*
X0000852924Y0000785686D01*
X0000850674Y0000784562D01*
X0000841676Y0000784562D01*
X0000864173Y0000774437D02*
X0000867547Y0000773313D01*
X0000873172Y0000773313D01*
X0000875421Y0000774437D01*
X0000876546Y0000775563D01*
X0000877671Y0000777813D01*
X0000877671Y0000780062D01*
X0000876546Y0000782312D01*
X0000875421Y0000783437D01*
X0000873172Y0000784562D01*
X0000868671Y0000785686D01*
X0000866422Y0000786812D01*
X0000865298Y0000787936D01*
X0000864173Y0000790186D01*
X0000864173Y0000792436D01*
X0000865298Y0000794686D01*
X0000866422Y0000795809D01*
X0000868671Y0000796935D01*
X0000874296Y0000796935D01*
X0000877671Y0000795809D01*
X0000884420Y0000796935D02*
X0000897917Y0000796935D01*
X0000891169Y0000773313D02*
X0000891169Y0000796935D01*
X0000838863Y0000896935D02*
X0000853487Y0000896935D01*
X0000845613Y0000887936D01*
X0000848987Y0000887936D01*
X0000851237Y0000886812D01*
X0000852362Y0000885686D01*
X0000853487Y0000883437D01*
X0000853487Y0000877813D01*
X0000852362Y0000875563D01*
X0000851237Y0000874438D01*
X0000848987Y0000873313D01*
X0000842238Y0000873313D01*
X0000839988Y0000874438D01*
X0000838863Y0000875563D01*
X0000860236Y0000896935D02*
X0000868110Y0000873313D01*
X0000875984Y0000896935D01*
X0000881608Y0000896935D02*
X0000896231Y0000896935D01*
X0000888356Y0000887936D01*
X0000891732Y0000887936D01*
X0000893980Y0000886812D01*
X0000895106Y0000885686D01*
X0000896231Y0000883437D01*
X0000896231Y0000877813D01*
X0000895106Y0000875563D01*
X0000893980Y0000874438D01*
X0000891732Y0000873313D01*
X0000884983Y0000873313D01*
X0000882733Y0000874438D01*
X0000881608Y0000875563D01*
X0000854049Y0000975563D02*
X0000852924Y0000974438D01*
X0000849550Y0000973313D01*
X0000847300Y0000973313D01*
X0000843925Y0000974438D01*
X0000841676Y0000976688D01*
X0000840551Y0000978938D01*
X0000839425Y0000983437D01*
X0000839425Y0000986812D01*
X0000840551Y0000991311D01*
X0000841676Y0000993561D01*
X0000843925Y0000995810D01*
X0000847300Y0000996935D01*
X0000849550Y0000996935D01*
X0000852924Y0000995810D01*
X0000854049Y0000994686D01*
X0000875421Y0000973313D02*
X0000864173Y0000973313D01*
X0000864173Y0000996935D01*
X0000883295Y0000973313D02*
X0000883295Y0000996935D01*
X0000896794Y0000973313D02*
X0000886670Y0000986812D01*
X0000896794Y0000996935D02*
X0000883295Y0000983437D01*
X0000843925Y0001073313D02*
X0000843925Y0001096935D01*
X0000849550Y0001096935D01*
X0000852924Y0001095810D01*
X0000855174Y0001093561D01*
X0000856299Y0001091311D01*
X0000857424Y0001086812D01*
X0000857424Y0001083437D01*
X0000856299Y0001078938D01*
X0000855174Y0001076688D01*
X0000852924Y0001074438D01*
X0000849550Y0001073313D01*
X0000843925Y0001073313D01*
X0000867547Y0001073313D02*
X0000867547Y0001096935D01*
X0000883295Y0001096935D02*
X0000887794Y0001096935D01*
X0000890044Y0001095810D01*
X0000892294Y0001093561D01*
X0000893419Y0001089061D01*
X0000893419Y0001081187D01*
X0000892294Y0001076688D01*
X0000890044Y0001074438D01*
X0000887794Y0001073313D01*
X0000883295Y0001073313D01*
X0000881046Y0001074438D01*
X0000878796Y0001076688D01*
X0000877671Y0001081187D01*
X0000877671Y0001089061D01*
X0000878796Y0001093561D01*
X0000881046Y0001095810D01*
X0000883295Y0001096935D01*
X0000850112Y0001195810D02*
X0000847862Y0001196935D01*
X0000844488Y0001196935D01*
X0000841113Y0001195810D01*
X0000838863Y0001193561D01*
X0000837739Y0001191311D01*
X0000836614Y0001186812D01*
X0000836614Y0001183437D01*
X0000837739Y0001178938D01*
X0000838863Y0001176688D01*
X0000841113Y0001174438D01*
X0000844488Y0001173313D01*
X0000846737Y0001173313D01*
X0000850112Y0001174438D01*
X0000851237Y0001175563D01*
X0000851237Y0001183437D01*
X0000846737Y0001183437D01*
X0000861361Y0001173313D02*
X0000861361Y0001196935D01*
X0000874859Y0001173313D01*
X0000874859Y0001196935D01*
X0000886107Y0001173313D02*
X0000886107Y0001196935D01*
X0000891732Y0001196935D01*
X0000895106Y0001195810D01*
X0000897356Y0001193561D01*
X0000898481Y0001191311D01*
X0000899606Y0001186812D01*
X0000899606Y0001183437D01*
X0000898481Y0001178938D01*
X0000897356Y0001176688D01*
X0000895106Y0001174438D01*
X0000891732Y0001173313D01*
X0000886107Y0001173313D01*
D171*
X0000972880Y0000553685D02*
X0000972880Y0000514314D01*
X0000919338Y0000514314D02*
X0000919338Y0000553685D01*
X0001151574Y0000106314D02*
X0001151574Y0000145685D01*
X0001084645Y0000145685D02*
X0001084645Y0000106314D01*
D172*
X0000883556Y0000431399D02*
G75*
G03X0000883556Y0000431399I-0000003046D01*
G01*
X0000884109Y0000623999D02*
X0001084110Y0000623999D01*
X0001084110Y0000623999D02*
X0001084110Y0000443999D01*
X0001084110Y0000443999D02*
X0000884109Y0000443999D01*
X0000884109Y0000443999D02*
X0000884109Y0000623999D01*
X0000884109Y0000563999D02*
X0000904110Y0000563999D01*
X0000904110Y0000563999D02*
X0000904110Y0000513999D01*
X0000904110Y0000513999D02*
X0000884109Y0000513999D01*
D171*
X0001008424Y0000796770D02*
X0001047795Y0000796770D01*
X0001047795Y0000743228D02*
X0001008424Y0000743228D01*
X0001448031Y0000867795D02*
X0001448031Y0000904409D01*
X0001448031Y0000992203D02*
X0001448031Y0000955589D01*
X0001448031Y0000992203D02*
X0001362992Y0000992203D01*
X0001448031Y0000867795D02*
X0001390551Y0000867795D01*
X0001058527Y0001044464D02*
X0001058527Y0001032653D01*
X0001229086Y0001046464D02*
X0001229086Y0001034653D01*
X0001231086Y0000872904D02*
X0001231086Y0000884716D01*
X0001061307Y0000889873D02*
X0001061307Y0000901685D01*
X0001229086Y0001046464D02*
X0001217275Y0001046464D01*
X0001231086Y0000872904D02*
X0001219275Y0000872904D01*
X0001058527Y0001044464D02*
X0001070338Y0001044464D01*
D172*
X0001056659Y0000869685D02*
G75*
G03X0001056659Y0000869685I-0000003352D01*
G01*
D171*
X0001341732Y0000163779D02*
X0001341732Y0000136220D01*
X0001294488Y0000136220D02*
X0001294488Y0000163779D01*
X0001421337Y0000260314D02*
X0001421337Y0000299685D01*
X0001474881Y0000299685D02*
X0001474881Y0000260314D01*
X0000877559Y0000344803D02*
X0000877559Y0000308188D01*
X0000877559Y0000220393D02*
X0000877559Y0000257007D01*
X0000877559Y0000220393D02*
X0000962598Y0000220393D01*
X0000877559Y0000344803D02*
X0000935039Y0000344803D01*
X0001036880Y0000553685D02*
X0001036880Y0000514314D01*
X0000983338Y0000514314D02*
X0000983338Y0000553685D01*
X0000910881Y0000553685D02*
X0000910881Y0000514314D01*
X0000857338Y0000514314D02*
X0000857338Y0000553685D01*
X0001096881Y0000554157D02*
X0001096881Y0000514787D01*
X0001043338Y0000514787D02*
X0001043338Y0000554157D01*
X0001358661Y0000220393D02*
X0001358661Y0000257007D01*
X0001358661Y0000344803D02*
X0001358661Y0000308188D01*
X0001358661Y0000344803D02*
X0001273622Y0000344803D01*
X0001358661Y0000220393D02*
X0001301181Y0000220393D01*
X0001092425Y0000288535D02*
X0001131795Y0000288535D01*
X0001131795Y0000355464D02*
X0001092425Y0000355464D01*
D172*
X0001361803Y0000498590D02*
X0001416921Y0000498590D01*
X0001361803Y0000699377D02*
X0001198417Y0000699377D01*
X0001361803Y0000496621D02*
X0001198417Y0000496621D01*
X0001361803Y0000699377D02*
X0001361803Y0000693669D01*
X0001198417Y0000699377D02*
X0001198417Y0000693669D01*
X0001198417Y0000496621D02*
X0001198417Y0000502330D01*
X0001361803Y0000496621D02*
X0001361803Y0000498590D01*
D171*
X0001491385Y0000605779D02*
X0001491385Y0000578220D01*
X0001444141Y0000578220D02*
X0001444141Y0000605779D01*
X0001307543Y0000726377D02*
X0001279984Y0000726377D01*
X0001279984Y0000773622D02*
X0001307543Y0000773622D01*
X0001417889Y0001036377D02*
X0001390330Y0001036377D01*
X0001390330Y0001083622D02*
X0001417889Y0001083622D01*
X0001314330Y0000843622D02*
X0001341889Y0000843622D01*
X0001341889Y0000796377D02*
X0001314330Y0000796377D01*
X0001284488Y0001026219D02*
X0001284488Y0001053779D01*
X0001331732Y0001053779D02*
X0001331732Y0001026219D01*
X0001144330Y0000803622D02*
X0001171889Y0000803622D01*
X0001171889Y0000756377D02*
X0001144330Y0000756377D01*
D173*
X0000953234Y0000531375D02*
X0000945735Y0000526125D01*
X0000953234Y0000522375D02*
X0000937486Y0000522375D01*
X0000937486Y0000528375D01*
X0000938236Y0000529875D01*
X0000938986Y0000530625D01*
X0000940485Y0000531375D01*
X0000942735Y0000531375D01*
X0000944235Y0000530625D01*
X0000944985Y0000529875D01*
X0000945735Y0000528375D01*
X0000945735Y0000522375D01*
X0000937486Y0000544873D02*
X0000937486Y0000541873D01*
X0000938236Y0000540374D01*
X0000938986Y0000539624D01*
X0000941235Y0000538124D01*
X0000944235Y0000537374D01*
X0000950234Y0000537374D01*
X0000951734Y0000538124D01*
X0000952484Y0000538874D01*
X0000953234Y0000540374D01*
X0000953234Y0000543373D01*
X0000952484Y0000544873D01*
X0000951734Y0000545623D01*
X0000950234Y0000546373D01*
X0000946485Y0000546373D01*
X0000944985Y0000545623D01*
X0000944235Y0000544873D01*
X0000943485Y0000543373D01*
X0000943485Y0000540374D01*
X0000944235Y0000538874D01*
X0000944985Y0000538124D01*
X0000946485Y0000537374D01*
X0001121734Y0000123375D02*
X0001122484Y0000122625D01*
X0001123234Y0000120375D01*
X0001123234Y0000118875D01*
X0001122484Y0000116626D01*
X0001120984Y0000115126D01*
X0001119484Y0000114376D01*
X0001116485Y0000113626D01*
X0001114235Y0000113626D01*
X0001111235Y0000114376D01*
X0001109736Y0000115126D01*
X0001108236Y0000116626D01*
X0001107486Y0000118875D01*
X0001107486Y0000120375D01*
X0001108236Y0000122625D01*
X0001108986Y0000123375D01*
X0001108986Y0000129372D02*
X0001108236Y0000130122D01*
X0001107486Y0000131624D01*
X0001107486Y0000135373D01*
X0001108236Y0000136873D01*
X0001108986Y0000137623D01*
X0001110485Y0000138373D01*
X0001111985Y0000138373D01*
X0001114235Y0000137623D01*
X0001123234Y0000128622D01*
X0001123234Y0000138373D01*
X0000850485Y0000452001D02*
X0000863234Y0000452001D01*
X0000864734Y0000452751D01*
X0000865484Y0000453501D01*
X0000866234Y0000455001D01*
X0000866234Y0000458000D01*
X0000865484Y0000459500D01*
X0000864734Y0000460250D01*
X0000863234Y0000461000D01*
X0000850485Y0000461000D01*
X0000851986Y0000467749D02*
X0000851236Y0000468499D01*
X0000850485Y0000469999D01*
X0000850485Y0000473747D01*
X0000851236Y0000475247D01*
X0000851986Y0000475998D01*
X0000853485Y0000476747D01*
X0000854985Y0000476747D01*
X0000857235Y0000475998D01*
X0000866234Y0000466999D01*
X0000866234Y0000476747D01*
X0001025485Y0000762875D02*
X0001020235Y0000770374D01*
X0001016486Y0000762875D02*
X0001016486Y0000778622D01*
X0001022485Y0000778622D01*
X0001023984Y0000777873D01*
X0001024735Y0000777124D01*
X0001025485Y0000775624D01*
X0001025485Y0000773374D01*
X0001024735Y0000771874D01*
X0001023984Y0000771124D01*
X0001022485Y0000770374D01*
X0001016486Y0000770374D01*
X0001030734Y0000778622D02*
X0001040483Y0000778622D01*
X0001035234Y0000772624D01*
X0001037484Y0000772624D01*
X0001038983Y0000771874D01*
X0001039733Y0000771124D01*
X0001040483Y0000769625D01*
X0001040483Y0000765875D01*
X0001039733Y0000764375D01*
X0001038983Y0000763625D01*
X0001037484Y0000762875D01*
X0001032983Y0000762875D01*
X0001031484Y0000763625D01*
X0001030734Y0000764375D01*
X0001460116Y0000865402D02*
X0001472864Y0000865402D01*
X0001474364Y0000866152D01*
X0001475114Y0000866901D01*
X0001475864Y0000868402D01*
X0001475864Y0000871402D01*
X0001475114Y0000872901D01*
X0001474364Y0000873652D01*
X0001472864Y0000874401D01*
X0001460116Y0000874401D01*
X0001460116Y0000880401D02*
X0001460116Y0000890149D01*
X0001466115Y0000884900D01*
X0001466115Y0000887150D01*
X0001466864Y0000888650D01*
X0001467615Y0000889400D01*
X0001469115Y0000890149D01*
X0001472864Y0000890149D01*
X0001474364Y0000889400D01*
X0001475114Y0000888650D01*
X0001475864Y0000887150D01*
X0001475864Y0000882650D01*
X0001475114Y0000881150D01*
X0001474364Y0000880401D01*
X0001004486Y0000873001D02*
X0001017234Y0000873001D01*
X0001018734Y0000873751D01*
X0001019484Y0000874501D01*
X0001020234Y0000876001D01*
X0001020234Y0000879000D01*
X0001019484Y0000880500D01*
X0001018734Y0000881250D01*
X0001017234Y0000882000D01*
X0001004486Y0000882000D01*
X0001009735Y0000896248D02*
X0001020234Y0000896248D01*
X0001003736Y0000892499D02*
X0001014985Y0000888748D01*
X0001014985Y0000898498D01*
X0001315485Y0000074375D02*
X0001314735Y0000073625D01*
X0001312485Y0000072875D01*
X0001310986Y0000072875D01*
X0001308735Y0000073625D01*
X0001307236Y0000075125D01*
X0001306486Y0000076625D01*
X0001305736Y0000079625D01*
X0001305736Y0000081874D01*
X0001306486Y0000084874D01*
X0001307236Y0000086374D01*
X0001308735Y0000087873D01*
X0001310986Y0000088623D01*
X0001312485Y0000088623D01*
X0001314735Y0000087873D01*
X0001315485Y0000087123D01*
X0001330483Y0000072875D02*
X0001321484Y0000072875D01*
X0001325983Y0000072875D02*
X0001325983Y0000088623D01*
X0001324484Y0000086374D01*
X0001322984Y0000084874D01*
X0001321484Y0000084124D01*
X0001455234Y0000277375D02*
X0001447735Y0000272125D01*
X0001455234Y0000268376D02*
X0001439486Y0000268376D01*
X0001439486Y0000274375D01*
X0001440236Y0000275875D01*
X0001440986Y0000276625D01*
X0001442485Y0000277375D01*
X0001444735Y0000277375D01*
X0001446235Y0000276625D01*
X0001446984Y0000275875D01*
X0001447735Y0000274375D01*
X0001447735Y0000268376D01*
X0001455234Y0000292373D02*
X0001455234Y0000283374D01*
X0001455234Y0000287873D02*
X0001439486Y0000287873D01*
X0001441735Y0000286374D01*
X0001443235Y0000284874D01*
X0001443985Y0000283374D01*
X0000914604Y0000273573D02*
X0000898856Y0000273573D01*
X0000898856Y0000277322D01*
X0000899606Y0000279572D01*
X0000901106Y0000281072D01*
X0000902605Y0000281822D01*
X0000905605Y0000282572D01*
X0000907855Y0000282572D01*
X0000910854Y0000281822D01*
X0000912354Y0000281072D01*
X0000913854Y0000279572D01*
X0000914604Y0000277322D01*
X0000914604Y0000273573D01*
X0000914604Y0000297570D02*
X0000914604Y0000288571D01*
X0000914604Y0000293070D02*
X0000898856Y0000293070D01*
X0000901106Y0000291571D01*
X0000902605Y0000290071D01*
X0000903355Y0000288571D01*
X0001017234Y0000531375D02*
X0001009735Y0000526125D01*
X0001017234Y0000522375D02*
X0001001486Y0000522375D01*
X0001001486Y0000528375D01*
X0001002235Y0000529875D01*
X0001002985Y0000530625D01*
X0001004485Y0000531375D01*
X0001006734Y0000531375D01*
X0001008235Y0000530625D01*
X0001008985Y0000529875D01*
X0001009735Y0000528375D01*
X0001009735Y0000522375D01*
X0001006734Y0000544873D02*
X0001017234Y0000544873D01*
X0001000736Y0000541124D02*
X0001011984Y0000537374D01*
X0001011984Y0000547123D01*
X0000891234Y0000531375D02*
X0000883735Y0000526125D01*
X0000891234Y0000522375D02*
X0000875486Y0000522375D01*
X0000875486Y0000528375D01*
X0000876236Y0000529875D01*
X0000876986Y0000530625D01*
X0000878485Y0000531375D01*
X0000880735Y0000531375D01*
X0000882235Y0000530625D01*
X0000882985Y0000529875D01*
X0000883735Y0000528375D01*
X0000883735Y0000522375D01*
X0000875486Y0000536624D02*
X0000875486Y0000547123D01*
X0000891234Y0000540374D01*
X0001077234Y0000531847D02*
X0001069735Y0000526598D01*
X0001077234Y0000522848D02*
X0001061486Y0000522848D01*
X0001061486Y0000528848D01*
X0001062236Y0000530347D01*
X0001062986Y0000531097D01*
X0001064485Y0000531847D01*
X0001066735Y0000531847D01*
X0001068235Y0000531097D01*
X0001068985Y0000530347D01*
X0001069735Y0000528848D01*
X0001069735Y0000522848D01*
X0001068235Y0000540846D02*
X0001067485Y0000539346D01*
X0001066735Y0000538596D01*
X0001065235Y0000537847D01*
X0001064485Y0000537847D01*
X0001062986Y0000538596D01*
X0001062236Y0000539346D01*
X0001061486Y0000540846D01*
X0001061486Y0000543846D01*
X0001062236Y0000545346D01*
X0001062986Y0000546095D01*
X0001064485Y0000546845D01*
X0001065235Y0000546845D01*
X0001066735Y0000546095D01*
X0001067485Y0000545346D01*
X0001068235Y0000543846D01*
X0001068235Y0000540846D01*
X0001068985Y0000539346D01*
X0001069735Y0000538596D01*
X0001071235Y0000537847D01*
X0001074234Y0000537847D01*
X0001075734Y0000538596D01*
X0001076484Y0000539346D01*
X0001077234Y0000540846D01*
X0001077234Y0000543846D01*
X0001076484Y0000545346D01*
X0001075734Y0000546095D01*
X0001074234Y0000546845D01*
X0001071235Y0000546845D01*
X0001069735Y0000546095D01*
X0001068985Y0000545346D01*
X0001068235Y0000543846D01*
X0001335864Y0000270974D02*
X0001320116Y0000270974D01*
X0001320116Y0000274724D01*
X0001320865Y0000276974D01*
X0001322365Y0000278473D01*
X0001323865Y0000279223D01*
X0001326865Y0000279973D01*
X0001329115Y0000279973D01*
X0001332114Y0000279223D01*
X0001333614Y0000278473D01*
X0001335114Y0000276974D01*
X0001335864Y0000274724D01*
X0001335864Y0000270974D01*
X0001320116Y0000285223D02*
X0001320116Y0000294971D01*
X0001326115Y0000289722D01*
X0001326115Y0000291972D01*
X0001326865Y0000293472D01*
X0001327615Y0000294221D01*
X0001329115Y0000294971D01*
X0001332864Y0000294971D01*
X0001334364Y0000294221D01*
X0001335114Y0000293472D01*
X0001335864Y0000291972D01*
X0001335864Y0000287472D01*
X0001335114Y0000285972D01*
X0001334364Y0000285223D01*
X0001109485Y0000375430D02*
X0001108735Y0000374680D01*
X0001106485Y0000373930D01*
X0001104986Y0000373930D01*
X0001102736Y0000374680D01*
X0001101236Y0000376180D01*
X0001100486Y0000377680D01*
X0001099736Y0000380680D01*
X0001099736Y0000382929D01*
X0001100486Y0000385929D01*
X0001101236Y0000387429D01*
X0001102736Y0000388929D01*
X0001104986Y0000389679D01*
X0001106485Y0000389679D01*
X0001108735Y0000388929D01*
X0001109485Y0000388179D01*
X0001114734Y0000389679D02*
X0001125233Y0000389679D01*
X0001118484Y0000373930D01*
X0001439765Y0000524623D02*
X0001439765Y0000511874D01*
X0001440515Y0000510375D01*
X0001441265Y0000509625D01*
X0001442764Y0000508874D01*
X0001445764Y0000508874D01*
X0001447264Y0000509625D01*
X0001448014Y0000510375D01*
X0001448764Y0000511874D01*
X0001448764Y0000524623D01*
X0001464512Y0000508874D02*
X0001455512Y0000508874D01*
X0001460012Y0000508874D02*
X0001460012Y0000524623D01*
X0001458512Y0000522374D01*
X0001457013Y0000520873D01*
X0001455512Y0000520124D01*
X0001515041Y0000593375D02*
X0001515791Y0000592625D01*
X0001516539Y0000590375D01*
X0001516539Y0000588875D01*
X0001515791Y0000586626D01*
X0001514291Y0000585126D01*
X0001512791Y0000584376D01*
X0001509792Y0000583626D01*
X0001507542Y0000583626D01*
X0001504542Y0000584376D01*
X0001503043Y0000585126D01*
X0001501542Y0000586626D01*
X0001500793Y0000588875D01*
X0001500793Y0000590375D01*
X0001501542Y0000592625D01*
X0001502293Y0000593375D01*
X0001500793Y0000598624D02*
X0001500793Y0000608373D01*
X0001506792Y0000603124D01*
X0001506792Y0000605373D01*
X0001507542Y0000606873D01*
X0001508292Y0000607623D01*
X0001509792Y0000608373D01*
X0001513541Y0000608373D01*
X0001515041Y0000607623D01*
X0001515791Y0000606873D01*
X0001516539Y0000605373D01*
X0001516539Y0000600874D01*
X0001515791Y0000599374D01*
X0001515041Y0000598624D01*
X0001369388Y0000751375D02*
X0001370137Y0000750625D01*
X0001370887Y0000748375D01*
X0001370887Y0000746875D01*
X0001370137Y0000744626D01*
X0001368638Y0000743126D01*
X0001367137Y0000742376D01*
X0001364138Y0000741626D01*
X0001361888Y0000741626D01*
X0001358889Y0000742376D01*
X0001357389Y0000743126D01*
X0001355888Y0000744626D01*
X0001355139Y0000746875D01*
X0001355139Y0000748375D01*
X0001355888Y0000750625D01*
X0001356639Y0000751375D01*
X0001360389Y0000764873D02*
X0001370887Y0000764873D01*
X0001354389Y0000761124D02*
X0001365638Y0000757374D01*
X0001365638Y0000767123D01*
X0001403137Y0001092375D02*
X0001402389Y0001091625D01*
X0001400139Y0001090875D01*
X0001398639Y0001090875D01*
X0001396389Y0001091625D01*
X0001394890Y0001093125D01*
X0001394140Y0001094625D01*
X0001393390Y0001097625D01*
X0001393390Y0001099874D01*
X0001394140Y0001102874D01*
X0001394890Y0001104374D01*
X0001396389Y0001105873D01*
X0001398639Y0001106623D01*
X0001400139Y0001106623D01*
X0001402389Y0001105873D01*
X0001403137Y0001105124D01*
X0001417387Y0001106623D02*
X0001409888Y0001106623D01*
X0001409137Y0001099124D01*
X0001409888Y0001099874D01*
X0001411388Y0001100624D01*
X0001415137Y0001100624D01*
X0001416637Y0001099874D01*
X0001417387Y0001099124D01*
X0001418137Y0001097625D01*
X0001418137Y0001093875D01*
X0001417387Y0001092375D01*
X0001416637Y0001091625D01*
X0001415137Y0001090875D01*
X0001411388Y0001090875D01*
X0001409888Y0001091625D01*
X0001409137Y0001092375D01*
X0001319139Y0000854375D02*
X0001318389Y0000853625D01*
X0001316139Y0000852875D01*
X0001314639Y0000852875D01*
X0001312389Y0000853625D01*
X0001310890Y0000855125D01*
X0001310139Y0000856625D01*
X0001309390Y0000859625D01*
X0001309390Y0000861874D01*
X0001310139Y0000864874D01*
X0001310890Y0000866374D01*
X0001312389Y0000867872D01*
X0001314639Y0000868623D01*
X0001316139Y0000868623D01*
X0001318389Y0000867872D01*
X0001319139Y0000867124D01*
X0001332637Y0000868623D02*
X0001329637Y0000868623D01*
X0001328137Y0000867872D01*
X0001327388Y0000867124D01*
X0001325888Y0000864874D01*
X0001325136Y0000861874D01*
X0001325136Y0000855875D01*
X0001325888Y0000854375D01*
X0001326638Y0000853625D01*
X0001328137Y0000852875D01*
X0001331136Y0000852875D01*
X0001332637Y0000853625D01*
X0001333387Y0000854375D01*
X0001334137Y0000855875D01*
X0001334137Y0000859625D01*
X0001333387Y0000861124D01*
X0001332637Y0000861874D01*
X0001331136Y0000862623D01*
X0001328137Y0000862623D01*
X0001326638Y0000861874D01*
X0001325888Y0000861124D01*
X0001325136Y0000859625D01*
X0001275388Y0001037374D02*
X0001276137Y0001036624D01*
X0001276887Y0001034375D01*
X0001276887Y0001032875D01*
X0001276137Y0001030626D01*
X0001274638Y0001029126D01*
X0001273138Y0001028376D01*
X0001270136Y0001027625D01*
X0001267888Y0001027625D01*
X0001264888Y0001028376D01*
X0001263389Y0001029126D01*
X0001261889Y0001030626D01*
X0001261139Y0001032875D01*
X0001261139Y0001034375D01*
X0001261889Y0001036624D01*
X0001262639Y0001037374D01*
X0001267888Y0001046373D02*
X0001267139Y0001044874D01*
X0001266389Y0001044124D01*
X0001264888Y0001043374D01*
X0001264139Y0001043374D01*
X0001262639Y0001044124D01*
X0001261889Y0001044874D01*
X0001261139Y0001046373D01*
X0001261139Y0001049373D01*
X0001261889Y0001050873D01*
X0001262639Y0001051623D01*
X0001264139Y0001052373D01*
X0001264888Y0001052373D01*
X0001266389Y0001051623D01*
X0001267139Y0001050873D01*
X0001267888Y0001049373D01*
X0001267888Y0001046373D01*
X0001268638Y0001044874D01*
X0001269388Y0001044124D01*
X0001270888Y0001043374D01*
X0001273888Y0001043374D01*
X0001275388Y0001044124D01*
X0001276137Y0001044874D01*
X0001276887Y0001046373D01*
X0001276887Y0001049373D01*
X0001276137Y0001050873D01*
X0001275388Y0001051623D01*
X0001273888Y0001052373D01*
X0001270888Y0001052373D01*
X0001269388Y0001051623D01*
X0001268638Y0001050873D01*
X0001267888Y0001049373D01*
X0001151139Y0000810375D02*
X0001150389Y0000809625D01*
X0001148139Y0000808875D01*
X0001146639Y0000808875D01*
X0001144389Y0000809625D01*
X0001142890Y0000811125D01*
X0001142140Y0000812625D01*
X0001141390Y0000815625D01*
X0001141390Y0000817874D01*
X0001142140Y0000820874D01*
X0001142890Y0000822374D01*
X0001144389Y0000823873D01*
X0001146639Y0000824623D01*
X0001148139Y0000824623D01*
X0001150389Y0000823873D01*
X0001151139Y0000823123D01*
X0001158638Y0000808875D02*
X0001161637Y0000808875D01*
X0001163137Y0000809625D01*
X0001163887Y0000810375D01*
X0001165387Y0000812625D01*
X0001166137Y0000815625D01*
X0001166137Y0000821624D01*
X0001165387Y0000823123D01*
X0001164637Y0000823873D01*
X0001163137Y0000824623D01*
X0001160137Y0000824623D01*
X0001158638Y0000823873D01*
X0001157888Y0000823123D01*
X0001157138Y0000821624D01*
X0001157138Y0000817874D01*
X0001157888Y0000816374D01*
X0001158638Y0000815625D01*
X0001160137Y0000814875D01*
X0001163137Y0000814875D01*
X0001164637Y0000815625D01*
X0001165387Y0000816374D01*
X0001166137Y0000817874D01*
%LPC*%
D174*
X0000946110Y0000504472D03*
X0000946110Y0000563527D03*
D175*
X0001414960Y0000109999D03*
D176*
X0001218110Y0000109999D03*
X0001021258Y0000109999D03*
D177*
X0001118110Y0000165370D03*
X0001118110Y0000086629D03*
D178*
X0000909110Y0000632425D03*
X0000959110Y0000632425D03*
X0001009110Y0000632425D03*
X0001059110Y0000632425D03*
X0001059110Y0000435574D03*
X0001009110Y0000435574D03*
X0000959110Y0000435574D03*
X0000909110Y0000435574D03*
D179*
X0001057637Y0000769999D03*
X0000998582Y0000769999D03*
D180*
X0001378740Y0000967401D03*
X0001378740Y0000892598D03*
X0001457480Y0000929999D03*
D181*
X0000878109Y0000733999D03*
X0000878109Y0001033998D03*
X0000878109Y0000933999D03*
X0000878109Y0001133999D03*
X0000878109Y0000833999D03*
D182*
X0001066535Y0000999055D03*
D183*
X0001103937Y0001036456D03*
X0001182677Y0001036456D03*
D182*
X0001220078Y0000999055D03*
X0001066535Y0000920314D03*
X0001220078Y0000939999D03*
D183*
X0001162992Y0000882913D03*
X0001123622Y0000882913D03*
D184*
X0001088188Y0000904566D03*
X0001088188Y0001014802D03*
X0001198425Y0001014802D03*
X0001198425Y0000904566D03*
D185*
X0001202477Y0001030666D03*
D170*
G36*
X0001208434Y0001030666D02*
X0001202477Y0001024708D01*
X0001196519Y0001030666D01*
X0001202477Y0001036623D01*
X0001208434Y0001030666D01*
X0001208434Y0001030666D01*
G37*
D185*
X0001202677Y0000888703D03*
D170*
G36*
X0001208634Y0000888703D02*
X0001202677Y0000882746D01*
X0001196719Y0000888703D01*
X0001202677Y0000894661D01*
X0001208634Y0000888703D01*
X0001208634Y0000888703D01*
G37*
D185*
X0001083937Y0001030466D03*
D170*
G36*
X0001089894Y0001030466D02*
X0001083937Y0001024508D01*
X0001077979Y0001030466D01*
X0001083937Y0001036423D01*
X0001089894Y0001030466D01*
X0001089894Y0001030466D01*
G37*
D185*
X0001083907Y0000888885D03*
D170*
G36*
X0001089864Y0000888885D02*
X0001083907Y0000882927D01*
X0001077949Y0000888885D01*
X0001083907Y0000894841D01*
X0001089864Y0000888885D01*
X0001089864Y0000888885D01*
G37*
D185*
X0001214288Y0001018855D03*
D170*
G36*
X0001220245Y0001018855D02*
X0001214288Y0001012896D01*
X0001208330Y0001018855D01*
X0001214288Y0001024812D01*
X0001220245Y0001018855D01*
X0001220245Y0001018855D01*
G37*
D185*
X0001214488Y0000900314D03*
D170*
G36*
X0001220445Y0000900314D02*
X0001214488Y0000894356D01*
X0001208530Y0000900314D01*
X0001214488Y0000906272D01*
X0001220445Y0000900314D01*
X0001220445Y0000900314D01*
G37*
D185*
X0001072525Y0001018855D03*
D170*
G36*
X0001078483Y0001018855D02*
X0001072525Y0001012896D01*
X0001066568Y0001018855D01*
X0001072525Y0001024812D01*
X0001078483Y0001018855D01*
X0001078483Y0001018855D01*
G37*
D185*
X0001072107Y0000900485D03*
D170*
G36*
X0001078064Y0000900485D02*
X0001072107Y0000894527D01*
X0001066149Y0000900485D01*
X0001072107Y0000906442D01*
X0001078064Y0000900485D01*
X0001078064Y0000900485D01*
G37*
D186*
X0001075107Y0000903467D03*
X0001075478Y0001015902D03*
X0001086889Y0001027512D03*
X0001199524Y0001027713D03*
X0001211335Y0001015902D03*
X0001211535Y0000903266D03*
X0001199724Y0000891656D03*
X0001086907Y0000891885D03*
D187*
X0001062307Y0000900485D03*
D182*
X0001066535Y0000939999D03*
X0001066535Y0000959685D03*
X0001066535Y0000979370D03*
D187*
X0001062707Y0001018855D03*
D188*
X0001083907Y0001040484D03*
D183*
X0001123622Y0001036456D03*
X0001143307Y0001036456D03*
X0001162992Y0001036456D03*
D188*
X0001202507Y0001040484D03*
D187*
X0001224107Y0001018885D03*
D182*
X0001220078Y0000979370D03*
X0001220078Y0000959685D03*
X0001220078Y0000920314D03*
D187*
X0001224307Y0000900285D03*
D188*
X0001202677Y0000878885D03*
D183*
X0001182677Y0000882913D03*
X0001143307Y0000882913D03*
X0001103937Y0000882913D03*
D188*
X0001083937Y0000879014D03*
D189*
X0001158110Y0001269999D03*
D190*
X0000888110Y0000099999D03*
D191*
X0001318110Y0000179527D03*
X0001318110Y0000120472D03*
D174*
X0001448110Y0000309527D03*
X0001448110Y0000250471D03*
D180*
X0000946850Y0000245196D03*
X0000946850Y0000319998D03*
X0000868110Y0000282598D03*
D192*
X0001238110Y0000429999D03*
D193*
X0001338110Y0000429999D03*
X0001438110Y0000429999D03*
D174*
X0001010110Y0000504472D03*
X0001010110Y0000563527D03*
X0000884109Y0000504472D03*
X0000884109Y0000563527D03*
X0001070110Y0000504943D03*
X0001070110Y0000563999D03*
D180*
X0001289370Y0000319998D03*
X0001289370Y0000245196D03*
X0001368110Y0000282598D03*
D194*
X0001298144Y0001159916D03*
X0001198144Y0001159916D03*
X0001118144Y0001159916D03*
X0001018143Y0001159916D03*
D195*
X0001388110Y0001249999D03*
X0000928110Y0001249999D03*
D196*
X0001068110Y0001254999D03*
X0001248110Y0001254999D03*
D197*
X0001151480Y0000321999D03*
X0001072740Y0000321999D03*
D198*
X0001173811Y0000522999D03*
X0001173811Y0000572999D03*
X0001173811Y0000622999D03*
X0001173811Y0000672999D03*
X0001386409Y0000672999D03*
X0001386409Y0000622999D03*
X0001386409Y0000572999D03*
X0001386409Y0000522999D03*
D191*
X0001467763Y0000621527D03*
X0001467763Y0000562472D03*
D199*
X0001323290Y0000749999D03*
X0001264236Y0000749999D03*
X0001433637Y0001059999D03*
X0001374582Y0001059999D03*
X0001298581Y0000819999D03*
X0001357637Y0000819999D03*
D191*
X0001308110Y0001010472D03*
X0001308110Y0001069527D03*
D199*
X0001128582Y0000779999D03*
X0001187637Y0000779999D03*
G04 next file*
%LPD*%
G04 #@! TF.GenerationSoftware,KiCad,Pcbnew,(2018-02-16 revision c95340fba)-makepkg*
G04 #@! TF.CreationDate,2018-05-25T20:47:33+02:00*
G04 #@! TF.ProjectId,LIN_USB_CONVERTER,4C494E5F5553425F434F4E5645525445,rev?*
G04 #@! TF.SameCoordinates,PX85b9e30PY4aad300*
G04 #@! TF.FileFunction,Legend,Top*
G04 #@! TF.FilePolarity,Positive*
G04 Gerber Fmt 4.6, Leading zero omitted, Abs format (unit mm)*
G04 Created by KiCad (PCBNEW (2018-02-16 revision c95340fba)-makepkg) date 05/25/18 20:47:33*
G01*
G04 APERTURE LIST*
G04 APERTURE END LIST*
D210*
X0001673284Y0000773313D02*
X0001665410Y0000784562D01*
X0001659786Y0000773313D02*
X0001659786Y0000796935D01*
X0001668785Y0000796935D01*
X0001671033Y0000795809D01*
X0001672159Y0000794686D01*
X0001673284Y0000792436D01*
X0001673284Y0000789061D01*
X0001672159Y0000786812D01*
X0001671033Y0000785686D01*
X0001668785Y0000784562D01*
X0001659786Y0000784562D01*
X0001682281Y0000774437D02*
X0001685658Y0000773313D01*
X0001691282Y0000773313D01*
X0001693532Y0000774437D01*
X0001694656Y0000775563D01*
X0001695781Y0000777813D01*
X0001695781Y0000780062D01*
X0001694656Y0000782312D01*
X0001693532Y0000783437D01*
X0001691282Y0000784562D01*
X0001686782Y0000785686D01*
X0001684533Y0000786812D01*
X0001683408Y0000787936D01*
X0001682281Y0000790186D01*
X0001682281Y0000792436D01*
X0001683408Y0000794686D01*
X0001684533Y0000795809D01*
X0001686782Y0000796935D01*
X0001692407Y0000796935D01*
X0001695781Y0000795809D01*
X0001702530Y0000796935D02*
X0001716029Y0000796935D01*
X0001709279Y0000773313D02*
X0001709279Y0000796935D01*
X0001656972Y0000896935D02*
X0001671597Y0000896935D01*
X0001663723Y0000887936D01*
X0001667097Y0000887936D01*
X0001669347Y0000886812D01*
X0001670472Y0000885686D01*
X0001671597Y0000883437D01*
X0001671597Y0000877813D01*
X0001670472Y0000875563D01*
X0001669347Y0000874438D01*
X0001667097Y0000873313D01*
X0001660348Y0000873313D01*
X0001658099Y0000874438D01*
X0001656972Y0000875563D01*
X0001678346Y0000896935D02*
X0001686220Y0000873313D01*
X0001694094Y0000896935D01*
X0001699718Y0000896935D02*
X0001714341Y0000896935D01*
X0001706467Y0000887936D01*
X0001709842Y0000887936D01*
X0001712092Y0000886812D01*
X0001713217Y0000885686D01*
X0001714341Y0000883437D01*
X0001714341Y0000877813D01*
X0001713217Y0000875563D01*
X0001712092Y0000874438D01*
X0001709842Y0000873313D01*
X0001703093Y0000873313D01*
X0001700843Y0000874438D01*
X0001699718Y0000875563D01*
X0001672159Y0000975563D02*
X0001671033Y0000974438D01*
X0001667660Y0000973313D01*
X0001665410Y0000973313D01*
X0001662035Y0000974438D01*
X0001659786Y0000976688D01*
X0001658661Y0000978938D01*
X0001657536Y0000983437D01*
X0001657536Y0000986812D01*
X0001658661Y0000991311D01*
X0001659786Y0000993561D01*
X0001662035Y0000995810D01*
X0001665410Y0000996935D01*
X0001667660Y0000996935D01*
X0001671033Y0000995810D01*
X0001672159Y0000994686D01*
X0001693532Y0000973313D02*
X0001682281Y0000973313D01*
X0001682281Y0000996935D01*
X0001701404Y0000973313D02*
X0001701404Y0000996935D01*
X0001714904Y0000973313D02*
X0001704780Y0000986812D01*
X0001714904Y0000996935D02*
X0001701404Y0000983437D01*
X0001662035Y0001073313D02*
X0001662035Y0001096935D01*
X0001667660Y0001096935D01*
X0001671033Y0001095810D01*
X0001673284Y0001093561D01*
X0001674409Y0001091311D01*
X0001675534Y0001086812D01*
X0001675534Y0001083437D01*
X0001674409Y0001078938D01*
X0001673284Y0001076688D01*
X0001671033Y0001074438D01*
X0001667660Y0001073313D01*
X0001662035Y0001073313D01*
X0001685658Y0001073313D02*
X0001685658Y0001096935D01*
X0001701404Y0001096935D02*
X0001705905Y0001096935D01*
X0001708155Y0001095810D01*
X0001710404Y0001093561D01*
X0001711529Y0001089061D01*
X0001711529Y0001081187D01*
X0001710404Y0001076688D01*
X0001708155Y0001074438D01*
X0001705905Y0001073313D01*
X0001701404Y0001073313D01*
X0001699156Y0001074438D01*
X0001696906Y0001076688D01*
X0001695781Y0001081187D01*
X0001695781Y0001089061D01*
X0001696906Y0001093561D01*
X0001699156Y0001095810D01*
X0001701404Y0001096935D01*
X0001668221Y0001195810D02*
X0001665973Y0001196935D01*
X0001662598Y0001196935D01*
X0001659223Y0001195810D01*
X0001656972Y0001193561D01*
X0001655849Y0001191311D01*
X0001654724Y0001186812D01*
X0001654724Y0001183437D01*
X0001655849Y0001178938D01*
X0001656972Y0001176688D01*
X0001659223Y0001174438D01*
X0001662598Y0001173313D01*
X0001664848Y0001173313D01*
X0001668221Y0001174438D01*
X0001669347Y0001175563D01*
X0001669347Y0001183437D01*
X0001664848Y0001183437D01*
X0001679471Y0001173313D02*
X0001679471Y0001196935D01*
X0001692969Y0001173313D01*
X0001692969Y0001196935D01*
X0001704218Y0001173313D02*
X0001704218Y0001196935D01*
X0001709842Y0001196935D01*
X0001713217Y0001195810D01*
X0001715465Y0001193561D01*
X0001716591Y0001191311D01*
X0001717716Y0001186812D01*
X0001717716Y0001183437D01*
X0001716591Y0001178938D01*
X0001715465Y0001176688D01*
X0001713217Y0001174438D01*
X0001709842Y0001173313D01*
X0001704218Y0001173313D01*
D211*
X0001790992Y0000553685D02*
X0001790992Y0000514314D01*
X0001737448Y0000514314D02*
X0001737448Y0000553685D01*
X0001969685Y0000106314D02*
X0001969685Y0000145685D01*
X0001902755Y0000145685D02*
X0001902755Y0000106314D01*
D212*
X0001701666Y0000431399D02*
G75*
G03X0001701666Y0000431399I-0000003046D01*
G01*
X0001702220Y0000623999D02*
X0001902220Y0000623999D01*
X0001902220Y0000623999D02*
X0001902220Y0000443999D01*
X0001902220Y0000443999D02*
X0001702220Y0000443999D01*
X0001702220Y0000443999D02*
X0001702220Y0000623999D01*
X0001702220Y0000563999D02*
X0001722220Y0000563999D01*
X0001722220Y0000563999D02*
X0001722220Y0000513999D01*
X0001722220Y0000513999D02*
X0001702220Y0000513999D01*
D211*
X0001826535Y0000796770D02*
X0001865905Y0000796770D01*
X0001865905Y0000743228D02*
X0001826535Y0000743228D01*
X0002266141Y0000867795D02*
X0002266141Y0000904409D01*
X0002266141Y0000992203D02*
X0002266141Y0000955589D01*
X0002266141Y0000992203D02*
X0002181102Y0000992203D01*
X0002266141Y0000867795D02*
X0002208661Y0000867795D01*
X0001876637Y0001044464D02*
X0001876637Y0001032653D01*
X0002047196Y0001046464D02*
X0002047196Y0001034653D01*
X0002049195Y0000872904D02*
X0002049195Y0000884716D01*
X0001879417Y0000889873D02*
X0001879417Y0000901685D01*
X0002047196Y0001046464D02*
X0002035385Y0001046464D01*
X0002049195Y0000872904D02*
X0002037385Y0000872904D01*
X0001876637Y0001044464D02*
X0001888448Y0001044464D01*
D212*
X0001874769Y0000869685D02*
G75*
G03X0001874769Y0000869685I-0000003352D01*
G01*
D211*
X0002159842Y0000163779D02*
X0002159842Y0000136220D01*
X0002112598Y0000136220D02*
X0002112598Y0000163779D01*
X0002239448Y0000260314D02*
X0002239448Y0000299685D01*
X0002292992Y0000299685D02*
X0002292992Y0000260314D01*
X0001695669Y0000344803D02*
X0001695669Y0000308188D01*
X0001695669Y0000220393D02*
X0001695669Y0000257007D01*
X0001695669Y0000220393D02*
X0001780708Y0000220393D01*
X0001695669Y0000344803D02*
X0001753149Y0000344803D01*
X0001854992Y0000553685D02*
X0001854992Y0000514314D01*
X0001801448Y0000514314D02*
X0001801448Y0000553685D01*
X0001728992Y0000553685D02*
X0001728992Y0000514314D01*
X0001675448Y0000514314D02*
X0001675448Y0000553685D01*
X0001914992Y0000554157D02*
X0001914992Y0000514787D01*
X0001861448Y0000514787D02*
X0001861448Y0000554157D01*
X0002176771Y0000220393D02*
X0002176771Y0000257007D01*
X0002176771Y0000344803D02*
X0002176771Y0000308188D01*
X0002176771Y0000344803D02*
X0002091732Y0000344803D01*
X0002176771Y0000220393D02*
X0002119291Y0000220393D01*
X0001910535Y0000288535D02*
X0001949905Y0000288535D01*
X0001949905Y0000355464D02*
X0001910535Y0000355464D01*
D212*
X0002179913Y0000498590D02*
X0002235031Y0000498590D01*
X0002179913Y0000699377D02*
X0002016527Y0000699377D01*
X0002179913Y0000496621D02*
X0002016527Y0000496621D01*
X0002179913Y0000699377D02*
X0002179913Y0000693669D01*
X0002016527Y0000699377D02*
X0002016527Y0000693669D01*
X0002016527Y0000496621D02*
X0002016527Y0000502330D01*
X0002179913Y0000496621D02*
X0002179913Y0000498590D01*
D211*
X0002309496Y0000605779D02*
X0002309496Y0000578220D01*
X0002262252Y0000578220D02*
X0002262252Y0000605779D01*
X0002125653Y0000726377D02*
X0002098094Y0000726377D01*
X0002098094Y0000773622D02*
X0002125653Y0000773622D01*
X0002236000Y0001036377D02*
X0002208440Y0001036377D01*
X0002208440Y0001083622D02*
X0002236000Y0001083622D01*
X0002132440Y0000843622D02*
X0002160000Y0000843622D01*
X0002160000Y0000796377D02*
X0002132440Y0000796377D01*
X0002102598Y0001026219D02*
X0002102598Y0001053779D01*
X0002149842Y0001053779D02*
X0002149842Y0001026219D01*
X0001962439Y0000803622D02*
X0001990000Y0000803622D01*
X0001990000Y0000756377D02*
X0001962439Y0000756377D01*
D213*
X0001771344Y0000531375D02*
X0001763845Y0000526125D01*
X0001771344Y0000522375D02*
X0001755596Y0000522375D01*
X0001755596Y0000528375D01*
X0001756346Y0000529875D01*
X0001757096Y0000530625D01*
X0001758596Y0000531375D01*
X0001760845Y0000531375D01*
X0001762345Y0000530625D01*
X0001763095Y0000529875D01*
X0001763845Y0000528375D01*
X0001763845Y0000522375D01*
X0001755596Y0000544873D02*
X0001755596Y0000541873D01*
X0001756346Y0000540374D01*
X0001757096Y0000539624D01*
X0001759345Y0000538124D01*
X0001762345Y0000537374D01*
X0001768342Y0000537374D01*
X0001769844Y0000538124D01*
X0001770594Y0000538874D01*
X0001771344Y0000540374D01*
X0001771344Y0000543373D01*
X0001770594Y0000544873D01*
X0001769844Y0000545623D01*
X0001768342Y0000546373D01*
X0001764595Y0000546373D01*
X0001763095Y0000545623D01*
X0001762345Y0000544873D01*
X0001761595Y0000543373D01*
X0001761595Y0000540374D01*
X0001762345Y0000538874D01*
X0001763095Y0000538124D01*
X0001764595Y0000537374D01*
X0001939844Y0000123375D02*
X0001940594Y0000122625D01*
X0001941344Y0000120375D01*
X0001941344Y0000118875D01*
X0001940594Y0000116626D01*
X0001939094Y0000115126D01*
X0001937595Y0000114376D01*
X0001934594Y0000113626D01*
X0001932345Y0000113626D01*
X0001929345Y0000114376D01*
X0001927846Y0000115126D01*
X0001926346Y0000116626D01*
X0001925596Y0000118875D01*
X0001925596Y0000120375D01*
X0001926346Y0000122625D01*
X0001927096Y0000123375D01*
X0001927096Y0000129372D02*
X0001926346Y0000130122D01*
X0001925596Y0000131624D01*
X0001925596Y0000135373D01*
X0001926346Y0000136873D01*
X0001927096Y0000137623D01*
X0001928596Y0000138373D01*
X0001930096Y0000138373D01*
X0001932345Y0000137623D01*
X0001941344Y0000128622D01*
X0001941344Y0000138373D01*
X0001668596Y0000452001D02*
X0001681344Y0000452001D01*
X0001682844Y0000452751D01*
X0001683594Y0000453501D01*
X0001684344Y0000455001D01*
X0001684344Y0000458000D01*
X0001683594Y0000459500D01*
X0001682844Y0000460250D01*
X0001681344Y0000461000D01*
X0001668596Y0000461000D01*
X0001670095Y0000467749D02*
X0001669346Y0000468499D01*
X0001668596Y0000469999D01*
X0001668596Y0000473747D01*
X0001669346Y0000475247D01*
X0001670095Y0000475998D01*
X0001671596Y0000476747D01*
X0001673096Y0000476747D01*
X0001675344Y0000475998D01*
X0001684344Y0000466999D01*
X0001684344Y0000476747D01*
X0001843594Y0000762875D02*
X0001838345Y0000770374D01*
X0001834596Y0000762875D02*
X0001834596Y0000778622D01*
X0001840596Y0000778622D01*
X0001842096Y0000777873D01*
X0001842845Y0000777124D01*
X0001843594Y0000775624D01*
X0001843594Y0000773374D01*
X0001842845Y0000771874D01*
X0001842096Y0000771124D01*
X0001840596Y0000770374D01*
X0001834596Y0000770374D01*
X0001848845Y0000778622D02*
X0001858591Y0000778622D01*
X0001853344Y0000772624D01*
X0001855594Y0000772624D01*
X0001857094Y0000771874D01*
X0001857844Y0000771124D01*
X0001858591Y0000769625D01*
X0001858591Y0000765875D01*
X0001857844Y0000764375D01*
X0001857094Y0000763625D01*
X0001855594Y0000762875D01*
X0001851094Y0000762875D01*
X0001849594Y0000763625D01*
X0001848845Y0000764375D01*
X0002278226Y0000865402D02*
X0002290974Y0000865402D01*
X0002292474Y0000866152D01*
X0002293224Y0000866901D01*
X0002293974Y0000868402D01*
X0002293974Y0000871402D01*
X0002293224Y0000872901D01*
X0002292474Y0000873652D01*
X0002290974Y0000874401D01*
X0002278226Y0000874401D01*
X0002278226Y0000880401D02*
X0002278226Y0000890149D01*
X0002284225Y0000884900D01*
X0002284225Y0000887150D01*
X0002284975Y0000888650D01*
X0002285725Y0000889400D01*
X0002287225Y0000890149D01*
X0002290974Y0000890149D01*
X0002292474Y0000889400D01*
X0002293224Y0000888650D01*
X0002293974Y0000887150D01*
X0002293974Y0000882650D01*
X0002293224Y0000881150D01*
X0002292474Y0000880401D01*
X0001822596Y0000873001D02*
X0001835344Y0000873001D01*
X0001836844Y0000873751D01*
X0001837594Y0000874501D01*
X0001838344Y0000876001D01*
X0001838344Y0000879000D01*
X0001837594Y0000880500D01*
X0001836844Y0000881250D01*
X0001835344Y0000882000D01*
X0001822596Y0000882000D01*
X0001827845Y0000896248D02*
X0001838344Y0000896248D01*
X0001821846Y0000892499D02*
X0001833095Y0000888748D01*
X0001833095Y0000898498D01*
X0002133595Y0000074375D02*
X0002132845Y0000073625D01*
X0002130596Y0000072875D01*
X0002129096Y0000072875D01*
X0002126846Y0000073625D01*
X0002125346Y0000075125D01*
X0002124596Y0000076625D01*
X0002123847Y0000079625D01*
X0002123847Y0000081874D01*
X0002124596Y0000084874D01*
X0002125346Y0000086374D01*
X0002126846Y0000087873D01*
X0002129096Y0000088623D01*
X0002130596Y0000088623D01*
X0002132845Y0000087873D01*
X0002133595Y0000087123D01*
X0002148593Y0000072875D02*
X0002139595Y0000072875D01*
X0002144094Y0000072875D02*
X0002144094Y0000088623D01*
X0002142594Y0000086374D01*
X0002141094Y0000084874D01*
X0002139595Y0000084124D01*
X0002273344Y0000277375D02*
X0002265845Y0000272125D01*
X0002273344Y0000268376D02*
X0002257596Y0000268376D01*
X0002257596Y0000274375D01*
X0002258346Y0000275875D01*
X0002259096Y0000276625D01*
X0002260596Y0000277375D01*
X0002262845Y0000277375D01*
X0002264345Y0000276625D01*
X0002265095Y0000275875D01*
X0002265845Y0000274375D01*
X0002265845Y0000268376D01*
X0002273344Y0000292373D02*
X0002273344Y0000283374D01*
X0002273344Y0000287873D02*
X0002257596Y0000287873D01*
X0002259846Y0000286374D01*
X0002261346Y0000284874D01*
X0002262096Y0000283374D01*
X0001732713Y0000273573D02*
X0001716966Y0000273573D01*
X0001716966Y0000277322D01*
X0001717716Y0000279572D01*
X0001719216Y0000281072D01*
X0001720716Y0000281822D01*
X0001723715Y0000282572D01*
X0001725965Y0000282572D01*
X0001728965Y0000281822D01*
X0001730464Y0000281072D01*
X0001731964Y0000279572D01*
X0001732713Y0000277322D01*
X0001732713Y0000273573D01*
X0001732713Y0000297570D02*
X0001732713Y0000288571D01*
X0001732713Y0000293070D02*
X0001716966Y0000293070D01*
X0001719216Y0000291571D01*
X0001720716Y0000290071D01*
X0001721465Y0000288571D01*
X0001835344Y0000531375D02*
X0001827845Y0000526125D01*
X0001835344Y0000522375D02*
X0001819596Y0000522375D01*
X0001819596Y0000528375D01*
X0001820345Y0000529875D01*
X0001821096Y0000530625D01*
X0001822596Y0000531375D01*
X0001824845Y0000531375D01*
X0001826345Y0000530625D01*
X0001827095Y0000529875D01*
X0001827845Y0000528375D01*
X0001827845Y0000522375D01*
X0001824845Y0000544873D02*
X0001835344Y0000544873D01*
X0001818846Y0000541124D02*
X0001830095Y0000537374D01*
X0001830095Y0000547123D01*
X0001709344Y0000531375D02*
X0001701845Y0000526125D01*
X0001709344Y0000522375D02*
X0001693596Y0000522375D01*
X0001693596Y0000528375D01*
X0001694346Y0000529875D01*
X0001695095Y0000530625D01*
X0001696596Y0000531375D01*
X0001698845Y0000531375D01*
X0001700343Y0000530625D01*
X0001701095Y0000529875D01*
X0001701845Y0000528375D01*
X0001701845Y0000522375D01*
X0001693596Y0000536624D02*
X0001693596Y0000547123D01*
X0001709344Y0000540374D01*
X0001895343Y0000531847D02*
X0001887845Y0000526598D01*
X0001895343Y0000522848D02*
X0001879595Y0000522848D01*
X0001879595Y0000528848D01*
X0001880346Y0000530347D01*
X0001881096Y0000531097D01*
X0001882596Y0000531847D01*
X0001884845Y0000531847D01*
X0001886345Y0000531097D01*
X0001887095Y0000530347D01*
X0001887845Y0000528848D01*
X0001887845Y0000522848D01*
X0001886345Y0000540846D02*
X0001885595Y0000539346D01*
X0001884845Y0000538596D01*
X0001883346Y0000537847D01*
X0001882596Y0000537847D01*
X0001881096Y0000538596D01*
X0001880346Y0000539346D01*
X0001879595Y0000540846D01*
X0001879595Y0000543846D01*
X0001880346Y0000545346D01*
X0001881096Y0000546095D01*
X0001882596Y0000546845D01*
X0001883346Y0000546845D01*
X0001884845Y0000546095D01*
X0001885595Y0000545346D01*
X0001886345Y0000543846D01*
X0001886345Y0000540846D01*
X0001887095Y0000539346D01*
X0001887845Y0000538596D01*
X0001889345Y0000537847D01*
X0001892344Y0000537847D01*
X0001893844Y0000538596D01*
X0001894594Y0000539346D01*
X0001895343Y0000540846D01*
X0001895343Y0000543846D01*
X0001894594Y0000545346D01*
X0001893844Y0000546095D01*
X0001892344Y0000546845D01*
X0001889345Y0000546845D01*
X0001887845Y0000546095D01*
X0001887095Y0000545346D01*
X0001886345Y0000543846D01*
X0002153974Y0000270974D02*
X0002138226Y0000270974D01*
X0002138226Y0000274724D01*
X0002138976Y0000276974D01*
X0002140476Y0000278473D01*
X0002141976Y0000279223D01*
X0002144975Y0000279973D01*
X0002147225Y0000279973D01*
X0002150225Y0000279223D01*
X0002151724Y0000278473D01*
X0002153224Y0000276974D01*
X0002153974Y0000274724D01*
X0002153974Y0000270974D01*
X0002138226Y0000285223D02*
X0002138226Y0000294971D01*
X0002144225Y0000289722D01*
X0002144225Y0000291972D01*
X0002144975Y0000293472D01*
X0002145725Y0000294221D01*
X0002147225Y0000294971D01*
X0002150974Y0000294971D01*
X0002152474Y0000294221D01*
X0002153224Y0000293472D01*
X0002153974Y0000291972D01*
X0002153974Y0000287472D01*
X0002153224Y0000285972D01*
X0002152474Y0000285223D01*
X0001927595Y0000375430D02*
X0001926845Y0000374680D01*
X0001924596Y0000373930D01*
X0001923096Y0000373930D01*
X0001920846Y0000374680D01*
X0001919346Y0000376180D01*
X0001918596Y0000377680D01*
X0001917847Y0000380680D01*
X0001917847Y0000382929D01*
X0001918596Y0000385929D01*
X0001919346Y0000387429D01*
X0001920846Y0000388929D01*
X0001923096Y0000389679D01*
X0001924596Y0000389679D01*
X0001926845Y0000388929D01*
X0001927595Y0000388179D01*
X0001932845Y0000389679D02*
X0001943343Y0000389679D01*
X0001936592Y0000373930D01*
X0002257875Y0000524623D02*
X0002257875Y0000511874D01*
X0002258625Y0000510375D01*
X0002259375Y0000509625D01*
X0002260875Y0000508874D01*
X0002263874Y0000508874D01*
X0002265374Y0000509625D01*
X0002266124Y0000510375D01*
X0002266874Y0000511874D01*
X0002266874Y0000524623D01*
X0002282622Y0000508874D02*
X0002273623Y0000508874D01*
X0002278122Y0000508874D02*
X0002278122Y0000524623D01*
X0002276623Y0000522374D01*
X0002275123Y0000520873D01*
X0002273623Y0000520124D01*
X0002333151Y0000593375D02*
X0002333901Y0000592625D01*
X0002334651Y0000590375D01*
X0002334651Y0000588875D01*
X0002333901Y0000586626D01*
X0002332401Y0000585126D01*
X0002330902Y0000584376D01*
X0002327902Y0000583626D01*
X0002325652Y0000583626D01*
X0002322653Y0000584376D01*
X0002321153Y0000585126D01*
X0002319653Y0000586626D01*
X0002318903Y0000588875D01*
X0002318903Y0000590375D01*
X0002319653Y0000592625D01*
X0002320403Y0000593375D01*
X0002318903Y0000598624D02*
X0002318903Y0000608373D01*
X0002324902Y0000603124D01*
X0002324902Y0000605373D01*
X0002325652Y0000606873D01*
X0002326402Y0000607623D01*
X0002327902Y0000608373D01*
X0002331652Y0000608373D01*
X0002333151Y0000607623D01*
X0002333901Y0000606873D01*
X0002334651Y0000605373D01*
X0002334651Y0000600874D01*
X0002333901Y0000599374D01*
X0002333151Y0000598624D01*
X0002187498Y0000751375D02*
X0002188248Y0000750625D01*
X0002188998Y0000748375D01*
X0002188998Y0000746875D01*
X0002188248Y0000744626D01*
X0002186748Y0000743126D01*
X0002185248Y0000742376D01*
X0002182248Y0000741626D01*
X0002179999Y0000741626D01*
X0002176999Y0000742376D01*
X0002175499Y0000743126D01*
X0002174000Y0000744626D01*
X0002173250Y0000746875D01*
X0002173250Y0000748375D01*
X0002174000Y0000750625D01*
X0002174749Y0000751375D01*
X0002178499Y0000764873D02*
X0002188998Y0000764873D01*
X0002172500Y0000761124D02*
X0002183748Y0000757374D01*
X0002183748Y0000767123D01*
X0002221249Y0001092375D02*
X0002220499Y0001091625D01*
X0002218249Y0001090875D01*
X0002216749Y0001090875D01*
X0002214500Y0001091625D01*
X0002213000Y0001093125D01*
X0002212250Y0001094625D01*
X0002211500Y0001097625D01*
X0002211500Y0001099874D01*
X0002212250Y0001102874D01*
X0002213000Y0001104374D01*
X0002214500Y0001105873D01*
X0002216749Y0001106623D01*
X0002218249Y0001106623D01*
X0002220499Y0001105873D01*
X0002221249Y0001105124D01*
X0002235497Y0001106623D02*
X0002227998Y0001106623D01*
X0002227248Y0001099124D01*
X0002227998Y0001099874D01*
X0002229498Y0001100624D01*
X0002233247Y0001100624D01*
X0002234747Y0001099874D01*
X0002235497Y0001099124D01*
X0002236247Y0001097625D01*
X0002236247Y0001093875D01*
X0002235497Y0001092375D01*
X0002234747Y0001091625D01*
X0002233247Y0001090875D01*
X0002229498Y0001090875D01*
X0002227998Y0001091625D01*
X0002227248Y0001092375D01*
X0002137249Y0000854375D02*
X0002136499Y0000853625D01*
X0002134249Y0000852875D01*
X0002132749Y0000852875D01*
X0002130500Y0000853625D01*
X0002129000Y0000855125D01*
X0002128250Y0000856625D01*
X0002127500Y0000859625D01*
X0002127500Y0000861874D01*
X0002128250Y0000864874D01*
X0002129000Y0000866374D01*
X0002130500Y0000867872D01*
X0002132749Y0000868623D01*
X0002134249Y0000868623D01*
X0002136499Y0000867872D01*
X0002137249Y0000867124D01*
X0002150747Y0000868623D02*
X0002147748Y0000868623D01*
X0002146248Y0000867872D01*
X0002145498Y0000867124D01*
X0002143998Y0000864874D01*
X0002143248Y0000861874D01*
X0002143248Y0000855875D01*
X0002143998Y0000854375D01*
X0002144748Y0000853625D01*
X0002146248Y0000852875D01*
X0002149247Y0000852875D01*
X0002150747Y0000853625D01*
X0002151497Y0000854375D01*
X0002152247Y0000855875D01*
X0002152247Y0000859625D01*
X0002151497Y0000861124D01*
X0002150747Y0000861874D01*
X0002149247Y0000862623D01*
X0002146248Y0000862623D01*
X0002144748Y0000861874D01*
X0002143998Y0000861124D01*
X0002143248Y0000859625D01*
X0002093497Y0001037374D02*
X0002094248Y0001036624D01*
X0002094998Y0001034375D01*
X0002094998Y0001032875D01*
X0002094248Y0001030626D01*
X0002092747Y0001029126D01*
X0002091248Y0001028376D01*
X0002088248Y0001027625D01*
X0002085999Y0001027625D01*
X0002082999Y0001028376D01*
X0002081499Y0001029126D01*
X0002080000Y0001030626D01*
X0002079250Y0001032875D01*
X0002079250Y0001034375D01*
X0002080000Y0001036624D01*
X0002080749Y0001037374D01*
X0002085999Y0001046373D02*
X0002085249Y0001044874D01*
X0002084499Y0001044124D01*
X0002082999Y0001043374D01*
X0002082249Y0001043374D01*
X0002080749Y0001044124D01*
X0002080000Y0001044874D01*
X0002079250Y0001046373D01*
X0002079250Y0001049373D01*
X0002080000Y0001050873D01*
X0002080749Y0001051623D01*
X0002082249Y0001052373D01*
X0002082999Y0001052373D01*
X0002084499Y0001051623D01*
X0002085249Y0001050873D01*
X0002085999Y0001049373D01*
X0002085999Y0001046373D01*
X0002086749Y0001044874D01*
X0002087499Y0001044124D01*
X0002088998Y0001043374D01*
X0002091997Y0001043374D01*
X0002093497Y0001044124D01*
X0002094248Y0001044874D01*
X0002094998Y0001046373D01*
X0002094998Y0001049373D01*
X0002094248Y0001050873D01*
X0002093497Y0001051623D01*
X0002091997Y0001052373D01*
X0002088998Y0001052373D01*
X0002087499Y0001051623D01*
X0002086749Y0001050873D01*
X0002085999Y0001049373D01*
X0001969249Y0000810375D02*
X0001968499Y0000809625D01*
X0001966249Y0000808875D01*
X0001964749Y0000808875D01*
X0001962500Y0000809625D01*
X0001961000Y0000811125D01*
X0001960250Y0000812625D01*
X0001959500Y0000815625D01*
X0001959500Y0000817874D01*
X0001960250Y0000820874D01*
X0001961000Y0000822374D01*
X0001962500Y0000823873D01*
X0001964749Y0000824623D01*
X0001966249Y0000824623D01*
X0001968499Y0000823873D01*
X0001969249Y0000823123D01*
X0001976746Y0000808875D02*
X0001979748Y0000808875D01*
X0001981247Y0000809625D01*
X0001981995Y0000810375D01*
X0001983497Y0000812625D01*
X0001984247Y0000815625D01*
X0001984247Y0000821624D01*
X0001983497Y0000823123D01*
X0001982746Y0000823873D01*
X0001981247Y0000824623D01*
X0001978248Y0000824623D01*
X0001976746Y0000823873D01*
X0001975998Y0000823123D01*
X0001975248Y0000821624D01*
X0001975248Y0000817874D01*
X0001975998Y0000816374D01*
X0001976746Y0000815625D01*
X0001978248Y0000814875D01*
X0001981247Y0000814875D01*
X0001982746Y0000815625D01*
X0001983497Y0000816374D01*
X0001984247Y0000817874D01*
%LPC*%
D214*
X0001764220Y0000504472D03*
X0001764220Y0000563527D03*
D215*
X0002233070Y0000109999D03*
D216*
X0002036220Y0000109999D03*
X0001839370Y0000109999D03*
D217*
X0001936220Y0000165370D03*
X0001936220Y0000086629D03*
D218*
X0001727220Y0000632425D03*
X0001777220Y0000632425D03*
X0001827220Y0000632425D03*
X0001877220Y0000632425D03*
X0001877220Y0000435574D03*
X0001827220Y0000435574D03*
X0001777220Y0000435574D03*
X0001727220Y0000435574D03*
D219*
X0001875748Y0000769999D03*
X0001816692Y0000769999D03*
D220*
X0002196850Y0000967401D03*
X0002196850Y0000892598D03*
X0002275590Y0000929999D03*
D221*
X0001696220Y0000733999D03*
X0001696220Y0001033998D03*
X0001696220Y0000933999D03*
X0001696220Y0001133999D03*
X0001696220Y0000833999D03*
D222*
X0001884645Y0000999055D03*
D223*
X0001922047Y0001036456D03*
X0002000786Y0001036456D03*
D222*
X0002038189Y0000999055D03*
X0001884645Y0000920314D03*
X0002038189Y0000939999D03*
D223*
X0001981100Y0000882913D03*
X0001941731Y0000882913D03*
D224*
X0001906299Y0000904566D03*
X0001906299Y0001014802D03*
X0002016535Y0001014802D03*
X0002016535Y0000904566D03*
D225*
X0002020587Y0001030666D03*
D210*
G36*
X0002026544Y0001030666D02*
X0002020587Y0001024708D01*
X0002014628Y0001030666D01*
X0002020587Y0001036623D01*
X0002026544Y0001030666D01*
X0002026544Y0001030666D01*
G37*
D225*
X0002020787Y0000888703D03*
D210*
G36*
X0002026743Y0000888703D02*
X0002020787Y0000882746D01*
X0002014829Y0000888703D01*
X0002020787Y0000894661D01*
X0002026743Y0000888703D01*
X0002026743Y0000888703D01*
G37*
D225*
X0001902047Y0001030466D03*
D210*
G36*
X0001908004Y0001030466D02*
X0001902047Y0001024508D01*
X0001896089Y0001030466D01*
X0001902047Y0001036423D01*
X0001908004Y0001030466D01*
X0001908004Y0001030466D01*
G37*
D225*
X0001902017Y0000888885D03*
D210*
G36*
X0001907974Y0000888885D02*
X0001902017Y0000882927D01*
X0001896059Y0000888885D01*
X0001902017Y0000894841D01*
X0001907974Y0000888885D01*
X0001907974Y0000888885D01*
G37*
D225*
X0002032398Y0001018855D03*
D210*
G36*
X0002038355Y0001018855D02*
X0002032398Y0001012896D01*
X0002026440Y0001018855D01*
X0002032398Y0001024812D01*
X0002038355Y0001018855D01*
X0002038355Y0001018855D01*
G37*
D225*
X0002032598Y0000900314D03*
D210*
G36*
X0002038555Y0000900314D02*
X0002032598Y0000894356D01*
X0002026640Y0000900314D01*
X0002032598Y0000906272D01*
X0002038555Y0000900314D01*
X0002038555Y0000900314D01*
G37*
D225*
X0001890636Y0001018855D03*
D210*
G36*
X0001896593Y0001018855D02*
X0001890636Y0001012896D01*
X0001884678Y0001018855D01*
X0001890636Y0001024812D01*
X0001896593Y0001018855D01*
X0001896593Y0001018855D01*
G37*
D225*
X0001890217Y0000900485D03*
D210*
G36*
X0001896174Y0000900485D02*
X0001890217Y0000894527D01*
X0001884259Y0000900485D01*
X0001890217Y0000906442D01*
X0001896174Y0000900485D01*
X0001896174Y0000900485D01*
G37*
D226*
X0001893217Y0000903467D03*
X0001893589Y0001015902D03*
X0001905000Y0001027512D03*
X0002017634Y0001027713D03*
X0002029445Y0001015902D03*
X0002029645Y0000903266D03*
X0002017834Y0000891656D03*
X0001905017Y0000891885D03*
D227*
X0001880417Y0000900485D03*
D222*
X0001884645Y0000939999D03*
X0001884645Y0000959685D03*
X0001884645Y0000979370D03*
D227*
X0001880817Y0001018855D03*
D228*
X0001902017Y0001040484D03*
D223*
X0001941731Y0001036456D03*
X0001961417Y0001036456D03*
X0001981100Y0001036456D03*
D228*
X0002020617Y0001040484D03*
D227*
X0002042217Y0001018885D03*
D222*
X0002038189Y0000979370D03*
X0002038189Y0000959685D03*
X0002038189Y0000920314D03*
D227*
X0002042417Y0000900285D03*
D228*
X0002020787Y0000878885D03*
D223*
X0002000786Y0000882913D03*
X0001961417Y0000882913D03*
X0001922047Y0000882913D03*
D228*
X0001902047Y0000879014D03*
D229*
X0001976220Y0001269999D03*
D230*
X0001706220Y0000099999D03*
D231*
X0002136220Y0000179527D03*
X0002136220Y0000120472D03*
D214*
X0002266220Y0000309527D03*
X0002266220Y0000250471D03*
D220*
X0001764960Y0000245196D03*
X0001764960Y0000319998D03*
X0001686220Y0000282598D03*
D232*
X0002056220Y0000429999D03*
D233*
X0002156220Y0000429999D03*
X0002256220Y0000429999D03*
D214*
X0001828219Y0000504472D03*
X0001828219Y0000563527D03*
X0001702220Y0000504472D03*
X0001702220Y0000563527D03*
X0001888220Y0000504943D03*
X0001888220Y0000563999D03*
D220*
X0002107480Y0000319998D03*
X0002107480Y0000245196D03*
X0002186220Y0000282598D03*
D234*
X0002116254Y0001159916D03*
X0002016254Y0001159916D03*
X0001936254Y0001159916D03*
X0001836254Y0001159916D03*
D235*
X0002206220Y0001249999D03*
X0001746220Y0001249999D03*
D236*
X0001886220Y0001254999D03*
X0002066220Y0001254999D03*
D237*
X0001969590Y0000321999D03*
X0001890850Y0000321999D03*
D238*
X0001991921Y0000522999D03*
X0001991921Y0000572999D03*
X0001991921Y0000622999D03*
X0001991921Y0000672999D03*
X0002204519Y0000672999D03*
X0002204519Y0000622999D03*
X0002204519Y0000572999D03*
X0002204519Y0000522999D03*
D231*
X0002285874Y0000621527D03*
X0002285874Y0000562472D03*
D239*
X0002141401Y0000749999D03*
X0002082345Y0000749999D03*
X0002251748Y0001059999D03*
X0002192692Y0001059999D03*
X0002116692Y0000819999D03*
X0002175748Y0000819999D03*
D231*
X0002126220Y0001010472D03*
X0002126220Y0001069527D03*
D239*
X0001946692Y0000779999D03*
X0002005748Y0000779999D03*
M02*