%MOIN*%
%OFA0B0*%
%FSLAX46Y46*%
%IPPOS*%
%LPD*%
%ADD10R,0.051181102362204731X0.035433070866141732*%
%ADD11R,0.093700787401574809X0.17165354330708663*%
%ADD12O,0.093700787401574809X0.17165354330708663*%
%ADD13R,0.064960629921259838X0.055118110236220472*%
%ADD14R,0.035748031496062996X0.094488188976377951*%
%ADD15R,0.035433070866141732X0.051181102362204731*%
%ADD16R,0.051181102362204731X0.047244094488188976*%
%ADD17R,0.086614173228346469X0.055118110236220472*%
%ADD18R,0.02763779527559055X0.01188976377952756*%
%ADD19R,0.01188976377952756X0.02763779527559055*%
%ADD20R,0.0040157480314960631X0.0040157480314960631*%
%ADD21C,0.008425196850393701*%
%ADD22C,0.0039370078740157488*%
%ADD23R,0.0059842519685039371X0.0059842519685039371*%
%ADD24R,0.019763779527559058X0.01188976377952756*%
%ADD25R,0.01188976377952756X0.019763779527559058*%
%ADD26C,0.1*%
%ADD27C,0.1141732283464567*%
%ADD28R,0.0452755905511811X0.047244094488188976*%
%ADD29R,0.082677165354330714X0.082677165354330714*%
%ADD30O,0.082677165354330714X0.082677165354330714*%
%ADD31C,0.074848031496062992*%
%ADD32O,0.070866141732283464X0.16535433070866143*%
%ADD33C,0.074803149606299218*%
%ADD34R,0.055118110236220472X0.064960629921259838*%
%ADD35R,0.076771653543307089X0.03937007874015748*%
%ADD36R,0.047244094488188976X0.0452755905511811*%
%ADD47R,0.051181102362204731X0.035433070866141732*%
%ADD48R,0.093700787401574809X0.17165354330708663*%
%ADD49O,0.093700787401574809X0.17165354330708663*%
%ADD50R,0.064960629921259838X0.055118110236220472*%
%ADD51R,0.035748031496062996X0.094488188976377951*%
%ADD52R,0.035433070866141732X0.051181102362204731*%
%ADD53R,0.051181102362204731X0.047244094488188976*%
%ADD54R,0.086614173228346469X0.055118110236220472*%
%ADD55R,0.02763779527559055X0.01188976377952756*%
%ADD56R,0.01188976377952756X0.02763779527559055*%
%ADD57R,0.0040157480314960631X0.0040157480314960631*%
%ADD58C,0.008425196850393701*%
%ADD59C,0.0039370078740157488*%
%ADD60R,0.0059842519685039371X0.0059842519685039371*%
%ADD61R,0.019763779527559058X0.01188976377952756*%
%ADD62R,0.01188976377952756X0.019763779527559058*%
%ADD63C,0.1*%
%ADD64C,0.1141732283464567*%
%ADD65R,0.0452755905511811X0.047244094488188976*%
%ADD66R,0.082677165354330714X0.082677165354330714*%
%ADD67O,0.082677165354330714X0.082677165354330714*%
%ADD68C,0.074848031496062992*%
%ADD69O,0.070866141732283464X0.16535433070866143*%
%ADD70C,0.074803149606299218*%
%ADD71R,0.055118110236220472X0.064960629921259838*%
%ADD72R,0.076771653543307089X0.03937007874015748*%
%ADD73R,0.047244094488188976X0.0452755905511811*%
%ADD84R,0.051181102362204731X0.035433070866141732*%
%ADD85R,0.093700787401574809X0.17165354330708663*%
%ADD86O,0.093700787401574809X0.17165354330708663*%
%ADD87R,0.064960629921259838X0.055118110236220472*%
%ADD88R,0.035748031496062996X0.094488188976377951*%
%ADD89R,0.035433070866141732X0.051181102362204731*%
%ADD90R,0.051181102362204731X0.047244094488188976*%
%ADD91R,0.086614173228346469X0.055118110236220472*%
%ADD92R,0.02763779527559055X0.01188976377952756*%
%ADD93R,0.01188976377952756X0.02763779527559055*%
%ADD94R,0.0040157480314960631X0.0040157480314960631*%
%ADD95C,0.008425196850393701*%
%ADD96C,0.0039370078740157488*%
%ADD97R,0.0059842519685039371X0.0059842519685039371*%
%ADD98R,0.019763779527559058X0.01188976377952756*%
%ADD99R,0.01188976377952756X0.019763779527559058*%
%ADD100C,0.1*%
%ADD101C,0.1141732283464567*%
%ADD102R,0.0452755905511811X0.047244094488188976*%
%ADD103R,0.082677165354330714X0.082677165354330714*%
%ADD104O,0.082677165354330714X0.082677165354330714*%
%ADD105C,0.074848031496062992*%
%ADD106O,0.070866141732283464X0.16535433070866143*%
%ADD107C,0.074803149606299218*%
%ADD108R,0.055118110236220472X0.064960629921259838*%
%ADD109R,0.076771653543307089X0.03937007874015748*%
%ADD110R,0.047244094488188976X0.0452755905511811*%
%ADD121R,0.051181102362204731X0.035433070866141732*%
%ADD122R,0.093700787401574809X0.17165354330708663*%
%ADD123O,0.093700787401574809X0.17165354330708663*%
%ADD124R,0.064960629921259838X0.055118110236220472*%
%ADD125R,0.035748031496062996X0.094488188976377951*%
%ADD126R,0.035433070866141732X0.051181102362204731*%
%ADD127R,0.051181102362204731X0.047244094488188976*%
%ADD128R,0.086614173228346469X0.055118110236220472*%
%ADD129R,0.02763779527559055X0.01188976377952756*%
%ADD130R,0.01188976377952756X0.02763779527559055*%
%ADD131R,0.0040157480314960631X0.0040157480314960631*%
%ADD132C,0.008425196850393701*%
%ADD133C,0.0039370078740157488*%
%ADD134R,0.0059842519685039371X0.0059842519685039371*%
%ADD135R,0.019763779527559058X0.01188976377952756*%
%ADD136R,0.01188976377952756X0.019763779527559058*%
%ADD137C,0.1*%
%ADD138C,0.1141732283464567*%
%ADD139R,0.0452755905511811X0.047244094488188976*%
%ADD140R,0.082677165354330714X0.082677165354330714*%
%ADD141O,0.082677165354330714X0.082677165354330714*%
%ADD142C,0.074848031496062992*%
%ADD143O,0.070866141732283464X0.16535433070866143*%
%ADD144C,0.074803149606299218*%
%ADD145R,0.055118110236220472X0.064960629921259838*%
%ADD146R,0.076771653543307089X0.03937007874015748*%
%ADD147R,0.047244094488188976X0.0452755905511811*%
%ADD158R,0.051181102362204731X0.035433070866141732*%
%ADD159R,0.093700787401574809X0.17165354330708663*%
%ADD160O,0.093700787401574809X0.17165354330708663*%
%ADD161R,0.064960629921259838X0.055118110236220472*%
%ADD162R,0.035748031496062996X0.094488188976377951*%
%ADD163R,0.035433070866141732X0.051181102362204731*%
%ADD164R,0.051181102362204731X0.047244094488188976*%
%ADD165R,0.086614173228346469X0.055118110236220472*%
%ADD166R,0.02763779527559055X0.01188976377952756*%
%ADD167R,0.01188976377952756X0.02763779527559055*%
%ADD168R,0.0040157480314960631X0.0040157480314960631*%
%ADD169C,0.008425196850393701*%
%ADD170C,0.0039370078740157488*%
%ADD171R,0.0059842519685039371X0.0059842519685039371*%
%ADD172R,0.019763779527559058X0.01188976377952756*%
%ADD173R,0.01188976377952756X0.019763779527559058*%
%ADD174C,0.1*%
%ADD175C,0.1141732283464567*%
%ADD176R,0.0452755905511811X0.047244094488188976*%
%ADD177R,0.082677165354330714X0.082677165354330714*%
%ADD178O,0.082677165354330714X0.082677165354330714*%
%ADD179C,0.074848031496062992*%
%ADD180O,0.070866141732283464X0.16535433070866143*%
%ADD181C,0.074803149606299218*%
%ADD182R,0.055118110236220472X0.064960629921259838*%
%ADD183R,0.076771653543307089X0.03937007874015748*%
%ADD184R,0.047244094488188976X0.0452755905511811*%
%ADD195R,0.051181102362204731X0.035433070866141732*%
%ADD196R,0.093700787401574809X0.17165354330708663*%
%ADD197O,0.093700787401574809X0.17165354330708663*%
%ADD198R,0.064960629921259838X0.055118110236220472*%
%ADD199R,0.035748031496062996X0.094488188976377951*%
%ADD200R,0.035433070866141732X0.051181102362204731*%
%ADD201R,0.051181102362204731X0.047244094488188976*%
%ADD202R,0.086614173228346469X0.055118110236220472*%
%ADD203R,0.02763779527559055X0.01188976377952756*%
%ADD204R,0.01188976377952756X0.02763779527559055*%
%ADD205R,0.0040157480314960631X0.0040157480314960631*%
%ADD206C,0.008425196850393701*%
%ADD207C,0.0039370078740157488*%
%ADD208R,0.0059842519685039371X0.0059842519685039371*%
%ADD209R,0.019763779527559058X0.01188976377952756*%
%ADD210R,0.01188976377952756X0.019763779527559058*%
%ADD211C,0.1*%
%ADD212C,0.1141732283464567*%
%ADD213R,0.0452755905511811X0.047244094488188976*%
%ADD214R,0.082677165354330714X0.082677165354330714*%
%ADD215O,0.082677165354330714X0.082677165354330714*%
%ADD216C,0.074848031496062992*%
%ADD217O,0.070866141732283464X0.16535433070866143*%
%ADD218C,0.074803149606299218*%
%ADD219R,0.055118110236220472X0.064960629921259838*%
%ADD220R,0.076771653543307089X0.03937007874015748*%
%ADD221R,0.047244094488188976X0.0452755905511811*%
%LPD*%
G01*
D10*
X0000818110Y0002798110D02*
X0000946110Y0001962582D03*
X0000946110Y0002021637D03*
D11*
X0001414960Y0001568109D03*
D12*
X0001218110Y0001568109D03*
X0001021258Y0001568109D03*
D13*
X0001118110Y0001623479D03*
X0001118110Y0001544740D03*
D14*
X0000909110Y0002090535D03*
X0000959110Y0002090535D03*
X0001009110Y0002090535D03*
X0001059110Y0002090535D03*
X0001059110Y0001893683D03*
X0001009110Y0001893683D03*
X0000959110Y0001893683D03*
X0000909110Y0001893683D03*
D15*
X0001057637Y0002228110D03*
X0000998582Y0002228110D03*
D16*
X0001378740Y0002425511D03*
X0001378740Y0002350708D03*
X0001457480Y0002388110D03*
D17*
X0000878109Y0002192110D03*
X0000878109Y0002492110D03*
X0000878109Y0002392110D03*
X0000878109Y0002592110D03*
X0000878109Y0002292110D03*
D18*
X0001066535Y0002457165D03*
D19*
X0001103937Y0002494566D03*
X0001182677Y0002494566D03*
D18*
X0001220078Y0002457165D03*
X0001066535Y0002378425D03*
X0001220078Y0002398110D03*
D19*
X0001162992Y0002341023D03*
X0001123622Y0002341023D03*
D20*
X0001088188Y0002362677D03*
X0001088188Y0002472913D03*
X0001198425Y0002472913D03*
X0001198425Y0002362677D03*
D21*
X0001202477Y0002488776D03*
D22*
G36*
X0001208434Y0002488776D02*
X0001202477Y0002482818D01*
X0001196519Y0002488776D01*
X0001202477Y0002494733D01*
X0001208434Y0002488776D01*
X0001208434Y0002488776D01*
G37*
D21*
X0001202677Y0002346814D03*
D22*
G36*
X0001208634Y0002346814D02*
X0001202677Y0002340856D01*
X0001196719Y0002346814D01*
X0001202677Y0002352771D01*
X0001208634Y0002346814D01*
X0001208634Y0002346814D01*
G37*
D21*
X0001083937Y0002488576D03*
D22*
G36*
X0001089894Y0002488576D02*
X0001083937Y0002482618D01*
X0001077979Y0002488576D01*
X0001083937Y0002494533D01*
X0001089894Y0002488576D01*
X0001089894Y0002488576D01*
G37*
D21*
X0001083907Y0002346995D03*
D22*
G36*
X0001089864Y0002346995D02*
X0001083907Y0002341037D01*
X0001077949Y0002346995D01*
X0001083907Y0002352952D01*
X0001089864Y0002346995D01*
X0001089864Y0002346995D01*
G37*
D21*
X0001214288Y0002476965D03*
D22*
G36*
X0001220245Y0002476965D02*
X0001214288Y0002471007D01*
X0001208330Y0002476965D01*
X0001214288Y0002482922D01*
X0001220245Y0002476965D01*
X0001220245Y0002476965D01*
G37*
D21*
X0001214488Y0002358425D03*
D22*
G36*
X0001220445Y0002358425D02*
X0001214488Y0002352467D01*
X0001208530Y0002358425D01*
X0001214488Y0002364382D01*
X0001220445Y0002358425D01*
X0001220445Y0002358425D01*
G37*
D21*
X0001072525Y0002476965D03*
D22*
G36*
X0001078483Y0002476965D02*
X0001072525Y0002471007D01*
X0001066568Y0002476965D01*
X0001072525Y0002482922D01*
X0001078483Y0002476965D01*
X0001078483Y0002476965D01*
G37*
D21*
X0001072107Y0002358595D03*
D22*
G36*
X0001078064Y0002358595D02*
X0001072107Y0002352637D01*
X0001066149Y0002358595D01*
X0001072107Y0002364552D01*
X0001078064Y0002358595D01*
X0001078064Y0002358595D01*
G37*
D23*
X0001075107Y0002361577D03*
X0001075478Y0002474012D03*
X0001086889Y0002485623D03*
X0001199524Y0002485823D03*
X0001211335Y0002474012D03*
X0001211535Y0002361377D03*
X0001199724Y0002349766D03*
X0001086907Y0002349995D03*
D24*
X0001062307Y0002358595D03*
D18*
X0001066535Y0002398110D03*
X0001066535Y0002417795D03*
X0001066535Y0002437480D03*
D24*
X0001062707Y0002476965D03*
D25*
X0001083907Y0002498595D03*
D19*
X0001123622Y0002494566D03*
X0001143307Y0002494566D03*
X0001162992Y0002494566D03*
D25*
X0001202507Y0002498595D03*
D24*
X0001224107Y0002476995D03*
D18*
X0001220078Y0002437480D03*
X0001220078Y0002417795D03*
X0001220078Y0002378425D03*
D24*
X0001224307Y0002358395D03*
D25*
X0001202677Y0002336995D03*
D19*
X0001182677Y0002341023D03*
X0001143307Y0002341023D03*
X0001103937Y0002341023D03*
D25*
X0001083937Y0002337124D03*
D26*
X0001158110Y0002728110D03*
D27*
X0000888110Y0001558110D03*
D28*
X0001318110Y0001637636D03*
X0001318110Y0001578582D03*
D10*
X0001448110Y0001767637D03*
X0001448110Y0001708582D03*
D16*
X0000946850Y0001703307D03*
X0000946850Y0001778110D03*
X0000868110Y0001740708D03*
D29*
X0001238110Y0001888110D03*
D30*
X0001338110Y0001888110D03*
X0001438110Y0001888110D03*
D10*
X0001010110Y0001962582D03*
X0001010110Y0002021637D03*
X0000884109Y0001962582D03*
X0000884109Y0002021637D03*
X0001070110Y0001963055D03*
X0001070110Y0002022110D03*
D16*
X0001289370Y0001778110D03*
X0001289370Y0001703307D03*
X0001368110Y0001740708D03*
D31*
X0001298144Y0002618026D03*
X0001198144Y0002618026D03*
X0001118144Y0002618026D03*
X0001018143Y0002618026D03*
D32*
X0001388110Y0002708110D03*
X0000928110Y0002708110D03*
D33*
X0001068110Y0002713110D03*
X0001248110Y0002713110D03*
D34*
X0001151480Y0001780110D03*
X0001072740Y0001780110D03*
D35*
X0001173811Y0001981110D03*
X0001173811Y0002031110D03*
X0001173811Y0002081109D03*
X0001173811Y0002131110D03*
X0001386409Y0002131110D03*
X0001386409Y0002081109D03*
X0001386409Y0002031110D03*
X0001386409Y0001981110D03*
D28*
X0001467763Y0002079637D03*
X0001467763Y0002020582D03*
D36*
X0001323290Y0002208110D03*
X0001264236Y0002208110D03*
X0001433637Y0002518110D03*
X0001374582Y0002518110D03*
X0001298581Y0002278110D03*
X0001357637Y0002278110D03*
D28*
X0001308110Y0002468582D03*
X0001308110Y0002527637D03*
D36*
X0001128582Y0002238110D03*
X0001187637Y0002238110D03*
G01*
D47*
X0001636220Y0002798110D02*
X0001764220Y0001962582D03*
X0001764220Y0002021637D03*
D48*
X0002233070Y0001568109D03*
D49*
X0002036220Y0001568109D03*
X0001839370Y0001568109D03*
D50*
X0001936220Y0001623479D03*
X0001936220Y0001544740D03*
D51*
X0001727220Y0002090535D03*
X0001777220Y0002090535D03*
X0001827220Y0002090535D03*
X0001877220Y0002090535D03*
X0001877220Y0001893683D03*
X0001827220Y0001893683D03*
X0001777220Y0001893683D03*
X0001727220Y0001893683D03*
D52*
X0001875748Y0002228110D03*
X0001816692Y0002228110D03*
D53*
X0002196850Y0002425511D03*
X0002196850Y0002350708D03*
X0002275590Y0002388110D03*
D54*
X0001696220Y0002192110D03*
X0001696220Y0002492110D03*
X0001696220Y0002392110D03*
X0001696220Y0002592110D03*
X0001696220Y0002292110D03*
D55*
X0001884645Y0002457165D03*
D56*
X0001922047Y0002494566D03*
X0002000786Y0002494566D03*
D55*
X0002038189Y0002457165D03*
X0001884645Y0002378425D03*
X0002038189Y0002398110D03*
D56*
X0001981101Y0002341023D03*
X0001941731Y0002341023D03*
D57*
X0001906299Y0002362677D03*
X0001906299Y0002472913D03*
X0002016535Y0002472913D03*
X0002016535Y0002362677D03*
D58*
X0002020587Y0002488776D03*
D59*
G36*
X0002026544Y0002488776D02*
X0002020587Y0002482818D01*
X0002014628Y0002488776D01*
X0002020587Y0002494733D01*
X0002026544Y0002488776D01*
X0002026544Y0002488776D01*
G37*
D58*
X0002020787Y0002346814D03*
D59*
G36*
X0002026743Y0002346814D02*
X0002020787Y0002340856D01*
X0002014829Y0002346814D01*
X0002020787Y0002352771D01*
X0002026743Y0002346814D01*
X0002026743Y0002346814D01*
G37*
D58*
X0001902047Y0002488576D03*
D59*
G36*
X0001908004Y0002488576D02*
X0001902047Y0002482618D01*
X0001896089Y0002488576D01*
X0001902047Y0002494533D01*
X0001908004Y0002488576D01*
X0001908004Y0002488576D01*
G37*
D58*
X0001902017Y0002346995D03*
D59*
G36*
X0001907974Y0002346995D02*
X0001902017Y0002341037D01*
X0001896059Y0002346995D01*
X0001902017Y0002352952D01*
X0001907974Y0002346995D01*
X0001907974Y0002346995D01*
G37*
D58*
X0002032398Y0002476965D03*
D59*
G36*
X0002038355Y0002476965D02*
X0002032398Y0002471007D01*
X0002026440Y0002476965D01*
X0002032398Y0002482922D01*
X0002038355Y0002476965D01*
X0002038355Y0002476965D01*
G37*
D58*
X0002032598Y0002358425D03*
D59*
G36*
X0002038555Y0002358425D02*
X0002032598Y0002352467D01*
X0002026640Y0002358425D01*
X0002032598Y0002364382D01*
X0002038555Y0002358425D01*
X0002038555Y0002358425D01*
G37*
D58*
X0001890636Y0002476965D03*
D59*
G36*
X0001896593Y0002476965D02*
X0001890636Y0002471007D01*
X0001884678Y0002476965D01*
X0001890636Y0002482922D01*
X0001896593Y0002476965D01*
X0001896593Y0002476965D01*
G37*
D58*
X0001890217Y0002358595D03*
D59*
G36*
X0001896174Y0002358595D02*
X0001890217Y0002352637D01*
X0001884259Y0002358595D01*
X0001890217Y0002364552D01*
X0001896174Y0002358595D01*
X0001896174Y0002358595D01*
G37*
D60*
X0001893217Y0002361577D03*
X0001893589Y0002474012D03*
X0001905000Y0002485623D03*
X0002017634Y0002485823D03*
X0002029445Y0002474012D03*
X0002029645Y0002361377D03*
X0002017834Y0002349766D03*
X0001905017Y0002349995D03*
D61*
X0001880417Y0002358595D03*
D55*
X0001884645Y0002398110D03*
X0001884645Y0002417795D03*
X0001884645Y0002437480D03*
D61*
X0001880817Y0002476965D03*
D62*
X0001902017Y0002498595D03*
D56*
X0001941731Y0002494566D03*
X0001961417Y0002494566D03*
X0001981101Y0002494566D03*
D62*
X0002020617Y0002498595D03*
D61*
X0002042217Y0002476995D03*
D55*
X0002038189Y0002437480D03*
X0002038189Y0002417795D03*
X0002038189Y0002378425D03*
D61*
X0002042417Y0002358395D03*
D62*
X0002020787Y0002336995D03*
D56*
X0002000786Y0002341023D03*
X0001961417Y0002341023D03*
X0001922047Y0002341023D03*
D62*
X0001902047Y0002337124D03*
D63*
X0001976220Y0002728110D03*
D64*
X0001706220Y0001558110D03*
D65*
X0002136220Y0001637636D03*
X0002136220Y0001578582D03*
D47*
X0002266220Y0001767637D03*
X0002266220Y0001708582D03*
D53*
X0001764960Y0001703307D03*
X0001764960Y0001778110D03*
X0001686220Y0001740708D03*
D66*
X0002056220Y0001888110D03*
D67*
X0002156220Y0001888110D03*
X0002256220Y0001888110D03*
D47*
X0001828219Y0001962582D03*
X0001828219Y0002021637D03*
X0001702220Y0001962582D03*
X0001702220Y0002021637D03*
X0001888220Y0001963055D03*
X0001888220Y0002022110D03*
D53*
X0002107480Y0001778110D03*
X0002107480Y0001703307D03*
X0002186220Y0001740708D03*
D68*
X0002116254Y0002618026D03*
X0002016254Y0002618026D03*
X0001936254Y0002618026D03*
X0001836254Y0002618026D03*
D69*
X0002206220Y0002708110D03*
X0001746220Y0002708110D03*
D70*
X0001886220Y0002713110D03*
X0002066220Y0002713110D03*
D71*
X0001969590Y0001780110D03*
X0001890850Y0001780110D03*
D72*
X0001991921Y0001981110D03*
X0001991921Y0002031110D03*
X0001991921Y0002081109D03*
X0001991921Y0002131110D03*
X0002204519Y0002131110D03*
X0002204519Y0002081109D03*
X0002204519Y0002031110D03*
X0002204519Y0001981110D03*
D65*
X0002285874Y0002079637D03*
X0002285874Y0002020582D03*
D73*
X0002141401Y0002208110D03*
X0002082345Y0002208110D03*
X0002251748Y0002518110D03*
X0002192692Y0002518110D03*
X0002116692Y0002278110D03*
X0002175748Y0002278110D03*
D65*
X0002126220Y0002468582D03*
X0002126220Y0002527637D03*
D73*
X0001946692Y0002238110D03*
X0002005748Y0002238110D03*
G04 next file*
%LPD*%
G01*
D84*
X0000000000Y0001339999D02*
X0000128000Y0000504472D03*
X0000128000Y0000563527D03*
D85*
X0000596850Y0000109999D03*
D86*
X0000400000Y0000109999D03*
X0000203149Y0000109999D03*
D87*
X0000300000Y0000165370D03*
X0000300000Y0000086629D03*
D88*
X0000091000Y0000632425D03*
X0000141000Y0000632425D03*
X0000191000Y0000632425D03*
X0000241000Y0000632425D03*
X0000241000Y0000435574D03*
X0000191000Y0000435574D03*
X0000141000Y0000435574D03*
X0000091000Y0000435574D03*
D89*
X0000239527Y0000769999D03*
X0000180472Y0000769999D03*
D90*
X0000560629Y0000967401D03*
X0000560629Y0000892598D03*
X0000639370Y0000929999D03*
D91*
X0000060000Y0000733999D03*
X0000060000Y0001033998D03*
X0000060000Y0000933999D03*
X0000060000Y0001133999D03*
X0000060000Y0000833999D03*
D92*
X0000248425Y0000999055D03*
D93*
X0000285826Y0001036456D03*
X0000364566Y0001036456D03*
D92*
X0000401968Y0000999055D03*
X0000248425Y0000920314D03*
X0000401968Y0000939999D03*
D93*
X0000344880Y0000882913D03*
X0000305511Y0000882913D03*
D94*
X0000270078Y0000904566D03*
X0000270078Y0001014802D03*
X0000380314Y0001014802D03*
X0000380314Y0000904566D03*
D95*
X0000384366Y0001030666D03*
D96*
G36*
X0000390323Y0001030666D02*
X0000384366Y0001024708D01*
X0000378409Y0001030666D01*
X0000384366Y0001036623D01*
X0000390323Y0001030666D01*
X0000390323Y0001030666D01*
G37*
D95*
X0000384566Y0000888703D03*
D96*
G36*
X0000390523Y0000888703D02*
X0000384566Y0000882746D01*
X0000378609Y0000888703D01*
X0000384566Y0000894661D01*
X0000390523Y0000888703D01*
X0000390523Y0000888703D01*
G37*
D95*
X0000265826Y0001030466D03*
D96*
G36*
X0000271784Y0001030466D02*
X0000265826Y0001024508D01*
X0000259869Y0001030466D01*
X0000265826Y0001036423D01*
X0000271784Y0001030466D01*
X0000271784Y0001030466D01*
G37*
D95*
X0000265796Y0000888885D03*
D96*
G36*
X0000271754Y0000888885D02*
X0000265796Y0000882927D01*
X0000259839Y0000888885D01*
X0000265796Y0000894841D01*
X0000271754Y0000888885D01*
X0000271754Y0000888885D01*
G37*
D95*
X0000396177Y0001018855D03*
D96*
G36*
X0000402135Y0001018855D02*
X0000396177Y0001012896D01*
X0000390220Y0001018855D01*
X0000396177Y0001024812D01*
X0000402135Y0001018855D01*
X0000402135Y0001018855D01*
G37*
D95*
X0000396377Y0000900314D03*
D96*
G36*
X0000402335Y0000900314D02*
X0000396377Y0000894356D01*
X0000390420Y0000900314D01*
X0000396377Y0000906272D01*
X0000402335Y0000900314D01*
X0000402335Y0000900314D01*
G37*
D95*
X0000254415Y0001018855D03*
D96*
G36*
X0000260373Y0001018855D02*
X0000254415Y0001012896D01*
X0000248458Y0001018855D01*
X0000254415Y0001024812D01*
X0000260373Y0001018855D01*
X0000260373Y0001018855D01*
G37*
D95*
X0000253996Y0000900485D03*
D96*
G36*
X0000259954Y0000900485D02*
X0000253996Y0000894527D01*
X0000248039Y0000900485D01*
X0000253996Y0000906442D01*
X0000259954Y0000900485D01*
X0000259954Y0000900485D01*
G37*
D97*
X0000256996Y0000903467D03*
X0000257368Y0001015902D03*
X0000268779Y0001027512D03*
X0000381414Y0001027713D03*
X0000393225Y0001015902D03*
X0000393425Y0000903266D03*
X0000381614Y0000891656D03*
X0000268796Y0000891885D03*
D98*
X0000244196Y0000900485D03*
D92*
X0000248425Y0000939999D03*
X0000248425Y0000959685D03*
X0000248425Y0000979370D03*
D98*
X0000244596Y0001018855D03*
D99*
X0000265796Y0001040484D03*
D93*
X0000305511Y0001036456D03*
X0000325196Y0001036456D03*
X0000344880Y0001036456D03*
D99*
X0000384396Y0001040484D03*
D98*
X0000405996Y0001018885D03*
D92*
X0000401968Y0000979370D03*
X0000401968Y0000959685D03*
X0000401968Y0000920314D03*
D98*
X0000406196Y0000900285D03*
D99*
X0000384566Y0000878885D03*
D93*
X0000364566Y0000882913D03*
X0000325196Y0000882913D03*
X0000285826Y0000882913D03*
D99*
X0000265826Y0000879014D03*
D100*
X0000339999Y0001269999D03*
D101*
X0000070000Y0000099999D03*
D102*
X0000500000Y0000179527D03*
X0000500000Y0000120472D03*
D84*
X0000629998Y0000309527D03*
X0000629998Y0000250471D03*
D90*
X0000128740Y0000245196D03*
X0000128740Y0000319998D03*
X0000050000Y0000282598D03*
D103*
X0000420000Y0000429999D03*
D104*
X0000520000Y0000429999D03*
X0000620000Y0000429999D03*
D84*
X0000192000Y0000504472D03*
X0000192000Y0000563527D03*
X0000066000Y0000504472D03*
X0000066000Y0000563527D03*
X0000252000Y0000504943D03*
X0000252000Y0000563999D03*
D90*
X0000471259Y0000319998D03*
X0000471259Y0000245196D03*
X0000550000Y0000282598D03*
D105*
X0000480033Y0001159916D03*
X0000380033Y0001159916D03*
X0000300033Y0001159916D03*
X0000200033Y0001159916D03*
D106*
X0000570000Y0001249999D03*
X0000110000Y0001249999D03*
D107*
X0000250000Y0001254999D03*
X0000430000Y0001254999D03*
D108*
X0000333370Y0000321999D03*
X0000254629Y0000321999D03*
D109*
X0000355700Y0000522999D03*
X0000355700Y0000572999D03*
X0000355700Y0000622999D03*
X0000355700Y0000672999D03*
X0000568299Y0000672999D03*
X0000568299Y0000622999D03*
X0000568299Y0000572999D03*
X0000568299Y0000522999D03*
D102*
X0000649653Y0000621527D03*
X0000649653Y0000562472D03*
D110*
X0000505181Y0000749999D03*
X0000446125Y0000749999D03*
X0000615527Y0001059999D03*
X0000556472Y0001059999D03*
X0000480472Y0000819999D03*
X0000539527Y0000819999D03*
D102*
X0000490000Y0001010472D03*
X0000490000Y0001069527D03*
D110*
X0000310472Y0000779999D03*
X0000369526Y0000779999D03*
G01*
D121*
X0000000000Y0002798110D02*
X0000128000Y0001962582D03*
X0000128000Y0002021637D03*
D122*
X0000596850Y0001568108D03*
D123*
X0000400000Y0001568108D03*
X0000203149Y0001568108D03*
D124*
X0000300000Y0001623479D03*
X0000300000Y0001544740D03*
D125*
X0000091000Y0002090535D03*
X0000141000Y0002090535D03*
X0000191000Y0002090535D03*
X0000241000Y0002090535D03*
X0000241000Y0001893683D03*
X0000191000Y0001893683D03*
X0000141000Y0001893683D03*
X0000091000Y0001893683D03*
D126*
X0000239527Y0002228110D03*
X0000180472Y0002228110D03*
D127*
X0000560629Y0002425511D03*
X0000560629Y0002350708D03*
X0000639370Y0002388110D03*
D128*
X0000060000Y0002192110D03*
X0000060000Y0002492110D03*
X0000060000Y0002392110D03*
X0000060000Y0002592110D03*
X0000060000Y0002292110D03*
D129*
X0000248425Y0002457165D03*
D130*
X0000285826Y0002494566D03*
X0000364566Y0002494566D03*
D129*
X0000401968Y0002457165D03*
X0000248425Y0002378425D03*
X0000401968Y0002398110D03*
D130*
X0000344880Y0002341023D03*
X0000305511Y0002341023D03*
D131*
X0000270078Y0002362677D03*
X0000270078Y0002472913D03*
X0000380314Y0002472913D03*
X0000380314Y0002362677D03*
D132*
X0000384366Y0002488776D03*
D133*
G36*
X0000390323Y0002488776D02*
X0000384366Y0002482818D01*
X0000378409Y0002488776D01*
X0000384366Y0002494733D01*
X0000390323Y0002488776D01*
X0000390323Y0002488776D01*
G37*
D132*
X0000384566Y0002346814D03*
D133*
G36*
X0000390523Y0002346814D02*
X0000384566Y0002340856D01*
X0000378609Y0002346814D01*
X0000384566Y0002352771D01*
X0000390523Y0002346814D01*
X0000390523Y0002346814D01*
G37*
D132*
X0000265826Y0002488576D03*
D133*
G36*
X0000271784Y0002488576D02*
X0000265826Y0002482618D01*
X0000259869Y0002488576D01*
X0000265826Y0002494533D01*
X0000271784Y0002488576D01*
X0000271784Y0002488576D01*
G37*
D132*
X0000265796Y0002346995D03*
D133*
G36*
X0000271754Y0002346995D02*
X0000265796Y0002341037D01*
X0000259839Y0002346995D01*
X0000265796Y0002352952D01*
X0000271754Y0002346995D01*
X0000271754Y0002346995D01*
G37*
D132*
X0000396177Y0002476965D03*
D133*
G36*
X0000402135Y0002476965D02*
X0000396177Y0002471007D01*
X0000390220Y0002476965D01*
X0000396177Y0002482922D01*
X0000402135Y0002476965D01*
X0000402135Y0002476965D01*
G37*
D132*
X0000396377Y0002358425D03*
D133*
G36*
X0000402335Y0002358425D02*
X0000396377Y0002352467D01*
X0000390420Y0002358425D01*
X0000396377Y0002364382D01*
X0000402335Y0002358425D01*
X0000402335Y0002358425D01*
G37*
D132*
X0000254415Y0002476965D03*
D133*
G36*
X0000260373Y0002476965D02*
X0000254415Y0002471007D01*
X0000248458Y0002476965D01*
X0000254415Y0002482922D01*
X0000260373Y0002476965D01*
X0000260373Y0002476965D01*
G37*
D132*
X0000253996Y0002358595D03*
D133*
G36*
X0000259954Y0002358595D02*
X0000253996Y0002352637D01*
X0000248039Y0002358595D01*
X0000253996Y0002364552D01*
X0000259954Y0002358595D01*
X0000259954Y0002358595D01*
G37*
D134*
X0000256996Y0002361577D03*
X0000257368Y0002474012D03*
X0000268779Y0002485623D03*
X0000381414Y0002485823D03*
X0000393225Y0002474012D03*
X0000393425Y0002361377D03*
X0000381614Y0002349766D03*
X0000268796Y0002349995D03*
D135*
X0000244196Y0002358595D03*
D129*
X0000248425Y0002398110D03*
X0000248425Y0002417795D03*
X0000248425Y0002437480D03*
D135*
X0000244596Y0002476965D03*
D136*
X0000265796Y0002498595D03*
D130*
X0000305511Y0002494566D03*
X0000325196Y0002494566D03*
X0000344880Y0002494566D03*
D136*
X0000384396Y0002498595D03*
D135*
X0000405996Y0002476995D03*
D129*
X0000401968Y0002437480D03*
X0000401968Y0002417795D03*
X0000401968Y0002378425D03*
D135*
X0000406196Y0002358395D03*
D136*
X0000384566Y0002336995D03*
D130*
X0000364566Y0002341023D03*
X0000325196Y0002341023D03*
X0000285826Y0002341023D03*
D136*
X0000265826Y0002337124D03*
D137*
X0000339999Y0002728110D03*
D138*
X0000070000Y0001558110D03*
D139*
X0000500000Y0001637635D03*
X0000500000Y0001578582D03*
D121*
X0000629998Y0001767637D03*
X0000629998Y0001708582D03*
D127*
X0000128740Y0001703307D03*
X0000128740Y0001778110D03*
X0000050000Y0001740708D03*
D140*
X0000420000Y0001888110D03*
D141*
X0000520000Y0001888110D03*
X0000620000Y0001888110D03*
D121*
X0000192000Y0001962582D03*
X0000192000Y0002021637D03*
X0000066000Y0001962582D03*
X0000066000Y0002021637D03*
X0000252000Y0001963055D03*
X0000252000Y0002022110D03*
D127*
X0000471259Y0001778110D03*
X0000471259Y0001703307D03*
X0000550000Y0001740708D03*
D142*
X0000480033Y0002618026D03*
X0000380033Y0002618026D03*
X0000300033Y0002618026D03*
X0000200033Y0002618026D03*
D143*
X0000570000Y0002708110D03*
X0000110000Y0002708110D03*
D144*
X0000250000Y0002713110D03*
X0000430000Y0002713110D03*
D145*
X0000333370Y0001780110D03*
X0000254629Y0001780110D03*
D146*
X0000355700Y0001981110D03*
X0000355700Y0002031110D03*
X0000355700Y0002081109D03*
X0000355700Y0002131110D03*
X0000568299Y0002131110D03*
X0000568299Y0002081109D03*
X0000568299Y0002031110D03*
X0000568299Y0001981110D03*
D139*
X0000649653Y0002079637D03*
X0000649653Y0002020582D03*
D147*
X0000505181Y0002208110D03*
X0000446125Y0002208110D03*
X0000615527Y0002518110D03*
X0000556472Y0002518110D03*
X0000480472Y0002278110D03*
X0000539527Y0002278110D03*
D139*
X0000490000Y0002468582D03*
X0000490000Y0002527637D03*
D147*
X0000310472Y0002238110D03*
X0000369526Y0002238110D03*
G04 next file*
G01*
D158*
X0000818110Y0001339999D02*
X0000946110Y0000504472D03*
X0000946110Y0000563527D03*
D159*
X0001414960Y0000109999D03*
D160*
X0001218110Y0000109999D03*
X0001021258Y0000109999D03*
D161*
X0001118110Y0000165370D03*
X0001118110Y0000086629D03*
D162*
X0000909110Y0000632425D03*
X0000959110Y0000632425D03*
X0001009110Y0000632425D03*
X0001059110Y0000632425D03*
X0001059110Y0000435574D03*
X0001009110Y0000435574D03*
X0000959110Y0000435574D03*
X0000909110Y0000435574D03*
D163*
X0001057637Y0000769999D03*
X0000998582Y0000769999D03*
D164*
X0001378740Y0000967401D03*
X0001378740Y0000892598D03*
X0001457480Y0000929999D03*
D165*
X0000878109Y0000733999D03*
X0000878109Y0001033998D03*
X0000878109Y0000933999D03*
X0000878109Y0001133999D03*
X0000878109Y0000833999D03*
D166*
X0001066535Y0000999055D03*
D167*
X0001103937Y0001036456D03*
X0001182677Y0001036456D03*
D166*
X0001220078Y0000999055D03*
X0001066535Y0000920314D03*
X0001220078Y0000939999D03*
D167*
X0001162992Y0000882913D03*
X0001123622Y0000882913D03*
D168*
X0001088188Y0000904566D03*
X0001088188Y0001014802D03*
X0001198425Y0001014802D03*
X0001198425Y0000904566D03*
D169*
X0001202477Y0001030666D03*
D170*
G36*
X0001208434Y0001030666D02*
X0001202477Y0001024708D01*
X0001196519Y0001030666D01*
X0001202477Y0001036623D01*
X0001208434Y0001030666D01*
X0001208434Y0001030666D01*
G37*
D169*
X0001202677Y0000888703D03*
D170*
G36*
X0001208634Y0000888703D02*
X0001202677Y0000882746D01*
X0001196719Y0000888703D01*
X0001202677Y0000894661D01*
X0001208634Y0000888703D01*
X0001208634Y0000888703D01*
G37*
D169*
X0001083937Y0001030466D03*
D170*
G36*
X0001089894Y0001030466D02*
X0001083937Y0001024508D01*
X0001077979Y0001030466D01*
X0001083937Y0001036423D01*
X0001089894Y0001030466D01*
X0001089894Y0001030466D01*
G37*
D169*
X0001083907Y0000888885D03*
D170*
G36*
X0001089864Y0000888885D02*
X0001083907Y0000882927D01*
X0001077949Y0000888885D01*
X0001083907Y0000894841D01*
X0001089864Y0000888885D01*
X0001089864Y0000888885D01*
G37*
D169*
X0001214288Y0001018855D03*
D170*
G36*
X0001220245Y0001018855D02*
X0001214288Y0001012896D01*
X0001208330Y0001018855D01*
X0001214288Y0001024812D01*
X0001220245Y0001018855D01*
X0001220245Y0001018855D01*
G37*
D169*
X0001214488Y0000900314D03*
D170*
G36*
X0001220445Y0000900314D02*
X0001214488Y0000894356D01*
X0001208530Y0000900314D01*
X0001214488Y0000906272D01*
X0001220445Y0000900314D01*
X0001220445Y0000900314D01*
G37*
D169*
X0001072525Y0001018855D03*
D170*
G36*
X0001078483Y0001018855D02*
X0001072525Y0001012896D01*
X0001066568Y0001018855D01*
X0001072525Y0001024812D01*
X0001078483Y0001018855D01*
X0001078483Y0001018855D01*
G37*
D169*
X0001072107Y0000900485D03*
D170*
G36*
X0001078064Y0000900485D02*
X0001072107Y0000894527D01*
X0001066149Y0000900485D01*
X0001072107Y0000906442D01*
X0001078064Y0000900485D01*
X0001078064Y0000900485D01*
G37*
D171*
X0001075107Y0000903467D03*
X0001075478Y0001015902D03*
X0001086889Y0001027512D03*
X0001199524Y0001027713D03*
X0001211335Y0001015902D03*
X0001211535Y0000903266D03*
X0001199724Y0000891656D03*
X0001086907Y0000891885D03*
D172*
X0001062307Y0000900485D03*
D166*
X0001066535Y0000939999D03*
X0001066535Y0000959685D03*
X0001066535Y0000979370D03*
D172*
X0001062707Y0001018855D03*
D173*
X0001083907Y0001040484D03*
D167*
X0001123622Y0001036456D03*
X0001143307Y0001036456D03*
X0001162992Y0001036456D03*
D173*
X0001202507Y0001040484D03*
D172*
X0001224107Y0001018885D03*
D166*
X0001220078Y0000979370D03*
X0001220078Y0000959685D03*
X0001220078Y0000920314D03*
D172*
X0001224307Y0000900285D03*
D173*
X0001202677Y0000878885D03*
D167*
X0001182677Y0000882913D03*
X0001143307Y0000882913D03*
X0001103937Y0000882913D03*
D173*
X0001083937Y0000879014D03*
D174*
X0001158110Y0001269999D03*
D175*
X0000888110Y0000099999D03*
D176*
X0001318110Y0000179527D03*
X0001318110Y0000120472D03*
D158*
X0001448110Y0000309527D03*
X0001448110Y0000250471D03*
D164*
X0000946850Y0000245196D03*
X0000946850Y0000319998D03*
X0000868110Y0000282598D03*
D177*
X0001238110Y0000429999D03*
D178*
X0001338110Y0000429999D03*
X0001438110Y0000429999D03*
D158*
X0001010110Y0000504472D03*
X0001010110Y0000563527D03*
X0000884109Y0000504472D03*
X0000884109Y0000563527D03*
X0001070110Y0000504943D03*
X0001070110Y0000563999D03*
D164*
X0001289370Y0000319998D03*
X0001289370Y0000245196D03*
X0001368110Y0000282598D03*
D179*
X0001298144Y0001159916D03*
X0001198144Y0001159916D03*
X0001118144Y0001159916D03*
X0001018143Y0001159916D03*
D180*
X0001388110Y0001249999D03*
X0000928110Y0001249999D03*
D181*
X0001068110Y0001254999D03*
X0001248110Y0001254999D03*
D182*
X0001151480Y0000321999D03*
X0001072740Y0000321999D03*
D183*
X0001173811Y0000522999D03*
X0001173811Y0000572999D03*
X0001173811Y0000622999D03*
X0001173811Y0000672999D03*
X0001386409Y0000672999D03*
X0001386409Y0000622999D03*
X0001386409Y0000572999D03*
X0001386409Y0000522999D03*
D176*
X0001467763Y0000621527D03*
X0001467763Y0000562472D03*
D184*
X0001323290Y0000749999D03*
X0001264236Y0000749999D03*
X0001433637Y0001059999D03*
X0001374582Y0001059999D03*
X0001298581Y0000819999D03*
X0001357637Y0000819999D03*
D176*
X0001308110Y0001010472D03*
X0001308110Y0001069527D03*
D184*
X0001128582Y0000779999D03*
X0001187637Y0000779999D03*
G04 next file*
G04 #@! TF.GenerationSoftware,KiCad,Pcbnew,(2018-02-16 revision c95340fba)-makepkg*
G04 #@! TF.CreationDate,2018-05-25T20:47:33+02:00*
G04 #@! TF.ProjectId,LIN_USB_CONVERTER,4C494E5F5553425F434F4E5645525445,rev?*
G04 #@! TF.SameCoordinates,PX85b9e30PY4aad300*
G04 #@! TF.FileFunction,Soldermask,Top*
G04 #@! TF.FilePolarity,Negative*
G04 Gerber Fmt 4.6, Leading zero omitted, Abs format (unit mm)*
G04 Created by KiCad (PCBNEW (2018-02-16 revision c95340fba)-makepkg) date 05/25/18 20:47:33*
G01*
G04 APERTURE LIST*
G04 APERTURE END LIST*
D195*
X0001636220Y0001339999D02*
X0001764220Y0000504472D03*
X0001764220Y0000563527D03*
D196*
X0002233070Y0000109999D03*
D197*
X0002036220Y0000109999D03*
X0001839370Y0000109999D03*
D198*
X0001936220Y0000165370D03*
X0001936220Y0000086629D03*
D199*
X0001727220Y0000632425D03*
X0001777220Y0000632425D03*
X0001827220Y0000632425D03*
X0001877220Y0000632425D03*
X0001877220Y0000435574D03*
X0001827220Y0000435574D03*
X0001777220Y0000435574D03*
X0001727220Y0000435574D03*
D200*
X0001875748Y0000769999D03*
X0001816692Y0000769999D03*
D201*
X0002196850Y0000967401D03*
X0002196850Y0000892598D03*
X0002275590Y0000929999D03*
D202*
X0001696220Y0000733999D03*
X0001696220Y0001033998D03*
X0001696220Y0000933999D03*
X0001696220Y0001133999D03*
X0001696220Y0000833999D03*
D203*
X0001884645Y0000999055D03*
D204*
X0001922047Y0001036456D03*
X0002000786Y0001036456D03*
D203*
X0002038189Y0000999055D03*
X0001884645Y0000920314D03*
X0002038189Y0000939999D03*
D204*
X0001981100Y0000882913D03*
X0001941731Y0000882913D03*
D205*
X0001906299Y0000904566D03*
X0001906299Y0001014802D03*
X0002016535Y0001014802D03*
X0002016535Y0000904566D03*
D206*
X0002020587Y0001030666D03*
D207*
G36*
X0002026544Y0001030666D02*
X0002020587Y0001024708D01*
X0002014628Y0001030666D01*
X0002020587Y0001036623D01*
X0002026544Y0001030666D01*
X0002026544Y0001030666D01*
G37*
D206*
X0002020787Y0000888703D03*
D207*
G36*
X0002026743Y0000888703D02*
X0002020787Y0000882746D01*
X0002014829Y0000888703D01*
X0002020787Y0000894661D01*
X0002026743Y0000888703D01*
X0002026743Y0000888703D01*
G37*
D206*
X0001902047Y0001030466D03*
D207*
G36*
X0001908004Y0001030466D02*
X0001902047Y0001024508D01*
X0001896089Y0001030466D01*
X0001902047Y0001036423D01*
X0001908004Y0001030466D01*
X0001908004Y0001030466D01*
G37*
D206*
X0001902017Y0000888885D03*
D207*
G36*
X0001907974Y0000888885D02*
X0001902017Y0000882927D01*
X0001896059Y0000888885D01*
X0001902017Y0000894841D01*
X0001907974Y0000888885D01*
X0001907974Y0000888885D01*
G37*
D206*
X0002032398Y0001018855D03*
D207*
G36*
X0002038355Y0001018855D02*
X0002032398Y0001012896D01*
X0002026440Y0001018855D01*
X0002032398Y0001024812D01*
X0002038355Y0001018855D01*
X0002038355Y0001018855D01*
G37*
D206*
X0002032598Y0000900314D03*
D207*
G36*
X0002038555Y0000900314D02*
X0002032598Y0000894356D01*
X0002026640Y0000900314D01*
X0002032598Y0000906272D01*
X0002038555Y0000900314D01*
X0002038555Y0000900314D01*
G37*
D206*
X0001890636Y0001018855D03*
D207*
G36*
X0001896593Y0001018855D02*
X0001890636Y0001012896D01*
X0001884678Y0001018855D01*
X0001890636Y0001024812D01*
X0001896593Y0001018855D01*
X0001896593Y0001018855D01*
G37*
D206*
X0001890217Y0000900485D03*
D207*
G36*
X0001896174Y0000900485D02*
X0001890217Y0000894527D01*
X0001884259Y0000900485D01*
X0001890217Y0000906442D01*
X0001896174Y0000900485D01*
X0001896174Y0000900485D01*
G37*
D208*
X0001893217Y0000903467D03*
X0001893589Y0001015902D03*
X0001905000Y0001027512D03*
X0002017634Y0001027713D03*
X0002029445Y0001015902D03*
X0002029645Y0000903266D03*
X0002017834Y0000891656D03*
X0001905017Y0000891885D03*
D209*
X0001880417Y0000900485D03*
D203*
X0001884645Y0000939999D03*
X0001884645Y0000959685D03*
X0001884645Y0000979370D03*
D209*
X0001880817Y0001018855D03*
D210*
X0001902017Y0001040484D03*
D204*
X0001941731Y0001036456D03*
X0001961417Y0001036456D03*
X0001981100Y0001036456D03*
D210*
X0002020617Y0001040484D03*
D209*
X0002042217Y0001018885D03*
D203*
X0002038189Y0000979370D03*
X0002038189Y0000959685D03*
X0002038189Y0000920314D03*
D209*
X0002042417Y0000900285D03*
D210*
X0002020787Y0000878885D03*
D204*
X0002000786Y0000882913D03*
X0001961417Y0000882913D03*
X0001922047Y0000882913D03*
D210*
X0001902047Y0000879014D03*
D211*
X0001976220Y0001269999D03*
D212*
X0001706220Y0000099999D03*
D213*
X0002136220Y0000179527D03*
X0002136220Y0000120472D03*
D195*
X0002266220Y0000309527D03*
X0002266220Y0000250471D03*
D201*
X0001764960Y0000245196D03*
X0001764960Y0000319998D03*
X0001686220Y0000282598D03*
D214*
X0002056220Y0000429999D03*
D215*
X0002156220Y0000429999D03*
X0002256220Y0000429999D03*
D195*
X0001828219Y0000504472D03*
X0001828219Y0000563527D03*
X0001702220Y0000504472D03*
X0001702220Y0000563527D03*
X0001888220Y0000504943D03*
X0001888220Y0000563999D03*
D201*
X0002107480Y0000319998D03*
X0002107480Y0000245196D03*
X0002186220Y0000282598D03*
D216*
X0002116254Y0001159916D03*
X0002016254Y0001159916D03*
X0001936254Y0001159916D03*
X0001836254Y0001159916D03*
D217*
X0002206220Y0001249999D03*
X0001746220Y0001249999D03*
D218*
X0001886220Y0001254999D03*
X0002066220Y0001254999D03*
D219*
X0001969590Y0000321999D03*
X0001890850Y0000321999D03*
D220*
X0001991921Y0000522999D03*
X0001991921Y0000572999D03*
X0001991921Y0000622999D03*
X0001991921Y0000672999D03*
X0002204519Y0000672999D03*
X0002204519Y0000622999D03*
X0002204519Y0000572999D03*
X0002204519Y0000522999D03*
D213*
X0002285874Y0000621527D03*
X0002285874Y0000562472D03*
D221*
X0002141401Y0000749999D03*
X0002082345Y0000749999D03*
X0002251748Y0001059999D03*
X0002192692Y0001059999D03*
X0002116692Y0000819999D03*
X0002175748Y0000819999D03*
D213*
X0002126220Y0001010472D03*
X0002126220Y0001069527D03*
D221*
X0001946692Y0000779999D03*
X0002005748Y0000779999D03*
M02*