%
M48
METRIC,000.000
T01C0.50
%
T01
X018030Y014607
X018030Y015607
X018030Y016607
X018030Y017607
X018030Y018607
X018030Y019607
X020529Y019030
X020529Y018030
X020529Y017030
X020529Y016030
X020529Y015030
X011601Y034285
X010601Y034285
X009601Y034285
X008601Y034285
X007601Y034285
X006601Y034285
X006577Y036785
X007577Y036785
X008577Y036785
X009577Y036785
X010577Y036785
X011577Y036785
X032381Y034286
X031381Y034286
X030381Y034286
X029381Y034286
X028381Y034286
X027381Y034286
X027357Y036785
X028357Y036785
X029357Y036785
X030357Y036785
X031357Y036785
X032357Y036785
X018030Y051643
X018030Y052643
X018030Y053643
X018030Y054643
X018030Y055643
X018030Y056643
X020529Y056066
X020529Y055066
X020529Y054066
X020529Y053066
X020529Y052066
X053161Y034286
X052161Y034286
X051161Y034286
X050161Y034286
X049161Y034286
X048161Y034286
X048137Y036785
X049137Y036785
X050137Y036785
X051137Y036785
X052137Y036785
X053137Y036785
X038810Y051643
X038810Y052643
X038810Y053643
X038810Y054643
X038810Y055643
X038810Y056643
X041309Y056066
X041309Y055066
X041309Y054066
X041309Y053066
X041309Y052066
X038810Y014607
X038810Y015607
X038810Y016607
X038810Y017607
X038810Y018607
X038810Y019607
X041309Y019030
X041309Y018030
X041309Y017030
X041309Y016030
X041309Y015030
M30