G04 #@! TF.FileFunction,Other,Fab,Top*
%FSLAX46Y46*%
G04 Gerber Fmt 4.6, Leading zero omitted, Abs format (unit mm)*
G04 Created by KiCad (PCBNEW 4.0.7) date 01/29/18 07:06:24*
%MOMM*%
%LPD*%
G01*
G04 APERTURE LIST*
%ADD10C,0.100000*%
%ADD11C,0.150000*%
%ADD12C,0.090000*%
G04 APERTURE END LIST*
D10*
D11*
X152418000Y-85424000D02*
X152918000Y-85424000D01*
X152418000Y-86424000D02*
X152418000Y-85424000D01*
X152918000Y-86424000D02*
X152418000Y-86424000D01*
X152918000Y-85424000D02*
X152918000Y-86424000D01*
X149358000Y-92278000D02*
X149358000Y-92778000D01*
X148358000Y-92278000D02*
X149358000Y-92278000D01*
X148358000Y-92778000D02*
X148358000Y-92278000D01*
X149358000Y-92778000D02*
X148358000Y-92778000D01*
D10*
X154704000Y-97997000D02*
X155204000Y-97997000D01*
X154704000Y-98997000D02*
X154704000Y-97997000D01*
X155204000Y-98997000D02*
X154704000Y-98997000D01*
X155204000Y-97997000D02*
X155204000Y-98997000D01*
X155454000Y-85166000D02*
X155454000Y-85666000D01*
X154454000Y-85166000D02*
X155454000Y-85166000D01*
X154454000Y-85666000D02*
X154454000Y-85166000D01*
X155454000Y-85666000D02*
X154454000Y-85666000D01*
X152522000Y-109330000D02*
X152522000Y-107730000D01*
X152522000Y-107730000D02*
X153322000Y-107730000D01*
X153322000Y-107730000D02*
X153322000Y-109330000D01*
X153322000Y-109330000D02*
X152522000Y-109330000D01*
X148242000Y-107984000D02*
X148242000Y-109584000D01*
X148242000Y-109584000D02*
X147442000Y-109584000D01*
X147442000Y-109584000D02*
X147442000Y-107984000D01*
X147442000Y-107984000D02*
X148242000Y-107984000D01*
X152660000Y-92786000D02*
X152660000Y-93286000D01*
X151660000Y-92786000D02*
X152660000Y-92786000D01*
X151660000Y-93286000D02*
X151660000Y-92786000D01*
X152660000Y-93286000D02*
X151660000Y-93286000D01*
X153676000Y-91262000D02*
X153676000Y-91762000D01*
X152676000Y-91262000D02*
X153676000Y-91262000D01*
X152676000Y-91762000D02*
X152676000Y-91262000D01*
X153676000Y-91762000D02*
X152676000Y-91762000D01*
X155824000Y-104428000D02*
X156624000Y-104428000D01*
X155824000Y-106028000D02*
X155824000Y-104428000D01*
X156624000Y-106028000D02*
X155824000Y-106028000D01*
X156624000Y-104428000D02*
X156624000Y-106028000D01*
X145156000Y-104174000D02*
X145956000Y-104174000D01*
X145156000Y-105774000D02*
X145156000Y-104174000D01*
X145956000Y-105774000D02*
X145156000Y-105774000D01*
X145956000Y-104174000D02*
X145956000Y-105774000D01*
X146356000Y-92382000D02*
X146356000Y-93182000D01*
X144756000Y-92382000D02*
X146356000Y-92382000D01*
X144756000Y-93182000D02*
X144756000Y-92382000D01*
X146356000Y-93182000D02*
X144756000Y-93182000D01*
X140946000Y-95976000D02*
X140946000Y-95176000D01*
X142546000Y-95976000D02*
X140946000Y-95976000D01*
X142546000Y-95176000D02*
X142546000Y-95976000D01*
X140946000Y-95176000D02*
X142546000Y-95176000D01*
X154762000Y-87768000D02*
X154762000Y-90218000D01*
X155312000Y-87198000D02*
X156162000Y-87198000D01*
X154762000Y-87768000D02*
X155312000Y-87198000D01*
X156162000Y-87198000D02*
X156162000Y-90238000D01*
X154762000Y-90238000D02*
X156162000Y-90238000D01*
X142642000Y-105612000D02*
X142892000Y-105612000D01*
X142642000Y-105412000D02*
X142342000Y-105612000D01*
X142642000Y-105812000D02*
X142642000Y-105412000D01*
X142342000Y-105612000D02*
X142642000Y-105812000D01*
X142342000Y-105612000D02*
X142092000Y-105612000D01*
X142342000Y-105812000D02*
X142342000Y-105412000D01*
X141792000Y-106682000D02*
X141792000Y-103642000D01*
X143192000Y-103642000D02*
X141792000Y-103642000D01*
X143192000Y-106682000D02*
X141792000Y-106682000D01*
X143192000Y-106682000D02*
X143192000Y-103642000D01*
X146464000Y-99170000D02*
X145664000Y-99170000D01*
X146464000Y-97570000D02*
X146464000Y-99170000D01*
X145664000Y-97570000D02*
X146464000Y-97570000D01*
X145664000Y-99170000D02*
X145664000Y-97570000D01*
X144432000Y-99170000D02*
X143632000Y-99170000D01*
X144432000Y-97570000D02*
X144432000Y-99170000D01*
X143632000Y-97570000D02*
X144432000Y-97570000D01*
X143632000Y-99170000D02*
X143632000Y-97570000D01*
X142654000Y-99170000D02*
X141854000Y-99170000D01*
X142654000Y-97570000D02*
X142654000Y-99170000D01*
X141854000Y-97570000D02*
X142654000Y-97570000D01*
X141854000Y-99170000D02*
X141854000Y-97570000D01*
X147988000Y-99158000D02*
X147188000Y-99158000D01*
X147988000Y-97558000D02*
X147988000Y-99158000D01*
X147188000Y-97558000D02*
X147988000Y-97558000D01*
X147188000Y-99158000D02*
X147188000Y-97558000D01*
X153342000Y-105612000D02*
X153592000Y-105612000D01*
X153342000Y-105412000D02*
X153042000Y-105612000D01*
X153342000Y-105812000D02*
X153342000Y-105412000D01*
X153042000Y-105612000D02*
X153342000Y-105812000D01*
X153042000Y-105612000D02*
X152792000Y-105612000D01*
X153042000Y-105812000D02*
X153042000Y-105412000D01*
X152492000Y-106682000D02*
X152492000Y-103642000D01*
X153892000Y-103642000D02*
X152492000Y-103642000D01*
X153892000Y-106682000D02*
X152492000Y-106682000D01*
X153892000Y-106682000D02*
X153892000Y-103642000D01*
X149278000Y-105744000D02*
X149528000Y-105744000D01*
X149278000Y-105544000D02*
X148978000Y-105744000D01*
X149278000Y-105944000D02*
X149278000Y-105544000D01*
X148978000Y-105744000D02*
X149278000Y-105944000D01*
X148978000Y-105744000D02*
X148728000Y-105744000D01*
X148978000Y-105944000D02*
X148978000Y-105544000D01*
X148428000Y-106814000D02*
X148428000Y-103774000D01*
X149828000Y-103774000D02*
X148428000Y-103774000D01*
X149828000Y-106814000D02*
X148428000Y-106814000D01*
X149828000Y-106814000D02*
X149828000Y-103774000D01*
X146482000Y-88964000D02*
X146482000Y-85964000D01*
X146482000Y-85964000D02*
X150482000Y-85964000D01*
X150482000Y-85964000D02*
X150482000Y-89964000D01*
X150482000Y-89964000D02*
X147482000Y-89964000D01*
X147482000Y-89964000D02*
X146482000Y-88964000D01*
D12*
X153434952Y-98944618D02*
X153434952Y-99173190D01*
X153434952Y-99058904D02*
X153034952Y-99058904D01*
X153092095Y-99096999D01*
X153130190Y-99135094D01*
X153149238Y-99173190D01*
X153034952Y-98696999D02*
X153034952Y-98658904D01*
X153054000Y-98620809D01*
X153073048Y-98601761D01*
X153111143Y-98582714D01*
X153187333Y-98563666D01*
X153282571Y-98563666D01*
X153358762Y-98582714D01*
X153396857Y-98601761D01*
X153415905Y-98620809D01*
X153434952Y-98658904D01*
X153434952Y-98696999D01*
X153415905Y-98735095D01*
X153396857Y-98754142D01*
X153358762Y-98773190D01*
X153282571Y-98792238D01*
X153187333Y-98792238D01*
X153111143Y-98773190D01*
X153073048Y-98754142D01*
X153054000Y-98735095D01*
X153034952Y-98696999D01*
X153034952Y-98316047D02*
X153034952Y-98277952D01*
X153054000Y-98239857D01*
X153073048Y-98220809D01*
X153111143Y-98201762D01*
X153187333Y-98182714D01*
X153282571Y-98182714D01*
X153358762Y-98201762D01*
X153396857Y-98220809D01*
X153415905Y-98239857D01*
X153434952Y-98277952D01*
X153434952Y-98316047D01*
X153415905Y-98354143D01*
X153396857Y-98373190D01*
X153358762Y-98392238D01*
X153282571Y-98411286D01*
X153187333Y-98411286D01*
X153111143Y-98392238D01*
X153073048Y-98373190D01*
X153054000Y-98354143D01*
X153034952Y-98316047D01*
X153168286Y-98011286D02*
X153434952Y-98011286D01*
X153206381Y-98011286D02*
X153187333Y-97992238D01*
X153168286Y-97954143D01*
X153168286Y-97897000D01*
X153187333Y-97858905D01*
X153225429Y-97839857D01*
X153434952Y-97839857D01*
X154506382Y-83896952D02*
X154277810Y-83896952D01*
X154392096Y-83896952D02*
X154392096Y-83496952D01*
X154354001Y-83554095D01*
X154315906Y-83592190D01*
X154277810Y-83611238D01*
X154754001Y-83496952D02*
X154792096Y-83496952D01*
X154830191Y-83516000D01*
X154849239Y-83535048D01*
X154868286Y-83573143D01*
X154887334Y-83649333D01*
X154887334Y-83744571D01*
X154868286Y-83820762D01*
X154849239Y-83858857D01*
X154830191Y-83877905D01*
X154792096Y-83896952D01*
X154754001Y-83896952D01*
X154715905Y-83877905D01*
X154696858Y-83858857D01*
X154677810Y-83820762D01*
X154658762Y-83744571D01*
X154658762Y-83649333D01*
X154677810Y-83573143D01*
X154696858Y-83535048D01*
X154715905Y-83516000D01*
X154754001Y-83496952D01*
X155134953Y-83496952D02*
X155173048Y-83496952D01*
X155211143Y-83516000D01*
X155230191Y-83535048D01*
X155249238Y-83573143D01*
X155268286Y-83649333D01*
X155268286Y-83744571D01*
X155249238Y-83820762D01*
X155230191Y-83858857D01*
X155211143Y-83877905D01*
X155173048Y-83896952D01*
X155134953Y-83896952D01*
X155096857Y-83877905D01*
X155077810Y-83858857D01*
X155058762Y-83820762D01*
X155039714Y-83744571D01*
X155039714Y-83649333D01*
X155058762Y-83573143D01*
X155077810Y-83535048D01*
X155096857Y-83516000D01*
X155134953Y-83496952D01*
X155439714Y-83630286D02*
X155439714Y-83896952D01*
X155439714Y-83668381D02*
X155458762Y-83649333D01*
X155496857Y-83630286D01*
X155554000Y-83630286D01*
X155592095Y-83649333D01*
X155611143Y-83687429D01*
X155611143Y-83896952D01*
X154241048Y-109206190D02*
X154222000Y-109187142D01*
X154202952Y-109149047D01*
X154202952Y-109053809D01*
X154222000Y-109015713D01*
X154241048Y-108996666D01*
X154279143Y-108977618D01*
X154317238Y-108977618D01*
X154374381Y-108996666D01*
X154602952Y-109225237D01*
X154602952Y-108977618D01*
X154241048Y-108825238D02*
X154222000Y-108806190D01*
X154202952Y-108768095D01*
X154202952Y-108672857D01*
X154222000Y-108634761D01*
X154241048Y-108615714D01*
X154279143Y-108596666D01*
X154317238Y-108596666D01*
X154374381Y-108615714D01*
X154602952Y-108844285D01*
X154602952Y-108596666D01*
X154202952Y-108349047D02*
X154202952Y-108310952D01*
X154222000Y-108272857D01*
X154241048Y-108253809D01*
X154279143Y-108234762D01*
X154355333Y-108215714D01*
X154450571Y-108215714D01*
X154526762Y-108234762D01*
X154564857Y-108253809D01*
X154583905Y-108272857D01*
X154602952Y-108310952D01*
X154602952Y-108349047D01*
X154583905Y-108387143D01*
X154564857Y-108406190D01*
X154526762Y-108425238D01*
X154450571Y-108444286D01*
X154355333Y-108444286D01*
X154279143Y-108425238D01*
X154241048Y-108406190D01*
X154222000Y-108387143D01*
X154202952Y-108349047D01*
X154336286Y-108044286D02*
X154736286Y-108044286D01*
X154355333Y-108044286D02*
X154336286Y-108006191D01*
X154336286Y-107930000D01*
X154355333Y-107891905D01*
X154374381Y-107872857D01*
X154412476Y-107853810D01*
X154526762Y-107853810D01*
X154564857Y-107872857D01*
X154583905Y-107891905D01*
X154602952Y-107930000D01*
X154602952Y-108006191D01*
X154583905Y-108044286D01*
X153064857Y-108596666D02*
X153083905Y-108615714D01*
X153102952Y-108672857D01*
X153102952Y-108710952D01*
X153083905Y-108768095D01*
X153045810Y-108806190D01*
X153007714Y-108825238D01*
X152931524Y-108844286D01*
X152874381Y-108844286D01*
X152798190Y-108825238D01*
X152760095Y-108806190D01*
X152722000Y-108768095D01*
X152702952Y-108710952D01*
X152702952Y-108672857D01*
X152722000Y-108615714D01*
X152741048Y-108596666D01*
X153102952Y-108215714D02*
X153102952Y-108444286D01*
X153102952Y-108330000D02*
X152702952Y-108330000D01*
X152760095Y-108368095D01*
X152798190Y-108406190D01*
X152817238Y-108444286D01*
X146522952Y-108850666D02*
X146522952Y-109079238D01*
X146522952Y-108964952D02*
X146122952Y-108964952D01*
X146180095Y-109003047D01*
X146218190Y-109041142D01*
X146237238Y-109079238D01*
X146256286Y-108507809D02*
X146522952Y-108507809D01*
X146256286Y-108679238D02*
X146465810Y-108679238D01*
X146503905Y-108660190D01*
X146522952Y-108622095D01*
X146522952Y-108564952D01*
X146503905Y-108526857D01*
X146484857Y-108507809D01*
X147984857Y-108850666D02*
X148003905Y-108869714D01*
X148022952Y-108926857D01*
X148022952Y-108964952D01*
X148003905Y-109022095D01*
X147965810Y-109060190D01*
X147927714Y-109079238D01*
X147851524Y-109098286D01*
X147794381Y-109098286D01*
X147718190Y-109079238D01*
X147680095Y-109060190D01*
X147642000Y-109022095D01*
X147622952Y-108964952D01*
X147622952Y-108926857D01*
X147642000Y-108869714D01*
X147661048Y-108850666D01*
X147661048Y-108698286D02*
X147642000Y-108679238D01*
X147622952Y-108641143D01*
X147622952Y-108545905D01*
X147642000Y-108507809D01*
X147661048Y-108488762D01*
X147699143Y-108469714D01*
X147737238Y-108469714D01*
X147794381Y-108488762D01*
X148022952Y-108717333D01*
X148022952Y-108469714D01*
X151712382Y-91946952D02*
X151483810Y-91946952D01*
X151598096Y-91946952D02*
X151598096Y-91546952D01*
X151560001Y-91604095D01*
X151521906Y-91642190D01*
X151483810Y-91661238D01*
X151960001Y-91546952D02*
X151998096Y-91546952D01*
X152036191Y-91566000D01*
X152055239Y-91585048D01*
X152074286Y-91623143D01*
X152093334Y-91699333D01*
X152093334Y-91794571D01*
X152074286Y-91870762D01*
X152055239Y-91908857D01*
X152036191Y-91927905D01*
X151998096Y-91946952D01*
X151960001Y-91946952D01*
X151921905Y-91927905D01*
X151902858Y-91908857D01*
X151883810Y-91870762D01*
X151864762Y-91794571D01*
X151864762Y-91699333D01*
X151883810Y-91623143D01*
X151902858Y-91585048D01*
X151921905Y-91566000D01*
X151960001Y-91546952D01*
X152340953Y-91546952D02*
X152379048Y-91546952D01*
X152417143Y-91566000D01*
X152436191Y-91585048D01*
X152455238Y-91623143D01*
X152474286Y-91699333D01*
X152474286Y-91794571D01*
X152455238Y-91870762D01*
X152436191Y-91908857D01*
X152417143Y-91927905D01*
X152379048Y-91946952D01*
X152340953Y-91946952D01*
X152302857Y-91927905D01*
X152283810Y-91908857D01*
X152264762Y-91870762D01*
X152245714Y-91794571D01*
X152245714Y-91699333D01*
X152264762Y-91623143D01*
X152283810Y-91585048D01*
X152302857Y-91566000D01*
X152340953Y-91546952D01*
X152645714Y-91680286D02*
X152645714Y-91946952D01*
X152645714Y-91718381D02*
X152664762Y-91699333D01*
X152702857Y-91680286D01*
X152760000Y-91680286D01*
X152798095Y-91699333D01*
X152817143Y-91737429D01*
X152817143Y-91946952D01*
X152093334Y-94448857D02*
X152074286Y-94467905D01*
X152017143Y-94486952D01*
X151979048Y-94486952D01*
X151921905Y-94467905D01*
X151883810Y-94429810D01*
X151864762Y-94391714D01*
X151845714Y-94315524D01*
X151845714Y-94258381D01*
X151864762Y-94182190D01*
X151883810Y-94144095D01*
X151921905Y-94106000D01*
X151979048Y-94086952D01*
X152017143Y-94086952D01*
X152074286Y-94106000D01*
X152093334Y-94125048D01*
X152436191Y-94220286D02*
X152436191Y-94486952D01*
X152340953Y-94067905D02*
X152245714Y-94353619D01*
X152493334Y-94353619D01*
X152728382Y-90422952D02*
X152499810Y-90422952D01*
X152614096Y-90422952D02*
X152614096Y-90022952D01*
X152576001Y-90080095D01*
X152537906Y-90118190D01*
X152499810Y-90137238D01*
X152976001Y-90022952D02*
X153014096Y-90022952D01*
X153052191Y-90042000D01*
X153071239Y-90061048D01*
X153090286Y-90099143D01*
X153109334Y-90175333D01*
X153109334Y-90270571D01*
X153090286Y-90346762D01*
X153071239Y-90384857D01*
X153052191Y-90403905D01*
X153014096Y-90422952D01*
X152976001Y-90422952D01*
X152937905Y-90403905D01*
X152918858Y-90384857D01*
X152899810Y-90346762D01*
X152880762Y-90270571D01*
X152880762Y-90175333D01*
X152899810Y-90099143D01*
X152918858Y-90061048D01*
X152937905Y-90042000D01*
X152976001Y-90022952D01*
X153356953Y-90022952D02*
X153395048Y-90022952D01*
X153433143Y-90042000D01*
X153452191Y-90061048D01*
X153471238Y-90099143D01*
X153490286Y-90175333D01*
X153490286Y-90270571D01*
X153471238Y-90346762D01*
X153452191Y-90384857D01*
X153433143Y-90403905D01*
X153395048Y-90422952D01*
X153356953Y-90422952D01*
X153318857Y-90403905D01*
X153299810Y-90384857D01*
X153280762Y-90346762D01*
X153261714Y-90270571D01*
X153261714Y-90175333D01*
X153280762Y-90099143D01*
X153299810Y-90061048D01*
X153318857Y-90042000D01*
X153356953Y-90022952D01*
X153661714Y-90156286D02*
X153661714Y-90422952D01*
X153661714Y-90194381D02*
X153680762Y-90175333D01*
X153718857Y-90156286D01*
X153776000Y-90156286D01*
X153814095Y-90175333D01*
X153833143Y-90213429D01*
X153833143Y-90422952D01*
X153109334Y-92924857D02*
X153090286Y-92943905D01*
X153033143Y-92962952D01*
X152995048Y-92962952D01*
X152937905Y-92943905D01*
X152899810Y-92905810D01*
X152880762Y-92867714D01*
X152861714Y-92791524D01*
X152861714Y-92734381D01*
X152880762Y-92658190D01*
X152899810Y-92620095D01*
X152937905Y-92582000D01*
X152995048Y-92562952D01*
X153033143Y-92562952D01*
X153090286Y-92582000D01*
X153109334Y-92601048D01*
X153452191Y-92562952D02*
X153376000Y-92562952D01*
X153337905Y-92582000D01*
X153318857Y-92601048D01*
X153280762Y-92658190D01*
X153261714Y-92734381D01*
X153261714Y-92886762D01*
X153280762Y-92924857D01*
X153299810Y-92943905D01*
X153337905Y-92962952D01*
X153414095Y-92962952D01*
X153452191Y-92943905D01*
X153471238Y-92924857D01*
X153490286Y-92886762D01*
X153490286Y-92791524D01*
X153471238Y-92753429D01*
X153452191Y-92734381D01*
X153414095Y-92715333D01*
X153337905Y-92715333D01*
X153299810Y-92734381D01*
X153280762Y-92753429D01*
X153261714Y-92791524D01*
X153970000Y-94836190D02*
X153950952Y-94874285D01*
X153950952Y-94931428D01*
X153970000Y-94988571D01*
X154008095Y-95026666D01*
X154046190Y-95045714D01*
X154122381Y-95064762D01*
X154179524Y-95064762D01*
X154255714Y-95045714D01*
X154293810Y-95026666D01*
X154331905Y-94988571D01*
X154350952Y-94931428D01*
X154350952Y-94893333D01*
X154331905Y-94836190D01*
X154312857Y-94817142D01*
X154179524Y-94817142D01*
X154179524Y-94893333D01*
X154331905Y-94664762D02*
X154350952Y-94607619D01*
X154350952Y-94512381D01*
X154331905Y-94474285D01*
X154312857Y-94455238D01*
X154274762Y-94436190D01*
X154236667Y-94436190D01*
X154198571Y-94455238D01*
X154179524Y-94474285D01*
X154160476Y-94512381D01*
X154141429Y-94588571D01*
X154122381Y-94626666D01*
X154103333Y-94645714D01*
X154065238Y-94664762D01*
X154027143Y-94664762D01*
X153989048Y-94645714D01*
X153970000Y-94626666D01*
X153950952Y-94588571D01*
X153950952Y-94493333D01*
X153970000Y-94436190D01*
X153989048Y-94283810D02*
X153970000Y-94264762D01*
X153950952Y-94226667D01*
X153950952Y-94131429D01*
X153970000Y-94093333D01*
X153989048Y-94074286D01*
X154027143Y-94055238D01*
X154065238Y-94055238D01*
X154122381Y-94074286D01*
X154350952Y-94302857D01*
X154350952Y-94055238D01*
X154904952Y-105275619D02*
X154904952Y-105504191D01*
X154904952Y-105389905D02*
X154504952Y-105389905D01*
X154562095Y-105428000D01*
X154600190Y-105466095D01*
X154619238Y-105504191D01*
X154904952Y-105104191D02*
X154504952Y-105104191D01*
X154752571Y-105066096D02*
X154904952Y-104951810D01*
X154638286Y-104951810D02*
X154790667Y-105104191D01*
X156404952Y-105294666D02*
X156214476Y-105428000D01*
X156404952Y-105523238D02*
X156004952Y-105523238D01*
X156004952Y-105370857D01*
X156024000Y-105332762D01*
X156043048Y-105313714D01*
X156081143Y-105294666D01*
X156138286Y-105294666D01*
X156176381Y-105313714D01*
X156195429Y-105332762D01*
X156214476Y-105370857D01*
X156214476Y-105523238D01*
X156404952Y-104913714D02*
X156404952Y-105142286D01*
X156404952Y-105028000D02*
X156004952Y-105028000D01*
X156062095Y-105066095D01*
X156100190Y-105104190D01*
X156119238Y-105142286D01*
X143836952Y-105069238D02*
X143836952Y-105259714D01*
X144027429Y-105278762D01*
X144008381Y-105259714D01*
X143989333Y-105221619D01*
X143989333Y-105126381D01*
X144008381Y-105088285D01*
X144027429Y-105069238D01*
X144065524Y-105050190D01*
X144160762Y-105050190D01*
X144198857Y-105069238D01*
X144217905Y-105088285D01*
X144236952Y-105126381D01*
X144236952Y-105221619D01*
X144217905Y-105259714D01*
X144198857Y-105278762D01*
X143836952Y-104802571D02*
X143836952Y-104764476D01*
X143856000Y-104726381D01*
X143875048Y-104707333D01*
X143913143Y-104688286D01*
X143989333Y-104669238D01*
X144084571Y-104669238D01*
X144160762Y-104688286D01*
X144198857Y-104707333D01*
X144217905Y-104726381D01*
X144236952Y-104764476D01*
X144236952Y-104802571D01*
X144217905Y-104840667D01*
X144198857Y-104859714D01*
X144160762Y-104878762D01*
X144084571Y-104897810D01*
X143989333Y-104897810D01*
X143913143Y-104878762D01*
X143875048Y-104859714D01*
X143856000Y-104840667D01*
X143836952Y-104802571D01*
X145736952Y-105040666D02*
X145546476Y-105174000D01*
X145736952Y-105269238D02*
X145336952Y-105269238D01*
X145336952Y-105116857D01*
X145356000Y-105078762D01*
X145375048Y-105059714D01*
X145413143Y-105040666D01*
X145470286Y-105040666D01*
X145508381Y-105059714D01*
X145527429Y-105078762D01*
X145546476Y-105116857D01*
X145546476Y-105269238D01*
X145375048Y-104888286D02*
X145356000Y-104869238D01*
X145336952Y-104831143D01*
X145336952Y-104735905D01*
X145356000Y-104697809D01*
X145375048Y-104678762D01*
X145413143Y-104659714D01*
X145451238Y-104659714D01*
X145508381Y-104678762D01*
X145736952Y-104907333D01*
X145736952Y-104659714D01*
X145317905Y-91462952D02*
X145089333Y-91462952D01*
X145203619Y-91462952D02*
X145203619Y-91062952D01*
X145165524Y-91120095D01*
X145127429Y-91158190D01*
X145089333Y-91177238D01*
X145565524Y-91062952D02*
X145603619Y-91062952D01*
X145641714Y-91082000D01*
X145660762Y-91101048D01*
X145679809Y-91139143D01*
X145698857Y-91215333D01*
X145698857Y-91310571D01*
X145679809Y-91386762D01*
X145660762Y-91424857D01*
X145641714Y-91443905D01*
X145603619Y-91462952D01*
X145565524Y-91462952D01*
X145527428Y-91443905D01*
X145508381Y-91424857D01*
X145489333Y-91386762D01*
X145470285Y-91310571D01*
X145470285Y-91215333D01*
X145489333Y-91139143D01*
X145508381Y-91101048D01*
X145527428Y-91082000D01*
X145565524Y-91062952D01*
X145870285Y-91462952D02*
X145870285Y-91062952D01*
X145908380Y-91310571D02*
X146022666Y-91462952D01*
X146022666Y-91196286D02*
X145870285Y-91348667D01*
X145489334Y-92962952D02*
X145356000Y-92772476D01*
X145260762Y-92962952D02*
X145260762Y-92562952D01*
X145413143Y-92562952D01*
X145451238Y-92582000D01*
X145470286Y-92601048D01*
X145489334Y-92639143D01*
X145489334Y-92696286D01*
X145470286Y-92734381D01*
X145451238Y-92753429D01*
X145413143Y-92772476D01*
X145260762Y-92772476D01*
X145622667Y-92562952D02*
X145870286Y-92562952D01*
X145736953Y-92715333D01*
X145794095Y-92715333D01*
X145832191Y-92734381D01*
X145851238Y-92753429D01*
X145870286Y-92791524D01*
X145870286Y-92886762D01*
X145851238Y-92924857D01*
X145832191Y-92943905D01*
X145794095Y-92962952D01*
X145679810Y-92962952D01*
X145641714Y-92943905D01*
X145622667Y-92924857D01*
X141507905Y-97256952D02*
X141279333Y-97256952D01*
X141393619Y-97256952D02*
X141393619Y-96856952D01*
X141355524Y-96914095D01*
X141317429Y-96952190D01*
X141279333Y-96971238D01*
X141755524Y-96856952D02*
X141793619Y-96856952D01*
X141831714Y-96876000D01*
X141850762Y-96895048D01*
X141869809Y-96933143D01*
X141888857Y-97009333D01*
X141888857Y-97104571D01*
X141869809Y-97180762D01*
X141850762Y-97218857D01*
X141831714Y-97237905D01*
X141793619Y-97256952D01*
X141755524Y-97256952D01*
X141717428Y-97237905D01*
X141698381Y-97218857D01*
X141679333Y-97180762D01*
X141660285Y-97104571D01*
X141660285Y-97009333D01*
X141679333Y-96933143D01*
X141698381Y-96895048D01*
X141717428Y-96876000D01*
X141755524Y-96856952D01*
X142060285Y-97256952D02*
X142060285Y-96856952D01*
X142098380Y-97104571D02*
X142212666Y-97256952D01*
X142212666Y-96990286D02*
X142060285Y-97142667D01*
X141679334Y-95756952D02*
X141546000Y-95566476D01*
X141450762Y-95756952D02*
X141450762Y-95356952D01*
X141603143Y-95356952D01*
X141641238Y-95376000D01*
X141660286Y-95395048D01*
X141679334Y-95433143D01*
X141679334Y-95490286D01*
X141660286Y-95528381D01*
X141641238Y-95547429D01*
X141603143Y-95566476D01*
X141450762Y-95566476D01*
X142041238Y-95356952D02*
X141850762Y-95356952D01*
X141831714Y-95547429D01*
X141850762Y-95528381D01*
X141888857Y-95509333D01*
X141984095Y-95509333D01*
X142022191Y-95528381D01*
X142041238Y-95547429D01*
X142060286Y-95585524D01*
X142060286Y-95680762D01*
X142041238Y-95718857D01*
X142022191Y-95737905D01*
X141984095Y-95756952D01*
X141888857Y-95756952D01*
X141850762Y-95737905D01*
X141831714Y-95718857D01*
X152309620Y-91398952D02*
X152309620Y-90998952D01*
X152442953Y-91284667D01*
X152576287Y-90998952D01*
X152576287Y-91398952D01*
X152995335Y-91360857D02*
X152976287Y-91379905D01*
X152919144Y-91398952D01*
X152881049Y-91398952D01*
X152823906Y-91379905D01*
X152785811Y-91341810D01*
X152766763Y-91303714D01*
X152747715Y-91227524D01*
X152747715Y-91170381D01*
X152766763Y-91094190D01*
X152785811Y-91056095D01*
X152823906Y-91018000D01*
X152881049Y-90998952D01*
X152919144Y-90998952D01*
X152976287Y-91018000D01*
X152995335Y-91037048D01*
X153166763Y-91398952D02*
X153166763Y-90998952D01*
X153319144Y-90998952D01*
X153357239Y-91018000D01*
X153376287Y-91037048D01*
X153395335Y-91075143D01*
X153395335Y-91132286D01*
X153376287Y-91170381D01*
X153357239Y-91189429D01*
X153319144Y-91208476D01*
X153166763Y-91208476D01*
X153776287Y-91398952D02*
X153547715Y-91398952D01*
X153662001Y-91398952D02*
X153662001Y-90998952D01*
X153623906Y-91056095D01*
X153585811Y-91094190D01*
X153547715Y-91113238D01*
X153909620Y-90998952D02*
X154176287Y-90998952D01*
X154004858Y-91398952D01*
X154404858Y-90998952D02*
X154442953Y-90998952D01*
X154481048Y-91018000D01*
X154500096Y-91037048D01*
X154519143Y-91075143D01*
X154538191Y-91151333D01*
X154538191Y-91246571D01*
X154519143Y-91322762D01*
X154500096Y-91360857D01*
X154481048Y-91379905D01*
X154442953Y-91398952D01*
X154404858Y-91398952D01*
X154366762Y-91379905D01*
X154347715Y-91360857D01*
X154328667Y-91322762D01*
X154309619Y-91246571D01*
X154309619Y-91151333D01*
X154328667Y-91075143D01*
X154347715Y-91037048D01*
X154366762Y-91018000D01*
X154404858Y-90998952D01*
X154785810Y-90998952D02*
X154823905Y-90998952D01*
X154862000Y-91018000D01*
X154881048Y-91037048D01*
X154900095Y-91075143D01*
X154919143Y-91151333D01*
X154919143Y-91246571D01*
X154900095Y-91322762D01*
X154881048Y-91360857D01*
X154862000Y-91379905D01*
X154823905Y-91398952D01*
X154785810Y-91398952D01*
X154747714Y-91379905D01*
X154728667Y-91360857D01*
X154709619Y-91322762D01*
X154690571Y-91246571D01*
X154690571Y-91151333D01*
X154709619Y-91075143D01*
X154728667Y-91037048D01*
X154747714Y-91018000D01*
X154785810Y-90998952D01*
X155033428Y-90998952D02*
X155262000Y-90998952D01*
X155147714Y-91398952D02*
X155147714Y-90998952D01*
X155395333Y-91246571D02*
X155700095Y-91246571D01*
X155852476Y-90998952D02*
X156100095Y-90998952D01*
X155966762Y-91151333D01*
X156023904Y-91151333D01*
X156062000Y-91170381D01*
X156081047Y-91189429D01*
X156100095Y-91227524D01*
X156100095Y-91322762D01*
X156081047Y-91360857D01*
X156062000Y-91379905D01*
X156023904Y-91398952D01*
X155909619Y-91398952D01*
X155871523Y-91379905D01*
X155852476Y-91360857D01*
X156233428Y-90998952D02*
X156481047Y-90998952D01*
X156347714Y-91151333D01*
X156404856Y-91151333D01*
X156442952Y-91170381D01*
X156461999Y-91189429D01*
X156481047Y-91227524D01*
X156481047Y-91322762D01*
X156461999Y-91360857D01*
X156442952Y-91379905D01*
X156404856Y-91398952D01*
X156290571Y-91398952D01*
X156252475Y-91379905D01*
X156233428Y-91360857D01*
X156728666Y-90998952D02*
X156766761Y-90998952D01*
X156804856Y-91018000D01*
X156823904Y-91037048D01*
X156842951Y-91075143D01*
X156861999Y-91151333D01*
X156861999Y-91246571D01*
X156842951Y-91322762D01*
X156823904Y-91360857D01*
X156804856Y-91379905D01*
X156766761Y-91398952D01*
X156728666Y-91398952D01*
X156690570Y-91379905D01*
X156671523Y-91360857D01*
X156652475Y-91322762D01*
X156633427Y-91246571D01*
X156633427Y-91151333D01*
X156652475Y-91075143D01*
X156671523Y-91037048D01*
X156690570Y-91018000D01*
X156728666Y-90998952D01*
X157014379Y-91037048D02*
X157033427Y-91018000D01*
X157071522Y-90998952D01*
X157166760Y-90998952D01*
X157204856Y-91018000D01*
X157223903Y-91037048D01*
X157242951Y-91075143D01*
X157242951Y-91113238D01*
X157223903Y-91170381D01*
X156995332Y-91398952D01*
X157242951Y-91398952D01*
X157414379Y-91189429D02*
X157547712Y-91189429D01*
X157604855Y-91398952D02*
X157414379Y-91398952D01*
X157414379Y-90998952D01*
X157604855Y-90998952D01*
X158061998Y-90979905D02*
X157719141Y-91494190D01*
X158138189Y-90998952D02*
X158366761Y-90998952D01*
X158252475Y-91398952D02*
X158252475Y-90998952D01*
X158442951Y-90998952D02*
X158671523Y-90998952D01*
X158557237Y-91398952D02*
X158557237Y-90998952D01*
X155242952Y-89022762D02*
X155566762Y-89022762D01*
X155604857Y-89003714D01*
X155623905Y-88984667D01*
X155642952Y-88946571D01*
X155642952Y-88870381D01*
X155623905Y-88832286D01*
X155604857Y-88813238D01*
X155566762Y-88794190D01*
X155242952Y-88794190D01*
X155242952Y-88641809D02*
X155242952Y-88394190D01*
X155395333Y-88527523D01*
X155395333Y-88470381D01*
X155414381Y-88432285D01*
X155433429Y-88413238D01*
X155471524Y-88394190D01*
X155566762Y-88394190D01*
X155604857Y-88413238D01*
X155623905Y-88432285D01*
X155642952Y-88470381D01*
X155642952Y-88584666D01*
X155623905Y-88622762D01*
X155604857Y-88641809D01*
X139320573Y-102823905D02*
X139377716Y-102842952D01*
X139472954Y-102842952D01*
X139511050Y-102823905D01*
X139530097Y-102804857D01*
X139549145Y-102766762D01*
X139549145Y-102728667D01*
X139530097Y-102690571D01*
X139511050Y-102671524D01*
X139472954Y-102652476D01*
X139396764Y-102633429D01*
X139358669Y-102614381D01*
X139339621Y-102595333D01*
X139320573Y-102557238D01*
X139320573Y-102519143D01*
X139339621Y-102481048D01*
X139358669Y-102462000D01*
X139396764Y-102442952D01*
X139492002Y-102442952D01*
X139549145Y-102462000D01*
X139720573Y-102842952D02*
X139720573Y-102442952D01*
X139853906Y-102728667D01*
X139987240Y-102442952D01*
X139987240Y-102842952D01*
X140311049Y-102633429D02*
X140368192Y-102652476D01*
X140387240Y-102671524D01*
X140406288Y-102709619D01*
X140406288Y-102766762D01*
X140387240Y-102804857D01*
X140368192Y-102823905D01*
X140330097Y-102842952D01*
X140177716Y-102842952D01*
X140177716Y-102442952D01*
X140311049Y-102442952D01*
X140349145Y-102462000D01*
X140368192Y-102481048D01*
X140387240Y-102519143D01*
X140387240Y-102557238D01*
X140368192Y-102595333D01*
X140349145Y-102614381D01*
X140311049Y-102633429D01*
X140177716Y-102633429D01*
X140577716Y-102842952D02*
X140577716Y-102442952D01*
X140672954Y-102442952D01*
X140730097Y-102462000D01*
X140768192Y-102500095D01*
X140787240Y-102538190D01*
X140806288Y-102614381D01*
X140806288Y-102671524D01*
X140787240Y-102747714D01*
X140768192Y-102785810D01*
X140730097Y-102823905D01*
X140672954Y-102842952D01*
X140577716Y-102842952D01*
X140996764Y-102842952D02*
X141072954Y-102842952D01*
X141111049Y-102823905D01*
X141130097Y-102804857D01*
X141168192Y-102747714D01*
X141187240Y-102671524D01*
X141187240Y-102519143D01*
X141168192Y-102481048D01*
X141149145Y-102462000D01*
X141111049Y-102442952D01*
X141034859Y-102442952D01*
X140996764Y-102462000D01*
X140977716Y-102481048D01*
X140958668Y-102519143D01*
X140958668Y-102614381D01*
X140977716Y-102652476D01*
X140996764Y-102671524D01*
X141034859Y-102690571D01*
X141111049Y-102690571D01*
X141149145Y-102671524D01*
X141168192Y-102652476D01*
X141187240Y-102614381D01*
X141568192Y-102842952D02*
X141339620Y-102842952D01*
X141453906Y-102842952D02*
X141453906Y-102442952D01*
X141415811Y-102500095D01*
X141377716Y-102538190D01*
X141339620Y-102557238D01*
X141911049Y-102576286D02*
X141911049Y-102842952D01*
X141815811Y-102423905D02*
X141720572Y-102709619D01*
X141968192Y-102709619D01*
X142120572Y-102633429D02*
X142253905Y-102633429D01*
X142311048Y-102842952D02*
X142120572Y-102842952D01*
X142120572Y-102442952D01*
X142311048Y-102442952D01*
X142653906Y-102442952D02*
X142577715Y-102442952D01*
X142539620Y-102462000D01*
X142520572Y-102481048D01*
X142482477Y-102538190D01*
X142463429Y-102614381D01*
X142463429Y-102766762D01*
X142482477Y-102804857D01*
X142501525Y-102823905D01*
X142539620Y-102842952D01*
X142615810Y-102842952D01*
X142653906Y-102823905D01*
X142672953Y-102804857D01*
X142692001Y-102766762D01*
X142692001Y-102671524D01*
X142672953Y-102633429D01*
X142653906Y-102614381D01*
X142615810Y-102595333D01*
X142539620Y-102595333D01*
X142501525Y-102614381D01*
X142482477Y-102633429D01*
X142463429Y-102671524D01*
X142825334Y-102442952D02*
X143072953Y-102442952D01*
X142939620Y-102595333D01*
X142996762Y-102595333D01*
X143034858Y-102614381D01*
X143053905Y-102633429D01*
X143072953Y-102671524D01*
X143072953Y-102766762D01*
X143053905Y-102804857D01*
X143034858Y-102823905D01*
X142996762Y-102842952D01*
X142882477Y-102842952D01*
X142844381Y-102823905D01*
X142825334Y-102804857D01*
X143225333Y-102481048D02*
X143244381Y-102462000D01*
X143282476Y-102442952D01*
X143377714Y-102442952D01*
X143415810Y-102462000D01*
X143434857Y-102481048D01*
X143453905Y-102519143D01*
X143453905Y-102557238D01*
X143434857Y-102614381D01*
X143206286Y-102842952D01*
X143453905Y-102842952D01*
X143587238Y-102442952D02*
X143853905Y-102442952D01*
X143682476Y-102842952D01*
X144006285Y-102842952D02*
X144006285Y-102442952D01*
X144006285Y-102633429D02*
X144234857Y-102633429D01*
X144234857Y-102842952D02*
X144234857Y-102442952D01*
X144368190Y-102442952D02*
X144596762Y-102442952D01*
X144482476Y-102842952D02*
X144482476Y-102442952D01*
X144711047Y-102823905D02*
X144768190Y-102842952D01*
X144863428Y-102842952D01*
X144901524Y-102823905D01*
X144920571Y-102804857D01*
X144939619Y-102766762D01*
X144939619Y-102728667D01*
X144920571Y-102690571D01*
X144901524Y-102671524D01*
X144863428Y-102652476D01*
X144787238Y-102633429D01*
X144749143Y-102614381D01*
X144730095Y-102595333D01*
X144711047Y-102557238D01*
X144711047Y-102519143D01*
X144730095Y-102481048D01*
X144749143Y-102462000D01*
X144787238Y-102442952D01*
X144882476Y-102442952D01*
X144939619Y-102462000D01*
X145091999Y-102728667D02*
X145282476Y-102728667D01*
X145053904Y-102842952D02*
X145187238Y-102442952D01*
X145320571Y-102842952D01*
X145663428Y-102842952D02*
X145434856Y-102842952D01*
X145549142Y-102842952D02*
X145549142Y-102442952D01*
X145511047Y-102500095D01*
X145472952Y-102538190D01*
X145434856Y-102557238D01*
X142196762Y-107842952D02*
X142196762Y-107442952D01*
X142292000Y-107442952D01*
X142349143Y-107462000D01*
X142387238Y-107500095D01*
X142406286Y-107538190D01*
X142425334Y-107614381D01*
X142425334Y-107671524D01*
X142406286Y-107747714D01*
X142387238Y-107785810D01*
X142349143Y-107823905D01*
X142292000Y-107842952D01*
X142196762Y-107842952D01*
X142806286Y-107842952D02*
X142577714Y-107842952D01*
X142692000Y-107842952D02*
X142692000Y-107442952D01*
X142653905Y-107500095D01*
X142615810Y-107538190D01*
X142577714Y-107557238D01*
X147344952Y-98389047D02*
X147344952Y-98350952D01*
X147364000Y-98312857D01*
X147383048Y-98293809D01*
X147421143Y-98274762D01*
X147497333Y-98255714D01*
X147592571Y-98255714D01*
X147668762Y-98274762D01*
X147706857Y-98293809D01*
X147725905Y-98312857D01*
X147744952Y-98350952D01*
X147744952Y-98389047D01*
X147725905Y-98427143D01*
X147706857Y-98446190D01*
X147668762Y-98465238D01*
X147592571Y-98484286D01*
X147497333Y-98484286D01*
X147421143Y-98465238D01*
X147383048Y-98446190D01*
X147364000Y-98427143D01*
X147344952Y-98389047D01*
X146244952Y-98436666D02*
X146054476Y-98570000D01*
X146244952Y-98665238D02*
X145844952Y-98665238D01*
X145844952Y-98512857D01*
X145864000Y-98474762D01*
X145883048Y-98455714D01*
X145921143Y-98436666D01*
X145978286Y-98436666D01*
X146016381Y-98455714D01*
X146035429Y-98474762D01*
X146054476Y-98512857D01*
X146054476Y-98665238D01*
X145978286Y-98093809D02*
X146244952Y-98093809D01*
X145825905Y-98189047D02*
X146111619Y-98284286D01*
X146111619Y-98036666D01*
X145312952Y-98389047D02*
X145312952Y-98350952D01*
X145332000Y-98312857D01*
X145351048Y-98293809D01*
X145389143Y-98274762D01*
X145465333Y-98255714D01*
X145560571Y-98255714D01*
X145636762Y-98274762D01*
X145674857Y-98293809D01*
X145693905Y-98312857D01*
X145712952Y-98350952D01*
X145712952Y-98389047D01*
X145693905Y-98427143D01*
X145674857Y-98446190D01*
X145636762Y-98465238D01*
X145560571Y-98484286D01*
X145465333Y-98484286D01*
X145389143Y-98465238D01*
X145351048Y-98446190D01*
X145332000Y-98427143D01*
X145312952Y-98389047D01*
X144212952Y-98436666D02*
X144022476Y-98570000D01*
X144212952Y-98665238D02*
X143812952Y-98665238D01*
X143812952Y-98512857D01*
X143832000Y-98474762D01*
X143851048Y-98455714D01*
X143889143Y-98436666D01*
X143946286Y-98436666D01*
X143984381Y-98455714D01*
X144003429Y-98474762D01*
X144022476Y-98512857D01*
X144022476Y-98665238D01*
X143812952Y-98093809D02*
X143812952Y-98170000D01*
X143832000Y-98208095D01*
X143851048Y-98227143D01*
X143908190Y-98265238D01*
X143984381Y-98284286D01*
X144136762Y-98284286D01*
X144174857Y-98265238D01*
X144193905Y-98246190D01*
X144212952Y-98208095D01*
X144212952Y-98131905D01*
X144193905Y-98093809D01*
X144174857Y-98074762D01*
X144136762Y-98055714D01*
X144041524Y-98055714D01*
X144003429Y-98074762D01*
X143984381Y-98093809D01*
X143965333Y-98131905D01*
X143965333Y-98208095D01*
X143984381Y-98246190D01*
X144003429Y-98265238D01*
X144041524Y-98284286D01*
X143534952Y-98389047D02*
X143534952Y-98350952D01*
X143554000Y-98312857D01*
X143573048Y-98293809D01*
X143611143Y-98274762D01*
X143687333Y-98255714D01*
X143782571Y-98255714D01*
X143858762Y-98274762D01*
X143896857Y-98293809D01*
X143915905Y-98312857D01*
X143934952Y-98350952D01*
X143934952Y-98389047D01*
X143915905Y-98427143D01*
X143896857Y-98446190D01*
X143858762Y-98465238D01*
X143782571Y-98484286D01*
X143687333Y-98484286D01*
X143611143Y-98465238D01*
X143573048Y-98446190D01*
X143554000Y-98427143D01*
X143534952Y-98389047D01*
X142434952Y-98436666D02*
X142244476Y-98570000D01*
X142434952Y-98665238D02*
X142034952Y-98665238D01*
X142034952Y-98512857D01*
X142054000Y-98474762D01*
X142073048Y-98455714D01*
X142111143Y-98436666D01*
X142168286Y-98436666D01*
X142206381Y-98455714D01*
X142225429Y-98474762D01*
X142244476Y-98512857D01*
X142244476Y-98665238D01*
X142034952Y-98303333D02*
X142034952Y-98036666D01*
X142434952Y-98208095D01*
X148868952Y-98377047D02*
X148868952Y-98338952D01*
X148888000Y-98300857D01*
X148907048Y-98281809D01*
X148945143Y-98262762D01*
X149021333Y-98243714D01*
X149116571Y-98243714D01*
X149192762Y-98262762D01*
X149230857Y-98281809D01*
X149249905Y-98300857D01*
X149268952Y-98338952D01*
X149268952Y-98377047D01*
X149249905Y-98415143D01*
X149230857Y-98434190D01*
X149192762Y-98453238D01*
X149116571Y-98472286D01*
X149021333Y-98472286D01*
X148945143Y-98453238D01*
X148907048Y-98434190D01*
X148888000Y-98415143D01*
X148868952Y-98377047D01*
X147768952Y-98424666D02*
X147578476Y-98558000D01*
X147768952Y-98653238D02*
X147368952Y-98653238D01*
X147368952Y-98500857D01*
X147388000Y-98462762D01*
X147407048Y-98443714D01*
X147445143Y-98424666D01*
X147502286Y-98424666D01*
X147540381Y-98443714D01*
X147559429Y-98462762D01*
X147578476Y-98500857D01*
X147578476Y-98653238D01*
X147540381Y-98196095D02*
X147521333Y-98234190D01*
X147502286Y-98253238D01*
X147464190Y-98272286D01*
X147445143Y-98272286D01*
X147407048Y-98253238D01*
X147388000Y-98234190D01*
X147368952Y-98196095D01*
X147368952Y-98119905D01*
X147388000Y-98081809D01*
X147407048Y-98062762D01*
X147445143Y-98043714D01*
X147464190Y-98043714D01*
X147502286Y-98062762D01*
X147521333Y-98081809D01*
X147540381Y-98119905D01*
X147540381Y-98196095D01*
X147559429Y-98234190D01*
X147578476Y-98253238D01*
X147616571Y-98272286D01*
X147692762Y-98272286D01*
X147730857Y-98253238D01*
X147749905Y-98234190D01*
X147768952Y-98196095D01*
X147768952Y-98119905D01*
X147749905Y-98081809D01*
X147730857Y-98062762D01*
X147692762Y-98043714D01*
X147616571Y-98043714D01*
X147578476Y-98062762D01*
X147559429Y-98081809D01*
X147540381Y-98119905D01*
X150020573Y-102823905D02*
X150077716Y-102842952D01*
X150172954Y-102842952D01*
X150211050Y-102823905D01*
X150230097Y-102804857D01*
X150249145Y-102766762D01*
X150249145Y-102728667D01*
X150230097Y-102690571D01*
X150211050Y-102671524D01*
X150172954Y-102652476D01*
X150096764Y-102633429D01*
X150058669Y-102614381D01*
X150039621Y-102595333D01*
X150020573Y-102557238D01*
X150020573Y-102519143D01*
X150039621Y-102481048D01*
X150058669Y-102462000D01*
X150096764Y-102442952D01*
X150192002Y-102442952D01*
X150249145Y-102462000D01*
X150420573Y-102842952D02*
X150420573Y-102442952D01*
X150553906Y-102728667D01*
X150687240Y-102442952D01*
X150687240Y-102842952D01*
X151011049Y-102633429D02*
X151068192Y-102652476D01*
X151087240Y-102671524D01*
X151106288Y-102709619D01*
X151106288Y-102766762D01*
X151087240Y-102804857D01*
X151068192Y-102823905D01*
X151030097Y-102842952D01*
X150877716Y-102842952D01*
X150877716Y-102442952D01*
X151011049Y-102442952D01*
X151049145Y-102462000D01*
X151068192Y-102481048D01*
X151087240Y-102519143D01*
X151087240Y-102557238D01*
X151068192Y-102595333D01*
X151049145Y-102614381D01*
X151011049Y-102633429D01*
X150877716Y-102633429D01*
X151277716Y-102842952D02*
X151277716Y-102442952D01*
X151372954Y-102442952D01*
X151430097Y-102462000D01*
X151468192Y-102500095D01*
X151487240Y-102538190D01*
X151506288Y-102614381D01*
X151506288Y-102671524D01*
X151487240Y-102747714D01*
X151468192Y-102785810D01*
X151430097Y-102823905D01*
X151372954Y-102842952D01*
X151277716Y-102842952D01*
X151696764Y-102842952D02*
X151772954Y-102842952D01*
X151811049Y-102823905D01*
X151830097Y-102804857D01*
X151868192Y-102747714D01*
X151887240Y-102671524D01*
X151887240Y-102519143D01*
X151868192Y-102481048D01*
X151849145Y-102462000D01*
X151811049Y-102442952D01*
X151734859Y-102442952D01*
X151696764Y-102462000D01*
X151677716Y-102481048D01*
X151658668Y-102519143D01*
X151658668Y-102614381D01*
X151677716Y-102652476D01*
X151696764Y-102671524D01*
X151734859Y-102690571D01*
X151811049Y-102690571D01*
X151849145Y-102671524D01*
X151868192Y-102652476D01*
X151887240Y-102614381D01*
X152268192Y-102842952D02*
X152039620Y-102842952D01*
X152153906Y-102842952D02*
X152153906Y-102442952D01*
X152115811Y-102500095D01*
X152077716Y-102538190D01*
X152039620Y-102557238D01*
X152611049Y-102576286D02*
X152611049Y-102842952D01*
X152515811Y-102423905D02*
X152420572Y-102709619D01*
X152668192Y-102709619D01*
X152820572Y-102633429D02*
X152953905Y-102633429D01*
X153011048Y-102842952D02*
X152820572Y-102842952D01*
X152820572Y-102442952D01*
X153011048Y-102442952D01*
X153353906Y-102442952D02*
X153277715Y-102442952D01*
X153239620Y-102462000D01*
X153220572Y-102481048D01*
X153182477Y-102538190D01*
X153163429Y-102614381D01*
X153163429Y-102766762D01*
X153182477Y-102804857D01*
X153201525Y-102823905D01*
X153239620Y-102842952D01*
X153315810Y-102842952D01*
X153353906Y-102823905D01*
X153372953Y-102804857D01*
X153392001Y-102766762D01*
X153392001Y-102671524D01*
X153372953Y-102633429D01*
X153353906Y-102614381D01*
X153315810Y-102595333D01*
X153239620Y-102595333D01*
X153201525Y-102614381D01*
X153182477Y-102633429D01*
X153163429Y-102671524D01*
X153525334Y-102442952D02*
X153772953Y-102442952D01*
X153639620Y-102595333D01*
X153696762Y-102595333D01*
X153734858Y-102614381D01*
X153753905Y-102633429D01*
X153772953Y-102671524D01*
X153772953Y-102766762D01*
X153753905Y-102804857D01*
X153734858Y-102823905D01*
X153696762Y-102842952D01*
X153582477Y-102842952D01*
X153544381Y-102823905D01*
X153525334Y-102804857D01*
X153925333Y-102481048D02*
X153944381Y-102462000D01*
X153982476Y-102442952D01*
X154077714Y-102442952D01*
X154115810Y-102462000D01*
X154134857Y-102481048D01*
X154153905Y-102519143D01*
X154153905Y-102557238D01*
X154134857Y-102614381D01*
X153906286Y-102842952D01*
X154153905Y-102842952D01*
X154287238Y-102442952D02*
X154553905Y-102442952D01*
X154382476Y-102842952D01*
X154706285Y-102842952D02*
X154706285Y-102442952D01*
X154706285Y-102633429D02*
X154934857Y-102633429D01*
X154934857Y-102842952D02*
X154934857Y-102442952D01*
X155068190Y-102442952D02*
X155296762Y-102442952D01*
X155182476Y-102842952D02*
X155182476Y-102442952D01*
X155411047Y-102823905D02*
X155468190Y-102842952D01*
X155563428Y-102842952D01*
X155601524Y-102823905D01*
X155620571Y-102804857D01*
X155639619Y-102766762D01*
X155639619Y-102728667D01*
X155620571Y-102690571D01*
X155601524Y-102671524D01*
X155563428Y-102652476D01*
X155487238Y-102633429D01*
X155449143Y-102614381D01*
X155430095Y-102595333D01*
X155411047Y-102557238D01*
X155411047Y-102519143D01*
X155430095Y-102481048D01*
X155449143Y-102462000D01*
X155487238Y-102442952D01*
X155582476Y-102442952D01*
X155639619Y-102462000D01*
X155791999Y-102728667D02*
X155982476Y-102728667D01*
X155753904Y-102842952D02*
X155887238Y-102442952D01*
X156020571Y-102842952D01*
X156363428Y-102842952D02*
X156134856Y-102842952D01*
X156249142Y-102842952D02*
X156249142Y-102442952D01*
X156211047Y-102500095D01*
X156172952Y-102538190D01*
X156134856Y-102557238D01*
X152896762Y-107842952D02*
X152896762Y-107442952D01*
X152992000Y-107442952D01*
X153049143Y-107462000D01*
X153087238Y-107500095D01*
X153106286Y-107538190D01*
X153125334Y-107614381D01*
X153125334Y-107671524D01*
X153106286Y-107747714D01*
X153087238Y-107785810D01*
X153049143Y-107823905D01*
X152992000Y-107842952D01*
X152896762Y-107842952D01*
X153258667Y-107442952D02*
X153506286Y-107442952D01*
X153372953Y-107595333D01*
X153430095Y-107595333D01*
X153468191Y-107614381D01*
X153487238Y-107633429D01*
X153506286Y-107671524D01*
X153506286Y-107766762D01*
X153487238Y-107804857D01*
X153468191Y-107823905D01*
X153430095Y-107842952D01*
X153315810Y-107842952D01*
X153277714Y-107823905D01*
X153258667Y-107804857D01*
X146975620Y-102974952D02*
X146747048Y-102974952D01*
X146861334Y-102974952D02*
X146861334Y-102574952D01*
X146823239Y-102632095D01*
X146785144Y-102670190D01*
X146747048Y-102689238D01*
X147147048Y-102974952D02*
X147147048Y-102574952D01*
X147375620Y-102974952D01*
X147375620Y-102574952D01*
X147756572Y-102574952D02*
X147566096Y-102574952D01*
X147547048Y-102765429D01*
X147566096Y-102746381D01*
X147604191Y-102727333D01*
X147699429Y-102727333D01*
X147737525Y-102746381D01*
X147756572Y-102765429D01*
X147775620Y-102803524D01*
X147775620Y-102898762D01*
X147756572Y-102936857D01*
X147737525Y-102955905D01*
X147699429Y-102974952D01*
X147604191Y-102974952D01*
X147566096Y-102955905D01*
X147547048Y-102936857D01*
X148004191Y-102746381D02*
X147966096Y-102727333D01*
X147947048Y-102708286D01*
X147928000Y-102670190D01*
X147928000Y-102651143D01*
X147947048Y-102613048D01*
X147966096Y-102594000D01*
X148004191Y-102574952D01*
X148080381Y-102574952D01*
X148118477Y-102594000D01*
X148137524Y-102613048D01*
X148156572Y-102651143D01*
X148156572Y-102670190D01*
X148137524Y-102708286D01*
X148118477Y-102727333D01*
X148080381Y-102746381D01*
X148004191Y-102746381D01*
X147966096Y-102765429D01*
X147947048Y-102784476D01*
X147928000Y-102822571D01*
X147928000Y-102898762D01*
X147947048Y-102936857D01*
X147966096Y-102955905D01*
X148004191Y-102974952D01*
X148080381Y-102974952D01*
X148118477Y-102955905D01*
X148137524Y-102936857D01*
X148156572Y-102898762D01*
X148156572Y-102822571D01*
X148137524Y-102784476D01*
X148118477Y-102765429D01*
X148080381Y-102746381D01*
X148537524Y-102974952D02*
X148308952Y-102974952D01*
X148423238Y-102974952D02*
X148423238Y-102574952D01*
X148385143Y-102632095D01*
X148347048Y-102670190D01*
X148308952Y-102689238D01*
X148728000Y-102974952D02*
X148804190Y-102974952D01*
X148842285Y-102955905D01*
X148861333Y-102936857D01*
X148899428Y-102879714D01*
X148918476Y-102803524D01*
X148918476Y-102651143D01*
X148899428Y-102613048D01*
X148880381Y-102594000D01*
X148842285Y-102574952D01*
X148766095Y-102574952D01*
X148728000Y-102594000D01*
X148708952Y-102613048D01*
X148689904Y-102651143D01*
X148689904Y-102746381D01*
X148708952Y-102784476D01*
X148728000Y-102803524D01*
X148766095Y-102822571D01*
X148842285Y-102822571D01*
X148880381Y-102803524D01*
X148899428Y-102784476D01*
X148918476Y-102746381D01*
X149089904Y-102974952D02*
X149089904Y-102574952D01*
X149089904Y-102765429D02*
X149318476Y-102765429D01*
X149318476Y-102974952D02*
X149318476Y-102574952D01*
X149470857Y-102574952D02*
X149566095Y-102974952D01*
X149642285Y-102689238D01*
X149718476Y-102974952D01*
X149813714Y-102574952D01*
X149966095Y-102822571D02*
X150270857Y-102822571D01*
X150423238Y-102574952D02*
X150689905Y-102574952D01*
X150518476Y-102974952D01*
X150842285Y-102822571D02*
X151147047Y-102822571D01*
X151470856Y-102765429D02*
X151337523Y-102765429D01*
X151337523Y-102974952D02*
X151337523Y-102574952D01*
X151527999Y-102574952D01*
X148832762Y-107974952D02*
X148832762Y-107574952D01*
X148928000Y-107574952D01*
X148985143Y-107594000D01*
X149023238Y-107632095D01*
X149042286Y-107670190D01*
X149061334Y-107746381D01*
X149061334Y-107803524D01*
X149042286Y-107879714D01*
X149023238Y-107917810D01*
X148985143Y-107955905D01*
X148928000Y-107974952D01*
X148832762Y-107974952D01*
X149213714Y-107613048D02*
X149232762Y-107594000D01*
X149270857Y-107574952D01*
X149366095Y-107574952D01*
X149404191Y-107594000D01*
X149423238Y-107613048D01*
X149442286Y-107651143D01*
X149442286Y-107689238D01*
X149423238Y-107746381D01*
X149194667Y-107974952D01*
X149442286Y-107974952D01*
X152936505Y-90424323D02*
X152955552Y-90367180D01*
X152955552Y-90271942D01*
X152936505Y-90233846D01*
X152917457Y-90214799D01*
X152879362Y-90195751D01*
X152841267Y-90195751D01*
X152803171Y-90214799D01*
X152784124Y-90233846D01*
X152765076Y-90271942D01*
X152746029Y-90348132D01*
X152726981Y-90386227D01*
X152707933Y-90405275D01*
X152669838Y-90424323D01*
X152631743Y-90424323D01*
X152593648Y-90405275D01*
X152574600Y-90386227D01*
X152555552Y-90348132D01*
X152555552Y-90252894D01*
X152574600Y-90195751D01*
X152555552Y-90081466D02*
X152555552Y-89852894D01*
X152955552Y-89967180D02*
X152555552Y-89967180D01*
X152955552Y-89719561D02*
X152555552Y-89719561D01*
X152841267Y-89586228D01*
X152555552Y-89452894D01*
X152955552Y-89452894D01*
X152555552Y-89300513D02*
X152555552Y-89052894D01*
X152707933Y-89186227D01*
X152707933Y-89129085D01*
X152726981Y-89090989D01*
X152746029Y-89071942D01*
X152784124Y-89052894D01*
X152879362Y-89052894D01*
X152917457Y-89071942D01*
X152936505Y-89090989D01*
X152955552Y-89129085D01*
X152955552Y-89243370D01*
X152936505Y-89281466D01*
X152917457Y-89300513D01*
X152593648Y-88900514D02*
X152574600Y-88881466D01*
X152555552Y-88843371D01*
X152555552Y-88748133D01*
X152574600Y-88710037D01*
X152593648Y-88690990D01*
X152631743Y-88671942D01*
X152669838Y-88671942D01*
X152726981Y-88690990D01*
X152955552Y-88919561D01*
X152955552Y-88671942D01*
X152746029Y-88367181D02*
X152746029Y-88500514D01*
X152955552Y-88500514D02*
X152555552Y-88500514D01*
X152555552Y-88310038D01*
X152555552Y-88081466D02*
X152555552Y-88043371D01*
X152574600Y-88005276D01*
X152593648Y-87986228D01*
X152631743Y-87967181D01*
X152707933Y-87948133D01*
X152803171Y-87948133D01*
X152879362Y-87967181D01*
X152917457Y-87986228D01*
X152936505Y-88005276D01*
X152955552Y-88043371D01*
X152955552Y-88081466D01*
X152936505Y-88119562D01*
X152917457Y-88138609D01*
X152879362Y-88157657D01*
X152803171Y-88176705D01*
X152707933Y-88176705D01*
X152631743Y-88157657D01*
X152593648Y-88138609D01*
X152574600Y-88119562D01*
X152555552Y-88081466D01*
X152688886Y-87605276D02*
X152955552Y-87605276D01*
X152536505Y-87700514D02*
X152822219Y-87795753D01*
X152822219Y-87548133D01*
X152593648Y-87414801D02*
X152574600Y-87395753D01*
X152555552Y-87357658D01*
X152555552Y-87262420D01*
X152574600Y-87224324D01*
X152593648Y-87205277D01*
X152631743Y-87186229D01*
X152669838Y-87186229D01*
X152726981Y-87205277D01*
X152955552Y-87433848D01*
X152955552Y-87186229D01*
X152574600Y-86805277D02*
X152555552Y-86843372D01*
X152555552Y-86900515D01*
X152574600Y-86957658D01*
X152612695Y-86995753D01*
X152650790Y-87014801D01*
X152726981Y-87033849D01*
X152784124Y-87033849D01*
X152860314Y-87014801D01*
X152898410Y-86995753D01*
X152936505Y-86957658D01*
X152955552Y-86900515D01*
X152955552Y-86862420D01*
X152936505Y-86805277D01*
X152917457Y-86786229D01*
X152784124Y-86786229D01*
X152784124Y-86862420D01*
X152688886Y-86443372D02*
X152955552Y-86443372D01*
X152536505Y-86538610D02*
X152822219Y-86633849D01*
X152822219Y-86386229D01*
X152555552Y-86233849D02*
X152879362Y-86233849D01*
X152917457Y-86214801D01*
X152936505Y-86195754D01*
X152955552Y-86157658D01*
X152955552Y-86081468D01*
X152936505Y-86043373D01*
X152917457Y-86024325D01*
X152879362Y-86005277D01*
X152555552Y-86005277D01*
X152555552Y-85643372D02*
X152555552Y-85719563D01*
X152574600Y-85757658D01*
X152593648Y-85776706D01*
X152650790Y-85814801D01*
X152726981Y-85833849D01*
X152879362Y-85833849D01*
X152917457Y-85814801D01*
X152936505Y-85795753D01*
X152955552Y-85757658D01*
X152955552Y-85681468D01*
X152936505Y-85643372D01*
X152917457Y-85624325D01*
X152879362Y-85605277D01*
X152784124Y-85605277D01*
X152746029Y-85624325D01*
X152726981Y-85643372D01*
X152707933Y-85681468D01*
X152707933Y-85757658D01*
X152726981Y-85795753D01*
X152746029Y-85814801D01*
X152784124Y-85833849D01*
X148262952Y-88268762D02*
X148586762Y-88268762D01*
X148624857Y-88249714D01*
X148643905Y-88230667D01*
X148662952Y-88192571D01*
X148662952Y-88116381D01*
X148643905Y-88078286D01*
X148624857Y-88059238D01*
X148586762Y-88040190D01*
X148262952Y-88040190D01*
X148396286Y-87678285D02*
X148662952Y-87678285D01*
X148243905Y-87773523D02*
X148529619Y-87868762D01*
X148529619Y-87621142D01*
X144093142Y-99409472D02*
X144093142Y-99009472D01*
X144226475Y-99295187D01*
X144359809Y-99009472D01*
X144359809Y-99409472D01*
X144531237Y-99295187D02*
X144721714Y-99295187D01*
X144493142Y-99409472D02*
X144626476Y-99009472D01*
X144759809Y-99409472D01*
X144855047Y-99009472D02*
X145121714Y-99409472D01*
X145121714Y-99009472D02*
X144855047Y-99409472D01*
X145483618Y-99409472D02*
X145255046Y-99409472D01*
X145369332Y-99409472D02*
X145369332Y-99009472D01*
X145331237Y-99066615D01*
X145293142Y-99104710D01*
X145255046Y-99123758D01*
X145635998Y-99047568D02*
X145655046Y-99028520D01*
X145693141Y-99009472D01*
X145788379Y-99009472D01*
X145826475Y-99028520D01*
X145845522Y-99047568D01*
X145864570Y-99085663D01*
X145864570Y-99123758D01*
X145845522Y-99180901D01*
X145616951Y-99409472D01*
X145864570Y-99409472D01*
X146055046Y-99409472D02*
X146131236Y-99409472D01*
X146169331Y-99390425D01*
X146188379Y-99371377D01*
X146226474Y-99314234D01*
X146245522Y-99238044D01*
X146245522Y-99085663D01*
X146226474Y-99047568D01*
X146207427Y-99028520D01*
X146169331Y-99009472D01*
X146093141Y-99009472D01*
X146055046Y-99028520D01*
X146035998Y-99047568D01*
X146016950Y-99085663D01*
X146016950Y-99180901D01*
X146035998Y-99218996D01*
X146055046Y-99238044D01*
X146093141Y-99257091D01*
X146169331Y-99257091D01*
X146207427Y-99238044D01*
X146226474Y-99218996D01*
X146245522Y-99180901D01*
X146378855Y-99009472D02*
X146626474Y-99009472D01*
X146493141Y-99161853D01*
X146550283Y-99161853D01*
X146588379Y-99180901D01*
X146607426Y-99199949D01*
X146626474Y-99238044D01*
X146626474Y-99333282D01*
X146607426Y-99371377D01*
X146588379Y-99390425D01*
X146550283Y-99409472D01*
X146435998Y-99409472D01*
X146397902Y-99390425D01*
X146378855Y-99371377D01*
X147007426Y-99409472D02*
X146778854Y-99409472D01*
X146893140Y-99409472D02*
X146893140Y-99009472D01*
X146855045Y-99066615D01*
X146816950Y-99104710D01*
X146778854Y-99123758D01*
X148638952Y-101235999D02*
X148638952Y-101007427D01*
X149038952Y-101121713D02*
X148638952Y-101121713D01*
X148638952Y-100759808D02*
X148924667Y-100759808D01*
X148981810Y-100778856D01*
X149019905Y-100816951D01*
X149038952Y-100874094D01*
X149038952Y-100912189D01*
X148924667Y-100588380D02*
X148924667Y-100397903D01*
X149038952Y-100626475D02*
X148638952Y-100493141D01*
X149038952Y-100359808D01*
X149038952Y-100016951D02*
X149038952Y-100245523D01*
X149038952Y-100131237D02*
X148638952Y-100131237D01*
X148696095Y-100169332D01*
X148734190Y-100207427D01*
X148753238Y-100245523D01*
X148638952Y-99769332D02*
X148638952Y-99731237D01*
X148658000Y-99693142D01*
X148677048Y-99674094D01*
X148715143Y-99655047D01*
X148791333Y-99635999D01*
X148886571Y-99635999D01*
X148962762Y-99655047D01*
X149000857Y-99674094D01*
X149019905Y-99693142D01*
X149038952Y-99731237D01*
X149038952Y-99769332D01*
X149019905Y-99807428D01*
X149000857Y-99826475D01*
X148962762Y-99845523D01*
X148886571Y-99864571D01*
X148791333Y-99864571D01*
X148715143Y-99845523D01*
X148677048Y-99826475D01*
X148658000Y-99807428D01*
X148638952Y-99769332D01*
X148677048Y-99483619D02*
X148658000Y-99464571D01*
X148638952Y-99426476D01*
X148638952Y-99331238D01*
X148658000Y-99293142D01*
X148677048Y-99274095D01*
X148715143Y-99255047D01*
X148753238Y-99255047D01*
X148810381Y-99274095D01*
X149038952Y-99502666D01*
X149038952Y-99255047D01*
X148810381Y-99026476D02*
X148791333Y-99064571D01*
X148772286Y-99083619D01*
X148734190Y-99102667D01*
X148715143Y-99102667D01*
X148677048Y-99083619D01*
X148658000Y-99064571D01*
X148638952Y-99026476D01*
X148638952Y-98950286D01*
X148658000Y-98912190D01*
X148677048Y-98893143D01*
X148715143Y-98874095D01*
X148734190Y-98874095D01*
X148772286Y-98893143D01*
X148791333Y-98912190D01*
X148810381Y-98950286D01*
X148810381Y-99026476D01*
X148829429Y-99064571D01*
X148848476Y-99083619D01*
X148886571Y-99102667D01*
X148962762Y-99102667D01*
X149000857Y-99083619D01*
X149019905Y-99064571D01*
X149038952Y-99026476D01*
X149038952Y-98950286D01*
X149019905Y-98912190D01*
X149000857Y-98893143D01*
X148962762Y-98874095D01*
X148886571Y-98874095D01*
X148848476Y-98893143D01*
X148829429Y-98912190D01*
X148810381Y-98950286D01*
M02*
