G04 #@! TF.FileFunction,Copper,L1,Top,Signal*
%FSLAX46Y46*%
G04 Gerber Fmt 4.6, Leading zero omitted, Abs format (unit mm)*
G04 Created by KiCad (PCBNEW 4.0.7) date 01/29/18 07:06:24*
%MOMM*%
%LPD*%
G01*
G04 APERTURE LIST*
%ADD10C,0.100000*%
%ADD11R,0.500000X0.600000*%
%ADD12R,0.600000X0.500000*%
%ADD13C,1.000000*%
%ADD14C,2.500000*%
%ADD15R,0.750000X0.800000*%
%ADD16R,1.270000X0.970000*%
%ADD17R,0.900000X0.500000*%
%ADD18R,0.500000X0.900000*%
%ADD19R,0.900000X0.800000*%
%ADD20R,1.700000X1.700000*%
%ADD21O,1.700000X1.700000*%
%ADD22R,1.980000X3.960000*%
%ADD23O,1.980000X3.960000*%
%ADD24R,1.800000X1.000000*%
%ADD25C,1.501140*%
%ADD26O,1.400000X3.800000*%
%ADD27R,0.300000X0.500000*%
%ADD28R,0.300000X0.700000*%
%ADD29R,0.500000X0.300000*%
%ADD30R,0.700000X0.300000*%
%ADD31R,0.150000X0.150000*%
%ADD32R,0.508000X2.000000*%
%ADD33R,0.600000X0.350000*%
%ADD34C,0.600000*%
%ADD35C,0.250000*%
%ADD36C,0.254000*%
G04 APERTURE END LIST*
D10*
D11*
X152668000Y-85374000D03*
X152668000Y-86474000D03*
D12*
X149408000Y-92528000D03*
X148308000Y-92528000D03*
D13*
X148858000Y-80082000D03*
D14*
X142000000Y-109800000D03*
D11*
X154954000Y-97947000D03*
X154954000Y-99047000D03*
D12*
X155504000Y-85416000D03*
X154404000Y-85416000D03*
D15*
X152922000Y-107780000D03*
X152922000Y-109280000D03*
X147842000Y-109534000D03*
X147842000Y-108034000D03*
D12*
X152710000Y-93036000D03*
X151610000Y-93036000D03*
X153726000Y-91512000D03*
X152626000Y-91512000D03*
D16*
X155970000Y-93920000D03*
X155970000Y-95200000D03*
D17*
X156224000Y-104478000D03*
X156224000Y-105978000D03*
X145556000Y-104224000D03*
X145556000Y-105724000D03*
D18*
X146306000Y-92782000D03*
X144806000Y-92782000D03*
X140996000Y-95576000D03*
X142496000Y-95576000D03*
D19*
X154462000Y-87768000D03*
X154462000Y-89668000D03*
X156462000Y-88718000D03*
X143492000Y-106112000D03*
X143492000Y-104212000D03*
X141492000Y-105162000D03*
D20*
X150890000Y-101418000D03*
D21*
X153430000Y-101418000D03*
X155970000Y-101418000D03*
D22*
X155382000Y-109546000D03*
D23*
X150382000Y-109546000D03*
X145382000Y-109546000D03*
D20*
X155970000Y-93290000D03*
D21*
X155970000Y-95830000D03*
D17*
X146064000Y-99120000D03*
X146064000Y-97620000D03*
X144032000Y-99120000D03*
X144032000Y-97620000D03*
X142254000Y-99120000D03*
X142254000Y-97620000D03*
X147588000Y-99108000D03*
X147588000Y-97608000D03*
D19*
X154192000Y-106112000D03*
X154192000Y-104212000D03*
X152192000Y-105162000D03*
D24*
X141746000Y-94052000D03*
X141746000Y-86432000D03*
X141746000Y-88972000D03*
X141746000Y-83892000D03*
X141746000Y-91512000D03*
D25*
X152414860Y-82878120D03*
X149874860Y-82878120D03*
X147842860Y-82878120D03*
X145302860Y-82878120D03*
D26*
X154700000Y-80590000D03*
X143016000Y-80590000D03*
D19*
X150128000Y-106244000D03*
X150128000Y-104344000D03*
X148128000Y-105294000D03*
D27*
X146974000Y-90013040D03*
D28*
X147482000Y-89914000D03*
X148482000Y-89914000D03*
X149482000Y-89914000D03*
D27*
X149990000Y-90016320D03*
D29*
X150539400Y-89472760D03*
D30*
X150432000Y-88964000D03*
X150432000Y-87964000D03*
X150432000Y-87464000D03*
D29*
X150534320Y-86460320D03*
D27*
X149985680Y-85911680D03*
D28*
X148982000Y-86014000D03*
X148482000Y-86014000D03*
X147982000Y-86014000D03*
D27*
X146973240Y-85911680D03*
D29*
X146434760Y-86461080D03*
D30*
X146532000Y-87464000D03*
X146532000Y-87964000D03*
X146532000Y-88464000D03*
D29*
X146424600Y-89467680D03*
D31*
X147049440Y-89686120D03*
X149915000Y-89691920D03*
X150215000Y-89397000D03*
X150209920Y-86536080D03*
X149909920Y-86236080D03*
X147049000Y-86241160D03*
X146759160Y-86536080D03*
X146749720Y-89391920D03*
D10*
G36*
X146823427Y-89467680D02*
X146673520Y-89617587D01*
X146523613Y-89467680D01*
X146673520Y-89317773D01*
X146823427Y-89467680D01*
X146823427Y-89467680D01*
G37*
G36*
X146834067Y-86461080D02*
X146684160Y-86610987D01*
X146534253Y-86461080D01*
X146684160Y-86311173D01*
X146834067Y-86461080D01*
X146834067Y-86461080D01*
G37*
G36*
X150439907Y-89472000D02*
X150290000Y-89621907D01*
X150140093Y-89472000D01*
X150290000Y-89322093D01*
X150439907Y-89472000D01*
X150439907Y-89472000D01*
G37*
G36*
X150434827Y-86461080D02*
X150284920Y-86610987D01*
X150135013Y-86461080D01*
X150284920Y-86311173D01*
X150434827Y-86461080D01*
X150434827Y-86461080D01*
G37*
G36*
X147123147Y-89762320D02*
X146973240Y-89912227D01*
X146823333Y-89762320D01*
X146973240Y-89612413D01*
X147123147Y-89762320D01*
X147123147Y-89762320D01*
G37*
G36*
X147123907Y-86166160D02*
X146974000Y-86316067D01*
X146824093Y-86166160D01*
X146974000Y-86016253D01*
X147123907Y-86166160D01*
X147123907Y-86166160D01*
G37*
G36*
X150139907Y-89766920D02*
X149990000Y-89916827D01*
X149840093Y-89766920D01*
X149990000Y-89617013D01*
X150139907Y-89766920D01*
X150139907Y-89766920D01*
G37*
G36*
X150134827Y-86161080D02*
X149984920Y-86310987D01*
X149835013Y-86161080D01*
X149984920Y-86011173D01*
X150134827Y-86161080D01*
X150134827Y-86161080D01*
G37*
D28*
X147982000Y-89914000D03*
X148982000Y-89914000D03*
D30*
X150432000Y-88464000D03*
X146532000Y-88964000D03*
X150432000Y-86964000D03*
D28*
X149482000Y-86014000D03*
X147482000Y-86014000D03*
D30*
X146532000Y-86964000D03*
D32*
X143778000Y-95870000D03*
X145048000Y-95870000D03*
X146318000Y-95870000D03*
X147588000Y-95870000D03*
X147588000Y-100870000D03*
X146318000Y-100870000D03*
X145048000Y-100870000D03*
X143778000Y-100870000D03*
D33*
X150820000Y-98512000D03*
X150820000Y-97862000D03*
X153560000Y-97212000D03*
X150820000Y-96562000D03*
X153560000Y-98512000D03*
X153560000Y-97862000D03*
X150820000Y-97212000D03*
X153560000Y-96562000D03*
D34*
X144032000Y-88464000D03*
X147334000Y-92528000D03*
X151144000Y-92070000D03*
X143778000Y-93544000D03*
X148350000Y-93544000D03*
X148096000Y-91258000D03*
X143524000Y-92528000D03*
X141746000Y-107006000D03*
X141746000Y-102942000D03*
X142254000Y-100910000D03*
X151906000Y-97862000D03*
D35*
X152668000Y-86474000D02*
X152168000Y-86474000D01*
X152168000Y-86474000D02*
X150983000Y-85289000D01*
X149671998Y-85289000D02*
X149482000Y-85478998D01*
X150983000Y-85289000D02*
X149671998Y-85289000D01*
X149482000Y-85478998D02*
X149482000Y-85539000D01*
X149482000Y-85539000D02*
X149482000Y-86064000D01*
X148308000Y-92528000D02*
X147334000Y-92528000D01*
X151610000Y-93036000D02*
X151610000Y-92536000D01*
X151610000Y-92536000D02*
X151144000Y-92070000D01*
X148308000Y-92528000D02*
X148258000Y-92528000D01*
X148258000Y-92528000D02*
X147588000Y-93198000D01*
X147588000Y-93198000D02*
X147588000Y-97100000D01*
X147588000Y-97100000D02*
X147588000Y-97608000D01*
X151560000Y-93036000D02*
X151610000Y-93036000D01*
X152626000Y-91512000D02*
X152626000Y-92020000D01*
X152626000Y-92020000D02*
X151610000Y-93036000D01*
X154462000Y-87768000D02*
X153762000Y-87768000D01*
X153762000Y-87768000D02*
X152626000Y-88904000D01*
X152626000Y-88904000D02*
X152626000Y-91012000D01*
X152626000Y-91012000D02*
X152626000Y-91512000D01*
X143016000Y-80590000D02*
X143016000Y-81790000D01*
X143016000Y-81790000D02*
X141746000Y-83060000D01*
X141746000Y-83060000D02*
X141746000Y-83142000D01*
X141746000Y-83142000D02*
X141746000Y-83892000D01*
X145302860Y-82878120D02*
X143016000Y-80591260D01*
X143016000Y-80591260D02*
X143016000Y-80590000D01*
X148858000Y-93544000D02*
X148350000Y-93544000D01*
X141746000Y-91512000D02*
X143736000Y-91512000D01*
X143736000Y-91512000D02*
X144806000Y-92582000D01*
X144806000Y-92582000D02*
X144806000Y-92782000D01*
X142496000Y-95576000D02*
X143651000Y-95576000D01*
X143651000Y-95576000D02*
X143778000Y-95449000D01*
X142254000Y-97100000D02*
X142254000Y-97620000D01*
X144806000Y-92782000D02*
X144306000Y-92782000D01*
X144306000Y-92782000D02*
X143778000Y-93310000D01*
X143778000Y-93310000D02*
X143778000Y-95576000D01*
X143778000Y-95576000D02*
X142254000Y-97100000D01*
X141746000Y-91324000D02*
X141746000Y-91512000D01*
X149408000Y-92528000D02*
X149408000Y-92994000D01*
X149408000Y-92994000D02*
X148858000Y-93544000D01*
X152710000Y-93036000D02*
X152660000Y-93036000D01*
X152660000Y-93036000D02*
X152084999Y-93611001D01*
X152084999Y-93611001D02*
X151041001Y-93611001D01*
X151041001Y-93611001D02*
X149958000Y-92528000D01*
X149958000Y-92528000D02*
X149408000Y-92528000D01*
X153726000Y-91512000D02*
X153726000Y-90404000D01*
X153726000Y-90404000D02*
X154462000Y-89668000D01*
X152710000Y-93036000D02*
X153726000Y-92020000D01*
X153726000Y-92020000D02*
X153726000Y-91512000D01*
X148982000Y-89864000D02*
X148982000Y-89339000D01*
X148982000Y-89339000D02*
X148982000Y-86064000D01*
X151618000Y-84824000D02*
X152168000Y-85374000D01*
X149500587Y-84824000D02*
X151618000Y-84824000D01*
X148982000Y-86064000D02*
X148982000Y-85342587D01*
X152168000Y-85374000D02*
X152668000Y-85374000D01*
X148982000Y-85342587D02*
X149500587Y-84824000D01*
X148482000Y-86064000D02*
X148982000Y-86064000D01*
X148982000Y-89864000D02*
X148982000Y-92102000D01*
X148982000Y-92102000D02*
X149408000Y-92528000D01*
X141746000Y-91512000D02*
X141346000Y-91512000D01*
X141746000Y-88972000D02*
X142146000Y-88972000D01*
X142146000Y-88972000D02*
X143860999Y-87257001D01*
X143860999Y-87257001D02*
X144984999Y-87257001D01*
X144984999Y-87257001D02*
X145778000Y-86464000D01*
X145778000Y-86464000D02*
X146482000Y-86464000D01*
X141746000Y-86432000D02*
X143270000Y-86432000D01*
X143270000Y-86432000D02*
X143738000Y-85964000D01*
X143738000Y-85964000D02*
X146982000Y-85964000D01*
X144032000Y-97620000D02*
X144732000Y-97620000D01*
X144732000Y-97620000D02*
X145048000Y-97304000D01*
X145048000Y-97304000D02*
X145048000Y-97120000D01*
X145048000Y-97120000D02*
X145048000Y-95870000D01*
X145048000Y-94941000D02*
X145048000Y-94119500D01*
X145048000Y-94119500D02*
X145431010Y-93736490D01*
X145431010Y-93736490D02*
X145431010Y-89589990D01*
X145431010Y-89589990D02*
X146057000Y-88964000D01*
X146057000Y-88964000D02*
X146582000Y-88964000D01*
X145048000Y-95830000D02*
X145048000Y-94941000D01*
X145048000Y-94941000D02*
X145048000Y-95258500D01*
X146318000Y-95870000D02*
X146318000Y-97227000D01*
X146318000Y-97227000D02*
X146064000Y-97481000D01*
X146064000Y-97481000D02*
X146064000Y-97620000D01*
X146424600Y-89467680D02*
X146658338Y-89467680D01*
X146306000Y-92782000D02*
X146306000Y-91270000D01*
X146306000Y-91270000D02*
X146191000Y-91155000D01*
X146191000Y-91155000D02*
X146191000Y-89755000D01*
X146191000Y-89755000D02*
X146482000Y-89464000D01*
X146318000Y-94941000D02*
X146318000Y-92794000D01*
X146318000Y-92794000D02*
X146306000Y-92782000D01*
X148096000Y-91258000D02*
X148482000Y-90872000D01*
X148482000Y-90872000D02*
X148482000Y-89864000D01*
X143524000Y-92674000D02*
X143524000Y-92528000D01*
X142146000Y-94052000D02*
X143524000Y-92674000D01*
X140996000Y-95576000D02*
X140996000Y-94802000D01*
X140996000Y-94802000D02*
X141746000Y-94052000D01*
X141746000Y-94052000D02*
X142146000Y-94052000D01*
X148482000Y-89864000D02*
X148482000Y-90389000D01*
X155504000Y-85416000D02*
X155504000Y-84916000D01*
X155504000Y-84916000D02*
X154216689Y-83628689D01*
X154216689Y-83628689D02*
X153165429Y-83628689D01*
X153165429Y-83628689D02*
X152414860Y-82878120D01*
X156462000Y-88718000D02*
X156462000Y-86324000D01*
X156462000Y-86324000D02*
X155554000Y-85416000D01*
X155554000Y-85416000D02*
X155504000Y-85416000D01*
X154192000Y-97212000D02*
X153560000Y-97212000D01*
X147588000Y-100124000D02*
X147588000Y-100870000D01*
X152525002Y-97212000D02*
X151143002Y-95830000D01*
X149227978Y-98484022D02*
X147588000Y-100124000D01*
X151143002Y-95830000D02*
X149874000Y-95830000D01*
X154192000Y-97212000D02*
X152525002Y-97212000D01*
X149874000Y-95830000D02*
X149227978Y-96476022D01*
X149227978Y-96476022D02*
X149227978Y-98484022D01*
X150128000Y-106244000D02*
X150128000Y-109292000D01*
X150128000Y-109292000D02*
X150382000Y-109546000D01*
X154254000Y-97212000D02*
X154192000Y-97212000D01*
X154954000Y-97947000D02*
X154954000Y-97897000D01*
X154954000Y-97897000D02*
X154269000Y-97212000D01*
X154269000Y-97212000D02*
X154192000Y-97212000D01*
X150762000Y-109166000D02*
X150382000Y-109546000D01*
X141746000Y-107006000D02*
X141746000Y-109546000D01*
X141746000Y-109546000D02*
X142000000Y-109800000D01*
X152922000Y-107780000D02*
X151130000Y-107780000D01*
X152922000Y-107780000D02*
X152297000Y-107780000D01*
X150531000Y-109546000D02*
X150382000Y-109546000D01*
X152297000Y-107780000D02*
X150531000Y-109546000D01*
X147842000Y-109534000D02*
X150370000Y-109534000D01*
X150370000Y-109534000D02*
X150382000Y-109546000D01*
X153490000Y-96562000D02*
X154924000Y-96562000D01*
X154924000Y-96562000D02*
X155716000Y-97354000D01*
X155716000Y-97354000D02*
X155716000Y-100215919D01*
X155716000Y-100215919D02*
X155716000Y-102620081D01*
X155716000Y-102620081D02*
X155716000Y-101672000D01*
X155716000Y-101672000D02*
X155970000Y-101418000D01*
X155716000Y-102620081D02*
X155208000Y-103128081D01*
X155688998Y-105228000D02*
X156986000Y-105228000D01*
X157240000Y-105482000D02*
X157240000Y-106698000D01*
X155208000Y-103128081D02*
X155208000Y-104747002D01*
X155208000Y-104747002D02*
X155688998Y-105228000D01*
X156986000Y-105228000D02*
X157240000Y-105482000D01*
X157240000Y-106698000D02*
X155382000Y-108556000D01*
X155382000Y-108556000D02*
X155382000Y-109546000D01*
X153490000Y-96562000D02*
X153490000Y-94754000D01*
X153490000Y-94754000D02*
X153684000Y-94560000D01*
X153684000Y-94560000D02*
X153684000Y-94476000D01*
X153684000Y-94476000D02*
X154870000Y-93290000D01*
X154870000Y-93290000D02*
X155970000Y-93290000D01*
X152922000Y-109280000D02*
X155116000Y-109280000D01*
X155116000Y-109280000D02*
X155382000Y-109546000D01*
X151049001Y-100242999D02*
X152728000Y-98564000D01*
X149352999Y-104119001D02*
X149352999Y-100669998D01*
X149779998Y-100242999D02*
X151049001Y-100242999D01*
X148128000Y-105294000D02*
X148178000Y-105294000D01*
X148178000Y-105294000D02*
X149352999Y-104119001D01*
X149352999Y-100669998D02*
X149779998Y-100242999D01*
X147842000Y-108034000D02*
X147842000Y-105580000D01*
X147842000Y-105580000D02*
X148128000Y-105294000D01*
X148112000Y-105162000D02*
X146748000Y-105162000D01*
X146748000Y-105162000D02*
X146318000Y-104732000D01*
X146318000Y-104732000D02*
X146318000Y-104720000D01*
X146318000Y-104720000D02*
X145822000Y-104224000D01*
X145822000Y-104224000D02*
X145810000Y-104224000D01*
X148112000Y-105162000D02*
X147777000Y-105162000D01*
X152780000Y-98512000D02*
X153490000Y-98512000D01*
X152414000Y-98878000D02*
X152780000Y-98512000D01*
X156224000Y-104478000D02*
X156224000Y-103978000D01*
X156224000Y-103978000D02*
X157494000Y-102708000D01*
X157494000Y-102708000D02*
X157494000Y-97354000D01*
X156819999Y-96679999D02*
X155970000Y-95830000D01*
X157494000Y-97354000D02*
X156819999Y-96679999D01*
X147982000Y-86064000D02*
X147982000Y-84770980D01*
X147982000Y-84770980D02*
X149874860Y-82878120D01*
X147482000Y-86064000D02*
X147482000Y-83238980D01*
X147482000Y-83238980D02*
X147842860Y-82878120D01*
X145382000Y-109546000D02*
X146144000Y-108784000D01*
X146144000Y-108784000D02*
X148452002Y-108784000D01*
X148452002Y-108784000D02*
X149066990Y-108169012D01*
X149066990Y-108169012D02*
X149066990Y-105870008D01*
X149066990Y-105870008D02*
X149774998Y-105162000D01*
X149774998Y-105162000D02*
X152192000Y-105162000D01*
X145382000Y-110536000D02*
X145382000Y-109546000D01*
X150636000Y-101418000D02*
X150636000Y-102518000D01*
X150636000Y-102518000D02*
X152192000Y-104074000D01*
X152192000Y-104074000D02*
X152192000Y-104512000D01*
X152192000Y-104512000D02*
X152192000Y-105162000D01*
X143492000Y-106112000D02*
X143542000Y-106112000D01*
X145176000Y-107110000D02*
X145382000Y-107316000D01*
X143542000Y-106112000D02*
X144540000Y-107110000D01*
X144540000Y-107110000D02*
X145176000Y-107110000D01*
X145382000Y-107316000D02*
X145382000Y-109546000D01*
X145810000Y-105724000D02*
X145610000Y-105724000D01*
X145610000Y-105724000D02*
X145048000Y-105162000D01*
X145048000Y-105162000D02*
X142192000Y-105162000D01*
X142192000Y-105162000D02*
X141492000Y-105162000D01*
X153965000Y-97862000D02*
X153560000Y-97862000D01*
X150890000Y-98512000D02*
X151365000Y-98512000D01*
X154954000Y-98851000D02*
X154954000Y-99047000D01*
X151365000Y-98512000D02*
X152015000Y-97862000D01*
X152015000Y-97862000D02*
X153965000Y-97862000D01*
X153965000Y-97862000D02*
X154378999Y-98275999D01*
X154378999Y-98507001D02*
X154443999Y-98572001D01*
X154378999Y-98275999D02*
X154378999Y-98507001D01*
X154443999Y-98572001D02*
X154675001Y-98572001D01*
X154675001Y-98572001D02*
X154954000Y-98851000D01*
X143778000Y-101799000D02*
X143778000Y-100977500D01*
X143778000Y-101799000D02*
X143274000Y-101799000D01*
X143274000Y-101799000D02*
X142254000Y-100779000D01*
X142254000Y-100779000D02*
X142254000Y-99620000D01*
X142254000Y-99620000D02*
X142254000Y-99120000D01*
X142254000Y-100656000D02*
X142254000Y-99120000D01*
X147648000Y-103450000D02*
X146318000Y-102120000D01*
X148452976Y-102966024D02*
X147969000Y-103450000D01*
X146318000Y-102120000D02*
X146318000Y-100870000D01*
X148452976Y-100297200D02*
X148452976Y-102966024D01*
X149677989Y-99072187D02*
X148452976Y-100297200D01*
X149677989Y-97312600D02*
X149677989Y-99072187D01*
X150428589Y-96562000D02*
X149677989Y-97312600D01*
X150890000Y-96562000D02*
X150428589Y-96562000D01*
X147969000Y-103450000D02*
X147648000Y-103450000D01*
X146064000Y-99120000D02*
X146064000Y-100616000D01*
X146064000Y-100616000D02*
X146318000Y-100870000D01*
X146064000Y-99620000D02*
X146064000Y-99120000D01*
X148902987Y-103787424D02*
X148732411Y-103958000D01*
X150128000Y-97499000D02*
X150128000Y-99258587D01*
X146570590Y-103958000D02*
X145048000Y-102435410D01*
X150890000Y-97212000D02*
X150415000Y-97212000D01*
X150415000Y-97212000D02*
X150128000Y-97499000D01*
X150128000Y-99258587D02*
X148902987Y-100483600D01*
X148902987Y-100483600D02*
X148902987Y-103787424D01*
X148732411Y-103958000D02*
X146570590Y-103958000D01*
X145048000Y-102435410D02*
X145048000Y-101799000D01*
X144032000Y-99120000D02*
X145048000Y-100136000D01*
X145048000Y-100136000D02*
X145048000Y-100870000D01*
X145048000Y-101608500D02*
X145048000Y-100636000D01*
X154192000Y-106112000D02*
X156090000Y-106112000D01*
X156090000Y-106112000D02*
X156224000Y-105978000D01*
D36*
G36*
X147246721Y-90886014D02*
X147169161Y-91072799D01*
X147168839Y-91441583D01*
X147309669Y-91782417D01*
X147462530Y-91935545D01*
X147373000Y-92151690D01*
X147373000Y-92244250D01*
X147531750Y-92403000D01*
X148181000Y-92403000D01*
X148181000Y-92381000D01*
X148285497Y-92381000D01*
X148287243Y-92389778D01*
X148439120Y-92617077D01*
X148166417Y-92616839D01*
X148078901Y-92653000D01*
X147531750Y-92653000D01*
X147373000Y-92811750D01*
X147373000Y-92904310D01*
X147469673Y-93137699D01*
X147501680Y-93169706D01*
X147423161Y-93358799D01*
X147422839Y-93727583D01*
X147563669Y-94068417D01*
X147801793Y-94306957D01*
X147715000Y-94393750D01*
X147715000Y-95743000D01*
X148318250Y-95743000D01*
X148477000Y-95584250D01*
X148477000Y-94743690D01*
X148380327Y-94510301D01*
X148341019Y-94470993D01*
X148533583Y-94471161D01*
X148874417Y-94330331D01*
X148921451Y-94283379D01*
X149145778Y-94238757D01*
X149389744Y-94075744D01*
X149916000Y-93549489D01*
X150509257Y-94142746D01*
X150563515Y-94179000D01*
X149366000Y-94179000D01*
X149316590Y-94189006D01*
X149274965Y-94217447D01*
X149247685Y-94259841D01*
X149239000Y-94306000D01*
X149239000Y-95401512D01*
X148696234Y-95944278D01*
X148533221Y-96188244D01*
X148477000Y-96470884D01*
X148477000Y-96155750D01*
X148318250Y-95997000D01*
X147715000Y-95997000D01*
X147715000Y-96017000D01*
X147461000Y-96017000D01*
X147461000Y-95997000D01*
X147441000Y-95997000D01*
X147441000Y-95743000D01*
X147461000Y-95743000D01*
X147461000Y-94393750D01*
X147302250Y-94235000D01*
X147207691Y-94235000D01*
X147070000Y-94292034D01*
X147070000Y-93590361D01*
X147144917Y-93480717D01*
X147195283Y-93232000D01*
X147195283Y-92332000D01*
X147151563Y-92099648D01*
X147058000Y-91954247D01*
X147058000Y-91270000D01*
X147000757Y-90982222D01*
X146947370Y-90902323D01*
X147124000Y-90902323D01*
X147229360Y-90882498D01*
X147246721Y-90886014D01*
X147246721Y-90886014D01*
G37*
X147246721Y-90886014D02*
X147169161Y-91072799D01*
X147168839Y-91441583D01*
X147309669Y-91782417D01*
X147462530Y-91935545D01*
X147373000Y-92151690D01*
X147373000Y-92244250D01*
X147531750Y-92403000D01*
X148181000Y-92403000D01*
X148181000Y-92381000D01*
X148285497Y-92381000D01*
X148287243Y-92389778D01*
X148439120Y-92617077D01*
X148166417Y-92616839D01*
X148078901Y-92653000D01*
X147531750Y-92653000D01*
X147373000Y-92811750D01*
X147373000Y-92904310D01*
X147469673Y-93137699D01*
X147501680Y-93169706D01*
X147423161Y-93358799D01*
X147422839Y-93727583D01*
X147563669Y-94068417D01*
X147801793Y-94306957D01*
X147715000Y-94393750D01*
X147715000Y-95743000D01*
X148318250Y-95743000D01*
X148477000Y-95584250D01*
X148477000Y-94743690D01*
X148380327Y-94510301D01*
X148341019Y-94470993D01*
X148533583Y-94471161D01*
X148874417Y-94330331D01*
X148921451Y-94283379D01*
X149145778Y-94238757D01*
X149389744Y-94075744D01*
X149916000Y-93549489D01*
X150509257Y-94142746D01*
X150563515Y-94179000D01*
X149366000Y-94179000D01*
X149316590Y-94189006D01*
X149274965Y-94217447D01*
X149247685Y-94259841D01*
X149239000Y-94306000D01*
X149239000Y-95401512D01*
X148696234Y-95944278D01*
X148533221Y-96188244D01*
X148477000Y-96470884D01*
X148477000Y-96155750D01*
X148318250Y-95997000D01*
X147715000Y-95997000D01*
X147715000Y-96017000D01*
X147461000Y-96017000D01*
X147461000Y-95997000D01*
X147441000Y-95997000D01*
X147441000Y-95743000D01*
X147461000Y-95743000D01*
X147461000Y-94393750D01*
X147302250Y-94235000D01*
X147207691Y-94235000D01*
X147070000Y-94292034D01*
X147070000Y-93590361D01*
X147144917Y-93480717D01*
X147195283Y-93232000D01*
X147195283Y-92332000D01*
X147151563Y-92099648D01*
X147058000Y-91954247D01*
X147058000Y-91270000D01*
X147000757Y-90982222D01*
X146947370Y-90902323D01*
X147124000Y-90902323D01*
X147229360Y-90882498D01*
X147246721Y-90886014D01*
G36*
X154531000Y-85291000D02*
X154551000Y-85291000D01*
X154551000Y-85541000D01*
X154531000Y-85541000D01*
X154531000Y-86142250D01*
X154689750Y-86301000D01*
X154830309Y-86301000D01*
X154950105Y-86251379D01*
X154955283Y-86254917D01*
X155204000Y-86305283D01*
X155379795Y-86305283D01*
X155710000Y-86635488D01*
X155710000Y-87767254D01*
X155566247Y-87859757D01*
X155479689Y-87986439D01*
X155388250Y-87895000D01*
X154589000Y-87895000D01*
X154589000Y-87915000D01*
X154335000Y-87915000D01*
X154335000Y-87895000D01*
X153535750Y-87895000D01*
X153377000Y-88053750D01*
X153377000Y-88294310D01*
X153473673Y-88527699D01*
X153652302Y-88706327D01*
X153697736Y-88725146D01*
X153566247Y-88809757D01*
X153423083Y-89019283D01*
X153372717Y-89268000D01*
X153372717Y-89693795D01*
X153194256Y-89872256D01*
X153031243Y-90116222D01*
X152974000Y-90404000D01*
X152974000Y-90627000D01*
X152911750Y-90627000D01*
X152753000Y-90785750D01*
X152753000Y-91387000D01*
X152773000Y-91387000D01*
X152773000Y-91637000D01*
X152753000Y-91637000D01*
X152753000Y-91659000D01*
X152499000Y-91659000D01*
X152499000Y-91637000D01*
X151849750Y-91637000D01*
X151691000Y-91795750D01*
X151691000Y-91888310D01*
X151787673Y-92121699D01*
X151856362Y-92190388D01*
X151737000Y-92309750D01*
X151737000Y-92859001D01*
X151483000Y-92859001D01*
X151483000Y-92309750D01*
X151324250Y-92151000D01*
X151183691Y-92151000D01*
X150950302Y-92247673D01*
X150845731Y-92352243D01*
X150489744Y-91996256D01*
X150245778Y-91833243D01*
X150135637Y-91811334D01*
X149956717Y-91689083D01*
X149734000Y-91643982D01*
X149734000Y-91135690D01*
X151691000Y-91135690D01*
X151691000Y-91228250D01*
X151849750Y-91387000D01*
X152499000Y-91387000D01*
X152499000Y-90785750D01*
X152340250Y-90627000D01*
X152199691Y-90627000D01*
X151966302Y-90723673D01*
X151787673Y-90902301D01*
X151691000Y-91135690D01*
X149734000Y-91135690D01*
X149734000Y-90884138D01*
X149840000Y-90905603D01*
X150140000Y-90905603D01*
X150372352Y-90861883D01*
X150585753Y-90724563D01*
X150728917Y-90515037D01*
X150779283Y-90266320D01*
X150779283Y-90262043D01*
X150789400Y-90262043D01*
X151021752Y-90218323D01*
X151235153Y-90081003D01*
X151378317Y-89871477D01*
X151428683Y-89622760D01*
X151428683Y-89322760D01*
X151404757Y-89195606D01*
X151421283Y-89114000D01*
X151421283Y-88814000D01*
X151401776Y-88710329D01*
X151421283Y-88614000D01*
X151421283Y-88314000D01*
X151401776Y-88210329D01*
X151421283Y-88114000D01*
X151421283Y-87814000D01*
X151401776Y-87710329D01*
X151421283Y-87614000D01*
X151421283Y-87314000D01*
X151401776Y-87210329D01*
X151421283Y-87114000D01*
X151421283Y-86814000D01*
X151411076Y-86759750D01*
X151783000Y-86759750D01*
X151783000Y-86900309D01*
X151879673Y-87133698D01*
X152058301Y-87312327D01*
X152291690Y-87409000D01*
X152384250Y-87409000D01*
X152543000Y-87250250D01*
X152543000Y-86601000D01*
X152793000Y-86601000D01*
X152793000Y-87250250D01*
X152951750Y-87409000D01*
X153044310Y-87409000D01*
X153277699Y-87312327D01*
X153397269Y-87192756D01*
X153377000Y-87241690D01*
X153377000Y-87482250D01*
X153535750Y-87641000D01*
X154335000Y-87641000D01*
X154335000Y-86891750D01*
X154589000Y-86891750D01*
X154589000Y-87641000D01*
X155388250Y-87641000D01*
X155547000Y-87482250D01*
X155547000Y-87241690D01*
X155450327Y-87008301D01*
X155271698Y-86829673D01*
X155038309Y-86733000D01*
X154747750Y-86733000D01*
X154589000Y-86891750D01*
X154335000Y-86891750D01*
X154176250Y-86733000D01*
X153885691Y-86733000D01*
X153652302Y-86829673D01*
X153532731Y-86949244D01*
X153553000Y-86900309D01*
X153553000Y-86759750D01*
X153394250Y-86601000D01*
X152793000Y-86601000D01*
X152543000Y-86601000D01*
X151941750Y-86601000D01*
X151783000Y-86759750D01*
X151411076Y-86759750D01*
X151402535Y-86714360D01*
X151423603Y-86610320D01*
X151423603Y-86310320D01*
X151379883Y-86077968D01*
X151242563Y-85864567D01*
X151033037Y-85721403D01*
X150784320Y-85671037D01*
X150774963Y-85671037D01*
X150774963Y-85661680D01*
X150758841Y-85576000D01*
X151306512Y-85576000D01*
X151636255Y-85905744D01*
X151797241Y-86013311D01*
X151783000Y-86047691D01*
X151783000Y-86188250D01*
X151941750Y-86347000D01*
X152543000Y-86347000D01*
X152543000Y-86327000D01*
X152793000Y-86327000D01*
X152793000Y-86347000D01*
X153394250Y-86347000D01*
X153553000Y-86188250D01*
X153553000Y-86047691D01*
X153503379Y-85927895D01*
X153506917Y-85922717D01*
X153512203Y-85896612D01*
X153565673Y-86025699D01*
X153744302Y-86204327D01*
X153977691Y-86301000D01*
X154118250Y-86301000D01*
X154277000Y-86142250D01*
X154277000Y-85541000D01*
X154257000Y-85541000D01*
X154257000Y-85291000D01*
X154277000Y-85291000D01*
X154277000Y-85269000D01*
X154531000Y-85269000D01*
X154531000Y-85291000D01*
X154531000Y-85291000D01*
G37*
X154531000Y-85291000D02*
X154551000Y-85291000D01*
X154551000Y-85541000D01*
X154531000Y-85541000D01*
X154531000Y-86142250D01*
X154689750Y-86301000D01*
X154830309Y-86301000D01*
X154950105Y-86251379D01*
X154955283Y-86254917D01*
X155204000Y-86305283D01*
X155379795Y-86305283D01*
X155710000Y-86635488D01*
X155710000Y-87767254D01*
X155566247Y-87859757D01*
X155479689Y-87986439D01*
X155388250Y-87895000D01*
X154589000Y-87895000D01*
X154589000Y-87915000D01*
X154335000Y-87915000D01*
X154335000Y-87895000D01*
X153535750Y-87895000D01*
X153377000Y-88053750D01*
X153377000Y-88294310D01*
X153473673Y-88527699D01*
X153652302Y-88706327D01*
X153697736Y-88725146D01*
X153566247Y-88809757D01*
X153423083Y-89019283D01*
X153372717Y-89268000D01*
X153372717Y-89693795D01*
X153194256Y-89872256D01*
X153031243Y-90116222D01*
X152974000Y-90404000D01*
X152974000Y-90627000D01*
X152911750Y-90627000D01*
X152753000Y-90785750D01*
X152753000Y-91387000D01*
X152773000Y-91387000D01*
X152773000Y-91637000D01*
X152753000Y-91637000D01*
X152753000Y-91659000D01*
X152499000Y-91659000D01*
X152499000Y-91637000D01*
X151849750Y-91637000D01*
X151691000Y-91795750D01*
X151691000Y-91888310D01*
X151787673Y-92121699D01*
X151856362Y-92190388D01*
X151737000Y-92309750D01*
X151737000Y-92859001D01*
X151483000Y-92859001D01*
X151483000Y-92309750D01*
X151324250Y-92151000D01*
X151183691Y-92151000D01*
X150950302Y-92247673D01*
X150845731Y-92352243D01*
X150489744Y-91996256D01*
X150245778Y-91833243D01*
X150135637Y-91811334D01*
X149956717Y-91689083D01*
X149734000Y-91643982D01*
X149734000Y-91135690D01*
X151691000Y-91135690D01*
X151691000Y-91228250D01*
X151849750Y-91387000D01*
X152499000Y-91387000D01*
X152499000Y-90785750D01*
X152340250Y-90627000D01*
X152199691Y-90627000D01*
X151966302Y-90723673D01*
X151787673Y-90902301D01*
X151691000Y-91135690D01*
X149734000Y-91135690D01*
X149734000Y-90884138D01*
X149840000Y-90905603D01*
X150140000Y-90905603D01*
X150372352Y-90861883D01*
X150585753Y-90724563D01*
X150728917Y-90515037D01*
X150779283Y-90266320D01*
X150779283Y-90262043D01*
X150789400Y-90262043D01*
X151021752Y-90218323D01*
X151235153Y-90081003D01*
X151378317Y-89871477D01*
X151428683Y-89622760D01*
X151428683Y-89322760D01*
X151404757Y-89195606D01*
X151421283Y-89114000D01*
X151421283Y-88814000D01*
X151401776Y-88710329D01*
X151421283Y-88614000D01*
X151421283Y-88314000D01*
X151401776Y-88210329D01*
X151421283Y-88114000D01*
X151421283Y-87814000D01*
X151401776Y-87710329D01*
X151421283Y-87614000D01*
X151421283Y-87314000D01*
X151401776Y-87210329D01*
X151421283Y-87114000D01*
X151421283Y-86814000D01*
X151411076Y-86759750D01*
X151783000Y-86759750D01*
X151783000Y-86900309D01*
X151879673Y-87133698D01*
X152058301Y-87312327D01*
X152291690Y-87409000D01*
X152384250Y-87409000D01*
X152543000Y-87250250D01*
X152543000Y-86601000D01*
X152793000Y-86601000D01*
X152793000Y-87250250D01*
X152951750Y-87409000D01*
X153044310Y-87409000D01*
X153277699Y-87312327D01*
X153397269Y-87192756D01*
X153377000Y-87241690D01*
X153377000Y-87482250D01*
X153535750Y-87641000D01*
X154335000Y-87641000D01*
X154335000Y-86891750D01*
X154589000Y-86891750D01*
X154589000Y-87641000D01*
X155388250Y-87641000D01*
X155547000Y-87482250D01*
X155547000Y-87241690D01*
X155450327Y-87008301D01*
X155271698Y-86829673D01*
X155038309Y-86733000D01*
X154747750Y-86733000D01*
X154589000Y-86891750D01*
X154335000Y-86891750D01*
X154176250Y-86733000D01*
X153885691Y-86733000D01*
X153652302Y-86829673D01*
X153532731Y-86949244D01*
X153553000Y-86900309D01*
X153553000Y-86759750D01*
X153394250Y-86601000D01*
X152793000Y-86601000D01*
X152543000Y-86601000D01*
X151941750Y-86601000D01*
X151783000Y-86759750D01*
X151411076Y-86759750D01*
X151402535Y-86714360D01*
X151423603Y-86610320D01*
X151423603Y-86310320D01*
X151379883Y-86077968D01*
X151242563Y-85864567D01*
X151033037Y-85721403D01*
X150784320Y-85671037D01*
X150774963Y-85671037D01*
X150774963Y-85661680D01*
X150758841Y-85576000D01*
X151306512Y-85576000D01*
X151636255Y-85905744D01*
X151797241Y-86013311D01*
X151783000Y-86047691D01*
X151783000Y-86188250D01*
X151941750Y-86347000D01*
X152543000Y-86347000D01*
X152543000Y-86327000D01*
X152793000Y-86327000D01*
X152793000Y-86347000D01*
X153394250Y-86347000D01*
X153553000Y-86188250D01*
X153553000Y-86047691D01*
X153503379Y-85927895D01*
X153506917Y-85922717D01*
X153512203Y-85896612D01*
X153565673Y-86025699D01*
X153744302Y-86204327D01*
X153977691Y-86301000D01*
X154118250Y-86301000D01*
X154277000Y-86142250D01*
X154277000Y-85541000D01*
X154257000Y-85541000D01*
X154257000Y-85291000D01*
X154277000Y-85291000D01*
X154277000Y-85269000D01*
X154531000Y-85269000D01*
X154531000Y-85291000D01*
G36*
X145542717Y-87814000D02*
X145542717Y-88114000D01*
X145562224Y-88217671D01*
X145542717Y-88314000D01*
X145542717Y-88420588D01*
X145525256Y-88432255D01*
X144899266Y-89058246D01*
X144736253Y-89302212D01*
X144679010Y-89589990D01*
X144679010Y-91391522D01*
X144267744Y-90980256D01*
X144023778Y-90817243D01*
X143736000Y-90760000D01*
X143228920Y-90760000D01*
X143104243Y-90566247D01*
X142894717Y-90423083D01*
X142646000Y-90372717D01*
X140949000Y-90372717D01*
X140949000Y-90111283D01*
X142646000Y-90111283D01*
X142878352Y-90067563D01*
X143091753Y-89930243D01*
X143234917Y-89720717D01*
X143285283Y-89472000D01*
X143285283Y-88896205D01*
X144172487Y-88009001D01*
X144984999Y-88009001D01*
X145272777Y-87951758D01*
X145516743Y-87788745D01*
X145555725Y-87749763D01*
X145542717Y-87814000D01*
X145542717Y-87814000D01*
G37*
X145542717Y-87814000D02*
X145542717Y-88114000D01*
X145562224Y-88217671D01*
X145542717Y-88314000D01*
X145542717Y-88420588D01*
X145525256Y-88432255D01*
X144899266Y-89058246D01*
X144736253Y-89302212D01*
X144679010Y-89589990D01*
X144679010Y-91391522D01*
X144267744Y-90980256D01*
X144023778Y-90817243D01*
X143736000Y-90760000D01*
X143228920Y-90760000D01*
X143104243Y-90566247D01*
X142894717Y-90423083D01*
X142646000Y-90372717D01*
X140949000Y-90372717D01*
X140949000Y-90111283D01*
X142646000Y-90111283D01*
X142878352Y-90067563D01*
X143091753Y-89930243D01*
X143234917Y-89720717D01*
X143285283Y-89472000D01*
X143285283Y-88896205D01*
X144172487Y-88009001D01*
X144984999Y-88009001D01*
X145272777Y-87951758D01*
X145516743Y-87788745D01*
X145555725Y-87749763D01*
X145542717Y-87814000D01*
G36*
X153365000Y-79263000D02*
X153365000Y-80463000D01*
X154573000Y-80463000D01*
X154573000Y-80443000D01*
X154827000Y-80443000D01*
X154827000Y-80463000D01*
X156035000Y-80463000D01*
X156035000Y-79263000D01*
X155965466Y-79031000D01*
X157275000Y-79031000D01*
X157275000Y-87807170D01*
X157214000Y-87765490D01*
X157214000Y-86324000D01*
X157156757Y-86036222D01*
X156993744Y-85792256D01*
X156443283Y-85241795D01*
X156443283Y-85166000D01*
X156399563Y-84933648D01*
X156262243Y-84720247D01*
X156209955Y-84684520D01*
X156198757Y-84628222D01*
X156130933Y-84526717D01*
X156035745Y-84384256D01*
X154776488Y-83125000D01*
X154827002Y-83125000D01*
X154827002Y-82959375D01*
X155033329Y-83082716D01*
X155093550Y-83071980D01*
X155554185Y-82823790D01*
X155884778Y-82418215D01*
X156035000Y-81917000D01*
X156035000Y-80717000D01*
X154827000Y-80717000D01*
X154827000Y-80737000D01*
X154573000Y-80737000D01*
X154573000Y-80717000D01*
X153365000Y-80717000D01*
X153365000Y-81880040D01*
X153196209Y-81710954D01*
X152690078Y-81500790D01*
X152142047Y-81500312D01*
X151991732Y-81562421D01*
X152310683Y-81244026D01*
X152520760Y-80738104D01*
X152521238Y-80190299D01*
X152312044Y-79684011D01*
X151925026Y-79296317D01*
X151419104Y-79086240D01*
X150871299Y-79085762D01*
X150365011Y-79294956D01*
X150137994Y-79521577D01*
X150043010Y-79291697D01*
X149782768Y-79031000D01*
X153434534Y-79031000D01*
X153365000Y-79263000D01*
X153365000Y-79263000D01*
G37*
X153365000Y-79263000D02*
X153365000Y-80463000D01*
X154573000Y-80463000D01*
X154573000Y-80443000D01*
X154827000Y-80443000D01*
X154827000Y-80463000D01*
X156035000Y-80463000D01*
X156035000Y-79263000D01*
X155965466Y-79031000D01*
X157275000Y-79031000D01*
X157275000Y-87807170D01*
X157214000Y-87765490D01*
X157214000Y-86324000D01*
X157156757Y-86036222D01*
X156993744Y-85792256D01*
X156443283Y-85241795D01*
X156443283Y-85166000D01*
X156399563Y-84933648D01*
X156262243Y-84720247D01*
X156209955Y-84684520D01*
X156198757Y-84628222D01*
X156130933Y-84526717D01*
X156035745Y-84384256D01*
X154776488Y-83125000D01*
X154827002Y-83125000D01*
X154827002Y-82959375D01*
X155033329Y-83082716D01*
X155093550Y-83071980D01*
X155554185Y-82823790D01*
X155884778Y-82418215D01*
X156035000Y-81917000D01*
X156035000Y-80717000D01*
X154827000Y-80717000D01*
X154827000Y-80737000D01*
X154573000Y-80737000D01*
X154573000Y-80717000D01*
X153365000Y-80717000D01*
X153365000Y-81880040D01*
X153196209Y-81710954D01*
X152690078Y-81500790D01*
X152142047Y-81500312D01*
X151991732Y-81562421D01*
X152310683Y-81244026D01*
X152520760Y-80738104D01*
X152521238Y-80190299D01*
X152312044Y-79684011D01*
X151925026Y-79296317D01*
X151419104Y-79086240D01*
X150871299Y-79085762D01*
X150365011Y-79294956D01*
X150137994Y-79521577D01*
X150043010Y-79291697D01*
X149782768Y-79031000D01*
X153434534Y-79031000D01*
X153365000Y-79263000D01*
G36*
X141681000Y-79263000D02*
X141681000Y-80463000D01*
X142889000Y-80463000D01*
X142889000Y-80443000D01*
X143143000Y-80443000D01*
X143143000Y-80463000D01*
X144351000Y-80463000D01*
X144351000Y-79263000D01*
X144281466Y-79031000D01*
X147933453Y-79031000D01*
X147674371Y-79289630D01*
X147578010Y-79521694D01*
X147353026Y-79296317D01*
X146847104Y-79086240D01*
X146299299Y-79085762D01*
X145793011Y-79294956D01*
X145405317Y-79681974D01*
X145195240Y-80187896D01*
X145194762Y-80735701D01*
X145403956Y-81241989D01*
X145715800Y-81554378D01*
X145507826Y-81480353D01*
X144957322Y-81508315D01*
X144578595Y-81665189D01*
X144510536Y-81906188D01*
X144395483Y-81791135D01*
X144351000Y-81835618D01*
X144351000Y-80717000D01*
X143143000Y-80717000D01*
X143143000Y-80737000D01*
X142889000Y-80737000D01*
X142889000Y-80717000D01*
X141681000Y-80717000D01*
X141681000Y-81917000D01*
X141831222Y-82418215D01*
X142107373Y-82757000D01*
X142031750Y-82757000D01*
X141873000Y-82915750D01*
X141873000Y-83765000D01*
X143122250Y-83765000D01*
X143281000Y-83606250D01*
X143281000Y-83265691D01*
X143184327Y-83032302D01*
X143143002Y-82990977D01*
X143143002Y-82959375D01*
X143349329Y-83082716D01*
X143409550Y-83071980D01*
X143870185Y-82823790D01*
X143910248Y-82774640D01*
X143933055Y-83223658D01*
X144089929Y-83602385D01*
X144330930Y-83670445D01*
X145123255Y-82878120D01*
X145109113Y-82863978D01*
X145288718Y-82684373D01*
X145302860Y-82698515D01*
X146095185Y-81906190D01*
X146047137Y-81736051D01*
X146296896Y-81839760D01*
X146844701Y-81840238D01*
X146994805Y-81778216D01*
X146675694Y-82096771D01*
X146583807Y-82318060D01*
X146515791Y-82153855D01*
X146274790Y-82085795D01*
X145482465Y-82878120D01*
X146274790Y-83670445D01*
X146515791Y-83602385D01*
X146578635Y-83425825D01*
X146674332Y-83657431D01*
X146730000Y-83713196D01*
X146730000Y-85039941D01*
X146590888Y-85066117D01*
X146377487Y-85203437D01*
X146371636Y-85212000D01*
X143738000Y-85212000D01*
X143450222Y-85269243D01*
X143206256Y-85432256D01*
X143123045Y-85515467D01*
X143104243Y-85486247D01*
X142894717Y-85343083D01*
X142646000Y-85292717D01*
X140949000Y-85292717D01*
X140949000Y-85027000D01*
X141460250Y-85027000D01*
X141619000Y-84868250D01*
X141619000Y-84019000D01*
X141873000Y-84019000D01*
X141873000Y-84868250D01*
X142031750Y-85027000D01*
X142772310Y-85027000D01*
X143005699Y-84930327D01*
X143184327Y-84751698D01*
X143281000Y-84518309D01*
X143281000Y-84177750D01*
X143122250Y-84019000D01*
X141873000Y-84019000D01*
X141619000Y-84019000D01*
X141599000Y-84019000D01*
X141599000Y-83850050D01*
X144510535Y-83850050D01*
X144578595Y-84091051D01*
X145097894Y-84275887D01*
X145648398Y-84247925D01*
X146027125Y-84091051D01*
X146095185Y-83850050D01*
X145302860Y-83057725D01*
X144510535Y-83850050D01*
X141599000Y-83850050D01*
X141599000Y-83765000D01*
X141619000Y-83765000D01*
X141619000Y-82915750D01*
X141460250Y-82757000D01*
X140949000Y-82757000D01*
X140949000Y-79031000D01*
X141750534Y-79031000D01*
X141681000Y-79263000D01*
X141681000Y-79263000D01*
G37*
X141681000Y-79263000D02*
X141681000Y-80463000D01*
X142889000Y-80463000D01*
X142889000Y-80443000D01*
X143143000Y-80443000D01*
X143143000Y-80463000D01*
X144351000Y-80463000D01*
X144351000Y-79263000D01*
X144281466Y-79031000D01*
X147933453Y-79031000D01*
X147674371Y-79289630D01*
X147578010Y-79521694D01*
X147353026Y-79296317D01*
X146847104Y-79086240D01*
X146299299Y-79085762D01*
X145793011Y-79294956D01*
X145405317Y-79681974D01*
X145195240Y-80187896D01*
X145194762Y-80735701D01*
X145403956Y-81241989D01*
X145715800Y-81554378D01*
X145507826Y-81480353D01*
X144957322Y-81508315D01*
X144578595Y-81665189D01*
X144510536Y-81906188D01*
X144395483Y-81791135D01*
X144351000Y-81835618D01*
X144351000Y-80717000D01*
X143143000Y-80717000D01*
X143143000Y-80737000D01*
X142889000Y-80737000D01*
X142889000Y-80717000D01*
X141681000Y-80717000D01*
X141681000Y-81917000D01*
X141831222Y-82418215D01*
X142107373Y-82757000D01*
X142031750Y-82757000D01*
X141873000Y-82915750D01*
X141873000Y-83765000D01*
X143122250Y-83765000D01*
X143281000Y-83606250D01*
X143281000Y-83265691D01*
X143184327Y-83032302D01*
X143143002Y-82990977D01*
X143143002Y-82959375D01*
X143349329Y-83082716D01*
X143409550Y-83071980D01*
X143870185Y-82823790D01*
X143910248Y-82774640D01*
X143933055Y-83223658D01*
X144089929Y-83602385D01*
X144330930Y-83670445D01*
X145123255Y-82878120D01*
X145109113Y-82863978D01*
X145288718Y-82684373D01*
X145302860Y-82698515D01*
X146095185Y-81906190D01*
X146047137Y-81736051D01*
X146296896Y-81839760D01*
X146844701Y-81840238D01*
X146994805Y-81778216D01*
X146675694Y-82096771D01*
X146583807Y-82318060D01*
X146515791Y-82153855D01*
X146274790Y-82085795D01*
X145482465Y-82878120D01*
X146274790Y-83670445D01*
X146515791Y-83602385D01*
X146578635Y-83425825D01*
X146674332Y-83657431D01*
X146730000Y-83713196D01*
X146730000Y-85039941D01*
X146590888Y-85066117D01*
X146377487Y-85203437D01*
X146371636Y-85212000D01*
X143738000Y-85212000D01*
X143450222Y-85269243D01*
X143206256Y-85432256D01*
X143123045Y-85515467D01*
X143104243Y-85486247D01*
X142894717Y-85343083D01*
X142646000Y-85292717D01*
X140949000Y-85292717D01*
X140949000Y-85027000D01*
X141460250Y-85027000D01*
X141619000Y-84868250D01*
X141619000Y-84019000D01*
X141873000Y-84019000D01*
X141873000Y-84868250D01*
X142031750Y-85027000D01*
X142772310Y-85027000D01*
X143005699Y-84930327D01*
X143184327Y-84751698D01*
X143281000Y-84518309D01*
X143281000Y-84177750D01*
X143122250Y-84019000D01*
X141873000Y-84019000D01*
X141619000Y-84019000D01*
X141599000Y-84019000D01*
X141599000Y-83850050D01*
X144510535Y-83850050D01*
X144578595Y-84091051D01*
X145097894Y-84275887D01*
X145648398Y-84247925D01*
X146027125Y-84091051D01*
X146095185Y-83850050D01*
X145302860Y-83057725D01*
X144510535Y-83850050D01*
X141599000Y-83850050D01*
X141599000Y-83765000D01*
X141619000Y-83765000D01*
X141619000Y-82915750D01*
X141460250Y-82757000D01*
X140949000Y-82757000D01*
X140949000Y-79031000D01*
X141750534Y-79031000D01*
X141681000Y-79263000D01*
G36*
X150509000Y-109419000D02*
X150529000Y-109419000D01*
X150529000Y-109673000D01*
X150509000Y-109673000D01*
X150509000Y-109693000D01*
X150255000Y-109693000D01*
X150255000Y-109673000D01*
X148757000Y-109673000D01*
X148757000Y-109724750D01*
X148693250Y-109661000D01*
X147969000Y-109661000D01*
X147969000Y-110410250D01*
X148127750Y-110569000D01*
X148343310Y-110569000D01*
X148576699Y-110472327D01*
X148755327Y-110293698D01*
X148757000Y-110289659D01*
X148757000Y-110663000D01*
X148929297Y-111275193D01*
X149195304Y-111613000D01*
X146603880Y-111613000D01*
X146875913Y-111205873D01*
X146999000Y-110587074D01*
X146999000Y-110364025D01*
X147107301Y-110472327D01*
X147340690Y-110569000D01*
X147556250Y-110569000D01*
X147715000Y-110410250D01*
X147715000Y-109661000D01*
X147695000Y-109661000D01*
X147695000Y-109536000D01*
X148452002Y-109536000D01*
X148739780Y-109478757D01*
X148829213Y-109419000D01*
X150255000Y-109419000D01*
X150255000Y-109399000D01*
X150509000Y-109399000D01*
X150509000Y-109419000D01*
X150509000Y-109419000D01*
G37*
X150509000Y-109419000D02*
X150529000Y-109419000D01*
X150529000Y-109673000D01*
X150509000Y-109673000D01*
X150509000Y-109693000D01*
X150255000Y-109693000D01*
X150255000Y-109673000D01*
X148757000Y-109673000D01*
X148757000Y-109724750D01*
X148693250Y-109661000D01*
X147969000Y-109661000D01*
X147969000Y-110410250D01*
X148127750Y-110569000D01*
X148343310Y-110569000D01*
X148576699Y-110472327D01*
X148755327Y-110293698D01*
X148757000Y-110289659D01*
X148757000Y-110663000D01*
X148929297Y-111275193D01*
X149195304Y-111613000D01*
X146603880Y-111613000D01*
X146875913Y-111205873D01*
X146999000Y-110587074D01*
X146999000Y-110364025D01*
X147107301Y-110472327D01*
X147340690Y-110569000D01*
X147556250Y-110569000D01*
X147715000Y-110410250D01*
X147715000Y-109661000D01*
X147695000Y-109661000D01*
X147695000Y-109536000D01*
X148452002Y-109536000D01*
X148739780Y-109478757D01*
X148829213Y-109419000D01*
X150255000Y-109419000D01*
X150255000Y-109399000D01*
X150509000Y-109399000D01*
X150509000Y-109419000D01*
G36*
X142402717Y-106512000D02*
X142446437Y-106744352D01*
X142583757Y-106957753D01*
X142793283Y-107100917D01*
X143042000Y-107151283D01*
X143517795Y-107151283D01*
X144008256Y-107641744D01*
X144038068Y-107661664D01*
X143888087Y-107886127D01*
X143765000Y-108504926D01*
X143765000Y-109156432D01*
X143592171Y-108738154D01*
X143064624Y-108209684D01*
X142374996Y-107923326D01*
X141628280Y-107922675D01*
X140949000Y-108203348D01*
X140949000Y-106182450D01*
X141042000Y-106201283D01*
X141942000Y-106201283D01*
X142174352Y-106157563D01*
X142387753Y-106020243D01*
X142402717Y-105998343D01*
X142402717Y-106512000D01*
X142402717Y-106512000D01*
G37*
X142402717Y-106512000D02*
X142446437Y-106744352D01*
X142583757Y-106957753D01*
X142793283Y-107100917D01*
X143042000Y-107151283D01*
X143517795Y-107151283D01*
X144008256Y-107641744D01*
X144038068Y-107661664D01*
X143888087Y-107886127D01*
X143765000Y-108504926D01*
X143765000Y-109156432D01*
X143592171Y-108738154D01*
X143064624Y-108209684D01*
X142374996Y-107923326D01*
X141628280Y-107922675D01*
X140949000Y-108203348D01*
X140949000Y-106182450D01*
X141042000Y-106201283D01*
X141942000Y-106201283D01*
X142174352Y-106157563D01*
X142387753Y-106020243D01*
X142402717Y-105998343D01*
X142402717Y-106512000D01*
G36*
X151283757Y-106007753D02*
X151493283Y-106150917D01*
X151742000Y-106201283D01*
X152642000Y-106201283D01*
X152874352Y-106157563D01*
X153087753Y-106020243D01*
X153102717Y-105998343D01*
X153102717Y-106512000D01*
X153146437Y-106744352D01*
X153170697Y-106782053D01*
X153049000Y-106903750D01*
X153049000Y-107653000D01*
X153069000Y-107653000D01*
X153069000Y-107907000D01*
X153049000Y-107907000D01*
X153049000Y-107927000D01*
X152795000Y-107927000D01*
X152795000Y-107907000D01*
X152070750Y-107907000D01*
X151912000Y-108065750D01*
X151912000Y-108091453D01*
X151834703Y-107816807D01*
X151441246Y-107317149D01*
X151328079Y-107253691D01*
X151912000Y-107253691D01*
X151912000Y-107494250D01*
X152070750Y-107653000D01*
X152795000Y-107653000D01*
X152795000Y-106903750D01*
X152636250Y-106745000D01*
X152420690Y-106745000D01*
X152187301Y-106841673D01*
X152008673Y-107020302D01*
X151912000Y-107253691D01*
X151328079Y-107253691D01*
X151032229Y-107087796D01*
X151116327Y-107003699D01*
X151213000Y-106770310D01*
X151213000Y-106529750D01*
X151054250Y-106371000D01*
X150255000Y-106371000D01*
X150255000Y-106391000D01*
X150001000Y-106391000D01*
X150001000Y-106371000D01*
X149981000Y-106371000D01*
X149981000Y-106117000D01*
X150001000Y-106117000D01*
X150001000Y-106097000D01*
X150255000Y-106097000D01*
X150255000Y-106117000D01*
X151054250Y-106117000D01*
X151213000Y-105958250D01*
X151213000Y-105914000D01*
X151223429Y-105914000D01*
X151283757Y-106007753D01*
X151283757Y-106007753D01*
G37*
X151283757Y-106007753D02*
X151493283Y-106150917D01*
X151742000Y-106201283D01*
X152642000Y-106201283D01*
X152874352Y-106157563D01*
X153087753Y-106020243D01*
X153102717Y-105998343D01*
X153102717Y-106512000D01*
X153146437Y-106744352D01*
X153170697Y-106782053D01*
X153049000Y-106903750D01*
X153049000Y-107653000D01*
X153069000Y-107653000D01*
X153069000Y-107907000D01*
X153049000Y-107907000D01*
X153049000Y-107927000D01*
X152795000Y-107927000D01*
X152795000Y-107907000D01*
X152070750Y-107907000D01*
X151912000Y-108065750D01*
X151912000Y-108091453D01*
X151834703Y-107816807D01*
X151441246Y-107317149D01*
X151328079Y-107253691D01*
X151912000Y-107253691D01*
X151912000Y-107494250D01*
X152070750Y-107653000D01*
X152795000Y-107653000D01*
X152795000Y-106903750D01*
X152636250Y-106745000D01*
X152420690Y-106745000D01*
X152187301Y-106841673D01*
X152008673Y-107020302D01*
X151912000Y-107253691D01*
X151328079Y-107253691D01*
X151032229Y-107087796D01*
X151116327Y-107003699D01*
X151213000Y-106770310D01*
X151213000Y-106529750D01*
X151054250Y-106371000D01*
X150255000Y-106371000D01*
X150255000Y-106391000D01*
X150001000Y-106391000D01*
X150001000Y-106371000D01*
X149981000Y-106371000D01*
X149981000Y-106117000D01*
X150001000Y-106117000D01*
X150001000Y-106097000D01*
X150255000Y-106097000D01*
X150255000Y-106117000D01*
X151054250Y-106117000D01*
X151213000Y-105958250D01*
X151213000Y-105914000D01*
X151223429Y-105914000D01*
X151283757Y-106007753D01*
G36*
X153260000Y-99326283D02*
X153860000Y-99326283D01*
X154064717Y-99287763D01*
X154064717Y-99347000D01*
X154108437Y-99579352D01*
X154245757Y-99792753D01*
X154455283Y-99935917D01*
X154704000Y-99986283D01*
X154964000Y-99986283D01*
X154964000Y-100319011D01*
X154925603Y-100344667D01*
X154696236Y-100687939D01*
X154625183Y-100536642D01*
X154196924Y-100146355D01*
X153786890Y-99976524D01*
X153557000Y-100097845D01*
X153557000Y-101291000D01*
X153577000Y-101291000D01*
X153577000Y-101545000D01*
X153557000Y-101545000D01*
X153557000Y-102738155D01*
X153786890Y-102859476D01*
X154196924Y-102689645D01*
X154625183Y-102299358D01*
X154696236Y-102148061D01*
X154867787Y-102404805D01*
X154676256Y-102596337D01*
X154513243Y-102840303D01*
X154456000Y-103128081D01*
X154456000Y-103172717D01*
X153742000Y-103172717D01*
X153509648Y-103216437D01*
X153296247Y-103353757D01*
X153153083Y-103563283D01*
X153102717Y-103812000D01*
X153102717Y-104320092D01*
X153100243Y-104316247D01*
X152944000Y-104209490D01*
X152944000Y-104074000D01*
X152886757Y-103786222D01*
X152836928Y-103711648D01*
X152723744Y-103542255D01*
X152016587Y-102835098D01*
X152185753Y-102726243D01*
X152328917Y-102516717D01*
X152351415Y-102405618D01*
X152663076Y-102689645D01*
X153073110Y-102859476D01*
X153303000Y-102738155D01*
X153303000Y-101545000D01*
X153283000Y-101545000D01*
X153283000Y-101291000D01*
X153303000Y-101291000D01*
X153303000Y-100097845D01*
X153073110Y-99976524D01*
X152663076Y-100146355D01*
X152353100Y-100428847D01*
X152335563Y-100335648D01*
X152211946Y-100143542D01*
X153068071Y-99287417D01*
X153260000Y-99326283D01*
X153260000Y-99326283D01*
G37*
X153260000Y-99326283D02*
X153860000Y-99326283D01*
X154064717Y-99287763D01*
X154064717Y-99347000D01*
X154108437Y-99579352D01*
X154245757Y-99792753D01*
X154455283Y-99935917D01*
X154704000Y-99986283D01*
X154964000Y-99986283D01*
X154964000Y-100319011D01*
X154925603Y-100344667D01*
X154696236Y-100687939D01*
X154625183Y-100536642D01*
X154196924Y-100146355D01*
X153786890Y-99976524D01*
X153557000Y-100097845D01*
X153557000Y-101291000D01*
X153577000Y-101291000D01*
X153577000Y-101545000D01*
X153557000Y-101545000D01*
X153557000Y-102738155D01*
X153786890Y-102859476D01*
X154196924Y-102689645D01*
X154625183Y-102299358D01*
X154696236Y-102148061D01*
X154867787Y-102404805D01*
X154676256Y-102596337D01*
X154513243Y-102840303D01*
X154456000Y-103128081D01*
X154456000Y-103172717D01*
X153742000Y-103172717D01*
X153509648Y-103216437D01*
X153296247Y-103353757D01*
X153153083Y-103563283D01*
X153102717Y-103812000D01*
X153102717Y-104320092D01*
X153100243Y-104316247D01*
X152944000Y-104209490D01*
X152944000Y-104074000D01*
X152886757Y-103786222D01*
X152836928Y-103711648D01*
X152723744Y-103542255D01*
X152016587Y-102835098D01*
X152185753Y-102726243D01*
X152328917Y-102516717D01*
X152351415Y-102405618D01*
X152663076Y-102689645D01*
X153073110Y-102859476D01*
X153303000Y-102738155D01*
X153303000Y-101545000D01*
X153283000Y-101545000D01*
X153283000Y-101291000D01*
X153303000Y-101291000D01*
X153303000Y-100097845D01*
X153073110Y-99976524D01*
X152663076Y-100146355D01*
X152353100Y-100428847D01*
X152335563Y-100335648D01*
X152211946Y-100143542D01*
X153068071Y-99287417D01*
X153260000Y-99326283D01*
G36*
X141164717Y-98870000D02*
X141164717Y-99370000D01*
X141208437Y-99602352D01*
X141345757Y-99815753D01*
X141502000Y-99922510D01*
X141502000Y-100350855D01*
X141468586Y-100384211D01*
X141327161Y-100724799D01*
X141326839Y-101093583D01*
X141467669Y-101434417D01*
X141728211Y-101695414D01*
X142068799Y-101836839D01*
X142248508Y-101836996D01*
X142742256Y-102330744D01*
X142986222Y-102493757D01*
X143274000Y-102551000D01*
X143778000Y-102551000D01*
X143987724Y-102509283D01*
X144032000Y-102509283D01*
X144264352Y-102465563D01*
X144297726Y-102444087D01*
X144353243Y-102723188D01*
X144516256Y-102967154D01*
X144919004Y-103369903D01*
X144873648Y-103378437D01*
X144660247Y-103515757D01*
X144554627Y-103670336D01*
X144537563Y-103579648D01*
X144400243Y-103366247D01*
X144190717Y-103223083D01*
X143942000Y-103172717D01*
X143042000Y-103172717D01*
X142809648Y-103216437D01*
X142596247Y-103353757D01*
X142453083Y-103563283D01*
X142402717Y-103812000D01*
X142402717Y-104320092D01*
X142400243Y-104316247D01*
X142190717Y-104173083D01*
X141942000Y-104122717D01*
X141042000Y-104122717D01*
X140949000Y-104140216D01*
X140949000Y-98751000D01*
X141188815Y-98751000D01*
X141164717Y-98870000D01*
X141164717Y-98870000D01*
G37*
X141164717Y-98870000D02*
X141164717Y-99370000D01*
X141208437Y-99602352D01*
X141345757Y-99815753D01*
X141502000Y-99922510D01*
X141502000Y-100350855D01*
X141468586Y-100384211D01*
X141327161Y-100724799D01*
X141326839Y-101093583D01*
X141467669Y-101434417D01*
X141728211Y-101695414D01*
X142068799Y-101836839D01*
X142248508Y-101836996D01*
X142742256Y-102330744D01*
X142986222Y-102493757D01*
X143274000Y-102551000D01*
X143778000Y-102551000D01*
X143987724Y-102509283D01*
X144032000Y-102509283D01*
X144264352Y-102465563D01*
X144297726Y-102444087D01*
X144353243Y-102723188D01*
X144516256Y-102967154D01*
X144919004Y-103369903D01*
X144873648Y-103378437D01*
X144660247Y-103515757D01*
X144554627Y-103670336D01*
X144537563Y-103579648D01*
X144400243Y-103366247D01*
X144190717Y-103223083D01*
X143942000Y-103172717D01*
X143042000Y-103172717D01*
X142809648Y-103216437D01*
X142596247Y-103353757D01*
X142453083Y-103563283D01*
X142402717Y-103812000D01*
X142402717Y-104320092D01*
X142400243Y-104316247D01*
X142190717Y-104173083D01*
X141942000Y-104122717D01*
X141042000Y-104122717D01*
X140949000Y-104140216D01*
X140949000Y-98751000D01*
X141188815Y-98751000D01*
X141164717Y-98870000D01*
G36*
X147715000Y-98983000D02*
X147735000Y-98983000D01*
X147735000Y-99233000D01*
X147715000Y-99233000D01*
X147715000Y-100226697D01*
X147700976Y-100297200D01*
X147700976Y-101017000D01*
X147461000Y-101017000D01*
X147461000Y-100997000D01*
X147441000Y-100997000D01*
X147441000Y-100743000D01*
X147461000Y-100743000D01*
X147461000Y-99233000D01*
X147441000Y-99233000D01*
X147441000Y-98983000D01*
X147461000Y-98983000D01*
X147461000Y-98961000D01*
X147715000Y-98961000D01*
X147715000Y-98983000D01*
X147715000Y-98983000D01*
G37*
X147715000Y-98983000D02*
X147735000Y-98983000D01*
X147735000Y-99233000D01*
X147715000Y-99233000D01*
X147715000Y-100226697D01*
X147700976Y-100297200D01*
X147700976Y-101017000D01*
X147461000Y-101017000D01*
X147461000Y-100997000D01*
X147441000Y-100997000D01*
X147441000Y-100743000D01*
X147461000Y-100743000D01*
X147461000Y-99233000D01*
X147441000Y-99233000D01*
X147441000Y-98983000D01*
X147461000Y-98983000D01*
X147461000Y-98961000D01*
X147715000Y-98961000D01*
X147715000Y-98983000D01*
M02*
