M48
;DRILL file {KiCad 4.0.7} date 01/29/18 07:06:27
;FORMAT={-:-/ absolute / inch / decimal}
FMAT,2
INCH,TZ
T1C0.016
T2C0.039
T3C0.039
T4C0.052
T5C0.079
%
G90
G05
M72
T1
X5.5806Y-4.0528
X5.5806Y-4.2128
X5.6006Y-3.9728
X5.6506Y-3.6428
X5.6606Y-3.6828
X5.6706Y-3.4828
X5.8006Y-3.6428
X5.8306Y-3.5928
X5.8406Y-3.6828
X5.9506Y-3.6248
X5.9806Y-3.8528
T2
X5.9406Y-3.9928
X6.0406Y-3.9928
X6.1406Y-3.6728
X6.1406Y-3.7728
X6.1406Y-3.9928
T3
X5.7206Y-3.2629
X5.8206Y-3.2629
X5.9006Y-3.2629
X6.0006Y-3.2629
T4
X5.7237Y-4.3128
X5.9206Y-4.3128
X6.1174Y-4.3128
T5
X5.5906Y-4.3228
T2
X5.6306Y-3.2024G85X5.6306Y-3.1433
G05
X6.0906Y-3.2024G85X6.0906Y-3.1433
G05
T0
M30
