G04 #@! TF.FileFunction,Legend,Bot*
%FSLAX46Y46*%
G04 Gerber Fmt 4.6, Leading zero omitted, Abs format (unit mm)*
G04 Created by KiCad (PCBNEW 4.0.7) date 01/29/18 07:06:24*
%MOMM*%
%LPD*%
G01*
G04 APERTURE LIST*
%ADD10C,0.100000*%
%ADD11C,0.175000*%
%ADD12C,0.250000*%
%ADD13C,0.200000*%
%ADD14C,0.120000*%
%ADD15C,0.150000*%
%ADD16C,0.090000*%
G04 APERTURE END LIST*
D10*
X155987428Y-99911429D02*
X156273142Y-99911429D01*
X156273142Y-99311429D01*
X155787428Y-99911429D02*
X155787428Y-99311429D01*
X155501714Y-99911429D02*
X155501714Y-99311429D01*
X155158857Y-99911429D01*
X155158857Y-99311429D01*
X154444286Y-99682857D02*
X153987143Y-99682857D01*
X153501429Y-99597143D02*
X153415715Y-99625714D01*
X153387143Y-99654286D01*
X153358572Y-99711429D01*
X153358572Y-99797143D01*
X153387143Y-99854286D01*
X153415715Y-99882857D01*
X153472857Y-99911429D01*
X153701429Y-99911429D01*
X153701429Y-99311429D01*
X153501429Y-99311429D01*
X153444286Y-99340000D01*
X153415715Y-99368571D01*
X153387143Y-99425714D01*
X153387143Y-99482857D01*
X153415715Y-99540000D01*
X153444286Y-99568571D01*
X153501429Y-99597143D01*
X153701429Y-99597143D01*
X153130000Y-99740000D02*
X152844286Y-99740000D01*
X153187143Y-99911429D02*
X152987143Y-99311429D01*
X152787143Y-99911429D01*
X152672857Y-99311429D02*
X152330000Y-99311429D01*
X152501429Y-99911429D02*
X152501429Y-99311429D01*
X151904286Y-99682857D02*
X151447143Y-99682857D01*
X151675714Y-99911429D02*
X151675714Y-99454286D01*
X150961429Y-99597143D02*
X150875715Y-99625714D01*
X150847143Y-99654286D01*
X150818572Y-99711429D01*
X150818572Y-99797143D01*
X150847143Y-99854286D01*
X150875715Y-99882857D01*
X150932857Y-99911429D01*
X151161429Y-99911429D01*
X151161429Y-99311429D01*
X150961429Y-99311429D01*
X150904286Y-99340000D01*
X150875715Y-99368571D01*
X150847143Y-99425714D01*
X150847143Y-99482857D01*
X150875715Y-99540000D01*
X150904286Y-99568571D01*
X150961429Y-99597143D01*
X151161429Y-99597143D01*
X150590000Y-99740000D02*
X150304286Y-99740000D01*
X150647143Y-99911429D02*
X150447143Y-99311429D01*
X150247143Y-99911429D01*
X150132857Y-99311429D02*
X149790000Y-99311429D01*
X149961429Y-99911429D02*
X149961429Y-99311429D01*
D11*
X153972857Y-94909143D02*
X153972857Y-94337714D01*
X152772857Y-94337714D01*
X153972857Y-95309143D02*
X152772857Y-95309143D01*
X153972857Y-95880572D02*
X152772857Y-95880572D01*
X153972857Y-96566287D01*
X152772857Y-96566287D01*
X149534286Y-94483714D02*
X149591429Y-94655143D01*
X149648571Y-94712286D01*
X149762857Y-94769429D01*
X149934286Y-94769429D01*
X150048571Y-94712286D01*
X150105714Y-94655143D01*
X150162857Y-94540857D01*
X150162857Y-94083714D01*
X148962857Y-94083714D01*
X148962857Y-94483714D01*
X149020000Y-94598000D01*
X149077143Y-94655143D01*
X149191429Y-94712286D01*
X149305714Y-94712286D01*
X149420000Y-94655143D01*
X149477143Y-94598000D01*
X149534286Y-94483714D01*
X149534286Y-94083714D01*
X149820000Y-95226571D02*
X149820000Y-95798000D01*
X150162857Y-95112286D02*
X148962857Y-95512286D01*
X150162857Y-95912286D01*
X148962857Y-96140857D02*
X148962857Y-96826571D01*
X150162857Y-96483714D02*
X148962857Y-96483714D01*
X149705714Y-97226571D02*
X149705714Y-98140857D01*
X145470286Y-94483714D02*
X145527429Y-94655143D01*
X145584571Y-94712286D01*
X145698857Y-94769429D01*
X145870286Y-94769429D01*
X145984571Y-94712286D01*
X146041714Y-94655143D01*
X146098857Y-94540857D01*
X146098857Y-94083714D01*
X144898857Y-94083714D01*
X144898857Y-94483714D01*
X144956000Y-94598000D01*
X145013143Y-94655143D01*
X145127429Y-94712286D01*
X145241714Y-94712286D01*
X145356000Y-94655143D01*
X145413143Y-94598000D01*
X145470286Y-94483714D01*
X145470286Y-94083714D01*
X145756000Y-95226571D02*
X145756000Y-95798000D01*
X146098857Y-95112286D02*
X144898857Y-95512286D01*
X146098857Y-95912286D01*
X144898857Y-96140857D02*
X144898857Y-96826571D01*
X146098857Y-96483714D02*
X144898857Y-96483714D01*
X145641714Y-97226571D02*
X145641714Y-98140857D01*
X146098857Y-97683714D02*
X145184571Y-97683714D01*
D10*
X154952591Y-86957995D02*
X155238305Y-86957995D01*
X155238305Y-86357995D01*
X154752591Y-86357995D02*
X154752591Y-86843709D01*
X154724019Y-86900852D01*
X154695448Y-86929423D01*
X154638305Y-86957995D01*
X154524019Y-86957995D01*
X154466877Y-86929423D01*
X154438305Y-86900852D01*
X154409734Y-86843709D01*
X154409734Y-86357995D01*
X153781163Y-86900852D02*
X153809734Y-86929423D01*
X153895448Y-86957995D01*
X153952591Y-86957995D01*
X154038306Y-86929423D01*
X154095448Y-86872280D01*
X154124020Y-86815137D01*
X154152591Y-86700852D01*
X154152591Y-86615137D01*
X154124020Y-86500852D01*
X154095448Y-86443709D01*
X154038306Y-86386566D01*
X153952591Y-86357995D01*
X153895448Y-86357995D01*
X153809734Y-86386566D01*
X153781163Y-86415137D01*
X153209734Y-86957995D02*
X153552591Y-86957995D01*
X153381163Y-86957995D02*
X153381163Y-86357995D01*
X153438306Y-86443709D01*
X153495448Y-86500852D01*
X153552591Y-86529423D01*
X152952591Y-86900852D02*
X152924019Y-86929423D01*
X152952591Y-86957995D01*
X152981162Y-86929423D01*
X152952591Y-86900852D01*
X152952591Y-86957995D01*
X152552591Y-86357995D02*
X152495448Y-86357995D01*
X152438305Y-86386566D01*
X152409734Y-86415137D01*
X152381163Y-86472280D01*
X152352591Y-86586566D01*
X152352591Y-86729423D01*
X152381163Y-86843709D01*
X152409734Y-86900852D01*
X152438305Y-86929423D01*
X152495448Y-86957995D01*
X152552591Y-86957995D01*
X152609734Y-86929423D01*
X152638305Y-86900852D01*
X152666877Y-86843709D01*
X152695448Y-86729423D01*
X152695448Y-86586566D01*
X152666877Y-86472280D01*
X152638305Y-86415137D01*
X152609734Y-86386566D01*
X152552591Y-86357995D01*
D12*
X155844963Y-85036490D02*
X155844963Y-86574585D01*
X155916391Y-86755537D01*
X155987820Y-86846014D01*
X156130677Y-86936490D01*
X156416391Y-86936490D01*
X156559249Y-86846014D01*
X156630677Y-86755537D01*
X156702106Y-86574585D01*
X156702106Y-85036490D01*
D10*
X155086019Y-86007080D02*
X155124114Y-86045176D01*
X155238400Y-86083271D01*
X155314590Y-86083271D01*
X155428876Y-86045176D01*
X155505067Y-85968985D01*
X155543162Y-85892795D01*
X155581257Y-85740414D01*
X155581257Y-85626128D01*
X155543162Y-85473747D01*
X155505067Y-85397556D01*
X155428876Y-85321366D01*
X155314590Y-85283271D01*
X155238400Y-85283271D01*
X155124114Y-85321366D01*
X155086019Y-85359461D01*
X154781257Y-85854699D02*
X154400305Y-85854699D01*
X154857448Y-86083271D02*
X154590781Y-85283271D01*
X154324114Y-86083271D01*
X154057448Y-86083271D02*
X154057448Y-85283271D01*
X153600305Y-86083271D01*
X153600305Y-85283271D01*
D13*
X155867134Y-85010166D02*
X153221534Y-85010166D01*
D14*
X157300000Y-100088000D02*
X157300000Y-102748000D01*
X152160000Y-100088000D02*
X157300000Y-100088000D01*
X152160000Y-102748000D02*
X157300000Y-102748000D01*
X152160000Y-100088000D02*
X152160000Y-102748000D01*
X150890000Y-100088000D02*
X149560000Y-100088000D01*
X149560000Y-100088000D02*
X149560000Y-101418000D01*
X158032000Y-103246000D02*
X158032000Y-115846000D01*
X158032000Y-115846000D02*
X142632000Y-115846000D01*
X142632000Y-115846000D02*
X142632000Y-114896000D01*
X142632000Y-114896000D02*
X142132000Y-115196000D01*
X142132000Y-115196000D02*
X142132000Y-113196000D01*
X142132000Y-113196000D02*
X142632000Y-113446000D01*
X142632000Y-113446000D02*
X142632000Y-108046000D01*
X142632000Y-108046000D02*
X142132000Y-108296000D01*
X142132000Y-108296000D02*
X142132000Y-103246000D01*
X142132000Y-103246000D02*
X158032000Y-103246000D01*
X157300000Y-97160000D02*
X154640000Y-97160000D01*
X157300000Y-94560000D02*
X157300000Y-97160000D01*
X154640000Y-94560000D02*
X154640000Y-97160000D01*
X157300000Y-94560000D02*
X154640000Y-94560000D01*
X157300000Y-93290000D02*
X157300000Y-91960000D01*
X157300000Y-91960000D02*
X155970000Y-91960000D01*
D15*
X156351860Y-84021120D02*
X156351860Y-69924120D01*
X141365860Y-69924120D02*
X141365860Y-84021120D01*
X156351860Y-84021120D02*
X141365860Y-84021120D01*
X156351860Y-69924120D02*
X141365860Y-69924120D01*
D16*
X149146952Y-102554667D02*
X149432667Y-102554667D01*
X149489810Y-102535619D01*
X149527905Y-102497524D01*
X149546952Y-102440381D01*
X149546952Y-102402286D01*
X149546952Y-102954667D02*
X149546952Y-102726095D01*
X149546952Y-102840381D02*
X149146952Y-102840381D01*
X149204095Y-102802286D01*
X149242190Y-102764191D01*
X149261238Y-102726095D01*
X156611333Y-104754952D02*
X156611333Y-105040667D01*
X156630381Y-105097810D01*
X156668476Y-105135905D01*
X156725619Y-105154952D01*
X156763714Y-105154952D01*
X156439905Y-104793048D02*
X156420857Y-104774000D01*
X156382762Y-104754952D01*
X156287524Y-104754952D01*
X156249428Y-104774000D01*
X156230381Y-104793048D01*
X156211333Y-104831143D01*
X156211333Y-104869238D01*
X156230381Y-104926381D01*
X156458952Y-105154952D01*
X156211333Y-105154952D01*
X156103333Y-91292952D02*
X156103333Y-91578667D01*
X156122381Y-91635810D01*
X156160476Y-91673905D01*
X156217619Y-91692952D01*
X156255714Y-91692952D01*
X155722381Y-91292952D02*
X155912857Y-91292952D01*
X155931905Y-91483429D01*
X155912857Y-91464381D01*
X155874762Y-91445333D01*
X155779524Y-91445333D01*
X155741428Y-91464381D01*
X155722381Y-91483429D01*
X155703333Y-91521524D01*
X155703333Y-91616762D01*
X155722381Y-91654857D01*
X155741428Y-91673905D01*
X155779524Y-91692952D01*
X155874762Y-91692952D01*
X155912857Y-91673905D01*
X155931905Y-91654857D01*
X143304952Y-82742667D02*
X143590667Y-82742667D01*
X143647810Y-82723619D01*
X143685905Y-82685524D01*
X143704952Y-82628381D01*
X143704952Y-82590286D01*
X143438286Y-83104572D02*
X143704952Y-83104572D01*
X143285905Y-83009334D02*
X143571619Y-82914095D01*
X143571619Y-83161715D01*
M02*
