G04 #@! TF.FileFunction,Copper,L2,Bot,Signal*
%FSLAX46Y46*%
G04 Gerber Fmt 4.6, Leading zero omitted, Abs format (unit mm)*
G04 Created by KiCad (PCBNEW 4.0.7) date 01/29/18 07:06:24*
%MOMM*%
%LPD*%
G01*
G04 APERTURE LIST*
%ADD10C,0.100000*%
%ADD11C,1.000000*%
%ADD12C,2.500000*%
%ADD13R,1.700000X1.700000*%
%ADD14O,1.700000X1.700000*%
%ADD15R,1.980000X3.960000*%
%ADD16O,1.980000X3.960000*%
%ADD17C,1.501140*%
%ADD18O,1.400000X3.800000*%
%ADD19C,0.600000*%
%ADD20C,0.250000*%
%ADD21C,0.254000*%
G04 APERTURE END LIST*
D10*
D11*
X148858000Y-80082000D03*
D12*
X142000000Y-109800000D03*
D13*
X150890000Y-101418000D03*
D14*
X153430000Y-101418000D03*
X155970000Y-101418000D03*
D15*
X155382000Y-109546000D03*
D16*
X150382000Y-109546000D03*
X145382000Y-109546000D03*
D13*
X155970000Y-93290000D03*
D14*
X155970000Y-95830000D03*
D17*
X152414860Y-82878120D03*
X149874860Y-82878120D03*
X147842860Y-82878120D03*
X145302860Y-82878120D03*
D18*
X154700000Y-80590000D03*
X143016000Y-80590000D03*
D19*
X144032000Y-88464000D03*
X147334000Y-92528000D03*
X151144000Y-92070000D03*
X143778000Y-93544000D03*
X148350000Y-93544000D03*
X148096000Y-91258000D03*
X143524000Y-92528000D03*
X141746000Y-107006000D03*
X141746000Y-102942000D03*
X142254000Y-100910000D03*
X151906000Y-97862000D03*
D20*
X144552291Y-87943709D02*
X144032000Y-88464000D01*
X145302860Y-82878120D02*
X144552291Y-83628689D01*
X144552291Y-83628689D02*
X144552291Y-87943709D01*
X147492001Y-92369999D02*
X147334000Y-92528000D01*
X151144000Y-92070000D02*
X150844001Y-92369999D01*
X150844001Y-92369999D02*
X147492001Y-92369999D01*
X148350000Y-93544000D02*
X143778000Y-93544000D01*
X147588000Y-90750000D02*
X148096000Y-91258000D01*
X144794000Y-90750000D02*
X147588000Y-90750000D01*
X143823999Y-91720001D02*
X144794000Y-90750000D01*
X143524000Y-92528000D02*
X143823999Y-92228001D01*
X143823999Y-92228001D02*
X143823999Y-91720001D01*
X149142000Y-109546000D02*
X146602000Y-107006000D01*
X146602000Y-107006000D02*
X141746000Y-107006000D01*
X150382000Y-109546000D02*
X149142000Y-109546000D01*
X149142000Y-109546000D02*
X146836990Y-107240990D01*
X146836990Y-107240990D02*
X141511010Y-107240990D01*
X142538000Y-102942000D02*
X141746000Y-102942000D01*
X149142000Y-109546000D02*
X142538000Y-102942000D01*
X153108081Y-100148000D02*
X147588000Y-100148000D01*
X153176000Y-101418000D02*
X153176000Y-100215919D01*
X153176000Y-100215919D02*
X153108081Y-100148000D01*
X143061999Y-100102001D02*
X142254000Y-100910000D01*
X146363999Y-100102001D02*
X143061999Y-100102001D01*
X148604000Y-97862000D02*
X151906000Y-97862000D01*
X146363999Y-100102001D02*
X148604000Y-97862000D01*
D21*
G36*
X154576494Y-96395223D02*
X154896667Y-96874397D01*
X155375841Y-97194570D01*
X155941064Y-97307000D01*
X155998936Y-97307000D01*
X156564159Y-97194570D01*
X157043333Y-96874397D01*
X157275000Y-96527682D01*
X157275000Y-100734688D01*
X157014397Y-100344667D01*
X156535223Y-100024494D01*
X155970000Y-99912064D01*
X155404777Y-100024494D01*
X154925603Y-100344667D01*
X154696236Y-100687939D01*
X154625183Y-100536642D01*
X154196924Y-100146355D01*
X153786890Y-99976524D01*
X153557000Y-100097845D01*
X153557000Y-101291000D01*
X153577000Y-101291000D01*
X153577000Y-101545000D01*
X153557000Y-101545000D01*
X153557000Y-102738155D01*
X153786890Y-102859476D01*
X154196924Y-102689645D01*
X154625183Y-102299358D01*
X154696236Y-102148061D01*
X154925603Y-102491333D01*
X155404777Y-102811506D01*
X155970000Y-102923936D01*
X156535223Y-102811506D01*
X157014397Y-102491333D01*
X157275000Y-102101312D01*
X157275000Y-111613000D01*
X156993665Y-111613000D01*
X157011283Y-111526000D01*
X157011283Y-107566000D01*
X156967563Y-107333648D01*
X156830243Y-107120247D01*
X156620717Y-106977083D01*
X156372000Y-106926717D01*
X154392000Y-106926717D01*
X154159648Y-106970437D01*
X153946247Y-107107757D01*
X153803083Y-107317283D01*
X153752717Y-107566000D01*
X153752717Y-111526000D01*
X153769087Y-111613000D01*
X151568696Y-111613000D01*
X151834703Y-111275193D01*
X152007000Y-110663000D01*
X152007000Y-109673000D01*
X150509000Y-109673000D01*
X150509000Y-109693000D01*
X150255000Y-109693000D01*
X150255000Y-109673000D01*
X148757000Y-109673000D01*
X148757000Y-110663000D01*
X148929297Y-111275193D01*
X149195304Y-111613000D01*
X146603880Y-111613000D01*
X146875913Y-111205873D01*
X146999000Y-110587074D01*
X146999000Y-108504926D01*
X146983898Y-108429000D01*
X148757000Y-108429000D01*
X148757000Y-109419000D01*
X150255000Y-109419000D01*
X150255000Y-107095260D01*
X150509000Y-107095260D01*
X150509000Y-109419000D01*
X152007000Y-109419000D01*
X152007000Y-108429000D01*
X151834703Y-107816807D01*
X151441246Y-107317149D01*
X150886528Y-107006095D01*
X150760865Y-106975782D01*
X150509000Y-107095260D01*
X150255000Y-107095260D01*
X150003135Y-106975782D01*
X149877472Y-107006095D01*
X149322754Y-107317149D01*
X148929297Y-107816807D01*
X148757000Y-108429000D01*
X146983898Y-108429000D01*
X146875913Y-107886127D01*
X146525392Y-107361534D01*
X146000799Y-107011013D01*
X145382000Y-106887926D01*
X144763201Y-107011013D01*
X144238608Y-107361534D01*
X143888087Y-107886127D01*
X143765000Y-108504926D01*
X143765000Y-109156432D01*
X143592171Y-108738154D01*
X143064624Y-108209684D01*
X142374996Y-107923326D01*
X141628280Y-107922675D01*
X140949000Y-108203348D01*
X140949000Y-98751000D01*
X146651512Y-98751000D01*
X146052511Y-99350001D01*
X143061999Y-99350001D01*
X142774221Y-99407244D01*
X142530255Y-99570257D01*
X142117632Y-99982880D01*
X142070417Y-99982839D01*
X141729583Y-100123669D01*
X141468586Y-100384211D01*
X141327161Y-100724799D01*
X141326839Y-101093583D01*
X141467669Y-101434417D01*
X141728211Y-101695414D01*
X142068799Y-101836839D01*
X142437583Y-101837161D01*
X142778417Y-101696331D01*
X143039414Y-101435789D01*
X143180839Y-101095201D01*
X143180881Y-101046607D01*
X143373487Y-100854001D01*
X146363999Y-100854001D01*
X146651777Y-100796758D01*
X146895743Y-100633745D01*
X146961488Y-100568000D01*
X149400717Y-100568000D01*
X149400717Y-102268000D01*
X149444437Y-102500352D01*
X149581757Y-102713753D01*
X149791283Y-102856917D01*
X150040000Y-102907283D01*
X151740000Y-102907283D01*
X151972352Y-102863563D01*
X152185753Y-102726243D01*
X152328917Y-102516717D01*
X152351415Y-102405618D01*
X152663076Y-102689645D01*
X153073110Y-102859476D01*
X153303000Y-102738155D01*
X153303000Y-101545000D01*
X153283000Y-101545000D01*
X153283000Y-101291000D01*
X153303000Y-101291000D01*
X153303000Y-100097845D01*
X153073110Y-99976524D01*
X152663076Y-100146355D01*
X152353100Y-100428847D01*
X152335563Y-100335648D01*
X152198243Y-100122247D01*
X151988717Y-99979083D01*
X151740000Y-99928717D01*
X150040000Y-99928717D01*
X149807648Y-99972437D01*
X149594247Y-100109757D01*
X149451083Y-100319283D01*
X149400717Y-100568000D01*
X146961488Y-100568000D01*
X148778488Y-98751000D01*
X150128000Y-98751000D01*
X150177410Y-98740994D01*
X150219035Y-98712553D01*
X150246315Y-98670159D01*
X150255000Y-98624000D01*
X150255000Y-98614000D01*
X151346855Y-98614000D01*
X151380211Y-98647414D01*
X151720799Y-98788839D01*
X152089583Y-98789161D01*
X152430417Y-98648331D01*
X152691414Y-98387789D01*
X152832839Y-98047201D01*
X152833161Y-97678417D01*
X152692331Y-97337583D01*
X152431789Y-97076586D01*
X152091201Y-96935161D01*
X151722417Y-96934839D01*
X151381583Y-97075669D01*
X151347192Y-97110000D01*
X150255000Y-97110000D01*
X150255000Y-95957000D01*
X154489326Y-95957000D01*
X154576494Y-96395223D01*
X154576494Y-96395223D01*
G37*
X154576494Y-96395223D02*
X154896667Y-96874397D01*
X155375841Y-97194570D01*
X155941064Y-97307000D01*
X155998936Y-97307000D01*
X156564159Y-97194570D01*
X157043333Y-96874397D01*
X157275000Y-96527682D01*
X157275000Y-100734688D01*
X157014397Y-100344667D01*
X156535223Y-100024494D01*
X155970000Y-99912064D01*
X155404777Y-100024494D01*
X154925603Y-100344667D01*
X154696236Y-100687939D01*
X154625183Y-100536642D01*
X154196924Y-100146355D01*
X153786890Y-99976524D01*
X153557000Y-100097845D01*
X153557000Y-101291000D01*
X153577000Y-101291000D01*
X153577000Y-101545000D01*
X153557000Y-101545000D01*
X153557000Y-102738155D01*
X153786890Y-102859476D01*
X154196924Y-102689645D01*
X154625183Y-102299358D01*
X154696236Y-102148061D01*
X154925603Y-102491333D01*
X155404777Y-102811506D01*
X155970000Y-102923936D01*
X156535223Y-102811506D01*
X157014397Y-102491333D01*
X157275000Y-102101312D01*
X157275000Y-111613000D01*
X156993665Y-111613000D01*
X157011283Y-111526000D01*
X157011283Y-107566000D01*
X156967563Y-107333648D01*
X156830243Y-107120247D01*
X156620717Y-106977083D01*
X156372000Y-106926717D01*
X154392000Y-106926717D01*
X154159648Y-106970437D01*
X153946247Y-107107757D01*
X153803083Y-107317283D01*
X153752717Y-107566000D01*
X153752717Y-111526000D01*
X153769087Y-111613000D01*
X151568696Y-111613000D01*
X151834703Y-111275193D01*
X152007000Y-110663000D01*
X152007000Y-109673000D01*
X150509000Y-109673000D01*
X150509000Y-109693000D01*
X150255000Y-109693000D01*
X150255000Y-109673000D01*
X148757000Y-109673000D01*
X148757000Y-110663000D01*
X148929297Y-111275193D01*
X149195304Y-111613000D01*
X146603880Y-111613000D01*
X146875913Y-111205873D01*
X146999000Y-110587074D01*
X146999000Y-108504926D01*
X146983898Y-108429000D01*
X148757000Y-108429000D01*
X148757000Y-109419000D01*
X150255000Y-109419000D01*
X150255000Y-107095260D01*
X150509000Y-107095260D01*
X150509000Y-109419000D01*
X152007000Y-109419000D01*
X152007000Y-108429000D01*
X151834703Y-107816807D01*
X151441246Y-107317149D01*
X150886528Y-107006095D01*
X150760865Y-106975782D01*
X150509000Y-107095260D01*
X150255000Y-107095260D01*
X150003135Y-106975782D01*
X149877472Y-107006095D01*
X149322754Y-107317149D01*
X148929297Y-107816807D01*
X148757000Y-108429000D01*
X146983898Y-108429000D01*
X146875913Y-107886127D01*
X146525392Y-107361534D01*
X146000799Y-107011013D01*
X145382000Y-106887926D01*
X144763201Y-107011013D01*
X144238608Y-107361534D01*
X143888087Y-107886127D01*
X143765000Y-108504926D01*
X143765000Y-109156432D01*
X143592171Y-108738154D01*
X143064624Y-108209684D01*
X142374996Y-107923326D01*
X141628280Y-107922675D01*
X140949000Y-108203348D01*
X140949000Y-98751000D01*
X146651512Y-98751000D01*
X146052511Y-99350001D01*
X143061999Y-99350001D01*
X142774221Y-99407244D01*
X142530255Y-99570257D01*
X142117632Y-99982880D01*
X142070417Y-99982839D01*
X141729583Y-100123669D01*
X141468586Y-100384211D01*
X141327161Y-100724799D01*
X141326839Y-101093583D01*
X141467669Y-101434417D01*
X141728211Y-101695414D01*
X142068799Y-101836839D01*
X142437583Y-101837161D01*
X142778417Y-101696331D01*
X143039414Y-101435789D01*
X143180839Y-101095201D01*
X143180881Y-101046607D01*
X143373487Y-100854001D01*
X146363999Y-100854001D01*
X146651777Y-100796758D01*
X146895743Y-100633745D01*
X146961488Y-100568000D01*
X149400717Y-100568000D01*
X149400717Y-102268000D01*
X149444437Y-102500352D01*
X149581757Y-102713753D01*
X149791283Y-102856917D01*
X150040000Y-102907283D01*
X151740000Y-102907283D01*
X151972352Y-102863563D01*
X152185753Y-102726243D01*
X152328917Y-102516717D01*
X152351415Y-102405618D01*
X152663076Y-102689645D01*
X153073110Y-102859476D01*
X153303000Y-102738155D01*
X153303000Y-101545000D01*
X153283000Y-101545000D01*
X153283000Y-101291000D01*
X153303000Y-101291000D01*
X153303000Y-100097845D01*
X153073110Y-99976524D01*
X152663076Y-100146355D01*
X152353100Y-100428847D01*
X152335563Y-100335648D01*
X152198243Y-100122247D01*
X151988717Y-99979083D01*
X151740000Y-99928717D01*
X150040000Y-99928717D01*
X149807648Y-99972437D01*
X149594247Y-100109757D01*
X149451083Y-100319283D01*
X149400717Y-100568000D01*
X146961488Y-100568000D01*
X148778488Y-98751000D01*
X150128000Y-98751000D01*
X150177410Y-98740994D01*
X150219035Y-98712553D01*
X150246315Y-98670159D01*
X150255000Y-98624000D01*
X150255000Y-98614000D01*
X151346855Y-98614000D01*
X151380211Y-98647414D01*
X151720799Y-98788839D01*
X152089583Y-98789161D01*
X152430417Y-98648331D01*
X152691414Y-98387789D01*
X152832839Y-98047201D01*
X152833161Y-97678417D01*
X152692331Y-97337583D01*
X152431789Y-97076586D01*
X152091201Y-96935161D01*
X151722417Y-96934839D01*
X151381583Y-97075669D01*
X151347192Y-97110000D01*
X150255000Y-97110000D01*
X150255000Y-95957000D01*
X154489326Y-95957000D01*
X154576494Y-96395223D01*
G36*
X141681000Y-79263000D02*
X141681000Y-80463000D01*
X142889000Y-80463000D01*
X142889000Y-80443000D01*
X143143000Y-80443000D01*
X143143000Y-80463000D01*
X144351000Y-80463000D01*
X144351000Y-79263000D01*
X144281466Y-79031000D01*
X147933453Y-79031000D01*
X147674371Y-79289630D01*
X147578010Y-79521694D01*
X147353026Y-79296317D01*
X146847104Y-79086240D01*
X146299299Y-79085762D01*
X145793011Y-79294956D01*
X145405317Y-79681974D01*
X145195240Y-80187896D01*
X145194762Y-80735701D01*
X145403956Y-81241989D01*
X145715800Y-81554378D01*
X145507826Y-81480353D01*
X144957322Y-81508315D01*
X144578595Y-81665189D01*
X144510536Y-81906188D01*
X144395483Y-81791135D01*
X144351000Y-81835618D01*
X144351000Y-80717000D01*
X143143000Y-80717000D01*
X143143000Y-82959374D01*
X143349329Y-83082716D01*
X143409550Y-83071980D01*
X143870185Y-82823790D01*
X143910248Y-82774640D01*
X143933055Y-83223658D01*
X144089929Y-83602385D01*
X144330930Y-83670445D01*
X145123255Y-82878120D01*
X145109113Y-82863978D01*
X145288718Y-82684373D01*
X145302860Y-82698515D01*
X146095185Y-81906190D01*
X146047137Y-81736051D01*
X146296896Y-81839760D01*
X146844701Y-81840238D01*
X146994805Y-81778216D01*
X146675694Y-82096771D01*
X146583807Y-82318060D01*
X146515791Y-82153855D01*
X146274790Y-82085795D01*
X145482465Y-82878120D01*
X146274790Y-83670445D01*
X146515791Y-83602385D01*
X146578635Y-83425825D01*
X146674332Y-83657431D01*
X147061511Y-84045286D01*
X147567642Y-84255450D01*
X148115673Y-84255928D01*
X148622171Y-84046648D01*
X148858933Y-83810299D01*
X149093511Y-84045286D01*
X149599642Y-84255450D01*
X150147673Y-84255928D01*
X150654171Y-84046648D01*
X151042026Y-83659469D01*
X151144853Y-83411833D01*
X151246332Y-83657431D01*
X151633511Y-84045286D01*
X152139642Y-84255450D01*
X152687673Y-84255928D01*
X153194171Y-84046648D01*
X153582026Y-83659469D01*
X153792190Y-83153338D01*
X153792534Y-82758425D01*
X153845815Y-82823790D01*
X154306450Y-83071980D01*
X154366671Y-83082716D01*
X154573000Y-82959374D01*
X154573000Y-80717000D01*
X154827000Y-80717000D01*
X154827000Y-82959374D01*
X155033329Y-83082716D01*
X155093550Y-83071980D01*
X155554185Y-82823790D01*
X155884778Y-82418215D01*
X156035000Y-81917000D01*
X156035000Y-80717000D01*
X154827000Y-80717000D01*
X154573000Y-80717000D01*
X153365000Y-80717000D01*
X153365000Y-81880040D01*
X153196209Y-81710954D01*
X152690078Y-81500790D01*
X152142047Y-81500312D01*
X151991732Y-81562421D01*
X152310683Y-81244026D01*
X152520760Y-80738104D01*
X152521238Y-80190299D01*
X152312044Y-79684011D01*
X151925026Y-79296317D01*
X151419104Y-79086240D01*
X150871299Y-79085762D01*
X150365011Y-79294956D01*
X150137994Y-79521577D01*
X150043010Y-79291697D01*
X149782768Y-79031000D01*
X153434534Y-79031000D01*
X153365000Y-79263000D01*
X153365000Y-80463000D01*
X154573000Y-80463000D01*
X154573000Y-80443000D01*
X154827000Y-80443000D01*
X154827000Y-80463000D01*
X156035000Y-80463000D01*
X156035000Y-79263000D01*
X155965466Y-79031000D01*
X157275000Y-79031000D01*
X157275000Y-91131000D01*
X154192000Y-91131000D01*
X154142590Y-91141006D01*
X154100965Y-91169447D01*
X154073685Y-91211841D01*
X154065000Y-91258000D01*
X154065000Y-94179000D01*
X149366000Y-94179000D01*
X149316590Y-94189006D01*
X149274965Y-94217447D01*
X149247685Y-94259841D01*
X149239000Y-94306000D01*
X149239000Y-96973000D01*
X140949000Y-96973000D01*
X140949000Y-92711583D01*
X142596839Y-92711583D01*
X142737669Y-93052417D01*
X142907669Y-93222714D01*
X142851161Y-93358799D01*
X142850839Y-93727583D01*
X142991669Y-94068417D01*
X143252211Y-94329414D01*
X143592799Y-94470839D01*
X143961583Y-94471161D01*
X144302417Y-94330331D01*
X144336808Y-94296000D01*
X147790855Y-94296000D01*
X147824211Y-94329414D01*
X148164799Y-94470839D01*
X148533583Y-94471161D01*
X148874417Y-94330331D01*
X149135414Y-94069789D01*
X149276839Y-93729201D01*
X149277161Y-93360417D01*
X149136331Y-93019583D01*
X148875789Y-92758586D01*
X148535201Y-92617161D01*
X148166417Y-92616839D01*
X147825583Y-92757669D01*
X147791192Y-92792000D01*
X144418119Y-92792000D01*
X144450839Y-92713201D01*
X144450923Y-92617299D01*
X144510590Y-92528000D01*
X144518756Y-92515779D01*
X144575999Y-92228001D01*
X144575999Y-92031489D01*
X145105489Y-91502000D01*
X147193803Y-91502000D01*
X147309669Y-91782417D01*
X147570211Y-92043414D01*
X147910799Y-92184839D01*
X148279583Y-92185161D01*
X148620417Y-92044331D01*
X148881414Y-91783789D01*
X149022839Y-91443201D01*
X149023161Y-91074417D01*
X148882331Y-90733583D01*
X148621789Y-90472586D01*
X148281201Y-90331161D01*
X148232607Y-90331119D01*
X148119744Y-90218256D01*
X147875778Y-90055243D01*
X147588000Y-89998000D01*
X144794000Y-89998000D01*
X144506222Y-90055243D01*
X144408503Y-90120536D01*
X144262256Y-90218255D01*
X143292255Y-91188257D01*
X143129242Y-91432223D01*
X143073788Y-91711008D01*
X142999583Y-91741669D01*
X142738586Y-92002211D01*
X142597161Y-92342799D01*
X142596839Y-92711583D01*
X140949000Y-92711583D01*
X140949000Y-83850050D01*
X144510535Y-83850050D01*
X144578595Y-84091051D01*
X145097894Y-84275887D01*
X145648398Y-84247925D01*
X146027125Y-84091051D01*
X146095185Y-83850050D01*
X145302860Y-83057725D01*
X144510535Y-83850050D01*
X140949000Y-83850050D01*
X140949000Y-80717000D01*
X141681000Y-80717000D01*
X141681000Y-81917000D01*
X141831222Y-82418215D01*
X142161815Y-82823790D01*
X142622450Y-83071980D01*
X142682671Y-83082716D01*
X142889000Y-82959374D01*
X142889000Y-80717000D01*
X141681000Y-80717000D01*
X140949000Y-80717000D01*
X140949000Y-79031000D01*
X141750534Y-79031000D01*
X141681000Y-79263000D01*
X141681000Y-79263000D01*
G37*
X141681000Y-79263000D02*
X141681000Y-80463000D01*
X142889000Y-80463000D01*
X142889000Y-80443000D01*
X143143000Y-80443000D01*
X143143000Y-80463000D01*
X144351000Y-80463000D01*
X144351000Y-79263000D01*
X144281466Y-79031000D01*
X147933453Y-79031000D01*
X147674371Y-79289630D01*
X147578010Y-79521694D01*
X147353026Y-79296317D01*
X146847104Y-79086240D01*
X146299299Y-79085762D01*
X145793011Y-79294956D01*
X145405317Y-79681974D01*
X145195240Y-80187896D01*
X145194762Y-80735701D01*
X145403956Y-81241989D01*
X145715800Y-81554378D01*
X145507826Y-81480353D01*
X144957322Y-81508315D01*
X144578595Y-81665189D01*
X144510536Y-81906188D01*
X144395483Y-81791135D01*
X144351000Y-81835618D01*
X144351000Y-80717000D01*
X143143000Y-80717000D01*
X143143000Y-82959374D01*
X143349329Y-83082716D01*
X143409550Y-83071980D01*
X143870185Y-82823790D01*
X143910248Y-82774640D01*
X143933055Y-83223658D01*
X144089929Y-83602385D01*
X144330930Y-83670445D01*
X145123255Y-82878120D01*
X145109113Y-82863978D01*
X145288718Y-82684373D01*
X145302860Y-82698515D01*
X146095185Y-81906190D01*
X146047137Y-81736051D01*
X146296896Y-81839760D01*
X146844701Y-81840238D01*
X146994805Y-81778216D01*
X146675694Y-82096771D01*
X146583807Y-82318060D01*
X146515791Y-82153855D01*
X146274790Y-82085795D01*
X145482465Y-82878120D01*
X146274790Y-83670445D01*
X146515791Y-83602385D01*
X146578635Y-83425825D01*
X146674332Y-83657431D01*
X147061511Y-84045286D01*
X147567642Y-84255450D01*
X148115673Y-84255928D01*
X148622171Y-84046648D01*
X148858933Y-83810299D01*
X149093511Y-84045286D01*
X149599642Y-84255450D01*
X150147673Y-84255928D01*
X150654171Y-84046648D01*
X151042026Y-83659469D01*
X151144853Y-83411833D01*
X151246332Y-83657431D01*
X151633511Y-84045286D01*
X152139642Y-84255450D01*
X152687673Y-84255928D01*
X153194171Y-84046648D01*
X153582026Y-83659469D01*
X153792190Y-83153338D01*
X153792534Y-82758425D01*
X153845815Y-82823790D01*
X154306450Y-83071980D01*
X154366671Y-83082716D01*
X154573000Y-82959374D01*
X154573000Y-80717000D01*
X154827000Y-80717000D01*
X154827000Y-82959374D01*
X155033329Y-83082716D01*
X155093550Y-83071980D01*
X155554185Y-82823790D01*
X155884778Y-82418215D01*
X156035000Y-81917000D01*
X156035000Y-80717000D01*
X154827000Y-80717000D01*
X154573000Y-80717000D01*
X153365000Y-80717000D01*
X153365000Y-81880040D01*
X153196209Y-81710954D01*
X152690078Y-81500790D01*
X152142047Y-81500312D01*
X151991732Y-81562421D01*
X152310683Y-81244026D01*
X152520760Y-80738104D01*
X152521238Y-80190299D01*
X152312044Y-79684011D01*
X151925026Y-79296317D01*
X151419104Y-79086240D01*
X150871299Y-79085762D01*
X150365011Y-79294956D01*
X150137994Y-79521577D01*
X150043010Y-79291697D01*
X149782768Y-79031000D01*
X153434534Y-79031000D01*
X153365000Y-79263000D01*
X153365000Y-80463000D01*
X154573000Y-80463000D01*
X154573000Y-80443000D01*
X154827000Y-80443000D01*
X154827000Y-80463000D01*
X156035000Y-80463000D01*
X156035000Y-79263000D01*
X155965466Y-79031000D01*
X157275000Y-79031000D01*
X157275000Y-91131000D01*
X154192000Y-91131000D01*
X154142590Y-91141006D01*
X154100965Y-91169447D01*
X154073685Y-91211841D01*
X154065000Y-91258000D01*
X154065000Y-94179000D01*
X149366000Y-94179000D01*
X149316590Y-94189006D01*
X149274965Y-94217447D01*
X149247685Y-94259841D01*
X149239000Y-94306000D01*
X149239000Y-96973000D01*
X140949000Y-96973000D01*
X140949000Y-92711583D01*
X142596839Y-92711583D01*
X142737669Y-93052417D01*
X142907669Y-93222714D01*
X142851161Y-93358799D01*
X142850839Y-93727583D01*
X142991669Y-94068417D01*
X143252211Y-94329414D01*
X143592799Y-94470839D01*
X143961583Y-94471161D01*
X144302417Y-94330331D01*
X144336808Y-94296000D01*
X147790855Y-94296000D01*
X147824211Y-94329414D01*
X148164799Y-94470839D01*
X148533583Y-94471161D01*
X148874417Y-94330331D01*
X149135414Y-94069789D01*
X149276839Y-93729201D01*
X149277161Y-93360417D01*
X149136331Y-93019583D01*
X148875789Y-92758586D01*
X148535201Y-92617161D01*
X148166417Y-92616839D01*
X147825583Y-92757669D01*
X147791192Y-92792000D01*
X144418119Y-92792000D01*
X144450839Y-92713201D01*
X144450923Y-92617299D01*
X144510590Y-92528000D01*
X144518756Y-92515779D01*
X144575999Y-92228001D01*
X144575999Y-92031489D01*
X145105489Y-91502000D01*
X147193803Y-91502000D01*
X147309669Y-91782417D01*
X147570211Y-92043414D01*
X147910799Y-92184839D01*
X148279583Y-92185161D01*
X148620417Y-92044331D01*
X148881414Y-91783789D01*
X149022839Y-91443201D01*
X149023161Y-91074417D01*
X148882331Y-90733583D01*
X148621789Y-90472586D01*
X148281201Y-90331161D01*
X148232607Y-90331119D01*
X148119744Y-90218256D01*
X147875778Y-90055243D01*
X147588000Y-89998000D01*
X144794000Y-89998000D01*
X144506222Y-90055243D01*
X144408503Y-90120536D01*
X144262256Y-90218255D01*
X143292255Y-91188257D01*
X143129242Y-91432223D01*
X143073788Y-91711008D01*
X142999583Y-91741669D01*
X142738586Y-92002211D01*
X142597161Y-92342799D01*
X142596839Y-92711583D01*
X140949000Y-92711583D01*
X140949000Y-83850050D01*
X144510535Y-83850050D01*
X144578595Y-84091051D01*
X145097894Y-84275887D01*
X145648398Y-84247925D01*
X146027125Y-84091051D01*
X146095185Y-83850050D01*
X145302860Y-83057725D01*
X144510535Y-83850050D01*
X140949000Y-83850050D01*
X140949000Y-80717000D01*
X141681000Y-80717000D01*
X141681000Y-81917000D01*
X141831222Y-82418215D01*
X142161815Y-82823790D01*
X142622450Y-83071980D01*
X142682671Y-83082716D01*
X142889000Y-82959374D01*
X142889000Y-80717000D01*
X141681000Y-80717000D01*
X140949000Y-80717000D01*
X140949000Y-79031000D01*
X141750534Y-79031000D01*
X141681000Y-79263000D01*
M02*
