G04 #@! TF.FileFunction,Legend,Top*
%FSLAX46Y46*%
G04 Gerber Fmt 4.6, Leading zero omitted, Abs format (unit mm)*
G04 Created by KiCad (PCBNEW 4.0.7) date 01/29/18 07:06:24*
%MOMM*%
%LPD*%
G01*
G04 APERTURE LIST*
%ADD10C,0.100000*%
%ADD11C,0.200000*%
%ADD12C,0.150000*%
%ADD13C,0.120000*%
%ADD14C,0.090000*%
G04 APERTURE END LIST*
D10*
D11*
X142560605Y-100148000D02*
G75*
G03X142560605Y-100148000I-179605J0D01*
G01*
D10*
X142203142Y-85462000D02*
X142260285Y-85490571D01*
X142345999Y-85490571D01*
X142431714Y-85462000D01*
X142488856Y-85404857D01*
X142517428Y-85347714D01*
X142545999Y-85233429D01*
X142545999Y-85147714D01*
X142517428Y-85033429D01*
X142488856Y-84976286D01*
X142431714Y-84919143D01*
X142345999Y-84890571D01*
X142288856Y-84890571D01*
X142203142Y-84919143D01*
X142174571Y-84947714D01*
X142174571Y-85147714D01*
X142288856Y-85147714D01*
X141917428Y-84890571D02*
X141917428Y-85490571D01*
X141574571Y-84890571D01*
X141574571Y-85490571D01*
X141288857Y-84890571D02*
X141288857Y-85490571D01*
X141146000Y-85490571D01*
X141060285Y-85462000D01*
X141003143Y-85404857D01*
X140974571Y-85347714D01*
X140946000Y-85233429D01*
X140946000Y-85147714D01*
X140974571Y-85033429D01*
X141003143Y-84976286D01*
X141060285Y-84919143D01*
X141146000Y-84890571D01*
X141288857Y-84890571D01*
X143795429Y-94126572D02*
X143509714Y-94326572D01*
X143795429Y-94469429D02*
X143195429Y-94469429D01*
X143195429Y-94240857D01*
X143224000Y-94183715D01*
X143252571Y-94155143D01*
X143309714Y-94126572D01*
X143395429Y-94126572D01*
X143452571Y-94155143D01*
X143481143Y-94183715D01*
X143509714Y-94240857D01*
X143509714Y-94469429D01*
X143766857Y-93898000D02*
X143795429Y-93812286D01*
X143795429Y-93669429D01*
X143766857Y-93612286D01*
X143738286Y-93583715D01*
X143681143Y-93555143D01*
X143624000Y-93555143D01*
X143566857Y-93583715D01*
X143538286Y-93612286D01*
X143509714Y-93669429D01*
X143481143Y-93783715D01*
X143452571Y-93840857D01*
X143424000Y-93869429D01*
X143366857Y-93898000D01*
X143309714Y-93898000D01*
X143252571Y-93869429D01*
X143224000Y-93840857D01*
X143195429Y-93783715D01*
X143195429Y-93640857D01*
X143224000Y-93555143D01*
X143195429Y-93383714D02*
X143195429Y-93040857D01*
X143795429Y-93212286D02*
X143195429Y-93212286D01*
X142360285Y-87430571D02*
X142360285Y-88030571D01*
X142217428Y-88030571D01*
X142131713Y-88002000D01*
X142074571Y-87944857D01*
X142045999Y-87887714D01*
X142017428Y-87773429D01*
X142017428Y-87687714D01*
X142045999Y-87573429D01*
X142074571Y-87516286D01*
X142131713Y-87459143D01*
X142217428Y-87430571D01*
X142360285Y-87430571D01*
X141760285Y-87430571D02*
X141760285Y-88030571D01*
X141360285Y-88030571D02*
X141245999Y-88030571D01*
X141188857Y-88002000D01*
X141131714Y-87944857D01*
X141103142Y-87830571D01*
X141103142Y-87630571D01*
X141131714Y-87516286D01*
X141188857Y-87459143D01*
X141245999Y-87430571D01*
X141360285Y-87430571D01*
X141417428Y-87459143D01*
X141474571Y-87516286D01*
X141503142Y-87630571D01*
X141503142Y-87830571D01*
X141474571Y-87944857D01*
X141417428Y-88002000D01*
X141360285Y-88030571D01*
X141003142Y-89913429D02*
X141374571Y-89913429D01*
X141174571Y-90142000D01*
X141260285Y-90142000D01*
X141317428Y-90170571D01*
X141345999Y-90199143D01*
X141374571Y-90256286D01*
X141374571Y-90399143D01*
X141345999Y-90456286D01*
X141317428Y-90484857D01*
X141260285Y-90513429D01*
X141088857Y-90513429D01*
X141031714Y-90484857D01*
X141003142Y-90456286D01*
X141546000Y-89913429D02*
X141746000Y-90513429D01*
X141946000Y-89913429D01*
X142088857Y-89913429D02*
X142460286Y-89913429D01*
X142260286Y-90142000D01*
X142346000Y-90142000D01*
X142403143Y-90170571D01*
X142431714Y-90199143D01*
X142460286Y-90256286D01*
X142460286Y-90399143D01*
X142431714Y-90456286D01*
X142403143Y-90484857D01*
X142346000Y-90513429D01*
X142174572Y-90513429D01*
X142117429Y-90484857D01*
X142088857Y-90456286D01*
X141388857Y-92996286D02*
X141360286Y-93024857D01*
X141274572Y-93053429D01*
X141217429Y-93053429D01*
X141131714Y-93024857D01*
X141074572Y-92967714D01*
X141046000Y-92910571D01*
X141017429Y-92796286D01*
X141017429Y-92710571D01*
X141046000Y-92596286D01*
X141074572Y-92539143D01*
X141131714Y-92482000D01*
X141217429Y-92453429D01*
X141274572Y-92453429D01*
X141360286Y-92482000D01*
X141388857Y-92510571D01*
X141931714Y-93053429D02*
X141646000Y-93053429D01*
X141646000Y-92453429D01*
X142131714Y-93053429D02*
X142131714Y-92453429D01*
X142474571Y-93053429D02*
X142217428Y-92710571D01*
X142474571Y-92453429D02*
X142131714Y-92796286D01*
D12*
X153143000Y-86174000D02*
X153143000Y-85674000D01*
X152193000Y-85674000D02*
X152193000Y-86174000D01*
X148608000Y-93003000D02*
X149108000Y-93003000D01*
X149108000Y-92053000D02*
X148608000Y-92053000D01*
D13*
X155429000Y-98747000D02*
X155429000Y-98247000D01*
X154479000Y-98247000D02*
X154479000Y-98747000D01*
X154704000Y-85891000D02*
X155204000Y-85891000D01*
X155204000Y-84941000D02*
X154704000Y-84941000D01*
X153522000Y-108180000D02*
X153522000Y-108880000D01*
X152322000Y-108880000D02*
X152322000Y-108180000D01*
X147242000Y-109134000D02*
X147242000Y-108434000D01*
X148442000Y-108434000D02*
X148442000Y-109134000D01*
X151910000Y-93506000D02*
X152410000Y-93506000D01*
X152410000Y-92566000D02*
X151910000Y-92566000D01*
X152926000Y-91982000D02*
X153426000Y-91982000D01*
X153426000Y-91042000D02*
X152926000Y-91042000D01*
X155080000Y-93290000D02*
X155080000Y-95830000D01*
X156860000Y-95830000D02*
X156860000Y-93290000D01*
X156860000Y-95830000D02*
X155080000Y-95830000D01*
X155080000Y-93290000D02*
X156860000Y-93290000D01*
X155544000Y-105728000D02*
X155544000Y-104728000D01*
X156904000Y-104728000D02*
X156904000Y-105728000D01*
X144876000Y-105474000D02*
X144876000Y-104474000D01*
X146236000Y-104474000D02*
X146236000Y-105474000D01*
X145056000Y-92102000D02*
X146056000Y-92102000D01*
X146056000Y-93462000D02*
X145056000Y-93462000D01*
X142246000Y-96256000D02*
X141246000Y-96256000D01*
X141246000Y-94896000D02*
X142246000Y-94896000D01*
X156222000Y-90298000D02*
X156222000Y-89368000D01*
X156222000Y-87138000D02*
X156222000Y-88068000D01*
X156222000Y-87138000D02*
X154062000Y-87138000D01*
X156222000Y-90298000D02*
X154762000Y-90298000D01*
X141732000Y-103582000D02*
X141732000Y-104512000D01*
X141732000Y-106742000D02*
X141732000Y-105812000D01*
X141732000Y-106742000D02*
X143892000Y-106742000D01*
X141732000Y-103582000D02*
X143192000Y-103582000D01*
X146744000Y-97870000D02*
X146744000Y-98870000D01*
X145384000Y-98870000D02*
X145384000Y-97870000D01*
X144712000Y-97870000D02*
X144712000Y-98870000D01*
X143352000Y-98870000D02*
X143352000Y-97870000D01*
X142934000Y-97870000D02*
X142934000Y-98870000D01*
X141574000Y-98870000D02*
X141574000Y-97870000D01*
X148268000Y-97858000D02*
X148268000Y-98858000D01*
X146908000Y-98858000D02*
X146908000Y-97858000D01*
X152432000Y-103582000D02*
X152432000Y-104512000D01*
X152432000Y-106742000D02*
X152432000Y-105812000D01*
X152432000Y-106742000D02*
X154592000Y-106742000D01*
X152432000Y-103582000D02*
X153892000Y-103582000D01*
X148368000Y-103714000D02*
X148368000Y-104644000D01*
X148368000Y-106874000D02*
X148368000Y-105944000D01*
X148368000Y-106874000D02*
X150528000Y-106874000D01*
X148368000Y-103714000D02*
X149828000Y-103714000D01*
D12*
X146281156Y-90250000D02*
G75*
G03X146281156Y-90250000I-85156J0D01*
G01*
D13*
X146328600Y-85810600D02*
X146628600Y-85810600D01*
X150711600Y-90168200D02*
X150411600Y-90168200D01*
X150660800Y-85759800D02*
X150360800Y-85759800D01*
X146399200Y-89737200D02*
X146399200Y-89437200D01*
X150711600Y-90168200D02*
X150711600Y-89868200D01*
X150660800Y-85759800D02*
X150660800Y-86059800D01*
X146328600Y-85810600D02*
X146328600Y-86110600D01*
D12*
X143128936Y-100976040D02*
G75*
G03X143128936Y-100976040I-77376J0D01*
G01*
X143143000Y-96084000D02*
X148223000Y-96084000D01*
X148223000Y-96084000D02*
X148223000Y-100656000D01*
X148223000Y-100656000D02*
X143143000Y-100656000D01*
X143143000Y-100656000D02*
X143143000Y-96084000D01*
X143143000Y-97608000D02*
X143651000Y-97608000D01*
X143651000Y-97608000D02*
X143651000Y-98878000D01*
X143651000Y-98878000D02*
X143143000Y-98878000D01*
X154319000Y-99147000D02*
G75*
G03X154319000Y-99147000I-127000J0D01*
G01*
X153811000Y-99147000D02*
X150636000Y-99147000D01*
X153811000Y-95845000D02*
X153811000Y-99147000D01*
X150636000Y-95845000D02*
X153811000Y-95845000D01*
X150636000Y-99147000D02*
X150636000Y-95845000D01*
D14*
X152601334Y-87566857D02*
X152582286Y-87585905D01*
X152525143Y-87604952D01*
X152487048Y-87604952D01*
X152429905Y-87585905D01*
X152391810Y-87547810D01*
X152372762Y-87509714D01*
X152353714Y-87433524D01*
X152353714Y-87376381D01*
X152372762Y-87300190D01*
X152391810Y-87262095D01*
X152429905Y-87224000D01*
X152487048Y-87204952D01*
X152525143Y-87204952D01*
X152582286Y-87224000D01*
X152601334Y-87243048D01*
X152829905Y-87376381D02*
X152791810Y-87357333D01*
X152772762Y-87338286D01*
X152753714Y-87300190D01*
X152753714Y-87281143D01*
X152772762Y-87243048D01*
X152791810Y-87224000D01*
X152829905Y-87204952D01*
X152906095Y-87204952D01*
X152944191Y-87224000D01*
X152963238Y-87243048D01*
X152982286Y-87281143D01*
X152982286Y-87300190D01*
X152963238Y-87338286D01*
X152944191Y-87357333D01*
X152906095Y-87376381D01*
X152829905Y-87376381D01*
X152791810Y-87395429D01*
X152772762Y-87414476D01*
X152753714Y-87452571D01*
X152753714Y-87528762D01*
X152772762Y-87566857D01*
X152791810Y-87585905D01*
X152829905Y-87604952D01*
X152906095Y-87604952D01*
X152944191Y-87585905D01*
X152963238Y-87566857D01*
X152982286Y-87528762D01*
X152982286Y-87452571D01*
X152963238Y-87414476D01*
X152944191Y-87395429D01*
X152906095Y-87376381D01*
X150524857Y-92594666D02*
X150543905Y-92613714D01*
X150562952Y-92670857D01*
X150562952Y-92708952D01*
X150543905Y-92766095D01*
X150505810Y-92804190D01*
X150467714Y-92823238D01*
X150391524Y-92842286D01*
X150334381Y-92842286D01*
X150258190Y-92823238D01*
X150220095Y-92804190D01*
X150182000Y-92766095D01*
X150162952Y-92708952D01*
X150162952Y-92670857D01*
X150182000Y-92613714D01*
X150201048Y-92594666D01*
X150562952Y-92404190D02*
X150562952Y-92328000D01*
X150543905Y-92289905D01*
X150524857Y-92270857D01*
X150467714Y-92232762D01*
X150391524Y-92213714D01*
X150239143Y-92213714D01*
X150201048Y-92232762D01*
X150182000Y-92251809D01*
X150162952Y-92289905D01*
X150162952Y-92366095D01*
X150182000Y-92404190D01*
X150201048Y-92423238D01*
X150239143Y-92442286D01*
X150334381Y-92442286D01*
X150372476Y-92423238D01*
X150391524Y-92404190D01*
X150410571Y-92366095D01*
X150410571Y-92289905D01*
X150391524Y-92251809D01*
X150372476Y-92232762D01*
X150334381Y-92213714D01*
X154887334Y-100163857D02*
X154868286Y-100182905D01*
X154811143Y-100201952D01*
X154773048Y-100201952D01*
X154715905Y-100182905D01*
X154677810Y-100144810D01*
X154658762Y-100106714D01*
X154639714Y-100030524D01*
X154639714Y-99973381D01*
X154658762Y-99897190D01*
X154677810Y-99859095D01*
X154715905Y-99821000D01*
X154773048Y-99801952D01*
X154811143Y-99801952D01*
X154868286Y-99821000D01*
X154887334Y-99840048D01*
X155020667Y-99801952D02*
X155268286Y-99801952D01*
X155134953Y-99954333D01*
X155192095Y-99954333D01*
X155230191Y-99973381D01*
X155249238Y-99992429D01*
X155268286Y-100030524D01*
X155268286Y-100125762D01*
X155249238Y-100163857D01*
X155230191Y-100182905D01*
X155192095Y-100201952D01*
X155077810Y-100201952D01*
X155039714Y-100182905D01*
X155020667Y-100163857D01*
X156620857Y-85482666D02*
X156639905Y-85501714D01*
X156658952Y-85558857D01*
X156658952Y-85596952D01*
X156639905Y-85654095D01*
X156601810Y-85692190D01*
X156563714Y-85711238D01*
X156487524Y-85730286D01*
X156430381Y-85730286D01*
X156354190Y-85711238D01*
X156316095Y-85692190D01*
X156278000Y-85654095D01*
X156258952Y-85596952D01*
X156258952Y-85558857D01*
X156278000Y-85501714D01*
X156297048Y-85482666D01*
X156258952Y-85120762D02*
X156258952Y-85311238D01*
X156449429Y-85330286D01*
X156430381Y-85311238D01*
X156411333Y-85273143D01*
X156411333Y-85177905D01*
X156430381Y-85139809D01*
X156449429Y-85120762D01*
X156487524Y-85101714D01*
X156582762Y-85101714D01*
X156620857Y-85120762D01*
X156639905Y-85139809D01*
X156658952Y-85177905D01*
X156658952Y-85273143D01*
X156639905Y-85311238D01*
X156620857Y-85330286D01*
X152855334Y-110450857D02*
X152836286Y-110469905D01*
X152779143Y-110488952D01*
X152741048Y-110488952D01*
X152683905Y-110469905D01*
X152645810Y-110431810D01*
X152626762Y-110393714D01*
X152607714Y-110317524D01*
X152607714Y-110260381D01*
X152626762Y-110184190D01*
X152645810Y-110146095D01*
X152683905Y-110108000D01*
X152741048Y-110088952D01*
X152779143Y-110088952D01*
X152836286Y-110108000D01*
X152855334Y-110127048D01*
X153236286Y-110488952D02*
X153007714Y-110488952D01*
X153122000Y-110488952D02*
X153122000Y-110088952D01*
X153083905Y-110146095D01*
X153045810Y-110184190D01*
X153007714Y-110203238D01*
X147775334Y-110704857D02*
X147756286Y-110723905D01*
X147699143Y-110742952D01*
X147661048Y-110742952D01*
X147603905Y-110723905D01*
X147565810Y-110685810D01*
X147546762Y-110647714D01*
X147527714Y-110571524D01*
X147527714Y-110514381D01*
X147546762Y-110438190D01*
X147565810Y-110400095D01*
X147603905Y-110362000D01*
X147661048Y-110342952D01*
X147699143Y-110342952D01*
X147756286Y-110362000D01*
X147775334Y-110381048D01*
X147927714Y-110381048D02*
X147946762Y-110362000D01*
X147984857Y-110342952D01*
X148080095Y-110342952D01*
X148118191Y-110362000D01*
X148137238Y-110381048D01*
X148156286Y-110419143D01*
X148156286Y-110457238D01*
X148137238Y-110514381D01*
X147908667Y-110742952D01*
X148156286Y-110742952D01*
X153826857Y-93102666D02*
X153845905Y-93121714D01*
X153864952Y-93178857D01*
X153864952Y-93216952D01*
X153845905Y-93274095D01*
X153807810Y-93312190D01*
X153769714Y-93331238D01*
X153693524Y-93350286D01*
X153636381Y-93350286D01*
X153560190Y-93331238D01*
X153522095Y-93312190D01*
X153484000Y-93274095D01*
X153464952Y-93216952D01*
X153464952Y-93178857D01*
X153484000Y-93121714D01*
X153503048Y-93102666D01*
X153598286Y-92759809D02*
X153864952Y-92759809D01*
X153445905Y-92855047D02*
X153731619Y-92950286D01*
X153731619Y-92702666D01*
X154842857Y-91578666D02*
X154861905Y-91597714D01*
X154880952Y-91654857D01*
X154880952Y-91692952D01*
X154861905Y-91750095D01*
X154823810Y-91788190D01*
X154785714Y-91807238D01*
X154709524Y-91826286D01*
X154652381Y-91826286D01*
X154576190Y-91807238D01*
X154538095Y-91788190D01*
X154500000Y-91750095D01*
X154480952Y-91692952D01*
X154480952Y-91654857D01*
X154500000Y-91597714D01*
X154519048Y-91578666D01*
X154480952Y-91235809D02*
X154480952Y-91312000D01*
X154500000Y-91350095D01*
X154519048Y-91369143D01*
X154576190Y-91407238D01*
X154652381Y-91426286D01*
X154804762Y-91426286D01*
X154842857Y-91407238D01*
X154861905Y-91388190D01*
X154880952Y-91350095D01*
X154880952Y-91273905D01*
X154861905Y-91235809D01*
X154842857Y-91216762D01*
X154804762Y-91197714D01*
X154709524Y-91197714D01*
X154671429Y-91216762D01*
X154652381Y-91235809D01*
X154633333Y-91273905D01*
X154633333Y-91350095D01*
X154652381Y-91388190D01*
X154671429Y-91407238D01*
X154709524Y-91426286D01*
X154226952Y-93931333D02*
X154512667Y-93931333D01*
X154569810Y-93950381D01*
X154607905Y-93988476D01*
X154626952Y-94045619D01*
X154626952Y-94083714D01*
X154226952Y-93778952D02*
X154226952Y-93531333D01*
X154379333Y-93664666D01*
X154379333Y-93607524D01*
X154398381Y-93569428D01*
X154417429Y-93550381D01*
X154455524Y-93531333D01*
X154550762Y-93531333D01*
X154588857Y-93550381D01*
X154607905Y-93569428D01*
X154626952Y-93607524D01*
X154626952Y-93721809D01*
X154607905Y-93759905D01*
X154588857Y-93778952D01*
X156404952Y-105294666D02*
X156214476Y-105428000D01*
X156404952Y-105523238D02*
X156004952Y-105523238D01*
X156004952Y-105370857D01*
X156024000Y-105332762D01*
X156043048Y-105313714D01*
X156081143Y-105294666D01*
X156138286Y-105294666D01*
X156176381Y-105313714D01*
X156195429Y-105332762D01*
X156214476Y-105370857D01*
X156214476Y-105523238D01*
X156404952Y-104913714D02*
X156404952Y-105142286D01*
X156404952Y-105028000D02*
X156004952Y-105028000D01*
X156062095Y-105066095D01*
X156100190Y-105104190D01*
X156119238Y-105142286D01*
X145736952Y-105040666D02*
X145546476Y-105174000D01*
X145736952Y-105269238D02*
X145336952Y-105269238D01*
X145336952Y-105116857D01*
X145356000Y-105078762D01*
X145375048Y-105059714D01*
X145413143Y-105040666D01*
X145470286Y-105040666D01*
X145508381Y-105059714D01*
X145527429Y-105078762D01*
X145546476Y-105116857D01*
X145546476Y-105269238D01*
X145375048Y-104888286D02*
X145356000Y-104869238D01*
X145336952Y-104831143D01*
X145336952Y-104735905D01*
X145356000Y-104697809D01*
X145375048Y-104678762D01*
X145413143Y-104659714D01*
X145451238Y-104659714D01*
X145508381Y-104678762D01*
X145736952Y-104907333D01*
X145736952Y-104659714D01*
X145489334Y-92962952D02*
X145356000Y-92772476D01*
X145260762Y-92962952D02*
X145260762Y-92562952D01*
X145413143Y-92562952D01*
X145451238Y-92582000D01*
X145470286Y-92601048D01*
X145489334Y-92639143D01*
X145489334Y-92696286D01*
X145470286Y-92734381D01*
X145451238Y-92753429D01*
X145413143Y-92772476D01*
X145260762Y-92772476D01*
X145622667Y-92562952D02*
X145870286Y-92562952D01*
X145736953Y-92715333D01*
X145794095Y-92715333D01*
X145832191Y-92734381D01*
X145851238Y-92753429D01*
X145870286Y-92791524D01*
X145870286Y-92886762D01*
X145851238Y-92924857D01*
X145832191Y-92943905D01*
X145794095Y-92962952D01*
X145679810Y-92962952D01*
X145641714Y-92943905D01*
X145622667Y-92924857D01*
X141679334Y-95756952D02*
X141546000Y-95566476D01*
X141450762Y-95756952D02*
X141450762Y-95356952D01*
X141603143Y-95356952D01*
X141641238Y-95376000D01*
X141660286Y-95395048D01*
X141679334Y-95433143D01*
X141679334Y-95490286D01*
X141660286Y-95528381D01*
X141641238Y-95547429D01*
X141603143Y-95566476D01*
X141450762Y-95566476D01*
X142041238Y-95356952D02*
X141850762Y-95356952D01*
X141831714Y-95547429D01*
X141850762Y-95528381D01*
X141888857Y-95509333D01*
X141984095Y-95509333D01*
X142022191Y-95528381D01*
X142041238Y-95547429D01*
X142060286Y-95585524D01*
X142060286Y-95680762D01*
X142041238Y-95718857D01*
X142022191Y-95737905D01*
X141984095Y-95756952D01*
X141888857Y-95756952D01*
X141850762Y-95737905D01*
X141831714Y-95718857D01*
X156528952Y-90358762D02*
X156852762Y-90358762D01*
X156890857Y-90339714D01*
X156909905Y-90320667D01*
X156928952Y-90282571D01*
X156928952Y-90206381D01*
X156909905Y-90168286D01*
X156890857Y-90149238D01*
X156852762Y-90130190D01*
X156528952Y-90130190D01*
X156528952Y-89977809D02*
X156528952Y-89730190D01*
X156681333Y-89863523D01*
X156681333Y-89806381D01*
X156700381Y-89768285D01*
X156719429Y-89749238D01*
X156757524Y-89730190D01*
X156852762Y-89730190D01*
X156890857Y-89749238D01*
X156909905Y-89768285D01*
X156928952Y-89806381D01*
X156928952Y-89920666D01*
X156909905Y-89958762D01*
X156890857Y-89977809D01*
X142672952Y-105391238D02*
X142272952Y-105391238D01*
X142272952Y-105296000D01*
X142292000Y-105238857D01*
X142330095Y-105200762D01*
X142368190Y-105181714D01*
X142444381Y-105162666D01*
X142501524Y-105162666D01*
X142577714Y-105181714D01*
X142615810Y-105200762D01*
X142653905Y-105238857D01*
X142672952Y-105296000D01*
X142672952Y-105391238D01*
X142672952Y-104781714D02*
X142672952Y-105010286D01*
X142672952Y-104896000D02*
X142272952Y-104896000D01*
X142330095Y-104934095D01*
X142368190Y-104972190D01*
X142387238Y-105010286D01*
X146244952Y-98436666D02*
X146054476Y-98570000D01*
X146244952Y-98665238D02*
X145844952Y-98665238D01*
X145844952Y-98512857D01*
X145864000Y-98474762D01*
X145883048Y-98455714D01*
X145921143Y-98436666D01*
X145978286Y-98436666D01*
X146016381Y-98455714D01*
X146035429Y-98474762D01*
X146054476Y-98512857D01*
X146054476Y-98665238D01*
X145978286Y-98093809D02*
X146244952Y-98093809D01*
X145825905Y-98189047D02*
X146111619Y-98284286D01*
X146111619Y-98036666D01*
X144212952Y-98436666D02*
X144022476Y-98570000D01*
X144212952Y-98665238D02*
X143812952Y-98665238D01*
X143812952Y-98512857D01*
X143832000Y-98474762D01*
X143851048Y-98455714D01*
X143889143Y-98436666D01*
X143946286Y-98436666D01*
X143984381Y-98455714D01*
X144003429Y-98474762D01*
X144022476Y-98512857D01*
X144022476Y-98665238D01*
X143812952Y-98093809D02*
X143812952Y-98170000D01*
X143832000Y-98208095D01*
X143851048Y-98227143D01*
X143908190Y-98265238D01*
X143984381Y-98284286D01*
X144136762Y-98284286D01*
X144174857Y-98265238D01*
X144193905Y-98246190D01*
X144212952Y-98208095D01*
X144212952Y-98131905D01*
X144193905Y-98093809D01*
X144174857Y-98074762D01*
X144136762Y-98055714D01*
X144041524Y-98055714D01*
X144003429Y-98074762D01*
X143984381Y-98093809D01*
X143965333Y-98131905D01*
X143965333Y-98208095D01*
X143984381Y-98246190D01*
X144003429Y-98265238D01*
X144041524Y-98284286D01*
X142434952Y-98436666D02*
X142244476Y-98570000D01*
X142434952Y-98665238D02*
X142034952Y-98665238D01*
X142034952Y-98512857D01*
X142054000Y-98474762D01*
X142073048Y-98455714D01*
X142111143Y-98436666D01*
X142168286Y-98436666D01*
X142206381Y-98455714D01*
X142225429Y-98474762D01*
X142244476Y-98512857D01*
X142244476Y-98665238D01*
X142034952Y-98303333D02*
X142034952Y-98036666D01*
X142434952Y-98208095D01*
X147768952Y-98424666D02*
X147578476Y-98558000D01*
X147768952Y-98653238D02*
X147368952Y-98653238D01*
X147368952Y-98500857D01*
X147388000Y-98462762D01*
X147407048Y-98443714D01*
X147445143Y-98424666D01*
X147502286Y-98424666D01*
X147540381Y-98443714D01*
X147559429Y-98462762D01*
X147578476Y-98500857D01*
X147578476Y-98653238D01*
X147540381Y-98196095D02*
X147521333Y-98234190D01*
X147502286Y-98253238D01*
X147464190Y-98272286D01*
X147445143Y-98272286D01*
X147407048Y-98253238D01*
X147388000Y-98234190D01*
X147368952Y-98196095D01*
X147368952Y-98119905D01*
X147388000Y-98081809D01*
X147407048Y-98062762D01*
X147445143Y-98043714D01*
X147464190Y-98043714D01*
X147502286Y-98062762D01*
X147521333Y-98081809D01*
X147540381Y-98119905D01*
X147540381Y-98196095D01*
X147559429Y-98234190D01*
X147578476Y-98253238D01*
X147616571Y-98272286D01*
X147692762Y-98272286D01*
X147730857Y-98253238D01*
X147749905Y-98234190D01*
X147768952Y-98196095D01*
X147768952Y-98119905D01*
X147749905Y-98081809D01*
X147730857Y-98062762D01*
X147692762Y-98043714D01*
X147616571Y-98043714D01*
X147578476Y-98062762D01*
X147559429Y-98081809D01*
X147540381Y-98119905D01*
X153372952Y-105457238D02*
X152972952Y-105457238D01*
X152972952Y-105362000D01*
X152992000Y-105304857D01*
X153030095Y-105266762D01*
X153068190Y-105247714D01*
X153144381Y-105228666D01*
X153201524Y-105228666D01*
X153277714Y-105247714D01*
X153315810Y-105266762D01*
X153353905Y-105304857D01*
X153372952Y-105362000D01*
X153372952Y-105457238D01*
X152972952Y-105095333D02*
X152972952Y-104847714D01*
X153125333Y-104981047D01*
X153125333Y-104923905D01*
X153144381Y-104885809D01*
X153163429Y-104866762D01*
X153201524Y-104847714D01*
X153296762Y-104847714D01*
X153334857Y-104866762D01*
X153353905Y-104885809D01*
X153372952Y-104923905D01*
X153372952Y-105038190D01*
X153353905Y-105076286D01*
X153334857Y-105095333D01*
X149308952Y-105523238D02*
X148908952Y-105523238D01*
X148908952Y-105428000D01*
X148928000Y-105370857D01*
X148966095Y-105332762D01*
X149004190Y-105313714D01*
X149080381Y-105294666D01*
X149137524Y-105294666D01*
X149213714Y-105313714D01*
X149251810Y-105332762D01*
X149289905Y-105370857D01*
X149308952Y-105428000D01*
X149308952Y-105523238D01*
X148947048Y-105142286D02*
X148928000Y-105123238D01*
X148908952Y-105085143D01*
X148908952Y-104989905D01*
X148928000Y-104951809D01*
X148947048Y-104932762D01*
X148985143Y-104913714D01*
X149023238Y-104913714D01*
X149080381Y-104932762D01*
X149308952Y-105161333D01*
X149308952Y-104913714D01*
X144955952Y-90165762D02*
X145279762Y-90165762D01*
X145317857Y-90146714D01*
X145336905Y-90127667D01*
X145355952Y-90089571D01*
X145355952Y-90013381D01*
X145336905Y-89975286D01*
X145317857Y-89956238D01*
X145279762Y-89937190D01*
X144955952Y-89937190D01*
X145089286Y-89575285D02*
X145355952Y-89575285D01*
X144936905Y-89670523D02*
X145222619Y-89765762D01*
X145222619Y-89518142D01*
X142421032Y-100605162D02*
X142744842Y-100605162D01*
X142782937Y-100586114D01*
X142801985Y-100567067D01*
X142821032Y-100528971D01*
X142821032Y-100452781D01*
X142801985Y-100414686D01*
X142782937Y-100395638D01*
X142744842Y-100376590D01*
X142421032Y-100376590D01*
X142459128Y-100205162D02*
X142440080Y-100186114D01*
X142421032Y-100148019D01*
X142421032Y-100052781D01*
X142440080Y-100014685D01*
X142459128Y-99995638D01*
X142497223Y-99976590D01*
X142535318Y-99976590D01*
X142592461Y-99995638D01*
X142821032Y-100224209D01*
X142821032Y-99976590D01*
X153125238Y-99532952D02*
X153125238Y-99856762D01*
X153144286Y-99894857D01*
X153163333Y-99913905D01*
X153201429Y-99932952D01*
X153277619Y-99932952D01*
X153315714Y-99913905D01*
X153334762Y-99894857D01*
X153353810Y-99856762D01*
X153353810Y-99532952D01*
X153753810Y-99932952D02*
X153525238Y-99932952D01*
X153639524Y-99932952D02*
X153639524Y-99532952D01*
X153601429Y-99590095D01*
X153563334Y-99628190D01*
X153525238Y-99647238D01*
M02*
