G04 #@! TF.FileFunction,Soldermask,Top*
%FSLAX46Y46*%
G04 Gerber Fmt 4.6, Leading zero omitted, Abs format (unit mm)*
G04 Created by KiCad (PCBNEW 4.0.7) date 01/29/18 07:06:24*
%MOMM*%
%LPD*%
G01*
G04 APERTURE LIST*
%ADD10C,0.100000*%
%ADD11R,0.900000X1.000000*%
%ADD12R,1.000000X0.900000*%
%ADD13C,2.540000*%
%ADD14C,2.900000*%
%ADD15R,1.150000X1.200000*%
%ADD16R,1.670000X1.370000*%
%ADD17R,1.300000X0.900000*%
%ADD18R,0.900000X1.300000*%
%ADD19R,1.300000X1.200000*%
%ADD20R,2.100000X2.100000*%
%ADD21O,2.100000X2.100000*%
%ADD22R,2.380000X4.360000*%
%ADD23O,2.380000X4.360000*%
%ADD24R,2.200000X1.400000*%
%ADD25C,1.901140*%
%ADD26O,1.800000X4.200000*%
%ADD27C,1.900000*%
%ADD28R,0.302000X0.502000*%
%ADD29R,0.302000X0.702000*%
%ADD30R,0.502000X0.302000*%
%ADD31R,0.702000X0.302000*%
%ADD32R,0.152000X0.152000*%
%ADD33R,0.102000X0.102000*%
%ADD34R,0.908000X2.400000*%
%ADD35R,1.000000X0.750000*%
G04 APERTURE END LIST*
D10*
D11*
X152668000Y-85374000D03*
X152668000Y-86474000D03*
D12*
X149408000Y-92528000D03*
X148308000Y-92528000D03*
D13*
X148858000Y-80082000D03*
D14*
X142000000Y-109800000D03*
D11*
X154954000Y-97947000D03*
X154954000Y-99047000D03*
D12*
X155504000Y-85416000D03*
X154404000Y-85416000D03*
D15*
X152922000Y-107780000D03*
X152922000Y-109280000D03*
X147842000Y-109534000D03*
X147842000Y-108034000D03*
D12*
X152710000Y-93036000D03*
X151610000Y-93036000D03*
X153726000Y-91512000D03*
X152626000Y-91512000D03*
D16*
X155970000Y-93920000D03*
X155970000Y-95200000D03*
D17*
X156224000Y-104478000D03*
X156224000Y-105978000D03*
X145556000Y-104224000D03*
X145556000Y-105724000D03*
D18*
X146306000Y-92782000D03*
X144806000Y-92782000D03*
X140996000Y-95576000D03*
X142496000Y-95576000D03*
D19*
X154462000Y-87768000D03*
X154462000Y-89668000D03*
X156462000Y-88718000D03*
X143492000Y-106112000D03*
X143492000Y-104212000D03*
X141492000Y-105162000D03*
D20*
X150890000Y-101418000D03*
D21*
X153430000Y-101418000D03*
X155970000Y-101418000D03*
D22*
X155382000Y-109546000D03*
D23*
X150382000Y-109546000D03*
X145382000Y-109546000D03*
D20*
X155970000Y-93290000D03*
D21*
X155970000Y-95830000D03*
D17*
X146064000Y-99120000D03*
X146064000Y-97620000D03*
X144032000Y-99120000D03*
X144032000Y-97620000D03*
X142254000Y-99120000D03*
X142254000Y-97620000D03*
X147588000Y-99108000D03*
X147588000Y-97608000D03*
D19*
X154192000Y-106112000D03*
X154192000Y-104212000D03*
X152192000Y-105162000D03*
D24*
X141746000Y-94052000D03*
X141746000Y-86432000D03*
X141746000Y-88972000D03*
X141746000Y-83892000D03*
X141746000Y-91512000D03*
D25*
X152414860Y-82878120D03*
X149874860Y-82878120D03*
X147842860Y-82878120D03*
X145302860Y-82878120D03*
D26*
X154700000Y-80590000D03*
X143016000Y-80590000D03*
D27*
X146572000Y-80463000D03*
X151144000Y-80463000D03*
D19*
X150128000Y-106244000D03*
X150128000Y-104344000D03*
X148128000Y-105294000D03*
D28*
X146974000Y-90013040D03*
D29*
X147482000Y-89914000D03*
X148482000Y-89914000D03*
X149482000Y-89914000D03*
D28*
X149990000Y-90016320D03*
D30*
X150539400Y-89472760D03*
D31*
X150432000Y-88964000D03*
X150432000Y-87964000D03*
X150432000Y-87464000D03*
D30*
X150534320Y-86460320D03*
D28*
X149985680Y-85911680D03*
D29*
X148982000Y-86014000D03*
X148482000Y-86014000D03*
X147982000Y-86014000D03*
D28*
X146973240Y-85911680D03*
D30*
X146434760Y-86461080D03*
D31*
X146532000Y-87464000D03*
X146532000Y-87964000D03*
X146532000Y-88464000D03*
D30*
X146424600Y-89467680D03*
D32*
X147049440Y-89686120D03*
X149915000Y-89691920D03*
X150215000Y-89397000D03*
X150209920Y-86536080D03*
X149909920Y-86236080D03*
X147049000Y-86241160D03*
X146759160Y-86536080D03*
X146749720Y-89391920D03*
D10*
G36*
X146824841Y-89467680D02*
X146673520Y-89619001D01*
X146522199Y-89467680D01*
X146673520Y-89316359D01*
X146824841Y-89467680D01*
X146824841Y-89467680D01*
G37*
G36*
X146835481Y-86461080D02*
X146684160Y-86612401D01*
X146532839Y-86461080D01*
X146684160Y-86309759D01*
X146835481Y-86461080D01*
X146835481Y-86461080D01*
G37*
G36*
X150441321Y-89472000D02*
X150290000Y-89623321D01*
X150138679Y-89472000D01*
X150290000Y-89320679D01*
X150441321Y-89472000D01*
X150441321Y-89472000D01*
G37*
G36*
X150436241Y-86461080D02*
X150284920Y-86612401D01*
X150133599Y-86461080D01*
X150284920Y-86309759D01*
X150436241Y-86461080D01*
X150436241Y-86461080D01*
G37*
G36*
X147124561Y-89762320D02*
X146973240Y-89913641D01*
X146821919Y-89762320D01*
X146973240Y-89610999D01*
X147124561Y-89762320D01*
X147124561Y-89762320D01*
G37*
G36*
X147125321Y-86166160D02*
X146974000Y-86317481D01*
X146822679Y-86166160D01*
X146974000Y-86014839D01*
X147125321Y-86166160D01*
X147125321Y-86166160D01*
G37*
G36*
X150141321Y-89766920D02*
X149990000Y-89918241D01*
X149838679Y-89766920D01*
X149990000Y-89615599D01*
X150141321Y-89766920D01*
X150141321Y-89766920D01*
G37*
G36*
X150136241Y-86161080D02*
X149984920Y-86312401D01*
X149833599Y-86161080D01*
X149984920Y-86009759D01*
X150136241Y-86161080D01*
X150136241Y-86161080D01*
G37*
D33*
X149882000Y-89364000D03*
X149882000Y-86564000D03*
X147082000Y-86564000D03*
X147082000Y-89364000D03*
D29*
X147982000Y-89914000D03*
X148982000Y-89914000D03*
D31*
X150432000Y-88464000D03*
X146532000Y-88964000D03*
X150432000Y-86964000D03*
D29*
X149482000Y-86014000D03*
X147482000Y-86014000D03*
D31*
X146532000Y-86964000D03*
D34*
X143778000Y-95870000D03*
X145048000Y-95870000D03*
X146318000Y-95870000D03*
X147588000Y-95870000D03*
X147588000Y-100870000D03*
X146318000Y-100870000D03*
X145048000Y-100870000D03*
X143778000Y-100870000D03*
D35*
X150820000Y-98512000D03*
X150820000Y-97862000D03*
X153560000Y-97212000D03*
X150820000Y-96562000D03*
X153560000Y-98512000D03*
X153560000Y-97862000D03*
X150820000Y-97212000D03*
X153560000Y-96562000D03*
M02*
