M48
;DRILL file {KiCad (2018-02-16 revision c95340fba)-makepkg} date 05/25/18 20:47:35
;FORMAT={-:-/ absolute / metric / decimal}
FMAT,2
METRIC,TZ
T1C0.400
T2C1.000
T3C1.001
T4C1.320
T5C2.000
T6C1.500
%
G90
G05
M71
T1
X3.302Y-14.224
X3.556Y-15.24
X3.81Y-10.16
X5.136Y-25.7
X7.112Y-14.224
X7.518Y-28.55
X7.62Y-22.606
X7.874Y-12.954
X8.128Y-15.24
X10.82Y-13.31
X11.024Y-16.967
X11.938Y-10.414
X12.09Y-18.644
X16.358Y-16.408
X16.612Y-25.197
T2
X10.668Y-23.114
X13.208Y-23.114
X15.748Y-23.114
T3
X5.081Y-4.574
X7.621Y-4.574
X9.653Y-4.574
X12.193Y-4.574
T4
X5.16Y-31.242
X10.16Y-31.242
X15.16Y-31.242
T5
X1.778Y-31.496
T6
X6.35Y-2.159
X10.922Y-2.159
T2
X2.794Y-3.036G85X2.794Y-1.536
G05
X14.478Y-3.036G85X14.478Y-1.536
G05
T0
M30
