G04 #@! TF.GenerationSoftware,KiCad,Pcbnew,(2018-02-16 revision c95340fba)-makepkg*
G04 #@! TF.CreationDate,2018-03-22T22:09:09+01:00*
G04 #@! TF.ProjectId,LIN_USB_CONVERTER,4C494E5F5553425F434F4E5645525445,rev?*
G04 #@! TF.SameCoordinates,Original*
G04 #@! TF.FileFunction,Other,Fab,Bot*
%FSLAX46Y46*%
G04 Gerber Fmt 4.6, Leading zero omitted, Abs format (unit mm)*
G04 Created by KiCad (PCBNEW (2018-02-16 revision c95340fba)-makepkg) date 03/22/18 22:09:09*
%MOMM*%
%LPD*%
G01*
G04 APERTURE LIST*
%ADD10C,0.100000*%
%ADD11C,0.090000*%
G04 APERTURE END LIST*
D10*
X149620000Y-100783000D02*
X149620000Y-102688000D01*
X149620000Y-102688000D02*
X157240000Y-102688000D01*
X157240000Y-102688000D02*
X157240000Y-100148000D01*
X157240000Y-100148000D02*
X150255000Y-100148000D01*
X150255000Y-100148000D02*
X149620000Y-100783000D01*
X142722000Y-108896000D02*
X157902000Y-108896000D01*
X147362000Y-113536000D02*
X147362000Y-109286000D01*
X143292000Y-115756000D02*
X147802000Y-115756000D01*
X147802000Y-106356000D02*
X142782000Y-106356000D01*
X157962000Y-103316000D02*
X142722000Y-103316000D01*
X146962000Y-109286000D02*
X143662000Y-109286000D01*
X147342000Y-109286000D02*
X146962000Y-109286000D01*
X143282000Y-109286000D02*
X143662000Y-109286000D01*
X146812000Y-105216000D02*
X143762000Y-104586000D01*
X146942000Y-105086000D02*
X143892000Y-104456000D01*
X143282000Y-106106000D02*
X147342000Y-106106000D01*
X143282000Y-103566000D02*
X143282000Y-106106000D01*
X147342000Y-103566000D02*
X143282000Y-103566000D01*
X147342000Y-106106000D02*
X147342000Y-103566000D01*
X142722000Y-106356000D02*
X142722000Y-107886000D01*
X142722000Y-108896000D02*
X142722000Y-113596000D01*
X142722000Y-107886000D02*
X142722000Y-108896000D01*
X143662000Y-110046000D02*
X144042000Y-110046000D01*
X146962000Y-110046000D02*
X146582000Y-110046000D01*
X146962000Y-113216000D02*
X146962000Y-110046000D01*
X143662000Y-113216000D02*
X146962000Y-113216000D01*
X143662000Y-113216000D02*
X143662000Y-110046000D01*
X143282000Y-113856000D02*
X143282000Y-115756000D01*
X147342000Y-113856000D02*
X143282000Y-113856000D01*
X143282000Y-115756000D02*
X142722000Y-115756000D01*
X143282000Y-109286000D02*
X143282000Y-113856000D01*
X147342000Y-115756000D02*
X147342000Y-113856000D01*
X142212000Y-113346000D02*
X142212000Y-114996000D01*
X142722000Y-113596000D02*
X142722000Y-114746000D01*
X142212000Y-113346000D02*
X142722000Y-113596000D01*
X142722000Y-114746000D02*
X142722000Y-115756000D01*
X142212000Y-114996000D02*
X142722000Y-114746000D01*
X142212000Y-108136000D02*
X142722000Y-107886000D01*
X142212000Y-103316000D02*
X142212000Y-108136000D01*
X142722000Y-103316000D02*
X142212000Y-103316000D01*
X142722000Y-103316000D02*
X142722000Y-106356000D01*
X146582000Y-112076000D02*
X146582000Y-109286000D01*
X146582000Y-109286000D02*
X144042000Y-109286000D01*
X144042000Y-112076000D02*
X144042000Y-109286000D01*
X146582000Y-112076000D02*
X144042000Y-112076000D01*
X156662000Y-112076000D02*
X154122000Y-112076000D01*
X154122000Y-112076000D02*
X154122000Y-109286000D01*
X156662000Y-109286000D02*
X154122000Y-109286000D01*
X156662000Y-112076000D02*
X156662000Y-109286000D01*
X151662000Y-112076000D02*
X149122000Y-112076000D01*
X149122000Y-112076000D02*
X149122000Y-109286000D01*
X151662000Y-109286000D02*
X149122000Y-109286000D01*
X151662000Y-112076000D02*
X151662000Y-109286000D01*
X147362000Y-114746000D02*
X147362000Y-115756000D01*
X147362000Y-113596000D02*
X147362000Y-114746000D01*
X152422000Y-115756000D02*
X152422000Y-113856000D01*
X148362000Y-109286000D02*
X148362000Y-113856000D01*
X152422000Y-115756000D02*
X148362000Y-115756000D01*
X148362000Y-115756000D02*
X147802000Y-115756000D01*
X153362000Y-115756000D02*
X153362000Y-113856000D01*
X153362000Y-115756000D02*
X152422000Y-115756000D01*
X157432000Y-109286000D02*
X157432000Y-113856000D01*
X157962000Y-115756000D02*
X157432000Y-115756000D01*
X157432000Y-115756000D02*
X153362000Y-115756000D01*
X152422000Y-113856000D02*
X148362000Y-113856000D01*
X152422000Y-113856000D02*
X152422000Y-109286000D01*
X148362000Y-113856000D02*
X148362000Y-115756000D01*
X153362000Y-113856000D02*
X157432000Y-113856000D01*
X153362000Y-113856000D02*
X153362000Y-109286000D01*
X157432000Y-113856000D02*
X157432000Y-115756000D01*
X148742000Y-113216000D02*
X148742000Y-110046000D01*
X148742000Y-113216000D02*
X152042000Y-113216000D01*
X152042000Y-113216000D02*
X152042000Y-110046000D01*
X153742000Y-113216000D02*
X153742000Y-110046000D01*
X153742000Y-113216000D02*
X157052000Y-113216000D01*
X157052000Y-113216000D02*
X157052000Y-110046000D01*
X157052000Y-110046000D02*
X156662000Y-110046000D01*
X153742000Y-110046000D02*
X154122000Y-110046000D01*
X152042000Y-110046000D02*
X151662000Y-110046000D01*
X148742000Y-110046000D02*
X149122000Y-110046000D01*
X157962000Y-115756000D02*
X157962000Y-108896000D01*
X157962000Y-108896000D02*
X157962000Y-106356000D01*
X157962000Y-106356000D02*
X147802000Y-106356000D01*
X157962000Y-106356000D02*
X157962000Y-103316000D01*
X152422000Y-106106000D02*
X152422000Y-103566000D01*
X152422000Y-103566000D02*
X148362000Y-103566000D01*
X148362000Y-103566000D02*
X148362000Y-106106000D01*
X148362000Y-106106000D02*
X152422000Y-106106000D01*
X153362000Y-106106000D02*
X153362000Y-103566000D01*
X153362000Y-106106000D02*
X157432000Y-106106000D01*
X157432000Y-106106000D02*
X157432000Y-103566000D01*
X153362000Y-103566000D02*
X157432000Y-103566000D01*
X152022000Y-105086000D02*
X148972000Y-104456000D01*
X151892000Y-105216000D02*
X148842000Y-104586000D01*
X157022000Y-105086000D02*
X153972000Y-104456000D01*
X156892000Y-105216000D02*
X153852000Y-104586000D01*
X157432000Y-109286000D02*
X157052000Y-109286000D01*
X153362000Y-109286000D02*
X153742000Y-109286000D01*
X153742000Y-109286000D02*
X157052000Y-109286000D01*
X148362000Y-109286000D02*
X148742000Y-109286000D01*
X152422000Y-109286000D02*
X152042000Y-109286000D01*
X152042000Y-109286000D02*
X148742000Y-109286000D01*
X146884972Y-104477301D02*
G75*
G02X146742000Y-105406000I-432972J-408699D01*
G01*
X143793761Y-104474313D02*
G75*
G02X146942000Y-104536000I1548239J-1351687D01*
G01*
X146784333Y-105367737D02*
G75*
G02X143802000Y-105416000I-1522333J1901737D01*
G01*
X143836380Y-105449996D02*
G75*
G02X143792000Y-104486000I455620J503996D01*
G01*
X148916380Y-105449996D02*
G75*
G02X148872000Y-104486000I455620J503996D01*
G01*
X151864333Y-105367737D02*
G75*
G02X148882000Y-105416000I-1522333J1901737D01*
G01*
X148873761Y-104474313D02*
G75*
G02X152022000Y-104536000I1548239J-1351687D01*
G01*
X151964972Y-104477301D02*
G75*
G02X151822000Y-105406000I-432972J-408699D01*
G01*
X153926468Y-105459995D02*
G75*
G02X153872000Y-104486000I455532J513995D01*
G01*
X156864333Y-105367737D02*
G75*
G02X153882000Y-105416000I-1522333J1901737D01*
G01*
X153873761Y-104474313D02*
G75*
G02X157022000Y-104536000I1548239J-1351687D01*
G01*
X156977426Y-104486995D02*
G75*
G02X156822000Y-105406000I-435426J-399005D01*
G01*
X156605000Y-92020000D02*
X154700000Y-92020000D01*
X154700000Y-92020000D02*
X154700000Y-97100000D01*
X154700000Y-97100000D02*
X157240000Y-97100000D01*
X157240000Y-97100000D02*
X157240000Y-92655000D01*
X157240000Y-92655000D02*
X156605000Y-92020000D01*
D11*
X158442857Y-99922761D02*
X158461904Y-99903714D01*
X158480952Y-99846571D01*
X158480952Y-99808476D01*
X158461904Y-99751333D01*
X158423809Y-99713238D01*
X158385714Y-99694190D01*
X158309523Y-99675142D01*
X158252380Y-99675142D01*
X158176190Y-99694190D01*
X158138095Y-99713238D01*
X158100000Y-99751333D01*
X158080952Y-99808476D01*
X158080952Y-99846571D01*
X158100000Y-99903714D01*
X158119047Y-99922761D01*
X158480952Y-100151333D02*
X158461904Y-100113238D01*
X158442857Y-100094190D01*
X158404761Y-100075142D01*
X158290476Y-100075142D01*
X158252380Y-100094190D01*
X158233333Y-100113238D01*
X158214285Y-100151333D01*
X158214285Y-100208476D01*
X158233333Y-100246571D01*
X158252380Y-100265619D01*
X158290476Y-100284666D01*
X158404761Y-100284666D01*
X158442857Y-100265619D01*
X158461904Y-100246571D01*
X158480952Y-100208476D01*
X158480952Y-100151333D01*
X158214285Y-100456095D02*
X158480952Y-100456095D01*
X158252380Y-100456095D02*
X158233333Y-100475142D01*
X158214285Y-100513238D01*
X158214285Y-100570380D01*
X158233333Y-100608476D01*
X158271428Y-100627523D01*
X158480952Y-100627523D01*
X158214285Y-100818000D02*
X158480952Y-100818000D01*
X158252380Y-100818000D02*
X158233333Y-100837047D01*
X158214285Y-100875142D01*
X158214285Y-100932285D01*
X158233333Y-100970380D01*
X158271428Y-100989428D01*
X158480952Y-100989428D01*
X158519047Y-101084666D02*
X158519047Y-101389428D01*
X158080952Y-101560857D02*
X158080952Y-101598952D01*
X158100000Y-101637047D01*
X158119047Y-101656095D01*
X158157142Y-101675142D01*
X158233333Y-101694190D01*
X158328571Y-101694190D01*
X158404761Y-101675142D01*
X158442857Y-101656095D01*
X158461904Y-101637047D01*
X158480952Y-101598952D01*
X158480952Y-101560857D01*
X158461904Y-101522761D01*
X158442857Y-101503714D01*
X158404761Y-101484666D01*
X158328571Y-101465619D01*
X158233333Y-101465619D01*
X158157142Y-101484666D01*
X158119047Y-101503714D01*
X158100000Y-101522761D01*
X158080952Y-101560857D01*
X158480952Y-102075142D02*
X158480952Y-101846571D01*
X158480952Y-101960857D02*
X158080952Y-101960857D01*
X158138095Y-101922761D01*
X158176190Y-101884666D01*
X158195238Y-101846571D01*
X158480952Y-102208476D02*
X158214285Y-102418000D01*
X158214285Y-102208476D02*
X158480952Y-102418000D01*
X158080952Y-102646571D02*
X158080952Y-102684666D01*
X158100000Y-102722761D01*
X158119047Y-102741809D01*
X158157142Y-102760857D01*
X158233333Y-102779904D01*
X158328571Y-102779904D01*
X158404761Y-102760857D01*
X158442857Y-102741809D01*
X158461904Y-102722761D01*
X158480952Y-102684666D01*
X158480952Y-102646571D01*
X158461904Y-102608476D01*
X158442857Y-102589428D01*
X158404761Y-102570380D01*
X158328571Y-102551333D01*
X158233333Y-102551333D01*
X158157142Y-102570380D01*
X158119047Y-102589428D01*
X158100000Y-102608476D01*
X158080952Y-102646571D01*
X158080952Y-102913238D02*
X158080952Y-103160857D01*
X158233333Y-103027523D01*
X158233333Y-103084666D01*
X158252380Y-103122761D01*
X158271428Y-103141809D01*
X158309523Y-103160857D01*
X158404761Y-103160857D01*
X158442857Y-103141809D01*
X158461904Y-103122761D01*
X158480952Y-103084666D01*
X158480952Y-102970380D01*
X158461904Y-102932285D01*
X158442857Y-102913238D01*
X152489142Y-116626952D02*
X152260571Y-116626952D01*
X152374857Y-117026952D02*
X152374857Y-116626952D01*
X151974857Y-117007904D02*
X152012952Y-117026952D01*
X152089142Y-117026952D01*
X152127238Y-117007904D01*
X152146285Y-116969809D01*
X152146285Y-116817428D01*
X152127238Y-116779333D01*
X152089142Y-116760285D01*
X152012952Y-116760285D01*
X151974857Y-116779333D01*
X151955809Y-116817428D01*
X151955809Y-116855523D01*
X152146285Y-116893619D01*
X151784380Y-117026952D02*
X151784380Y-116760285D01*
X151784380Y-116836476D02*
X151765333Y-116798380D01*
X151746285Y-116779333D01*
X151708190Y-116760285D01*
X151670095Y-116760285D01*
X151536761Y-117026952D02*
X151536761Y-116760285D01*
X151536761Y-116798380D02*
X151517714Y-116779333D01*
X151479619Y-116760285D01*
X151422476Y-116760285D01*
X151384380Y-116779333D01*
X151365333Y-116817428D01*
X151365333Y-117026952D01*
X151365333Y-116817428D02*
X151346285Y-116779333D01*
X151308190Y-116760285D01*
X151251047Y-116760285D01*
X151212952Y-116779333D01*
X151193904Y-116817428D01*
X151193904Y-117026952D01*
X151003428Y-117026952D02*
X151003428Y-116760285D01*
X151003428Y-116626952D02*
X151022476Y-116646000D01*
X151003428Y-116665047D01*
X150984380Y-116646000D01*
X151003428Y-116626952D01*
X151003428Y-116665047D01*
X150812952Y-116760285D02*
X150812952Y-117026952D01*
X150812952Y-116798380D02*
X150793904Y-116779333D01*
X150755809Y-116760285D01*
X150698666Y-116760285D01*
X150660571Y-116779333D01*
X150641523Y-116817428D01*
X150641523Y-117026952D01*
X150279619Y-117026952D02*
X150279619Y-116817428D01*
X150298666Y-116779333D01*
X150336761Y-116760285D01*
X150412952Y-116760285D01*
X150451047Y-116779333D01*
X150279619Y-117007904D02*
X150317714Y-117026952D01*
X150412952Y-117026952D01*
X150451047Y-117007904D01*
X150470095Y-116969809D01*
X150470095Y-116931714D01*
X150451047Y-116893619D01*
X150412952Y-116874571D01*
X150317714Y-116874571D01*
X150279619Y-116855523D01*
X150032000Y-117026952D02*
X150070095Y-117007904D01*
X150089142Y-116969809D01*
X150089142Y-116626952D01*
X149746285Y-116817428D02*
X149689142Y-116836476D01*
X149670095Y-116855523D01*
X149651047Y-116893619D01*
X149651047Y-116950761D01*
X149670095Y-116988857D01*
X149689142Y-117007904D01*
X149727238Y-117026952D01*
X149879619Y-117026952D01*
X149879619Y-116626952D01*
X149746285Y-116626952D01*
X149708190Y-116646000D01*
X149689142Y-116665047D01*
X149670095Y-116703142D01*
X149670095Y-116741238D01*
X149689142Y-116779333D01*
X149708190Y-116798380D01*
X149746285Y-116817428D01*
X149879619Y-116817428D01*
X149422476Y-117026952D02*
X149460571Y-117007904D01*
X149479619Y-116969809D01*
X149479619Y-116626952D01*
X149212952Y-117026952D02*
X149251047Y-117007904D01*
X149270095Y-116988857D01*
X149289142Y-116950761D01*
X149289142Y-116836476D01*
X149270095Y-116798380D01*
X149251047Y-116779333D01*
X149212952Y-116760285D01*
X149155809Y-116760285D01*
X149117714Y-116779333D01*
X149098666Y-116798380D01*
X149079619Y-116836476D01*
X149079619Y-116950761D01*
X149098666Y-116988857D01*
X149117714Y-117007904D01*
X149155809Y-117026952D01*
X149212952Y-117026952D01*
X148736761Y-117007904D02*
X148774857Y-117026952D01*
X148851047Y-117026952D01*
X148889142Y-117007904D01*
X148908190Y-116988857D01*
X148927238Y-116950761D01*
X148927238Y-116836476D01*
X148908190Y-116798380D01*
X148889142Y-116779333D01*
X148851047Y-116760285D01*
X148774857Y-116760285D01*
X148736761Y-116779333D01*
X148565333Y-117026952D02*
X148565333Y-116626952D01*
X148527238Y-116874571D02*
X148412952Y-117026952D01*
X148412952Y-116760285D02*
X148565333Y-116912666D01*
X157465238Y-98302857D02*
X157484285Y-98321904D01*
X157541428Y-98340952D01*
X157579523Y-98340952D01*
X157636666Y-98321904D01*
X157674761Y-98283809D01*
X157693809Y-98245714D01*
X157712857Y-98169523D01*
X157712857Y-98112380D01*
X157693809Y-98036190D01*
X157674761Y-97998095D01*
X157636666Y-97960000D01*
X157579523Y-97940952D01*
X157541428Y-97940952D01*
X157484285Y-97960000D01*
X157465238Y-97979047D01*
X157236666Y-98340952D02*
X157274761Y-98321904D01*
X157293809Y-98302857D01*
X157312857Y-98264761D01*
X157312857Y-98150476D01*
X157293809Y-98112380D01*
X157274761Y-98093333D01*
X157236666Y-98074285D01*
X157179523Y-98074285D01*
X157141428Y-98093333D01*
X157122380Y-98112380D01*
X157103333Y-98150476D01*
X157103333Y-98264761D01*
X157122380Y-98302857D01*
X157141428Y-98321904D01*
X157179523Y-98340952D01*
X157236666Y-98340952D01*
X156931904Y-98074285D02*
X156931904Y-98340952D01*
X156931904Y-98112380D02*
X156912857Y-98093333D01*
X156874761Y-98074285D01*
X156817619Y-98074285D01*
X156779523Y-98093333D01*
X156760476Y-98131428D01*
X156760476Y-98340952D01*
X156570000Y-98074285D02*
X156570000Y-98340952D01*
X156570000Y-98112380D02*
X156550952Y-98093333D01*
X156512857Y-98074285D01*
X156455714Y-98074285D01*
X156417619Y-98093333D01*
X156398571Y-98131428D01*
X156398571Y-98340952D01*
X156303333Y-98379047D02*
X155998571Y-98379047D01*
X155827142Y-97940952D02*
X155789047Y-97940952D01*
X155750952Y-97960000D01*
X155731904Y-97979047D01*
X155712857Y-98017142D01*
X155693809Y-98093333D01*
X155693809Y-98188571D01*
X155712857Y-98264761D01*
X155731904Y-98302857D01*
X155750952Y-98321904D01*
X155789047Y-98340952D01*
X155827142Y-98340952D01*
X155865238Y-98321904D01*
X155884285Y-98302857D01*
X155903333Y-98264761D01*
X155922380Y-98188571D01*
X155922380Y-98093333D01*
X155903333Y-98017142D01*
X155884285Y-97979047D01*
X155865238Y-97960000D01*
X155827142Y-97940952D01*
X155312857Y-98340952D02*
X155541428Y-98340952D01*
X155427142Y-98340952D02*
X155427142Y-97940952D01*
X155465238Y-97998095D01*
X155503333Y-98036190D01*
X155541428Y-98055238D01*
X155179523Y-98340952D02*
X154970000Y-98074285D01*
X155179523Y-98074285D02*
X154970000Y-98340952D01*
X154741428Y-97940952D02*
X154703333Y-97940952D01*
X154665238Y-97960000D01*
X154646190Y-97979047D01*
X154627142Y-98017142D01*
X154608095Y-98093333D01*
X154608095Y-98188571D01*
X154627142Y-98264761D01*
X154646190Y-98302857D01*
X154665238Y-98321904D01*
X154703333Y-98340952D01*
X154741428Y-98340952D01*
X154779523Y-98321904D01*
X154798571Y-98302857D01*
X154817619Y-98264761D01*
X154836666Y-98188571D01*
X154836666Y-98093333D01*
X154817619Y-98017142D01*
X154798571Y-97979047D01*
X154779523Y-97960000D01*
X154741428Y-97940952D01*
X154455714Y-97979047D02*
X154436666Y-97960000D01*
X154398571Y-97940952D01*
X154303333Y-97940952D01*
X154265238Y-97960000D01*
X154246190Y-97979047D01*
X154227142Y-98017142D01*
X154227142Y-98055238D01*
X154246190Y-98112380D01*
X154474761Y-98340952D01*
X154227142Y-98340952D01*
M02*
