G04 #@! TF.GenerationSoftware,KiCad,Pcbnew,(2018-02-16 revision c95340fba)-makepkg*
G04 #@! TF.CreationDate,2018-04-19T06:34:26+02:00*
G04 #@! TF.ProjectId,LIN_USB_CONVERTER,4C494E5F5553425F434F4E5645525445,rev?*
G04 #@! TF.SameCoordinates,Original*
G04 #@! TF.FileFunction,Legend,Top*
G04 #@! TF.FilePolarity,Positive*
%FSLAX46Y46*%
G04 Gerber Fmt 4.6, Leading zero omitted, Abs format (unit mm)*
G04 Created by KiCad (PCBNEW (2018-02-16 revision c95340fba)-makepkg) date 04/19/18 06:34:26*
%MOMM*%
%LPD*%
G01*
G04 APERTURE LIST*
%ADD10C,0.100000*%
%ADD11C,0.120000*%
%ADD12C,0.150000*%
%ADD13C,0.090000*%
G04 APERTURE END LIST*
D10*
X141949142Y-82922000D02*
X142006285Y-82950571D01*
X142092000Y-82950571D01*
X142177714Y-82922000D01*
X142234857Y-82864857D01*
X142263428Y-82807714D01*
X142292000Y-82693428D01*
X142292000Y-82607714D01*
X142263428Y-82493428D01*
X142234857Y-82436285D01*
X142177714Y-82379142D01*
X142092000Y-82350571D01*
X142034857Y-82350571D01*
X141949142Y-82379142D01*
X141920571Y-82407714D01*
X141920571Y-82607714D01*
X142034857Y-82607714D01*
X141663428Y-82350571D02*
X141663428Y-82950571D01*
X141320571Y-82350571D01*
X141320571Y-82950571D01*
X141034857Y-82350571D02*
X141034857Y-82950571D01*
X140892000Y-82950571D01*
X140806285Y-82922000D01*
X140749142Y-82864857D01*
X140720571Y-82807714D01*
X140692000Y-82693428D01*
X140692000Y-82607714D01*
X140720571Y-82493428D01*
X140749142Y-82436285D01*
X140806285Y-82379142D01*
X140892000Y-82350571D01*
X141034857Y-82350571D01*
X141163428Y-93053428D02*
X140963428Y-92767714D01*
X140820571Y-93053428D02*
X140820571Y-92453428D01*
X141049142Y-92453428D01*
X141106285Y-92482000D01*
X141134857Y-92510571D01*
X141163428Y-92567714D01*
X141163428Y-92653428D01*
X141134857Y-92710571D01*
X141106285Y-92739142D01*
X141049142Y-92767714D01*
X140820571Y-92767714D01*
X141392000Y-93024857D02*
X141477714Y-93053428D01*
X141620571Y-93053428D01*
X141677714Y-93024857D01*
X141706285Y-92996285D01*
X141734857Y-92939142D01*
X141734857Y-92882000D01*
X141706285Y-92824857D01*
X141677714Y-92796285D01*
X141620571Y-92767714D01*
X141506285Y-92739142D01*
X141449142Y-92710571D01*
X141420571Y-92682000D01*
X141392000Y-92624857D01*
X141392000Y-92567714D01*
X141420571Y-92510571D01*
X141449142Y-92482000D01*
X141506285Y-92453428D01*
X141649142Y-92453428D01*
X141734857Y-92482000D01*
X141906285Y-92453428D02*
X142249142Y-92453428D01*
X142077714Y-93053428D02*
X142077714Y-92453428D01*
X142106285Y-84890571D02*
X142106285Y-85490571D01*
X141963428Y-85490571D01*
X141877714Y-85462000D01*
X141820571Y-85404857D01*
X141792000Y-85347714D01*
X141763428Y-85233428D01*
X141763428Y-85147714D01*
X141792000Y-85033428D01*
X141820571Y-84976285D01*
X141877714Y-84919142D01*
X141963428Y-84890571D01*
X142106285Y-84890571D01*
X141506285Y-84890571D02*
X141506285Y-85490571D01*
X141106285Y-85490571D02*
X140992000Y-85490571D01*
X140934857Y-85462000D01*
X140877714Y-85404857D01*
X140849142Y-85290571D01*
X140849142Y-85090571D01*
X140877714Y-84976285D01*
X140934857Y-84919142D01*
X140992000Y-84890571D01*
X141106285Y-84890571D01*
X141163428Y-84919142D01*
X141220571Y-84976285D01*
X141249142Y-85090571D01*
X141249142Y-85290571D01*
X141220571Y-85404857D01*
X141163428Y-85462000D01*
X141106285Y-85490571D01*
X141134857Y-87916285D02*
X141106285Y-87944857D01*
X141020571Y-87973428D01*
X140963428Y-87973428D01*
X140877714Y-87944857D01*
X140820571Y-87887714D01*
X140792000Y-87830571D01*
X140763428Y-87716285D01*
X140763428Y-87630571D01*
X140792000Y-87516285D01*
X140820571Y-87459142D01*
X140877714Y-87402000D01*
X140963428Y-87373428D01*
X141020571Y-87373428D01*
X141106285Y-87402000D01*
X141134857Y-87430571D01*
X141677714Y-87973428D02*
X141392000Y-87973428D01*
X141392000Y-87373428D01*
X141877714Y-87973428D02*
X141877714Y-87373428D01*
X142220571Y-87973428D02*
X141963428Y-87630571D01*
X142220571Y-87373428D02*
X141877714Y-87716285D01*
X140749142Y-89913428D02*
X141120571Y-89913428D01*
X140920571Y-90142000D01*
X141006285Y-90142000D01*
X141063428Y-90170571D01*
X141092000Y-90199142D01*
X141120571Y-90256285D01*
X141120571Y-90399142D01*
X141092000Y-90456285D01*
X141063428Y-90484857D01*
X141006285Y-90513428D01*
X140834857Y-90513428D01*
X140777714Y-90484857D01*
X140749142Y-90456285D01*
X141292000Y-89913428D02*
X141492000Y-90513428D01*
X141692000Y-89913428D01*
X141834857Y-89913428D02*
X142206285Y-89913428D01*
X142006285Y-90142000D01*
X142092000Y-90142000D01*
X142149142Y-90170571D01*
X142177714Y-90199142D01*
X142206285Y-90256285D01*
X142206285Y-90399142D01*
X142177714Y-90456285D01*
X142149142Y-90484857D01*
X142092000Y-90513428D01*
X141920571Y-90513428D01*
X141863428Y-90484857D01*
X141834857Y-90456285D01*
D11*
X155751000Y-98910500D02*
X155751000Y-98210500D01*
X156951000Y-98210500D02*
X156951000Y-98910500D01*
X155551000Y-98620000D02*
X155551000Y-98120000D01*
X154611000Y-98120000D02*
X154611000Y-98620000D01*
X146328600Y-85810600D02*
X146328600Y-86110600D01*
X150660800Y-85759800D02*
X150660800Y-86059800D01*
X150711600Y-90168200D02*
X150711600Y-89868200D01*
X146399200Y-89737200D02*
X146399200Y-89437200D01*
X150660800Y-85759800D02*
X150360800Y-85759800D01*
X150711600Y-90168200D02*
X150411600Y-90168200D01*
X146328600Y-85810600D02*
X146628600Y-85810600D01*
D12*
X146281156Y-90250000D02*
G75*
G03X146281156Y-90250000I-85156J0D01*
G01*
X153143000Y-86174000D02*
X153143000Y-85674000D01*
X152193000Y-85674000D02*
X152193000Y-86174000D01*
X148608000Y-93003000D02*
X149108000Y-93003000D01*
X149108000Y-92053000D02*
X148608000Y-92053000D01*
D11*
X154704000Y-85891000D02*
X155204000Y-85891000D01*
X155204000Y-84941000D02*
X154704000Y-84941000D01*
X153522000Y-108180000D02*
X153522000Y-108880000D01*
X152322000Y-108880000D02*
X152322000Y-108180000D01*
X147242000Y-109134000D02*
X147242000Y-108434000D01*
X148442000Y-108434000D02*
X148442000Y-109134000D01*
X151910000Y-93506000D02*
X152410000Y-93506000D01*
X152410000Y-92566000D02*
X151910000Y-92566000D01*
X152926000Y-91982000D02*
X153426000Y-91982000D01*
X153426000Y-91042000D02*
X152926000Y-91042000D01*
X155080000Y-93290000D02*
X155080000Y-95830000D01*
X156860000Y-95830000D02*
X156860000Y-93290000D01*
X156860000Y-95830000D02*
X155080000Y-95830000D01*
X155080000Y-93290000D02*
X156860000Y-93290000D01*
X155544000Y-105728000D02*
X155544000Y-104728000D01*
X156904000Y-104728000D02*
X156904000Y-105728000D01*
X144876000Y-105474000D02*
X144876000Y-104474000D01*
X146236000Y-104474000D02*
X146236000Y-105474000D01*
X145056000Y-92102000D02*
X146056000Y-92102000D01*
X146056000Y-93462000D02*
X145056000Y-93462000D01*
X142246000Y-96256000D02*
X141246000Y-96256000D01*
X141246000Y-94896000D02*
X142246000Y-94896000D01*
X156222000Y-90298000D02*
X156222000Y-89368000D01*
X156222000Y-87138000D02*
X156222000Y-88068000D01*
X156222000Y-87138000D02*
X154062000Y-87138000D01*
X156222000Y-90298000D02*
X154762000Y-90298000D01*
X141732000Y-103582000D02*
X141732000Y-104512000D01*
X141732000Y-106742000D02*
X141732000Y-105812000D01*
X141732000Y-106742000D02*
X143892000Y-106742000D01*
X141732000Y-103582000D02*
X143192000Y-103582000D01*
X146744000Y-97870000D02*
X146744000Y-98870000D01*
X145384000Y-98870000D02*
X145384000Y-97870000D01*
X144712000Y-97870000D02*
X144712000Y-98870000D01*
X143352000Y-98870000D02*
X143352000Y-97870000D01*
X142934000Y-97870000D02*
X142934000Y-98870000D01*
X141574000Y-98870000D02*
X141574000Y-97870000D01*
X148268000Y-97858000D02*
X148268000Y-98858000D01*
X146908000Y-98858000D02*
X146908000Y-97858000D01*
X152432000Y-103582000D02*
X152432000Y-104512000D01*
X152432000Y-106742000D02*
X152432000Y-105812000D01*
X152432000Y-106742000D02*
X154592000Y-106742000D01*
X152432000Y-103582000D02*
X153892000Y-103582000D01*
X148368000Y-103714000D02*
X148368000Y-104644000D01*
X148368000Y-106874000D02*
X148368000Y-105944000D01*
X148368000Y-106874000D02*
X150528000Y-106874000D01*
X148368000Y-103714000D02*
X149828000Y-103714000D01*
D12*
X143128936Y-100976040D02*
G75*
G03X143128936Y-100976040I-77376J0D01*
G01*
X143143000Y-96084000D02*
X148223000Y-96084000D01*
X148223000Y-96084000D02*
X148223000Y-100656000D01*
X148223000Y-100656000D02*
X143143000Y-100656000D01*
X143143000Y-100656000D02*
X143143000Y-96084000D01*
X143143000Y-97608000D02*
X143651000Y-97608000D01*
X143651000Y-97608000D02*
X143651000Y-98878000D01*
X143651000Y-98878000D02*
X143143000Y-98878000D01*
X154319000Y-99147000D02*
G75*
G03X154319000Y-99147000I-127000J0D01*
G01*
X153811000Y-99147000D02*
X150636000Y-99147000D01*
X153811000Y-95845000D02*
X153811000Y-99147000D01*
X150636000Y-95845000D02*
X153811000Y-95845000D01*
X150636000Y-99147000D02*
X150636000Y-95845000D01*
D10*
X157382857Y-98627166D02*
X157401904Y-98646214D01*
X157420952Y-98703357D01*
X157420952Y-98741452D01*
X157401904Y-98798595D01*
X157363809Y-98836690D01*
X157325714Y-98855738D01*
X157249523Y-98874785D01*
X157192380Y-98874785D01*
X157116190Y-98855738D01*
X157078095Y-98836690D01*
X157040000Y-98798595D01*
X157020952Y-98741452D01*
X157020952Y-98703357D01*
X157040000Y-98646214D01*
X157059047Y-98627166D01*
X157020952Y-98493833D02*
X157020952Y-98227166D01*
X157420952Y-98398595D01*
D13*
X155014333Y-99909857D02*
X154995285Y-99928904D01*
X154938142Y-99947952D01*
X154900047Y-99947952D01*
X154842904Y-99928904D01*
X154804809Y-99890809D01*
X154785761Y-99852714D01*
X154766714Y-99776523D01*
X154766714Y-99719380D01*
X154785761Y-99643190D01*
X154804809Y-99605095D01*
X154842904Y-99567000D01*
X154900047Y-99547952D01*
X154938142Y-99547952D01*
X154995285Y-99567000D01*
X155014333Y-99586047D01*
X155147666Y-99547952D02*
X155395285Y-99547952D01*
X155261952Y-99700333D01*
X155319095Y-99700333D01*
X155357190Y-99719380D01*
X155376238Y-99738428D01*
X155395285Y-99776523D01*
X155395285Y-99871761D01*
X155376238Y-99909857D01*
X155357190Y-99928904D01*
X155319095Y-99947952D01*
X155204809Y-99947952D01*
X155166714Y-99928904D01*
X155147666Y-99909857D01*
X144955952Y-90165761D02*
X145279761Y-90165761D01*
X145317857Y-90146714D01*
X145336904Y-90127666D01*
X145355952Y-90089571D01*
X145355952Y-90013380D01*
X145336904Y-89975285D01*
X145317857Y-89956238D01*
X145279761Y-89937190D01*
X144955952Y-89937190D01*
X145089285Y-89575285D02*
X145355952Y-89575285D01*
X144936904Y-89670523D02*
X145222619Y-89765761D01*
X145222619Y-89518142D01*
X152601333Y-87566857D02*
X152582285Y-87585904D01*
X152525142Y-87604952D01*
X152487047Y-87604952D01*
X152429904Y-87585904D01*
X152391809Y-87547809D01*
X152372761Y-87509714D01*
X152353714Y-87433523D01*
X152353714Y-87376380D01*
X152372761Y-87300190D01*
X152391809Y-87262095D01*
X152429904Y-87224000D01*
X152487047Y-87204952D01*
X152525142Y-87204952D01*
X152582285Y-87224000D01*
X152601333Y-87243047D01*
X152829904Y-87376380D02*
X152791809Y-87357333D01*
X152772761Y-87338285D01*
X152753714Y-87300190D01*
X152753714Y-87281142D01*
X152772761Y-87243047D01*
X152791809Y-87224000D01*
X152829904Y-87204952D01*
X152906095Y-87204952D01*
X152944190Y-87224000D01*
X152963238Y-87243047D01*
X152982285Y-87281142D01*
X152982285Y-87300190D01*
X152963238Y-87338285D01*
X152944190Y-87357333D01*
X152906095Y-87376380D01*
X152829904Y-87376380D01*
X152791809Y-87395428D01*
X152772761Y-87414476D01*
X152753714Y-87452571D01*
X152753714Y-87528761D01*
X152772761Y-87566857D01*
X152791809Y-87585904D01*
X152829904Y-87604952D01*
X152906095Y-87604952D01*
X152944190Y-87585904D01*
X152963238Y-87566857D01*
X152982285Y-87528761D01*
X152982285Y-87452571D01*
X152963238Y-87414476D01*
X152944190Y-87395428D01*
X152906095Y-87376380D01*
X150524857Y-92594666D02*
X150543904Y-92613714D01*
X150562952Y-92670857D01*
X150562952Y-92708952D01*
X150543904Y-92766095D01*
X150505809Y-92804190D01*
X150467714Y-92823238D01*
X150391523Y-92842285D01*
X150334380Y-92842285D01*
X150258190Y-92823238D01*
X150220095Y-92804190D01*
X150182000Y-92766095D01*
X150162952Y-92708952D01*
X150162952Y-92670857D01*
X150182000Y-92613714D01*
X150201047Y-92594666D01*
X150562952Y-92404190D02*
X150562952Y-92328000D01*
X150543904Y-92289904D01*
X150524857Y-92270857D01*
X150467714Y-92232761D01*
X150391523Y-92213714D01*
X150239142Y-92213714D01*
X150201047Y-92232761D01*
X150182000Y-92251809D01*
X150162952Y-92289904D01*
X150162952Y-92366095D01*
X150182000Y-92404190D01*
X150201047Y-92423238D01*
X150239142Y-92442285D01*
X150334380Y-92442285D01*
X150372476Y-92423238D01*
X150391523Y-92404190D01*
X150410571Y-92366095D01*
X150410571Y-92289904D01*
X150391523Y-92251809D01*
X150372476Y-92232761D01*
X150334380Y-92213714D01*
X156620857Y-85482666D02*
X156639904Y-85501714D01*
X156658952Y-85558857D01*
X156658952Y-85596952D01*
X156639904Y-85654095D01*
X156601809Y-85692190D01*
X156563714Y-85711238D01*
X156487523Y-85730285D01*
X156430380Y-85730285D01*
X156354190Y-85711238D01*
X156316095Y-85692190D01*
X156278000Y-85654095D01*
X156258952Y-85596952D01*
X156258952Y-85558857D01*
X156278000Y-85501714D01*
X156297047Y-85482666D01*
X156258952Y-85120761D02*
X156258952Y-85311238D01*
X156449428Y-85330285D01*
X156430380Y-85311238D01*
X156411333Y-85273142D01*
X156411333Y-85177904D01*
X156430380Y-85139809D01*
X156449428Y-85120761D01*
X156487523Y-85101714D01*
X156582761Y-85101714D01*
X156620857Y-85120761D01*
X156639904Y-85139809D01*
X156658952Y-85177904D01*
X156658952Y-85273142D01*
X156639904Y-85311238D01*
X156620857Y-85330285D01*
X152855333Y-110450857D02*
X152836285Y-110469904D01*
X152779142Y-110488952D01*
X152741047Y-110488952D01*
X152683904Y-110469904D01*
X152645809Y-110431809D01*
X152626761Y-110393714D01*
X152607714Y-110317523D01*
X152607714Y-110260380D01*
X152626761Y-110184190D01*
X152645809Y-110146095D01*
X152683904Y-110108000D01*
X152741047Y-110088952D01*
X152779142Y-110088952D01*
X152836285Y-110108000D01*
X152855333Y-110127047D01*
X153236285Y-110488952D02*
X153007714Y-110488952D01*
X153122000Y-110488952D02*
X153122000Y-110088952D01*
X153083904Y-110146095D01*
X153045809Y-110184190D01*
X153007714Y-110203238D01*
X147775333Y-110704857D02*
X147756285Y-110723904D01*
X147699142Y-110742952D01*
X147661047Y-110742952D01*
X147603904Y-110723904D01*
X147565809Y-110685809D01*
X147546761Y-110647714D01*
X147527714Y-110571523D01*
X147527714Y-110514380D01*
X147546761Y-110438190D01*
X147565809Y-110400095D01*
X147603904Y-110362000D01*
X147661047Y-110342952D01*
X147699142Y-110342952D01*
X147756285Y-110362000D01*
X147775333Y-110381047D01*
X147927714Y-110381047D02*
X147946761Y-110362000D01*
X147984857Y-110342952D01*
X148080095Y-110342952D01*
X148118190Y-110362000D01*
X148137238Y-110381047D01*
X148156285Y-110419142D01*
X148156285Y-110457238D01*
X148137238Y-110514380D01*
X147908666Y-110742952D01*
X148156285Y-110742952D01*
X153826857Y-93102666D02*
X153845904Y-93121714D01*
X153864952Y-93178857D01*
X153864952Y-93216952D01*
X153845904Y-93274095D01*
X153807809Y-93312190D01*
X153769714Y-93331238D01*
X153693523Y-93350285D01*
X153636380Y-93350285D01*
X153560190Y-93331238D01*
X153522095Y-93312190D01*
X153484000Y-93274095D01*
X153464952Y-93216952D01*
X153464952Y-93178857D01*
X153484000Y-93121714D01*
X153503047Y-93102666D01*
X153598285Y-92759809D02*
X153864952Y-92759809D01*
X153445904Y-92855047D02*
X153731619Y-92950285D01*
X153731619Y-92702666D01*
X154842857Y-91578666D02*
X154861904Y-91597714D01*
X154880952Y-91654857D01*
X154880952Y-91692952D01*
X154861904Y-91750095D01*
X154823809Y-91788190D01*
X154785714Y-91807238D01*
X154709523Y-91826285D01*
X154652380Y-91826285D01*
X154576190Y-91807238D01*
X154538095Y-91788190D01*
X154500000Y-91750095D01*
X154480952Y-91692952D01*
X154480952Y-91654857D01*
X154500000Y-91597714D01*
X154519047Y-91578666D01*
X154480952Y-91235809D02*
X154480952Y-91312000D01*
X154500000Y-91350095D01*
X154519047Y-91369142D01*
X154576190Y-91407238D01*
X154652380Y-91426285D01*
X154804761Y-91426285D01*
X154842857Y-91407238D01*
X154861904Y-91388190D01*
X154880952Y-91350095D01*
X154880952Y-91273904D01*
X154861904Y-91235809D01*
X154842857Y-91216761D01*
X154804761Y-91197714D01*
X154709523Y-91197714D01*
X154671428Y-91216761D01*
X154652380Y-91235809D01*
X154633333Y-91273904D01*
X154633333Y-91350095D01*
X154652380Y-91388190D01*
X154671428Y-91407238D01*
X154709523Y-91426285D01*
X154226952Y-93931333D02*
X154512666Y-93931333D01*
X154569809Y-93950380D01*
X154607904Y-93988476D01*
X154626952Y-94045619D01*
X154626952Y-94083714D01*
X154226952Y-93778952D02*
X154226952Y-93531333D01*
X154379333Y-93664666D01*
X154379333Y-93607523D01*
X154398380Y-93569428D01*
X154417428Y-93550380D01*
X154455523Y-93531333D01*
X154550761Y-93531333D01*
X154588857Y-93550380D01*
X154607904Y-93569428D01*
X154626952Y-93607523D01*
X154626952Y-93721809D01*
X154607904Y-93759904D01*
X154588857Y-93778952D01*
X156404952Y-105294666D02*
X156214476Y-105428000D01*
X156404952Y-105523238D02*
X156004952Y-105523238D01*
X156004952Y-105370857D01*
X156024000Y-105332761D01*
X156043047Y-105313714D01*
X156081142Y-105294666D01*
X156138285Y-105294666D01*
X156176380Y-105313714D01*
X156195428Y-105332761D01*
X156214476Y-105370857D01*
X156214476Y-105523238D01*
X156404952Y-104913714D02*
X156404952Y-105142285D01*
X156404952Y-105028000D02*
X156004952Y-105028000D01*
X156062095Y-105066095D01*
X156100190Y-105104190D01*
X156119238Y-105142285D01*
X145736952Y-105040666D02*
X145546476Y-105174000D01*
X145736952Y-105269238D02*
X145336952Y-105269238D01*
X145336952Y-105116857D01*
X145356000Y-105078761D01*
X145375047Y-105059714D01*
X145413142Y-105040666D01*
X145470285Y-105040666D01*
X145508380Y-105059714D01*
X145527428Y-105078761D01*
X145546476Y-105116857D01*
X145546476Y-105269238D01*
X145375047Y-104888285D02*
X145356000Y-104869238D01*
X145336952Y-104831142D01*
X145336952Y-104735904D01*
X145356000Y-104697809D01*
X145375047Y-104678761D01*
X145413142Y-104659714D01*
X145451238Y-104659714D01*
X145508380Y-104678761D01*
X145736952Y-104907333D01*
X145736952Y-104659714D01*
X145489333Y-92962952D02*
X145356000Y-92772476D01*
X145260761Y-92962952D02*
X145260761Y-92562952D01*
X145413142Y-92562952D01*
X145451238Y-92582000D01*
X145470285Y-92601047D01*
X145489333Y-92639142D01*
X145489333Y-92696285D01*
X145470285Y-92734380D01*
X145451238Y-92753428D01*
X145413142Y-92772476D01*
X145260761Y-92772476D01*
X145622666Y-92562952D02*
X145870285Y-92562952D01*
X145736952Y-92715333D01*
X145794095Y-92715333D01*
X145832190Y-92734380D01*
X145851238Y-92753428D01*
X145870285Y-92791523D01*
X145870285Y-92886761D01*
X145851238Y-92924857D01*
X145832190Y-92943904D01*
X145794095Y-92962952D01*
X145679809Y-92962952D01*
X145641714Y-92943904D01*
X145622666Y-92924857D01*
X141679333Y-95756952D02*
X141546000Y-95566476D01*
X141450761Y-95756952D02*
X141450761Y-95356952D01*
X141603142Y-95356952D01*
X141641238Y-95376000D01*
X141660285Y-95395047D01*
X141679333Y-95433142D01*
X141679333Y-95490285D01*
X141660285Y-95528380D01*
X141641238Y-95547428D01*
X141603142Y-95566476D01*
X141450761Y-95566476D01*
X142041238Y-95356952D02*
X141850761Y-95356952D01*
X141831714Y-95547428D01*
X141850761Y-95528380D01*
X141888857Y-95509333D01*
X141984095Y-95509333D01*
X142022190Y-95528380D01*
X142041238Y-95547428D01*
X142060285Y-95585523D01*
X142060285Y-95680761D01*
X142041238Y-95718857D01*
X142022190Y-95737904D01*
X141984095Y-95756952D01*
X141888857Y-95756952D01*
X141850761Y-95737904D01*
X141831714Y-95718857D01*
X156528952Y-90358761D02*
X156852761Y-90358761D01*
X156890857Y-90339714D01*
X156909904Y-90320666D01*
X156928952Y-90282571D01*
X156928952Y-90206380D01*
X156909904Y-90168285D01*
X156890857Y-90149238D01*
X156852761Y-90130190D01*
X156528952Y-90130190D01*
X156528952Y-89977809D02*
X156528952Y-89730190D01*
X156681333Y-89863523D01*
X156681333Y-89806380D01*
X156700380Y-89768285D01*
X156719428Y-89749238D01*
X156757523Y-89730190D01*
X156852761Y-89730190D01*
X156890857Y-89749238D01*
X156909904Y-89768285D01*
X156928952Y-89806380D01*
X156928952Y-89920666D01*
X156909904Y-89958761D01*
X156890857Y-89977809D01*
X142672952Y-105391238D02*
X142272952Y-105391238D01*
X142272952Y-105296000D01*
X142292000Y-105238857D01*
X142330095Y-105200761D01*
X142368190Y-105181714D01*
X142444380Y-105162666D01*
X142501523Y-105162666D01*
X142577714Y-105181714D01*
X142615809Y-105200761D01*
X142653904Y-105238857D01*
X142672952Y-105296000D01*
X142672952Y-105391238D01*
X142672952Y-104781714D02*
X142672952Y-105010285D01*
X142672952Y-104896000D02*
X142272952Y-104896000D01*
X142330095Y-104934095D01*
X142368190Y-104972190D01*
X142387238Y-105010285D01*
X146244952Y-98436666D02*
X146054476Y-98570000D01*
X146244952Y-98665238D02*
X145844952Y-98665238D01*
X145844952Y-98512857D01*
X145864000Y-98474761D01*
X145883047Y-98455714D01*
X145921142Y-98436666D01*
X145978285Y-98436666D01*
X146016380Y-98455714D01*
X146035428Y-98474761D01*
X146054476Y-98512857D01*
X146054476Y-98665238D01*
X145978285Y-98093809D02*
X146244952Y-98093809D01*
X145825904Y-98189047D02*
X146111619Y-98284285D01*
X146111619Y-98036666D01*
X144212952Y-98436666D02*
X144022476Y-98570000D01*
X144212952Y-98665238D02*
X143812952Y-98665238D01*
X143812952Y-98512857D01*
X143832000Y-98474761D01*
X143851047Y-98455714D01*
X143889142Y-98436666D01*
X143946285Y-98436666D01*
X143984380Y-98455714D01*
X144003428Y-98474761D01*
X144022476Y-98512857D01*
X144022476Y-98665238D01*
X143812952Y-98093809D02*
X143812952Y-98170000D01*
X143832000Y-98208095D01*
X143851047Y-98227142D01*
X143908190Y-98265238D01*
X143984380Y-98284285D01*
X144136761Y-98284285D01*
X144174857Y-98265238D01*
X144193904Y-98246190D01*
X144212952Y-98208095D01*
X144212952Y-98131904D01*
X144193904Y-98093809D01*
X144174857Y-98074761D01*
X144136761Y-98055714D01*
X144041523Y-98055714D01*
X144003428Y-98074761D01*
X143984380Y-98093809D01*
X143965333Y-98131904D01*
X143965333Y-98208095D01*
X143984380Y-98246190D01*
X144003428Y-98265238D01*
X144041523Y-98284285D01*
X142434952Y-98436666D02*
X142244476Y-98570000D01*
X142434952Y-98665238D02*
X142034952Y-98665238D01*
X142034952Y-98512857D01*
X142054000Y-98474761D01*
X142073047Y-98455714D01*
X142111142Y-98436666D01*
X142168285Y-98436666D01*
X142206380Y-98455714D01*
X142225428Y-98474761D01*
X142244476Y-98512857D01*
X142244476Y-98665238D01*
X142034952Y-98303333D02*
X142034952Y-98036666D01*
X142434952Y-98208095D01*
X147768952Y-98424666D02*
X147578476Y-98558000D01*
X147768952Y-98653238D02*
X147368952Y-98653238D01*
X147368952Y-98500857D01*
X147388000Y-98462761D01*
X147407047Y-98443714D01*
X147445142Y-98424666D01*
X147502285Y-98424666D01*
X147540380Y-98443714D01*
X147559428Y-98462761D01*
X147578476Y-98500857D01*
X147578476Y-98653238D01*
X147540380Y-98196095D02*
X147521333Y-98234190D01*
X147502285Y-98253238D01*
X147464190Y-98272285D01*
X147445142Y-98272285D01*
X147407047Y-98253238D01*
X147388000Y-98234190D01*
X147368952Y-98196095D01*
X147368952Y-98119904D01*
X147388000Y-98081809D01*
X147407047Y-98062761D01*
X147445142Y-98043714D01*
X147464190Y-98043714D01*
X147502285Y-98062761D01*
X147521333Y-98081809D01*
X147540380Y-98119904D01*
X147540380Y-98196095D01*
X147559428Y-98234190D01*
X147578476Y-98253238D01*
X147616571Y-98272285D01*
X147692761Y-98272285D01*
X147730857Y-98253238D01*
X147749904Y-98234190D01*
X147768952Y-98196095D01*
X147768952Y-98119904D01*
X147749904Y-98081809D01*
X147730857Y-98062761D01*
X147692761Y-98043714D01*
X147616571Y-98043714D01*
X147578476Y-98062761D01*
X147559428Y-98081809D01*
X147540380Y-98119904D01*
X153372952Y-105457238D02*
X152972952Y-105457238D01*
X152972952Y-105362000D01*
X152992000Y-105304857D01*
X153030095Y-105266761D01*
X153068190Y-105247714D01*
X153144380Y-105228666D01*
X153201523Y-105228666D01*
X153277714Y-105247714D01*
X153315809Y-105266761D01*
X153353904Y-105304857D01*
X153372952Y-105362000D01*
X153372952Y-105457238D01*
X152972952Y-105095333D02*
X152972952Y-104847714D01*
X153125333Y-104981047D01*
X153125333Y-104923904D01*
X153144380Y-104885809D01*
X153163428Y-104866761D01*
X153201523Y-104847714D01*
X153296761Y-104847714D01*
X153334857Y-104866761D01*
X153353904Y-104885809D01*
X153372952Y-104923904D01*
X153372952Y-105038190D01*
X153353904Y-105076285D01*
X153334857Y-105095333D01*
X149308952Y-105523238D02*
X148908952Y-105523238D01*
X148908952Y-105428000D01*
X148928000Y-105370857D01*
X148966095Y-105332761D01*
X149004190Y-105313714D01*
X149080380Y-105294666D01*
X149137523Y-105294666D01*
X149213714Y-105313714D01*
X149251809Y-105332761D01*
X149289904Y-105370857D01*
X149308952Y-105428000D01*
X149308952Y-105523238D01*
X148947047Y-105142285D02*
X148928000Y-105123238D01*
X148908952Y-105085142D01*
X148908952Y-104989904D01*
X148928000Y-104951809D01*
X148947047Y-104932761D01*
X148985142Y-104913714D01*
X149023238Y-104913714D01*
X149080380Y-104932761D01*
X149308952Y-105161333D01*
X149308952Y-104913714D01*
X142288952Y-100452761D02*
X142612761Y-100452761D01*
X142650857Y-100433714D01*
X142669904Y-100414666D01*
X142688952Y-100376571D01*
X142688952Y-100300380D01*
X142669904Y-100262285D01*
X142650857Y-100243238D01*
X142612761Y-100224190D01*
X142288952Y-100224190D01*
X142327047Y-100052761D02*
X142308000Y-100033714D01*
X142288952Y-99995619D01*
X142288952Y-99900380D01*
X142308000Y-99862285D01*
X142327047Y-99843238D01*
X142365142Y-99824190D01*
X142403238Y-99824190D01*
X142460380Y-99843238D01*
X142688952Y-100071809D01*
X142688952Y-99824190D01*
X153125238Y-99532952D02*
X153125238Y-99856761D01*
X153144285Y-99894857D01*
X153163333Y-99913904D01*
X153201428Y-99932952D01*
X153277619Y-99932952D01*
X153315714Y-99913904D01*
X153334761Y-99894857D01*
X153353809Y-99856761D01*
X153353809Y-99532952D01*
X153753809Y-99932952D02*
X153525238Y-99932952D01*
X153639523Y-99932952D02*
X153639523Y-99532952D01*
X153601428Y-99590095D01*
X153563333Y-99628190D01*
X153525238Y-99647238D01*
M02*
