G04 #@! TF.GenerationSoftware,KiCad,Pcbnew,(2018-02-16 revision c95340fba)-makepkg*
G04 #@! TF.CreationDate,2018-03-22T22:09:08+01:00*
G04 #@! TF.ProjectId,LIN_USB_CONVERTER,4C494E5F5553425F434F4E5645525445,rev?*
G04 #@! TF.SameCoordinates,Original*
G04 #@! TF.FileFunction,Copper,L2,Bot,Signal*
G04 #@! TF.FilePolarity,Positive*
%FSLAX46Y46*%
G04 Gerber Fmt 4.6, Leading zero omitted, Abs format (unit mm)*
G04 Created by KiCad (PCBNEW (2018-02-16 revision c95340fba)-makepkg) date 03/22/18 22:09:08*
%MOMM*%
%LPD*%
G01*
G04 APERTURE LIST*
%ADD10C,1.000000*%
%ADD11C,2.500000*%
%ADD12R,1.700000X1.700000*%
%ADD13O,1.700000X1.700000*%
%ADD14R,1.980000X3.960000*%
%ADD15O,1.980000X3.960000*%
%ADD16C,1.501140*%
%ADD17O,1.400000X3.800000*%
%ADD18C,0.600000*%
%ADD19C,0.250000*%
%ADD20C,0.254000*%
G04 APERTURE END LIST*
D10*
X148858000Y-80082000D03*
D11*
X142000000Y-109800000D03*
D12*
X150890000Y-101418000D03*
D13*
X153430000Y-101418000D03*
X155970000Y-101418000D03*
D14*
X155382000Y-109546000D03*
D15*
X150382000Y-109546000D03*
X145382000Y-109546000D03*
D12*
X155970000Y-93290000D03*
D13*
X155970000Y-95830000D03*
D16*
X152414860Y-82878120D03*
X149874860Y-82878120D03*
X147842860Y-82878120D03*
X145302860Y-82878120D03*
D17*
X154700000Y-80590000D03*
X143016000Y-80590000D03*
D18*
X152160000Y-88718000D03*
X144032000Y-88464000D03*
X147334000Y-92528000D03*
X151144000Y-92070000D03*
X143778000Y-93544000D03*
X148350000Y-93544000D03*
X148096000Y-91258000D03*
X143524000Y-92528000D03*
X152160000Y-96084000D03*
X141746000Y-107006000D03*
X141746000Y-102942000D03*
X142254000Y-100910000D03*
X151906000Y-97862000D03*
D19*
X144552291Y-87943709D02*
X144032000Y-88464000D01*
X145302860Y-82878120D02*
X144552291Y-83628689D01*
X144552291Y-83628689D02*
X144552291Y-87943709D01*
X147492001Y-92369999D02*
X147334000Y-92528000D01*
X151144000Y-92070000D02*
X150844001Y-92369999D01*
X150844001Y-92369999D02*
X147492001Y-92369999D01*
X148350000Y-93544000D02*
X143778000Y-93544000D01*
X147588000Y-90750000D02*
X148096000Y-91258000D01*
X144794000Y-90750000D02*
X147588000Y-90750000D01*
X143823999Y-91720001D02*
X144794000Y-90750000D01*
X143524000Y-92528000D02*
X143823999Y-92228001D01*
X143823999Y-92228001D02*
X143823999Y-91720001D01*
X149142000Y-109546000D02*
X146602000Y-107006000D01*
X146602000Y-107006000D02*
X141746000Y-107006000D01*
X150382000Y-109546000D02*
X149142000Y-109546000D01*
X149142000Y-109546000D02*
X146836990Y-107240990D01*
X146836990Y-107240990D02*
X141511010Y-107240990D01*
X142538000Y-102942000D02*
X141746000Y-102942000D01*
X149142000Y-109546000D02*
X142538000Y-102942000D01*
X153108081Y-100148000D02*
X147588000Y-100148000D01*
X153176000Y-101418000D02*
X153176000Y-100215919D01*
X153176000Y-100215919D02*
X153108081Y-100148000D01*
X143061999Y-100102001D02*
X142254000Y-100910000D01*
X146363999Y-100102001D02*
X143061999Y-100102001D01*
X148604000Y-97862000D02*
X151906000Y-97862000D01*
X146363999Y-100102001D02*
X148604000Y-97862000D01*
D20*
G36*
X154578697Y-96406297D02*
X154905142Y-96894858D01*
X155393703Y-97221303D01*
X155824529Y-97307000D01*
X156115471Y-97307000D01*
X156546297Y-97221303D01*
X157034858Y-96894858D01*
X157275001Y-96535458D01*
X157275001Y-100712542D01*
X157034858Y-100353142D01*
X156546297Y-100026697D01*
X156115471Y-99941000D01*
X155824529Y-99941000D01*
X155393703Y-100026697D01*
X154905142Y-100353142D01*
X154690128Y-100674934D01*
X154625183Y-100536642D01*
X154196924Y-100146355D01*
X153786890Y-99976524D01*
X153557000Y-100097845D01*
X153557000Y-101291000D01*
X153577000Y-101291000D01*
X153577000Y-101545000D01*
X153557000Y-101545000D01*
X153557000Y-102738155D01*
X153786890Y-102859476D01*
X154196924Y-102689645D01*
X154625183Y-102299358D01*
X154690128Y-102161066D01*
X154905142Y-102482858D01*
X155393703Y-102809303D01*
X155824529Y-102895000D01*
X156115471Y-102895000D01*
X156546297Y-102809303D01*
X157034858Y-102482858D01*
X157275001Y-102123458D01*
X157275001Y-111613000D01*
X156993977Y-111613000D01*
X157011283Y-111526000D01*
X157011283Y-107566000D01*
X156962620Y-107321357D01*
X156824041Y-107113959D01*
X156616643Y-106975380D01*
X156372000Y-106926717D01*
X154392000Y-106926717D01*
X154147357Y-106975380D01*
X153939959Y-107113959D01*
X153801380Y-107321357D01*
X153752717Y-107566000D01*
X153752717Y-111526000D01*
X153770023Y-111613000D01*
X151568696Y-111613000D01*
X151834703Y-111275193D01*
X152007000Y-110663000D01*
X152007000Y-109673000D01*
X150509000Y-109673000D01*
X150509000Y-109693000D01*
X150255000Y-109693000D01*
X150255000Y-109673000D01*
X148757000Y-109673000D01*
X148757000Y-110663000D01*
X148929297Y-111275193D01*
X149195304Y-111613000D01*
X146607119Y-111613000D01*
X146905180Y-111166922D01*
X146999000Y-110695256D01*
X146999000Y-108429000D01*
X148757000Y-108429000D01*
X148757000Y-109419000D01*
X150255000Y-109419000D01*
X150255000Y-107095260D01*
X150509000Y-107095260D01*
X150509000Y-109419000D01*
X152007000Y-109419000D01*
X152007000Y-108429000D01*
X151834703Y-107816807D01*
X151441246Y-107317149D01*
X150886528Y-107006095D01*
X150760865Y-106975782D01*
X150509000Y-107095260D01*
X150255000Y-107095260D01*
X150003135Y-106975782D01*
X149877472Y-107006095D01*
X149322754Y-107317149D01*
X148929297Y-107816807D01*
X148757000Y-108429000D01*
X146999000Y-108429000D01*
X146999000Y-108396744D01*
X146905180Y-107925078D01*
X146547791Y-107390209D01*
X146012922Y-107032820D01*
X145382000Y-106907322D01*
X144751079Y-107032820D01*
X144216210Y-107390209D01*
X143858821Y-107925078D01*
X143765001Y-108396744D01*
X143765001Y-109156251D01*
X143591244Y-108736765D01*
X143063235Y-108208756D01*
X142373359Y-107923000D01*
X141626641Y-107923000D01*
X140949000Y-108203688D01*
X140949000Y-98751000D01*
X146651513Y-98751000D01*
X146052512Y-99350001D01*
X143136057Y-99350001D01*
X143061998Y-99335270D01*
X142987939Y-99350001D01*
X142987936Y-99350001D01*
X142768583Y-99393633D01*
X142519838Y-99559840D01*
X142477884Y-99622628D01*
X142117513Y-99983000D01*
X142069608Y-99983000D01*
X141728897Y-100124127D01*
X141468127Y-100384897D01*
X141327000Y-100725608D01*
X141327000Y-101094392D01*
X141468127Y-101435103D01*
X141728897Y-101695873D01*
X142069608Y-101837000D01*
X142438392Y-101837000D01*
X142779103Y-101695873D01*
X143039873Y-101435103D01*
X143181000Y-101094392D01*
X143181000Y-101046487D01*
X143373487Y-100854001D01*
X146289940Y-100854001D01*
X146363999Y-100868732D01*
X146438058Y-100854001D01*
X146438062Y-100854001D01*
X146657415Y-100810369D01*
X146906160Y-100644162D01*
X146948115Y-100581372D01*
X146961487Y-100568000D01*
X149400717Y-100568000D01*
X149400717Y-102268000D01*
X149449380Y-102512643D01*
X149587959Y-102720041D01*
X149795357Y-102858620D01*
X150040000Y-102907283D01*
X151740000Y-102907283D01*
X151984643Y-102858620D01*
X152192041Y-102720041D01*
X152330620Y-102512643D01*
X152351833Y-102405999D01*
X152663076Y-102689645D01*
X153073110Y-102859476D01*
X153303000Y-102738155D01*
X153303000Y-101545000D01*
X153283000Y-101545000D01*
X153283000Y-101291000D01*
X153303000Y-101291000D01*
X153303000Y-100097845D01*
X153073110Y-99976524D01*
X152663076Y-100146355D01*
X152351833Y-100430001D01*
X152330620Y-100323357D01*
X152192041Y-100115959D01*
X151984643Y-99977380D01*
X151740000Y-99928717D01*
X150040000Y-99928717D01*
X149795357Y-99977380D01*
X149587959Y-100115959D01*
X149449380Y-100323357D01*
X149400717Y-100568000D01*
X146961487Y-100568000D01*
X148778488Y-98751000D01*
X150128000Y-98751000D01*
X150176601Y-98741333D01*
X150217803Y-98713803D01*
X150245333Y-98672601D01*
X150255000Y-98624000D01*
X150255000Y-98614000D01*
X151347024Y-98614000D01*
X151380897Y-98647873D01*
X151721608Y-98789000D01*
X152090392Y-98789000D01*
X152431103Y-98647873D01*
X152691873Y-98387103D01*
X152833000Y-98046392D01*
X152833000Y-97677608D01*
X152691873Y-97336897D01*
X152431103Y-97076127D01*
X152090392Y-96935000D01*
X151721608Y-96935000D01*
X151380897Y-97076127D01*
X151347024Y-97110000D01*
X150255000Y-97110000D01*
X150255000Y-95957000D01*
X154489326Y-95957000D01*
X154578697Y-96406297D01*
X154578697Y-96406297D01*
G37*
X154578697Y-96406297D02*
X154905142Y-96894858D01*
X155393703Y-97221303D01*
X155824529Y-97307000D01*
X156115471Y-97307000D01*
X156546297Y-97221303D01*
X157034858Y-96894858D01*
X157275001Y-96535458D01*
X157275001Y-100712542D01*
X157034858Y-100353142D01*
X156546297Y-100026697D01*
X156115471Y-99941000D01*
X155824529Y-99941000D01*
X155393703Y-100026697D01*
X154905142Y-100353142D01*
X154690128Y-100674934D01*
X154625183Y-100536642D01*
X154196924Y-100146355D01*
X153786890Y-99976524D01*
X153557000Y-100097845D01*
X153557000Y-101291000D01*
X153577000Y-101291000D01*
X153577000Y-101545000D01*
X153557000Y-101545000D01*
X153557000Y-102738155D01*
X153786890Y-102859476D01*
X154196924Y-102689645D01*
X154625183Y-102299358D01*
X154690128Y-102161066D01*
X154905142Y-102482858D01*
X155393703Y-102809303D01*
X155824529Y-102895000D01*
X156115471Y-102895000D01*
X156546297Y-102809303D01*
X157034858Y-102482858D01*
X157275001Y-102123458D01*
X157275001Y-111613000D01*
X156993977Y-111613000D01*
X157011283Y-111526000D01*
X157011283Y-107566000D01*
X156962620Y-107321357D01*
X156824041Y-107113959D01*
X156616643Y-106975380D01*
X156372000Y-106926717D01*
X154392000Y-106926717D01*
X154147357Y-106975380D01*
X153939959Y-107113959D01*
X153801380Y-107321357D01*
X153752717Y-107566000D01*
X153752717Y-111526000D01*
X153770023Y-111613000D01*
X151568696Y-111613000D01*
X151834703Y-111275193D01*
X152007000Y-110663000D01*
X152007000Y-109673000D01*
X150509000Y-109673000D01*
X150509000Y-109693000D01*
X150255000Y-109693000D01*
X150255000Y-109673000D01*
X148757000Y-109673000D01*
X148757000Y-110663000D01*
X148929297Y-111275193D01*
X149195304Y-111613000D01*
X146607119Y-111613000D01*
X146905180Y-111166922D01*
X146999000Y-110695256D01*
X146999000Y-108429000D01*
X148757000Y-108429000D01*
X148757000Y-109419000D01*
X150255000Y-109419000D01*
X150255000Y-107095260D01*
X150509000Y-107095260D01*
X150509000Y-109419000D01*
X152007000Y-109419000D01*
X152007000Y-108429000D01*
X151834703Y-107816807D01*
X151441246Y-107317149D01*
X150886528Y-107006095D01*
X150760865Y-106975782D01*
X150509000Y-107095260D01*
X150255000Y-107095260D01*
X150003135Y-106975782D01*
X149877472Y-107006095D01*
X149322754Y-107317149D01*
X148929297Y-107816807D01*
X148757000Y-108429000D01*
X146999000Y-108429000D01*
X146999000Y-108396744D01*
X146905180Y-107925078D01*
X146547791Y-107390209D01*
X146012922Y-107032820D01*
X145382000Y-106907322D01*
X144751079Y-107032820D01*
X144216210Y-107390209D01*
X143858821Y-107925078D01*
X143765001Y-108396744D01*
X143765001Y-109156251D01*
X143591244Y-108736765D01*
X143063235Y-108208756D01*
X142373359Y-107923000D01*
X141626641Y-107923000D01*
X140949000Y-108203688D01*
X140949000Y-98751000D01*
X146651513Y-98751000D01*
X146052512Y-99350001D01*
X143136057Y-99350001D01*
X143061998Y-99335270D01*
X142987939Y-99350001D01*
X142987936Y-99350001D01*
X142768583Y-99393633D01*
X142519838Y-99559840D01*
X142477884Y-99622628D01*
X142117513Y-99983000D01*
X142069608Y-99983000D01*
X141728897Y-100124127D01*
X141468127Y-100384897D01*
X141327000Y-100725608D01*
X141327000Y-101094392D01*
X141468127Y-101435103D01*
X141728897Y-101695873D01*
X142069608Y-101837000D01*
X142438392Y-101837000D01*
X142779103Y-101695873D01*
X143039873Y-101435103D01*
X143181000Y-101094392D01*
X143181000Y-101046487D01*
X143373487Y-100854001D01*
X146289940Y-100854001D01*
X146363999Y-100868732D01*
X146438058Y-100854001D01*
X146438062Y-100854001D01*
X146657415Y-100810369D01*
X146906160Y-100644162D01*
X146948115Y-100581372D01*
X146961487Y-100568000D01*
X149400717Y-100568000D01*
X149400717Y-102268000D01*
X149449380Y-102512643D01*
X149587959Y-102720041D01*
X149795357Y-102858620D01*
X150040000Y-102907283D01*
X151740000Y-102907283D01*
X151984643Y-102858620D01*
X152192041Y-102720041D01*
X152330620Y-102512643D01*
X152351833Y-102405999D01*
X152663076Y-102689645D01*
X153073110Y-102859476D01*
X153303000Y-102738155D01*
X153303000Y-101545000D01*
X153283000Y-101545000D01*
X153283000Y-101291000D01*
X153303000Y-101291000D01*
X153303000Y-100097845D01*
X153073110Y-99976524D01*
X152663076Y-100146355D01*
X152351833Y-100430001D01*
X152330620Y-100323357D01*
X152192041Y-100115959D01*
X151984643Y-99977380D01*
X151740000Y-99928717D01*
X150040000Y-99928717D01*
X149795357Y-99977380D01*
X149587959Y-100115959D01*
X149449380Y-100323357D01*
X149400717Y-100568000D01*
X146961487Y-100568000D01*
X148778488Y-98751000D01*
X150128000Y-98751000D01*
X150176601Y-98741333D01*
X150217803Y-98713803D01*
X150245333Y-98672601D01*
X150255000Y-98624000D01*
X150255000Y-98614000D01*
X151347024Y-98614000D01*
X151380897Y-98647873D01*
X151721608Y-98789000D01*
X152090392Y-98789000D01*
X152431103Y-98647873D01*
X152691873Y-98387103D01*
X152833000Y-98046392D01*
X152833000Y-97677608D01*
X152691873Y-97336897D01*
X152431103Y-97076127D01*
X152090392Y-96935000D01*
X151721608Y-96935000D01*
X151380897Y-97076127D01*
X151347024Y-97110000D01*
X150255000Y-97110000D01*
X150255000Y-95957000D01*
X154489326Y-95957000D01*
X154578697Y-96406297D01*
G36*
X141681000Y-79263000D02*
X141681000Y-80463000D01*
X142889000Y-80463000D01*
X142889000Y-80443000D01*
X143143000Y-80443000D01*
X143143000Y-80463000D01*
X144351000Y-80463000D01*
X144351000Y-79263000D01*
X144281466Y-79031000D01*
X147933343Y-79031000D01*
X147673680Y-79290663D01*
X147578008Y-79521636D01*
X147352008Y-79295636D01*
X146845902Y-79086000D01*
X146298098Y-79086000D01*
X145791992Y-79295636D01*
X145404636Y-79682992D01*
X145195000Y-80189098D01*
X145195000Y-80736902D01*
X145404636Y-81243008D01*
X145716120Y-81554492D01*
X145507826Y-81480353D01*
X144957322Y-81508315D01*
X144578595Y-81665189D01*
X144510536Y-81906188D01*
X144395483Y-81791135D01*
X144351000Y-81835618D01*
X144351000Y-80717000D01*
X143143000Y-80717000D01*
X143143000Y-82959374D01*
X143349329Y-83082716D01*
X143409550Y-83071980D01*
X143870185Y-82823790D01*
X143910248Y-82774640D01*
X143933055Y-83223658D01*
X144089929Y-83602385D01*
X144330930Y-83670445D01*
X145123255Y-82878120D01*
X145109113Y-82863978D01*
X145288718Y-82684373D01*
X145302860Y-82698515D01*
X146095185Y-81906190D01*
X146047136Y-81736048D01*
X146298098Y-81840000D01*
X146845902Y-81840000D01*
X146994250Y-81778552D01*
X146675013Y-82097789D01*
X146583790Y-82318020D01*
X146515791Y-82153855D01*
X146274790Y-82085795D01*
X145482465Y-82878120D01*
X146274790Y-83670445D01*
X146515791Y-83602385D01*
X146578644Y-83425797D01*
X146675013Y-83658451D01*
X147062529Y-84045967D01*
X147568844Y-84255690D01*
X148116876Y-84255690D01*
X148623191Y-84045967D01*
X148858860Y-83810298D01*
X149094529Y-84045967D01*
X149600844Y-84255690D01*
X150148876Y-84255690D01*
X150655191Y-84045967D01*
X151042707Y-83658451D01*
X151144860Y-83411832D01*
X151247013Y-83658451D01*
X151634529Y-84045967D01*
X152140844Y-84255690D01*
X152688876Y-84255690D01*
X153195191Y-84045967D01*
X153582707Y-83658451D01*
X153792430Y-83152136D01*
X153792430Y-82758297D01*
X153845815Y-82823790D01*
X154306450Y-83071980D01*
X154366671Y-83082716D01*
X154573000Y-82959374D01*
X154573000Y-80717000D01*
X154827000Y-80717000D01*
X154827000Y-82959374D01*
X155033329Y-83082716D01*
X155093550Y-83071980D01*
X155554185Y-82823790D01*
X155884778Y-82418215D01*
X156035000Y-81917000D01*
X156035000Y-80717000D01*
X154827000Y-80717000D01*
X154573000Y-80717000D01*
X153365000Y-80717000D01*
X153365000Y-81880082D01*
X153195191Y-81710273D01*
X152688876Y-81500550D01*
X152140844Y-81500550D01*
X151992288Y-81562084D01*
X152311364Y-81243008D01*
X152521000Y-80736902D01*
X152521000Y-80189098D01*
X152311364Y-79682992D01*
X151924008Y-79295636D01*
X151417902Y-79086000D01*
X150870098Y-79086000D01*
X150363992Y-79295636D01*
X150137992Y-79521636D01*
X150042320Y-79290663D01*
X149782657Y-79031000D01*
X153434534Y-79031000D01*
X153365000Y-79263000D01*
X153365000Y-80463000D01*
X154573000Y-80463000D01*
X154573000Y-80443000D01*
X154827000Y-80443000D01*
X154827000Y-80463000D01*
X156035000Y-80463000D01*
X156035000Y-79263000D01*
X155965466Y-79031000D01*
X157275000Y-79031000D01*
X157275000Y-91131000D01*
X154192000Y-91131000D01*
X154143399Y-91140667D01*
X154102197Y-91168197D01*
X154074667Y-91209399D01*
X154065000Y-91258000D01*
X154065000Y-94433000D01*
X148626132Y-94433000D01*
X148875103Y-94329873D01*
X149135873Y-94069103D01*
X149277000Y-93728392D01*
X149277000Y-93359608D01*
X149135873Y-93018897D01*
X148875103Y-92758127D01*
X148534392Y-92617000D01*
X148165608Y-92617000D01*
X147824897Y-92758127D01*
X147791024Y-92792000D01*
X144418025Y-92792000D01*
X144451000Y-92712392D01*
X144451000Y-92643191D01*
X144532367Y-92521417D01*
X144575999Y-92302064D01*
X144575999Y-92302060D01*
X144590730Y-92228001D01*
X144575999Y-92153942D01*
X144575999Y-92031489D01*
X145105488Y-91502000D01*
X147193690Y-91502000D01*
X147310127Y-91783103D01*
X147570897Y-92043873D01*
X147911608Y-92185000D01*
X148280392Y-92185000D01*
X148621103Y-92043873D01*
X148881873Y-91783103D01*
X149023000Y-91442392D01*
X149023000Y-91073608D01*
X148881873Y-90732897D01*
X148621103Y-90472127D01*
X148280392Y-90331000D01*
X148232488Y-90331000D01*
X148172116Y-90270628D01*
X148130161Y-90207839D01*
X147881416Y-90041632D01*
X147662063Y-89998000D01*
X147662059Y-89998000D01*
X147588000Y-89983269D01*
X147513941Y-89998000D01*
X144868059Y-89998000D01*
X144794000Y-89983269D01*
X144719941Y-89998000D01*
X144719937Y-89998000D01*
X144500584Y-90041632D01*
X144314626Y-90165885D01*
X144314623Y-90165888D01*
X144251839Y-90207839D01*
X144209887Y-90270624D01*
X143344626Y-91135887D01*
X143281839Y-91177840D01*
X143115631Y-91426585D01*
X143071999Y-91645938D01*
X143071999Y-91645942D01*
X143057713Y-91717765D01*
X142998897Y-91742127D01*
X142738127Y-92002897D01*
X142597000Y-92343608D01*
X142597000Y-92712392D01*
X142738127Y-93053103D01*
X142907713Y-93222689D01*
X142851000Y-93359608D01*
X142851000Y-93728392D01*
X142992127Y-94069103D01*
X143252897Y-94329873D01*
X143593608Y-94471000D01*
X143962392Y-94471000D01*
X144303103Y-94329873D01*
X144336976Y-94296000D01*
X147791024Y-94296000D01*
X147824897Y-94329873D01*
X148081048Y-94435974D01*
X148047399Y-94442667D01*
X148006197Y-94470197D01*
X147978667Y-94511399D01*
X147969000Y-94560000D01*
X147969000Y-96973000D01*
X140949000Y-96973000D01*
X140949000Y-83850050D01*
X144510535Y-83850050D01*
X144578595Y-84091051D01*
X145097894Y-84275887D01*
X145648398Y-84247925D01*
X146027125Y-84091051D01*
X146095185Y-83850050D01*
X145302860Y-83057725D01*
X144510535Y-83850050D01*
X140949000Y-83850050D01*
X140949000Y-80717000D01*
X141681000Y-80717000D01*
X141681000Y-81917000D01*
X141831222Y-82418215D01*
X142161815Y-82823790D01*
X142622450Y-83071980D01*
X142682671Y-83082716D01*
X142889000Y-82959374D01*
X142889000Y-80717000D01*
X141681000Y-80717000D01*
X140949000Y-80717000D01*
X140949000Y-79031000D01*
X141750534Y-79031000D01*
X141681000Y-79263000D01*
X141681000Y-79263000D01*
G37*
X141681000Y-79263000D02*
X141681000Y-80463000D01*
X142889000Y-80463000D01*
X142889000Y-80443000D01*
X143143000Y-80443000D01*
X143143000Y-80463000D01*
X144351000Y-80463000D01*
X144351000Y-79263000D01*
X144281466Y-79031000D01*
X147933343Y-79031000D01*
X147673680Y-79290663D01*
X147578008Y-79521636D01*
X147352008Y-79295636D01*
X146845902Y-79086000D01*
X146298098Y-79086000D01*
X145791992Y-79295636D01*
X145404636Y-79682992D01*
X145195000Y-80189098D01*
X145195000Y-80736902D01*
X145404636Y-81243008D01*
X145716120Y-81554492D01*
X145507826Y-81480353D01*
X144957322Y-81508315D01*
X144578595Y-81665189D01*
X144510536Y-81906188D01*
X144395483Y-81791135D01*
X144351000Y-81835618D01*
X144351000Y-80717000D01*
X143143000Y-80717000D01*
X143143000Y-82959374D01*
X143349329Y-83082716D01*
X143409550Y-83071980D01*
X143870185Y-82823790D01*
X143910248Y-82774640D01*
X143933055Y-83223658D01*
X144089929Y-83602385D01*
X144330930Y-83670445D01*
X145123255Y-82878120D01*
X145109113Y-82863978D01*
X145288718Y-82684373D01*
X145302860Y-82698515D01*
X146095185Y-81906190D01*
X146047136Y-81736048D01*
X146298098Y-81840000D01*
X146845902Y-81840000D01*
X146994250Y-81778552D01*
X146675013Y-82097789D01*
X146583790Y-82318020D01*
X146515791Y-82153855D01*
X146274790Y-82085795D01*
X145482465Y-82878120D01*
X146274790Y-83670445D01*
X146515791Y-83602385D01*
X146578644Y-83425797D01*
X146675013Y-83658451D01*
X147062529Y-84045967D01*
X147568844Y-84255690D01*
X148116876Y-84255690D01*
X148623191Y-84045967D01*
X148858860Y-83810298D01*
X149094529Y-84045967D01*
X149600844Y-84255690D01*
X150148876Y-84255690D01*
X150655191Y-84045967D01*
X151042707Y-83658451D01*
X151144860Y-83411832D01*
X151247013Y-83658451D01*
X151634529Y-84045967D01*
X152140844Y-84255690D01*
X152688876Y-84255690D01*
X153195191Y-84045967D01*
X153582707Y-83658451D01*
X153792430Y-83152136D01*
X153792430Y-82758297D01*
X153845815Y-82823790D01*
X154306450Y-83071980D01*
X154366671Y-83082716D01*
X154573000Y-82959374D01*
X154573000Y-80717000D01*
X154827000Y-80717000D01*
X154827000Y-82959374D01*
X155033329Y-83082716D01*
X155093550Y-83071980D01*
X155554185Y-82823790D01*
X155884778Y-82418215D01*
X156035000Y-81917000D01*
X156035000Y-80717000D01*
X154827000Y-80717000D01*
X154573000Y-80717000D01*
X153365000Y-80717000D01*
X153365000Y-81880082D01*
X153195191Y-81710273D01*
X152688876Y-81500550D01*
X152140844Y-81500550D01*
X151992288Y-81562084D01*
X152311364Y-81243008D01*
X152521000Y-80736902D01*
X152521000Y-80189098D01*
X152311364Y-79682992D01*
X151924008Y-79295636D01*
X151417902Y-79086000D01*
X150870098Y-79086000D01*
X150363992Y-79295636D01*
X150137992Y-79521636D01*
X150042320Y-79290663D01*
X149782657Y-79031000D01*
X153434534Y-79031000D01*
X153365000Y-79263000D01*
X153365000Y-80463000D01*
X154573000Y-80463000D01*
X154573000Y-80443000D01*
X154827000Y-80443000D01*
X154827000Y-80463000D01*
X156035000Y-80463000D01*
X156035000Y-79263000D01*
X155965466Y-79031000D01*
X157275000Y-79031000D01*
X157275000Y-91131000D01*
X154192000Y-91131000D01*
X154143399Y-91140667D01*
X154102197Y-91168197D01*
X154074667Y-91209399D01*
X154065000Y-91258000D01*
X154065000Y-94433000D01*
X148626132Y-94433000D01*
X148875103Y-94329873D01*
X149135873Y-94069103D01*
X149277000Y-93728392D01*
X149277000Y-93359608D01*
X149135873Y-93018897D01*
X148875103Y-92758127D01*
X148534392Y-92617000D01*
X148165608Y-92617000D01*
X147824897Y-92758127D01*
X147791024Y-92792000D01*
X144418025Y-92792000D01*
X144451000Y-92712392D01*
X144451000Y-92643191D01*
X144532367Y-92521417D01*
X144575999Y-92302064D01*
X144575999Y-92302060D01*
X144590730Y-92228001D01*
X144575999Y-92153942D01*
X144575999Y-92031489D01*
X145105488Y-91502000D01*
X147193690Y-91502000D01*
X147310127Y-91783103D01*
X147570897Y-92043873D01*
X147911608Y-92185000D01*
X148280392Y-92185000D01*
X148621103Y-92043873D01*
X148881873Y-91783103D01*
X149023000Y-91442392D01*
X149023000Y-91073608D01*
X148881873Y-90732897D01*
X148621103Y-90472127D01*
X148280392Y-90331000D01*
X148232488Y-90331000D01*
X148172116Y-90270628D01*
X148130161Y-90207839D01*
X147881416Y-90041632D01*
X147662063Y-89998000D01*
X147662059Y-89998000D01*
X147588000Y-89983269D01*
X147513941Y-89998000D01*
X144868059Y-89998000D01*
X144794000Y-89983269D01*
X144719941Y-89998000D01*
X144719937Y-89998000D01*
X144500584Y-90041632D01*
X144314626Y-90165885D01*
X144314623Y-90165888D01*
X144251839Y-90207839D01*
X144209887Y-90270624D01*
X143344626Y-91135887D01*
X143281839Y-91177840D01*
X143115631Y-91426585D01*
X143071999Y-91645938D01*
X143071999Y-91645942D01*
X143057713Y-91717765D01*
X142998897Y-91742127D01*
X142738127Y-92002897D01*
X142597000Y-92343608D01*
X142597000Y-92712392D01*
X142738127Y-93053103D01*
X142907713Y-93222689D01*
X142851000Y-93359608D01*
X142851000Y-93728392D01*
X142992127Y-94069103D01*
X143252897Y-94329873D01*
X143593608Y-94471000D01*
X143962392Y-94471000D01*
X144303103Y-94329873D01*
X144336976Y-94296000D01*
X147791024Y-94296000D01*
X147824897Y-94329873D01*
X148081048Y-94435974D01*
X148047399Y-94442667D01*
X148006197Y-94470197D01*
X147978667Y-94511399D01*
X147969000Y-94560000D01*
X147969000Y-96973000D01*
X140949000Y-96973000D01*
X140949000Y-83850050D01*
X144510535Y-83850050D01*
X144578595Y-84091051D01*
X145097894Y-84275887D01*
X145648398Y-84247925D01*
X146027125Y-84091051D01*
X146095185Y-83850050D01*
X145302860Y-83057725D01*
X144510535Y-83850050D01*
X140949000Y-83850050D01*
X140949000Y-80717000D01*
X141681000Y-80717000D01*
X141681000Y-81917000D01*
X141831222Y-82418215D01*
X142161815Y-82823790D01*
X142622450Y-83071980D01*
X142682671Y-83082716D01*
X142889000Y-82959374D01*
X142889000Y-80717000D01*
X141681000Y-80717000D01*
X140949000Y-80717000D01*
X140949000Y-79031000D01*
X141750534Y-79031000D01*
X141681000Y-79263000D01*
M02*
