G04 #@! TF.GenerationSoftware,KiCad,Pcbnew,(2018-02-16 revision c95340fba)-makepkg*
G04 #@! TF.CreationDate,2018-04-19T06:34:26+02:00*
G04 #@! TF.ProjectId,LIN_USB_CONVERTER,4C494E5F5553425F434F4E5645525445,rev?*
G04 #@! TF.SameCoordinates,Original*
G04 #@! TF.FileFunction,Other,User*
%FSLAX46Y46*%
G04 Gerber Fmt 4.6, Leading zero omitted, Abs format (unit mm)*
G04 Created by KiCad (PCBNEW (2018-02-16 revision c95340fba)-makepkg) date 04/19/18 06:34:26*
%MOMM*%
%LPD*%
G01*
G04 APERTURE LIST*
%ADD10C,0.050000*%
G04 APERTURE END LIST*
D10*
X155701000Y-99960500D02*
X155701000Y-97160500D01*
X155701000Y-99960500D02*
X157001000Y-99960500D01*
X157001000Y-97160500D02*
X155701000Y-97160500D01*
X157001000Y-97160500D02*
X157001000Y-99960500D01*
X155481000Y-97370000D02*
X155481000Y-99370000D01*
X155481000Y-97370000D02*
X154681000Y-97370000D01*
X154681000Y-99370000D02*
X155481000Y-99370000D01*
X154681000Y-99370000D02*
X154681000Y-97370000D01*
X150982000Y-90464000D02*
X145982000Y-90464000D01*
X150982000Y-85464000D02*
X150982000Y-90464000D01*
X145982000Y-85464000D02*
X150982000Y-85464000D01*
X145982000Y-90464000D02*
X145982000Y-85464000D01*
X153268000Y-84774000D02*
X153268000Y-87074000D01*
X152068000Y-84774000D02*
X152068000Y-87074000D01*
X153268000Y-84774000D02*
X152068000Y-84774000D01*
X153268000Y-87074000D02*
X152068000Y-87074000D01*
X150008000Y-93128000D02*
X147708000Y-93128000D01*
X150008000Y-91928000D02*
X147708000Y-91928000D01*
X150008000Y-93128000D02*
X150008000Y-91928000D01*
X147708000Y-93128000D02*
X147708000Y-91928000D01*
X150408000Y-80082000D02*
G75*
G03X150408000Y-80082000I-1550000J0D01*
G01*
X156104000Y-86016000D02*
X153804000Y-86016000D01*
X156104000Y-84816000D02*
X153804000Y-84816000D01*
X156104000Y-86016000D02*
X156104000Y-84816000D01*
X153804000Y-86016000D02*
X153804000Y-84816000D01*
X153572000Y-107130000D02*
X153572000Y-109930000D01*
X153572000Y-107130000D02*
X152272000Y-107130000D01*
X152272000Y-109930000D02*
X153572000Y-109930000D01*
X152272000Y-109930000D02*
X152272000Y-107130000D01*
X147192000Y-110184000D02*
X147192000Y-107384000D01*
X147192000Y-110184000D02*
X148492000Y-110184000D01*
X148492000Y-107384000D02*
X147192000Y-107384000D01*
X148492000Y-107384000D02*
X148492000Y-110184000D01*
X153160000Y-93436000D02*
X151160000Y-93436000D01*
X153160000Y-93436000D02*
X153160000Y-92636000D01*
X151160000Y-92636000D02*
X151160000Y-93436000D01*
X151160000Y-92636000D02*
X153160000Y-92636000D01*
X154176000Y-91912000D02*
X152176000Y-91912000D01*
X154176000Y-91912000D02*
X154176000Y-91112000D01*
X152176000Y-91112000D02*
X152176000Y-91912000D01*
X152176000Y-91112000D02*
X154176000Y-91112000D01*
X157070000Y-93110000D02*
X157070000Y-96060000D01*
X157070000Y-96060000D02*
X154870000Y-96060000D01*
X154870000Y-96060000D02*
X154870000Y-93110000D01*
X154870000Y-93110000D02*
X157070000Y-93110000D01*
X156924000Y-103978000D02*
X156924000Y-106478000D01*
X156924000Y-103978000D02*
X155524000Y-103978000D01*
X155524000Y-106478000D02*
X156924000Y-106478000D01*
X155524000Y-106478000D02*
X155524000Y-103978000D01*
X146256000Y-103724000D02*
X146256000Y-106224000D01*
X146256000Y-103724000D02*
X144856000Y-103724000D01*
X144856000Y-106224000D02*
X146256000Y-106224000D01*
X144856000Y-106224000D02*
X144856000Y-103724000D01*
X146806000Y-93482000D02*
X144306000Y-93482000D01*
X146806000Y-93482000D02*
X146806000Y-92082000D01*
X144306000Y-92082000D02*
X144306000Y-93482000D01*
X144306000Y-92082000D02*
X146806000Y-92082000D01*
X140496000Y-94876000D02*
X142996000Y-94876000D01*
X140496000Y-94876000D02*
X140496000Y-96276000D01*
X142996000Y-96276000D02*
X142996000Y-94876000D01*
X142996000Y-96276000D02*
X140496000Y-96276000D01*
X153762000Y-86968000D02*
X157162000Y-86968000D01*
X157162000Y-86968000D02*
X157162000Y-90468000D01*
X157162000Y-90468000D02*
X153762000Y-90468000D01*
X153762000Y-90468000D02*
X153762000Y-86968000D01*
X144192000Y-106912000D02*
X140792000Y-106912000D01*
X140792000Y-106912000D02*
X140792000Y-103412000D01*
X140792000Y-103412000D02*
X144192000Y-103412000D01*
X144192000Y-103412000D02*
X144192000Y-106912000D01*
X145364000Y-99620000D02*
X145364000Y-97120000D01*
X145364000Y-99620000D02*
X146764000Y-99620000D01*
X146764000Y-97120000D02*
X145364000Y-97120000D01*
X146764000Y-97120000D02*
X146764000Y-99620000D01*
X143332000Y-99620000D02*
X143332000Y-97120000D01*
X143332000Y-99620000D02*
X144732000Y-99620000D01*
X144732000Y-97120000D02*
X143332000Y-97120000D01*
X144732000Y-97120000D02*
X144732000Y-99620000D01*
X141554000Y-99620000D02*
X141554000Y-97120000D01*
X141554000Y-99620000D02*
X142954000Y-99620000D01*
X142954000Y-97120000D02*
X141554000Y-97120000D01*
X142954000Y-97120000D02*
X142954000Y-99620000D01*
X146888000Y-99608000D02*
X146888000Y-97108000D01*
X146888000Y-99608000D02*
X148288000Y-99608000D01*
X148288000Y-97108000D02*
X146888000Y-97108000D01*
X148288000Y-97108000D02*
X148288000Y-99608000D01*
X154892000Y-106912000D02*
X151492000Y-106912000D01*
X151492000Y-106912000D02*
X151492000Y-103412000D01*
X151492000Y-103412000D02*
X154892000Y-103412000D01*
X154892000Y-103412000D02*
X154892000Y-106912000D01*
X150828000Y-107044000D02*
X147428000Y-107044000D01*
X147428000Y-107044000D02*
X147428000Y-103544000D01*
X147428000Y-103544000D02*
X150828000Y-103544000D01*
X150828000Y-103544000D02*
X150828000Y-107044000D01*
M02*
