G04 #@! TF.GenerationSoftware,KiCad,Pcbnew,(2018-02-16 revision c95340fba)-makepkg*
G04 #@! TF.CreationDate,2018-05-22T14:01:30+02:00*
G04 #@! TF.ProjectId,LIN_USB_CONVERTER,4C494E5F5553425F434F4E5645525445,rev?*
G04 #@! TF.SameCoordinates,PX85b9e30PY4aad300*
G04 #@! TF.FileFunction,Copper,L2,Bot,Signal*
G04 #@! TF.FilePolarity,Positive*
%FSLAX46Y46*%
G04 Gerber Fmt 4.6, Leading zero omitted, Abs format (unit mm)*
G04 Created by KiCad (PCBNEW (2018-02-16 revision c95340fba)-makepkg) date 05/22/18 14:01:30*
%MOMM*%
%LPD*%
G01*
G04 APERTURE LIST*
%ADD10R,1.700000X1.700000*%
%ADD11O,1.700000X1.700000*%
%ADD12C,1.000000*%
%ADD13C,2.500000*%
%ADD14R,1.980000X3.960000*%
%ADD15O,1.980000X3.960000*%
%ADD16C,1.501140*%
%ADD17O,1.400000X3.800000*%
%ADD18C,0.600000*%
%ADD19C,0.250000*%
%ADD20C,0.254000*%
G04 APERTURE END LIST*
D10*
X15748000Y-14986000D03*
D11*
X15748000Y-17526000D03*
D12*
X8636000Y-1778000D03*
D13*
X1778000Y-31496000D03*
D10*
X10668000Y-23114000D03*
D11*
X13208000Y-23114000D03*
X15748000Y-23114000D03*
D14*
X15160000Y-31242000D03*
D15*
X10160000Y-31242000D03*
X5160000Y-31242000D03*
D16*
X12192860Y-4574120D03*
X9652860Y-4574120D03*
X7620860Y-4574120D03*
X5080860Y-4574120D03*
D17*
X14478000Y-2286000D03*
X2794000Y-2286000D03*
D18*
X11938000Y-10414000D03*
X3810000Y-10160000D03*
X7112000Y-14224000D03*
X10922000Y-13766000D03*
X3556000Y-15240000D03*
X8128000Y-15240000D03*
X7874000Y-12954000D03*
X3302000Y-14224000D03*
X11938000Y-17780000D03*
X1524000Y-28702000D03*
X1524000Y-24638000D03*
X2032000Y-22606000D03*
X11684000Y-19558000D03*
D19*
X4330291Y-9639709D02*
X3810000Y-10160000D01*
X5080860Y-4574120D02*
X4330291Y-5324689D01*
X4330291Y-5324689D02*
X4330291Y-9639709D01*
X7270001Y-14065999D02*
X7112000Y-14224000D01*
X10922000Y-13766000D02*
X10622001Y-14065999D01*
X10622001Y-14065999D02*
X7270001Y-14065999D01*
X8128000Y-15240000D02*
X3556000Y-15240000D01*
X7366000Y-12446000D02*
X7874000Y-12954000D01*
X4572000Y-12446000D02*
X7366000Y-12446000D01*
X3601999Y-13416001D02*
X4572000Y-12446000D01*
X3302000Y-14224000D02*
X3601999Y-13924001D01*
X3601999Y-13924001D02*
X3601999Y-13416001D01*
X13208000Y-23114000D02*
X12358001Y-23963999D01*
X12358001Y-23963999D02*
X12358001Y-26813999D01*
X12358001Y-26813999D02*
X10160000Y-29012000D01*
X10160000Y-29012000D02*
X10160000Y-31242000D01*
X1524000Y-24638000D02*
X1524000Y-28702000D01*
X9144000Y-21272500D02*
X5778500Y-24638000D01*
X5778500Y-24638000D02*
X1524000Y-24638000D01*
X11366500Y-21272500D02*
X9144000Y-21272500D01*
X13208000Y-23114000D02*
X11366500Y-21272500D01*
X11938000Y-18478500D02*
X13208000Y-19748500D01*
X13208000Y-19748500D02*
X13208000Y-23114000D01*
X11938000Y-17780000D02*
X11938000Y-18478500D01*
X10668000Y-23114000D02*
X10668000Y-26974000D01*
X10668000Y-26974000D02*
X6400000Y-31242000D01*
X6400000Y-31242000D02*
X5160000Y-31242000D01*
X2839999Y-21798001D02*
X2032000Y-22606000D01*
X6141999Y-21798001D02*
X2839999Y-21798001D01*
X8382000Y-19558000D02*
X11684000Y-19558000D01*
X6141999Y-21798001D02*
X8382000Y-19558000D01*
D20*
G36*
X14356697Y-18102297D02*
X14683142Y-18590858D01*
X15171703Y-18917303D01*
X15602529Y-19003000D01*
X15893471Y-19003000D01*
X16324297Y-18917303D01*
X16812858Y-18590858D01*
X17053001Y-18231458D01*
X17053001Y-22408542D01*
X16812858Y-22049142D01*
X16324297Y-21722697D01*
X15893471Y-21637000D01*
X15602529Y-21637000D01*
X15171703Y-21722697D01*
X14683142Y-22049142D01*
X14468128Y-22370934D01*
X14403183Y-22232642D01*
X13974924Y-21842355D01*
X13564890Y-21672524D01*
X13335000Y-21793845D01*
X13335000Y-22987000D01*
X13355000Y-22987000D01*
X13355000Y-23241000D01*
X13335000Y-23241000D01*
X13335000Y-24434155D01*
X13564890Y-24555476D01*
X13974924Y-24385645D01*
X14403183Y-23995358D01*
X14468128Y-23857066D01*
X14683142Y-24178858D01*
X15171703Y-24505303D01*
X15602529Y-24591000D01*
X15893471Y-24591000D01*
X16324297Y-24505303D01*
X16812858Y-24178858D01*
X17053001Y-23819458D01*
X17053001Y-33309000D01*
X16771977Y-33309000D01*
X16789283Y-33222000D01*
X16789283Y-29262000D01*
X16740620Y-29017357D01*
X16602041Y-28809959D01*
X16394643Y-28671380D01*
X16150000Y-28622717D01*
X14170000Y-28622717D01*
X13925357Y-28671380D01*
X13717959Y-28809959D01*
X13579380Y-29017357D01*
X13530717Y-29262000D01*
X13530717Y-33222000D01*
X13548023Y-33309000D01*
X11346696Y-33309000D01*
X11612703Y-32971193D01*
X11785000Y-32359000D01*
X11785000Y-31369000D01*
X10287000Y-31369000D01*
X10287000Y-31389000D01*
X10033000Y-31389000D01*
X10033000Y-31369000D01*
X8535000Y-31369000D01*
X8535000Y-32359000D01*
X8707297Y-32971193D01*
X8973304Y-33309000D01*
X6385119Y-33309000D01*
X6683180Y-32862922D01*
X6777000Y-32391256D01*
X6777000Y-31894519D01*
X6942161Y-31784161D01*
X6984116Y-31721371D01*
X8535000Y-30170488D01*
X8535000Y-31115000D01*
X10033000Y-31115000D01*
X10033000Y-28791260D01*
X10287000Y-28791260D01*
X10287000Y-31115000D01*
X11785000Y-31115000D01*
X11785000Y-30125000D01*
X11612703Y-29512807D01*
X11219246Y-29013149D01*
X10664528Y-28702095D01*
X10538865Y-28671782D01*
X10287000Y-28791260D01*
X10033000Y-28791260D01*
X9952443Y-28753046D01*
X11147376Y-27558113D01*
X11210161Y-27516161D01*
X11252112Y-27453377D01*
X11252114Y-27453375D01*
X11293954Y-27390757D01*
X11376368Y-27267416D01*
X11420000Y-27048063D01*
X11420000Y-27048059D01*
X11434731Y-26974001D01*
X11420000Y-26899943D01*
X11420000Y-24603283D01*
X11518000Y-24603283D01*
X11762643Y-24554620D01*
X11970041Y-24416041D01*
X12108620Y-24208643D01*
X12129833Y-24101999D01*
X12441076Y-24385645D01*
X12851110Y-24555476D01*
X13081000Y-24434155D01*
X13081000Y-23241000D01*
X13061000Y-23241000D01*
X13061000Y-22987000D01*
X13081000Y-22987000D01*
X13081000Y-21793845D01*
X12851110Y-21672524D01*
X12441076Y-21842355D01*
X12129833Y-22126001D01*
X12108620Y-22019357D01*
X11970041Y-21811959D01*
X11762643Y-21673380D01*
X11518000Y-21624717D01*
X9818000Y-21624717D01*
X9573357Y-21673380D01*
X9365959Y-21811959D01*
X9227380Y-22019357D01*
X9178717Y-22264000D01*
X9178717Y-23964000D01*
X9227380Y-24208643D01*
X9365959Y-24416041D01*
X9573357Y-24554620D01*
X9818000Y-24603283D01*
X9916000Y-24603283D01*
X9916001Y-26662510D01*
X6728682Y-29849831D01*
X6683180Y-29621078D01*
X6325791Y-29086209D01*
X5790922Y-28728820D01*
X5160000Y-28603322D01*
X4529079Y-28728820D01*
X3994210Y-29086209D01*
X3636821Y-29621078D01*
X3543001Y-30092744D01*
X3543001Y-30806814D01*
X3404123Y-30471533D01*
X3111320Y-30342285D01*
X1957605Y-31496000D01*
X3111320Y-32649715D01*
X3404123Y-32520467D01*
X3543000Y-32157945D01*
X3543000Y-32391255D01*
X3636820Y-32862921D01*
X3934881Y-33309000D01*
X2351306Y-33309000D01*
X2802467Y-33122123D01*
X2931715Y-32829320D01*
X1778000Y-31675605D01*
X1763858Y-31689748D01*
X1584253Y-31510143D01*
X1598395Y-31496000D01*
X1584253Y-31481858D01*
X1763858Y-31302253D01*
X1778000Y-31316395D01*
X2931715Y-30162680D01*
X2802467Y-29869877D01*
X2102194Y-29601612D01*
X1352565Y-29621750D01*
X753533Y-29869877D01*
X727000Y-29929986D01*
X727000Y-20447000D01*
X6429513Y-20447000D01*
X5830512Y-21046001D01*
X2914057Y-21046001D01*
X2839998Y-21031270D01*
X2765939Y-21046001D01*
X2765936Y-21046001D01*
X2546583Y-21089633D01*
X2297838Y-21255840D01*
X2255884Y-21318628D01*
X1895513Y-21679000D01*
X1847608Y-21679000D01*
X1506897Y-21820127D01*
X1246127Y-22080897D01*
X1105000Y-22421608D01*
X1105000Y-22790392D01*
X1246127Y-23131103D01*
X1506897Y-23391873D01*
X1847608Y-23533000D01*
X2216392Y-23533000D01*
X2557103Y-23391873D01*
X2817873Y-23131103D01*
X2959000Y-22790392D01*
X2959000Y-22742487D01*
X3151487Y-22550001D01*
X6067940Y-22550001D01*
X6141999Y-22564732D01*
X6216058Y-22550001D01*
X6216062Y-22550001D01*
X6435415Y-22506369D01*
X6684160Y-22340162D01*
X6726115Y-22277372D01*
X8556488Y-20447000D01*
X9906000Y-20447000D01*
X9954601Y-20437333D01*
X9995803Y-20409803D01*
X10023333Y-20368601D01*
X10033000Y-20320000D01*
X10033000Y-20310000D01*
X11125024Y-20310000D01*
X11158897Y-20343873D01*
X11499608Y-20485000D01*
X11868392Y-20485000D01*
X12209103Y-20343873D01*
X12469873Y-20083103D01*
X12611000Y-19742392D01*
X12611000Y-19373608D01*
X12469873Y-19032897D01*
X12209103Y-18772127D01*
X11868392Y-18631000D01*
X11499608Y-18631000D01*
X11158897Y-18772127D01*
X11125024Y-18806000D01*
X10033000Y-18806000D01*
X10033000Y-17653000D01*
X14267326Y-17653000D01*
X14356697Y-18102297D01*
X14356697Y-18102297D01*
G37*
X14356697Y-18102297D02*
X14683142Y-18590858D01*
X15171703Y-18917303D01*
X15602529Y-19003000D01*
X15893471Y-19003000D01*
X16324297Y-18917303D01*
X16812858Y-18590858D01*
X17053001Y-18231458D01*
X17053001Y-22408542D01*
X16812858Y-22049142D01*
X16324297Y-21722697D01*
X15893471Y-21637000D01*
X15602529Y-21637000D01*
X15171703Y-21722697D01*
X14683142Y-22049142D01*
X14468128Y-22370934D01*
X14403183Y-22232642D01*
X13974924Y-21842355D01*
X13564890Y-21672524D01*
X13335000Y-21793845D01*
X13335000Y-22987000D01*
X13355000Y-22987000D01*
X13355000Y-23241000D01*
X13335000Y-23241000D01*
X13335000Y-24434155D01*
X13564890Y-24555476D01*
X13974924Y-24385645D01*
X14403183Y-23995358D01*
X14468128Y-23857066D01*
X14683142Y-24178858D01*
X15171703Y-24505303D01*
X15602529Y-24591000D01*
X15893471Y-24591000D01*
X16324297Y-24505303D01*
X16812858Y-24178858D01*
X17053001Y-23819458D01*
X17053001Y-33309000D01*
X16771977Y-33309000D01*
X16789283Y-33222000D01*
X16789283Y-29262000D01*
X16740620Y-29017357D01*
X16602041Y-28809959D01*
X16394643Y-28671380D01*
X16150000Y-28622717D01*
X14170000Y-28622717D01*
X13925357Y-28671380D01*
X13717959Y-28809959D01*
X13579380Y-29017357D01*
X13530717Y-29262000D01*
X13530717Y-33222000D01*
X13548023Y-33309000D01*
X11346696Y-33309000D01*
X11612703Y-32971193D01*
X11785000Y-32359000D01*
X11785000Y-31369000D01*
X10287000Y-31369000D01*
X10287000Y-31389000D01*
X10033000Y-31389000D01*
X10033000Y-31369000D01*
X8535000Y-31369000D01*
X8535000Y-32359000D01*
X8707297Y-32971193D01*
X8973304Y-33309000D01*
X6385119Y-33309000D01*
X6683180Y-32862922D01*
X6777000Y-32391256D01*
X6777000Y-31894519D01*
X6942161Y-31784161D01*
X6984116Y-31721371D01*
X8535000Y-30170488D01*
X8535000Y-31115000D01*
X10033000Y-31115000D01*
X10033000Y-28791260D01*
X10287000Y-28791260D01*
X10287000Y-31115000D01*
X11785000Y-31115000D01*
X11785000Y-30125000D01*
X11612703Y-29512807D01*
X11219246Y-29013149D01*
X10664528Y-28702095D01*
X10538865Y-28671782D01*
X10287000Y-28791260D01*
X10033000Y-28791260D01*
X9952443Y-28753046D01*
X11147376Y-27558113D01*
X11210161Y-27516161D01*
X11252112Y-27453377D01*
X11252114Y-27453375D01*
X11293954Y-27390757D01*
X11376368Y-27267416D01*
X11420000Y-27048063D01*
X11420000Y-27048059D01*
X11434731Y-26974001D01*
X11420000Y-26899943D01*
X11420000Y-24603283D01*
X11518000Y-24603283D01*
X11762643Y-24554620D01*
X11970041Y-24416041D01*
X12108620Y-24208643D01*
X12129833Y-24101999D01*
X12441076Y-24385645D01*
X12851110Y-24555476D01*
X13081000Y-24434155D01*
X13081000Y-23241000D01*
X13061000Y-23241000D01*
X13061000Y-22987000D01*
X13081000Y-22987000D01*
X13081000Y-21793845D01*
X12851110Y-21672524D01*
X12441076Y-21842355D01*
X12129833Y-22126001D01*
X12108620Y-22019357D01*
X11970041Y-21811959D01*
X11762643Y-21673380D01*
X11518000Y-21624717D01*
X9818000Y-21624717D01*
X9573357Y-21673380D01*
X9365959Y-21811959D01*
X9227380Y-22019357D01*
X9178717Y-22264000D01*
X9178717Y-23964000D01*
X9227380Y-24208643D01*
X9365959Y-24416041D01*
X9573357Y-24554620D01*
X9818000Y-24603283D01*
X9916000Y-24603283D01*
X9916001Y-26662510D01*
X6728682Y-29849831D01*
X6683180Y-29621078D01*
X6325791Y-29086209D01*
X5790922Y-28728820D01*
X5160000Y-28603322D01*
X4529079Y-28728820D01*
X3994210Y-29086209D01*
X3636821Y-29621078D01*
X3543001Y-30092744D01*
X3543001Y-30806814D01*
X3404123Y-30471533D01*
X3111320Y-30342285D01*
X1957605Y-31496000D01*
X3111320Y-32649715D01*
X3404123Y-32520467D01*
X3543000Y-32157945D01*
X3543000Y-32391255D01*
X3636820Y-32862921D01*
X3934881Y-33309000D01*
X2351306Y-33309000D01*
X2802467Y-33122123D01*
X2931715Y-32829320D01*
X1778000Y-31675605D01*
X1763858Y-31689748D01*
X1584253Y-31510143D01*
X1598395Y-31496000D01*
X1584253Y-31481858D01*
X1763858Y-31302253D01*
X1778000Y-31316395D01*
X2931715Y-30162680D01*
X2802467Y-29869877D01*
X2102194Y-29601612D01*
X1352565Y-29621750D01*
X753533Y-29869877D01*
X727000Y-29929986D01*
X727000Y-20447000D01*
X6429513Y-20447000D01*
X5830512Y-21046001D01*
X2914057Y-21046001D01*
X2839998Y-21031270D01*
X2765939Y-21046001D01*
X2765936Y-21046001D01*
X2546583Y-21089633D01*
X2297838Y-21255840D01*
X2255884Y-21318628D01*
X1895513Y-21679000D01*
X1847608Y-21679000D01*
X1506897Y-21820127D01*
X1246127Y-22080897D01*
X1105000Y-22421608D01*
X1105000Y-22790392D01*
X1246127Y-23131103D01*
X1506897Y-23391873D01*
X1847608Y-23533000D01*
X2216392Y-23533000D01*
X2557103Y-23391873D01*
X2817873Y-23131103D01*
X2959000Y-22790392D01*
X2959000Y-22742487D01*
X3151487Y-22550001D01*
X6067940Y-22550001D01*
X6141999Y-22564732D01*
X6216058Y-22550001D01*
X6216062Y-22550001D01*
X6435415Y-22506369D01*
X6684160Y-22340162D01*
X6726115Y-22277372D01*
X8556488Y-20447000D01*
X9906000Y-20447000D01*
X9954601Y-20437333D01*
X9995803Y-20409803D01*
X10023333Y-20368601D01*
X10033000Y-20320000D01*
X10033000Y-20310000D01*
X11125024Y-20310000D01*
X11158897Y-20343873D01*
X11499608Y-20485000D01*
X11868392Y-20485000D01*
X12209103Y-20343873D01*
X12469873Y-20083103D01*
X12611000Y-19742392D01*
X12611000Y-19373608D01*
X12469873Y-19032897D01*
X12209103Y-18772127D01*
X11868392Y-18631000D01*
X11499608Y-18631000D01*
X11158897Y-18772127D01*
X11125024Y-18806000D01*
X10033000Y-18806000D01*
X10033000Y-17653000D01*
X14267326Y-17653000D01*
X14356697Y-18102297D01*
G36*
X1459000Y-959000D02*
X1459000Y-2159000D01*
X2667000Y-2159000D01*
X2667000Y-2139000D01*
X2921000Y-2139000D01*
X2921000Y-2159000D01*
X4129000Y-2159000D01*
X4129000Y-959000D01*
X4059466Y-727000D01*
X7711343Y-727000D01*
X7451680Y-986663D01*
X7356008Y-1217636D01*
X7130008Y-991636D01*
X6623902Y-782000D01*
X6076098Y-782000D01*
X5569992Y-991636D01*
X5182636Y-1378992D01*
X4973000Y-1885098D01*
X4973000Y-2432902D01*
X5182636Y-2939008D01*
X5494120Y-3250492D01*
X5285826Y-3176353D01*
X4735322Y-3204315D01*
X4356595Y-3361189D01*
X4288536Y-3602188D01*
X4173483Y-3487135D01*
X4129000Y-3531618D01*
X4129000Y-2413000D01*
X2921000Y-2413000D01*
X2921000Y-4655374D01*
X3127329Y-4778716D01*
X3187550Y-4767980D01*
X3648185Y-4519790D01*
X3688248Y-4470640D01*
X3711055Y-4919658D01*
X3867929Y-5298385D01*
X4108930Y-5366445D01*
X4901255Y-4574120D01*
X4887113Y-4559978D01*
X5066718Y-4380373D01*
X5080860Y-4394515D01*
X5873185Y-3602190D01*
X5825136Y-3432048D01*
X6076098Y-3536000D01*
X6623902Y-3536000D01*
X6772250Y-3474552D01*
X6453013Y-3793789D01*
X6361790Y-4014020D01*
X6293791Y-3849855D01*
X6052790Y-3781795D01*
X5260465Y-4574120D01*
X6052790Y-5366445D01*
X6293791Y-5298385D01*
X6356644Y-5121797D01*
X6453013Y-5354451D01*
X6840529Y-5741967D01*
X7346844Y-5951690D01*
X7894876Y-5951690D01*
X8401191Y-5741967D01*
X8636860Y-5506298D01*
X8872529Y-5741967D01*
X9378844Y-5951690D01*
X9926876Y-5951690D01*
X10433191Y-5741967D01*
X10820707Y-5354451D01*
X10922860Y-5107832D01*
X11025013Y-5354451D01*
X11412529Y-5741967D01*
X11918844Y-5951690D01*
X12466876Y-5951690D01*
X12973191Y-5741967D01*
X13360707Y-5354451D01*
X13570430Y-4848136D01*
X13570430Y-4454297D01*
X13623815Y-4519790D01*
X14084450Y-4767980D01*
X14144671Y-4778716D01*
X14351000Y-4655374D01*
X14351000Y-2413000D01*
X14605000Y-2413000D01*
X14605000Y-4655374D01*
X14811329Y-4778716D01*
X14871550Y-4767980D01*
X15332185Y-4519790D01*
X15662778Y-4114215D01*
X15813000Y-3613000D01*
X15813000Y-2413000D01*
X14605000Y-2413000D01*
X14351000Y-2413000D01*
X13143000Y-2413000D01*
X13143000Y-3576082D01*
X12973191Y-3406273D01*
X12466876Y-3196550D01*
X11918844Y-3196550D01*
X11770288Y-3258084D01*
X12089364Y-2939008D01*
X12299000Y-2432902D01*
X12299000Y-1885098D01*
X12089364Y-1378992D01*
X11702008Y-991636D01*
X11195902Y-782000D01*
X10648098Y-782000D01*
X10141992Y-991636D01*
X9915992Y-1217636D01*
X9820320Y-986663D01*
X9560657Y-727000D01*
X13212534Y-727000D01*
X13143000Y-959000D01*
X13143000Y-2159000D01*
X14351000Y-2159000D01*
X14351000Y-2139000D01*
X14605000Y-2139000D01*
X14605000Y-2159000D01*
X15813000Y-2159000D01*
X15813000Y-959000D01*
X15743466Y-727000D01*
X17053000Y-727000D01*
X17053000Y-12827000D01*
X13970000Y-12827000D01*
X13921399Y-12836667D01*
X13880197Y-12864197D01*
X13852667Y-12905399D01*
X13843000Y-12954000D01*
X13843000Y-16129000D01*
X8404132Y-16129000D01*
X8653103Y-16025873D01*
X8913873Y-15765103D01*
X9055000Y-15424392D01*
X9055000Y-15055608D01*
X8913873Y-14714897D01*
X8653103Y-14454127D01*
X8312392Y-14313000D01*
X7943608Y-14313000D01*
X7602897Y-14454127D01*
X7569024Y-14488000D01*
X4196025Y-14488000D01*
X4229000Y-14408392D01*
X4229000Y-14339191D01*
X4310367Y-14217417D01*
X4353999Y-13998064D01*
X4353999Y-13998060D01*
X4368730Y-13924001D01*
X4353999Y-13849942D01*
X4353999Y-13727489D01*
X4883488Y-13198000D01*
X6971690Y-13198000D01*
X7088127Y-13479103D01*
X7348897Y-13739873D01*
X7689608Y-13881000D01*
X8058392Y-13881000D01*
X8399103Y-13739873D01*
X8659873Y-13479103D01*
X8801000Y-13138392D01*
X8801000Y-12769608D01*
X8659873Y-12428897D01*
X8399103Y-12168127D01*
X8058392Y-12027000D01*
X8010488Y-12027000D01*
X7950116Y-11966628D01*
X7908161Y-11903839D01*
X7659416Y-11737632D01*
X7440063Y-11694000D01*
X7440059Y-11694000D01*
X7366000Y-11679269D01*
X7291941Y-11694000D01*
X4646059Y-11694000D01*
X4572000Y-11679269D01*
X4497941Y-11694000D01*
X4497937Y-11694000D01*
X4278584Y-11737632D01*
X4092626Y-11861885D01*
X4092623Y-11861888D01*
X4029839Y-11903839D01*
X3987887Y-11966624D01*
X3122626Y-12831887D01*
X3059839Y-12873840D01*
X2893631Y-13122585D01*
X2849999Y-13341938D01*
X2849999Y-13341942D01*
X2835713Y-13413765D01*
X2776897Y-13438127D01*
X2516127Y-13698897D01*
X2375000Y-14039608D01*
X2375000Y-14408392D01*
X2516127Y-14749103D01*
X2685713Y-14918689D01*
X2629000Y-15055608D01*
X2629000Y-15424392D01*
X2770127Y-15765103D01*
X3030897Y-16025873D01*
X3371608Y-16167000D01*
X3740392Y-16167000D01*
X4081103Y-16025873D01*
X4114976Y-15992000D01*
X7569024Y-15992000D01*
X7602897Y-16025873D01*
X7859048Y-16131974D01*
X7825399Y-16138667D01*
X7784197Y-16166197D01*
X7756667Y-16207399D01*
X7747000Y-16256000D01*
X7747000Y-18669000D01*
X727000Y-18669000D01*
X727000Y-5546050D01*
X4288535Y-5546050D01*
X4356595Y-5787051D01*
X4875894Y-5971887D01*
X5426398Y-5943925D01*
X5805125Y-5787051D01*
X5873185Y-5546050D01*
X5080860Y-4753725D01*
X4288535Y-5546050D01*
X727000Y-5546050D01*
X727000Y-2413000D01*
X1459000Y-2413000D01*
X1459000Y-3613000D01*
X1609222Y-4114215D01*
X1939815Y-4519790D01*
X2400450Y-4767980D01*
X2460671Y-4778716D01*
X2667000Y-4655374D01*
X2667000Y-2413000D01*
X1459000Y-2413000D01*
X727000Y-2413000D01*
X727000Y-727000D01*
X1528534Y-727000D01*
X1459000Y-959000D01*
X1459000Y-959000D01*
G37*
X1459000Y-959000D02*
X1459000Y-2159000D01*
X2667000Y-2159000D01*
X2667000Y-2139000D01*
X2921000Y-2139000D01*
X2921000Y-2159000D01*
X4129000Y-2159000D01*
X4129000Y-959000D01*
X4059466Y-727000D01*
X7711343Y-727000D01*
X7451680Y-986663D01*
X7356008Y-1217636D01*
X7130008Y-991636D01*
X6623902Y-782000D01*
X6076098Y-782000D01*
X5569992Y-991636D01*
X5182636Y-1378992D01*
X4973000Y-1885098D01*
X4973000Y-2432902D01*
X5182636Y-2939008D01*
X5494120Y-3250492D01*
X5285826Y-3176353D01*
X4735322Y-3204315D01*
X4356595Y-3361189D01*
X4288536Y-3602188D01*
X4173483Y-3487135D01*
X4129000Y-3531618D01*
X4129000Y-2413000D01*
X2921000Y-2413000D01*
X2921000Y-4655374D01*
X3127329Y-4778716D01*
X3187550Y-4767980D01*
X3648185Y-4519790D01*
X3688248Y-4470640D01*
X3711055Y-4919658D01*
X3867929Y-5298385D01*
X4108930Y-5366445D01*
X4901255Y-4574120D01*
X4887113Y-4559978D01*
X5066718Y-4380373D01*
X5080860Y-4394515D01*
X5873185Y-3602190D01*
X5825136Y-3432048D01*
X6076098Y-3536000D01*
X6623902Y-3536000D01*
X6772250Y-3474552D01*
X6453013Y-3793789D01*
X6361790Y-4014020D01*
X6293791Y-3849855D01*
X6052790Y-3781795D01*
X5260465Y-4574120D01*
X6052790Y-5366445D01*
X6293791Y-5298385D01*
X6356644Y-5121797D01*
X6453013Y-5354451D01*
X6840529Y-5741967D01*
X7346844Y-5951690D01*
X7894876Y-5951690D01*
X8401191Y-5741967D01*
X8636860Y-5506298D01*
X8872529Y-5741967D01*
X9378844Y-5951690D01*
X9926876Y-5951690D01*
X10433191Y-5741967D01*
X10820707Y-5354451D01*
X10922860Y-5107832D01*
X11025013Y-5354451D01*
X11412529Y-5741967D01*
X11918844Y-5951690D01*
X12466876Y-5951690D01*
X12973191Y-5741967D01*
X13360707Y-5354451D01*
X13570430Y-4848136D01*
X13570430Y-4454297D01*
X13623815Y-4519790D01*
X14084450Y-4767980D01*
X14144671Y-4778716D01*
X14351000Y-4655374D01*
X14351000Y-2413000D01*
X14605000Y-2413000D01*
X14605000Y-4655374D01*
X14811329Y-4778716D01*
X14871550Y-4767980D01*
X15332185Y-4519790D01*
X15662778Y-4114215D01*
X15813000Y-3613000D01*
X15813000Y-2413000D01*
X14605000Y-2413000D01*
X14351000Y-2413000D01*
X13143000Y-2413000D01*
X13143000Y-3576082D01*
X12973191Y-3406273D01*
X12466876Y-3196550D01*
X11918844Y-3196550D01*
X11770288Y-3258084D01*
X12089364Y-2939008D01*
X12299000Y-2432902D01*
X12299000Y-1885098D01*
X12089364Y-1378992D01*
X11702008Y-991636D01*
X11195902Y-782000D01*
X10648098Y-782000D01*
X10141992Y-991636D01*
X9915992Y-1217636D01*
X9820320Y-986663D01*
X9560657Y-727000D01*
X13212534Y-727000D01*
X13143000Y-959000D01*
X13143000Y-2159000D01*
X14351000Y-2159000D01*
X14351000Y-2139000D01*
X14605000Y-2139000D01*
X14605000Y-2159000D01*
X15813000Y-2159000D01*
X15813000Y-959000D01*
X15743466Y-727000D01*
X17053000Y-727000D01*
X17053000Y-12827000D01*
X13970000Y-12827000D01*
X13921399Y-12836667D01*
X13880197Y-12864197D01*
X13852667Y-12905399D01*
X13843000Y-12954000D01*
X13843000Y-16129000D01*
X8404132Y-16129000D01*
X8653103Y-16025873D01*
X8913873Y-15765103D01*
X9055000Y-15424392D01*
X9055000Y-15055608D01*
X8913873Y-14714897D01*
X8653103Y-14454127D01*
X8312392Y-14313000D01*
X7943608Y-14313000D01*
X7602897Y-14454127D01*
X7569024Y-14488000D01*
X4196025Y-14488000D01*
X4229000Y-14408392D01*
X4229000Y-14339191D01*
X4310367Y-14217417D01*
X4353999Y-13998064D01*
X4353999Y-13998060D01*
X4368730Y-13924001D01*
X4353999Y-13849942D01*
X4353999Y-13727489D01*
X4883488Y-13198000D01*
X6971690Y-13198000D01*
X7088127Y-13479103D01*
X7348897Y-13739873D01*
X7689608Y-13881000D01*
X8058392Y-13881000D01*
X8399103Y-13739873D01*
X8659873Y-13479103D01*
X8801000Y-13138392D01*
X8801000Y-12769608D01*
X8659873Y-12428897D01*
X8399103Y-12168127D01*
X8058392Y-12027000D01*
X8010488Y-12027000D01*
X7950116Y-11966628D01*
X7908161Y-11903839D01*
X7659416Y-11737632D01*
X7440063Y-11694000D01*
X7440059Y-11694000D01*
X7366000Y-11679269D01*
X7291941Y-11694000D01*
X4646059Y-11694000D01*
X4572000Y-11679269D01*
X4497941Y-11694000D01*
X4497937Y-11694000D01*
X4278584Y-11737632D01*
X4092626Y-11861885D01*
X4092623Y-11861888D01*
X4029839Y-11903839D01*
X3987887Y-11966624D01*
X3122626Y-12831887D01*
X3059839Y-12873840D01*
X2893631Y-13122585D01*
X2849999Y-13341938D01*
X2849999Y-13341942D01*
X2835713Y-13413765D01*
X2776897Y-13438127D01*
X2516127Y-13698897D01*
X2375000Y-14039608D01*
X2375000Y-14408392D01*
X2516127Y-14749103D01*
X2685713Y-14918689D01*
X2629000Y-15055608D01*
X2629000Y-15424392D01*
X2770127Y-15765103D01*
X3030897Y-16025873D01*
X3371608Y-16167000D01*
X3740392Y-16167000D01*
X4081103Y-16025873D01*
X4114976Y-15992000D01*
X7569024Y-15992000D01*
X7602897Y-16025873D01*
X7859048Y-16131974D01*
X7825399Y-16138667D01*
X7784197Y-16166197D01*
X7756667Y-16207399D01*
X7747000Y-16256000D01*
X7747000Y-18669000D01*
X727000Y-18669000D01*
X727000Y-5546050D01*
X4288535Y-5546050D01*
X4356595Y-5787051D01*
X4875894Y-5971887D01*
X5426398Y-5943925D01*
X5805125Y-5787051D01*
X5873185Y-5546050D01*
X5080860Y-4753725D01*
X4288535Y-5546050D01*
X727000Y-5546050D01*
X727000Y-2413000D01*
X1459000Y-2413000D01*
X1459000Y-3613000D01*
X1609222Y-4114215D01*
X1939815Y-4519790D01*
X2400450Y-4767980D01*
X2460671Y-4778716D01*
X2667000Y-4655374D01*
X2667000Y-2413000D01*
X1459000Y-2413000D01*
X727000Y-2413000D01*
X727000Y-727000D01*
X1528534Y-727000D01*
X1459000Y-959000D01*
M02*
