G04 #@! TF.GenerationSoftware,KiCad,Pcbnew,(2018-02-16 revision c95340fba)-makepkg*
G04 #@! TF.CreationDate,2018-05-01T15:17:05+02:00*
G04 #@! TF.ProjectId,LIN_USB_CONVERTER,4C494E5F5553425F434F4E5645525445,rev?*
G04 #@! TF.SameCoordinates,Original*
G04 #@! TF.FileFunction,Copper,L2,Bot,Signal*
G04 #@! TF.FilePolarity,Positive*
%FSLAX46Y46*%
G04 Gerber Fmt 4.6, Leading zero omitted, Abs format (unit mm)*
G04 Created by KiCad (PCBNEW (2018-02-16 revision c95340fba)-makepkg) date 05/01/18 15:17:05*
%MOMM*%
%LPD*%
G01*
G04 APERTURE LIST*
%ADD10C,1.000000*%
%ADD11C,2.250000*%
%ADD12R,1.700000X1.700000*%
%ADD13O,1.700000X1.700000*%
%ADD14R,1.980000X3.960000*%
%ADD15O,1.980000X3.960000*%
%ADD16C,1.501140*%
%ADD17O,1.400000X3.800000*%
%ADD18C,0.600000*%
%ADD19C,0.250000*%
%ADD20C,0.254000*%
G04 APERTURE END LIST*
D10*
X149608000Y-80082000D03*
D11*
X143295400Y-96973000D03*
D12*
X150128000Y-93530000D03*
D13*
X152668000Y-93530000D03*
X155208000Y-93530000D03*
D14*
X154903200Y-101519600D03*
D15*
X149903200Y-101519600D03*
X144903200Y-101519600D03*
D12*
X146241800Y-91437000D03*
D13*
X146241800Y-93977000D03*
D16*
X153164860Y-82878120D03*
X150624860Y-82878120D03*
X148592860Y-82878120D03*
X146052860Y-82878120D03*
D17*
X155450000Y-80590000D03*
X143766000Y-80590000D03*
D18*
X152972800Y-90013400D03*
X145403600Y-88083000D03*
X150456389Y-90078142D03*
X145200400Y-88921200D03*
X154954000Y-88464000D03*
X153938000Y-95703000D03*
X151118600Y-99030400D03*
X150704439Y-91375010D03*
X144133600Y-91232600D03*
D19*
X152744200Y-90013400D02*
X152972800Y-90013400D01*
X152693400Y-89962600D02*
X152744200Y-90013400D01*
X150788400Y-88057600D02*
X152693400Y-89962600D01*
X145853264Y-88057600D02*
X150788400Y-88057600D01*
X145403600Y-88083000D02*
X145827864Y-88083000D01*
X145827864Y-88083000D02*
X145853264Y-88057600D01*
X150156390Y-89778143D02*
X150456389Y-90078142D01*
X145200400Y-88921200D02*
X149299447Y-88921200D01*
X149299447Y-88921200D02*
X150156390Y-89778143D01*
X149903200Y-100529600D02*
X146930800Y-97557200D01*
X149903200Y-101519600D02*
X149903200Y-100529600D01*
X146930800Y-97557200D02*
X144759390Y-97557200D01*
X144759390Y-97557200D02*
X143168400Y-97557200D01*
X154954000Y-88464000D02*
X154954000Y-90750000D01*
X154954000Y-90750000D02*
X154954000Y-93276000D01*
X154954000Y-90750000D02*
X148028800Y-90750000D01*
X148028800Y-90750000D02*
X147341800Y-91437000D01*
X147341800Y-91437000D02*
X146241800Y-91437000D01*
X155208000Y-93530000D02*
X155208000Y-101214800D01*
X155208000Y-101214800D02*
X154903200Y-101519600D01*
X154954000Y-93276000D02*
X155208000Y-93530000D01*
X153938000Y-96635264D02*
X153938000Y-95703000D01*
X151118600Y-99030400D02*
X151542864Y-99030400D01*
X151542864Y-99030400D02*
X153938000Y-96635264D01*
X149997988Y-91375010D02*
X150280175Y-91375010D01*
X150280175Y-91375010D02*
X150704439Y-91375010D01*
X145088737Y-92612001D02*
X148760997Y-92612001D01*
X144133600Y-91656864D02*
X145088737Y-92612001D01*
X144133600Y-91232600D02*
X144133600Y-91656864D01*
X148760997Y-92612001D02*
X149997988Y-91375010D01*
D20*
G36*
X142431000Y-79263000D02*
X142431000Y-80463000D01*
X143639000Y-80463000D01*
X143639000Y-80443000D01*
X143893000Y-80443000D01*
X143893000Y-80463000D01*
X145101000Y-80463000D01*
X145101000Y-79263000D01*
X145031466Y-79031000D01*
X148683343Y-79031000D01*
X148423680Y-79290663D01*
X148328008Y-79521636D01*
X148102008Y-79295636D01*
X147595902Y-79086000D01*
X147048098Y-79086000D01*
X146541992Y-79295636D01*
X146154636Y-79682992D01*
X145945000Y-80189098D01*
X145945000Y-80736902D01*
X146154636Y-81243008D01*
X146466120Y-81554492D01*
X146257826Y-81480353D01*
X145707322Y-81508315D01*
X145328595Y-81665189D01*
X145260536Y-81906188D01*
X145145483Y-81791135D01*
X145101000Y-81835618D01*
X145101000Y-80717000D01*
X143893000Y-80717000D01*
X143893000Y-82959374D01*
X144099329Y-83082716D01*
X144159550Y-83071980D01*
X144620185Y-82823790D01*
X144660248Y-82774640D01*
X144683055Y-83223658D01*
X144839929Y-83602385D01*
X145080930Y-83670445D01*
X145873255Y-82878120D01*
X145859113Y-82863978D01*
X146038718Y-82684373D01*
X146052860Y-82698515D01*
X146845185Y-81906190D01*
X146797136Y-81736048D01*
X147048098Y-81840000D01*
X147595902Y-81840000D01*
X147744250Y-81778552D01*
X147425013Y-82097789D01*
X147333790Y-82318020D01*
X147265791Y-82153855D01*
X147024790Y-82085795D01*
X146232465Y-82878120D01*
X147024790Y-83670445D01*
X147265791Y-83602385D01*
X147328644Y-83425797D01*
X147425013Y-83658451D01*
X147812529Y-84045967D01*
X148318844Y-84255690D01*
X148866876Y-84255690D01*
X149373191Y-84045967D01*
X149608860Y-83810298D01*
X149844529Y-84045967D01*
X150350844Y-84255690D01*
X150898876Y-84255690D01*
X151405191Y-84045967D01*
X151792707Y-83658451D01*
X151894860Y-83411832D01*
X151997013Y-83658451D01*
X152384529Y-84045967D01*
X152890844Y-84255690D01*
X153438876Y-84255690D01*
X153945191Y-84045967D01*
X154332707Y-83658451D01*
X154542430Y-83152136D01*
X154542430Y-82758297D01*
X154595815Y-82823790D01*
X155056450Y-83071980D01*
X155116671Y-83082716D01*
X155323000Y-82959374D01*
X155323000Y-80717000D01*
X154115000Y-80717000D01*
X154115000Y-81880082D01*
X153945191Y-81710273D01*
X153438876Y-81500550D01*
X152890844Y-81500550D01*
X152742288Y-81562084D01*
X153061364Y-81243008D01*
X153271000Y-80736902D01*
X153271000Y-80189098D01*
X153061364Y-79682992D01*
X152674008Y-79295636D01*
X152167902Y-79086000D01*
X151620098Y-79086000D01*
X151113992Y-79295636D01*
X150887992Y-79521636D01*
X150792320Y-79290663D01*
X150532657Y-79031000D01*
X154184534Y-79031000D01*
X154115000Y-79263000D01*
X154115000Y-80463000D01*
X155323000Y-80463000D01*
X155323000Y-80443000D01*
X155577000Y-80443000D01*
X155577000Y-80463000D01*
X155597000Y-80463000D01*
X155597000Y-80717000D01*
X155577000Y-80717000D01*
X155577000Y-82959374D01*
X155783329Y-83082716D01*
X155843550Y-83071980D01*
X156304185Y-82823790D01*
X156634778Y-82418215D01*
X156665400Y-82316044D01*
X156665401Y-93285997D01*
X156599303Y-92953703D01*
X156272858Y-92465142D01*
X155784297Y-92138697D01*
X155706000Y-92123123D01*
X155706000Y-90824063D01*
X155720732Y-90750000D01*
X155706000Y-90675937D01*
X155706000Y-89022976D01*
X155739873Y-88989103D01*
X155881000Y-88648392D01*
X155881000Y-88279608D01*
X155739873Y-87938897D01*
X155479103Y-87678127D01*
X155138392Y-87537000D01*
X154769608Y-87537000D01*
X154428897Y-87678127D01*
X154168127Y-87938897D01*
X154027000Y-88279608D01*
X154027000Y-88648392D01*
X154168127Y-88989103D01*
X154202000Y-89022976D01*
X154202001Y-89998000D01*
X153899800Y-89998000D01*
X153899800Y-89829008D01*
X153758673Y-89488297D01*
X153497903Y-89227527D01*
X153157192Y-89086400D01*
X152880688Y-89086400D01*
X151372516Y-87578229D01*
X151330561Y-87515439D01*
X151081816Y-87349232D01*
X150862463Y-87305600D01*
X150862459Y-87305600D01*
X150788400Y-87290869D01*
X150714341Y-87305600D01*
X145937176Y-87305600D01*
X145928703Y-87297127D01*
X145587992Y-87156000D01*
X145219208Y-87156000D01*
X144878497Y-87297127D01*
X144617727Y-87557897D01*
X144476600Y-87898608D01*
X144476600Y-88267392D01*
X144496116Y-88314508D01*
X144414527Y-88396097D01*
X144273400Y-88736808D01*
X144273400Y-89105592D01*
X144414527Y-89446303D01*
X144675297Y-89707073D01*
X145016008Y-89848200D01*
X145384792Y-89848200D01*
X145725503Y-89707073D01*
X145759376Y-89673200D01*
X148987959Y-89673200D01*
X149312759Y-89998000D01*
X148102859Y-89998000D01*
X148028800Y-89983269D01*
X147954741Y-89998000D01*
X147954737Y-89998000D01*
X147735384Y-90041632D01*
X147559851Y-90158920D01*
X147543841Y-90134959D01*
X147336443Y-89996380D01*
X147091800Y-89947717D01*
X145391800Y-89947717D01*
X145147157Y-89996380D01*
X144939759Y-90134959D01*
X144801180Y-90342357D01*
X144760225Y-90548249D01*
X144658703Y-90446727D01*
X144317992Y-90305600D01*
X143949208Y-90305600D01*
X143608497Y-90446727D01*
X143347727Y-90707497D01*
X143206600Y-91048208D01*
X143206600Y-91416992D01*
X143347727Y-91757703D01*
X143396659Y-91806635D01*
X143425232Y-91950280D01*
X143591440Y-92199025D01*
X143654227Y-92240978D01*
X144504622Y-93091374D01*
X144546576Y-93154162D01*
X144795321Y-93320369D01*
X144891404Y-93339481D01*
X144850497Y-93400703D01*
X144735864Y-93977000D01*
X144850497Y-94553297D01*
X145176942Y-95041858D01*
X145665503Y-95368303D01*
X146096329Y-95454000D01*
X146387271Y-95454000D01*
X146818097Y-95368303D01*
X147306658Y-95041858D01*
X147633103Y-94553297D01*
X147747736Y-93977000D01*
X147633103Y-93400703D01*
X147608580Y-93364001D01*
X148638717Y-93364001D01*
X148638717Y-94380000D01*
X148687380Y-94624643D01*
X148825959Y-94832041D01*
X149033357Y-94970620D01*
X149278000Y-95019283D01*
X150978000Y-95019283D01*
X151222643Y-94970620D01*
X151430041Y-94832041D01*
X151568620Y-94624643D01*
X151589833Y-94517999D01*
X151901076Y-94801645D01*
X152311110Y-94971476D01*
X152541000Y-94850155D01*
X152541000Y-93657000D01*
X152521000Y-93657000D01*
X152521000Y-93403000D01*
X152541000Y-93403000D01*
X152541000Y-92209845D01*
X152311110Y-92088524D01*
X151901076Y-92258355D01*
X151589833Y-92542001D01*
X151568620Y-92435357D01*
X151430041Y-92227959D01*
X151269642Y-92120783D01*
X151490312Y-91900113D01*
X151631439Y-91559402D01*
X151631439Y-91502000D01*
X154202000Y-91502000D01*
X154202001Y-92425814D01*
X154143142Y-92465142D01*
X153928128Y-92786934D01*
X153863183Y-92648642D01*
X153434924Y-92258355D01*
X153024890Y-92088524D01*
X152795000Y-92209845D01*
X152795000Y-93403000D01*
X152815000Y-93403000D01*
X152815000Y-93657000D01*
X152795000Y-93657000D01*
X152795000Y-94850155D01*
X153024890Y-94971476D01*
X153434924Y-94801645D01*
X153863183Y-94411358D01*
X153928128Y-94273066D01*
X154143142Y-94594858D01*
X154456000Y-94803902D01*
X154456000Y-94914185D01*
X154122392Y-94776000D01*
X153753608Y-94776000D01*
X153412897Y-94917127D01*
X153152127Y-95177897D01*
X153011000Y-95518608D01*
X153011000Y-95887392D01*
X153152127Y-96228103D01*
X153186000Y-96261976D01*
X153186000Y-96323776D01*
X151376096Y-98133681D01*
X151302992Y-98103400D01*
X150934208Y-98103400D01*
X150593497Y-98244527D01*
X150332727Y-98505297D01*
X150191600Y-98846008D01*
X150191600Y-98992296D01*
X150030200Y-99068860D01*
X150030200Y-101392600D01*
X151528200Y-101392600D01*
X151528200Y-100402600D01*
X151392471Y-99920337D01*
X151643703Y-99816273D01*
X151692635Y-99767341D01*
X151836280Y-99738768D01*
X152085025Y-99572561D01*
X152126980Y-99509771D01*
X154417374Y-97219378D01*
X154456000Y-97193569D01*
X154456001Y-98900317D01*
X153913200Y-98900317D01*
X153668557Y-98948980D01*
X153461159Y-99087559D01*
X153322580Y-99294957D01*
X153273917Y-99539600D01*
X153273917Y-103281800D01*
X151329912Y-103281800D01*
X151355903Y-103248793D01*
X151528200Y-102636600D01*
X151528200Y-101646600D01*
X150030200Y-101646600D01*
X150030200Y-101666600D01*
X149776200Y-101666600D01*
X149776200Y-101646600D01*
X148278200Y-101646600D01*
X148278200Y-102636600D01*
X148450497Y-103248793D01*
X148476488Y-103281800D01*
X146331981Y-103281800D01*
X146426380Y-103140522D01*
X146520200Y-102668856D01*
X146520200Y-100402600D01*
X148278200Y-100402600D01*
X148278200Y-101392600D01*
X149776200Y-101392600D01*
X149776200Y-99068860D01*
X149524335Y-98949382D01*
X149398672Y-98979695D01*
X148843954Y-99290749D01*
X148450497Y-99790407D01*
X148278200Y-100402600D01*
X146520200Y-100402600D01*
X146520200Y-100370344D01*
X146426380Y-99898678D01*
X146068991Y-99363809D01*
X145534122Y-99006420D01*
X144903200Y-98880922D01*
X144272279Y-99006420D01*
X143737410Y-99363809D01*
X143380021Y-99898678D01*
X143286201Y-100370344D01*
X143286200Y-102668855D01*
X143380020Y-103140521D01*
X143474420Y-103281800D01*
X142322038Y-103281800D01*
X142331567Y-98460282D01*
X142346021Y-98495773D01*
X143001029Y-98743170D01*
X143700851Y-98721075D01*
X144244779Y-98495773D01*
X144358742Y-98215947D01*
X143295400Y-97152605D01*
X143281258Y-97166748D01*
X143101653Y-96987143D01*
X143115795Y-96973000D01*
X143475005Y-96973000D01*
X144538347Y-98036342D01*
X144818173Y-97922379D01*
X145065570Y-97267371D01*
X145043475Y-96567549D01*
X144818173Y-96023621D01*
X144538347Y-95909658D01*
X143475005Y-96973000D01*
X143115795Y-96973000D01*
X143101653Y-96958858D01*
X143281258Y-96779253D01*
X143295400Y-96793395D01*
X144358742Y-95730053D01*
X144244779Y-95450227D01*
X143589771Y-95202830D01*
X142889949Y-95224925D01*
X142346021Y-95450227D01*
X142337474Y-95471213D01*
X142360440Y-83850050D01*
X145260535Y-83850050D01*
X145328595Y-84091051D01*
X145847894Y-84275887D01*
X146398398Y-84247925D01*
X146777125Y-84091051D01*
X146845185Y-83850050D01*
X146052860Y-83057725D01*
X145260535Y-83850050D01*
X142360440Y-83850050D01*
X142366632Y-80717000D01*
X142431000Y-80717000D01*
X142431000Y-81917000D01*
X142581222Y-82418215D01*
X142911815Y-82823790D01*
X143372450Y-83071980D01*
X143432671Y-83082716D01*
X143639000Y-82959374D01*
X143639000Y-80717000D01*
X142431000Y-80717000D01*
X142366632Y-80717000D01*
X142369965Y-79031000D01*
X142500534Y-79031000D01*
X142431000Y-79263000D01*
X142431000Y-79263000D01*
G37*
X142431000Y-79263000D02*
X142431000Y-80463000D01*
X143639000Y-80463000D01*
X143639000Y-80443000D01*
X143893000Y-80443000D01*
X143893000Y-80463000D01*
X145101000Y-80463000D01*
X145101000Y-79263000D01*
X145031466Y-79031000D01*
X148683343Y-79031000D01*
X148423680Y-79290663D01*
X148328008Y-79521636D01*
X148102008Y-79295636D01*
X147595902Y-79086000D01*
X147048098Y-79086000D01*
X146541992Y-79295636D01*
X146154636Y-79682992D01*
X145945000Y-80189098D01*
X145945000Y-80736902D01*
X146154636Y-81243008D01*
X146466120Y-81554492D01*
X146257826Y-81480353D01*
X145707322Y-81508315D01*
X145328595Y-81665189D01*
X145260536Y-81906188D01*
X145145483Y-81791135D01*
X145101000Y-81835618D01*
X145101000Y-80717000D01*
X143893000Y-80717000D01*
X143893000Y-82959374D01*
X144099329Y-83082716D01*
X144159550Y-83071980D01*
X144620185Y-82823790D01*
X144660248Y-82774640D01*
X144683055Y-83223658D01*
X144839929Y-83602385D01*
X145080930Y-83670445D01*
X145873255Y-82878120D01*
X145859113Y-82863978D01*
X146038718Y-82684373D01*
X146052860Y-82698515D01*
X146845185Y-81906190D01*
X146797136Y-81736048D01*
X147048098Y-81840000D01*
X147595902Y-81840000D01*
X147744250Y-81778552D01*
X147425013Y-82097789D01*
X147333790Y-82318020D01*
X147265791Y-82153855D01*
X147024790Y-82085795D01*
X146232465Y-82878120D01*
X147024790Y-83670445D01*
X147265791Y-83602385D01*
X147328644Y-83425797D01*
X147425013Y-83658451D01*
X147812529Y-84045967D01*
X148318844Y-84255690D01*
X148866876Y-84255690D01*
X149373191Y-84045967D01*
X149608860Y-83810298D01*
X149844529Y-84045967D01*
X150350844Y-84255690D01*
X150898876Y-84255690D01*
X151405191Y-84045967D01*
X151792707Y-83658451D01*
X151894860Y-83411832D01*
X151997013Y-83658451D01*
X152384529Y-84045967D01*
X152890844Y-84255690D01*
X153438876Y-84255690D01*
X153945191Y-84045967D01*
X154332707Y-83658451D01*
X154542430Y-83152136D01*
X154542430Y-82758297D01*
X154595815Y-82823790D01*
X155056450Y-83071980D01*
X155116671Y-83082716D01*
X155323000Y-82959374D01*
X155323000Y-80717000D01*
X154115000Y-80717000D01*
X154115000Y-81880082D01*
X153945191Y-81710273D01*
X153438876Y-81500550D01*
X152890844Y-81500550D01*
X152742288Y-81562084D01*
X153061364Y-81243008D01*
X153271000Y-80736902D01*
X153271000Y-80189098D01*
X153061364Y-79682992D01*
X152674008Y-79295636D01*
X152167902Y-79086000D01*
X151620098Y-79086000D01*
X151113992Y-79295636D01*
X150887992Y-79521636D01*
X150792320Y-79290663D01*
X150532657Y-79031000D01*
X154184534Y-79031000D01*
X154115000Y-79263000D01*
X154115000Y-80463000D01*
X155323000Y-80463000D01*
X155323000Y-80443000D01*
X155577000Y-80443000D01*
X155577000Y-80463000D01*
X155597000Y-80463000D01*
X155597000Y-80717000D01*
X155577000Y-80717000D01*
X155577000Y-82959374D01*
X155783329Y-83082716D01*
X155843550Y-83071980D01*
X156304185Y-82823790D01*
X156634778Y-82418215D01*
X156665400Y-82316044D01*
X156665401Y-93285997D01*
X156599303Y-92953703D01*
X156272858Y-92465142D01*
X155784297Y-92138697D01*
X155706000Y-92123123D01*
X155706000Y-90824063D01*
X155720732Y-90750000D01*
X155706000Y-90675937D01*
X155706000Y-89022976D01*
X155739873Y-88989103D01*
X155881000Y-88648392D01*
X155881000Y-88279608D01*
X155739873Y-87938897D01*
X155479103Y-87678127D01*
X155138392Y-87537000D01*
X154769608Y-87537000D01*
X154428897Y-87678127D01*
X154168127Y-87938897D01*
X154027000Y-88279608D01*
X154027000Y-88648392D01*
X154168127Y-88989103D01*
X154202000Y-89022976D01*
X154202001Y-89998000D01*
X153899800Y-89998000D01*
X153899800Y-89829008D01*
X153758673Y-89488297D01*
X153497903Y-89227527D01*
X153157192Y-89086400D01*
X152880688Y-89086400D01*
X151372516Y-87578229D01*
X151330561Y-87515439D01*
X151081816Y-87349232D01*
X150862463Y-87305600D01*
X150862459Y-87305600D01*
X150788400Y-87290869D01*
X150714341Y-87305600D01*
X145937176Y-87305600D01*
X145928703Y-87297127D01*
X145587992Y-87156000D01*
X145219208Y-87156000D01*
X144878497Y-87297127D01*
X144617727Y-87557897D01*
X144476600Y-87898608D01*
X144476600Y-88267392D01*
X144496116Y-88314508D01*
X144414527Y-88396097D01*
X144273400Y-88736808D01*
X144273400Y-89105592D01*
X144414527Y-89446303D01*
X144675297Y-89707073D01*
X145016008Y-89848200D01*
X145384792Y-89848200D01*
X145725503Y-89707073D01*
X145759376Y-89673200D01*
X148987959Y-89673200D01*
X149312759Y-89998000D01*
X148102859Y-89998000D01*
X148028800Y-89983269D01*
X147954741Y-89998000D01*
X147954737Y-89998000D01*
X147735384Y-90041632D01*
X147559851Y-90158920D01*
X147543841Y-90134959D01*
X147336443Y-89996380D01*
X147091800Y-89947717D01*
X145391800Y-89947717D01*
X145147157Y-89996380D01*
X144939759Y-90134959D01*
X144801180Y-90342357D01*
X144760225Y-90548249D01*
X144658703Y-90446727D01*
X144317992Y-90305600D01*
X143949208Y-90305600D01*
X143608497Y-90446727D01*
X143347727Y-90707497D01*
X143206600Y-91048208D01*
X143206600Y-91416992D01*
X143347727Y-91757703D01*
X143396659Y-91806635D01*
X143425232Y-91950280D01*
X143591440Y-92199025D01*
X143654227Y-92240978D01*
X144504622Y-93091374D01*
X144546576Y-93154162D01*
X144795321Y-93320369D01*
X144891404Y-93339481D01*
X144850497Y-93400703D01*
X144735864Y-93977000D01*
X144850497Y-94553297D01*
X145176942Y-95041858D01*
X145665503Y-95368303D01*
X146096329Y-95454000D01*
X146387271Y-95454000D01*
X146818097Y-95368303D01*
X147306658Y-95041858D01*
X147633103Y-94553297D01*
X147747736Y-93977000D01*
X147633103Y-93400703D01*
X147608580Y-93364001D01*
X148638717Y-93364001D01*
X148638717Y-94380000D01*
X148687380Y-94624643D01*
X148825959Y-94832041D01*
X149033357Y-94970620D01*
X149278000Y-95019283D01*
X150978000Y-95019283D01*
X151222643Y-94970620D01*
X151430041Y-94832041D01*
X151568620Y-94624643D01*
X151589833Y-94517999D01*
X151901076Y-94801645D01*
X152311110Y-94971476D01*
X152541000Y-94850155D01*
X152541000Y-93657000D01*
X152521000Y-93657000D01*
X152521000Y-93403000D01*
X152541000Y-93403000D01*
X152541000Y-92209845D01*
X152311110Y-92088524D01*
X151901076Y-92258355D01*
X151589833Y-92542001D01*
X151568620Y-92435357D01*
X151430041Y-92227959D01*
X151269642Y-92120783D01*
X151490312Y-91900113D01*
X151631439Y-91559402D01*
X151631439Y-91502000D01*
X154202000Y-91502000D01*
X154202001Y-92425814D01*
X154143142Y-92465142D01*
X153928128Y-92786934D01*
X153863183Y-92648642D01*
X153434924Y-92258355D01*
X153024890Y-92088524D01*
X152795000Y-92209845D01*
X152795000Y-93403000D01*
X152815000Y-93403000D01*
X152815000Y-93657000D01*
X152795000Y-93657000D01*
X152795000Y-94850155D01*
X153024890Y-94971476D01*
X153434924Y-94801645D01*
X153863183Y-94411358D01*
X153928128Y-94273066D01*
X154143142Y-94594858D01*
X154456000Y-94803902D01*
X154456000Y-94914185D01*
X154122392Y-94776000D01*
X153753608Y-94776000D01*
X153412897Y-94917127D01*
X153152127Y-95177897D01*
X153011000Y-95518608D01*
X153011000Y-95887392D01*
X153152127Y-96228103D01*
X153186000Y-96261976D01*
X153186000Y-96323776D01*
X151376096Y-98133681D01*
X151302992Y-98103400D01*
X150934208Y-98103400D01*
X150593497Y-98244527D01*
X150332727Y-98505297D01*
X150191600Y-98846008D01*
X150191600Y-98992296D01*
X150030200Y-99068860D01*
X150030200Y-101392600D01*
X151528200Y-101392600D01*
X151528200Y-100402600D01*
X151392471Y-99920337D01*
X151643703Y-99816273D01*
X151692635Y-99767341D01*
X151836280Y-99738768D01*
X152085025Y-99572561D01*
X152126980Y-99509771D01*
X154417374Y-97219378D01*
X154456000Y-97193569D01*
X154456001Y-98900317D01*
X153913200Y-98900317D01*
X153668557Y-98948980D01*
X153461159Y-99087559D01*
X153322580Y-99294957D01*
X153273917Y-99539600D01*
X153273917Y-103281800D01*
X151329912Y-103281800D01*
X151355903Y-103248793D01*
X151528200Y-102636600D01*
X151528200Y-101646600D01*
X150030200Y-101646600D01*
X150030200Y-101666600D01*
X149776200Y-101666600D01*
X149776200Y-101646600D01*
X148278200Y-101646600D01*
X148278200Y-102636600D01*
X148450497Y-103248793D01*
X148476488Y-103281800D01*
X146331981Y-103281800D01*
X146426380Y-103140522D01*
X146520200Y-102668856D01*
X146520200Y-100402600D01*
X148278200Y-100402600D01*
X148278200Y-101392600D01*
X149776200Y-101392600D01*
X149776200Y-99068860D01*
X149524335Y-98949382D01*
X149398672Y-98979695D01*
X148843954Y-99290749D01*
X148450497Y-99790407D01*
X148278200Y-100402600D01*
X146520200Y-100402600D01*
X146520200Y-100370344D01*
X146426380Y-99898678D01*
X146068991Y-99363809D01*
X145534122Y-99006420D01*
X144903200Y-98880922D01*
X144272279Y-99006420D01*
X143737410Y-99363809D01*
X143380021Y-99898678D01*
X143286201Y-100370344D01*
X143286200Y-102668855D01*
X143380020Y-103140521D01*
X143474420Y-103281800D01*
X142322038Y-103281800D01*
X142331567Y-98460282D01*
X142346021Y-98495773D01*
X143001029Y-98743170D01*
X143700851Y-98721075D01*
X144244779Y-98495773D01*
X144358742Y-98215947D01*
X143295400Y-97152605D01*
X143281258Y-97166748D01*
X143101653Y-96987143D01*
X143115795Y-96973000D01*
X143475005Y-96973000D01*
X144538347Y-98036342D01*
X144818173Y-97922379D01*
X145065570Y-97267371D01*
X145043475Y-96567549D01*
X144818173Y-96023621D01*
X144538347Y-95909658D01*
X143475005Y-96973000D01*
X143115795Y-96973000D01*
X143101653Y-96958858D01*
X143281258Y-96779253D01*
X143295400Y-96793395D01*
X144358742Y-95730053D01*
X144244779Y-95450227D01*
X143589771Y-95202830D01*
X142889949Y-95224925D01*
X142346021Y-95450227D01*
X142337474Y-95471213D01*
X142360440Y-83850050D01*
X145260535Y-83850050D01*
X145328595Y-84091051D01*
X145847894Y-84275887D01*
X146398398Y-84247925D01*
X146777125Y-84091051D01*
X146845185Y-83850050D01*
X146052860Y-83057725D01*
X145260535Y-83850050D01*
X142360440Y-83850050D01*
X142366632Y-80717000D01*
X142431000Y-80717000D01*
X142431000Y-81917000D01*
X142581222Y-82418215D01*
X142911815Y-82823790D01*
X143372450Y-83071980D01*
X143432671Y-83082716D01*
X143639000Y-82959374D01*
X143639000Y-80717000D01*
X142431000Y-80717000D01*
X142366632Y-80717000D01*
X142369965Y-79031000D01*
X142500534Y-79031000D01*
X142431000Y-79263000D01*
M02*
