G04 #@! TF.GenerationSoftware,KiCad,Pcbnew,(2018-02-16 revision c95340fba)-makepkg*
G04 #@! TF.CreationDate,2018-05-28T07:37:03+02:00*
G04 #@! TF.ProjectId,LIN_USB_CONVERTER,4C494E5F5553425F434F4E5645525445,rev?*
G04 #@! TF.SameCoordinates,PX85b9e30PY4aad300*
G04 #@! TF.FileFunction,Legend,Bot*
G04 #@! TF.FilePolarity,Positive*
%FSLAX46Y46*%
G04 Gerber Fmt 4.6, Leading zero omitted, Abs format (unit mm)*
G04 Created by KiCad (PCBNEW (2018-02-16 revision c95340fba)-makepkg) date 05/28/18 07:37:03*
%MOMM*%
%LPD*%
G01*
G04 APERTURE LIST*
%ADD10C,0.125000*%
%ADD11C,0.100000*%
%ADD12C,0.175000*%
%ADD13C,0.250000*%
%ADD14C,0.200000*%
%ADD15C,0.120000*%
%ADD16C,0.150000*%
%ADD17C,0.090000*%
%ADD18R,2.380000X4.360000*%
%ADD19O,2.380000X4.360000*%
%ADD20R,1.670000X1.370000*%
%ADD21C,2.540000*%
%ADD22C,2.900000*%
%ADD23R,2.100000X2.100000*%
%ADD24O,2.100000X2.100000*%
%ADD25C,1.901140*%
%ADD26O,1.800000X4.200000*%
%ADD27C,1.900000*%
G04 APERTURE END LIST*
D10*
X16970190Y-15689090D02*
X16970190Y-15189090D01*
X16803523Y-15546233D01*
X16636857Y-15189090D01*
X16636857Y-15689090D01*
X16422571Y-15546233D02*
X16184476Y-15546233D01*
X16470190Y-15689090D02*
X16303523Y-15189090D01*
X16136857Y-15689090D01*
X15994000Y-15665280D02*
X15922571Y-15689090D01*
X15803523Y-15689090D01*
X15755904Y-15665280D01*
X15732095Y-15641471D01*
X15708285Y-15593852D01*
X15708285Y-15546233D01*
X15732095Y-15498614D01*
X15755904Y-15474804D01*
X15803523Y-15450995D01*
X15898761Y-15427185D01*
X15946380Y-15403376D01*
X15970190Y-15379566D01*
X15994000Y-15331947D01*
X15994000Y-15284328D01*
X15970190Y-15236709D01*
X15946380Y-15212900D01*
X15898761Y-15189090D01*
X15779714Y-15189090D01*
X15708285Y-15212900D01*
X15565428Y-15189090D02*
X15279714Y-15189090D01*
X15422571Y-15689090D02*
X15422571Y-15189090D01*
X15113047Y-15427185D02*
X14946380Y-15427185D01*
X14874952Y-15689090D02*
X15113047Y-15689090D01*
X15113047Y-15189090D01*
X14874952Y-15189090D01*
X14374952Y-15689090D02*
X14541619Y-15450995D01*
X14660666Y-15689090D02*
X14660666Y-15189090D01*
X14470190Y-15189090D01*
X14422571Y-15212900D01*
X14398761Y-15236709D01*
X14374952Y-15284328D01*
X14374952Y-15355757D01*
X14398761Y-15403376D01*
X14422571Y-15427185D01*
X14470190Y-15450995D01*
X14660666Y-15450995D01*
X16672571Y-16564090D02*
X16839238Y-16325995D01*
X16958285Y-16564090D02*
X16958285Y-16064090D01*
X16767809Y-16064090D01*
X16720190Y-16087900D01*
X16696380Y-16111709D01*
X16672571Y-16159328D01*
X16672571Y-16230757D01*
X16696380Y-16278376D01*
X16720190Y-16302185D01*
X16767809Y-16325995D01*
X16958285Y-16325995D01*
X16458285Y-16302185D02*
X16291619Y-16302185D01*
X16220190Y-16564090D02*
X16458285Y-16564090D01*
X16458285Y-16064090D01*
X16220190Y-16064090D01*
X16029714Y-16540280D02*
X15958285Y-16564090D01*
X15839238Y-16564090D01*
X15791619Y-16540280D01*
X15767809Y-16516471D01*
X15744000Y-16468852D01*
X15744000Y-16421233D01*
X15767809Y-16373614D01*
X15791619Y-16349804D01*
X15839238Y-16325995D01*
X15934476Y-16302185D01*
X15982095Y-16278376D01*
X16005904Y-16254566D01*
X16029714Y-16206947D01*
X16029714Y-16159328D01*
X16005904Y-16111709D01*
X15982095Y-16087900D01*
X15934476Y-16064090D01*
X15815428Y-16064090D01*
X15744000Y-16087900D01*
X15529714Y-16564090D02*
X15529714Y-16064090D01*
X15315428Y-16540280D02*
X15244000Y-16564090D01*
X15124952Y-16564090D01*
X15077333Y-16540280D01*
X15053523Y-16516471D01*
X15029714Y-16468852D01*
X15029714Y-16421233D01*
X15053523Y-16373614D01*
X15077333Y-16349804D01*
X15124952Y-16325995D01*
X15220190Y-16302185D01*
X15267809Y-16278376D01*
X15291619Y-16254566D01*
X15315428Y-16206947D01*
X15315428Y-16159328D01*
X15291619Y-16111709D01*
X15267809Y-16087900D01*
X15220190Y-16064090D01*
X15101142Y-16064090D01*
X15029714Y-16087900D01*
X14886857Y-16064090D02*
X14601142Y-16064090D01*
X14744000Y-16564090D02*
X14744000Y-16064090D01*
X14339238Y-16064090D02*
X14244000Y-16064090D01*
X14196380Y-16087900D01*
X14148761Y-16135519D01*
X14124952Y-16230757D01*
X14124952Y-16397423D01*
X14148761Y-16492661D01*
X14196380Y-16540280D01*
X14244000Y-16564090D01*
X14339238Y-16564090D01*
X14386857Y-16540280D01*
X14434476Y-16492661D01*
X14458285Y-16397423D01*
X14458285Y-16230757D01*
X14434476Y-16135519D01*
X14386857Y-16087900D01*
X14339238Y-16064090D01*
X13624952Y-16564090D02*
X13791619Y-16325995D01*
X13910666Y-16564090D02*
X13910666Y-16064090D01*
X13720190Y-16064090D01*
X13672571Y-16087900D01*
X13648761Y-16111709D01*
X13624952Y-16159328D01*
X13624952Y-16230757D01*
X13648761Y-16278376D01*
X13672571Y-16302185D01*
X13720190Y-16325995D01*
X13910666Y-16325995D01*
D11*
X16019428Y-21607428D02*
X16305142Y-21607428D01*
X16305142Y-21007428D01*
X15819428Y-21607428D02*
X15819428Y-21007428D01*
X15533714Y-21607428D02*
X15533714Y-21007428D01*
X15190857Y-21607428D01*
X15190857Y-21007428D01*
X13411142Y-21036000D02*
X13468285Y-21007428D01*
X13554000Y-21007428D01*
X13639714Y-21036000D01*
X13696857Y-21093142D01*
X13725428Y-21150285D01*
X13754000Y-21264571D01*
X13754000Y-21350285D01*
X13725428Y-21464571D01*
X13696857Y-21521714D01*
X13639714Y-21578857D01*
X13554000Y-21607428D01*
X13496857Y-21607428D01*
X13411142Y-21578857D01*
X13382571Y-21550285D01*
X13382571Y-21350285D01*
X13496857Y-21350285D01*
X13125428Y-21607428D02*
X13125428Y-21007428D01*
X12782571Y-21607428D01*
X12782571Y-21007428D01*
X12496857Y-21607428D02*
X12496857Y-21007428D01*
X12354000Y-21007428D01*
X12268285Y-21036000D01*
X12211142Y-21093142D01*
X12182571Y-21150285D01*
X12154000Y-21264571D01*
X12154000Y-21350285D01*
X12182571Y-21464571D01*
X12211142Y-21521714D01*
X12268285Y-21578857D01*
X12354000Y-21607428D01*
X12496857Y-21607428D01*
X11228285Y-21293142D02*
X11142571Y-21321714D01*
X11114000Y-21350285D01*
X11085428Y-21407428D01*
X11085428Y-21493142D01*
X11114000Y-21550285D01*
X11142571Y-21578857D01*
X11199714Y-21607428D01*
X11428285Y-21607428D01*
X11428285Y-21007428D01*
X11228285Y-21007428D01*
X11171142Y-21036000D01*
X11142571Y-21064571D01*
X11114000Y-21121714D01*
X11114000Y-21178857D01*
X11142571Y-21236000D01*
X11171142Y-21264571D01*
X11228285Y-21293142D01*
X11428285Y-21293142D01*
X10856857Y-21436000D02*
X10571142Y-21436000D01*
X10914000Y-21607428D02*
X10714000Y-21007428D01*
X10514000Y-21607428D01*
X10399714Y-21007428D02*
X10056857Y-21007428D01*
X10228285Y-21607428D02*
X10228285Y-21007428D01*
X9856857Y-21378857D02*
X9399714Y-21378857D01*
X9628285Y-21607428D02*
X9628285Y-21150285D01*
D12*
X13750857Y-17734892D02*
X13750857Y-17163464D01*
X12550857Y-17163464D01*
X13750857Y-18134892D02*
X12550857Y-18134892D01*
X13750857Y-18706321D02*
X12550857Y-18706321D01*
X13750857Y-19392035D01*
X12550857Y-19392035D01*
X8798000Y-17233235D02*
X8740857Y-17118950D01*
X8740857Y-16947521D01*
X8798000Y-16776092D01*
X8912285Y-16661807D01*
X9026571Y-16604664D01*
X9255142Y-16547521D01*
X9426571Y-16547521D01*
X9655142Y-16604664D01*
X9769428Y-16661807D01*
X9883714Y-16776092D01*
X9940857Y-16947521D01*
X9940857Y-17061807D01*
X9883714Y-17233235D01*
X9826571Y-17290378D01*
X9426571Y-17290378D01*
X9426571Y-17061807D01*
X9940857Y-17804664D02*
X8740857Y-17804664D01*
X9940857Y-18490378D01*
X8740857Y-18490378D01*
X9940857Y-19061807D02*
X8740857Y-19061807D01*
X8740857Y-19347521D01*
X8798000Y-19518950D01*
X8912285Y-19633235D01*
X9026571Y-19690378D01*
X9255142Y-19747521D01*
X9426571Y-19747521D01*
X9655142Y-19690378D01*
X9769428Y-19633235D01*
X9883714Y-19518950D01*
X9940857Y-19347521D01*
X9940857Y-19061807D01*
X5248285Y-17004664D02*
X5305428Y-17176092D01*
X5362571Y-17233235D01*
X5476857Y-17290378D01*
X5648285Y-17290378D01*
X5762571Y-17233235D01*
X5819714Y-17176092D01*
X5876857Y-17061807D01*
X5876857Y-16604664D01*
X4676857Y-16604664D01*
X4676857Y-17004664D01*
X4734000Y-17118950D01*
X4791142Y-17176092D01*
X4905428Y-17233235D01*
X5019714Y-17233235D01*
X5134000Y-17176092D01*
X5191142Y-17118950D01*
X5248285Y-17004664D01*
X5248285Y-16604664D01*
X5534000Y-17747521D02*
X5534000Y-18318950D01*
X5876857Y-17633235D02*
X4676857Y-18033235D01*
X5876857Y-18433235D01*
X4676857Y-18661807D02*
X4676857Y-19347521D01*
X5876857Y-19004664D02*
X4676857Y-19004664D01*
X5419714Y-19747521D02*
X5419714Y-20661807D01*
X5876857Y-20204664D02*
X4962571Y-20204664D01*
D11*
X14730591Y-8653994D02*
X15016305Y-8653994D01*
X15016305Y-8053994D01*
X14530591Y-8053994D02*
X14530591Y-8539708D01*
X14502019Y-8596851D01*
X14473448Y-8625423D01*
X14416305Y-8653994D01*
X14302019Y-8653994D01*
X14244876Y-8625423D01*
X14216305Y-8596851D01*
X14187734Y-8539708D01*
X14187734Y-8053994D01*
X13559162Y-8596851D02*
X13587734Y-8625423D01*
X13673448Y-8653994D01*
X13730591Y-8653994D01*
X13816305Y-8625423D01*
X13873448Y-8568280D01*
X13902019Y-8511137D01*
X13930591Y-8396851D01*
X13930591Y-8311137D01*
X13902019Y-8196851D01*
X13873448Y-8139708D01*
X13816305Y-8082566D01*
X13730591Y-8053994D01*
X13673448Y-8053994D01*
X13587734Y-8082566D01*
X13559162Y-8111137D01*
X12987734Y-8653994D02*
X13330591Y-8653994D01*
X13159162Y-8653994D02*
X13159162Y-8053994D01*
X13216305Y-8139708D01*
X13273448Y-8196851D01*
X13330591Y-8225423D01*
X12730591Y-8596851D02*
X12702019Y-8625423D01*
X12730591Y-8653994D01*
X12759162Y-8625423D01*
X12730591Y-8596851D01*
X12730591Y-8653994D01*
X12330591Y-8053994D02*
X12273448Y-8053994D01*
X12216305Y-8082566D01*
X12187734Y-8111137D01*
X12159162Y-8168280D01*
X12130591Y-8282566D01*
X12130591Y-8425423D01*
X12159162Y-8539708D01*
X12187734Y-8596851D01*
X12216305Y-8625423D01*
X12273448Y-8653994D01*
X12330591Y-8653994D01*
X12387734Y-8625423D01*
X12416305Y-8596851D01*
X12444876Y-8539708D01*
X12473448Y-8425423D01*
X12473448Y-8282566D01*
X12444876Y-8168280D01*
X12416305Y-8111137D01*
X12387734Y-8082566D01*
X12330591Y-8053994D01*
D13*
X15622962Y-6732489D02*
X15622962Y-8270585D01*
X15694391Y-8451537D01*
X15765819Y-8542013D01*
X15908676Y-8632489D01*
X16194391Y-8632489D01*
X16337248Y-8542013D01*
X16408676Y-8451537D01*
X16480105Y-8270585D01*
X16480105Y-6732489D01*
D11*
X14864019Y-7703080D02*
X14902114Y-7741175D01*
X15016400Y-7779270D01*
X15092591Y-7779270D01*
X15206876Y-7741175D01*
X15283067Y-7664985D01*
X15321162Y-7588794D01*
X15359257Y-7436413D01*
X15359257Y-7322127D01*
X15321162Y-7169746D01*
X15283067Y-7093556D01*
X15206876Y-7017366D01*
X15092591Y-6979270D01*
X15016400Y-6979270D01*
X14902114Y-7017366D01*
X14864019Y-7055461D01*
X14559257Y-7550699D02*
X14178305Y-7550699D01*
X14635448Y-7779270D02*
X14368781Y-6979270D01*
X14102114Y-7779270D01*
X13835448Y-7779270D02*
X13835448Y-6979270D01*
X13378305Y-7779270D01*
X13378305Y-6979270D01*
D14*
X15645134Y-6706166D02*
X12999534Y-6706166D01*
D15*
X17810000Y-24942000D02*
X17810000Y-37542000D01*
X17810000Y-37542000D02*
X2410000Y-37542000D01*
X2410000Y-37542000D02*
X2410000Y-36592000D01*
X2410000Y-36592000D02*
X1910000Y-36892000D01*
X1910000Y-36892000D02*
X1910000Y-34892000D01*
X1910000Y-34892000D02*
X2410000Y-35142000D01*
X2410000Y-35142000D02*
X2410000Y-29742000D01*
X2410000Y-29742000D02*
X1910000Y-29992000D01*
X1910000Y-29992000D02*
X1910000Y-24942000D01*
X1910000Y-24942000D02*
X17810000Y-24942000D01*
X15010400Y-20218400D02*
X15010400Y-17678400D01*
X16790400Y-17678400D02*
X16790400Y-20218400D01*
X16790400Y-17678400D02*
X15010400Y-17678400D01*
X15010400Y-20218400D02*
X16790400Y-20218400D01*
X17078000Y-21784000D02*
X17078000Y-24444000D01*
X11938000Y-21784000D02*
X17078000Y-21784000D01*
X11938000Y-24444000D02*
X17078000Y-24444000D01*
X11938000Y-21784000D02*
X11938000Y-24444000D01*
X10668000Y-21784000D02*
X9338000Y-21784000D01*
X9338000Y-21784000D02*
X9338000Y-23114000D01*
D16*
X16129860Y-5717120D02*
X16129860Y8379880D01*
X1143860Y8379880D02*
X1143860Y-5717120D01*
X16129860Y-5717120D02*
X1143860Y-5717120D01*
X16129860Y8379880D02*
X1143860Y8379880D01*
D17*
X16389333Y-26450952D02*
X16389333Y-26736666D01*
X16408380Y-26793809D01*
X16446476Y-26831904D01*
X16503619Y-26850952D01*
X16541714Y-26850952D01*
X16217904Y-26489047D02*
X16198857Y-26470000D01*
X16160761Y-26450952D01*
X16065523Y-26450952D01*
X16027428Y-26470000D01*
X16008380Y-26489047D01*
X15989333Y-26527142D01*
X15989333Y-26565238D01*
X16008380Y-26622380D01*
X16236952Y-26850952D01*
X15989333Y-26850952D01*
X14595447Y-19843733D02*
X14309733Y-19843733D01*
X14252590Y-19862780D01*
X14214495Y-19900876D01*
X14195447Y-19958019D01*
X14195447Y-19996114D01*
X14595447Y-19691352D02*
X14595447Y-19443733D01*
X14443066Y-19577066D01*
X14443066Y-19519923D01*
X14424019Y-19481828D01*
X14404971Y-19462780D01*
X14366876Y-19443733D01*
X14271638Y-19443733D01*
X14233542Y-19462780D01*
X14214495Y-19481828D01*
X14195447Y-19519923D01*
X14195447Y-19634209D01*
X14214495Y-19672304D01*
X14233542Y-19691352D01*
X8924952Y-24250666D02*
X9210666Y-24250666D01*
X9267809Y-24231619D01*
X9305904Y-24193523D01*
X9324952Y-24136380D01*
X9324952Y-24098285D01*
X9324952Y-24650666D02*
X9324952Y-24422095D01*
X9324952Y-24536380D02*
X8924952Y-24536380D01*
X8982095Y-24498285D01*
X9020190Y-24460190D01*
X9039238Y-24422095D01*
X3082952Y-4438666D02*
X3368666Y-4438666D01*
X3425809Y-4419619D01*
X3463904Y-4381523D01*
X3482952Y-4324380D01*
X3482952Y-4286285D01*
X3216285Y-4800571D02*
X3482952Y-4800571D01*
X3063904Y-4705333D02*
X3349619Y-4610095D01*
X3349619Y-4857714D01*
%LPC*%
D18*
X15160000Y-31242000D03*
D19*
X10160000Y-31242000D03*
X5160000Y-31242000D03*
D20*
X15900400Y-19588400D03*
X15900400Y-18308400D03*
D21*
X8636000Y-1778000D03*
D22*
X1778000Y-31496000D03*
D23*
X10668000Y-23114000D03*
D24*
X13208000Y-23114000D03*
X15748000Y-23114000D03*
D25*
X12192860Y-4574120D03*
X9652860Y-4574120D03*
X7620860Y-4574120D03*
X5080860Y-4574120D03*
D26*
X14478000Y-2286000D03*
X2794000Y-2286000D03*
D27*
X6350000Y-2159000D03*
X10922000Y-2159000D03*
M02*
