M48
;DRILL file {KiCad (2018-02-16 revision c95340fba)-makepkg} date 04/19/18 06:34:29
;FORMAT={-:-/ absolute / metric / decimal}
FMAT,2
METRIC,TZ
T1C0.400
T2C1.000
T3C1.001
T4C1.320
T5C2.000
%
G90
G05
M71
T1
X141.746Y-102.942
X141.746Y-107.006
X142.254Y-100.91
X143.524Y-92.528
X143.778Y-93.544
X144.032Y-88.464
X147.334Y-92.528
X148.096Y-91.258
X148.35Y-93.544
X151.144Y-92.07
X151.906Y-97.862
X152.16Y-88.718
X152.16Y-96.084
T2
X155.97Y-93.29
X155.97Y-95.83
X150.89Y-101.418
X153.43Y-101.418
X155.97Y-101.418
T3
X145.303Y-82.878
X147.843Y-82.878
X149.875Y-82.878
X152.415Y-82.878
T4
X145.382Y-109.546
X150.382Y-109.546
X155.382Y-109.546
T5
X142.Y-109.8
T2
X143.016Y-81.34G85X143.016Y-79.84
G05
X154.7Y-81.34G85X154.7Y-79.84
G05
T0
M30
