G04 #@! TF.GenerationSoftware,KiCad,Pcbnew,(2018-02-16 revision c95340fba)-makepkg*
G04 #@! TF.CreationDate,2018-05-22T14:01:30+02:00*
G04 #@! TF.ProjectId,LIN_USB_CONVERTER,4C494E5F5553425F434F4E5645525445,rev?*
G04 #@! TF.SameCoordinates,PX85b9e30PY4aad300*
G04 #@! TF.FileFunction,Legend,Top*
G04 #@! TF.FilePolarity,Positive*
%FSLAX46Y46*%
G04 Gerber Fmt 4.6, Leading zero omitted, Abs format (unit mm)*
G04 Created by KiCad (PCBNEW (2018-02-16 revision c95340fba)-makepkg) date 05/22/18 14:01:30*
%MOMM*%
%LPD*%
G01*
G04 APERTURE LIST*
%ADD10C,0.100000*%
%ADD11C,0.120000*%
%ADD12C,0.150000*%
%ADD13C,0.090000*%
%ADD14R,1.650000X1.400000*%
%ADD15R,0.900000X1.300000*%
%ADD16R,0.908000X2.400000*%
%ADD17R,1.300000X1.200000*%
%ADD18R,1.000000X0.900000*%
%ADD19R,0.900000X1.000000*%
%ADD20R,2.200000X1.400000*%
%ADD21R,2.100000X2.100000*%
%ADD22O,2.100000X2.100000*%
%ADD23R,1.670000X1.370000*%
%ADD24R,1.150000X1.200000*%
%ADD25R,0.702000X0.302000*%
%ADD26R,0.302000X0.702000*%
%ADD27R,0.102000X0.102000*%
%ADD28C,0.214000*%
%ADD29R,0.152000X0.152000*%
%ADD30R,0.502000X0.302000*%
%ADD31R,0.302000X0.502000*%
%ADD32C,2.540000*%
%ADD33C,2.900000*%
%ADD34R,1.300000X0.900000*%
%ADD35R,2.380000X4.360000*%
%ADD36O,2.380000X4.360000*%
%ADD37C,1.901140*%
%ADD38O,1.800000X4.200000*%
%ADD39C,1.900000*%
%ADD40R,1.000000X0.750000*%
G04 APERTURE END LIST*
D10*
X941428Y-14749428D02*
X741428Y-14463714D01*
X598571Y-14749428D02*
X598571Y-14149428D01*
X827142Y-14149428D01*
X884285Y-14178000D01*
X912857Y-14206571D01*
X941428Y-14263714D01*
X941428Y-14349428D01*
X912857Y-14406571D01*
X884285Y-14435142D01*
X827142Y-14463714D01*
X598571Y-14463714D01*
X1170000Y-14720857D02*
X1255714Y-14749428D01*
X1398571Y-14749428D01*
X1455714Y-14720857D01*
X1484285Y-14692285D01*
X1512857Y-14635142D01*
X1512857Y-14578000D01*
X1484285Y-14520857D01*
X1455714Y-14492285D01*
X1398571Y-14463714D01*
X1284285Y-14435142D01*
X1227142Y-14406571D01*
X1198571Y-14378000D01*
X1170000Y-14320857D01*
X1170000Y-14263714D01*
X1198571Y-14206571D01*
X1227142Y-14178000D01*
X1284285Y-14149428D01*
X1427142Y-14149428D01*
X1512857Y-14178000D01*
X1684285Y-14149428D02*
X2027142Y-14149428D01*
X1855714Y-14749428D02*
X1855714Y-14149428D01*
X527142Y-11609428D02*
X898571Y-11609428D01*
X698571Y-11838000D01*
X784285Y-11838000D01*
X841428Y-11866571D01*
X870000Y-11895142D01*
X898571Y-11952285D01*
X898571Y-12095142D01*
X870000Y-12152285D01*
X841428Y-12180857D01*
X784285Y-12209428D01*
X612857Y-12209428D01*
X555714Y-12180857D01*
X527142Y-12152285D01*
X1070000Y-11609428D02*
X1270000Y-12209428D01*
X1470000Y-11609428D01*
X1612857Y-11609428D02*
X1984285Y-11609428D01*
X1784285Y-11838000D01*
X1870000Y-11838000D01*
X1927142Y-11866571D01*
X1955714Y-11895142D01*
X1984285Y-11952285D01*
X1984285Y-12095142D01*
X1955714Y-12152285D01*
X1927142Y-12180857D01*
X1870000Y-12209428D01*
X1698571Y-12209428D01*
X1641428Y-12180857D01*
X1612857Y-12152285D01*
X912857Y-9612285D02*
X884285Y-9640857D01*
X798571Y-9669428D01*
X741428Y-9669428D01*
X655714Y-9640857D01*
X598571Y-9583714D01*
X570000Y-9526571D01*
X541428Y-9412285D01*
X541428Y-9326571D01*
X570000Y-9212285D01*
X598571Y-9155142D01*
X655714Y-9098000D01*
X741428Y-9069428D01*
X798571Y-9069428D01*
X884285Y-9098000D01*
X912857Y-9126571D01*
X1455714Y-9669428D02*
X1170000Y-9669428D01*
X1170000Y-9069428D01*
X1655714Y-9669428D02*
X1655714Y-9069428D01*
X1998571Y-9669428D02*
X1741428Y-9326571D01*
X1998571Y-9069428D02*
X1655714Y-9412285D01*
X1884285Y-6586571D02*
X1884285Y-7186571D01*
X1741428Y-7186571D01*
X1655714Y-7158000D01*
X1598571Y-7100857D01*
X1570000Y-7043714D01*
X1541428Y-6929428D01*
X1541428Y-6843714D01*
X1570000Y-6729428D01*
X1598571Y-6672285D01*
X1655714Y-6615142D01*
X1741428Y-6586571D01*
X1884285Y-6586571D01*
X1284285Y-6586571D02*
X1284285Y-7186571D01*
X884285Y-7186571D02*
X770000Y-7186571D01*
X712857Y-7158000D01*
X655714Y-7100857D01*
X627142Y-6986571D01*
X627142Y-6786571D01*
X655714Y-6672285D01*
X712857Y-6615142D01*
X770000Y-6586571D01*
X884285Y-6586571D01*
X941428Y-6615142D01*
X998571Y-6672285D01*
X1027142Y-6786571D01*
X1027142Y-6986571D01*
X998571Y-7100857D01*
X941428Y-7158000D01*
X884285Y-7186571D01*
X1727142Y-4618000D02*
X1784285Y-4646571D01*
X1870000Y-4646571D01*
X1955714Y-4618000D01*
X2012857Y-4560857D01*
X2041428Y-4503714D01*
X2070000Y-4389428D01*
X2070000Y-4303714D01*
X2041428Y-4189428D01*
X2012857Y-4132285D01*
X1955714Y-4075142D01*
X1870000Y-4046571D01*
X1812857Y-4046571D01*
X1727142Y-4075142D01*
X1698571Y-4103714D01*
X1698571Y-4303714D01*
X1812857Y-4303714D01*
X1441428Y-4046571D02*
X1441428Y-4646571D01*
X1098571Y-4046571D01*
X1098571Y-4646571D01*
X812857Y-4046571D02*
X812857Y-4646571D01*
X670000Y-4646571D01*
X584285Y-4618000D01*
X527142Y-4560857D01*
X498571Y-4503714D01*
X470000Y-4389428D01*
X470000Y-4303714D01*
X498571Y-4189428D01*
X527142Y-4132285D01*
X584285Y-4075142D01*
X670000Y-4046571D01*
X812857Y-4046571D01*
D11*
X8470000Y-31335600D02*
X8470000Y-30335600D01*
X6770000Y-30335600D02*
X6770000Y-31335600D01*
X2024000Y-17952000D02*
X1024000Y-17952000D01*
X1024000Y-16592000D02*
X2024000Y-16592000D01*
D12*
X2906936Y-22672040D02*
G75*
G03X2906936Y-22672040I-77376J0D01*
G01*
X2921000Y-17780000D02*
X8001000Y-17780000D01*
X8001000Y-17780000D02*
X8001000Y-22352000D01*
X8001000Y-22352000D02*
X2921000Y-22352000D01*
X2921000Y-22352000D02*
X2921000Y-17780000D01*
X2921000Y-19304000D02*
X3429000Y-19304000D01*
X3429000Y-19304000D02*
X3429000Y-20574000D01*
X3429000Y-20574000D02*
X2921000Y-20574000D01*
D11*
X4834000Y-13798000D02*
X5834000Y-13798000D01*
X5834000Y-15158000D02*
X4834000Y-15158000D01*
X16000000Y-11994000D02*
X16000000Y-11064000D01*
X16000000Y-8834000D02*
X16000000Y-9764000D01*
X16000000Y-8834000D02*
X13840000Y-8834000D01*
X16000000Y-11994000D02*
X14540000Y-11994000D01*
X14482000Y-7587000D02*
X14982000Y-7587000D01*
X14982000Y-6637000D02*
X14482000Y-6637000D01*
D12*
X12921000Y-7870000D02*
X12921000Y-7370000D01*
X11971000Y-7370000D02*
X11971000Y-7870000D01*
D11*
X14858000Y-14986000D02*
X14858000Y-17526000D01*
X16638000Y-17526000D02*
X16638000Y-14986000D01*
X16638000Y-17526000D02*
X14858000Y-17526000D01*
X14858000Y-14986000D02*
X16638000Y-14986000D01*
X8146000Y-25410000D02*
X8146000Y-26340000D01*
X8146000Y-28570000D02*
X8146000Y-27640000D01*
X8146000Y-28570000D02*
X10306000Y-28570000D01*
X8146000Y-25410000D02*
X9606000Y-25410000D01*
X15529000Y-20606500D02*
X15529000Y-19906500D01*
X16729000Y-19906500D02*
X16729000Y-20606500D01*
X15329000Y-20316000D02*
X15329000Y-19816000D01*
X14389000Y-19816000D02*
X14389000Y-20316000D01*
X6106600Y-7506600D02*
X6106600Y-7806600D01*
X10438800Y-7455800D02*
X10438800Y-7755800D01*
X10489600Y-11864200D02*
X10489600Y-11564200D01*
X6177200Y-11433200D02*
X6177200Y-11133200D01*
X10438800Y-7455800D02*
X10138800Y-7455800D01*
X10489600Y-11864200D02*
X10189600Y-11864200D01*
X6106600Y-7506600D02*
X6406600Y-7506600D01*
D12*
X6059156Y-11946000D02*
G75*
G03X6059156Y-11946000I-85156J0D01*
G01*
X8386000Y-14699000D02*
X8886000Y-14699000D01*
X8886000Y-13749000D02*
X8386000Y-13749000D01*
D11*
X13300000Y-29876000D02*
X13300000Y-30576000D01*
X12100000Y-30576000D02*
X12100000Y-29876000D01*
X11688000Y-15202000D02*
X12188000Y-15202000D01*
X12188000Y-14262000D02*
X11688000Y-14262000D01*
X12704000Y-13678000D02*
X13204000Y-13678000D01*
X13204000Y-12738000D02*
X12704000Y-12738000D01*
X15322000Y-27424000D02*
X15322000Y-26424000D01*
X16682000Y-26424000D02*
X16682000Y-27424000D01*
X1510000Y-25278000D02*
X1510000Y-26208000D01*
X1510000Y-28438000D02*
X1510000Y-27508000D01*
X1510000Y-28438000D02*
X3670000Y-28438000D01*
X1510000Y-25278000D02*
X2970000Y-25278000D01*
X6522000Y-19566000D02*
X6522000Y-20566000D01*
X5162000Y-20566000D02*
X5162000Y-19566000D01*
X4490000Y-19566000D02*
X4490000Y-20566000D01*
X3130000Y-20566000D02*
X3130000Y-19566000D01*
X2712000Y-19566000D02*
X2712000Y-20566000D01*
X1352000Y-20566000D02*
X1352000Y-19566000D01*
X8046000Y-19554000D02*
X8046000Y-20554000D01*
X6686000Y-20554000D02*
X6686000Y-19554000D01*
X12210000Y-25278000D02*
X12210000Y-26208000D01*
X12210000Y-28438000D02*
X12210000Y-27508000D01*
X12210000Y-28438000D02*
X14370000Y-28438000D01*
X12210000Y-25278000D02*
X13670000Y-25278000D01*
D12*
X14097000Y-20843000D02*
G75*
G03X14097000Y-20843000I-127000J0D01*
G01*
X13589000Y-20843000D02*
X10414000Y-20843000D01*
X13589000Y-17541000D02*
X13589000Y-20843000D01*
X10414000Y-17541000D02*
X13589000Y-17541000D01*
X10414000Y-20843000D02*
X10414000Y-17541000D01*
D13*
X7712057Y-30902266D02*
X7731104Y-30921314D01*
X7750152Y-30978457D01*
X7750152Y-31016552D01*
X7731104Y-31073695D01*
X7693009Y-31111790D01*
X7654914Y-31130838D01*
X7578723Y-31149885D01*
X7521580Y-31149885D01*
X7445390Y-31130838D01*
X7407295Y-31111790D01*
X7369200Y-31073695D01*
X7350152Y-31016552D01*
X7350152Y-30978457D01*
X7369200Y-30921314D01*
X7388247Y-30902266D01*
X7388247Y-30749885D02*
X7369200Y-30730838D01*
X7350152Y-30692742D01*
X7350152Y-30597504D01*
X7369200Y-30559409D01*
X7388247Y-30540361D01*
X7426342Y-30521314D01*
X7464438Y-30521314D01*
X7521580Y-30540361D01*
X7750152Y-30768933D01*
X7750152Y-30521314D01*
X1457333Y-17452952D02*
X1324000Y-17262476D01*
X1228761Y-17452952D02*
X1228761Y-17052952D01*
X1381142Y-17052952D01*
X1419238Y-17072000D01*
X1438285Y-17091047D01*
X1457333Y-17129142D01*
X1457333Y-17186285D01*
X1438285Y-17224380D01*
X1419238Y-17243428D01*
X1381142Y-17262476D01*
X1228761Y-17262476D01*
X1819238Y-17052952D02*
X1628761Y-17052952D01*
X1609714Y-17243428D01*
X1628761Y-17224380D01*
X1666857Y-17205333D01*
X1762095Y-17205333D01*
X1800190Y-17224380D01*
X1819238Y-17243428D01*
X1838285Y-17281523D01*
X1838285Y-17376761D01*
X1819238Y-17414857D01*
X1800190Y-17433904D01*
X1762095Y-17452952D01*
X1666857Y-17452952D01*
X1628761Y-17433904D01*
X1609714Y-17414857D01*
X2066952Y-22148761D02*
X2390761Y-22148761D01*
X2428857Y-22129714D01*
X2447904Y-22110666D01*
X2466952Y-22072571D01*
X2466952Y-21996380D01*
X2447904Y-21958285D01*
X2428857Y-21939238D01*
X2390761Y-21920190D01*
X2066952Y-21920190D01*
X2105047Y-21748761D02*
X2086000Y-21729714D01*
X2066952Y-21691619D01*
X2066952Y-21596380D01*
X2086000Y-21558285D01*
X2105047Y-21539238D01*
X2143142Y-21520190D01*
X2181238Y-21520190D01*
X2238380Y-21539238D01*
X2466952Y-21767809D01*
X2466952Y-21520190D01*
X5267333Y-14658952D02*
X5134000Y-14468476D01*
X5038761Y-14658952D02*
X5038761Y-14258952D01*
X5191142Y-14258952D01*
X5229238Y-14278000D01*
X5248285Y-14297047D01*
X5267333Y-14335142D01*
X5267333Y-14392285D01*
X5248285Y-14430380D01*
X5229238Y-14449428D01*
X5191142Y-14468476D01*
X5038761Y-14468476D01*
X5400666Y-14258952D02*
X5648285Y-14258952D01*
X5514952Y-14411333D01*
X5572095Y-14411333D01*
X5610190Y-14430380D01*
X5629238Y-14449428D01*
X5648285Y-14487523D01*
X5648285Y-14582761D01*
X5629238Y-14620857D01*
X5610190Y-14639904D01*
X5572095Y-14658952D01*
X5457809Y-14658952D01*
X5419714Y-14639904D01*
X5400666Y-14620857D01*
X16306952Y-12054761D02*
X16630761Y-12054761D01*
X16668857Y-12035714D01*
X16687904Y-12016666D01*
X16706952Y-11978571D01*
X16706952Y-11902380D01*
X16687904Y-11864285D01*
X16668857Y-11845238D01*
X16630761Y-11826190D01*
X16306952Y-11826190D01*
X16306952Y-11673809D02*
X16306952Y-11426190D01*
X16459333Y-11559523D01*
X16459333Y-11502380D01*
X16478380Y-11464285D01*
X16497428Y-11445238D01*
X16535523Y-11426190D01*
X16630761Y-11426190D01*
X16668857Y-11445238D01*
X16687904Y-11464285D01*
X16706952Y-11502380D01*
X16706952Y-11616666D01*
X16687904Y-11654761D01*
X16668857Y-11673809D01*
X16398857Y-7178666D02*
X16417904Y-7197714D01*
X16436952Y-7254857D01*
X16436952Y-7292952D01*
X16417904Y-7350095D01*
X16379809Y-7388190D01*
X16341714Y-7407238D01*
X16265523Y-7426285D01*
X16208380Y-7426285D01*
X16132190Y-7407238D01*
X16094095Y-7388190D01*
X16056000Y-7350095D01*
X16036952Y-7292952D01*
X16036952Y-7254857D01*
X16056000Y-7197714D01*
X16075047Y-7178666D01*
X16036952Y-6816761D02*
X16036952Y-7007238D01*
X16227428Y-7026285D01*
X16208380Y-7007238D01*
X16189333Y-6969142D01*
X16189333Y-6873904D01*
X16208380Y-6835809D01*
X16227428Y-6816761D01*
X16265523Y-6797714D01*
X16360761Y-6797714D01*
X16398857Y-6816761D01*
X16417904Y-6835809D01*
X16436952Y-6873904D01*
X16436952Y-6969142D01*
X16417904Y-7007238D01*
X16398857Y-7026285D01*
X12379333Y-9262857D02*
X12360285Y-9281904D01*
X12303142Y-9300952D01*
X12265047Y-9300952D01*
X12207904Y-9281904D01*
X12169809Y-9243809D01*
X12150761Y-9205714D01*
X12131714Y-9129523D01*
X12131714Y-9072380D01*
X12150761Y-8996190D01*
X12169809Y-8958095D01*
X12207904Y-8920000D01*
X12265047Y-8900952D01*
X12303142Y-8900952D01*
X12360285Y-8920000D01*
X12379333Y-8939047D01*
X12607904Y-9072380D02*
X12569809Y-9053333D01*
X12550761Y-9034285D01*
X12531714Y-8996190D01*
X12531714Y-8977142D01*
X12550761Y-8939047D01*
X12569809Y-8920000D01*
X12607904Y-8900952D01*
X12684095Y-8900952D01*
X12722190Y-8920000D01*
X12741238Y-8939047D01*
X12760285Y-8977142D01*
X12760285Y-8996190D01*
X12741238Y-9034285D01*
X12722190Y-9053333D01*
X12684095Y-9072380D01*
X12607904Y-9072380D01*
X12569809Y-9091428D01*
X12550761Y-9110476D01*
X12531714Y-9148571D01*
X12531714Y-9224761D01*
X12550761Y-9262857D01*
X12569809Y-9281904D01*
X12607904Y-9300952D01*
X12684095Y-9300952D01*
X12722190Y-9281904D01*
X12741238Y-9262857D01*
X12760285Y-9224761D01*
X12760285Y-9148571D01*
X12741238Y-9110476D01*
X12722190Y-9091428D01*
X12684095Y-9072380D01*
X14004952Y-15627333D02*
X14290666Y-15627333D01*
X14347809Y-15646380D01*
X14385904Y-15684476D01*
X14404952Y-15741619D01*
X14404952Y-15779714D01*
X14004952Y-15474952D02*
X14004952Y-15227333D01*
X14157333Y-15360666D01*
X14157333Y-15303523D01*
X14176380Y-15265428D01*
X14195428Y-15246380D01*
X14233523Y-15227333D01*
X14328761Y-15227333D01*
X14366857Y-15246380D01*
X14385904Y-15265428D01*
X14404952Y-15303523D01*
X14404952Y-15417809D01*
X14385904Y-15455904D01*
X14366857Y-15474952D01*
X9086952Y-27219238D02*
X8686952Y-27219238D01*
X8686952Y-27124000D01*
X8706000Y-27066857D01*
X8744095Y-27028761D01*
X8782190Y-27009714D01*
X8858380Y-26990666D01*
X8915523Y-26990666D01*
X8991714Y-27009714D01*
X9029809Y-27028761D01*
X9067904Y-27066857D01*
X9086952Y-27124000D01*
X9086952Y-27219238D01*
X8725047Y-26838285D02*
X8706000Y-26819238D01*
X8686952Y-26781142D01*
X8686952Y-26685904D01*
X8706000Y-26647809D01*
X8725047Y-26628761D01*
X8763142Y-26609714D01*
X8801238Y-26609714D01*
X8858380Y-26628761D01*
X9086952Y-26857333D01*
X9086952Y-26609714D01*
X17160857Y-20323166D02*
X17179904Y-20342214D01*
X17198952Y-20399357D01*
X17198952Y-20437452D01*
X17179904Y-20494595D01*
X17141809Y-20532690D01*
X17103714Y-20551738D01*
X17027523Y-20570785D01*
X16970380Y-20570785D01*
X16894190Y-20551738D01*
X16856095Y-20532690D01*
X16818000Y-20494595D01*
X16798952Y-20437452D01*
X16798952Y-20399357D01*
X16818000Y-20342214D01*
X16837047Y-20323166D01*
X16798952Y-20189833D02*
X16798952Y-19923166D01*
X17198952Y-20094595D01*
X14792333Y-21605857D02*
X14773285Y-21624904D01*
X14716142Y-21643952D01*
X14678047Y-21643952D01*
X14620904Y-21624904D01*
X14582809Y-21586809D01*
X14563761Y-21548714D01*
X14544714Y-21472523D01*
X14544714Y-21415380D01*
X14563761Y-21339190D01*
X14582809Y-21301095D01*
X14620904Y-21263000D01*
X14678047Y-21243952D01*
X14716142Y-21243952D01*
X14773285Y-21263000D01*
X14792333Y-21282047D01*
X14925666Y-21243952D02*
X15173285Y-21243952D01*
X15039952Y-21396333D01*
X15097095Y-21396333D01*
X15135190Y-21415380D01*
X15154238Y-21434428D01*
X15173285Y-21472523D01*
X15173285Y-21567761D01*
X15154238Y-21605857D01*
X15135190Y-21624904D01*
X15097095Y-21643952D01*
X14982809Y-21643952D01*
X14944714Y-21624904D01*
X14925666Y-21605857D01*
X4733952Y-11861761D02*
X5057761Y-11861761D01*
X5095857Y-11842714D01*
X5114904Y-11823666D01*
X5133952Y-11785571D01*
X5133952Y-11709380D01*
X5114904Y-11671285D01*
X5095857Y-11652238D01*
X5057761Y-11633190D01*
X4733952Y-11633190D01*
X4867285Y-11271285D02*
X5133952Y-11271285D01*
X4714904Y-11366523D02*
X5000619Y-11461761D01*
X5000619Y-11214142D01*
X10302857Y-14290666D02*
X10321904Y-14309714D01*
X10340952Y-14366857D01*
X10340952Y-14404952D01*
X10321904Y-14462095D01*
X10283809Y-14500190D01*
X10245714Y-14519238D01*
X10169523Y-14538285D01*
X10112380Y-14538285D01*
X10036190Y-14519238D01*
X9998095Y-14500190D01*
X9960000Y-14462095D01*
X9940952Y-14404952D01*
X9940952Y-14366857D01*
X9960000Y-14309714D01*
X9979047Y-14290666D01*
X10340952Y-14100190D02*
X10340952Y-14024000D01*
X10321904Y-13985904D01*
X10302857Y-13966857D01*
X10245714Y-13928761D01*
X10169523Y-13909714D01*
X10017142Y-13909714D01*
X9979047Y-13928761D01*
X9960000Y-13947809D01*
X9940952Y-13985904D01*
X9940952Y-14062095D01*
X9960000Y-14100190D01*
X9979047Y-14119238D01*
X10017142Y-14138285D01*
X10112380Y-14138285D01*
X10150476Y-14119238D01*
X10169523Y-14100190D01*
X10188571Y-14062095D01*
X10188571Y-13985904D01*
X10169523Y-13947809D01*
X10150476Y-13928761D01*
X10112380Y-13909714D01*
X12633333Y-32146857D02*
X12614285Y-32165904D01*
X12557142Y-32184952D01*
X12519047Y-32184952D01*
X12461904Y-32165904D01*
X12423809Y-32127809D01*
X12404761Y-32089714D01*
X12385714Y-32013523D01*
X12385714Y-31956380D01*
X12404761Y-31880190D01*
X12423809Y-31842095D01*
X12461904Y-31804000D01*
X12519047Y-31784952D01*
X12557142Y-31784952D01*
X12614285Y-31804000D01*
X12633333Y-31823047D01*
X13014285Y-32184952D02*
X12785714Y-32184952D01*
X12900000Y-32184952D02*
X12900000Y-31784952D01*
X12861904Y-31842095D01*
X12823809Y-31880190D01*
X12785714Y-31899238D01*
X13604857Y-14798666D02*
X13623904Y-14817714D01*
X13642952Y-14874857D01*
X13642952Y-14912952D01*
X13623904Y-14970095D01*
X13585809Y-15008190D01*
X13547714Y-15027238D01*
X13471523Y-15046285D01*
X13414380Y-15046285D01*
X13338190Y-15027238D01*
X13300095Y-15008190D01*
X13262000Y-14970095D01*
X13242952Y-14912952D01*
X13242952Y-14874857D01*
X13262000Y-14817714D01*
X13281047Y-14798666D01*
X13376285Y-14455809D02*
X13642952Y-14455809D01*
X13223904Y-14551047D02*
X13509619Y-14646285D01*
X13509619Y-14398666D01*
X14620857Y-13274666D02*
X14639904Y-13293714D01*
X14658952Y-13350857D01*
X14658952Y-13388952D01*
X14639904Y-13446095D01*
X14601809Y-13484190D01*
X14563714Y-13503238D01*
X14487523Y-13522285D01*
X14430380Y-13522285D01*
X14354190Y-13503238D01*
X14316095Y-13484190D01*
X14278000Y-13446095D01*
X14258952Y-13388952D01*
X14258952Y-13350857D01*
X14278000Y-13293714D01*
X14297047Y-13274666D01*
X14258952Y-12931809D02*
X14258952Y-13008000D01*
X14278000Y-13046095D01*
X14297047Y-13065142D01*
X14354190Y-13103238D01*
X14430380Y-13122285D01*
X14582761Y-13122285D01*
X14620857Y-13103238D01*
X14639904Y-13084190D01*
X14658952Y-13046095D01*
X14658952Y-12969904D01*
X14639904Y-12931809D01*
X14620857Y-12912761D01*
X14582761Y-12893714D01*
X14487523Y-12893714D01*
X14449428Y-12912761D01*
X14430380Y-12931809D01*
X14411333Y-12969904D01*
X14411333Y-13046095D01*
X14430380Y-13084190D01*
X14449428Y-13103238D01*
X14487523Y-13122285D01*
X16182952Y-26990666D02*
X15992476Y-27124000D01*
X16182952Y-27219238D02*
X15782952Y-27219238D01*
X15782952Y-27066857D01*
X15802000Y-27028761D01*
X15821047Y-27009714D01*
X15859142Y-26990666D01*
X15916285Y-26990666D01*
X15954380Y-27009714D01*
X15973428Y-27028761D01*
X15992476Y-27066857D01*
X15992476Y-27219238D01*
X16182952Y-26609714D02*
X16182952Y-26838285D01*
X16182952Y-26724000D02*
X15782952Y-26724000D01*
X15840095Y-26762095D01*
X15878190Y-26800190D01*
X15897238Y-26838285D01*
X2450952Y-27087238D02*
X2050952Y-27087238D01*
X2050952Y-26992000D01*
X2070000Y-26934857D01*
X2108095Y-26896761D01*
X2146190Y-26877714D01*
X2222380Y-26858666D01*
X2279523Y-26858666D01*
X2355714Y-26877714D01*
X2393809Y-26896761D01*
X2431904Y-26934857D01*
X2450952Y-26992000D01*
X2450952Y-27087238D01*
X2450952Y-26477714D02*
X2450952Y-26706285D01*
X2450952Y-26592000D02*
X2050952Y-26592000D01*
X2108095Y-26630095D01*
X2146190Y-26668190D01*
X2165238Y-26706285D01*
X6022952Y-20132666D02*
X5832476Y-20266000D01*
X6022952Y-20361238D02*
X5622952Y-20361238D01*
X5622952Y-20208857D01*
X5642000Y-20170761D01*
X5661047Y-20151714D01*
X5699142Y-20132666D01*
X5756285Y-20132666D01*
X5794380Y-20151714D01*
X5813428Y-20170761D01*
X5832476Y-20208857D01*
X5832476Y-20361238D01*
X5756285Y-19789809D02*
X6022952Y-19789809D01*
X5603904Y-19885047D02*
X5889619Y-19980285D01*
X5889619Y-19732666D01*
X3990952Y-20132666D02*
X3800476Y-20266000D01*
X3990952Y-20361238D02*
X3590952Y-20361238D01*
X3590952Y-20208857D01*
X3610000Y-20170761D01*
X3629047Y-20151714D01*
X3667142Y-20132666D01*
X3724285Y-20132666D01*
X3762380Y-20151714D01*
X3781428Y-20170761D01*
X3800476Y-20208857D01*
X3800476Y-20361238D01*
X3590952Y-19789809D02*
X3590952Y-19866000D01*
X3610000Y-19904095D01*
X3629047Y-19923142D01*
X3686190Y-19961238D01*
X3762380Y-19980285D01*
X3914761Y-19980285D01*
X3952857Y-19961238D01*
X3971904Y-19942190D01*
X3990952Y-19904095D01*
X3990952Y-19827904D01*
X3971904Y-19789809D01*
X3952857Y-19770761D01*
X3914761Y-19751714D01*
X3819523Y-19751714D01*
X3781428Y-19770761D01*
X3762380Y-19789809D01*
X3743333Y-19827904D01*
X3743333Y-19904095D01*
X3762380Y-19942190D01*
X3781428Y-19961238D01*
X3819523Y-19980285D01*
X2212952Y-20132666D02*
X2022476Y-20266000D01*
X2212952Y-20361238D02*
X1812952Y-20361238D01*
X1812952Y-20208857D01*
X1832000Y-20170761D01*
X1851047Y-20151714D01*
X1889142Y-20132666D01*
X1946285Y-20132666D01*
X1984380Y-20151714D01*
X2003428Y-20170761D01*
X2022476Y-20208857D01*
X2022476Y-20361238D01*
X1812952Y-19999333D02*
X1812952Y-19732666D01*
X2212952Y-19904095D01*
X7546952Y-20120666D02*
X7356476Y-20254000D01*
X7546952Y-20349238D02*
X7146952Y-20349238D01*
X7146952Y-20196857D01*
X7166000Y-20158761D01*
X7185047Y-20139714D01*
X7223142Y-20120666D01*
X7280285Y-20120666D01*
X7318380Y-20139714D01*
X7337428Y-20158761D01*
X7356476Y-20196857D01*
X7356476Y-20349238D01*
X7318380Y-19892095D02*
X7299333Y-19930190D01*
X7280285Y-19949238D01*
X7242190Y-19968285D01*
X7223142Y-19968285D01*
X7185047Y-19949238D01*
X7166000Y-19930190D01*
X7146952Y-19892095D01*
X7146952Y-19815904D01*
X7166000Y-19777809D01*
X7185047Y-19758761D01*
X7223142Y-19739714D01*
X7242190Y-19739714D01*
X7280285Y-19758761D01*
X7299333Y-19777809D01*
X7318380Y-19815904D01*
X7318380Y-19892095D01*
X7337428Y-19930190D01*
X7356476Y-19949238D01*
X7394571Y-19968285D01*
X7470761Y-19968285D01*
X7508857Y-19949238D01*
X7527904Y-19930190D01*
X7546952Y-19892095D01*
X7546952Y-19815904D01*
X7527904Y-19777809D01*
X7508857Y-19758761D01*
X7470761Y-19739714D01*
X7394571Y-19739714D01*
X7356476Y-19758761D01*
X7337428Y-19777809D01*
X7318380Y-19815904D01*
X13150952Y-27153238D02*
X12750952Y-27153238D01*
X12750952Y-27058000D01*
X12770000Y-27000857D01*
X12808095Y-26962761D01*
X12846190Y-26943714D01*
X12922380Y-26924666D01*
X12979523Y-26924666D01*
X13055714Y-26943714D01*
X13093809Y-26962761D01*
X13131904Y-27000857D01*
X13150952Y-27058000D01*
X13150952Y-27153238D01*
X12750952Y-26791333D02*
X12750952Y-26543714D01*
X12903333Y-26677047D01*
X12903333Y-26619904D01*
X12922380Y-26581809D01*
X12941428Y-26562761D01*
X12979523Y-26543714D01*
X13074761Y-26543714D01*
X13112857Y-26562761D01*
X13131904Y-26581809D01*
X13150952Y-26619904D01*
X13150952Y-26734190D01*
X13131904Y-26772285D01*
X13112857Y-26791333D01*
X12903238Y-21228952D02*
X12903238Y-21552761D01*
X12922285Y-21590857D01*
X12941333Y-21609904D01*
X12979428Y-21628952D01*
X13055619Y-21628952D01*
X13093714Y-21609904D01*
X13112761Y-21590857D01*
X13131809Y-21552761D01*
X13131809Y-21228952D01*
X13531809Y-21628952D02*
X13303238Y-21628952D01*
X13417523Y-21628952D02*
X13417523Y-21228952D01*
X13379428Y-21286095D01*
X13341333Y-21324190D01*
X13303238Y-21343238D01*
%LPC*%
D14*
X7620000Y-29835600D03*
X7620000Y-31835600D03*
D15*
X774000Y-17272000D03*
X2274000Y-17272000D03*
D16*
X3556000Y-17566000D03*
X4826000Y-17566000D03*
X6096000Y-17566000D03*
X7366000Y-17566000D03*
X7366000Y-22566000D03*
X6096000Y-22566000D03*
X4826000Y-22566000D03*
X3556000Y-22566000D03*
D15*
X6084000Y-14478000D03*
X4584000Y-14478000D03*
D17*
X14240000Y-9464000D03*
X14240000Y-11364000D03*
X16240000Y-10414000D03*
D18*
X15282000Y-7112000D03*
X14182000Y-7112000D03*
D19*
X12446000Y-7070000D03*
X12446000Y-8170000D03*
D20*
X1524000Y-15748000D03*
X1524000Y-8128000D03*
X1524000Y-10668000D03*
X1524000Y-5588000D03*
X1524000Y-13208000D03*
D21*
X15748000Y-14986000D03*
D22*
X15748000Y-17526000D03*
D23*
X15748000Y-15616000D03*
X15748000Y-16896000D03*
D17*
X9906000Y-27940000D03*
X9906000Y-26040000D03*
X7906000Y-26990000D03*
D24*
X16129000Y-21006500D03*
X16129000Y-19506500D03*
D19*
X14859000Y-19516000D03*
X14859000Y-20616000D03*
D25*
X6310000Y-8660000D03*
D26*
X7260000Y-7710000D03*
X9260000Y-7710000D03*
D25*
X10210000Y-8660000D03*
X6310000Y-10660000D03*
X10210000Y-10160000D03*
D26*
X8760000Y-11610000D03*
X7760000Y-11610000D03*
D27*
X6860000Y-11060000D03*
X6860000Y-8260000D03*
X9660000Y-8260000D03*
X9660000Y-11060000D03*
D28*
X9762920Y-7857080D03*
D10*
G36*
X9914241Y-7857080D02*
X9762920Y-8008401D01*
X9611599Y-7857080D01*
X9762920Y-7705759D01*
X9914241Y-7857080D01*
X9914241Y-7857080D01*
G37*
D28*
X9768000Y-11462920D03*
D10*
G36*
X9919321Y-11462920D02*
X9768000Y-11614241D01*
X9616679Y-11462920D01*
X9768000Y-11311599D01*
X9919321Y-11462920D01*
X9919321Y-11462920D01*
G37*
D28*
X6752000Y-7862160D03*
D10*
G36*
X6903321Y-7862160D02*
X6752000Y-8013481D01*
X6600679Y-7862160D01*
X6752000Y-7710839D01*
X6903321Y-7862160D01*
X6903321Y-7862160D01*
G37*
D28*
X6751240Y-11458320D03*
D10*
G36*
X6902561Y-11458320D02*
X6751240Y-11609641D01*
X6599919Y-11458320D01*
X6751240Y-11306999D01*
X6902561Y-11458320D01*
X6902561Y-11458320D01*
G37*
D28*
X10062920Y-8157080D03*
D10*
G36*
X10214241Y-8157080D02*
X10062920Y-8308401D01*
X9911599Y-8157080D01*
X10062920Y-8005759D01*
X10214241Y-8157080D01*
X10214241Y-8157080D01*
G37*
D28*
X10068000Y-11168000D03*
D10*
G36*
X10219321Y-11168000D02*
X10068000Y-11319321D01*
X9916679Y-11168000D01*
X10068000Y-11016679D01*
X10219321Y-11168000D01*
X10219321Y-11168000D01*
G37*
D28*
X6462160Y-8157080D03*
D10*
G36*
X6613481Y-8157080D02*
X6462160Y-8308401D01*
X6310839Y-8157080D01*
X6462160Y-8005759D01*
X6613481Y-8157080D01*
X6613481Y-8157080D01*
G37*
D28*
X6451520Y-11163680D03*
D10*
G36*
X6602841Y-11163680D02*
X6451520Y-11315001D01*
X6300199Y-11163680D01*
X6451520Y-11012359D01*
X6602841Y-11163680D01*
X6602841Y-11163680D01*
G37*
D29*
X6527720Y-11087920D03*
X6537160Y-8232080D03*
X6827000Y-7937160D03*
X9687920Y-7932080D03*
X9987920Y-8232080D03*
X9993000Y-11093000D03*
X9693000Y-11387920D03*
X6827440Y-11382120D03*
D30*
X6202600Y-11163680D03*
D25*
X6310000Y-10160000D03*
X6310000Y-9660000D03*
X6310000Y-9160000D03*
D30*
X6212760Y-8157080D03*
D31*
X6751240Y-7607680D03*
D26*
X7760000Y-7710000D03*
X8260000Y-7710000D03*
X8760000Y-7710000D03*
D31*
X9763680Y-7607680D03*
D30*
X10312320Y-8156320D03*
D25*
X10210000Y-9160000D03*
X10210000Y-9660000D03*
X10210000Y-10660000D03*
D30*
X10317400Y-11168760D03*
D31*
X9768000Y-11712320D03*
D26*
X9260000Y-11610000D03*
X8260000Y-11610000D03*
X7260000Y-11610000D03*
D31*
X6752000Y-11709040D03*
D18*
X9186000Y-14224000D03*
X8086000Y-14224000D03*
D32*
X8636000Y-1778000D03*
D33*
X1778000Y-31496000D03*
D24*
X12700000Y-29476000D03*
X12700000Y-30976000D03*
D18*
X12488000Y-14732000D03*
X11388000Y-14732000D03*
X13504000Y-13208000D03*
X12404000Y-13208000D03*
D34*
X16002000Y-26174000D03*
X16002000Y-27674000D03*
D17*
X3270000Y-27808000D03*
X3270000Y-25908000D03*
X1270000Y-26858000D03*
D21*
X10668000Y-23114000D03*
D22*
X13208000Y-23114000D03*
X15748000Y-23114000D03*
D35*
X15160000Y-31242000D03*
D36*
X10160000Y-31242000D03*
X5160000Y-31242000D03*
D34*
X5842000Y-20816000D03*
X5842000Y-19316000D03*
X3810000Y-20816000D03*
X3810000Y-19316000D03*
X2032000Y-20816000D03*
X2032000Y-19316000D03*
X7366000Y-20804000D03*
X7366000Y-19304000D03*
D17*
X13970000Y-27808000D03*
X13970000Y-25908000D03*
X11970000Y-26858000D03*
D37*
X12192860Y-4574120D03*
X9652860Y-4574120D03*
X7620860Y-4574120D03*
X5080860Y-4574120D03*
D38*
X14478000Y-2286000D03*
X2794000Y-2286000D03*
D39*
X6350000Y-2159000D03*
X10922000Y-2159000D03*
D40*
X10598000Y-20208000D03*
X10598000Y-19558000D03*
X13338000Y-18908000D03*
X10598000Y-18258000D03*
X13338000Y-20208000D03*
X13338000Y-19558000D03*
X10598000Y-18908000D03*
X13338000Y-18258000D03*
M02*
