G04 #@! TF.GenerationSoftware,KiCad,Pcbnew,(2018-02-16 revision c95340fba)-makepkg*
G04 #@! TF.CreationDate,2018-05-01T15:17:05+02:00*
G04 #@! TF.ProjectId,LIN_USB_CONVERTER,4C494E5F5553425F434F4E5645525445,rev?*
G04 #@! TF.SameCoordinates,Original*
G04 #@! TF.FileFunction,Other,Fab,Bot*
%FSLAX46Y46*%
G04 Gerber Fmt 4.6, Leading zero omitted, Abs format (unit mm)*
G04 Created by KiCad (PCBNEW (2018-02-16 revision c95340fba)-makepkg) date 05/01/18 15:17:05*
%MOMM*%
%LPD*%
G01*
G04 APERTURE LIST*
%ADD10C,0.100000*%
%ADD11C,0.090000*%
G04 APERTURE END LIST*
D10*
X148858000Y-92895000D02*
X148858000Y-94800000D01*
X148858000Y-94800000D02*
X156478000Y-94800000D01*
X156478000Y-94800000D02*
X156478000Y-92260000D01*
X156478000Y-92260000D02*
X149493000Y-92260000D01*
X149493000Y-92260000D02*
X148858000Y-92895000D01*
X142243200Y-100869600D02*
X157423200Y-100869600D01*
X146883200Y-105509600D02*
X146883200Y-101259600D01*
X142813200Y-107729600D02*
X147323200Y-107729600D01*
X147323200Y-98329600D02*
X142303200Y-98329600D01*
X157483200Y-95289600D02*
X142243200Y-95289600D01*
X146483200Y-101259600D02*
X143183200Y-101259600D01*
X146863200Y-101259600D02*
X146483200Y-101259600D01*
X142803200Y-101259600D02*
X143183200Y-101259600D01*
X146333200Y-97189600D02*
X143283200Y-96559600D01*
X146463200Y-97059600D02*
X143413200Y-96429600D01*
X142803200Y-98079600D02*
X146863200Y-98079600D01*
X142803200Y-95539600D02*
X142803200Y-98079600D01*
X146863200Y-95539600D02*
X142803200Y-95539600D01*
X146863200Y-98079600D02*
X146863200Y-95539600D01*
X142243200Y-98329600D02*
X142243200Y-99859600D01*
X142243200Y-100869600D02*
X142243200Y-105569600D01*
X142243200Y-99859600D02*
X142243200Y-100869600D01*
X143183200Y-102019600D02*
X143563200Y-102019600D01*
X146483200Y-102019600D02*
X146103200Y-102019600D01*
X146483200Y-105189600D02*
X146483200Y-102019600D01*
X143183200Y-105189600D02*
X146483200Y-105189600D01*
X143183200Y-105189600D02*
X143183200Y-102019600D01*
X142803200Y-105829600D02*
X142803200Y-107729600D01*
X146863200Y-105829600D02*
X142803200Y-105829600D01*
X142803200Y-107729600D02*
X142243200Y-107729600D01*
X142803200Y-101259600D02*
X142803200Y-105829600D01*
X146863200Y-107729600D02*
X146863200Y-105829600D01*
X141733200Y-105319600D02*
X141733200Y-106969600D01*
X142243200Y-105569600D02*
X142243200Y-106719600D01*
X141733200Y-105319600D02*
X142243200Y-105569600D01*
X142243200Y-106719600D02*
X142243200Y-107729600D01*
X141733200Y-106969600D02*
X142243200Y-106719600D01*
X141733200Y-100109600D02*
X142243200Y-99859600D01*
X141733200Y-95289600D02*
X141733200Y-100109600D01*
X142243200Y-95289600D02*
X141733200Y-95289600D01*
X142243200Y-95289600D02*
X142243200Y-98329600D01*
X146103200Y-104049600D02*
X146103200Y-101259600D01*
X146103200Y-101259600D02*
X143563200Y-101259600D01*
X143563200Y-104049600D02*
X143563200Y-101259600D01*
X146103200Y-104049600D02*
X143563200Y-104049600D01*
X156183200Y-104049600D02*
X153643200Y-104049600D01*
X153643200Y-104049600D02*
X153643200Y-101259600D01*
X156183200Y-101259600D02*
X153643200Y-101259600D01*
X156183200Y-104049600D02*
X156183200Y-101259600D01*
X151183200Y-104049600D02*
X148643200Y-104049600D01*
X148643200Y-104049600D02*
X148643200Y-101259600D01*
X151183200Y-101259600D02*
X148643200Y-101259600D01*
X151183200Y-104049600D02*
X151183200Y-101259600D01*
X146883200Y-106719600D02*
X146883200Y-107729600D01*
X146883200Y-105569600D02*
X146883200Y-106719600D01*
X151943200Y-107729600D02*
X151943200Y-105829600D01*
X147883200Y-101259600D02*
X147883200Y-105829600D01*
X151943200Y-107729600D02*
X147883200Y-107729600D01*
X147883200Y-107729600D02*
X147323200Y-107729600D01*
X152883200Y-107729600D02*
X152883200Y-105829600D01*
X152883200Y-107729600D02*
X151943200Y-107729600D01*
X156953200Y-101259600D02*
X156953200Y-105829600D01*
X157483200Y-107729600D02*
X156953200Y-107729600D01*
X156953200Y-107729600D02*
X152883200Y-107729600D01*
X151943200Y-105829600D02*
X147883200Y-105829600D01*
X151943200Y-105829600D02*
X151943200Y-101259600D01*
X147883200Y-105829600D02*
X147883200Y-107729600D01*
X152883200Y-105829600D02*
X156953200Y-105829600D01*
X152883200Y-105829600D02*
X152883200Y-101259600D01*
X156953200Y-105829600D02*
X156953200Y-107729600D01*
X148263200Y-105189600D02*
X148263200Y-102019600D01*
X148263200Y-105189600D02*
X151563200Y-105189600D01*
X151563200Y-105189600D02*
X151563200Y-102019600D01*
X153263200Y-105189600D02*
X153263200Y-102019600D01*
X153263200Y-105189600D02*
X156573200Y-105189600D01*
X156573200Y-105189600D02*
X156573200Y-102019600D01*
X156573200Y-102019600D02*
X156183200Y-102019600D01*
X153263200Y-102019600D02*
X153643200Y-102019600D01*
X151563200Y-102019600D02*
X151183200Y-102019600D01*
X148263200Y-102019600D02*
X148643200Y-102019600D01*
X157483200Y-107729600D02*
X157483200Y-100869600D01*
X157483200Y-100869600D02*
X157483200Y-98329600D01*
X157483200Y-98329600D02*
X147323200Y-98329600D01*
X157483200Y-98329600D02*
X157483200Y-95289600D01*
X151943200Y-98079600D02*
X151943200Y-95539600D01*
X151943200Y-95539600D02*
X147883200Y-95539600D01*
X147883200Y-95539600D02*
X147883200Y-98079600D01*
X147883200Y-98079600D02*
X151943200Y-98079600D01*
X152883200Y-98079600D02*
X152883200Y-95539600D01*
X152883200Y-98079600D02*
X156953200Y-98079600D01*
X156953200Y-98079600D02*
X156953200Y-95539600D01*
X152883200Y-95539600D02*
X156953200Y-95539600D01*
X151543200Y-97059600D02*
X148493200Y-96429600D01*
X151413200Y-97189600D02*
X148363200Y-96559600D01*
X156543200Y-97059600D02*
X153493200Y-96429600D01*
X156413200Y-97189600D02*
X153373200Y-96559600D01*
X156953200Y-101259600D02*
X156573200Y-101259600D01*
X152883200Y-101259600D02*
X153263200Y-101259600D01*
X153263200Y-101259600D02*
X156573200Y-101259600D01*
X147883200Y-101259600D02*
X148263200Y-101259600D01*
X151943200Y-101259600D02*
X151563200Y-101259600D01*
X151563200Y-101259600D02*
X148263200Y-101259600D01*
X146406172Y-96450901D02*
G75*
G02X146263200Y-97379600I-432972J-408699D01*
G01*
X143314961Y-96447913D02*
G75*
G02X146463200Y-96509600I1548239J-1351687D01*
G01*
X146305533Y-97341337D02*
G75*
G02X143323200Y-97389600I-1522333J1901737D01*
G01*
X143357580Y-97423596D02*
G75*
G02X143313200Y-96459600I455620J503996D01*
G01*
X148437580Y-97423596D02*
G75*
G02X148393200Y-96459600I455620J503996D01*
G01*
X151385533Y-97341337D02*
G75*
G02X148403200Y-97389600I-1522333J1901737D01*
G01*
X148394961Y-96447913D02*
G75*
G02X151543200Y-96509600I1548239J-1351687D01*
G01*
X151486172Y-96450901D02*
G75*
G02X151343200Y-97379600I-432972J-408699D01*
G01*
X153447668Y-97433595D02*
G75*
G02X153393200Y-96459600I455532J513995D01*
G01*
X156385533Y-97341337D02*
G75*
G02X153403200Y-97389600I-1522333J1901737D01*
G01*
X153394961Y-96447913D02*
G75*
G02X156543200Y-96509600I1548239J-1351687D01*
G01*
X156498626Y-96460595D02*
G75*
G02X156343200Y-97379600I-435426J-399005D01*
G01*
X146876800Y-90167000D02*
X144971800Y-90167000D01*
X144971800Y-90167000D02*
X144971800Y-95247000D01*
X144971800Y-95247000D02*
X147511800Y-95247000D01*
X147511800Y-95247000D02*
X147511800Y-90802000D01*
X147511800Y-90802000D02*
X146876800Y-90167000D01*
D11*
X157680857Y-92034761D02*
X157699904Y-92015714D01*
X157718952Y-91958571D01*
X157718952Y-91920476D01*
X157699904Y-91863333D01*
X157661809Y-91825238D01*
X157623714Y-91806190D01*
X157547523Y-91787142D01*
X157490380Y-91787142D01*
X157414190Y-91806190D01*
X157376095Y-91825238D01*
X157338000Y-91863333D01*
X157318952Y-91920476D01*
X157318952Y-91958571D01*
X157338000Y-92015714D01*
X157357047Y-92034761D01*
X157718952Y-92263333D02*
X157699904Y-92225238D01*
X157680857Y-92206190D01*
X157642761Y-92187142D01*
X157528476Y-92187142D01*
X157490380Y-92206190D01*
X157471333Y-92225238D01*
X157452285Y-92263333D01*
X157452285Y-92320476D01*
X157471333Y-92358571D01*
X157490380Y-92377619D01*
X157528476Y-92396666D01*
X157642761Y-92396666D01*
X157680857Y-92377619D01*
X157699904Y-92358571D01*
X157718952Y-92320476D01*
X157718952Y-92263333D01*
X157452285Y-92568095D02*
X157718952Y-92568095D01*
X157490380Y-92568095D02*
X157471333Y-92587142D01*
X157452285Y-92625238D01*
X157452285Y-92682380D01*
X157471333Y-92720476D01*
X157509428Y-92739523D01*
X157718952Y-92739523D01*
X157452285Y-92930000D02*
X157718952Y-92930000D01*
X157490380Y-92930000D02*
X157471333Y-92949047D01*
X157452285Y-92987142D01*
X157452285Y-93044285D01*
X157471333Y-93082380D01*
X157509428Y-93101428D01*
X157718952Y-93101428D01*
X157757047Y-93196666D02*
X157757047Y-93501428D01*
X157318952Y-93672857D02*
X157318952Y-93710952D01*
X157338000Y-93749047D01*
X157357047Y-93768095D01*
X157395142Y-93787142D01*
X157471333Y-93806190D01*
X157566571Y-93806190D01*
X157642761Y-93787142D01*
X157680857Y-93768095D01*
X157699904Y-93749047D01*
X157718952Y-93710952D01*
X157718952Y-93672857D01*
X157699904Y-93634761D01*
X157680857Y-93615714D01*
X157642761Y-93596666D01*
X157566571Y-93577619D01*
X157471333Y-93577619D01*
X157395142Y-93596666D01*
X157357047Y-93615714D01*
X157338000Y-93634761D01*
X157318952Y-93672857D01*
X157718952Y-94187142D02*
X157718952Y-93958571D01*
X157718952Y-94072857D02*
X157318952Y-94072857D01*
X157376095Y-94034761D01*
X157414190Y-93996666D01*
X157433238Y-93958571D01*
X157718952Y-94320476D02*
X157452285Y-94530000D01*
X157452285Y-94320476D02*
X157718952Y-94530000D01*
X157318952Y-94758571D02*
X157318952Y-94796666D01*
X157338000Y-94834761D01*
X157357047Y-94853809D01*
X157395142Y-94872857D01*
X157471333Y-94891904D01*
X157566571Y-94891904D01*
X157642761Y-94872857D01*
X157680857Y-94853809D01*
X157699904Y-94834761D01*
X157718952Y-94796666D01*
X157718952Y-94758571D01*
X157699904Y-94720476D01*
X157680857Y-94701428D01*
X157642761Y-94682380D01*
X157566571Y-94663333D01*
X157471333Y-94663333D01*
X157395142Y-94682380D01*
X157357047Y-94701428D01*
X157338000Y-94720476D01*
X157318952Y-94758571D01*
X157318952Y-95025238D02*
X157318952Y-95272857D01*
X157471333Y-95139523D01*
X157471333Y-95196666D01*
X157490380Y-95234761D01*
X157509428Y-95253809D01*
X157547523Y-95272857D01*
X157642761Y-95272857D01*
X157680857Y-95253809D01*
X157699904Y-95234761D01*
X157718952Y-95196666D01*
X157718952Y-95082380D01*
X157699904Y-95044285D01*
X157680857Y-95025238D01*
X152010342Y-108600552D02*
X151781771Y-108600552D01*
X151896057Y-109000552D02*
X151896057Y-108600552D01*
X151496057Y-108981504D02*
X151534152Y-109000552D01*
X151610342Y-109000552D01*
X151648438Y-108981504D01*
X151667485Y-108943409D01*
X151667485Y-108791028D01*
X151648438Y-108752933D01*
X151610342Y-108733885D01*
X151534152Y-108733885D01*
X151496057Y-108752933D01*
X151477009Y-108791028D01*
X151477009Y-108829123D01*
X151667485Y-108867219D01*
X151305580Y-109000552D02*
X151305580Y-108733885D01*
X151305580Y-108810076D02*
X151286533Y-108771980D01*
X151267485Y-108752933D01*
X151229390Y-108733885D01*
X151191295Y-108733885D01*
X151057961Y-109000552D02*
X151057961Y-108733885D01*
X151057961Y-108771980D02*
X151038914Y-108752933D01*
X151000819Y-108733885D01*
X150943676Y-108733885D01*
X150905580Y-108752933D01*
X150886533Y-108791028D01*
X150886533Y-109000552D01*
X150886533Y-108791028D02*
X150867485Y-108752933D01*
X150829390Y-108733885D01*
X150772247Y-108733885D01*
X150734152Y-108752933D01*
X150715104Y-108791028D01*
X150715104Y-109000552D01*
X150524628Y-109000552D02*
X150524628Y-108733885D01*
X150524628Y-108600552D02*
X150543676Y-108619600D01*
X150524628Y-108638647D01*
X150505580Y-108619600D01*
X150524628Y-108600552D01*
X150524628Y-108638647D01*
X150334152Y-108733885D02*
X150334152Y-109000552D01*
X150334152Y-108771980D02*
X150315104Y-108752933D01*
X150277009Y-108733885D01*
X150219866Y-108733885D01*
X150181771Y-108752933D01*
X150162723Y-108791028D01*
X150162723Y-109000552D01*
X149800819Y-109000552D02*
X149800819Y-108791028D01*
X149819866Y-108752933D01*
X149857961Y-108733885D01*
X149934152Y-108733885D01*
X149972247Y-108752933D01*
X149800819Y-108981504D02*
X149838914Y-109000552D01*
X149934152Y-109000552D01*
X149972247Y-108981504D01*
X149991295Y-108943409D01*
X149991295Y-108905314D01*
X149972247Y-108867219D01*
X149934152Y-108848171D01*
X149838914Y-108848171D01*
X149800819Y-108829123D01*
X149553200Y-109000552D02*
X149591295Y-108981504D01*
X149610342Y-108943409D01*
X149610342Y-108600552D01*
X149267485Y-108791028D02*
X149210342Y-108810076D01*
X149191295Y-108829123D01*
X149172247Y-108867219D01*
X149172247Y-108924361D01*
X149191295Y-108962457D01*
X149210342Y-108981504D01*
X149248438Y-109000552D01*
X149400819Y-109000552D01*
X149400819Y-108600552D01*
X149267485Y-108600552D01*
X149229390Y-108619600D01*
X149210342Y-108638647D01*
X149191295Y-108676742D01*
X149191295Y-108714838D01*
X149210342Y-108752933D01*
X149229390Y-108771980D01*
X149267485Y-108791028D01*
X149400819Y-108791028D01*
X148943676Y-109000552D02*
X148981771Y-108981504D01*
X149000819Y-108943409D01*
X149000819Y-108600552D01*
X148734152Y-109000552D02*
X148772247Y-108981504D01*
X148791295Y-108962457D01*
X148810342Y-108924361D01*
X148810342Y-108810076D01*
X148791295Y-108771980D01*
X148772247Y-108752933D01*
X148734152Y-108733885D01*
X148677009Y-108733885D01*
X148638914Y-108752933D01*
X148619866Y-108771980D01*
X148600819Y-108810076D01*
X148600819Y-108924361D01*
X148619866Y-108962457D01*
X148638914Y-108981504D01*
X148677009Y-109000552D01*
X148734152Y-109000552D01*
X148257961Y-108981504D02*
X148296057Y-109000552D01*
X148372247Y-109000552D01*
X148410342Y-108981504D01*
X148429390Y-108962457D01*
X148448438Y-108924361D01*
X148448438Y-108810076D01*
X148429390Y-108771980D01*
X148410342Y-108752933D01*
X148372247Y-108733885D01*
X148296057Y-108733885D01*
X148257961Y-108752933D01*
X148086533Y-109000552D02*
X148086533Y-108600552D01*
X148048438Y-108848171D02*
X147934152Y-109000552D01*
X147934152Y-108733885D02*
X148086533Y-108886266D01*
X147737038Y-96449857D02*
X147756085Y-96468904D01*
X147813228Y-96487952D01*
X147851323Y-96487952D01*
X147908466Y-96468904D01*
X147946561Y-96430809D01*
X147965609Y-96392714D01*
X147984657Y-96316523D01*
X147984657Y-96259380D01*
X147965609Y-96183190D01*
X147946561Y-96145095D01*
X147908466Y-96107000D01*
X147851323Y-96087952D01*
X147813228Y-96087952D01*
X147756085Y-96107000D01*
X147737038Y-96126047D01*
X147508466Y-96487952D02*
X147546561Y-96468904D01*
X147565609Y-96449857D01*
X147584657Y-96411761D01*
X147584657Y-96297476D01*
X147565609Y-96259380D01*
X147546561Y-96240333D01*
X147508466Y-96221285D01*
X147451323Y-96221285D01*
X147413228Y-96240333D01*
X147394180Y-96259380D01*
X147375133Y-96297476D01*
X147375133Y-96411761D01*
X147394180Y-96449857D01*
X147413228Y-96468904D01*
X147451323Y-96487952D01*
X147508466Y-96487952D01*
X147203704Y-96221285D02*
X147203704Y-96487952D01*
X147203704Y-96259380D02*
X147184657Y-96240333D01*
X147146561Y-96221285D01*
X147089419Y-96221285D01*
X147051323Y-96240333D01*
X147032276Y-96278428D01*
X147032276Y-96487952D01*
X146841800Y-96221285D02*
X146841800Y-96487952D01*
X146841800Y-96259380D02*
X146822752Y-96240333D01*
X146784657Y-96221285D01*
X146727514Y-96221285D01*
X146689419Y-96240333D01*
X146670371Y-96278428D01*
X146670371Y-96487952D01*
X146575133Y-96526047D02*
X146270371Y-96526047D01*
X146098942Y-96087952D02*
X146060847Y-96087952D01*
X146022752Y-96107000D01*
X146003704Y-96126047D01*
X145984657Y-96164142D01*
X145965609Y-96240333D01*
X145965609Y-96335571D01*
X145984657Y-96411761D01*
X146003704Y-96449857D01*
X146022752Y-96468904D01*
X146060847Y-96487952D01*
X146098942Y-96487952D01*
X146137038Y-96468904D01*
X146156085Y-96449857D01*
X146175133Y-96411761D01*
X146194180Y-96335571D01*
X146194180Y-96240333D01*
X146175133Y-96164142D01*
X146156085Y-96126047D01*
X146137038Y-96107000D01*
X146098942Y-96087952D01*
X145584657Y-96487952D02*
X145813228Y-96487952D01*
X145698942Y-96487952D02*
X145698942Y-96087952D01*
X145737038Y-96145095D01*
X145775133Y-96183190D01*
X145813228Y-96202238D01*
X145451323Y-96487952D02*
X145241800Y-96221285D01*
X145451323Y-96221285D02*
X145241800Y-96487952D01*
X145013228Y-96087952D02*
X144975133Y-96087952D01*
X144937038Y-96107000D01*
X144917990Y-96126047D01*
X144898942Y-96164142D01*
X144879895Y-96240333D01*
X144879895Y-96335571D01*
X144898942Y-96411761D01*
X144917990Y-96449857D01*
X144937038Y-96468904D01*
X144975133Y-96487952D01*
X145013228Y-96487952D01*
X145051323Y-96468904D01*
X145070371Y-96449857D01*
X145089419Y-96411761D01*
X145108466Y-96335571D01*
X145108466Y-96240333D01*
X145089419Y-96164142D01*
X145070371Y-96126047D01*
X145051323Y-96107000D01*
X145013228Y-96087952D01*
X144727514Y-96126047D02*
X144708466Y-96107000D01*
X144670371Y-96087952D01*
X144575133Y-96087952D01*
X144537038Y-96107000D01*
X144517990Y-96126047D01*
X144498942Y-96164142D01*
X144498942Y-96202238D01*
X144517990Y-96259380D01*
X144746561Y-96487952D01*
X144498942Y-96487952D01*
M02*
