G04 #@! TF.GenerationSoftware,KiCad,Pcbnew,(2018-02-16 revision c95340fba)-makepkg*
G04 #@! TF.CreationDate,2018-05-22T14:01:30+02:00*
G04 #@! TF.ProjectId,LIN_USB_CONVERTER,4C494E5F5553425F434F4E5645525445,rev?*
G04 #@! TF.SameCoordinates,PX85b9e30PY4aad300*
G04 #@! TF.FileFunction,Legend,Bot*
G04 #@! TF.FilePolarity,Positive*
%FSLAX46Y46*%
G04 Gerber Fmt 4.6, Leading zero omitted, Abs format (unit mm)*
G04 Created by KiCad (PCBNEW (2018-02-16 revision c95340fba)-makepkg) date 05/22/18 14:01:30*
%MOMM*%
%LPD*%
G01*
G04 APERTURE LIST*
%ADD10C,0.125000*%
%ADD11C,0.100000*%
%ADD12C,0.175000*%
%ADD13C,0.250000*%
%ADD14C,0.200000*%
%ADD15C,0.120000*%
%ADD16C,0.150000*%
%ADD17C,0.090000*%
%ADD18R,2.100000X2.100000*%
%ADD19O,2.100000X2.100000*%
%ADD20C,2.540000*%
%ADD21C,2.900000*%
%ADD22R,2.380000X4.360000*%
%ADD23O,2.380000X4.360000*%
%ADD24C,1.901140*%
%ADD25O,1.800000X4.200000*%
%ADD26C,1.900000*%
G04 APERTURE END LIST*
D10*
X16970190Y-12488690D02*
X16970190Y-11988690D01*
X16803523Y-12345833D01*
X16636857Y-11988690D01*
X16636857Y-12488690D01*
X16422571Y-12345833D02*
X16184476Y-12345833D01*
X16470190Y-12488690D02*
X16303523Y-11988690D01*
X16136857Y-12488690D01*
X15994000Y-12464880D02*
X15922571Y-12488690D01*
X15803523Y-12488690D01*
X15755904Y-12464880D01*
X15732095Y-12441071D01*
X15708285Y-12393452D01*
X15708285Y-12345833D01*
X15732095Y-12298214D01*
X15755904Y-12274404D01*
X15803523Y-12250595D01*
X15898761Y-12226785D01*
X15946380Y-12202976D01*
X15970190Y-12179166D01*
X15994000Y-12131547D01*
X15994000Y-12083928D01*
X15970190Y-12036309D01*
X15946380Y-12012500D01*
X15898761Y-11988690D01*
X15779714Y-11988690D01*
X15708285Y-12012500D01*
X15565428Y-11988690D02*
X15279714Y-11988690D01*
X15422571Y-12488690D02*
X15422571Y-11988690D01*
X15113047Y-12226785D02*
X14946380Y-12226785D01*
X14874952Y-12488690D02*
X15113047Y-12488690D01*
X15113047Y-11988690D01*
X14874952Y-11988690D01*
X14374952Y-12488690D02*
X14541619Y-12250595D01*
X14660666Y-12488690D02*
X14660666Y-11988690D01*
X14470190Y-11988690D01*
X14422571Y-12012500D01*
X14398761Y-12036309D01*
X14374952Y-12083928D01*
X14374952Y-12155357D01*
X14398761Y-12202976D01*
X14422571Y-12226785D01*
X14470190Y-12250595D01*
X14660666Y-12250595D01*
X16672571Y-13363690D02*
X16839238Y-13125595D01*
X16958285Y-13363690D02*
X16958285Y-12863690D01*
X16767809Y-12863690D01*
X16720190Y-12887500D01*
X16696380Y-12911309D01*
X16672571Y-12958928D01*
X16672571Y-13030357D01*
X16696380Y-13077976D01*
X16720190Y-13101785D01*
X16767809Y-13125595D01*
X16958285Y-13125595D01*
X16458285Y-13101785D02*
X16291619Y-13101785D01*
X16220190Y-13363690D02*
X16458285Y-13363690D01*
X16458285Y-12863690D01*
X16220190Y-12863690D01*
X16029714Y-13339880D02*
X15958285Y-13363690D01*
X15839238Y-13363690D01*
X15791619Y-13339880D01*
X15767809Y-13316071D01*
X15744000Y-13268452D01*
X15744000Y-13220833D01*
X15767809Y-13173214D01*
X15791619Y-13149404D01*
X15839238Y-13125595D01*
X15934476Y-13101785D01*
X15982095Y-13077976D01*
X16005904Y-13054166D01*
X16029714Y-13006547D01*
X16029714Y-12958928D01*
X16005904Y-12911309D01*
X15982095Y-12887500D01*
X15934476Y-12863690D01*
X15815428Y-12863690D01*
X15744000Y-12887500D01*
X15529714Y-13363690D02*
X15529714Y-12863690D01*
X15315428Y-13339880D02*
X15244000Y-13363690D01*
X15124952Y-13363690D01*
X15077333Y-13339880D01*
X15053523Y-13316071D01*
X15029714Y-13268452D01*
X15029714Y-13220833D01*
X15053523Y-13173214D01*
X15077333Y-13149404D01*
X15124952Y-13125595D01*
X15220190Y-13101785D01*
X15267809Y-13077976D01*
X15291619Y-13054166D01*
X15315428Y-13006547D01*
X15315428Y-12958928D01*
X15291619Y-12911309D01*
X15267809Y-12887500D01*
X15220190Y-12863690D01*
X15101142Y-12863690D01*
X15029714Y-12887500D01*
X14886857Y-12863690D02*
X14601142Y-12863690D01*
X14744000Y-13363690D02*
X14744000Y-12863690D01*
X14339238Y-12863690D02*
X14244000Y-12863690D01*
X14196380Y-12887500D01*
X14148761Y-12935119D01*
X14124952Y-13030357D01*
X14124952Y-13197023D01*
X14148761Y-13292261D01*
X14196380Y-13339880D01*
X14244000Y-13363690D01*
X14339238Y-13363690D01*
X14386857Y-13339880D01*
X14434476Y-13292261D01*
X14458285Y-13197023D01*
X14458285Y-13030357D01*
X14434476Y-12935119D01*
X14386857Y-12887500D01*
X14339238Y-12863690D01*
X13624952Y-13363690D02*
X13791619Y-13125595D01*
X13910666Y-13363690D02*
X13910666Y-12863690D01*
X13720190Y-12863690D01*
X13672571Y-12887500D01*
X13648761Y-12911309D01*
X13624952Y-12958928D01*
X13624952Y-13030357D01*
X13648761Y-13077976D01*
X13672571Y-13101785D01*
X13720190Y-13125595D01*
X13910666Y-13125595D01*
D11*
X16019428Y-21607428D02*
X16305142Y-21607428D01*
X16305142Y-21007428D01*
X15819428Y-21607428D02*
X15819428Y-21007428D01*
X15533714Y-21607428D02*
X15533714Y-21007428D01*
X15190857Y-21607428D01*
X15190857Y-21007428D01*
X13768285Y-21293142D02*
X13682571Y-21321714D01*
X13654000Y-21350285D01*
X13625428Y-21407428D01*
X13625428Y-21493142D01*
X13654000Y-21550285D01*
X13682571Y-21578857D01*
X13739714Y-21607428D01*
X13968285Y-21607428D01*
X13968285Y-21007428D01*
X13768285Y-21007428D01*
X13711142Y-21036000D01*
X13682571Y-21064571D01*
X13654000Y-21121714D01*
X13654000Y-21178857D01*
X13682571Y-21236000D01*
X13711142Y-21264571D01*
X13768285Y-21293142D01*
X13968285Y-21293142D01*
X13396857Y-21436000D02*
X13111142Y-21436000D01*
X13454000Y-21607428D02*
X13254000Y-21007428D01*
X13054000Y-21607428D01*
X12939714Y-21007428D02*
X12596857Y-21007428D01*
X12768285Y-21607428D02*
X12768285Y-21007428D01*
X12396857Y-21378857D02*
X11939714Y-21378857D01*
X11228285Y-21293142D02*
X11142571Y-21321714D01*
X11114000Y-21350285D01*
X11085428Y-21407428D01*
X11085428Y-21493142D01*
X11114000Y-21550285D01*
X11142571Y-21578857D01*
X11199714Y-21607428D01*
X11428285Y-21607428D01*
X11428285Y-21007428D01*
X11228285Y-21007428D01*
X11171142Y-21036000D01*
X11142571Y-21064571D01*
X11114000Y-21121714D01*
X11114000Y-21178857D01*
X11142571Y-21236000D01*
X11171142Y-21264571D01*
X11228285Y-21293142D01*
X11428285Y-21293142D01*
X10856857Y-21436000D02*
X10571142Y-21436000D01*
X10914000Y-21607428D02*
X10714000Y-21007428D01*
X10514000Y-21607428D01*
X10399714Y-21007428D02*
X10056857Y-21007428D01*
X10228285Y-21607428D02*
X10228285Y-21007428D01*
X9856857Y-21378857D02*
X9399714Y-21378857D01*
X9628285Y-21607428D02*
X9628285Y-21150285D01*
D12*
X13750857Y-17734892D02*
X13750857Y-17163464D01*
X12550857Y-17163464D01*
X13750857Y-18134892D02*
X12550857Y-18134892D01*
X13750857Y-18706321D02*
X12550857Y-18706321D01*
X13750857Y-19392035D01*
X12550857Y-19392035D01*
X9312285Y-16039464D02*
X9369428Y-16210892D01*
X9426571Y-16268035D01*
X9540857Y-16325178D01*
X9712285Y-16325178D01*
X9826571Y-16268035D01*
X9883714Y-16210892D01*
X9940857Y-16096607D01*
X9940857Y-15639464D01*
X8740857Y-15639464D01*
X8740857Y-16039464D01*
X8798000Y-16153750D01*
X8855142Y-16210892D01*
X8969428Y-16268035D01*
X9083714Y-16268035D01*
X9198000Y-16210892D01*
X9255142Y-16153750D01*
X9312285Y-16039464D01*
X9312285Y-15639464D01*
X9598000Y-16782321D02*
X9598000Y-17353750D01*
X9940857Y-16668035D02*
X8740857Y-17068035D01*
X9940857Y-17468035D01*
X8740857Y-17696607D02*
X8740857Y-18382321D01*
X9940857Y-18039464D02*
X8740857Y-18039464D01*
X9483714Y-18782321D02*
X9483714Y-19696607D01*
X5248285Y-16039464D02*
X5305428Y-16210892D01*
X5362571Y-16268035D01*
X5476857Y-16325178D01*
X5648285Y-16325178D01*
X5762571Y-16268035D01*
X5819714Y-16210892D01*
X5876857Y-16096607D01*
X5876857Y-15639464D01*
X4676857Y-15639464D01*
X4676857Y-16039464D01*
X4734000Y-16153750D01*
X4791142Y-16210892D01*
X4905428Y-16268035D01*
X5019714Y-16268035D01*
X5134000Y-16210892D01*
X5191142Y-16153750D01*
X5248285Y-16039464D01*
X5248285Y-15639464D01*
X5534000Y-16782321D02*
X5534000Y-17353750D01*
X5876857Y-16668035D02*
X4676857Y-17068035D01*
X5876857Y-17468035D01*
X4676857Y-17696607D02*
X4676857Y-18382321D01*
X5876857Y-18039464D02*
X4676857Y-18039464D01*
X5419714Y-18782321D02*
X5419714Y-19696607D01*
X5876857Y-19239464D02*
X4962571Y-19239464D01*
D11*
X14730591Y-8653994D02*
X15016305Y-8653994D01*
X15016305Y-8053994D01*
X14530591Y-8053994D02*
X14530591Y-8539708D01*
X14502019Y-8596851D01*
X14473448Y-8625423D01*
X14416305Y-8653994D01*
X14302019Y-8653994D01*
X14244876Y-8625423D01*
X14216305Y-8596851D01*
X14187734Y-8539708D01*
X14187734Y-8053994D01*
X13559162Y-8596851D02*
X13587734Y-8625423D01*
X13673448Y-8653994D01*
X13730591Y-8653994D01*
X13816305Y-8625423D01*
X13873448Y-8568280D01*
X13902019Y-8511137D01*
X13930591Y-8396851D01*
X13930591Y-8311137D01*
X13902019Y-8196851D01*
X13873448Y-8139708D01*
X13816305Y-8082566D01*
X13730591Y-8053994D01*
X13673448Y-8053994D01*
X13587734Y-8082566D01*
X13559162Y-8111137D01*
X12987734Y-8653994D02*
X13330591Y-8653994D01*
X13159162Y-8653994D02*
X13159162Y-8053994D01*
X13216305Y-8139708D01*
X13273448Y-8196851D01*
X13330591Y-8225423D01*
X12730591Y-8596851D02*
X12702019Y-8625423D01*
X12730591Y-8653994D01*
X12759162Y-8625423D01*
X12730591Y-8596851D01*
X12730591Y-8653994D01*
X12330591Y-8053994D02*
X12273448Y-8053994D01*
X12216305Y-8082566D01*
X12187734Y-8111137D01*
X12159162Y-8168280D01*
X12130591Y-8282566D01*
X12130591Y-8425423D01*
X12159162Y-8539708D01*
X12187734Y-8596851D01*
X12216305Y-8625423D01*
X12273448Y-8653994D01*
X12330591Y-8653994D01*
X12387734Y-8625423D01*
X12416305Y-8596851D01*
X12444876Y-8539708D01*
X12473448Y-8425423D01*
X12473448Y-8282566D01*
X12444876Y-8168280D01*
X12416305Y-8111137D01*
X12387734Y-8082566D01*
X12330591Y-8053994D01*
D13*
X15622962Y-6732489D02*
X15622962Y-8270585D01*
X15694391Y-8451537D01*
X15765819Y-8542013D01*
X15908676Y-8632489D01*
X16194391Y-8632489D01*
X16337248Y-8542013D01*
X16408676Y-8451537D01*
X16480105Y-8270585D01*
X16480105Y-6732489D01*
D11*
X14864019Y-7703080D02*
X14902114Y-7741175D01*
X15016400Y-7779270D01*
X15092591Y-7779270D01*
X15206876Y-7741175D01*
X15283067Y-7664985D01*
X15321162Y-7588794D01*
X15359257Y-7436413D01*
X15359257Y-7322127D01*
X15321162Y-7169746D01*
X15283067Y-7093556D01*
X15206876Y-7017366D01*
X15092591Y-6979270D01*
X15016400Y-6979270D01*
X14902114Y-7017366D01*
X14864019Y-7055461D01*
X14559257Y-7550699D02*
X14178305Y-7550699D01*
X14635448Y-7779270D02*
X14368781Y-6979270D01*
X14102114Y-7779270D01*
X13835448Y-7779270D02*
X13835448Y-6979270D01*
X13378305Y-7779270D01*
X13378305Y-6979270D01*
D14*
X15645134Y-6706166D02*
X12999534Y-6706166D01*
D15*
X17078000Y-18856000D02*
X14418000Y-18856000D01*
X17078000Y-16256000D02*
X17078000Y-18856000D01*
X14418000Y-16256000D02*
X14418000Y-18856000D01*
X17078000Y-16256000D02*
X14418000Y-16256000D01*
X17078000Y-14986000D02*
X17078000Y-13656000D01*
X17078000Y-13656000D02*
X15748000Y-13656000D01*
X17078000Y-21784000D02*
X17078000Y-24444000D01*
X11938000Y-21784000D02*
X17078000Y-21784000D01*
X11938000Y-24444000D02*
X17078000Y-24444000D01*
X11938000Y-21784000D02*
X11938000Y-24444000D01*
X10668000Y-21784000D02*
X9338000Y-21784000D01*
X9338000Y-21784000D02*
X9338000Y-23114000D01*
X17810000Y-24942000D02*
X17810000Y-37542000D01*
X17810000Y-37542000D02*
X2410000Y-37542000D01*
X2410000Y-37542000D02*
X2410000Y-36592000D01*
X2410000Y-36592000D02*
X1910000Y-36892000D01*
X1910000Y-36892000D02*
X1910000Y-34892000D01*
X1910000Y-34892000D02*
X2410000Y-35142000D01*
X2410000Y-35142000D02*
X2410000Y-29742000D01*
X2410000Y-29742000D02*
X1910000Y-29992000D01*
X1910000Y-29992000D02*
X1910000Y-24942000D01*
X1910000Y-24942000D02*
X17810000Y-24942000D01*
D16*
X16129860Y-5717120D02*
X16129860Y8379880D01*
X1143860Y8379880D02*
X1143860Y-5717120D01*
X16129860Y-5717120D02*
X1143860Y-5717120D01*
X16129860Y8379880D02*
X1143860Y8379880D01*
D17*
X14357333Y-14004952D02*
X14357333Y-14290666D01*
X14376380Y-14347809D01*
X14414476Y-14385904D01*
X14471619Y-14404952D01*
X14509714Y-14404952D01*
X13976380Y-14004952D02*
X14166857Y-14004952D01*
X14185904Y-14195428D01*
X14166857Y-14176380D01*
X14128761Y-14157333D01*
X14033523Y-14157333D01*
X13995428Y-14176380D01*
X13976380Y-14195428D01*
X13957333Y-14233523D01*
X13957333Y-14328761D01*
X13976380Y-14366857D01*
X13995428Y-14385904D01*
X14033523Y-14404952D01*
X14128761Y-14404952D01*
X14166857Y-14385904D01*
X14185904Y-14366857D01*
X8924952Y-24250666D02*
X9210666Y-24250666D01*
X9267809Y-24231619D01*
X9305904Y-24193523D01*
X9324952Y-24136380D01*
X9324952Y-24098285D01*
X9324952Y-24650666D02*
X9324952Y-24422095D01*
X9324952Y-24536380D02*
X8924952Y-24536380D01*
X8982095Y-24498285D01*
X9020190Y-24460190D01*
X9039238Y-24422095D01*
X16389333Y-26450952D02*
X16389333Y-26736666D01*
X16408380Y-26793809D01*
X16446476Y-26831904D01*
X16503619Y-26850952D01*
X16541714Y-26850952D01*
X16217904Y-26489047D02*
X16198857Y-26470000D01*
X16160761Y-26450952D01*
X16065523Y-26450952D01*
X16027428Y-26470000D01*
X16008380Y-26489047D01*
X15989333Y-26527142D01*
X15989333Y-26565238D01*
X16008380Y-26622380D01*
X16236952Y-26850952D01*
X15989333Y-26850952D01*
X3082952Y-4438666D02*
X3368666Y-4438666D01*
X3425809Y-4419619D01*
X3463904Y-4381523D01*
X3482952Y-4324380D01*
X3482952Y-4286285D01*
X3216285Y-4800571D02*
X3482952Y-4800571D01*
X3063904Y-4705333D02*
X3349619Y-4610095D01*
X3349619Y-4857714D01*
%LPC*%
D18*
X15748000Y-14986000D03*
D19*
X15748000Y-17526000D03*
D20*
X8636000Y-1778000D03*
D21*
X1778000Y-31496000D03*
D18*
X10668000Y-23114000D03*
D19*
X13208000Y-23114000D03*
X15748000Y-23114000D03*
D22*
X15160000Y-31242000D03*
D23*
X10160000Y-31242000D03*
X5160000Y-31242000D03*
D24*
X12192860Y-4574120D03*
X9652860Y-4574120D03*
X7620860Y-4574120D03*
X5080860Y-4574120D03*
D25*
X14478000Y-2286000D03*
X2794000Y-2286000D03*
D26*
X6350000Y-2159000D03*
X10922000Y-2159000D03*
M02*
