G04 #@! TF.GenerationSoftware,KiCad,Pcbnew,(2018-02-16 revision c95340fba)-makepkg*
G04 #@! TF.CreationDate,2018-04-19T06:34:26+02:00*
G04 #@! TF.ProjectId,LIN_USB_CONVERTER,4C494E5F5553425F434F4E5645525445,rev?*
G04 #@! TF.SameCoordinates,Original*
G04 #@! TF.FileFunction,Copper,L1,Top,Signal*
G04 #@! TF.FilePolarity,Positive*
%FSLAX46Y46*%
G04 Gerber Fmt 4.6, Leading zero omitted, Abs format (unit mm)*
G04 Created by KiCad (PCBNEW (2018-02-16 revision c95340fba)-makepkg) date 04/19/18 06:34:26*
%MOMM*%
%LPD*%
G01*
G04 APERTURE LIST*
%ADD10R,0.750000X0.800000*%
%ADD11R,0.500000X0.600000*%
%ADD12R,0.700000X0.300000*%
%ADD13R,0.300000X0.700000*%
%ADD14C,0.212000*%
%ADD15C,0.100000*%
%ADD16R,0.150000X0.150000*%
%ADD17R,0.500000X0.300000*%
%ADD18R,0.300000X0.500000*%
%ADD19R,0.600000X0.500000*%
%ADD20C,1.000000*%
%ADD21C,2.500000*%
%ADD22R,1.270000X0.970000*%
%ADD23R,0.900000X0.500000*%
%ADD24R,0.500000X0.900000*%
%ADD25R,0.900000X0.800000*%
%ADD26R,1.700000X1.700000*%
%ADD27O,1.700000X1.700000*%
%ADD28R,1.980000X3.960000*%
%ADD29O,1.980000X3.960000*%
%ADD30R,1.800000X1.000000*%
%ADD31C,1.501140*%
%ADD32O,1.400000X3.800000*%
%ADD33R,0.508000X2.000000*%
%ADD34R,0.600000X0.350000*%
%ADD35C,0.600000*%
%ADD36C,0.250000*%
%ADD37C,0.254000*%
G04 APERTURE END LIST*
D10*
X156351000Y-99310500D03*
X156351000Y-97810500D03*
D11*
X155081000Y-97820000D03*
X155081000Y-98920000D03*
D12*
X146532000Y-86964000D03*
D13*
X147482000Y-86014000D03*
X149482000Y-86014000D03*
D12*
X150432000Y-86964000D03*
X146532000Y-88964000D03*
X150432000Y-88464000D03*
D13*
X148982000Y-89914000D03*
X147982000Y-89914000D03*
D14*
X149984920Y-86161080D03*
D15*
G36*
X150134827Y-86161080D02*
X149984920Y-86310987D01*
X149835013Y-86161080D01*
X149984920Y-86011173D01*
X150134827Y-86161080D01*
X150134827Y-86161080D01*
G37*
D14*
X149990000Y-89766920D03*
D15*
G36*
X150139907Y-89766920D02*
X149990000Y-89916827D01*
X149840093Y-89766920D01*
X149990000Y-89617013D01*
X150139907Y-89766920D01*
X150139907Y-89766920D01*
G37*
D14*
X146974000Y-86166160D03*
D15*
G36*
X147123907Y-86166160D02*
X146974000Y-86316067D01*
X146824093Y-86166160D01*
X146974000Y-86016253D01*
X147123907Y-86166160D01*
X147123907Y-86166160D01*
G37*
D14*
X146973240Y-89762320D03*
D15*
G36*
X147123147Y-89762320D02*
X146973240Y-89912227D01*
X146823333Y-89762320D01*
X146973240Y-89612413D01*
X147123147Y-89762320D01*
X147123147Y-89762320D01*
G37*
D14*
X150284920Y-86461080D03*
D15*
G36*
X150434827Y-86461080D02*
X150284920Y-86610987D01*
X150135013Y-86461080D01*
X150284920Y-86311173D01*
X150434827Y-86461080D01*
X150434827Y-86461080D01*
G37*
D14*
X150290000Y-89472000D03*
D15*
G36*
X150439907Y-89472000D02*
X150290000Y-89621907D01*
X150140093Y-89472000D01*
X150290000Y-89322093D01*
X150439907Y-89472000D01*
X150439907Y-89472000D01*
G37*
D14*
X146684160Y-86461080D03*
D15*
G36*
X146834067Y-86461080D02*
X146684160Y-86610987D01*
X146534253Y-86461080D01*
X146684160Y-86311173D01*
X146834067Y-86461080D01*
X146834067Y-86461080D01*
G37*
D14*
X146673520Y-89467680D03*
D15*
G36*
X146823427Y-89467680D02*
X146673520Y-89617587D01*
X146523613Y-89467680D01*
X146673520Y-89317773D01*
X146823427Y-89467680D01*
X146823427Y-89467680D01*
G37*
D16*
X146749720Y-89391920D03*
X146759160Y-86536080D03*
X147049000Y-86241160D03*
X149909920Y-86236080D03*
X150209920Y-86536080D03*
X150215000Y-89397000D03*
X149915000Y-89691920D03*
X147049440Y-89686120D03*
D17*
X146424600Y-89467680D03*
D12*
X146532000Y-88464000D03*
X146532000Y-87964000D03*
X146532000Y-87464000D03*
D17*
X146434760Y-86461080D03*
D18*
X146973240Y-85911680D03*
D13*
X147982000Y-86014000D03*
X148482000Y-86014000D03*
X148982000Y-86014000D03*
D18*
X149985680Y-85911680D03*
D17*
X150534320Y-86460320D03*
D12*
X150432000Y-87464000D03*
X150432000Y-87964000D03*
X150432000Y-88964000D03*
D17*
X150539400Y-89472760D03*
D18*
X149990000Y-90016320D03*
D13*
X149482000Y-89914000D03*
X148482000Y-89914000D03*
X147482000Y-89914000D03*
D18*
X146974000Y-90013040D03*
D11*
X152668000Y-85374000D03*
X152668000Y-86474000D03*
D19*
X149408000Y-92528000D03*
X148308000Y-92528000D03*
D20*
X148858000Y-80082000D03*
D21*
X142000000Y-109800000D03*
D19*
X155504000Y-85416000D03*
X154404000Y-85416000D03*
D10*
X152922000Y-107780000D03*
X152922000Y-109280000D03*
X147842000Y-109534000D03*
X147842000Y-108034000D03*
D19*
X152710000Y-93036000D03*
X151610000Y-93036000D03*
X153726000Y-91512000D03*
X152626000Y-91512000D03*
D22*
X155970000Y-93920000D03*
X155970000Y-95200000D03*
D23*
X156224000Y-104478000D03*
X156224000Y-105978000D03*
X145556000Y-104224000D03*
X145556000Y-105724000D03*
D24*
X146306000Y-92782000D03*
X144806000Y-92782000D03*
X140996000Y-95576000D03*
X142496000Y-95576000D03*
D25*
X154462000Y-87768000D03*
X154462000Y-89668000D03*
X156462000Y-88718000D03*
X143492000Y-106112000D03*
X143492000Y-104212000D03*
X141492000Y-105162000D03*
D26*
X150890000Y-101418000D03*
D27*
X153430000Y-101418000D03*
X155970000Y-101418000D03*
D28*
X155382000Y-109546000D03*
D29*
X150382000Y-109546000D03*
X145382000Y-109546000D03*
D26*
X155970000Y-93290000D03*
D27*
X155970000Y-95830000D03*
D23*
X146064000Y-99120000D03*
X146064000Y-97620000D03*
X144032000Y-99120000D03*
X144032000Y-97620000D03*
X142254000Y-99120000D03*
X142254000Y-97620000D03*
X147588000Y-99108000D03*
X147588000Y-97608000D03*
D25*
X154192000Y-106112000D03*
X154192000Y-104212000D03*
X152192000Y-105162000D03*
D30*
X141746000Y-94052000D03*
X141746000Y-86432000D03*
X141746000Y-88972000D03*
X141746000Y-83892000D03*
X141746000Y-91512000D03*
D31*
X152414860Y-82878120D03*
X149874860Y-82878120D03*
X147842860Y-82878120D03*
X145302860Y-82878120D03*
D32*
X154700000Y-80590000D03*
X143016000Y-80590000D03*
D25*
X150128000Y-106244000D03*
X150128000Y-104344000D03*
X148128000Y-105294000D03*
D33*
X143778000Y-95870000D03*
X145048000Y-95870000D03*
X146318000Y-95870000D03*
X147588000Y-95870000D03*
X147588000Y-100870000D03*
X146318000Y-100870000D03*
X145048000Y-100870000D03*
X143778000Y-100870000D03*
D34*
X150820000Y-98512000D03*
X150820000Y-97862000D03*
X153560000Y-97212000D03*
X150820000Y-96562000D03*
X153560000Y-98512000D03*
X153560000Y-97862000D03*
X150820000Y-97212000D03*
X153560000Y-96562000D03*
D35*
X152160000Y-88718000D03*
X144032000Y-88464000D03*
X147334000Y-92528000D03*
X151144000Y-92070000D03*
X143778000Y-93544000D03*
X148350000Y-93544000D03*
X148096000Y-91258000D03*
X143524000Y-92528000D03*
X152160000Y-96084000D03*
X141746000Y-107006000D03*
X141746000Y-102942000D03*
X142254000Y-100910000D03*
X151906000Y-97862000D03*
D36*
X152668000Y-88718000D02*
X152160000Y-88718000D01*
X153618000Y-87768000D02*
X152668000Y-88718000D01*
X154462000Y-87768000D02*
X153618000Y-87768000D01*
X152668000Y-86474000D02*
X152168000Y-86474000D01*
X152168000Y-86474000D02*
X150983000Y-85289000D01*
X149671998Y-85289000D02*
X149482000Y-85478998D01*
X150983000Y-85289000D02*
X149671998Y-85289000D01*
X149482000Y-85478998D02*
X149482000Y-85539000D01*
X149482000Y-85539000D02*
X149482000Y-86064000D01*
X148308000Y-92528000D02*
X147334000Y-92528000D01*
X151610000Y-93036000D02*
X151610000Y-92536000D01*
X151610000Y-92536000D02*
X151144000Y-92070000D01*
X148308000Y-92528000D02*
X148258000Y-92528000D01*
X148258000Y-92528000D02*
X147588000Y-93198000D01*
X147588000Y-93198000D02*
X147588000Y-97100000D01*
X147588000Y-97100000D02*
X147588000Y-97608000D01*
X151560000Y-93036000D02*
X151610000Y-93036000D01*
X152626000Y-91512000D02*
X152626000Y-92020000D01*
X152626000Y-92020000D02*
X151610000Y-93036000D01*
X154462000Y-87768000D02*
X153762000Y-87768000D01*
X153762000Y-87768000D02*
X152626000Y-88904000D01*
X152626000Y-88904000D02*
X152626000Y-91012000D01*
X152626000Y-91012000D02*
X152626000Y-91512000D01*
X143016000Y-80590000D02*
X143016000Y-81790000D01*
X143016000Y-81790000D02*
X141746000Y-83060000D01*
X141746000Y-83060000D02*
X141746000Y-83142000D01*
X141746000Y-83142000D02*
X141746000Y-83892000D01*
X145302860Y-82878120D02*
X143016000Y-80591260D01*
X143016000Y-80591260D02*
X143016000Y-80590000D01*
X148858000Y-93544000D02*
X148350000Y-93544000D01*
X141746000Y-91512000D02*
X143736000Y-91512000D01*
X143736000Y-91512000D02*
X144806000Y-92582000D01*
X144806000Y-92582000D02*
X144806000Y-92782000D01*
X142496000Y-95576000D02*
X143651000Y-95576000D01*
X143651000Y-95576000D02*
X143778000Y-95449000D01*
X142254000Y-97100000D02*
X142254000Y-97620000D01*
X144806000Y-92782000D02*
X144306000Y-92782000D01*
X144306000Y-92782000D02*
X143778000Y-93310000D01*
X143778000Y-93310000D02*
X143778000Y-95576000D01*
X143778000Y-95576000D02*
X142254000Y-97100000D01*
X141746000Y-91324000D02*
X141746000Y-91512000D01*
X149408000Y-92528000D02*
X149408000Y-92994000D01*
X149408000Y-92994000D02*
X148858000Y-93544000D01*
X152710000Y-93036000D02*
X152660000Y-93036000D01*
X152660000Y-93036000D02*
X152084999Y-93611001D01*
X152084999Y-93611001D02*
X151041001Y-93611001D01*
X151041001Y-93611001D02*
X149958000Y-92528000D01*
X149958000Y-92528000D02*
X149408000Y-92528000D01*
X153726000Y-91512000D02*
X153726000Y-90404000D01*
X153726000Y-90404000D02*
X154462000Y-89668000D01*
X152710000Y-93036000D02*
X153726000Y-92020000D01*
X153726000Y-92020000D02*
X153726000Y-91512000D01*
X148982000Y-89864000D02*
X148982000Y-89339000D01*
X148982000Y-89339000D02*
X148982000Y-86064000D01*
X151618000Y-84824000D02*
X152168000Y-85374000D01*
X149500587Y-84824000D02*
X151618000Y-84824000D01*
X148982000Y-86064000D02*
X148982000Y-85342587D01*
X152168000Y-85374000D02*
X152668000Y-85374000D01*
X148982000Y-85342587D02*
X149500587Y-84824000D01*
X148482000Y-86064000D02*
X148982000Y-86064000D01*
X148982000Y-89864000D02*
X148982000Y-92102000D01*
X148982000Y-92102000D02*
X149408000Y-92528000D01*
X141746000Y-91512000D02*
X141346000Y-91512000D01*
X141746000Y-88972000D02*
X142146000Y-88972000D01*
X142146000Y-88972000D02*
X143860999Y-87257001D01*
X143860999Y-87257001D02*
X144984999Y-87257001D01*
X144984999Y-87257001D02*
X145778000Y-86464000D01*
X145778000Y-86464000D02*
X146482000Y-86464000D01*
X146973240Y-85911680D02*
X146973240Y-86014558D01*
X141746000Y-86432000D02*
X143270000Y-86432000D01*
X143270000Y-86432000D02*
X143738000Y-85964000D01*
X143738000Y-85964000D02*
X146982000Y-85964000D01*
X144032000Y-97620000D02*
X144732000Y-97620000D01*
X144732000Y-97620000D02*
X145048000Y-97304000D01*
X145048000Y-97304000D02*
X145048000Y-97120000D01*
X145048000Y-97120000D02*
X145048000Y-95870000D01*
X145048000Y-94941000D02*
X145048000Y-94119500D01*
X145048000Y-94119500D02*
X145431010Y-93736490D01*
X145431010Y-93736490D02*
X145431010Y-89589990D01*
X145431010Y-89589990D02*
X146057000Y-88964000D01*
X146057000Y-88964000D02*
X146582000Y-88964000D01*
X145048000Y-95830000D02*
X145048000Y-94941000D01*
X145048000Y-94941000D02*
X145048000Y-95258500D01*
X146424600Y-89467680D02*
X146649439Y-89467680D01*
X146318000Y-95870000D02*
X146318000Y-97227000D01*
X146318000Y-97227000D02*
X146064000Y-97481000D01*
X146064000Y-97481000D02*
X146064000Y-97620000D01*
X146424600Y-89467680D02*
X146658338Y-89467680D01*
X146306000Y-92782000D02*
X146306000Y-91270000D01*
X146306000Y-91270000D02*
X146191000Y-91155000D01*
X146191000Y-91155000D02*
X146191000Y-89755000D01*
X146191000Y-89755000D02*
X146482000Y-89464000D01*
X146318000Y-94941000D02*
X146318000Y-92794000D01*
X146318000Y-92794000D02*
X146306000Y-92782000D01*
X148096000Y-91258000D02*
X148482000Y-90872000D01*
X148482000Y-90872000D02*
X148482000Y-89864000D01*
X143524000Y-92674000D02*
X143524000Y-92528000D01*
X142146000Y-94052000D02*
X143524000Y-92674000D01*
X140996000Y-95576000D02*
X140996000Y-94802000D01*
X140996000Y-94802000D02*
X141746000Y-94052000D01*
X141746000Y-94052000D02*
X142146000Y-94052000D01*
X148482000Y-89864000D02*
X148482000Y-90389000D01*
X152414860Y-82878120D02*
X153165429Y-83628689D01*
X155504000Y-85416000D02*
X155504000Y-84916000D01*
X155504000Y-84916000D02*
X154216689Y-83628689D01*
X154216689Y-83628689D02*
X153165429Y-83628689D01*
X156462000Y-88718000D02*
X156462000Y-86324000D01*
X156462000Y-86324000D02*
X155554000Y-85416000D01*
X155554000Y-85416000D02*
X155504000Y-85416000D01*
X156351000Y-97947000D02*
X155004000Y-97947000D01*
X156478000Y-97820000D02*
X156351000Y-97947000D01*
X155004000Y-97947000D02*
X154269000Y-97212000D01*
X154269000Y-97212000D02*
X154192000Y-97212000D01*
X151143002Y-95830000D02*
X150382000Y-95830000D01*
X151905002Y-96592000D02*
X151143002Y-95830000D01*
X150382000Y-95830000D02*
X149227978Y-96984022D01*
X149227978Y-96984022D02*
X149227978Y-98484022D01*
X149227978Y-98484022D02*
X147588000Y-100124000D01*
X147588000Y-100124000D02*
X147588000Y-100870000D01*
X151905002Y-96338998D02*
X152160000Y-96084000D01*
X152525002Y-97212000D02*
X151905002Y-96592000D01*
X151905002Y-96592000D02*
X151905002Y-96338998D01*
X154192000Y-97212000D02*
X153560000Y-97212000D01*
X154192000Y-97212000D02*
X152525002Y-97212000D01*
X150128000Y-106244000D02*
X150128000Y-109292000D01*
X150128000Y-109292000D02*
X150382000Y-109546000D01*
X154254000Y-97212000D02*
X154192000Y-97212000D01*
X150762000Y-109166000D02*
X150382000Y-109546000D01*
X141746000Y-107006000D02*
X141746000Y-109546000D01*
X141746000Y-109546000D02*
X142000000Y-109800000D01*
X152922000Y-107780000D02*
X151130000Y-107780000D01*
X152922000Y-107780000D02*
X152297000Y-107780000D01*
X150531000Y-109546000D02*
X150382000Y-109546000D01*
X152297000Y-107780000D02*
X150531000Y-109546000D01*
X147842000Y-109534000D02*
X150370000Y-109534000D01*
X150370000Y-109534000D02*
X150382000Y-109546000D01*
X155970000Y-93290000D02*
X154870000Y-93290000D01*
X153490000Y-94754000D02*
X153490000Y-96562000D01*
X153490000Y-96562000D02*
X154962998Y-96562000D01*
X155405999Y-97005001D02*
X157072979Y-97005001D01*
X157072979Y-97005001D02*
X157072979Y-100061021D01*
X154962998Y-96562000D02*
X155405999Y-97005001D01*
X153684000Y-94560000D02*
X153490000Y-94754000D01*
X154870000Y-93290000D02*
X153684000Y-94476000D01*
X153684000Y-94476000D02*
X153684000Y-94560000D01*
X157072979Y-100061021D02*
X155716000Y-101418000D01*
X155716000Y-101418000D02*
X155716000Y-102620081D01*
X155716000Y-102620081D02*
X155716000Y-101672000D01*
X155716000Y-101672000D02*
X155970000Y-101418000D01*
X155716000Y-102620081D02*
X155208000Y-103128081D01*
X155688998Y-105228000D02*
X156986000Y-105228000D01*
X157240000Y-105482000D02*
X157240000Y-106698000D01*
X155208000Y-103128081D02*
X155208000Y-104747002D01*
X155208000Y-104747002D02*
X155688998Y-105228000D01*
X156986000Y-105228000D02*
X157240000Y-105482000D01*
X157240000Y-106698000D02*
X155382000Y-108556000D01*
X155382000Y-108556000D02*
X155382000Y-109546000D01*
X152922000Y-109280000D02*
X155116000Y-109280000D01*
X155116000Y-109280000D02*
X155382000Y-109546000D01*
X151049001Y-100242999D02*
X152728000Y-98564000D01*
X149352999Y-104119001D02*
X149352999Y-100669998D01*
X149779998Y-100242999D02*
X151049001Y-100242999D01*
X148128000Y-105294000D02*
X148178000Y-105294000D01*
X148178000Y-105294000D02*
X149352999Y-104119001D01*
X149352999Y-100669998D02*
X149779998Y-100242999D01*
X147842000Y-108034000D02*
X147842000Y-105580000D01*
X147842000Y-105580000D02*
X148128000Y-105294000D01*
X148112000Y-105162000D02*
X146748000Y-105162000D01*
X146748000Y-105162000D02*
X146318000Y-104732000D01*
X146318000Y-104732000D02*
X146318000Y-104720000D01*
X146318000Y-104720000D02*
X145822000Y-104224000D01*
X145822000Y-104224000D02*
X145810000Y-104224000D01*
X148112000Y-105162000D02*
X147777000Y-105162000D01*
X152780000Y-98512000D02*
X153490000Y-98512000D01*
X152414000Y-98878000D02*
X152780000Y-98512000D01*
X156224000Y-103978000D02*
X157522990Y-102679010D01*
X156224000Y-104478000D02*
X156224000Y-103978000D01*
X157522990Y-102679010D02*
X157522990Y-96180909D01*
X157172081Y-95830000D02*
X155970000Y-95830000D01*
X157522990Y-96180909D02*
X157172081Y-95830000D01*
X147982000Y-86064000D02*
X147982000Y-84770980D01*
X147982000Y-84770980D02*
X149874860Y-82878120D01*
X147482000Y-86064000D02*
X147482000Y-83238980D01*
X147482000Y-83238980D02*
X147842860Y-82878120D01*
X148477001Y-108759001D02*
X149066990Y-108169012D01*
X147206999Y-108759001D02*
X148477001Y-108759001D01*
X147141999Y-107809999D02*
X147141999Y-108694001D01*
X147141999Y-108694001D02*
X147206999Y-108759001D01*
X145556000Y-105724000D02*
X145556000Y-106224000D01*
X145556000Y-106224000D02*
X147141999Y-107809999D01*
X149066990Y-108169012D02*
X149066990Y-105870008D01*
X149066990Y-105870008D02*
X149581998Y-105355000D01*
X149581998Y-105355000D02*
X150949998Y-105355000D01*
X150949998Y-105355000D02*
X151706998Y-106112000D01*
X151706998Y-106112000D02*
X153492000Y-106112000D01*
X153492000Y-106112000D02*
X154192000Y-106112000D01*
X146974000Y-90013040D02*
X146974000Y-89791921D01*
X150890000Y-101418000D02*
X150890000Y-102146998D01*
X143519000Y-106112000D02*
X145619500Y-108212500D01*
X143492000Y-106112000D02*
X143519000Y-106112000D01*
X145619500Y-108212500D02*
X145382000Y-108450000D01*
X145382000Y-108450000D02*
X145382000Y-109546000D01*
X145382000Y-109546000D02*
X146144000Y-108784000D01*
X145382000Y-110536000D02*
X145382000Y-109546000D01*
X145810000Y-105724000D02*
X145610000Y-105724000D01*
X145610000Y-105724000D02*
X145048000Y-105162000D01*
X145048000Y-105162000D02*
X142192000Y-105162000D01*
X142192000Y-105162000D02*
X141492000Y-105162000D01*
X154981000Y-98878000D02*
X155208000Y-98878000D01*
X153965000Y-97862000D02*
X154981000Y-98878000D01*
X155208000Y-98878000D02*
X155377000Y-99047000D01*
X155377000Y-99047000D02*
X156351000Y-99047000D01*
X153965000Y-97862000D02*
X153560000Y-97862000D01*
X150890000Y-98512000D02*
X151365000Y-98512000D01*
X151365000Y-98512000D02*
X152015000Y-97862000D01*
X152015000Y-97862000D02*
X153965000Y-97862000D01*
X143778000Y-101799000D02*
X143778000Y-100977500D01*
X143778000Y-101799000D02*
X143274000Y-101799000D01*
X143274000Y-101799000D02*
X142254000Y-100779000D01*
X142254000Y-100779000D02*
X142254000Y-99620000D01*
X142254000Y-99620000D02*
X142254000Y-99120000D01*
X142254000Y-100656000D02*
X142254000Y-99120000D01*
X147648000Y-103450000D02*
X146318000Y-102120000D01*
X148452976Y-102966024D02*
X147969000Y-103450000D01*
X146318000Y-102120000D02*
X146318000Y-100870000D01*
X148452976Y-100297200D02*
X148452976Y-102966024D01*
X149677989Y-99072187D02*
X148452976Y-100297200D01*
X149677989Y-97312600D02*
X149677989Y-99072187D01*
X150428589Y-96562000D02*
X149677989Y-97312600D01*
X150890000Y-96562000D02*
X150428589Y-96562000D01*
X147969000Y-103450000D02*
X147648000Y-103450000D01*
X146064000Y-99120000D02*
X146064000Y-100616000D01*
X146064000Y-100616000D02*
X146318000Y-100870000D01*
X146064000Y-99620000D02*
X146064000Y-99120000D01*
X148902987Y-103787424D02*
X148732411Y-103958000D01*
X150128000Y-97499000D02*
X150128000Y-99258587D01*
X146570590Y-103958000D02*
X145048000Y-102435410D01*
X150890000Y-97212000D02*
X150415000Y-97212000D01*
X150415000Y-97212000D02*
X150128000Y-97499000D01*
X150128000Y-99258587D02*
X148902987Y-100483600D01*
X148902987Y-100483600D02*
X148902987Y-103787424D01*
X148732411Y-103958000D02*
X146570590Y-103958000D01*
X145048000Y-102435410D02*
X145048000Y-101799000D01*
X144032000Y-99120000D02*
X145048000Y-100136000D01*
X145048000Y-100136000D02*
X145048000Y-100870000D01*
X145048000Y-101608500D02*
X145048000Y-100636000D01*
X152192000Y-105162000D02*
X154677002Y-105162000D01*
X154677002Y-105162000D02*
X155493002Y-105978000D01*
X155493002Y-105978000D02*
X155524000Y-105978000D01*
X155524000Y-105978000D02*
X156224000Y-105978000D01*
X156090000Y-106112000D02*
X156224000Y-105978000D01*
D37*
G36*
X147246588Y-90886293D02*
X147169000Y-91073608D01*
X147169000Y-91442392D01*
X147310127Y-91783103D01*
X147462542Y-91935518D01*
X147373000Y-92151690D01*
X147373000Y-92244250D01*
X147531750Y-92403000D01*
X148181000Y-92403000D01*
X148181000Y-92381000D01*
X148270765Y-92381000D01*
X148273632Y-92395415D01*
X148348818Y-92507938D01*
X148421692Y-92617000D01*
X148165608Y-92617000D01*
X148078696Y-92653000D01*
X147531750Y-92653000D01*
X147373000Y-92811750D01*
X147373000Y-92904310D01*
X147469673Y-93137699D01*
X147501666Y-93169692D01*
X147423000Y-93359608D01*
X147423000Y-93728392D01*
X147564127Y-94069103D01*
X147801887Y-94306863D01*
X147715000Y-94393750D01*
X147715000Y-95743000D01*
X147735000Y-95743000D01*
X147735000Y-95997000D01*
X147715000Y-95997000D01*
X147715000Y-96017000D01*
X147461000Y-96017000D01*
X147461000Y-95997000D01*
X147441000Y-95997000D01*
X147441000Y-95743000D01*
X147461000Y-95743000D01*
X147461000Y-94393750D01*
X147302250Y-94235000D01*
X147207691Y-94235000D01*
X147070000Y-94292034D01*
X147070000Y-93591313D01*
X147146620Y-93476643D01*
X147195283Y-93232000D01*
X147195283Y-92332000D01*
X147146620Y-92087357D01*
X147058000Y-91954728D01*
X147058000Y-91344059D01*
X147072731Y-91270000D01*
X147058000Y-91195941D01*
X147058000Y-91195937D01*
X147014368Y-90976584D01*
X146964748Y-90902323D01*
X147124000Y-90902323D01*
X147225587Y-90882116D01*
X147246588Y-90886293D01*
X147246588Y-90886293D01*
G37*
X147246588Y-90886293D02*
X147169000Y-91073608D01*
X147169000Y-91442392D01*
X147310127Y-91783103D01*
X147462542Y-91935518D01*
X147373000Y-92151690D01*
X147373000Y-92244250D01*
X147531750Y-92403000D01*
X148181000Y-92403000D01*
X148181000Y-92381000D01*
X148270765Y-92381000D01*
X148273632Y-92395415D01*
X148348818Y-92507938D01*
X148421692Y-92617000D01*
X148165608Y-92617000D01*
X148078696Y-92653000D01*
X147531750Y-92653000D01*
X147373000Y-92811750D01*
X147373000Y-92904310D01*
X147469673Y-93137699D01*
X147501666Y-93169692D01*
X147423000Y-93359608D01*
X147423000Y-93728392D01*
X147564127Y-94069103D01*
X147801887Y-94306863D01*
X147715000Y-94393750D01*
X147715000Y-95743000D01*
X147735000Y-95743000D01*
X147735000Y-95997000D01*
X147715000Y-95997000D01*
X147715000Y-96017000D01*
X147461000Y-96017000D01*
X147461000Y-95997000D01*
X147441000Y-95997000D01*
X147441000Y-95743000D01*
X147461000Y-95743000D01*
X147461000Y-94393750D01*
X147302250Y-94235000D01*
X147207691Y-94235000D01*
X147070000Y-94292034D01*
X147070000Y-93591313D01*
X147146620Y-93476643D01*
X147195283Y-93232000D01*
X147195283Y-92332000D01*
X147146620Y-92087357D01*
X147058000Y-91954728D01*
X147058000Y-91344059D01*
X147072731Y-91270000D01*
X147058000Y-91195941D01*
X147058000Y-91195937D01*
X147014368Y-90976584D01*
X146964748Y-90902323D01*
X147124000Y-90902323D01*
X147225587Y-90882116D01*
X147246588Y-90886293D01*
G36*
X154531000Y-85291000D02*
X154551000Y-85291000D01*
X154551000Y-85541000D01*
X154531000Y-85541000D01*
X154531000Y-86142250D01*
X154689750Y-86301000D01*
X154830309Y-86301000D01*
X154950974Y-86251019D01*
X154959357Y-86256620D01*
X155204000Y-86305283D01*
X155379796Y-86305283D01*
X155710001Y-86635489D01*
X155710000Y-87765704D01*
X155559959Y-87865959D01*
X155479550Y-87986300D01*
X155388250Y-87895000D01*
X154589000Y-87895000D01*
X154589000Y-87915000D01*
X154335000Y-87915000D01*
X154335000Y-87895000D01*
X153535750Y-87895000D01*
X153377000Y-88053750D01*
X153377000Y-88294310D01*
X153473673Y-88527699D01*
X153652302Y-88706327D01*
X153696584Y-88724669D01*
X153559959Y-88815959D01*
X153421380Y-89023357D01*
X153372717Y-89268000D01*
X153372717Y-89693796D01*
X153246627Y-89819886D01*
X153183840Y-89861839D01*
X153141887Y-89924626D01*
X153141886Y-89924627D01*
X153017632Y-90110585D01*
X152959269Y-90404000D01*
X152974001Y-90478063D01*
X152974001Y-90627000D01*
X152911750Y-90627000D01*
X152753000Y-90785750D01*
X152753000Y-91387000D01*
X152773000Y-91387000D01*
X152773000Y-91637000D01*
X152753000Y-91637000D01*
X152753000Y-91659000D01*
X152499000Y-91659000D01*
X152499000Y-91637000D01*
X151849750Y-91637000D01*
X151691000Y-91795750D01*
X151691000Y-91888310D01*
X151787673Y-92121699D01*
X151856362Y-92190388D01*
X151737000Y-92309750D01*
X151737000Y-92859001D01*
X151483000Y-92859001D01*
X151483000Y-92309750D01*
X151324250Y-92151000D01*
X151183691Y-92151000D01*
X150950302Y-92247673D01*
X150845731Y-92352244D01*
X150542116Y-92048629D01*
X150500161Y-91985839D01*
X150251416Y-91819632D01*
X150107826Y-91791070D01*
X149952643Y-91687380D01*
X149734000Y-91643889D01*
X149734000Y-91135690D01*
X151691000Y-91135690D01*
X151691000Y-91228250D01*
X151849750Y-91387000D01*
X152499000Y-91387000D01*
X152499000Y-90785750D01*
X152340250Y-90627000D01*
X152199691Y-90627000D01*
X151966302Y-90723673D01*
X151787673Y-90902301D01*
X151691000Y-91135690D01*
X149734000Y-91135690D01*
X149734000Y-90884518D01*
X149840000Y-90905603D01*
X150140000Y-90905603D01*
X150384643Y-90856940D01*
X150592041Y-90718361D01*
X150730620Y-90510963D01*
X150779283Y-90266320D01*
X150779283Y-90262043D01*
X150789400Y-90262043D01*
X151034043Y-90213380D01*
X151241441Y-90074801D01*
X151380020Y-89867403D01*
X151428683Y-89622760D01*
X151428683Y-89322760D01*
X151404220Y-89199779D01*
X151421283Y-89114000D01*
X151421283Y-88814000D01*
X151401392Y-88714000D01*
X151421283Y-88614000D01*
X151421283Y-88314000D01*
X151401392Y-88214000D01*
X151421283Y-88114000D01*
X151421283Y-87814000D01*
X151401392Y-87714000D01*
X151421283Y-87614000D01*
X151421283Y-87314000D01*
X151401392Y-87214000D01*
X151421283Y-87114000D01*
X151421283Y-86814000D01*
X151410493Y-86759750D01*
X151783000Y-86759750D01*
X151783000Y-86900309D01*
X151879673Y-87133698D01*
X152058301Y-87312327D01*
X152291690Y-87409000D01*
X152384250Y-87409000D01*
X152543000Y-87250250D01*
X152543000Y-86601000D01*
X152793000Y-86601000D01*
X152793000Y-87250250D01*
X152951750Y-87409000D01*
X153044310Y-87409000D01*
X153277699Y-87312327D01*
X153397269Y-87192756D01*
X153377000Y-87241690D01*
X153377000Y-87482250D01*
X153535750Y-87641000D01*
X154335000Y-87641000D01*
X154335000Y-86891750D01*
X154589000Y-86891750D01*
X154589000Y-87641000D01*
X155388250Y-87641000D01*
X155547000Y-87482250D01*
X155547000Y-87241690D01*
X155450327Y-87008301D01*
X155271698Y-86829673D01*
X155038309Y-86733000D01*
X154747750Y-86733000D01*
X154589000Y-86891750D01*
X154335000Y-86891750D01*
X154176250Y-86733000D01*
X153885691Y-86733000D01*
X153652302Y-86829673D01*
X153532731Y-86949244D01*
X153553000Y-86900309D01*
X153553000Y-86759750D01*
X153394250Y-86601000D01*
X152793000Y-86601000D01*
X152543000Y-86601000D01*
X151941750Y-86601000D01*
X151783000Y-86759750D01*
X151410493Y-86759750D01*
X151402186Y-86717992D01*
X151423603Y-86610320D01*
X151423603Y-86310320D01*
X151374940Y-86065677D01*
X151236361Y-85858279D01*
X151028963Y-85719700D01*
X150784320Y-85671037D01*
X150774963Y-85671037D01*
X150774963Y-85661680D01*
X150757920Y-85576000D01*
X151306512Y-85576000D01*
X151583887Y-85853376D01*
X151625839Y-85916161D01*
X151688623Y-85958112D01*
X151688625Y-85958114D01*
X151736252Y-85989937D01*
X151791603Y-86026922D01*
X151783000Y-86047691D01*
X151783000Y-86188250D01*
X151941750Y-86347000D01*
X152543000Y-86347000D01*
X152543000Y-86327000D01*
X152793000Y-86327000D01*
X152793000Y-86347000D01*
X153394250Y-86347000D01*
X153553000Y-86188250D01*
X153553000Y-86047691D01*
X153503019Y-85927026D01*
X153508620Y-85918643D01*
X153512743Y-85897915D01*
X153565673Y-86025699D01*
X153744302Y-86204327D01*
X153977691Y-86301000D01*
X154118250Y-86301000D01*
X154277000Y-86142250D01*
X154277000Y-85541000D01*
X154257000Y-85541000D01*
X154257000Y-85291000D01*
X154277000Y-85291000D01*
X154277000Y-85269000D01*
X154531000Y-85269000D01*
X154531000Y-85291000D01*
X154531000Y-85291000D01*
G37*
X154531000Y-85291000D02*
X154551000Y-85291000D01*
X154551000Y-85541000D01*
X154531000Y-85541000D01*
X154531000Y-86142250D01*
X154689750Y-86301000D01*
X154830309Y-86301000D01*
X154950974Y-86251019D01*
X154959357Y-86256620D01*
X155204000Y-86305283D01*
X155379796Y-86305283D01*
X155710001Y-86635489D01*
X155710000Y-87765704D01*
X155559959Y-87865959D01*
X155479550Y-87986300D01*
X155388250Y-87895000D01*
X154589000Y-87895000D01*
X154589000Y-87915000D01*
X154335000Y-87915000D01*
X154335000Y-87895000D01*
X153535750Y-87895000D01*
X153377000Y-88053750D01*
X153377000Y-88294310D01*
X153473673Y-88527699D01*
X153652302Y-88706327D01*
X153696584Y-88724669D01*
X153559959Y-88815959D01*
X153421380Y-89023357D01*
X153372717Y-89268000D01*
X153372717Y-89693796D01*
X153246627Y-89819886D01*
X153183840Y-89861839D01*
X153141887Y-89924626D01*
X153141886Y-89924627D01*
X153017632Y-90110585D01*
X152959269Y-90404000D01*
X152974001Y-90478063D01*
X152974001Y-90627000D01*
X152911750Y-90627000D01*
X152753000Y-90785750D01*
X152753000Y-91387000D01*
X152773000Y-91387000D01*
X152773000Y-91637000D01*
X152753000Y-91637000D01*
X152753000Y-91659000D01*
X152499000Y-91659000D01*
X152499000Y-91637000D01*
X151849750Y-91637000D01*
X151691000Y-91795750D01*
X151691000Y-91888310D01*
X151787673Y-92121699D01*
X151856362Y-92190388D01*
X151737000Y-92309750D01*
X151737000Y-92859001D01*
X151483000Y-92859001D01*
X151483000Y-92309750D01*
X151324250Y-92151000D01*
X151183691Y-92151000D01*
X150950302Y-92247673D01*
X150845731Y-92352244D01*
X150542116Y-92048629D01*
X150500161Y-91985839D01*
X150251416Y-91819632D01*
X150107826Y-91791070D01*
X149952643Y-91687380D01*
X149734000Y-91643889D01*
X149734000Y-91135690D01*
X151691000Y-91135690D01*
X151691000Y-91228250D01*
X151849750Y-91387000D01*
X152499000Y-91387000D01*
X152499000Y-90785750D01*
X152340250Y-90627000D01*
X152199691Y-90627000D01*
X151966302Y-90723673D01*
X151787673Y-90902301D01*
X151691000Y-91135690D01*
X149734000Y-91135690D01*
X149734000Y-90884518D01*
X149840000Y-90905603D01*
X150140000Y-90905603D01*
X150384643Y-90856940D01*
X150592041Y-90718361D01*
X150730620Y-90510963D01*
X150779283Y-90266320D01*
X150779283Y-90262043D01*
X150789400Y-90262043D01*
X151034043Y-90213380D01*
X151241441Y-90074801D01*
X151380020Y-89867403D01*
X151428683Y-89622760D01*
X151428683Y-89322760D01*
X151404220Y-89199779D01*
X151421283Y-89114000D01*
X151421283Y-88814000D01*
X151401392Y-88714000D01*
X151421283Y-88614000D01*
X151421283Y-88314000D01*
X151401392Y-88214000D01*
X151421283Y-88114000D01*
X151421283Y-87814000D01*
X151401392Y-87714000D01*
X151421283Y-87614000D01*
X151421283Y-87314000D01*
X151401392Y-87214000D01*
X151421283Y-87114000D01*
X151421283Y-86814000D01*
X151410493Y-86759750D01*
X151783000Y-86759750D01*
X151783000Y-86900309D01*
X151879673Y-87133698D01*
X152058301Y-87312327D01*
X152291690Y-87409000D01*
X152384250Y-87409000D01*
X152543000Y-87250250D01*
X152543000Y-86601000D01*
X152793000Y-86601000D01*
X152793000Y-87250250D01*
X152951750Y-87409000D01*
X153044310Y-87409000D01*
X153277699Y-87312327D01*
X153397269Y-87192756D01*
X153377000Y-87241690D01*
X153377000Y-87482250D01*
X153535750Y-87641000D01*
X154335000Y-87641000D01*
X154335000Y-86891750D01*
X154589000Y-86891750D01*
X154589000Y-87641000D01*
X155388250Y-87641000D01*
X155547000Y-87482250D01*
X155547000Y-87241690D01*
X155450327Y-87008301D01*
X155271698Y-86829673D01*
X155038309Y-86733000D01*
X154747750Y-86733000D01*
X154589000Y-86891750D01*
X154335000Y-86891750D01*
X154176250Y-86733000D01*
X153885691Y-86733000D01*
X153652302Y-86829673D01*
X153532731Y-86949244D01*
X153553000Y-86900309D01*
X153553000Y-86759750D01*
X153394250Y-86601000D01*
X152793000Y-86601000D01*
X152543000Y-86601000D01*
X151941750Y-86601000D01*
X151783000Y-86759750D01*
X151410493Y-86759750D01*
X151402186Y-86717992D01*
X151423603Y-86610320D01*
X151423603Y-86310320D01*
X151374940Y-86065677D01*
X151236361Y-85858279D01*
X151028963Y-85719700D01*
X150784320Y-85671037D01*
X150774963Y-85671037D01*
X150774963Y-85661680D01*
X150757920Y-85576000D01*
X151306512Y-85576000D01*
X151583887Y-85853376D01*
X151625839Y-85916161D01*
X151688623Y-85958112D01*
X151688625Y-85958114D01*
X151736252Y-85989937D01*
X151791603Y-86026922D01*
X151783000Y-86047691D01*
X151783000Y-86188250D01*
X151941750Y-86347000D01*
X152543000Y-86347000D01*
X152543000Y-86327000D01*
X152793000Y-86327000D01*
X152793000Y-86347000D01*
X153394250Y-86347000D01*
X153553000Y-86188250D01*
X153553000Y-86047691D01*
X153503019Y-85927026D01*
X153508620Y-85918643D01*
X153512743Y-85897915D01*
X153565673Y-86025699D01*
X153744302Y-86204327D01*
X153977691Y-86301000D01*
X154118250Y-86301000D01*
X154277000Y-86142250D01*
X154277000Y-85541000D01*
X154257000Y-85541000D01*
X154257000Y-85291000D01*
X154277000Y-85291000D01*
X154277000Y-85269000D01*
X154531000Y-85269000D01*
X154531000Y-85291000D01*
G36*
X145542717Y-87814000D02*
X145542717Y-88114000D01*
X145562608Y-88214000D01*
X145542717Y-88314000D01*
X145542717Y-88403211D01*
X145514839Y-88421839D01*
X145472887Y-88484624D01*
X144951637Y-89005876D01*
X144888850Y-89047829D01*
X144846897Y-89110616D01*
X144846896Y-89110617D01*
X144722642Y-89296575D01*
X144664279Y-89589990D01*
X144679011Y-89664054D01*
X144679011Y-91391523D01*
X144320116Y-91032629D01*
X144278161Y-90969839D01*
X144029416Y-90803632D01*
X143810063Y-90760000D01*
X143810059Y-90760000D01*
X143736000Y-90745269D01*
X143661941Y-90760000D01*
X143231704Y-90760000D01*
X143098041Y-90559959D01*
X142890643Y-90421380D01*
X142646000Y-90372717D01*
X140949000Y-90372717D01*
X140949000Y-90111283D01*
X142646000Y-90111283D01*
X142890643Y-90062620D01*
X143098041Y-89924041D01*
X143236620Y-89716643D01*
X143285283Y-89472000D01*
X143285283Y-88896204D01*
X144172487Y-88009001D01*
X144910940Y-88009001D01*
X144984999Y-88023732D01*
X145059058Y-88009001D01*
X145059062Y-88009001D01*
X145278415Y-87965369D01*
X145527160Y-87799162D01*
X145553514Y-87759721D01*
X145542717Y-87814000D01*
X145542717Y-87814000D01*
G37*
X145542717Y-87814000D02*
X145542717Y-88114000D01*
X145562608Y-88214000D01*
X145542717Y-88314000D01*
X145542717Y-88403211D01*
X145514839Y-88421839D01*
X145472887Y-88484624D01*
X144951637Y-89005876D01*
X144888850Y-89047829D01*
X144846897Y-89110616D01*
X144846896Y-89110617D01*
X144722642Y-89296575D01*
X144664279Y-89589990D01*
X144679011Y-89664054D01*
X144679011Y-91391523D01*
X144320116Y-91032629D01*
X144278161Y-90969839D01*
X144029416Y-90803632D01*
X143810063Y-90760000D01*
X143810059Y-90760000D01*
X143736000Y-90745269D01*
X143661941Y-90760000D01*
X143231704Y-90760000D01*
X143098041Y-90559959D01*
X142890643Y-90421380D01*
X142646000Y-90372717D01*
X140949000Y-90372717D01*
X140949000Y-90111283D01*
X142646000Y-90111283D01*
X142890643Y-90062620D01*
X143098041Y-89924041D01*
X143236620Y-89716643D01*
X143285283Y-89472000D01*
X143285283Y-88896204D01*
X144172487Y-88009001D01*
X144910940Y-88009001D01*
X144984999Y-88023732D01*
X145059058Y-88009001D01*
X145059062Y-88009001D01*
X145278415Y-87965369D01*
X145527160Y-87799162D01*
X145553514Y-87759721D01*
X145542717Y-87814000D01*
G36*
X153365000Y-79263000D02*
X153365000Y-80463000D01*
X154573000Y-80463000D01*
X154573000Y-80443000D01*
X154827000Y-80443000D01*
X154827000Y-80463000D01*
X156035000Y-80463000D01*
X156035000Y-79263000D01*
X155965466Y-79031000D01*
X157275000Y-79031000D01*
X157275000Y-87806464D01*
X157214000Y-87765705D01*
X157214000Y-86398059D01*
X157228731Y-86324000D01*
X157214000Y-86249941D01*
X157214000Y-86249937D01*
X157170368Y-86030584D01*
X157004161Y-85781839D01*
X156941373Y-85739885D01*
X156443283Y-85241796D01*
X156443283Y-85166000D01*
X156394620Y-84921357D01*
X156256041Y-84713959D01*
X156226635Y-84694311D01*
X156212368Y-84622584D01*
X156046161Y-84373839D01*
X155983373Y-84331885D01*
X154800805Y-83149318D01*
X154784556Y-83125000D01*
X154827002Y-83125000D01*
X154827002Y-82959375D01*
X155033329Y-83082716D01*
X155093550Y-83071980D01*
X155554185Y-82823790D01*
X155884778Y-82418215D01*
X156035000Y-81917000D01*
X156035000Y-80717000D01*
X154827000Y-80717000D01*
X154827000Y-80737000D01*
X154573000Y-80737000D01*
X154573000Y-80717000D01*
X153365000Y-80717000D01*
X153365000Y-81880082D01*
X153195191Y-81710273D01*
X152688876Y-81500550D01*
X152140844Y-81500550D01*
X151992288Y-81562084D01*
X152311364Y-81243008D01*
X152521000Y-80736902D01*
X152521000Y-80189098D01*
X152311364Y-79682992D01*
X151924008Y-79295636D01*
X151417902Y-79086000D01*
X150870098Y-79086000D01*
X150363992Y-79295636D01*
X150137992Y-79521636D01*
X150042320Y-79290663D01*
X149782657Y-79031000D01*
X153434534Y-79031000D01*
X153365000Y-79263000D01*
X153365000Y-79263000D01*
G37*
X153365000Y-79263000D02*
X153365000Y-80463000D01*
X154573000Y-80463000D01*
X154573000Y-80443000D01*
X154827000Y-80443000D01*
X154827000Y-80463000D01*
X156035000Y-80463000D01*
X156035000Y-79263000D01*
X155965466Y-79031000D01*
X157275000Y-79031000D01*
X157275000Y-87806464D01*
X157214000Y-87765705D01*
X157214000Y-86398059D01*
X157228731Y-86324000D01*
X157214000Y-86249941D01*
X157214000Y-86249937D01*
X157170368Y-86030584D01*
X157004161Y-85781839D01*
X156941373Y-85739885D01*
X156443283Y-85241796D01*
X156443283Y-85166000D01*
X156394620Y-84921357D01*
X156256041Y-84713959D01*
X156226635Y-84694311D01*
X156212368Y-84622584D01*
X156046161Y-84373839D01*
X155983373Y-84331885D01*
X154800805Y-83149318D01*
X154784556Y-83125000D01*
X154827002Y-83125000D01*
X154827002Y-82959375D01*
X155033329Y-83082716D01*
X155093550Y-83071980D01*
X155554185Y-82823790D01*
X155884778Y-82418215D01*
X156035000Y-81917000D01*
X156035000Y-80717000D01*
X154827000Y-80717000D01*
X154827000Y-80737000D01*
X154573000Y-80737000D01*
X154573000Y-80717000D01*
X153365000Y-80717000D01*
X153365000Y-81880082D01*
X153195191Y-81710273D01*
X152688876Y-81500550D01*
X152140844Y-81500550D01*
X151992288Y-81562084D01*
X152311364Y-81243008D01*
X152521000Y-80736902D01*
X152521000Y-80189098D01*
X152311364Y-79682992D01*
X151924008Y-79295636D01*
X151417902Y-79086000D01*
X150870098Y-79086000D01*
X150363992Y-79295636D01*
X150137992Y-79521636D01*
X150042320Y-79290663D01*
X149782657Y-79031000D01*
X153434534Y-79031000D01*
X153365000Y-79263000D01*
G36*
X141681000Y-79263000D02*
X141681000Y-80463000D01*
X142889000Y-80463000D01*
X142889000Y-80443000D01*
X143143000Y-80443000D01*
X143143000Y-80463000D01*
X144351000Y-80463000D01*
X144351000Y-79263000D01*
X144281466Y-79031000D01*
X147933343Y-79031000D01*
X147673680Y-79290663D01*
X147578008Y-79521636D01*
X147352008Y-79295636D01*
X146845902Y-79086000D01*
X146298098Y-79086000D01*
X145791992Y-79295636D01*
X145404636Y-79682992D01*
X145195000Y-80189098D01*
X145195000Y-80736902D01*
X145404636Y-81243008D01*
X145716120Y-81554492D01*
X145507826Y-81480353D01*
X144957322Y-81508315D01*
X144578595Y-81665189D01*
X144510536Y-81906188D01*
X144395483Y-81791135D01*
X144351000Y-81835618D01*
X144351000Y-80717000D01*
X143143000Y-80717000D01*
X143143000Y-80737000D01*
X142889000Y-80737000D01*
X142889000Y-80717000D01*
X141681000Y-80717000D01*
X141681000Y-81917000D01*
X141831222Y-82418215D01*
X142107373Y-82757000D01*
X142031750Y-82757000D01*
X141873000Y-82915750D01*
X141873000Y-83765000D01*
X143122250Y-83765000D01*
X143281000Y-83606250D01*
X143281000Y-83265691D01*
X143184327Y-83032302D01*
X143143002Y-82990977D01*
X143143002Y-82959375D01*
X143349329Y-83082716D01*
X143409550Y-83071980D01*
X143870185Y-82823790D01*
X143910248Y-82774640D01*
X143933055Y-83223658D01*
X144089929Y-83602385D01*
X144330930Y-83670445D01*
X145123255Y-82878120D01*
X145109113Y-82863978D01*
X145288718Y-82684373D01*
X145302860Y-82698515D01*
X146095185Y-81906190D01*
X146047136Y-81736048D01*
X146298098Y-81840000D01*
X146845902Y-81840000D01*
X146994250Y-81778552D01*
X146675013Y-82097789D01*
X146583790Y-82318020D01*
X146515791Y-82153855D01*
X146274790Y-82085795D01*
X145482465Y-82878120D01*
X146274790Y-83670445D01*
X146515791Y-83602385D01*
X146578644Y-83425797D01*
X146675013Y-83658451D01*
X146730001Y-83713439D01*
X146730000Y-85040944D01*
X146578597Y-85071060D01*
X146371199Y-85209639D01*
X146369621Y-85212000D01*
X143812059Y-85212000D01*
X143738000Y-85197269D01*
X143663941Y-85212000D01*
X143663937Y-85212000D01*
X143444584Y-85255632D01*
X143195839Y-85421839D01*
X143153884Y-85484629D01*
X143122279Y-85516234D01*
X143098041Y-85479959D01*
X142890643Y-85341380D01*
X142646000Y-85292717D01*
X140949000Y-85292717D01*
X140949000Y-85027000D01*
X141460250Y-85027000D01*
X141619000Y-84868250D01*
X141619000Y-84019000D01*
X141873000Y-84019000D01*
X141873000Y-84868250D01*
X142031750Y-85027000D01*
X142772310Y-85027000D01*
X143005699Y-84930327D01*
X143184327Y-84751698D01*
X143281000Y-84518309D01*
X143281000Y-84177750D01*
X143122250Y-84019000D01*
X141873000Y-84019000D01*
X141619000Y-84019000D01*
X141599000Y-84019000D01*
X141599000Y-83850050D01*
X144510535Y-83850050D01*
X144578595Y-84091051D01*
X145097894Y-84275887D01*
X145648398Y-84247925D01*
X146027125Y-84091051D01*
X146095185Y-83850050D01*
X145302860Y-83057725D01*
X144510535Y-83850050D01*
X141599000Y-83850050D01*
X141599000Y-83765000D01*
X141619000Y-83765000D01*
X141619000Y-82915750D01*
X141460250Y-82757000D01*
X140949000Y-82757000D01*
X140949000Y-79031000D01*
X141750534Y-79031000D01*
X141681000Y-79263000D01*
X141681000Y-79263000D01*
G37*
X141681000Y-79263000D02*
X141681000Y-80463000D01*
X142889000Y-80463000D01*
X142889000Y-80443000D01*
X143143000Y-80443000D01*
X143143000Y-80463000D01*
X144351000Y-80463000D01*
X144351000Y-79263000D01*
X144281466Y-79031000D01*
X147933343Y-79031000D01*
X147673680Y-79290663D01*
X147578008Y-79521636D01*
X147352008Y-79295636D01*
X146845902Y-79086000D01*
X146298098Y-79086000D01*
X145791992Y-79295636D01*
X145404636Y-79682992D01*
X145195000Y-80189098D01*
X145195000Y-80736902D01*
X145404636Y-81243008D01*
X145716120Y-81554492D01*
X145507826Y-81480353D01*
X144957322Y-81508315D01*
X144578595Y-81665189D01*
X144510536Y-81906188D01*
X144395483Y-81791135D01*
X144351000Y-81835618D01*
X144351000Y-80717000D01*
X143143000Y-80717000D01*
X143143000Y-80737000D01*
X142889000Y-80737000D01*
X142889000Y-80717000D01*
X141681000Y-80717000D01*
X141681000Y-81917000D01*
X141831222Y-82418215D01*
X142107373Y-82757000D01*
X142031750Y-82757000D01*
X141873000Y-82915750D01*
X141873000Y-83765000D01*
X143122250Y-83765000D01*
X143281000Y-83606250D01*
X143281000Y-83265691D01*
X143184327Y-83032302D01*
X143143002Y-82990977D01*
X143143002Y-82959375D01*
X143349329Y-83082716D01*
X143409550Y-83071980D01*
X143870185Y-82823790D01*
X143910248Y-82774640D01*
X143933055Y-83223658D01*
X144089929Y-83602385D01*
X144330930Y-83670445D01*
X145123255Y-82878120D01*
X145109113Y-82863978D01*
X145288718Y-82684373D01*
X145302860Y-82698515D01*
X146095185Y-81906190D01*
X146047136Y-81736048D01*
X146298098Y-81840000D01*
X146845902Y-81840000D01*
X146994250Y-81778552D01*
X146675013Y-82097789D01*
X146583790Y-82318020D01*
X146515791Y-82153855D01*
X146274790Y-82085795D01*
X145482465Y-82878120D01*
X146274790Y-83670445D01*
X146515791Y-83602385D01*
X146578644Y-83425797D01*
X146675013Y-83658451D01*
X146730001Y-83713439D01*
X146730000Y-85040944D01*
X146578597Y-85071060D01*
X146371199Y-85209639D01*
X146369621Y-85212000D01*
X143812059Y-85212000D01*
X143738000Y-85197269D01*
X143663941Y-85212000D01*
X143663937Y-85212000D01*
X143444584Y-85255632D01*
X143195839Y-85421839D01*
X143153884Y-85484629D01*
X143122279Y-85516234D01*
X143098041Y-85479959D01*
X142890643Y-85341380D01*
X142646000Y-85292717D01*
X140949000Y-85292717D01*
X140949000Y-85027000D01*
X141460250Y-85027000D01*
X141619000Y-84868250D01*
X141619000Y-84019000D01*
X141873000Y-84019000D01*
X141873000Y-84868250D01*
X142031750Y-85027000D01*
X142772310Y-85027000D01*
X143005699Y-84930327D01*
X143184327Y-84751698D01*
X143281000Y-84518309D01*
X143281000Y-84177750D01*
X143122250Y-84019000D01*
X141873000Y-84019000D01*
X141619000Y-84019000D01*
X141599000Y-84019000D01*
X141599000Y-83850050D01*
X144510535Y-83850050D01*
X144578595Y-84091051D01*
X145097894Y-84275887D01*
X145648398Y-84247925D01*
X146027125Y-84091051D01*
X146095185Y-83850050D01*
X145302860Y-83057725D01*
X144510535Y-83850050D01*
X141599000Y-83850050D01*
X141599000Y-83765000D01*
X141619000Y-83765000D01*
X141619000Y-82915750D01*
X141460250Y-82757000D01*
X140949000Y-82757000D01*
X140949000Y-79031000D01*
X141750534Y-79031000D01*
X141681000Y-79263000D01*
G36*
X150509000Y-109419000D02*
X150529000Y-109419000D01*
X150529000Y-109673000D01*
X150509000Y-109673000D01*
X150509000Y-109693000D01*
X150255000Y-109693000D01*
X150255000Y-109673000D01*
X148757000Y-109673000D01*
X148757000Y-109724750D01*
X148693250Y-109661000D01*
X147969000Y-109661000D01*
X147969000Y-110410250D01*
X148127750Y-110569000D01*
X148343310Y-110569000D01*
X148576699Y-110472327D01*
X148755327Y-110293698D01*
X148757000Y-110289659D01*
X148757000Y-110663000D01*
X148929297Y-111275193D01*
X149195304Y-111613000D01*
X146607119Y-111613000D01*
X146905180Y-111166922D01*
X146999000Y-110695256D01*
X146999000Y-110364025D01*
X147107301Y-110472327D01*
X147340690Y-110569000D01*
X147556250Y-110569000D01*
X147715000Y-110410250D01*
X147715000Y-109661000D01*
X147695000Y-109661000D01*
X147695000Y-109511001D01*
X148402942Y-109511001D01*
X148477001Y-109525732D01*
X148551060Y-109511001D01*
X148551064Y-109511001D01*
X148770417Y-109467369D01*
X148842806Y-109419000D01*
X150255000Y-109419000D01*
X150255000Y-109399000D01*
X150509000Y-109399000D01*
X150509000Y-109419000D01*
X150509000Y-109419000D01*
G37*
X150509000Y-109419000D02*
X150529000Y-109419000D01*
X150529000Y-109673000D01*
X150509000Y-109673000D01*
X150509000Y-109693000D01*
X150255000Y-109693000D01*
X150255000Y-109673000D01*
X148757000Y-109673000D01*
X148757000Y-109724750D01*
X148693250Y-109661000D01*
X147969000Y-109661000D01*
X147969000Y-110410250D01*
X148127750Y-110569000D01*
X148343310Y-110569000D01*
X148576699Y-110472327D01*
X148755327Y-110293698D01*
X148757000Y-110289659D01*
X148757000Y-110663000D01*
X148929297Y-111275193D01*
X149195304Y-111613000D01*
X146607119Y-111613000D01*
X146905180Y-111166922D01*
X146999000Y-110695256D01*
X146999000Y-110364025D01*
X147107301Y-110472327D01*
X147340690Y-110569000D01*
X147556250Y-110569000D01*
X147715000Y-110410250D01*
X147715000Y-109661000D01*
X147695000Y-109661000D01*
X147695000Y-109511001D01*
X148402942Y-109511001D01*
X148477001Y-109525732D01*
X148551060Y-109511001D01*
X148551064Y-109511001D01*
X148770417Y-109467369D01*
X148842806Y-109419000D01*
X150255000Y-109419000D01*
X150255000Y-109399000D01*
X150509000Y-109399000D01*
X150509000Y-109419000D01*
G36*
X142402717Y-106512000D02*
X142451380Y-106756643D01*
X142589959Y-106964041D01*
X142797357Y-107102620D01*
X143042000Y-107151283D01*
X143494795Y-107151283D01*
X144022952Y-107679440D01*
X143858821Y-107925078D01*
X143765001Y-108396744D01*
X143765001Y-109110814D01*
X143626123Y-108775533D01*
X143333320Y-108646285D01*
X142179605Y-109800000D01*
X143333320Y-110953715D01*
X143626123Y-110824467D01*
X143765000Y-110461945D01*
X143765000Y-110695255D01*
X143858820Y-111166921D01*
X144156881Y-111613000D01*
X142573306Y-111613000D01*
X143024467Y-111426123D01*
X143153715Y-111133320D01*
X142000000Y-109979605D01*
X141985858Y-109993748D01*
X141806253Y-109814143D01*
X141820395Y-109800000D01*
X141806253Y-109785858D01*
X141985858Y-109606253D01*
X142000000Y-109620395D01*
X143153715Y-108466680D01*
X143024467Y-108173877D01*
X142324194Y-107905612D01*
X141574565Y-107925750D01*
X140975533Y-108173877D01*
X140949000Y-108233986D01*
X140949000Y-106182784D01*
X141042000Y-106201283D01*
X141942000Y-106201283D01*
X142186643Y-106152620D01*
X142394041Y-106014041D01*
X142402717Y-106001056D01*
X142402717Y-106512000D01*
X142402717Y-106512000D01*
G37*
X142402717Y-106512000D02*
X142451380Y-106756643D01*
X142589959Y-106964041D01*
X142797357Y-107102620D01*
X143042000Y-107151283D01*
X143494795Y-107151283D01*
X144022952Y-107679440D01*
X143858821Y-107925078D01*
X143765001Y-108396744D01*
X143765001Y-109110814D01*
X143626123Y-108775533D01*
X143333320Y-108646285D01*
X142179605Y-109800000D01*
X143333320Y-110953715D01*
X143626123Y-110824467D01*
X143765000Y-110461945D01*
X143765000Y-110695255D01*
X143858820Y-111166921D01*
X144156881Y-111613000D01*
X142573306Y-111613000D01*
X143024467Y-111426123D01*
X143153715Y-111133320D01*
X142000000Y-109979605D01*
X141985858Y-109993748D01*
X141806253Y-109814143D01*
X141820395Y-109800000D01*
X141806253Y-109785858D01*
X141985858Y-109606253D01*
X142000000Y-109620395D01*
X143153715Y-108466680D01*
X143024467Y-108173877D01*
X142324194Y-107905612D01*
X141574565Y-107925750D01*
X140975533Y-108173877D01*
X140949000Y-108233986D01*
X140949000Y-106182784D01*
X141042000Y-106201283D01*
X141942000Y-106201283D01*
X142186643Y-106152620D01*
X142394041Y-106014041D01*
X142402717Y-106001056D01*
X142402717Y-106512000D01*
G36*
X151413582Y-106820368D02*
X151632935Y-106864000D01*
X151632939Y-106864000D01*
X151706998Y-106878731D01*
X151781057Y-106864000D01*
X152164974Y-106864000D01*
X152008673Y-107020302D01*
X151912000Y-107253691D01*
X151912000Y-107494250D01*
X152070750Y-107653000D01*
X152795000Y-107653000D01*
X152795000Y-107633000D01*
X153049000Y-107633000D01*
X153049000Y-107653000D01*
X153069000Y-107653000D01*
X153069000Y-107907000D01*
X153049000Y-107907000D01*
X153049000Y-107927000D01*
X152795000Y-107927000D01*
X152795000Y-107907000D01*
X152070750Y-107907000D01*
X151912000Y-108065750D01*
X151912000Y-108091453D01*
X151834703Y-107816807D01*
X151441246Y-107317149D01*
X151032229Y-107087796D01*
X151116327Y-107003699D01*
X151213000Y-106770310D01*
X151213000Y-106686343D01*
X151413582Y-106820368D01*
X151413582Y-106820368D01*
G37*
X151413582Y-106820368D02*
X151632935Y-106864000D01*
X151632939Y-106864000D01*
X151706998Y-106878731D01*
X151781057Y-106864000D01*
X152164974Y-106864000D01*
X152008673Y-107020302D01*
X151912000Y-107253691D01*
X151912000Y-107494250D01*
X152070750Y-107653000D01*
X152795000Y-107653000D01*
X152795000Y-107633000D01*
X153049000Y-107633000D01*
X153049000Y-107653000D01*
X153069000Y-107653000D01*
X153069000Y-107907000D01*
X153049000Y-107907000D01*
X153049000Y-107927000D01*
X152795000Y-107927000D01*
X152795000Y-107907000D01*
X152070750Y-107907000D01*
X151912000Y-108065750D01*
X151912000Y-108091453D01*
X151834703Y-107816807D01*
X151441246Y-107317149D01*
X151032229Y-107087796D01*
X151116327Y-107003699D01*
X151213000Y-106770310D01*
X151213000Y-106686343D01*
X151413582Y-106820368D01*
G36*
X150255000Y-106117000D02*
X150275000Y-106117000D01*
X150275000Y-106371000D01*
X150255000Y-106371000D01*
X150255000Y-106391000D01*
X150001000Y-106391000D01*
X150001000Y-106371000D01*
X149981000Y-106371000D01*
X149981000Y-106117000D01*
X150001000Y-106117000D01*
X150001000Y-106107000D01*
X150255000Y-106107000D01*
X150255000Y-106117000D01*
X150255000Y-106117000D01*
G37*
X150255000Y-106117000D02*
X150275000Y-106117000D01*
X150275000Y-106371000D01*
X150255000Y-106371000D01*
X150255000Y-106391000D01*
X150001000Y-106391000D01*
X150001000Y-106371000D01*
X149981000Y-106371000D01*
X149981000Y-106117000D01*
X150001000Y-106117000D01*
X150001000Y-106107000D01*
X150255000Y-106107000D01*
X150255000Y-106117000D01*
G36*
X154191717Y-99220000D02*
X154240380Y-99464643D01*
X154378959Y-99672041D01*
X154586357Y-99810620D01*
X154831000Y-99859283D01*
X155331000Y-99859283D01*
X155364968Y-99852526D01*
X155385380Y-99955143D01*
X155428558Y-100019764D01*
X155393703Y-100026697D01*
X154905142Y-100353142D01*
X154690128Y-100674934D01*
X154625183Y-100536642D01*
X154196924Y-100146355D01*
X153786890Y-99976524D01*
X153557000Y-100097845D01*
X153557000Y-101291000D01*
X153577000Y-101291000D01*
X153577000Y-101545000D01*
X153557000Y-101545000D01*
X153557000Y-102738155D01*
X153786890Y-102859476D01*
X154196924Y-102689645D01*
X154625183Y-102299358D01*
X154690128Y-102161066D01*
X154858917Y-102413677D01*
X154728628Y-102543965D01*
X154665839Y-102585920D01*
X154499632Y-102834666D01*
X154456000Y-103054019D01*
X154456000Y-103054022D01*
X154441269Y-103128081D01*
X154450148Y-103172717D01*
X153742000Y-103172717D01*
X153497357Y-103221380D01*
X153289959Y-103359959D01*
X153151380Y-103567357D01*
X153102717Y-103812000D01*
X153102717Y-104322944D01*
X153094041Y-104309959D01*
X152886643Y-104171380D01*
X152642000Y-104122717D01*
X151742000Y-104122717D01*
X151497357Y-104171380D01*
X151289959Y-104309959D01*
X151217283Y-104418726D01*
X151217283Y-103944000D01*
X151168620Y-103699357D01*
X151030041Y-103491959D01*
X150822643Y-103353380D01*
X150578000Y-103304717D01*
X150104999Y-103304717D01*
X150104999Y-102907283D01*
X150857589Y-102907283D01*
X150890000Y-102913730D01*
X150922411Y-102907283D01*
X151740000Y-102907283D01*
X151984643Y-102858620D01*
X152192041Y-102720041D01*
X152330620Y-102512643D01*
X152351833Y-102405999D01*
X152663076Y-102689645D01*
X153073110Y-102859476D01*
X153303000Y-102738155D01*
X153303000Y-101545000D01*
X153283000Y-101545000D01*
X153283000Y-101291000D01*
X153303000Y-101291000D01*
X153303000Y-100097845D01*
X153073110Y-99976524D01*
X152663076Y-100146355D01*
X152351833Y-100430001D01*
X152330620Y-100323357D01*
X152211062Y-100144426D01*
X153067497Y-99287991D01*
X153260000Y-99326283D01*
X153860000Y-99326283D01*
X154104643Y-99277620D01*
X154191717Y-99219439D01*
X154191717Y-99220000D01*
X154191717Y-99220000D01*
G37*
X154191717Y-99220000D02*
X154240380Y-99464643D01*
X154378959Y-99672041D01*
X154586357Y-99810620D01*
X154831000Y-99859283D01*
X155331000Y-99859283D01*
X155364968Y-99852526D01*
X155385380Y-99955143D01*
X155428558Y-100019764D01*
X155393703Y-100026697D01*
X154905142Y-100353142D01*
X154690128Y-100674934D01*
X154625183Y-100536642D01*
X154196924Y-100146355D01*
X153786890Y-99976524D01*
X153557000Y-100097845D01*
X153557000Y-101291000D01*
X153577000Y-101291000D01*
X153577000Y-101545000D01*
X153557000Y-101545000D01*
X153557000Y-102738155D01*
X153786890Y-102859476D01*
X154196924Y-102689645D01*
X154625183Y-102299358D01*
X154690128Y-102161066D01*
X154858917Y-102413677D01*
X154728628Y-102543965D01*
X154665839Y-102585920D01*
X154499632Y-102834666D01*
X154456000Y-103054019D01*
X154456000Y-103054022D01*
X154441269Y-103128081D01*
X154450148Y-103172717D01*
X153742000Y-103172717D01*
X153497357Y-103221380D01*
X153289959Y-103359959D01*
X153151380Y-103567357D01*
X153102717Y-103812000D01*
X153102717Y-104322944D01*
X153094041Y-104309959D01*
X152886643Y-104171380D01*
X152642000Y-104122717D01*
X151742000Y-104122717D01*
X151497357Y-104171380D01*
X151289959Y-104309959D01*
X151217283Y-104418726D01*
X151217283Y-103944000D01*
X151168620Y-103699357D01*
X151030041Y-103491959D01*
X150822643Y-103353380D01*
X150578000Y-103304717D01*
X150104999Y-103304717D01*
X150104999Y-102907283D01*
X150857589Y-102907283D01*
X150890000Y-102913730D01*
X150922411Y-102907283D01*
X151740000Y-102907283D01*
X151984643Y-102858620D01*
X152192041Y-102720041D01*
X152330620Y-102512643D01*
X152351833Y-102405999D01*
X152663076Y-102689645D01*
X153073110Y-102859476D01*
X153303000Y-102738155D01*
X153303000Y-101545000D01*
X153283000Y-101545000D01*
X153283000Y-101291000D01*
X153303000Y-101291000D01*
X153303000Y-100097845D01*
X153073110Y-99976524D01*
X152663076Y-100146355D01*
X152351833Y-100430001D01*
X152330620Y-100323357D01*
X152211062Y-100144426D01*
X153067497Y-99287991D01*
X153260000Y-99326283D01*
X153860000Y-99326283D01*
X154104643Y-99277620D01*
X154191717Y-99219439D01*
X154191717Y-99220000D01*
G36*
X141164717Y-98870000D02*
X141164717Y-99370000D01*
X141213380Y-99614643D01*
X141351959Y-99822041D01*
X141502000Y-99922296D01*
X141502000Y-100351024D01*
X141468127Y-100384897D01*
X141327000Y-100725608D01*
X141327000Y-101094392D01*
X141468127Y-101435103D01*
X141728897Y-101695873D01*
X142069608Y-101837000D01*
X142248512Y-101837000D01*
X142689885Y-102278373D01*
X142731839Y-102341161D01*
X142980584Y-102507368D01*
X143199937Y-102551000D01*
X143199941Y-102551000D01*
X143274000Y-102565731D01*
X143348059Y-102551000D01*
X143703937Y-102551000D01*
X143778000Y-102565732D01*
X143852063Y-102551000D01*
X144071416Y-102507368D01*
X144084043Y-102498931D01*
X144276643Y-102460620D01*
X144285153Y-102454934D01*
X144296000Y-102509469D01*
X144296000Y-102509472D01*
X144339632Y-102728825D01*
X144505839Y-102977571D01*
X144568629Y-103019526D01*
X144920682Y-103371579D01*
X144861357Y-103383380D01*
X144653959Y-103521959D01*
X144553497Y-103672311D01*
X144532620Y-103567357D01*
X144394041Y-103359959D01*
X144186643Y-103221380D01*
X143942000Y-103172717D01*
X143042000Y-103172717D01*
X142797357Y-103221380D01*
X142589959Y-103359959D01*
X142451380Y-103567357D01*
X142402717Y-103812000D01*
X142402717Y-104322944D01*
X142394041Y-104309959D01*
X142186643Y-104171380D01*
X141942000Y-104122717D01*
X141042000Y-104122717D01*
X140949000Y-104141216D01*
X140949000Y-98751000D01*
X141188388Y-98751000D01*
X141164717Y-98870000D01*
X141164717Y-98870000D01*
G37*
X141164717Y-98870000D02*
X141164717Y-99370000D01*
X141213380Y-99614643D01*
X141351959Y-99822041D01*
X141502000Y-99922296D01*
X141502000Y-100351024D01*
X141468127Y-100384897D01*
X141327000Y-100725608D01*
X141327000Y-101094392D01*
X141468127Y-101435103D01*
X141728897Y-101695873D01*
X142069608Y-101837000D01*
X142248512Y-101837000D01*
X142689885Y-102278373D01*
X142731839Y-102341161D01*
X142980584Y-102507368D01*
X143199937Y-102551000D01*
X143199941Y-102551000D01*
X143274000Y-102565731D01*
X143348059Y-102551000D01*
X143703937Y-102551000D01*
X143778000Y-102565732D01*
X143852063Y-102551000D01*
X144071416Y-102507368D01*
X144084043Y-102498931D01*
X144276643Y-102460620D01*
X144285153Y-102454934D01*
X144296000Y-102509469D01*
X144296000Y-102509472D01*
X144339632Y-102728825D01*
X144505839Y-102977571D01*
X144568629Y-103019526D01*
X144920682Y-103371579D01*
X144861357Y-103383380D01*
X144653959Y-103521959D01*
X144553497Y-103672311D01*
X144532620Y-103567357D01*
X144394041Y-103359959D01*
X144186643Y-103221380D01*
X143942000Y-103172717D01*
X143042000Y-103172717D01*
X142797357Y-103221380D01*
X142589959Y-103359959D01*
X142451380Y-103567357D01*
X142402717Y-103812000D01*
X142402717Y-104322944D01*
X142394041Y-104309959D01*
X142186643Y-104171380D01*
X141942000Y-104122717D01*
X141042000Y-104122717D01*
X140949000Y-104141216D01*
X140949000Y-98751000D01*
X141188388Y-98751000D01*
X141164717Y-98870000D01*
G36*
X147715000Y-98983000D02*
X147735000Y-98983000D01*
X147735000Y-99233000D01*
X147715000Y-99233000D01*
X147715000Y-100152635D01*
X147700976Y-100223138D01*
X147700976Y-100223141D01*
X147686245Y-100297200D01*
X147700976Y-100371259D01*
X147700976Y-101017000D01*
X147461000Y-101017000D01*
X147461000Y-100997000D01*
X147441000Y-100997000D01*
X147441000Y-100743000D01*
X147461000Y-100743000D01*
X147461000Y-99233000D01*
X147441000Y-99233000D01*
X147441000Y-98983000D01*
X147461000Y-98983000D01*
X147461000Y-98961000D01*
X147715000Y-98961000D01*
X147715000Y-98983000D01*
X147715000Y-98983000D01*
G37*
X147715000Y-98983000D02*
X147735000Y-98983000D01*
X147735000Y-99233000D01*
X147715000Y-99233000D01*
X147715000Y-100152635D01*
X147700976Y-100223138D01*
X147700976Y-100223141D01*
X147686245Y-100297200D01*
X147700976Y-100371259D01*
X147700976Y-101017000D01*
X147461000Y-101017000D01*
X147461000Y-100997000D01*
X147441000Y-100997000D01*
X147441000Y-100743000D01*
X147461000Y-100743000D01*
X147461000Y-99233000D01*
X147441000Y-99233000D01*
X147441000Y-98983000D01*
X147461000Y-98983000D01*
X147461000Y-98961000D01*
X147715000Y-98961000D01*
X147715000Y-98983000D01*
G36*
X155112583Y-97713369D02*
X155331936Y-97757001D01*
X155331939Y-97757001D01*
X155405998Y-97771732D01*
X155480057Y-97757001D01*
X156320979Y-97757001D01*
X156320979Y-97957500D01*
X156224000Y-97957500D01*
X156224000Y-97937500D01*
X155499750Y-97937500D01*
X155490250Y-97947000D01*
X155206000Y-97947000D01*
X155206000Y-97967000D01*
X155133488Y-97967000D01*
X154934000Y-97767513D01*
X154934000Y-97693000D01*
X154956000Y-97693000D01*
X154956000Y-97673000D01*
X155052167Y-97673000D01*
X155112583Y-97713369D01*
X155112583Y-97713369D01*
G37*
X155112583Y-97713369D02*
X155331936Y-97757001D01*
X155331939Y-97757001D01*
X155405998Y-97771732D01*
X155480057Y-97757001D01*
X156320979Y-97757001D01*
X156320979Y-97957500D01*
X156224000Y-97957500D01*
X156224000Y-97937500D01*
X155499750Y-97937500D01*
X155490250Y-97947000D01*
X155206000Y-97947000D01*
X155206000Y-97967000D01*
X155133488Y-97967000D01*
X154934000Y-97767513D01*
X154934000Y-97693000D01*
X154956000Y-97693000D01*
X154956000Y-97673000D01*
X155052167Y-97673000D01*
X155112583Y-97713369D01*
G36*
X152738001Y-96039659D02*
X152669380Y-96142357D01*
X152620717Y-96387000D01*
X152620717Y-96737000D01*
X152645447Y-96861326D01*
X152625000Y-96910690D01*
X152625000Y-96965750D01*
X152726744Y-97067494D01*
X152738440Y-97084998D01*
X152625000Y-97084998D01*
X152625000Y-97110000D01*
X152464976Y-97110000D01*
X152431103Y-97076127D01*
X152090392Y-96935000D01*
X151738994Y-96935000D01*
X151729446Y-96887000D01*
X151759283Y-96737000D01*
X151759283Y-96387000D01*
X151710620Y-96142357D01*
X151586768Y-95957000D01*
X152738001Y-95957000D01*
X152738001Y-96039659D01*
X152738001Y-96039659D01*
G37*
X152738001Y-96039659D02*
X152669380Y-96142357D01*
X152620717Y-96387000D01*
X152620717Y-96737000D01*
X152645447Y-96861326D01*
X152625000Y-96910690D01*
X152625000Y-96965750D01*
X152726744Y-97067494D01*
X152738440Y-97084998D01*
X152625000Y-97084998D01*
X152625000Y-97110000D01*
X152464976Y-97110000D01*
X152431103Y-97076127D01*
X152090392Y-96935000D01*
X151738994Y-96935000D01*
X151729446Y-96887000D01*
X151759283Y-96737000D01*
X151759283Y-96387000D01*
X151710620Y-96142357D01*
X151586768Y-95957000D01*
X152738001Y-95957000D01*
X152738001Y-96039659D01*
M02*
