G04 #@! TF.GenerationSoftware,KiCad,Pcbnew,(2018-02-16 revision c95340fba)-makepkg*
G04 #@! TF.CreationDate,2018-05-25T21:01:48+02:00*
G04 #@! TF.ProjectId,LIN_USB_CONVERTER,4C494E5F5553425F434F4E5645525445,rev?*
G04 #@! TF.SameCoordinates,PX85b9e30PY4aad300*
G04 #@! TF.FileFunction,Legend,Top*
G04 #@! TF.FilePolarity,Positive*
%FSLAX46Y46*%
G04 Gerber Fmt 4.6, Leading zero omitted, Abs format (unit mm)*
G04 Created by KiCad (PCBNEW (2018-02-16 revision c95340fba)-makepkg) date 05/25/18 21:01:48*
%MOMM*%
%LPD*%
G01*
G04 APERTURE LIST*
%ADD10C,0.100000*%
%ADD11C,0.120000*%
%ADD12C,0.150000*%
%ADD13C,0.090000*%
%ADD14R,1.650000X1.400000*%
%ADD15R,0.908000X2.400000*%
%ADD16R,0.900000X1.300000*%
%ADD17R,1.300000X1.200000*%
%ADD18R,0.702000X0.302000*%
%ADD19R,0.302000X0.702000*%
%ADD20R,0.102000X0.102000*%
%ADD21C,0.214000*%
%ADD22R,0.152000X0.152000*%
%ADD23R,0.502000X0.302000*%
%ADD24R,0.302000X0.502000*%
%ADD25C,2.900000*%
%ADD26R,1.150000X1.200000*%
%ADD27R,1.300000X0.900000*%
%ADD28R,1.400000X1.650000*%
%ADD29R,1.950000X1.000000*%
%ADD30R,1.200000X1.150000*%
G04 APERTURE END LIST*
D10*
X941428Y-14393828D02*
X741428Y-14108114D01*
X598571Y-14393828D02*
X598571Y-13793828D01*
X827142Y-13793828D01*
X884285Y-13822400D01*
X912857Y-13850971D01*
X941428Y-13908114D01*
X941428Y-13993828D01*
X912857Y-14050971D01*
X884285Y-14079542D01*
X827142Y-14108114D01*
X598571Y-14108114D01*
X1170000Y-14365257D02*
X1255714Y-14393828D01*
X1398571Y-14393828D01*
X1455714Y-14365257D01*
X1484285Y-14336685D01*
X1512857Y-14279542D01*
X1512857Y-14222400D01*
X1484285Y-14165257D01*
X1455714Y-14136685D01*
X1398571Y-14108114D01*
X1284285Y-14079542D01*
X1227142Y-14050971D01*
X1198571Y-14022400D01*
X1170000Y-13965257D01*
X1170000Y-13908114D01*
X1198571Y-13850971D01*
X1227142Y-13822400D01*
X1284285Y-13793828D01*
X1427142Y-13793828D01*
X1512857Y-13822400D01*
X1684285Y-13793828D02*
X2027142Y-13793828D01*
X1855714Y-14393828D02*
X1855714Y-13793828D01*
X527142Y-11253828D02*
X898571Y-11253828D01*
X698571Y-11482400D01*
X784285Y-11482400D01*
X841428Y-11510971D01*
X870000Y-11539542D01*
X898571Y-11596685D01*
X898571Y-11739542D01*
X870000Y-11796685D01*
X841428Y-11825257D01*
X784285Y-11853828D01*
X612857Y-11853828D01*
X555714Y-11825257D01*
X527142Y-11796685D01*
X1070000Y-11253828D02*
X1270000Y-11853828D01*
X1470000Y-11253828D01*
X1612857Y-11253828D02*
X1984285Y-11253828D01*
X1784285Y-11482400D01*
X1870000Y-11482400D01*
X1927142Y-11510971D01*
X1955714Y-11539542D01*
X1984285Y-11596685D01*
X1984285Y-11739542D01*
X1955714Y-11796685D01*
X1927142Y-11825257D01*
X1870000Y-11853828D01*
X1698571Y-11853828D01*
X1641428Y-11825257D01*
X1612857Y-11796685D01*
X912857Y-9256685D02*
X884285Y-9285257D01*
X798571Y-9313828D01*
X741428Y-9313828D01*
X655714Y-9285257D01*
X598571Y-9228114D01*
X570000Y-9170971D01*
X541428Y-9056685D01*
X541428Y-8970971D01*
X570000Y-8856685D01*
X598571Y-8799542D01*
X655714Y-8742400D01*
X741428Y-8713828D01*
X798571Y-8713828D01*
X884285Y-8742400D01*
X912857Y-8770971D01*
X1455714Y-9313828D02*
X1170000Y-9313828D01*
X1170000Y-8713828D01*
X1655714Y-9313828D02*
X1655714Y-8713828D01*
X1998571Y-9313828D02*
X1741428Y-8970971D01*
X1998571Y-8713828D02*
X1655714Y-9056685D01*
X655714Y-6773828D02*
X655714Y-6173828D01*
X798571Y-6173828D01*
X884285Y-6202400D01*
X941428Y-6259542D01*
X970000Y-6316685D01*
X998571Y-6430971D01*
X998571Y-6516685D01*
X970000Y-6630971D01*
X941428Y-6688114D01*
X884285Y-6745257D01*
X798571Y-6773828D01*
X655714Y-6773828D01*
X1255714Y-6773828D02*
X1255714Y-6173828D01*
X1655714Y-6173828D02*
X1770000Y-6173828D01*
X1827142Y-6202400D01*
X1884285Y-6259542D01*
X1912857Y-6373828D01*
X1912857Y-6573828D01*
X1884285Y-6688114D01*
X1827142Y-6745257D01*
X1770000Y-6773828D01*
X1655714Y-6773828D01*
X1598571Y-6745257D01*
X1541428Y-6688114D01*
X1512857Y-6573828D01*
X1512857Y-6373828D01*
X1541428Y-6259542D01*
X1598571Y-6202400D01*
X1655714Y-6173828D01*
X812857Y-3662400D02*
X755714Y-3633828D01*
X670000Y-3633828D01*
X584285Y-3662400D01*
X527142Y-3719542D01*
X498571Y-3776685D01*
X470000Y-3890971D01*
X470000Y-3976685D01*
X498571Y-4090971D01*
X527142Y-4148114D01*
X584285Y-4205257D01*
X670000Y-4233828D01*
X727142Y-4233828D01*
X812857Y-4205257D01*
X841428Y-4176685D01*
X841428Y-3976685D01*
X727142Y-3976685D01*
X1098571Y-4233828D02*
X1098571Y-3633828D01*
X1441428Y-4233828D01*
X1441428Y-3633828D01*
X1727142Y-4233828D02*
X1727142Y-3633828D01*
X1870000Y-3633828D01*
X1955714Y-3662400D01*
X2012857Y-3719542D01*
X2041428Y-3776685D01*
X2070000Y-3890971D01*
X2070000Y-3976685D01*
X2041428Y-4090971D01*
X2012857Y-4148114D01*
X1955714Y-4205257D01*
X1870000Y-4233828D01*
X1727142Y-4233828D01*
D11*
X8470000Y-31335600D02*
X8470000Y-30335600D01*
X6770000Y-30335600D02*
X6770000Y-31335600D01*
D12*
X1662336Y-23078440D02*
G75*
G03X1662336Y-23078440I-77376J0D01*
G01*
X1676400Y-18186400D02*
X6756400Y-18186400D01*
X6756400Y-18186400D02*
X6756400Y-22758400D01*
X6756400Y-22758400D02*
X1676400Y-22758400D01*
X1676400Y-22758400D02*
X1676400Y-18186400D01*
X1676400Y-19710400D02*
X2184400Y-19710400D01*
X2184400Y-19710400D02*
X2184400Y-20980400D01*
X2184400Y-20980400D02*
X1676400Y-20980400D01*
D11*
X4834000Y-13798000D02*
X5834000Y-13798000D01*
X5834000Y-15158000D02*
X4834000Y-15158000D01*
X16000000Y-11994000D02*
X16000000Y-11064000D01*
X16000000Y-8834000D02*
X16000000Y-9764000D01*
X16000000Y-8834000D02*
X13840000Y-8834000D01*
X16000000Y-11994000D02*
X14540000Y-11994000D01*
X6106600Y-7506600D02*
X6106600Y-7806600D01*
X10438800Y-7455800D02*
X10438800Y-7755800D01*
X10489600Y-11864200D02*
X10489600Y-11564200D01*
X6177200Y-11433200D02*
X6177200Y-11133200D01*
X10438800Y-7455800D02*
X10138800Y-7455800D01*
X10489600Y-11864200D02*
X10189600Y-11864200D01*
X6106600Y-7506600D02*
X6406600Y-7506600D01*
D12*
X6059156Y-11946000D02*
G75*
G03X6059156Y-11946000I-85156J0D01*
G01*
D11*
X13300000Y-29876000D02*
X13300000Y-30576000D01*
X12100000Y-30576000D02*
X12100000Y-29876000D01*
X15322000Y-27424000D02*
X15322000Y-26424000D01*
X16682000Y-26424000D02*
X16682000Y-27424000D01*
X1510000Y-25278000D02*
X1510000Y-26208000D01*
X1510000Y-28438000D02*
X1510000Y-27508000D01*
X1510000Y-28438000D02*
X3670000Y-28438000D01*
X1510000Y-25278000D02*
X2970000Y-25278000D01*
X13730000Y-28438000D02*
X13730000Y-27508000D01*
X13730000Y-25278000D02*
X13730000Y-26208000D01*
X13730000Y-25278000D02*
X11570000Y-25278000D01*
X13730000Y-28438000D02*
X12270000Y-28438000D01*
X6967600Y-26707200D02*
X7967600Y-26707200D01*
X7967600Y-25007200D02*
X6967600Y-25007200D01*
D12*
X13809800Y-21371800D02*
X15209800Y-21371800D01*
X13809800Y-16271800D02*
X9659800Y-16271800D01*
X13809800Y-21421800D02*
X9659800Y-21421800D01*
X13809800Y-16271800D02*
X13809800Y-16416800D01*
X9659800Y-16271800D02*
X9659800Y-16416800D01*
X9659800Y-21421800D02*
X9659800Y-21276800D01*
X13809800Y-21421800D02*
X13809800Y-21371800D01*
D11*
X17101200Y-18649200D02*
X17101200Y-19349200D01*
X15901200Y-19349200D02*
X15901200Y-18649200D01*
X12431600Y-15586000D02*
X11731600Y-15586000D01*
X11731600Y-14386000D02*
X12431600Y-14386000D01*
X15234400Y-7712000D02*
X14534400Y-7712000D01*
X14534400Y-6512000D02*
X15234400Y-6512000D01*
X12604000Y-12608000D02*
X13304000Y-12608000D01*
X13304000Y-13808000D02*
X12604000Y-13808000D01*
X11846000Y-7970000D02*
X11846000Y-7270000D01*
X13046000Y-7270000D02*
X13046000Y-7970000D01*
X8286000Y-13624000D02*
X8986000Y-13624000D01*
X8986000Y-14824000D02*
X8286000Y-14824000D01*
D13*
X7712057Y-30902266D02*
X7731104Y-30921314D01*
X7750152Y-30978457D01*
X7750152Y-31016552D01*
X7731104Y-31073695D01*
X7693009Y-31111790D01*
X7654914Y-31130838D01*
X7578723Y-31149885D01*
X7521580Y-31149885D01*
X7445390Y-31130838D01*
X7407295Y-31111790D01*
X7369200Y-31073695D01*
X7350152Y-31016552D01*
X7350152Y-30978457D01*
X7369200Y-30921314D01*
X7388247Y-30902266D01*
X7388247Y-30749885D02*
X7369200Y-30730838D01*
X7350152Y-30692742D01*
X7350152Y-30597504D01*
X7369200Y-30559409D01*
X7388247Y-30540361D01*
X7426342Y-30521314D01*
X7464438Y-30521314D01*
X7521580Y-30540361D01*
X7750152Y-30768933D01*
X7750152Y-30521314D01*
X822352Y-22555161D02*
X1146161Y-22555161D01*
X1184257Y-22536114D01*
X1203304Y-22517066D01*
X1222352Y-22478971D01*
X1222352Y-22402780D01*
X1203304Y-22364685D01*
X1184257Y-22345638D01*
X1146161Y-22326590D01*
X822352Y-22326590D01*
X860447Y-22155161D02*
X841400Y-22136114D01*
X822352Y-22098019D01*
X822352Y-22002780D01*
X841400Y-21964685D01*
X860447Y-21945638D01*
X898542Y-21926590D01*
X936638Y-21926590D01*
X993780Y-21945638D01*
X1222352Y-22174209D01*
X1222352Y-21926590D01*
X5267333Y-14658952D02*
X5134000Y-14468476D01*
X5038761Y-14658952D02*
X5038761Y-14258952D01*
X5191142Y-14258952D01*
X5229238Y-14278000D01*
X5248285Y-14297047D01*
X5267333Y-14335142D01*
X5267333Y-14392285D01*
X5248285Y-14430380D01*
X5229238Y-14449428D01*
X5191142Y-14468476D01*
X5038761Y-14468476D01*
X5400666Y-14258952D02*
X5648285Y-14258952D01*
X5514952Y-14411333D01*
X5572095Y-14411333D01*
X5610190Y-14430380D01*
X5629238Y-14449428D01*
X5648285Y-14487523D01*
X5648285Y-14582761D01*
X5629238Y-14620857D01*
X5610190Y-14639904D01*
X5572095Y-14658952D01*
X5457809Y-14658952D01*
X5419714Y-14639904D01*
X5400666Y-14620857D01*
X16306952Y-12054761D02*
X16630761Y-12054761D01*
X16668857Y-12035714D01*
X16687904Y-12016666D01*
X16706952Y-11978571D01*
X16706952Y-11902380D01*
X16687904Y-11864285D01*
X16668857Y-11845238D01*
X16630761Y-11826190D01*
X16306952Y-11826190D01*
X16306952Y-11673809D02*
X16306952Y-11426190D01*
X16459333Y-11559523D01*
X16459333Y-11502380D01*
X16478380Y-11464285D01*
X16497428Y-11445238D01*
X16535523Y-11426190D01*
X16630761Y-11426190D01*
X16668857Y-11445238D01*
X16687904Y-11464285D01*
X16706952Y-11502380D01*
X16706952Y-11616666D01*
X16687904Y-11654761D01*
X16668857Y-11673809D01*
X4733952Y-11861761D02*
X5057761Y-11861761D01*
X5095857Y-11842714D01*
X5114904Y-11823666D01*
X5133952Y-11785571D01*
X5133952Y-11709380D01*
X5114904Y-11671285D01*
X5095857Y-11652238D01*
X5057761Y-11633190D01*
X4733952Y-11633190D01*
X4867285Y-11271285D02*
X5133952Y-11271285D01*
X4714904Y-11366523D02*
X5000619Y-11461761D01*
X5000619Y-11214142D01*
X12633333Y-32146857D02*
X12614285Y-32165904D01*
X12557142Y-32184952D01*
X12519047Y-32184952D01*
X12461904Y-32165904D01*
X12423809Y-32127809D01*
X12404761Y-32089714D01*
X12385714Y-32013523D01*
X12385714Y-31956380D01*
X12404761Y-31880190D01*
X12423809Y-31842095D01*
X12461904Y-31804000D01*
X12519047Y-31784952D01*
X12557142Y-31784952D01*
X12614285Y-31804000D01*
X12633333Y-31823047D01*
X13014285Y-32184952D02*
X12785714Y-32184952D01*
X12900000Y-32184952D02*
X12900000Y-31784952D01*
X12861904Y-31842095D01*
X12823809Y-31880190D01*
X12785714Y-31899238D01*
X16182952Y-26990666D02*
X15992476Y-27124000D01*
X16182952Y-27219238D02*
X15782952Y-27219238D01*
X15782952Y-27066857D01*
X15802000Y-27028761D01*
X15821047Y-27009714D01*
X15859142Y-26990666D01*
X15916285Y-26990666D01*
X15954380Y-27009714D01*
X15973428Y-27028761D01*
X15992476Y-27066857D01*
X15992476Y-27219238D01*
X16182952Y-26609714D02*
X16182952Y-26838285D01*
X16182952Y-26724000D02*
X15782952Y-26724000D01*
X15840095Y-26762095D01*
X15878190Y-26800190D01*
X15897238Y-26838285D01*
X2450952Y-27087238D02*
X2050952Y-27087238D01*
X2050952Y-26992000D01*
X2070000Y-26934857D01*
X2108095Y-26896761D01*
X2146190Y-26877714D01*
X2222380Y-26858666D01*
X2279523Y-26858666D01*
X2355714Y-26877714D01*
X2393809Y-26896761D01*
X2431904Y-26934857D01*
X2450952Y-26992000D01*
X2450952Y-27087238D01*
X2450952Y-26477714D02*
X2450952Y-26706285D01*
X2450952Y-26592000D02*
X2050952Y-26592000D01*
X2108095Y-26630095D01*
X2146190Y-26668190D01*
X2165238Y-26706285D01*
X13150952Y-27153238D02*
X12750952Y-27153238D01*
X12750952Y-27058000D01*
X12770000Y-27000857D01*
X12808095Y-26962761D01*
X12846190Y-26943714D01*
X12922380Y-26924666D01*
X12979523Y-26924666D01*
X13055714Y-26943714D01*
X13093809Y-26962761D01*
X13131904Y-27000857D01*
X13150952Y-27058000D01*
X13150952Y-27153238D01*
X12750952Y-26791333D02*
X12750952Y-26543714D01*
X12903333Y-26677047D01*
X12903333Y-26619904D01*
X12922380Y-26581809D01*
X12941428Y-26562761D01*
X12979523Y-26543714D01*
X13074761Y-26543714D01*
X13112857Y-26562761D01*
X13131904Y-26581809D01*
X13150952Y-26619904D01*
X13150952Y-26734190D01*
X13131904Y-26772285D01*
X13112857Y-26791333D01*
X7400933Y-24500057D02*
X7381885Y-24519104D01*
X7324742Y-24538152D01*
X7286647Y-24538152D01*
X7229504Y-24519104D01*
X7191409Y-24481009D01*
X7172361Y-24442914D01*
X7153314Y-24366723D01*
X7153314Y-24309580D01*
X7172361Y-24233390D01*
X7191409Y-24195295D01*
X7229504Y-24157200D01*
X7286647Y-24138152D01*
X7324742Y-24138152D01*
X7381885Y-24157200D01*
X7400933Y-24176247D01*
X7534266Y-24138152D02*
X7800933Y-24138152D01*
X7629504Y-24538152D01*
X15790038Y-20710552D02*
X15790038Y-21034361D01*
X15809085Y-21072457D01*
X15828133Y-21091504D01*
X15866228Y-21110552D01*
X15942419Y-21110552D01*
X15980514Y-21091504D01*
X15999561Y-21072457D01*
X16018609Y-21034361D01*
X16018609Y-20710552D01*
X16418609Y-21110552D02*
X16190038Y-21110552D01*
X16304323Y-21110552D02*
X16304323Y-20710552D01*
X16266228Y-20767695D01*
X16228133Y-20805790D01*
X16190038Y-20824838D01*
X17702057Y-18964266D02*
X17721104Y-18983314D01*
X17740152Y-19040457D01*
X17740152Y-19078552D01*
X17721104Y-19135695D01*
X17683009Y-19173790D01*
X17644914Y-19192838D01*
X17568723Y-19211885D01*
X17511580Y-19211885D01*
X17435390Y-19192838D01*
X17397295Y-19173790D01*
X17359200Y-19135695D01*
X17340152Y-19078552D01*
X17340152Y-19040457D01*
X17359200Y-18983314D01*
X17378247Y-18964266D01*
X17340152Y-18830933D02*
X17340152Y-18583314D01*
X17492533Y-18716647D01*
X17492533Y-18659504D01*
X17511580Y-18621409D01*
X17530628Y-18602361D01*
X17568723Y-18583314D01*
X17663961Y-18583314D01*
X17702057Y-18602361D01*
X17721104Y-18621409D01*
X17740152Y-18659504D01*
X17740152Y-18773790D01*
X17721104Y-18811885D01*
X17702057Y-18830933D01*
X14002457Y-14951066D02*
X14021504Y-14970114D01*
X14040552Y-15027257D01*
X14040552Y-15065352D01*
X14021504Y-15122495D01*
X13983409Y-15160590D01*
X13945314Y-15179638D01*
X13869123Y-15198685D01*
X13811980Y-15198685D01*
X13735790Y-15179638D01*
X13697695Y-15160590D01*
X13659600Y-15122495D01*
X13640552Y-15065352D01*
X13640552Y-15027257D01*
X13659600Y-14970114D01*
X13678647Y-14951066D01*
X13773885Y-14608209D02*
X14040552Y-14608209D01*
X13621504Y-14703447D02*
X13907219Y-14798685D01*
X13907219Y-14551066D01*
X14859733Y-6289657D02*
X14840685Y-6308704D01*
X14783542Y-6327752D01*
X14745447Y-6327752D01*
X14688304Y-6308704D01*
X14650209Y-6270609D01*
X14631161Y-6232514D01*
X14612114Y-6156323D01*
X14612114Y-6099180D01*
X14631161Y-6022990D01*
X14650209Y-5984895D01*
X14688304Y-5946800D01*
X14745447Y-5927752D01*
X14783542Y-5927752D01*
X14840685Y-5946800D01*
X14859733Y-5965847D01*
X15221638Y-5927752D02*
X15031161Y-5927752D01*
X15012114Y-6118228D01*
X15031161Y-6099180D01*
X15069257Y-6080133D01*
X15164495Y-6080133D01*
X15202590Y-6099180D01*
X15221638Y-6118228D01*
X15240685Y-6156323D01*
X15240685Y-6251561D01*
X15221638Y-6289657D01*
X15202590Y-6308704D01*
X15164495Y-6327752D01*
X15069257Y-6327752D01*
X15031161Y-6308704D01*
X15012114Y-6289657D01*
X12726133Y-12334857D02*
X12707085Y-12353904D01*
X12649942Y-12372952D01*
X12611847Y-12372952D01*
X12554704Y-12353904D01*
X12516609Y-12315809D01*
X12497561Y-12277714D01*
X12478514Y-12201523D01*
X12478514Y-12144380D01*
X12497561Y-12068190D01*
X12516609Y-12030095D01*
X12554704Y-11992000D01*
X12611847Y-11972952D01*
X12649942Y-11972952D01*
X12707085Y-11992000D01*
X12726133Y-12011047D01*
X13068990Y-11972952D02*
X12992800Y-11972952D01*
X12954704Y-11992000D01*
X12935657Y-12011047D01*
X12897561Y-12068190D01*
X12878514Y-12144380D01*
X12878514Y-12296761D01*
X12897561Y-12334857D01*
X12916609Y-12353904D01*
X12954704Y-12372952D01*
X13030895Y-12372952D01*
X13068990Y-12353904D01*
X13088038Y-12334857D01*
X13107085Y-12296761D01*
X13107085Y-12201523D01*
X13088038Y-12163428D01*
X13068990Y-12144380D01*
X13030895Y-12125333D01*
X12954704Y-12125333D01*
X12916609Y-12144380D01*
X12897561Y-12163428D01*
X12878514Y-12201523D01*
X11614857Y-7686666D02*
X11633904Y-7705714D01*
X11652952Y-7762857D01*
X11652952Y-7800952D01*
X11633904Y-7858095D01*
X11595809Y-7896190D01*
X11557714Y-7915238D01*
X11481523Y-7934285D01*
X11424380Y-7934285D01*
X11348190Y-7915238D01*
X11310095Y-7896190D01*
X11272000Y-7858095D01*
X11252952Y-7800952D01*
X11252952Y-7762857D01*
X11272000Y-7705714D01*
X11291047Y-7686666D01*
X11424380Y-7458095D02*
X11405333Y-7496190D01*
X11386285Y-7515238D01*
X11348190Y-7534285D01*
X11329142Y-7534285D01*
X11291047Y-7515238D01*
X11272000Y-7496190D01*
X11252952Y-7458095D01*
X11252952Y-7381904D01*
X11272000Y-7343809D01*
X11291047Y-7324761D01*
X11329142Y-7305714D01*
X11348190Y-7305714D01*
X11386285Y-7324761D01*
X11405333Y-7343809D01*
X11424380Y-7381904D01*
X11424380Y-7458095D01*
X11443428Y-7496190D01*
X11462476Y-7515238D01*
X11500571Y-7534285D01*
X11576761Y-7534285D01*
X11614857Y-7515238D01*
X11633904Y-7496190D01*
X11652952Y-7458095D01*
X11652952Y-7381904D01*
X11633904Y-7343809D01*
X11614857Y-7324761D01*
X11576761Y-7305714D01*
X11500571Y-7305714D01*
X11462476Y-7324761D01*
X11443428Y-7343809D01*
X11424380Y-7381904D01*
X8458933Y-13452457D02*
X8439885Y-13471504D01*
X8382742Y-13490552D01*
X8344647Y-13490552D01*
X8287504Y-13471504D01*
X8249409Y-13433409D01*
X8230361Y-13395314D01*
X8211314Y-13319123D01*
X8211314Y-13261980D01*
X8230361Y-13185790D01*
X8249409Y-13147695D01*
X8287504Y-13109600D01*
X8344647Y-13090552D01*
X8382742Y-13090552D01*
X8439885Y-13109600D01*
X8458933Y-13128647D01*
X8649409Y-13490552D02*
X8725600Y-13490552D01*
X8763695Y-13471504D01*
X8782742Y-13452457D01*
X8820838Y-13395314D01*
X8839885Y-13319123D01*
X8839885Y-13166742D01*
X8820838Y-13128647D01*
X8801790Y-13109600D01*
X8763695Y-13090552D01*
X8687504Y-13090552D01*
X8649409Y-13109600D01*
X8630361Y-13128647D01*
X8611314Y-13166742D01*
X8611314Y-13261980D01*
X8630361Y-13300076D01*
X8649409Y-13319123D01*
X8687504Y-13338171D01*
X8763695Y-13338171D01*
X8801790Y-13319123D01*
X8820838Y-13300076D01*
X8839885Y-13261980D01*
%LPC*%
D14*
X7620000Y-29835600D03*
X7620000Y-31835600D03*
D15*
X2311400Y-17972400D03*
X3581400Y-17972400D03*
X4851400Y-17972400D03*
X6121400Y-17972400D03*
X6121400Y-22972400D03*
X4851400Y-22972400D03*
X3581400Y-22972400D03*
X2311400Y-22972400D03*
D16*
X6084000Y-14478000D03*
X4584000Y-14478000D03*
D17*
X14240000Y-9464000D03*
X14240000Y-11364000D03*
X16240000Y-10414000D03*
D18*
X6310000Y-8660000D03*
D19*
X7260000Y-7710000D03*
X9260000Y-7710000D03*
D18*
X10210000Y-8660000D03*
X6310000Y-10660000D03*
X10210000Y-10160000D03*
D19*
X8760000Y-11610000D03*
X7760000Y-11610000D03*
D20*
X6860000Y-11060000D03*
X6860000Y-8260000D03*
X9660000Y-8260000D03*
X9660000Y-11060000D03*
D21*
X9762920Y-7857080D03*
D10*
G36*
X9914241Y-7857080D02*
X9762920Y-8008401D01*
X9611599Y-7857080D01*
X9762920Y-7705759D01*
X9914241Y-7857080D01*
X9914241Y-7857080D01*
G37*
D21*
X9768000Y-11462920D03*
D10*
G36*
X9919321Y-11462920D02*
X9768000Y-11614241D01*
X9616679Y-11462920D01*
X9768000Y-11311599D01*
X9919321Y-11462920D01*
X9919321Y-11462920D01*
G37*
D21*
X6752000Y-7862160D03*
D10*
G36*
X6903321Y-7862160D02*
X6752000Y-8013481D01*
X6600679Y-7862160D01*
X6752000Y-7710839D01*
X6903321Y-7862160D01*
X6903321Y-7862160D01*
G37*
D21*
X6751240Y-11458320D03*
D10*
G36*
X6902561Y-11458320D02*
X6751240Y-11609641D01*
X6599919Y-11458320D01*
X6751240Y-11306999D01*
X6902561Y-11458320D01*
X6902561Y-11458320D01*
G37*
D21*
X10062920Y-8157080D03*
D10*
G36*
X10214241Y-8157080D02*
X10062920Y-8308401D01*
X9911599Y-8157080D01*
X10062920Y-8005759D01*
X10214241Y-8157080D01*
X10214241Y-8157080D01*
G37*
D21*
X10068000Y-11168000D03*
D10*
G36*
X10219321Y-11168000D02*
X10068000Y-11319321D01*
X9916679Y-11168000D01*
X10068000Y-11016679D01*
X10219321Y-11168000D01*
X10219321Y-11168000D01*
G37*
D21*
X6462160Y-8157080D03*
D10*
G36*
X6613481Y-8157080D02*
X6462160Y-8308401D01*
X6310839Y-8157080D01*
X6462160Y-8005759D01*
X6613481Y-8157080D01*
X6613481Y-8157080D01*
G37*
D21*
X6451520Y-11163680D03*
D10*
G36*
X6602841Y-11163680D02*
X6451520Y-11315001D01*
X6300199Y-11163680D01*
X6451520Y-11012359D01*
X6602841Y-11163680D01*
X6602841Y-11163680D01*
G37*
D22*
X6527720Y-11087920D03*
X6537160Y-8232080D03*
X6827000Y-7937160D03*
X9687920Y-7932080D03*
X9987920Y-8232080D03*
X9993000Y-11093000D03*
X9693000Y-11387920D03*
X6827440Y-11382120D03*
D23*
X6202600Y-11163680D03*
D18*
X6310000Y-10160000D03*
X6310000Y-9660000D03*
X6310000Y-9160000D03*
D23*
X6212760Y-8157080D03*
D24*
X6751240Y-7607680D03*
D19*
X7760000Y-7710000D03*
X8260000Y-7710000D03*
X8760000Y-7710000D03*
D24*
X9763680Y-7607680D03*
D23*
X10312320Y-8156320D03*
D18*
X10210000Y-9160000D03*
X10210000Y-9660000D03*
X10210000Y-10660000D03*
D23*
X10317400Y-11168760D03*
D24*
X9768000Y-11712320D03*
D19*
X9260000Y-11610000D03*
X8260000Y-11610000D03*
X7260000Y-11610000D03*
D24*
X6752000Y-11709040D03*
D25*
X1778000Y-31496000D03*
D26*
X12700000Y-29476000D03*
X12700000Y-30976000D03*
D27*
X16002000Y-26174000D03*
X16002000Y-27674000D03*
D17*
X3270000Y-27808000D03*
X3270000Y-25908000D03*
X1270000Y-26858000D03*
X11970000Y-25908000D03*
X11970000Y-27808000D03*
X13970000Y-26858000D03*
D28*
X8467600Y-25857200D03*
X6467600Y-25857200D03*
D29*
X9034800Y-20751800D03*
X9034800Y-19481800D03*
X9034800Y-18211800D03*
X9034800Y-16941800D03*
X14434800Y-16941800D03*
X14434800Y-18211800D03*
X14434800Y-19481800D03*
X14434800Y-20751800D03*
D26*
X16501200Y-18249200D03*
X16501200Y-19749200D03*
D30*
X12831600Y-14986000D03*
X11331600Y-14986000D03*
X15634400Y-7112000D03*
X14134400Y-7112000D03*
X12204000Y-13208000D03*
X13704000Y-13208000D03*
D26*
X12446000Y-8370000D03*
X12446000Y-6870000D03*
D30*
X7886000Y-14224000D03*
X9386000Y-14224000D03*
M02*
