G04 #@! TF.GenerationSoftware,KiCad,Pcbnew,(2018-02-16 revision c95340fba)-makepkg*
G04 #@! TF.CreationDate,2018-05-01T15:17:05+02:00*
G04 #@! TF.ProjectId,LIN_USB_CONVERTER,4C494E5F5553425F434F4E5645525445,rev?*
G04 #@! TF.SameCoordinates,Original*
G04 #@! TF.FileFunction,Paste,Top*
G04 #@! TF.FilePolarity,Positive*
%FSLAX46Y46*%
G04 Gerber Fmt 4.6, Leading zero omitted, Abs format (unit mm)*
G04 Created by KiCad (PCBNEW (2018-02-16 revision c95340fba)-makepkg) date 05/01/18 15:17:05*
%MOMM*%
%LPD*%
G01*
G04 APERTURE LIST*
%ADD10R,0.600000X0.350000*%
%ADD11R,1.000000X1.250000*%
%ADD12R,1.250000X1.000000*%
%ADD13R,0.500000X0.600000*%
%ADD14R,0.700000X0.300000*%
%ADD15R,0.300000X0.700000*%
%ADD16C,0.212000*%
%ADD17C,0.100000*%
%ADD18R,0.150000X0.150000*%
%ADD19R,0.500000X0.300000*%
%ADD20R,0.300000X0.500000*%
%ADD21R,0.600000X0.500000*%
%ADD22R,0.750000X0.800000*%
%ADD23R,1.270000X0.970000*%
%ADD24R,0.900000X0.500000*%
%ADD25R,0.900000X0.800000*%
G04 APERTURE END LIST*
D10*
X151829200Y-91280000D03*
X151829200Y-90630000D03*
X154569200Y-89980000D03*
X151829200Y-89330000D03*
X154569200Y-91280000D03*
X154569200Y-90630000D03*
X151829200Y-89980000D03*
X154569200Y-89330000D03*
D11*
X156030200Y-87041600D03*
X154030200Y-87041600D03*
D12*
X147537200Y-100214800D03*
X147537200Y-102214800D03*
D13*
X156071600Y-89615800D03*
X156071600Y-90715800D03*
D14*
X146552400Y-86041600D03*
D15*
X147502400Y-85091600D03*
X149502400Y-85091600D03*
D14*
X150452400Y-86041600D03*
X146552400Y-88041600D03*
X150452400Y-87541600D03*
D15*
X149002400Y-88991600D03*
X148002400Y-88991600D03*
D16*
X150005320Y-85238680D03*
D17*
G36*
X150155227Y-85238680D02*
X150005320Y-85388587D01*
X149855413Y-85238680D01*
X150005320Y-85088773D01*
X150155227Y-85238680D01*
X150155227Y-85238680D01*
G37*
D16*
X150010400Y-88844520D03*
D17*
G36*
X150160307Y-88844520D02*
X150010400Y-88994427D01*
X149860493Y-88844520D01*
X150010400Y-88694613D01*
X150160307Y-88844520D01*
X150160307Y-88844520D01*
G37*
D16*
X146994400Y-85243760D03*
D17*
G36*
X147144307Y-85243760D02*
X146994400Y-85393667D01*
X146844493Y-85243760D01*
X146994400Y-85093853D01*
X147144307Y-85243760D01*
X147144307Y-85243760D01*
G37*
D16*
X146993640Y-88839920D03*
D17*
G36*
X147143547Y-88839920D02*
X146993640Y-88989827D01*
X146843733Y-88839920D01*
X146993640Y-88690013D01*
X147143547Y-88839920D01*
X147143547Y-88839920D01*
G37*
D16*
X150305320Y-85538680D03*
D17*
G36*
X150455227Y-85538680D02*
X150305320Y-85688587D01*
X150155413Y-85538680D01*
X150305320Y-85388773D01*
X150455227Y-85538680D01*
X150455227Y-85538680D01*
G37*
D16*
X150310400Y-88549600D03*
D17*
G36*
X150460307Y-88549600D02*
X150310400Y-88699507D01*
X150160493Y-88549600D01*
X150310400Y-88399693D01*
X150460307Y-88549600D01*
X150460307Y-88549600D01*
G37*
D16*
X146704560Y-85538680D03*
D17*
G36*
X146854467Y-85538680D02*
X146704560Y-85688587D01*
X146554653Y-85538680D01*
X146704560Y-85388773D01*
X146854467Y-85538680D01*
X146854467Y-85538680D01*
G37*
D16*
X146693920Y-88545280D03*
D17*
G36*
X146843827Y-88545280D02*
X146693920Y-88695187D01*
X146544013Y-88545280D01*
X146693920Y-88395373D01*
X146843827Y-88545280D01*
X146843827Y-88545280D01*
G37*
D18*
X146770120Y-88469520D03*
X146779560Y-85613680D03*
X147069400Y-85318760D03*
X149930320Y-85313680D03*
X150230320Y-85613680D03*
X150235400Y-88474600D03*
X149935400Y-88769520D03*
X147069840Y-88763720D03*
D19*
X146445000Y-88545280D03*
D14*
X146552400Y-87541600D03*
X146552400Y-87041600D03*
X146552400Y-86541600D03*
D19*
X146455160Y-85538680D03*
D20*
X146993640Y-84989280D03*
D15*
X148002400Y-85091600D03*
X148502400Y-85091600D03*
X149002400Y-85091600D03*
D20*
X150006080Y-84989280D03*
D19*
X150554720Y-85537920D03*
D14*
X150452400Y-86541600D03*
X150452400Y-87041600D03*
X150452400Y-88041600D03*
D19*
X150559800Y-88550360D03*
D20*
X150010400Y-89093920D03*
D15*
X149502400Y-88991600D03*
X148502400Y-88991600D03*
X147502400Y-88991600D03*
D20*
X146994400Y-89090640D03*
D21*
X149250000Y-91232600D03*
X148150000Y-91232600D03*
D22*
X152438000Y-100135600D03*
X152438000Y-101635600D03*
D13*
X152149200Y-85980000D03*
X152149200Y-87080000D03*
D23*
X146241800Y-92067000D03*
X146241800Y-93347000D03*
D24*
X145606800Y-95842000D03*
X145606800Y-97342000D03*
D25*
X151972800Y-95845200D03*
X151972800Y-97745200D03*
X153972800Y-96795200D03*
X149604000Y-97745200D03*
X149604000Y-95845200D03*
X147604000Y-96795200D03*
D21*
X155326200Y-84933400D03*
X154226200Y-84933400D03*
M02*
