G04 #@! TF.GenerationSoftware,KiCad,Pcbnew,(2018-02-16 revision c95340fba)-makepkg*
G04 #@! TF.CreationDate,2018-05-01T15:17:04+02:00*
G04 #@! TF.ProjectId,LIN_USB_CONVERTER,4C494E5F5553425F434F4E5645525445,rev?*
G04 #@! TF.SameCoordinates,Original*
G04 #@! TF.FileFunction,Copper,L1,Top,Signal*
G04 #@! TF.FilePolarity,Positive*
%FSLAX46Y46*%
G04 Gerber Fmt 4.6, Leading zero omitted, Abs format (unit mm)*
G04 Created by KiCad (PCBNEW (2018-02-16 revision c95340fba)-makepkg) date 05/01/18 15:17:05*
%MOMM*%
%LPD*%
G01*
G04 APERTURE LIST*
%ADD10R,0.600000X0.350000*%
%ADD11R,1.000000X1.250000*%
%ADD12R,1.250000X1.000000*%
%ADD13R,0.500000X0.600000*%
%ADD14R,0.700000X0.300000*%
%ADD15R,0.300000X0.700000*%
%ADD16C,0.212000*%
%ADD17C,0.100000*%
%ADD18R,0.150000X0.150000*%
%ADD19R,0.500000X0.300000*%
%ADD20R,0.300000X0.500000*%
%ADD21R,0.600000X0.500000*%
%ADD22C,1.000000*%
%ADD23C,2.250000*%
%ADD24R,0.750000X0.800000*%
%ADD25R,1.270000X0.970000*%
%ADD26R,0.900000X0.500000*%
%ADD27R,0.900000X0.800000*%
%ADD28R,1.700000X1.700000*%
%ADD29O,1.700000X1.700000*%
%ADD30R,1.980000X3.960000*%
%ADD31O,1.980000X3.960000*%
%ADD32R,1.800000X1.000000*%
%ADD33C,1.501140*%
%ADD34O,1.400000X3.800000*%
%ADD35C,0.600000*%
%ADD36C,0.200000*%
%ADD37C,0.250000*%
%ADD38C,0.254000*%
G04 APERTURE END LIST*
D10*
X151829200Y-91280000D03*
X151829200Y-90630000D03*
X154569200Y-89980000D03*
X151829200Y-89330000D03*
X154569200Y-91280000D03*
X154569200Y-90630000D03*
X151829200Y-89980000D03*
X154569200Y-89330000D03*
D11*
X156030200Y-87041600D03*
X154030200Y-87041600D03*
D12*
X147537200Y-100214800D03*
X147537200Y-102214800D03*
D13*
X156071600Y-89615800D03*
X156071600Y-90715800D03*
D14*
X146552400Y-86041600D03*
D15*
X147502400Y-85091600D03*
X149502400Y-85091600D03*
D14*
X150452400Y-86041600D03*
X146552400Y-88041600D03*
X150452400Y-87541600D03*
D15*
X149002400Y-88991600D03*
X148002400Y-88991600D03*
D16*
X150005320Y-85238680D03*
D17*
G36*
X150155227Y-85238680D02*
X150005320Y-85388587D01*
X149855413Y-85238680D01*
X150005320Y-85088773D01*
X150155227Y-85238680D01*
X150155227Y-85238680D01*
G37*
D16*
X150010400Y-88844520D03*
D17*
G36*
X150160307Y-88844520D02*
X150010400Y-88994427D01*
X149860493Y-88844520D01*
X150010400Y-88694613D01*
X150160307Y-88844520D01*
X150160307Y-88844520D01*
G37*
D16*
X146994400Y-85243760D03*
D17*
G36*
X147144307Y-85243760D02*
X146994400Y-85393667D01*
X146844493Y-85243760D01*
X146994400Y-85093853D01*
X147144307Y-85243760D01*
X147144307Y-85243760D01*
G37*
D16*
X146993640Y-88839920D03*
D17*
G36*
X147143547Y-88839920D02*
X146993640Y-88989827D01*
X146843733Y-88839920D01*
X146993640Y-88690013D01*
X147143547Y-88839920D01*
X147143547Y-88839920D01*
G37*
D16*
X150305320Y-85538680D03*
D17*
G36*
X150455227Y-85538680D02*
X150305320Y-85688587D01*
X150155413Y-85538680D01*
X150305320Y-85388773D01*
X150455227Y-85538680D01*
X150455227Y-85538680D01*
G37*
D16*
X150310400Y-88549600D03*
D17*
G36*
X150460307Y-88549600D02*
X150310400Y-88699507D01*
X150160493Y-88549600D01*
X150310400Y-88399693D01*
X150460307Y-88549600D01*
X150460307Y-88549600D01*
G37*
D16*
X146704560Y-85538680D03*
D17*
G36*
X146854467Y-85538680D02*
X146704560Y-85688587D01*
X146554653Y-85538680D01*
X146704560Y-85388773D01*
X146854467Y-85538680D01*
X146854467Y-85538680D01*
G37*
D16*
X146693920Y-88545280D03*
D17*
G36*
X146843827Y-88545280D02*
X146693920Y-88695187D01*
X146544013Y-88545280D01*
X146693920Y-88395373D01*
X146843827Y-88545280D01*
X146843827Y-88545280D01*
G37*
D18*
X146770120Y-88469520D03*
X146779560Y-85613680D03*
X147069400Y-85318760D03*
X149930320Y-85313680D03*
X150230320Y-85613680D03*
X150235400Y-88474600D03*
X149935400Y-88769520D03*
X147069840Y-88763720D03*
D19*
X146445000Y-88545280D03*
D14*
X146552400Y-87541600D03*
X146552400Y-87041600D03*
X146552400Y-86541600D03*
D19*
X146455160Y-85538680D03*
D20*
X146993640Y-84989280D03*
D15*
X148002400Y-85091600D03*
X148502400Y-85091600D03*
X149002400Y-85091600D03*
D20*
X150006080Y-84989280D03*
D19*
X150554720Y-85537920D03*
D14*
X150452400Y-86541600D03*
X150452400Y-87041600D03*
X150452400Y-88041600D03*
D19*
X150559800Y-88550360D03*
D20*
X150010400Y-89093920D03*
D15*
X149502400Y-88991600D03*
X148502400Y-88991600D03*
X147502400Y-88991600D03*
D20*
X146994400Y-89090640D03*
D21*
X149250000Y-91232600D03*
X148150000Y-91232600D03*
D22*
X149608000Y-80082000D03*
D23*
X143295400Y-96973000D03*
D24*
X152438000Y-100135600D03*
X152438000Y-101635600D03*
D13*
X152149200Y-85980000D03*
X152149200Y-87080000D03*
D25*
X146241800Y-92067000D03*
X146241800Y-93347000D03*
D26*
X145606800Y-95842000D03*
X145606800Y-97342000D03*
D27*
X151972800Y-95845200D03*
X151972800Y-97745200D03*
X153972800Y-96795200D03*
D28*
X150128000Y-93530000D03*
D29*
X152668000Y-93530000D03*
X155208000Y-93530000D03*
D30*
X154903200Y-101519600D03*
D31*
X149903200Y-101519600D03*
X144903200Y-101519600D03*
D28*
X146241800Y-91437000D03*
D29*
X146241800Y-93977000D03*
D27*
X149604000Y-97745200D03*
X149604000Y-95845200D03*
X147604000Y-96795200D03*
D32*
X142863600Y-94915600D03*
X142863600Y-87295600D03*
X142863600Y-89835600D03*
X142863600Y-84755600D03*
X142863600Y-92375600D03*
D33*
X153164860Y-82878120D03*
X150624860Y-82878120D03*
X148592860Y-82878120D03*
X146052860Y-82878120D03*
D34*
X155450000Y-80590000D03*
X143766000Y-80590000D03*
D21*
X155326200Y-84933400D03*
X154226200Y-84933400D03*
D35*
X152972800Y-90013400D03*
X145403600Y-88083000D03*
X150456389Y-90078142D03*
X145200400Y-88921200D03*
X154954000Y-88464000D03*
X153938000Y-95703000D03*
X151118600Y-99030400D03*
X150704439Y-91375010D03*
X144133600Y-91232600D03*
D36*
X146455160Y-85538680D02*
X146704560Y-85538680D01*
X146704560Y-85538680D02*
X146757479Y-85591599D01*
D37*
X142863600Y-89835600D02*
X143263600Y-89835600D01*
X144743200Y-88356000D02*
X144743200Y-86765797D01*
X143263600Y-89835600D02*
X144743200Y-88356000D01*
X145970317Y-85538680D02*
X146455160Y-85538680D01*
X144743200Y-86765797D02*
X145970317Y-85538680D01*
D36*
X146993640Y-84989280D02*
X146993640Y-85243000D01*
X146993640Y-85243000D02*
X147052399Y-85301759D01*
D37*
X144870200Y-85689000D02*
X145183587Y-85689000D01*
X145183587Y-85689000D02*
X145883307Y-84989280D01*
X145883307Y-84989280D02*
X146593640Y-84989280D01*
X146593640Y-84989280D02*
X146993640Y-84989280D01*
X142863600Y-87295600D02*
X143263600Y-87295600D01*
X143263600Y-87295600D02*
X144870200Y-85689000D01*
X152972800Y-90013400D02*
X151862600Y-90013400D01*
X151862600Y-90013400D02*
X151829200Y-89980000D01*
X145445000Y-88041600D02*
X145403600Y-88083000D01*
X146552400Y-88041600D02*
X145445000Y-88041600D01*
D36*
X146445000Y-88545280D02*
X146694360Y-88545280D01*
X146694360Y-88545280D02*
X146748039Y-88491601D01*
D37*
X150756388Y-89778143D02*
X150456389Y-90078142D01*
X151204531Y-89330000D02*
X150756388Y-89778143D01*
X151829200Y-89330000D02*
X151204531Y-89330000D01*
X146445000Y-88545280D02*
X146669839Y-88545280D01*
X145200400Y-88819600D02*
X145225800Y-88794200D01*
X145200400Y-88921200D02*
X145200400Y-88819600D01*
X145225800Y-88794200D02*
X146196080Y-88794200D01*
X146196080Y-88794200D02*
X146445000Y-88545280D01*
X148427399Y-89666601D02*
X148502400Y-89591600D01*
X145727197Y-89666601D02*
X148427399Y-89666601D01*
X145066799Y-90326999D02*
X145727197Y-89666601D01*
X142863600Y-94915600D02*
X143263600Y-94915600D01*
X145066799Y-93112401D02*
X145066799Y-90326999D01*
X143263600Y-94915600D02*
X145066799Y-93112401D01*
X148502400Y-89591600D02*
X148502400Y-88991600D01*
X153379202Y-98823800D02*
X156681200Y-95521802D01*
X153099800Y-98823800D02*
X153379202Y-98823800D01*
X156681200Y-95521802D02*
X156681200Y-90275400D01*
X156681200Y-90275400D02*
X156071600Y-89665800D01*
X156071600Y-89665800D02*
X156071600Y-89615800D01*
X154569200Y-89980000D02*
X155707400Y-89980000D01*
X155707400Y-89980000D02*
X156071600Y-89615800D01*
X156030200Y-87041600D02*
X156030200Y-89574400D01*
X156030200Y-89574400D02*
X156071600Y-89615800D01*
X156030200Y-87041600D02*
X156030200Y-85637400D01*
X156030200Y-85637400D02*
X155326200Y-84933400D01*
X151143200Y-101519600D02*
X152438000Y-100224800D01*
X149903200Y-101519600D02*
X151143200Y-101519600D01*
X152438000Y-100224800D02*
X152438000Y-100135600D01*
X153287451Y-81802549D02*
X154500000Y-80590000D01*
X147128431Y-81802549D02*
X153287451Y-81802549D01*
X154500000Y-80590000D02*
X155450000Y-80590000D01*
X146052860Y-82878120D02*
X147128431Y-81802549D01*
X155450000Y-82184826D02*
X153220547Y-84414279D01*
X155450000Y-80590000D02*
X155450000Y-82184826D01*
X153220547Y-84414279D02*
X150416081Y-84414279D01*
X155326200Y-84933400D02*
X155326200Y-80713800D01*
X155326200Y-80713800D02*
X155450000Y-80590000D01*
X149502400Y-84491600D02*
X149579721Y-84414279D01*
X151574199Y-85572397D02*
X151574199Y-86454999D01*
X149502400Y-85091600D02*
X149502400Y-84491600D01*
X151574199Y-86454999D02*
X152149200Y-87030000D01*
X149579721Y-84414279D02*
X150416081Y-84414279D01*
X150416081Y-84414279D02*
X151574199Y-85572397D01*
X152149200Y-87030000D02*
X152149200Y-87080000D01*
X146052860Y-82878120D02*
X143766000Y-80591260D01*
X143766000Y-80591260D02*
X143766000Y-80590000D01*
X142863600Y-84755600D02*
X144175380Y-84755600D01*
X144175380Y-84755600D02*
X146052860Y-82878120D01*
X153099800Y-98823800D02*
X152438000Y-99485600D01*
X153099800Y-95163881D02*
X153099800Y-98823800D01*
X152438000Y-99485600D02*
X152438000Y-100135600D01*
X152668000Y-93530000D02*
X152668000Y-94732081D01*
X152668000Y-94732081D02*
X153099800Y-95163881D01*
X148200000Y-91232600D02*
X149322399Y-92354999D01*
X148150000Y-91232600D02*
X148200000Y-91232600D01*
X149322399Y-92354999D02*
X151492999Y-92354999D01*
X151492999Y-92354999D02*
X151818001Y-92680001D01*
X151818001Y-92680001D02*
X152668000Y-93530000D01*
X147537200Y-101863200D02*
X149559600Y-101863200D01*
X149559600Y-101863200D02*
X149903200Y-101519600D01*
X152438000Y-101635600D02*
X154787200Y-101635600D01*
X154787200Y-101635600D02*
X154903200Y-101519600D01*
X154569200Y-88848800D02*
X154954000Y-88464000D01*
X154569200Y-89330000D02*
X154569200Y-88848800D01*
X154903200Y-93834800D02*
X155208000Y-93530000D01*
X145606800Y-95842000D02*
X145606800Y-94180200D01*
X145606800Y-94180200D02*
X145810000Y-93977000D01*
X150624860Y-82878120D02*
X149538712Y-83964268D01*
X149538712Y-83964268D02*
X148529732Y-83964268D01*
X148529732Y-83964268D02*
X148002400Y-84491600D01*
X148002400Y-84491600D02*
X148002400Y-85091600D01*
X148592860Y-82878120D02*
X147502400Y-83968580D01*
X147502400Y-83968580D02*
X147502400Y-85091600D01*
X153938000Y-95703000D02*
X153938000Y-96760400D01*
X153938000Y-96760400D02*
X153972800Y-96795200D01*
X153938000Y-95601400D02*
X153938000Y-95703000D01*
X153972800Y-95566600D02*
X153938000Y-95601400D01*
X153905400Y-91943800D02*
X153972800Y-92011200D01*
X153972800Y-92011200D02*
X153972800Y-95566600D01*
X150322800Y-98234600D02*
X151118600Y-99030400D01*
X150322800Y-97745200D02*
X150322800Y-98234600D01*
X153905400Y-91943800D02*
X154569200Y-91280000D01*
X150304000Y-97745200D02*
X149604000Y-97745200D01*
X150322800Y-97745200D02*
X150304000Y-97745200D01*
X148162200Y-100363200D02*
X149604000Y-98921400D01*
X147537200Y-100363200D02*
X148162200Y-100363200D01*
X149604000Y-98921400D02*
X149604000Y-98395200D01*
X149604000Y-98395200D02*
X149604000Y-97745200D01*
D36*
X146994400Y-89090640D02*
X146994400Y-88839160D01*
X146994400Y-88839160D02*
X147052399Y-88781161D01*
X150554720Y-85537920D02*
X150306080Y-85537920D01*
X150306080Y-85537920D02*
X150252401Y-85591599D01*
X150006080Y-84989280D02*
X150006080Y-85237920D01*
X150006080Y-85237920D02*
X149952401Y-85291599D01*
D37*
X156004200Y-90648400D02*
X154587600Y-90648400D01*
X156071600Y-90715800D02*
X156004200Y-90648400D01*
X154587600Y-90648400D02*
X154569200Y-90630000D01*
X154030200Y-86166600D02*
X153843600Y-85980000D01*
X154030200Y-87041600D02*
X154030200Y-86166600D01*
X153843600Y-85980000D02*
X153679600Y-85980000D01*
X153597801Y-88525599D02*
X154030200Y-88093200D01*
X154030200Y-88093200D02*
X154030200Y-87041600D01*
X150562029Y-91232600D02*
X150704439Y-91375010D01*
X150799449Y-91280000D02*
X150704439Y-91375010D01*
X149250000Y-91232600D02*
X150562029Y-91232600D01*
X151829200Y-91280000D02*
X150799449Y-91280000D01*
X153597801Y-90781999D02*
X153099800Y-91280000D01*
X153597801Y-88525599D02*
X153597801Y-90781999D01*
X142990600Y-92375600D02*
X144133600Y-91232600D01*
X142863600Y-92375600D02*
X142990600Y-92375600D01*
X149002400Y-88991600D02*
X149002400Y-88391600D01*
X149002400Y-88391600D02*
X149002400Y-85091600D01*
X153099800Y-91280000D02*
X152379200Y-91280000D01*
X153369200Y-91280000D02*
X153099800Y-91280000D01*
X154019200Y-90630000D02*
X153369200Y-91280000D01*
X154569200Y-90630000D02*
X154019200Y-90630000D01*
X152379200Y-91280000D02*
X151829200Y-91280000D01*
X153679600Y-85980000D02*
X154226200Y-85433400D01*
X152149200Y-85980000D02*
X153679600Y-85980000D01*
X154226200Y-85433400D02*
X154226200Y-84933400D01*
X148502400Y-85091600D02*
X149002400Y-85091600D01*
X149250000Y-91232600D02*
X149002400Y-90985000D01*
X149002400Y-90985000D02*
X149002400Y-88991600D01*
X150379001Y-96363400D02*
X150379001Y-96505201D01*
X150379001Y-94881001D02*
X150379001Y-96363400D01*
X150379001Y-96363400D02*
X150897201Y-95845200D01*
X150897201Y-95845200D02*
X151972800Y-95845200D01*
X150128000Y-94630000D02*
X150379001Y-94881001D01*
X150128000Y-93530000D02*
X150128000Y-94630000D01*
X146624598Y-99289600D02*
X146143200Y-99289600D01*
X149864003Y-97020199D02*
X148893999Y-97020199D01*
X150379001Y-96505201D02*
X149864003Y-97020199D01*
X144903200Y-100529600D02*
X144903200Y-101519600D01*
X148893999Y-97020199D02*
X146624598Y-99289600D01*
X146143200Y-99289600D02*
X144903200Y-100529600D01*
X145653600Y-96795200D02*
X145606800Y-96842000D01*
X147604000Y-96795200D02*
X145653600Y-96795200D01*
X145606800Y-96842000D02*
X145606800Y-97342000D01*
D38*
G36*
X143489148Y-96958858D02*
X143475005Y-96973000D01*
X144538347Y-98036342D01*
X144665117Y-97984713D01*
X144704759Y-98044041D01*
X144912157Y-98182620D01*
X145156800Y-98231283D01*
X146056800Y-98231283D01*
X146301443Y-98182620D01*
X146508841Y-98044041D01*
X146647420Y-97836643D01*
X146688963Y-97627792D01*
X146701959Y-97647241D01*
X146909357Y-97785820D01*
X147039086Y-97811625D01*
X146313111Y-98537600D01*
X146217259Y-98537600D01*
X146143200Y-98522869D01*
X146069141Y-98537600D01*
X146069137Y-98537600D01*
X145849784Y-98581232D01*
X145601039Y-98747439D01*
X145559085Y-98810227D01*
X145391301Y-98978011D01*
X144903200Y-98880922D01*
X144272279Y-99006420D01*
X143737410Y-99363809D01*
X143380021Y-99898678D01*
X143286201Y-100370344D01*
X143286200Y-102668855D01*
X143380020Y-103140521D01*
X143474420Y-103281800D01*
X142322038Y-103281800D01*
X142331567Y-98460282D01*
X142346021Y-98495773D01*
X143001029Y-98743170D01*
X143700851Y-98721075D01*
X144244779Y-98495773D01*
X144358742Y-98215947D01*
X143295400Y-97152605D01*
X143281258Y-97166748D01*
X143101653Y-96987143D01*
X143115795Y-96973000D01*
X143101653Y-96958858D01*
X143281258Y-96779253D01*
X143295400Y-96793395D01*
X143309543Y-96779253D01*
X143489148Y-96958858D01*
X143489148Y-96958858D01*
G37*
X143489148Y-96958858D02*
X143475005Y-96973000D01*
X144538347Y-98036342D01*
X144665117Y-97984713D01*
X144704759Y-98044041D01*
X144912157Y-98182620D01*
X145156800Y-98231283D01*
X146056800Y-98231283D01*
X146301443Y-98182620D01*
X146508841Y-98044041D01*
X146647420Y-97836643D01*
X146688963Y-97627792D01*
X146701959Y-97647241D01*
X146909357Y-97785820D01*
X147039086Y-97811625D01*
X146313111Y-98537600D01*
X146217259Y-98537600D01*
X146143200Y-98522869D01*
X146069141Y-98537600D01*
X146069137Y-98537600D01*
X145849784Y-98581232D01*
X145601039Y-98747439D01*
X145559085Y-98810227D01*
X145391301Y-98978011D01*
X144903200Y-98880922D01*
X144272279Y-99006420D01*
X143737410Y-99363809D01*
X143380021Y-99898678D01*
X143286201Y-100370344D01*
X143286200Y-102668855D01*
X143380020Y-103140521D01*
X143474420Y-103281800D01*
X142322038Y-103281800D01*
X142331567Y-98460282D01*
X142346021Y-98495773D01*
X143001029Y-98743170D01*
X143700851Y-98721075D01*
X144244779Y-98495773D01*
X144358742Y-98215947D01*
X143295400Y-97152605D01*
X143281258Y-97166748D01*
X143101653Y-96987143D01*
X143115795Y-96973000D01*
X143101653Y-96958858D01*
X143281258Y-96779253D01*
X143295400Y-96793395D01*
X143309543Y-96779253D01*
X143489148Y-96958858D01*
G36*
X156665401Y-103281800D02*
X156532483Y-103281800D01*
X156532483Y-99539600D01*
X156483820Y-99294957D01*
X156345241Y-99087559D01*
X156137843Y-98948980D01*
X155893200Y-98900317D01*
X153913200Y-98900317D01*
X153668557Y-98948980D01*
X153461159Y-99087559D01*
X153322580Y-99294957D01*
X153313920Y-99338495D01*
X153172699Y-99197273D01*
X152939310Y-99100600D01*
X152723750Y-99100600D01*
X152565000Y-99259350D01*
X152565000Y-100008600D01*
X152585000Y-100008600D01*
X152585000Y-100262600D01*
X152565000Y-100262600D01*
X152565000Y-100282600D01*
X152311000Y-100282600D01*
X152311000Y-100262600D01*
X152291000Y-100262600D01*
X152291000Y-100008600D01*
X152311000Y-100008600D01*
X152311000Y-99259350D01*
X152152250Y-99100600D01*
X152045600Y-99100600D01*
X152045600Y-98846008D01*
X152020116Y-98784483D01*
X152422800Y-98784483D01*
X152667443Y-98735820D01*
X152874841Y-98597241D01*
X153013420Y-98389843D01*
X153062083Y-98145200D01*
X153062083Y-97634256D01*
X153070759Y-97647241D01*
X153278157Y-97785820D01*
X153522800Y-97834483D01*
X154422800Y-97834483D01*
X154667443Y-97785820D01*
X154874841Y-97647241D01*
X155013420Y-97439843D01*
X155062083Y-97195200D01*
X155062083Y-96395200D01*
X155013420Y-96150557D01*
X154874841Y-95943159D01*
X154849041Y-95925920D01*
X154865000Y-95887392D01*
X154865000Y-95518608D01*
X154724800Y-95180135D01*
X154724800Y-94939821D01*
X155062529Y-95007000D01*
X155353471Y-95007000D01*
X155784297Y-94921303D01*
X156272858Y-94594858D01*
X156599303Y-94106297D01*
X156665401Y-93774003D01*
X156665401Y-103281800D01*
X156665401Y-103281800D01*
G37*
X156665401Y-103281800D02*
X156532483Y-103281800D01*
X156532483Y-99539600D01*
X156483820Y-99294957D01*
X156345241Y-99087559D01*
X156137843Y-98948980D01*
X155893200Y-98900317D01*
X153913200Y-98900317D01*
X153668557Y-98948980D01*
X153461159Y-99087559D01*
X153322580Y-99294957D01*
X153313920Y-99338495D01*
X153172699Y-99197273D01*
X152939310Y-99100600D01*
X152723750Y-99100600D01*
X152565000Y-99259350D01*
X152565000Y-100008600D01*
X152585000Y-100008600D01*
X152585000Y-100262600D01*
X152565000Y-100262600D01*
X152565000Y-100282600D01*
X152311000Y-100282600D01*
X152311000Y-100262600D01*
X152291000Y-100262600D01*
X152291000Y-100008600D01*
X152311000Y-100008600D01*
X152311000Y-99259350D01*
X152152250Y-99100600D01*
X152045600Y-99100600D01*
X152045600Y-98846008D01*
X152020116Y-98784483D01*
X152422800Y-98784483D01*
X152667443Y-98735820D01*
X152874841Y-98597241D01*
X153013420Y-98389843D01*
X153062083Y-98145200D01*
X153062083Y-97634256D01*
X153070759Y-97647241D01*
X153278157Y-97785820D01*
X153522800Y-97834483D01*
X154422800Y-97834483D01*
X154667443Y-97785820D01*
X154874841Y-97647241D01*
X155013420Y-97439843D01*
X155062083Y-97195200D01*
X155062083Y-96395200D01*
X155013420Y-96150557D01*
X154874841Y-95943159D01*
X154849041Y-95925920D01*
X154865000Y-95887392D01*
X154865000Y-95518608D01*
X154724800Y-95180135D01*
X154724800Y-94939821D01*
X155062529Y-95007000D01*
X155353471Y-95007000D01*
X155784297Y-94921303D01*
X156272858Y-94594858D01*
X156599303Y-94106297D01*
X156665401Y-93774003D01*
X156665401Y-103281800D01*
G36*
X147664200Y-102087800D02*
X147684200Y-102087800D01*
X147684200Y-102341800D01*
X147664200Y-102341800D01*
X147664200Y-102361800D01*
X147410200Y-102361800D01*
X147410200Y-102341800D01*
X147390200Y-102341800D01*
X147390200Y-102087800D01*
X147410200Y-102087800D01*
X147410200Y-102067800D01*
X147664200Y-102067800D01*
X147664200Y-102087800D01*
X147664200Y-102087800D01*
G37*
X147664200Y-102087800D02*
X147684200Y-102087800D01*
X147684200Y-102341800D01*
X147664200Y-102341800D01*
X147664200Y-102361800D01*
X147410200Y-102361800D01*
X147410200Y-102341800D01*
X147390200Y-102341800D01*
X147390200Y-102087800D01*
X147410200Y-102087800D01*
X147410200Y-102067800D01*
X147664200Y-102067800D01*
X147664200Y-102087800D01*
G36*
X150030200Y-101392600D02*
X150050200Y-101392600D01*
X150050200Y-101646600D01*
X150030200Y-101646600D01*
X150030200Y-101666600D01*
X149776200Y-101666600D01*
X149776200Y-101646600D01*
X149756200Y-101646600D01*
X149756200Y-101392600D01*
X149776200Y-101392600D01*
X149776200Y-101372600D01*
X150030200Y-101372600D01*
X150030200Y-101392600D01*
X150030200Y-101392600D01*
G37*
X150030200Y-101392600D02*
X150050200Y-101392600D01*
X150050200Y-101646600D01*
X150030200Y-101646600D01*
X150030200Y-101666600D01*
X149776200Y-101666600D01*
X149776200Y-101646600D01*
X149756200Y-101646600D01*
X149756200Y-101392600D01*
X149776200Y-101392600D01*
X149776200Y-101372600D01*
X150030200Y-101372600D01*
X150030200Y-101392600D01*
G36*
X148294032Y-91278415D02*
X148297000Y-91282857D01*
X148297000Y-91357600D01*
X148277000Y-91357600D01*
X148277000Y-91958850D01*
X148435750Y-92117600D01*
X148576309Y-92117600D01*
X148696974Y-92067619D01*
X148705357Y-92073220D01*
X148950000Y-92121883D01*
X148984713Y-92121883D01*
X148825959Y-92227959D01*
X148687380Y-92435357D01*
X148638717Y-92680000D01*
X148638717Y-94380000D01*
X148687380Y-94624643D01*
X148825959Y-94832041D01*
X148884524Y-94871173D01*
X148701959Y-94993159D01*
X148563380Y-95200557D01*
X148514717Y-95445200D01*
X148514717Y-95956144D01*
X148506041Y-95943159D01*
X148298643Y-95804580D01*
X148054000Y-95755917D01*
X147154000Y-95755917D01*
X146909357Y-95804580D01*
X146701959Y-95943159D01*
X146696083Y-95951953D01*
X146696083Y-95592000D01*
X146657924Y-95400164D01*
X146818097Y-95368303D01*
X147306658Y-95041858D01*
X147633103Y-94553297D01*
X147747736Y-93977000D01*
X147633103Y-93400703D01*
X147516083Y-93225570D01*
X147516083Y-92862000D01*
X147497751Y-92769838D01*
X147543841Y-92739041D01*
X147682420Y-92531643D01*
X147731083Y-92287000D01*
X147731083Y-92117600D01*
X147864250Y-92117600D01*
X148023000Y-91958850D01*
X148023000Y-91357600D01*
X148003000Y-91357600D01*
X148003000Y-91107600D01*
X148023000Y-91107600D01*
X148023000Y-91085600D01*
X148255679Y-91085600D01*
X148294032Y-91278415D01*
X148294032Y-91278415D01*
G37*
X148294032Y-91278415D02*
X148297000Y-91282857D01*
X148297000Y-91357600D01*
X148277000Y-91357600D01*
X148277000Y-91958850D01*
X148435750Y-92117600D01*
X148576309Y-92117600D01*
X148696974Y-92067619D01*
X148705357Y-92073220D01*
X148950000Y-92121883D01*
X148984713Y-92121883D01*
X148825959Y-92227959D01*
X148687380Y-92435357D01*
X148638717Y-92680000D01*
X148638717Y-94380000D01*
X148687380Y-94624643D01*
X148825959Y-94832041D01*
X148884524Y-94871173D01*
X148701959Y-94993159D01*
X148563380Y-95200557D01*
X148514717Y-95445200D01*
X148514717Y-95956144D01*
X148506041Y-95943159D01*
X148298643Y-95804580D01*
X148054000Y-95755917D01*
X147154000Y-95755917D01*
X146909357Y-95804580D01*
X146701959Y-95943159D01*
X146696083Y-95951953D01*
X146696083Y-95592000D01*
X146657924Y-95400164D01*
X146818097Y-95368303D01*
X147306658Y-95041858D01*
X147633103Y-94553297D01*
X147747736Y-93977000D01*
X147633103Y-93400703D01*
X147516083Y-93225570D01*
X147516083Y-92862000D01*
X147497751Y-92769838D01*
X147543841Y-92739041D01*
X147682420Y-92531643D01*
X147731083Y-92287000D01*
X147731083Y-92117600D01*
X147864250Y-92117600D01*
X148023000Y-91958850D01*
X148023000Y-91357600D01*
X148003000Y-91357600D01*
X148003000Y-91107600D01*
X148023000Y-91107600D01*
X148023000Y-91085600D01*
X148255679Y-91085600D01*
X148294032Y-91278415D01*
G36*
X153024890Y-94971476D02*
X153220801Y-94890332D01*
X153220801Y-95109223D01*
X153152127Y-95177897D01*
X153055375Y-95411477D01*
X153013420Y-95200557D01*
X152874841Y-94993159D01*
X152795002Y-94939812D01*
X152795002Y-94850156D01*
X153024890Y-94971476D01*
X153024890Y-94971476D01*
G37*
X153024890Y-94971476D02*
X153220801Y-94890332D01*
X153220801Y-95109223D01*
X153152127Y-95177897D01*
X153055375Y-95411477D01*
X153013420Y-95200557D01*
X152874841Y-94993159D01*
X152795002Y-94939812D01*
X152795002Y-94850156D01*
X153024890Y-94971476D01*
G36*
X153099800Y-92046731D02*
X153156884Y-92035376D01*
X153180256Y-92152875D01*
X153024890Y-92088524D01*
X152795000Y-92209845D01*
X152795000Y-93403000D01*
X152815000Y-93403000D01*
X152815000Y-93657000D01*
X152795000Y-93657000D01*
X152795000Y-93677000D01*
X152541000Y-93677000D01*
X152541000Y-93657000D01*
X152521000Y-93657000D01*
X152521000Y-93403000D01*
X152541000Y-93403000D01*
X152541000Y-92209845D01*
X152311110Y-92088524D01*
X151901076Y-92258355D01*
X151589833Y-92542001D01*
X151568620Y-92435357D01*
X151430041Y-92227959D01*
X151269642Y-92120783D01*
X151334809Y-92055616D01*
X151529200Y-92094283D01*
X152129200Y-92094283D01*
X152373843Y-92045620D01*
X152394227Y-92032000D01*
X153025741Y-92032000D01*
X153099800Y-92046731D01*
X153099800Y-92046731D01*
G37*
X153099800Y-92046731D02*
X153156884Y-92035376D01*
X153180256Y-92152875D01*
X153024890Y-92088524D01*
X152795000Y-92209845D01*
X152795000Y-93403000D01*
X152815000Y-93403000D01*
X152815000Y-93657000D01*
X152795000Y-93657000D01*
X152795000Y-93677000D01*
X152541000Y-93677000D01*
X152541000Y-93657000D01*
X152521000Y-93657000D01*
X152521000Y-93403000D01*
X152541000Y-93403000D01*
X152541000Y-92209845D01*
X152311110Y-92088524D01*
X151901076Y-92258355D01*
X151589833Y-92542001D01*
X151568620Y-92435357D01*
X151430041Y-92227959D01*
X151269642Y-92120783D01*
X151334809Y-92055616D01*
X151529200Y-92094283D01*
X152129200Y-92094283D01*
X152373843Y-92045620D01*
X152394227Y-92032000D01*
X153025741Y-92032000D01*
X153099800Y-92046731D01*
G36*
X154115000Y-79263000D02*
X154115000Y-80463000D01*
X155323000Y-80463000D01*
X155323000Y-80443000D01*
X155577000Y-80443000D01*
X155577000Y-80463000D01*
X155597000Y-80463000D01*
X155597000Y-80717000D01*
X155577000Y-80717000D01*
X155577000Y-82959374D01*
X155783329Y-83082716D01*
X155843550Y-83071980D01*
X156304185Y-82823790D01*
X156634778Y-82418215D01*
X156665400Y-82316044D01*
X156665400Y-85785283D01*
X156656509Y-85781600D01*
X156315950Y-85781600D01*
X156157200Y-85940350D01*
X156157200Y-86914600D01*
X156177200Y-86914600D01*
X156177200Y-87168600D01*
X156157200Y-87168600D01*
X156157200Y-88142850D01*
X156315950Y-88301600D01*
X156656509Y-88301600D01*
X156665400Y-88297917D01*
X156665400Y-88770888D01*
X156447910Y-88680800D01*
X156355350Y-88680800D01*
X156196600Y-88839550D01*
X156196600Y-89488800D01*
X156218600Y-89488800D01*
X156218600Y-89742800D01*
X156196600Y-89742800D01*
X156196600Y-89762800D01*
X155946600Y-89762800D01*
X155946600Y-89742800D01*
X155924600Y-89742800D01*
X155924600Y-89488800D01*
X155946600Y-89488800D01*
X155946600Y-88839550D01*
X155844225Y-88737175D01*
X155881000Y-88648392D01*
X155881000Y-88279608D01*
X155847447Y-88198603D01*
X155903200Y-88142850D01*
X155903200Y-87168600D01*
X155883200Y-87168600D01*
X155883200Y-86914600D01*
X155903200Y-86914600D01*
X155903200Y-85940350D01*
X155772832Y-85809982D01*
X155985898Y-85721727D01*
X156164527Y-85543099D01*
X156261200Y-85309710D01*
X156261200Y-85217150D01*
X156102450Y-85058400D01*
X155453200Y-85058400D01*
X155453200Y-85080400D01*
X155199200Y-85080400D01*
X155199200Y-85058400D01*
X155179200Y-85058400D01*
X155179200Y-84808400D01*
X155199200Y-84808400D01*
X155199200Y-84207150D01*
X155453200Y-84207150D01*
X155453200Y-84808400D01*
X156102450Y-84808400D01*
X156261200Y-84649650D01*
X156261200Y-84557090D01*
X156164527Y-84323701D01*
X155985898Y-84145073D01*
X155752509Y-84048400D01*
X155611950Y-84048400D01*
X155453200Y-84207150D01*
X155199200Y-84207150D01*
X155040450Y-84048400D01*
X154899891Y-84048400D01*
X154779226Y-84098381D01*
X154770843Y-84092780D01*
X154526200Y-84044117D01*
X153947041Y-84044117D01*
X154332707Y-83658451D01*
X154542430Y-83152136D01*
X154542430Y-82758297D01*
X154595815Y-82823790D01*
X155056450Y-83071980D01*
X155116671Y-83082716D01*
X155323000Y-82959374D01*
X155323000Y-80717000D01*
X154115000Y-80717000D01*
X154115000Y-81880082D01*
X153945191Y-81710273D01*
X153438876Y-81500550D01*
X152890844Y-81500550D01*
X152742288Y-81562084D01*
X153061364Y-81243008D01*
X153271000Y-80736902D01*
X153271000Y-80189098D01*
X153061364Y-79682992D01*
X152674008Y-79295636D01*
X152167902Y-79086000D01*
X151620098Y-79086000D01*
X151113992Y-79295636D01*
X150887992Y-79521636D01*
X150792320Y-79290663D01*
X150532657Y-79031000D01*
X154184534Y-79031000D01*
X154115000Y-79263000D01*
X154115000Y-79263000D01*
G37*
X154115000Y-79263000D02*
X154115000Y-80463000D01*
X155323000Y-80463000D01*
X155323000Y-80443000D01*
X155577000Y-80443000D01*
X155577000Y-80463000D01*
X155597000Y-80463000D01*
X155597000Y-80717000D01*
X155577000Y-80717000D01*
X155577000Y-82959374D01*
X155783329Y-83082716D01*
X155843550Y-83071980D01*
X156304185Y-82823790D01*
X156634778Y-82418215D01*
X156665400Y-82316044D01*
X156665400Y-85785283D01*
X156656509Y-85781600D01*
X156315950Y-85781600D01*
X156157200Y-85940350D01*
X156157200Y-86914600D01*
X156177200Y-86914600D01*
X156177200Y-87168600D01*
X156157200Y-87168600D01*
X156157200Y-88142850D01*
X156315950Y-88301600D01*
X156656509Y-88301600D01*
X156665400Y-88297917D01*
X156665400Y-88770888D01*
X156447910Y-88680800D01*
X156355350Y-88680800D01*
X156196600Y-88839550D01*
X156196600Y-89488800D01*
X156218600Y-89488800D01*
X156218600Y-89742800D01*
X156196600Y-89742800D01*
X156196600Y-89762800D01*
X155946600Y-89762800D01*
X155946600Y-89742800D01*
X155924600Y-89742800D01*
X155924600Y-89488800D01*
X155946600Y-89488800D01*
X155946600Y-88839550D01*
X155844225Y-88737175D01*
X155881000Y-88648392D01*
X155881000Y-88279608D01*
X155847447Y-88198603D01*
X155903200Y-88142850D01*
X155903200Y-87168600D01*
X155883200Y-87168600D01*
X155883200Y-86914600D01*
X155903200Y-86914600D01*
X155903200Y-85940350D01*
X155772832Y-85809982D01*
X155985898Y-85721727D01*
X156164527Y-85543099D01*
X156261200Y-85309710D01*
X156261200Y-85217150D01*
X156102450Y-85058400D01*
X155453200Y-85058400D01*
X155453200Y-85080400D01*
X155199200Y-85080400D01*
X155199200Y-85058400D01*
X155179200Y-85058400D01*
X155179200Y-84808400D01*
X155199200Y-84808400D01*
X155199200Y-84207150D01*
X155453200Y-84207150D01*
X155453200Y-84808400D01*
X156102450Y-84808400D01*
X156261200Y-84649650D01*
X156261200Y-84557090D01*
X156164527Y-84323701D01*
X155985898Y-84145073D01*
X155752509Y-84048400D01*
X155611950Y-84048400D01*
X155453200Y-84207150D01*
X155199200Y-84207150D01*
X155040450Y-84048400D01*
X154899891Y-84048400D01*
X154779226Y-84098381D01*
X154770843Y-84092780D01*
X154526200Y-84044117D01*
X153947041Y-84044117D01*
X154332707Y-83658451D01*
X154542430Y-83152136D01*
X154542430Y-82758297D01*
X154595815Y-82823790D01*
X155056450Y-83071980D01*
X155116671Y-83082716D01*
X155323000Y-82959374D01*
X155323000Y-80717000D01*
X154115000Y-80717000D01*
X154115000Y-81880082D01*
X153945191Y-81710273D01*
X153438876Y-81500550D01*
X152890844Y-81500550D01*
X152742288Y-81562084D01*
X153061364Y-81243008D01*
X153271000Y-80736902D01*
X153271000Y-80189098D01*
X153061364Y-79682992D01*
X152674008Y-79295636D01*
X152167902Y-79086000D01*
X151620098Y-79086000D01*
X151113992Y-79295636D01*
X150887992Y-79521636D01*
X150792320Y-79290663D01*
X150532657Y-79031000D01*
X154184534Y-79031000D01*
X154115000Y-79263000D01*
G36*
X152274200Y-86953000D02*
X152296200Y-86953000D01*
X152296200Y-87207000D01*
X152274200Y-87207000D01*
X152274200Y-87856250D01*
X152432950Y-88015000D01*
X152525510Y-88015000D01*
X152758899Y-87918327D01*
X152910778Y-87766447D01*
X152939580Y-87911243D01*
X153021730Y-88034188D01*
X152889433Y-88232184D01*
X152845801Y-88451537D01*
X152845801Y-88451540D01*
X152831070Y-88525599D01*
X152845801Y-88599658D01*
X152845801Y-89086400D01*
X152788408Y-89086400D01*
X152757393Y-89099247D01*
X152719820Y-88910357D01*
X152581241Y-88702959D01*
X152373843Y-88564380D01*
X152129200Y-88515717D01*
X151529200Y-88515717D01*
X151449083Y-88531653D01*
X151449083Y-88400360D01*
X151424620Y-88277379D01*
X151441683Y-88191600D01*
X151441683Y-87891600D01*
X151424031Y-87802856D01*
X151539501Y-87918327D01*
X151772890Y-88015000D01*
X151865450Y-88015000D01*
X152024200Y-87856250D01*
X152024200Y-87207000D01*
X152002200Y-87207000D01*
X152002200Y-86953000D01*
X152024200Y-86953000D01*
X152024200Y-86933000D01*
X152274200Y-86933000D01*
X152274200Y-86953000D01*
X152274200Y-86953000D01*
G37*
X152274200Y-86953000D02*
X152296200Y-86953000D01*
X152296200Y-87207000D01*
X152274200Y-87207000D01*
X152274200Y-87856250D01*
X152432950Y-88015000D01*
X152525510Y-88015000D01*
X152758899Y-87918327D01*
X152910778Y-87766447D01*
X152939580Y-87911243D01*
X153021730Y-88034188D01*
X152889433Y-88232184D01*
X152845801Y-88451537D01*
X152845801Y-88451540D01*
X152831070Y-88525599D01*
X152845801Y-88599658D01*
X152845801Y-89086400D01*
X152788408Y-89086400D01*
X152757393Y-89099247D01*
X152719820Y-88910357D01*
X152581241Y-88702959D01*
X152373843Y-88564380D01*
X152129200Y-88515717D01*
X151529200Y-88515717D01*
X151449083Y-88531653D01*
X151449083Y-88400360D01*
X151424620Y-88277379D01*
X151441683Y-88191600D01*
X151441683Y-87891600D01*
X151424031Y-87802856D01*
X151539501Y-87918327D01*
X151772890Y-88015000D01*
X151865450Y-88015000D01*
X152024200Y-87856250D01*
X152024200Y-87207000D01*
X152002200Y-87207000D01*
X152002200Y-86953000D01*
X152024200Y-86953000D01*
X152024200Y-86933000D01*
X152274200Y-86933000D01*
X152274200Y-86953000D01*
G36*
X142431000Y-79263000D02*
X142431000Y-80463000D01*
X143639000Y-80463000D01*
X143639000Y-80443000D01*
X143893000Y-80443000D01*
X143893000Y-80463000D01*
X145101000Y-80463000D01*
X145101000Y-79263000D01*
X145031466Y-79031000D01*
X148683343Y-79031000D01*
X148423680Y-79290663D01*
X148328008Y-79521636D01*
X148102008Y-79295636D01*
X147595902Y-79086000D01*
X147048098Y-79086000D01*
X146541992Y-79295636D01*
X146154636Y-79682992D01*
X145945000Y-80189098D01*
X145945000Y-80736902D01*
X146154636Y-81243008D01*
X146466120Y-81554492D01*
X146257826Y-81480353D01*
X145707322Y-81508315D01*
X145328595Y-81665189D01*
X145260536Y-81906188D01*
X145145483Y-81791135D01*
X145101000Y-81835618D01*
X145101000Y-80717000D01*
X143893000Y-80717000D01*
X143893000Y-82959374D01*
X144099329Y-83082716D01*
X144159550Y-83071980D01*
X144620185Y-82823790D01*
X144660248Y-82774640D01*
X144683055Y-83223658D01*
X144839929Y-83602385D01*
X145080930Y-83670445D01*
X145873255Y-82878120D01*
X145859113Y-82863978D01*
X146038718Y-82684373D01*
X146052860Y-82698515D01*
X146845185Y-81906190D01*
X146797136Y-81736048D01*
X147048098Y-81840000D01*
X147595902Y-81840000D01*
X147744250Y-81778552D01*
X147425013Y-82097789D01*
X147333790Y-82318020D01*
X147265791Y-82153855D01*
X147024790Y-82085795D01*
X146232465Y-82878120D01*
X146246608Y-82892263D01*
X146067003Y-83071868D01*
X146052860Y-83057725D01*
X145260535Y-83850050D01*
X145328595Y-84091051D01*
X145764456Y-84246189D01*
X145589891Y-84280912D01*
X145403933Y-84405165D01*
X145403930Y-84405168D01*
X145341146Y-84447119D01*
X145299194Y-84509904D01*
X144884071Y-84925028D01*
X144870200Y-84922269D01*
X144796141Y-84937000D01*
X144796137Y-84937000D01*
X144614022Y-84973225D01*
X144576784Y-84980632D01*
X144398600Y-85099691D01*
X144398600Y-85041350D01*
X144239850Y-84882600D01*
X142990600Y-84882600D01*
X142990600Y-85731850D01*
X143149350Y-85890600D01*
X143605112Y-85890600D01*
X143339395Y-86156317D01*
X142355883Y-86156317D01*
X142356408Y-85890600D01*
X142577850Y-85890600D01*
X142736600Y-85731850D01*
X142736600Y-84882600D01*
X142716600Y-84882600D01*
X142716600Y-84628600D01*
X142736600Y-84628600D01*
X142736600Y-83779350D01*
X142990600Y-83779350D01*
X142990600Y-84628600D01*
X144239850Y-84628600D01*
X144398600Y-84469850D01*
X144398600Y-84129291D01*
X144301927Y-83895902D01*
X144123299Y-83717273D01*
X143889910Y-83620600D01*
X143149350Y-83620600D01*
X142990600Y-83779350D01*
X142736600Y-83779350D01*
X142577850Y-83620600D01*
X142360894Y-83620600D01*
X142366632Y-80717000D01*
X142431000Y-80717000D01*
X142431000Y-81917000D01*
X142581222Y-82418215D01*
X142911815Y-82823790D01*
X143372450Y-83071980D01*
X143432671Y-83082716D01*
X143639000Y-82959374D01*
X143639000Y-80717000D01*
X142431000Y-80717000D01*
X142366632Y-80717000D01*
X142369965Y-79031000D01*
X142500534Y-79031000D01*
X142431000Y-79263000D01*
X142431000Y-79263000D01*
G37*
X142431000Y-79263000D02*
X142431000Y-80463000D01*
X143639000Y-80463000D01*
X143639000Y-80443000D01*
X143893000Y-80443000D01*
X143893000Y-80463000D01*
X145101000Y-80463000D01*
X145101000Y-79263000D01*
X145031466Y-79031000D01*
X148683343Y-79031000D01*
X148423680Y-79290663D01*
X148328008Y-79521636D01*
X148102008Y-79295636D01*
X147595902Y-79086000D01*
X147048098Y-79086000D01*
X146541992Y-79295636D01*
X146154636Y-79682992D01*
X145945000Y-80189098D01*
X145945000Y-80736902D01*
X146154636Y-81243008D01*
X146466120Y-81554492D01*
X146257826Y-81480353D01*
X145707322Y-81508315D01*
X145328595Y-81665189D01*
X145260536Y-81906188D01*
X145145483Y-81791135D01*
X145101000Y-81835618D01*
X145101000Y-80717000D01*
X143893000Y-80717000D01*
X143893000Y-82959374D01*
X144099329Y-83082716D01*
X144159550Y-83071980D01*
X144620185Y-82823790D01*
X144660248Y-82774640D01*
X144683055Y-83223658D01*
X144839929Y-83602385D01*
X145080930Y-83670445D01*
X145873255Y-82878120D01*
X145859113Y-82863978D01*
X146038718Y-82684373D01*
X146052860Y-82698515D01*
X146845185Y-81906190D01*
X146797136Y-81736048D01*
X147048098Y-81840000D01*
X147595902Y-81840000D01*
X147744250Y-81778552D01*
X147425013Y-82097789D01*
X147333790Y-82318020D01*
X147265791Y-82153855D01*
X147024790Y-82085795D01*
X146232465Y-82878120D01*
X146246608Y-82892263D01*
X146067003Y-83071868D01*
X146052860Y-83057725D01*
X145260535Y-83850050D01*
X145328595Y-84091051D01*
X145764456Y-84246189D01*
X145589891Y-84280912D01*
X145403933Y-84405165D01*
X145403930Y-84405168D01*
X145341146Y-84447119D01*
X145299194Y-84509904D01*
X144884071Y-84925028D01*
X144870200Y-84922269D01*
X144796141Y-84937000D01*
X144796137Y-84937000D01*
X144614022Y-84973225D01*
X144576784Y-84980632D01*
X144398600Y-85099691D01*
X144398600Y-85041350D01*
X144239850Y-84882600D01*
X142990600Y-84882600D01*
X142990600Y-85731850D01*
X143149350Y-85890600D01*
X143605112Y-85890600D01*
X143339395Y-86156317D01*
X142355883Y-86156317D01*
X142356408Y-85890600D01*
X142577850Y-85890600D01*
X142736600Y-85731850D01*
X142736600Y-84882600D01*
X142716600Y-84882600D01*
X142716600Y-84628600D01*
X142736600Y-84628600D01*
X142736600Y-83779350D01*
X142990600Y-83779350D01*
X142990600Y-84628600D01*
X144239850Y-84628600D01*
X144398600Y-84469850D01*
X144398600Y-84129291D01*
X144301927Y-83895902D01*
X144123299Y-83717273D01*
X143889910Y-83620600D01*
X143149350Y-83620600D01*
X142990600Y-83779350D01*
X142736600Y-83779350D01*
X142577850Y-83620600D01*
X142360894Y-83620600D01*
X142366632Y-80717000D01*
X142431000Y-80717000D01*
X142431000Y-81917000D01*
X142581222Y-82418215D01*
X142911815Y-82823790D01*
X143372450Y-83071980D01*
X143432671Y-83082716D01*
X143639000Y-82959374D01*
X143639000Y-80717000D01*
X142431000Y-80717000D01*
X142366632Y-80717000D01*
X142369965Y-79031000D01*
X142500534Y-79031000D01*
X142431000Y-79263000D01*
G36*
X151997013Y-83658451D02*
X152384529Y-84045967D01*
X152890844Y-84255690D01*
X153438876Y-84255690D01*
X153465182Y-84244794D01*
X153335580Y-84438757D01*
X153286917Y-84683400D01*
X153286917Y-85183400D01*
X153295789Y-85228000D01*
X152851268Y-85228000D01*
X152851241Y-85227959D01*
X152643843Y-85089380D01*
X152399200Y-85040717D01*
X151899200Y-85040717D01*
X151654557Y-85089380D01*
X151447159Y-85227959D01*
X151420208Y-85268294D01*
X151395340Y-85143277D01*
X151256761Y-84935879D01*
X151049363Y-84797300D01*
X150804720Y-84748637D01*
X150795363Y-84748637D01*
X150795363Y-84739280D01*
X150746700Y-84494637D01*
X150608121Y-84287239D01*
X150560905Y-84255690D01*
X150898876Y-84255690D01*
X151405191Y-84045967D01*
X151792707Y-83658451D01*
X151894860Y-83411832D01*
X151997013Y-83658451D01*
X151997013Y-83658451D01*
G37*
X151997013Y-83658451D02*
X152384529Y-84045967D01*
X152890844Y-84255690D01*
X153438876Y-84255690D01*
X153465182Y-84244794D01*
X153335580Y-84438757D01*
X153286917Y-84683400D01*
X153286917Y-85183400D01*
X153295789Y-85228000D01*
X152851268Y-85228000D01*
X152851241Y-85227959D01*
X152643843Y-85089380D01*
X152399200Y-85040717D01*
X151899200Y-85040717D01*
X151654557Y-85089380D01*
X151447159Y-85227959D01*
X151420208Y-85268294D01*
X151395340Y-85143277D01*
X151256761Y-84935879D01*
X151049363Y-84797300D01*
X150804720Y-84748637D01*
X150795363Y-84748637D01*
X150795363Y-84739280D01*
X150746700Y-84494637D01*
X150608121Y-84287239D01*
X150560905Y-84255690D01*
X150898876Y-84255690D01*
X151405191Y-84045967D01*
X151792707Y-83658451D01*
X151894860Y-83411832D01*
X151997013Y-83658451D01*
M02*
