G04 #@! TF.GenerationSoftware,KiCad,Pcbnew,(2018-02-16 revision c95340fba)-makepkg*
G04 #@! TF.CreationDate,2018-05-22T14:01:30+02:00*
G04 #@! TF.ProjectId,LIN_USB_CONVERTER,4C494E5F5553425F434F4E5645525445,rev?*
G04 #@! TF.SameCoordinates,PX85b9e30PY4aad300*
G04 #@! TF.FileFunction,Soldermask,Top*
G04 #@! TF.FilePolarity,Negative*
%FSLAX46Y46*%
G04 Gerber Fmt 4.6, Leading zero omitted, Abs format (unit mm)*
G04 Created by KiCad (PCBNEW (2018-02-16 revision c95340fba)-makepkg) date 05/22/18 14:01:30*
%MOMM*%
%LPD*%
G01*
G04 APERTURE LIST*
%ADD10R,1.650000X1.400000*%
%ADD11R,0.900000X1.300000*%
%ADD12R,0.908000X2.400000*%
%ADD13R,1.300000X1.200000*%
%ADD14R,1.000000X0.900000*%
%ADD15R,0.900000X1.000000*%
%ADD16R,2.200000X1.400000*%
%ADD17R,2.100000X2.100000*%
%ADD18O,2.100000X2.100000*%
%ADD19R,1.670000X1.370000*%
%ADD20R,1.150000X1.200000*%
%ADD21R,0.702000X0.302000*%
%ADD22R,0.302000X0.702000*%
%ADD23R,0.102000X0.102000*%
%ADD24C,0.214000*%
%ADD25C,0.100000*%
%ADD26R,0.152000X0.152000*%
%ADD27R,0.502000X0.302000*%
%ADD28R,0.302000X0.502000*%
%ADD29C,2.540000*%
%ADD30C,2.900000*%
%ADD31R,1.300000X0.900000*%
%ADD32R,2.380000X4.360000*%
%ADD33O,2.380000X4.360000*%
%ADD34C,1.901140*%
%ADD35O,1.800000X4.200000*%
%ADD36C,1.900000*%
%ADD37R,1.000000X0.750000*%
G04 APERTURE END LIST*
D10*
X7620000Y-29835600D03*
X7620000Y-31835600D03*
D11*
X774000Y-17272000D03*
X2274000Y-17272000D03*
D12*
X3556000Y-17566000D03*
X4826000Y-17566000D03*
X6096000Y-17566000D03*
X7366000Y-17566000D03*
X7366000Y-22566000D03*
X6096000Y-22566000D03*
X4826000Y-22566000D03*
X3556000Y-22566000D03*
D11*
X6084000Y-14478000D03*
X4584000Y-14478000D03*
D13*
X14240000Y-9464000D03*
X14240000Y-11364000D03*
X16240000Y-10414000D03*
D14*
X15282000Y-7112000D03*
X14182000Y-7112000D03*
D15*
X12446000Y-7070000D03*
X12446000Y-8170000D03*
D16*
X1524000Y-15748000D03*
X1524000Y-8128000D03*
X1524000Y-10668000D03*
X1524000Y-5588000D03*
X1524000Y-13208000D03*
D17*
X15748000Y-14986000D03*
D18*
X15748000Y-17526000D03*
D19*
X15748000Y-15616000D03*
X15748000Y-16896000D03*
D13*
X9906000Y-27940000D03*
X9906000Y-26040000D03*
X7906000Y-26990000D03*
D20*
X16129000Y-21006500D03*
X16129000Y-19506500D03*
D15*
X14859000Y-19516000D03*
X14859000Y-20616000D03*
D21*
X6310000Y-8660000D03*
D22*
X7260000Y-7710000D03*
X9260000Y-7710000D03*
D21*
X10210000Y-8660000D03*
X6310000Y-10660000D03*
X10210000Y-10160000D03*
D22*
X8760000Y-11610000D03*
X7760000Y-11610000D03*
D23*
X6860000Y-11060000D03*
X6860000Y-8260000D03*
X9660000Y-8260000D03*
X9660000Y-11060000D03*
D24*
X9762920Y-7857080D03*
D25*
G36*
X9914241Y-7857080D02*
X9762920Y-8008401D01*
X9611599Y-7857080D01*
X9762920Y-7705759D01*
X9914241Y-7857080D01*
X9914241Y-7857080D01*
G37*
D24*
X9768000Y-11462920D03*
D25*
G36*
X9919321Y-11462920D02*
X9768000Y-11614241D01*
X9616679Y-11462920D01*
X9768000Y-11311599D01*
X9919321Y-11462920D01*
X9919321Y-11462920D01*
G37*
D24*
X6752000Y-7862160D03*
D25*
G36*
X6903321Y-7862160D02*
X6752000Y-8013481D01*
X6600679Y-7862160D01*
X6752000Y-7710839D01*
X6903321Y-7862160D01*
X6903321Y-7862160D01*
G37*
D24*
X6751240Y-11458320D03*
D25*
G36*
X6902561Y-11458320D02*
X6751240Y-11609641D01*
X6599919Y-11458320D01*
X6751240Y-11306999D01*
X6902561Y-11458320D01*
X6902561Y-11458320D01*
G37*
D24*
X10062920Y-8157080D03*
D25*
G36*
X10214241Y-8157080D02*
X10062920Y-8308401D01*
X9911599Y-8157080D01*
X10062920Y-8005759D01*
X10214241Y-8157080D01*
X10214241Y-8157080D01*
G37*
D24*
X10068000Y-11168000D03*
D25*
G36*
X10219321Y-11168000D02*
X10068000Y-11319321D01*
X9916679Y-11168000D01*
X10068000Y-11016679D01*
X10219321Y-11168000D01*
X10219321Y-11168000D01*
G37*
D24*
X6462160Y-8157080D03*
D25*
G36*
X6613481Y-8157080D02*
X6462160Y-8308401D01*
X6310839Y-8157080D01*
X6462160Y-8005759D01*
X6613481Y-8157080D01*
X6613481Y-8157080D01*
G37*
D24*
X6451520Y-11163680D03*
D25*
G36*
X6602841Y-11163680D02*
X6451520Y-11315001D01*
X6300199Y-11163680D01*
X6451520Y-11012359D01*
X6602841Y-11163680D01*
X6602841Y-11163680D01*
G37*
D26*
X6527720Y-11087920D03*
X6537160Y-8232080D03*
X6827000Y-7937160D03*
X9687920Y-7932080D03*
X9987920Y-8232080D03*
X9993000Y-11093000D03*
X9693000Y-11387920D03*
X6827440Y-11382120D03*
D27*
X6202600Y-11163680D03*
D21*
X6310000Y-10160000D03*
X6310000Y-9660000D03*
X6310000Y-9160000D03*
D27*
X6212760Y-8157080D03*
D28*
X6751240Y-7607680D03*
D22*
X7760000Y-7710000D03*
X8260000Y-7710000D03*
X8760000Y-7710000D03*
D28*
X9763680Y-7607680D03*
D27*
X10312320Y-8156320D03*
D21*
X10210000Y-9160000D03*
X10210000Y-9660000D03*
X10210000Y-10660000D03*
D27*
X10317400Y-11168760D03*
D28*
X9768000Y-11712320D03*
D22*
X9260000Y-11610000D03*
X8260000Y-11610000D03*
X7260000Y-11610000D03*
D28*
X6752000Y-11709040D03*
D14*
X9186000Y-14224000D03*
X8086000Y-14224000D03*
D29*
X8636000Y-1778000D03*
D30*
X1778000Y-31496000D03*
D20*
X12700000Y-29476000D03*
X12700000Y-30976000D03*
D14*
X12488000Y-14732000D03*
X11388000Y-14732000D03*
X13504000Y-13208000D03*
X12404000Y-13208000D03*
D31*
X16002000Y-26174000D03*
X16002000Y-27674000D03*
D13*
X3270000Y-27808000D03*
X3270000Y-25908000D03*
X1270000Y-26858000D03*
D17*
X10668000Y-23114000D03*
D18*
X13208000Y-23114000D03*
X15748000Y-23114000D03*
D32*
X15160000Y-31242000D03*
D33*
X10160000Y-31242000D03*
X5160000Y-31242000D03*
D31*
X5842000Y-20816000D03*
X5842000Y-19316000D03*
X3810000Y-20816000D03*
X3810000Y-19316000D03*
X2032000Y-20816000D03*
X2032000Y-19316000D03*
X7366000Y-20804000D03*
X7366000Y-19304000D03*
D13*
X13970000Y-27808000D03*
X13970000Y-25908000D03*
X11970000Y-26858000D03*
D34*
X12192860Y-4574120D03*
X9652860Y-4574120D03*
X7620860Y-4574120D03*
X5080860Y-4574120D03*
D35*
X14478000Y-2286000D03*
X2794000Y-2286000D03*
D36*
X6350000Y-2159000D03*
X10922000Y-2159000D03*
D37*
X10598000Y-20208000D03*
X10598000Y-19558000D03*
X13338000Y-18908000D03*
X10598000Y-18258000D03*
X13338000Y-20208000D03*
X13338000Y-19558000D03*
X10598000Y-18908000D03*
X13338000Y-18258000D03*
M02*
