G04 #@! TF.GenerationSoftware,KiCad,Pcbnew,(2018-02-16 revision c95340fba)-makepkg*
G04 #@! TF.CreationDate,2018-03-22T22:09:09+01:00*
G04 #@! TF.ProjectId,LIN_USB_CONVERTER,4C494E5F5553425F434F4E5645525445,rev?*
G04 #@! TF.SameCoordinates,Original*
G04 #@! TF.FileFunction,Legend,Bot*
G04 #@! TF.FilePolarity,Positive*
%FSLAX46Y46*%
G04 Gerber Fmt 4.6, Leading zero omitted, Abs format (unit mm)*
G04 Created by KiCad (PCBNEW (2018-02-16 revision c95340fba)-makepkg) date 03/22/18 22:09:09*
%MOMM*%
%LPD*%
G01*
G04 APERTURE LIST*
%ADD10C,0.125000*%
%ADD11C,0.100000*%
%ADD12C,0.175000*%
%ADD13C,0.250000*%
%ADD14C,0.200000*%
%ADD15C,0.120000*%
%ADD16C,0.150000*%
%ADD17C,0.090000*%
G04 APERTURE END LIST*
D10*
X157192190Y-90792690D02*
X157192190Y-90292690D01*
X157025523Y-90649833D01*
X156858857Y-90292690D01*
X156858857Y-90792690D01*
X156644571Y-90649833D02*
X156406476Y-90649833D01*
X156692190Y-90792690D02*
X156525523Y-90292690D01*
X156358857Y-90792690D01*
X156216000Y-90768880D02*
X156144571Y-90792690D01*
X156025523Y-90792690D01*
X155977904Y-90768880D01*
X155954095Y-90745071D01*
X155930285Y-90697452D01*
X155930285Y-90649833D01*
X155954095Y-90602214D01*
X155977904Y-90578404D01*
X156025523Y-90554595D01*
X156120761Y-90530785D01*
X156168380Y-90506976D01*
X156192190Y-90483166D01*
X156216000Y-90435547D01*
X156216000Y-90387928D01*
X156192190Y-90340309D01*
X156168380Y-90316500D01*
X156120761Y-90292690D01*
X156001714Y-90292690D01*
X155930285Y-90316500D01*
X155787428Y-90292690D02*
X155501714Y-90292690D01*
X155644571Y-90792690D02*
X155644571Y-90292690D01*
X155335047Y-90530785D02*
X155168380Y-90530785D01*
X155096952Y-90792690D02*
X155335047Y-90792690D01*
X155335047Y-90292690D01*
X155096952Y-90292690D01*
X154596952Y-90792690D02*
X154763619Y-90554595D01*
X154882666Y-90792690D02*
X154882666Y-90292690D01*
X154692190Y-90292690D01*
X154644571Y-90316500D01*
X154620761Y-90340309D01*
X154596952Y-90387928D01*
X154596952Y-90459357D01*
X154620761Y-90506976D01*
X154644571Y-90530785D01*
X154692190Y-90554595D01*
X154882666Y-90554595D01*
X156894571Y-91667690D02*
X157061238Y-91429595D01*
X157180285Y-91667690D02*
X157180285Y-91167690D01*
X156989809Y-91167690D01*
X156942190Y-91191500D01*
X156918380Y-91215309D01*
X156894571Y-91262928D01*
X156894571Y-91334357D01*
X156918380Y-91381976D01*
X156942190Y-91405785D01*
X156989809Y-91429595D01*
X157180285Y-91429595D01*
X156680285Y-91405785D02*
X156513619Y-91405785D01*
X156442190Y-91667690D02*
X156680285Y-91667690D01*
X156680285Y-91167690D01*
X156442190Y-91167690D01*
X156251714Y-91643880D02*
X156180285Y-91667690D01*
X156061238Y-91667690D01*
X156013619Y-91643880D01*
X155989809Y-91620071D01*
X155966000Y-91572452D01*
X155966000Y-91524833D01*
X155989809Y-91477214D01*
X156013619Y-91453404D01*
X156061238Y-91429595D01*
X156156476Y-91405785D01*
X156204095Y-91381976D01*
X156227904Y-91358166D01*
X156251714Y-91310547D01*
X156251714Y-91262928D01*
X156227904Y-91215309D01*
X156204095Y-91191500D01*
X156156476Y-91167690D01*
X156037428Y-91167690D01*
X155966000Y-91191500D01*
X155751714Y-91667690D02*
X155751714Y-91167690D01*
X155537428Y-91643880D02*
X155466000Y-91667690D01*
X155346952Y-91667690D01*
X155299333Y-91643880D01*
X155275523Y-91620071D01*
X155251714Y-91572452D01*
X155251714Y-91524833D01*
X155275523Y-91477214D01*
X155299333Y-91453404D01*
X155346952Y-91429595D01*
X155442190Y-91405785D01*
X155489809Y-91381976D01*
X155513619Y-91358166D01*
X155537428Y-91310547D01*
X155537428Y-91262928D01*
X155513619Y-91215309D01*
X155489809Y-91191500D01*
X155442190Y-91167690D01*
X155323142Y-91167690D01*
X155251714Y-91191500D01*
X155108857Y-91167690D02*
X154823142Y-91167690D01*
X154966000Y-91667690D02*
X154966000Y-91167690D01*
X154561238Y-91167690D02*
X154466000Y-91167690D01*
X154418380Y-91191500D01*
X154370761Y-91239119D01*
X154346952Y-91334357D01*
X154346952Y-91501023D01*
X154370761Y-91596261D01*
X154418380Y-91643880D01*
X154466000Y-91667690D01*
X154561238Y-91667690D01*
X154608857Y-91643880D01*
X154656476Y-91596261D01*
X154680285Y-91501023D01*
X154680285Y-91334357D01*
X154656476Y-91239119D01*
X154608857Y-91191500D01*
X154561238Y-91167690D01*
X153846952Y-91667690D02*
X154013619Y-91429595D01*
X154132666Y-91667690D02*
X154132666Y-91167690D01*
X153942190Y-91167690D01*
X153894571Y-91191500D01*
X153870761Y-91215309D01*
X153846952Y-91262928D01*
X153846952Y-91334357D01*
X153870761Y-91381976D01*
X153894571Y-91405785D01*
X153942190Y-91429595D01*
X154132666Y-91429595D01*
D11*
X156241428Y-99911428D02*
X156527142Y-99911428D01*
X156527142Y-99311428D01*
X156041428Y-99911428D02*
X156041428Y-99311428D01*
X155755714Y-99911428D02*
X155755714Y-99311428D01*
X155412857Y-99911428D01*
X155412857Y-99311428D01*
X153990285Y-99597142D02*
X153904571Y-99625714D01*
X153876000Y-99654285D01*
X153847428Y-99711428D01*
X153847428Y-99797142D01*
X153876000Y-99854285D01*
X153904571Y-99882857D01*
X153961714Y-99911428D01*
X154190285Y-99911428D01*
X154190285Y-99311428D01*
X153990285Y-99311428D01*
X153933142Y-99340000D01*
X153904571Y-99368571D01*
X153876000Y-99425714D01*
X153876000Y-99482857D01*
X153904571Y-99540000D01*
X153933142Y-99568571D01*
X153990285Y-99597142D01*
X154190285Y-99597142D01*
X153618857Y-99740000D02*
X153333142Y-99740000D01*
X153676000Y-99911428D02*
X153476000Y-99311428D01*
X153276000Y-99911428D01*
X153161714Y-99311428D02*
X152818857Y-99311428D01*
X152990285Y-99911428D02*
X152990285Y-99311428D01*
X152618857Y-99682857D02*
X152161714Y-99682857D01*
X151450285Y-99597142D02*
X151364571Y-99625714D01*
X151336000Y-99654285D01*
X151307428Y-99711428D01*
X151307428Y-99797142D01*
X151336000Y-99854285D01*
X151364571Y-99882857D01*
X151421714Y-99911428D01*
X151650285Y-99911428D01*
X151650285Y-99311428D01*
X151450285Y-99311428D01*
X151393142Y-99340000D01*
X151364571Y-99368571D01*
X151336000Y-99425714D01*
X151336000Y-99482857D01*
X151364571Y-99540000D01*
X151393142Y-99568571D01*
X151450285Y-99597142D01*
X151650285Y-99597142D01*
X151078857Y-99740000D02*
X150793142Y-99740000D01*
X151136000Y-99911428D02*
X150936000Y-99311428D01*
X150736000Y-99911428D01*
X150621714Y-99311428D02*
X150278857Y-99311428D01*
X150450285Y-99911428D02*
X150450285Y-99311428D01*
X150078857Y-99682857D02*
X149621714Y-99682857D01*
X149850285Y-99911428D02*
X149850285Y-99454285D01*
D12*
X153972857Y-96038892D02*
X153972857Y-95467464D01*
X152772857Y-95467464D01*
X153972857Y-96438892D02*
X152772857Y-96438892D01*
X153972857Y-97010321D02*
X152772857Y-97010321D01*
X153972857Y-97696035D01*
X152772857Y-97696035D01*
X149534285Y-94343464D02*
X149591428Y-94514892D01*
X149648571Y-94572035D01*
X149762857Y-94629178D01*
X149934285Y-94629178D01*
X150048571Y-94572035D01*
X150105714Y-94514892D01*
X150162857Y-94400607D01*
X150162857Y-93943464D01*
X148962857Y-93943464D01*
X148962857Y-94343464D01*
X149020000Y-94457750D01*
X149077142Y-94514892D01*
X149191428Y-94572035D01*
X149305714Y-94572035D01*
X149420000Y-94514892D01*
X149477142Y-94457750D01*
X149534285Y-94343464D01*
X149534285Y-93943464D01*
X149820000Y-95086321D02*
X149820000Y-95657750D01*
X150162857Y-94972035D02*
X148962857Y-95372035D01*
X150162857Y-95772035D01*
X148962857Y-96000607D02*
X148962857Y-96686321D01*
X150162857Y-96343464D02*
X148962857Y-96343464D01*
X149705714Y-97086321D02*
X149705714Y-98000607D01*
X145470285Y-94343464D02*
X145527428Y-94514892D01*
X145584571Y-94572035D01*
X145698857Y-94629178D01*
X145870285Y-94629178D01*
X145984571Y-94572035D01*
X146041714Y-94514892D01*
X146098857Y-94400607D01*
X146098857Y-93943464D01*
X144898857Y-93943464D01*
X144898857Y-94343464D01*
X144956000Y-94457750D01*
X145013142Y-94514892D01*
X145127428Y-94572035D01*
X145241714Y-94572035D01*
X145356000Y-94514892D01*
X145413142Y-94457750D01*
X145470285Y-94343464D01*
X145470285Y-93943464D01*
X145756000Y-95086321D02*
X145756000Y-95657750D01*
X146098857Y-94972035D02*
X144898857Y-95372035D01*
X146098857Y-95772035D01*
X144898857Y-96000607D02*
X144898857Y-96686321D01*
X146098857Y-96343464D02*
X144898857Y-96343464D01*
X145641714Y-97086321D02*
X145641714Y-98000607D01*
X146098857Y-97543464D02*
X145184571Y-97543464D01*
D11*
X154952591Y-86957994D02*
X155238305Y-86957994D01*
X155238305Y-86357994D01*
X154752591Y-86357994D02*
X154752591Y-86843708D01*
X154724019Y-86900851D01*
X154695448Y-86929423D01*
X154638305Y-86957994D01*
X154524019Y-86957994D01*
X154466876Y-86929423D01*
X154438305Y-86900851D01*
X154409734Y-86843708D01*
X154409734Y-86357994D01*
X153781162Y-86900851D02*
X153809734Y-86929423D01*
X153895448Y-86957994D01*
X153952591Y-86957994D01*
X154038305Y-86929423D01*
X154095448Y-86872280D01*
X154124019Y-86815137D01*
X154152591Y-86700851D01*
X154152591Y-86615137D01*
X154124019Y-86500851D01*
X154095448Y-86443708D01*
X154038305Y-86386566D01*
X153952591Y-86357994D01*
X153895448Y-86357994D01*
X153809734Y-86386566D01*
X153781162Y-86415137D01*
X153209734Y-86957994D02*
X153552591Y-86957994D01*
X153381162Y-86957994D02*
X153381162Y-86357994D01*
X153438305Y-86443708D01*
X153495448Y-86500851D01*
X153552591Y-86529423D01*
X152952591Y-86900851D02*
X152924019Y-86929423D01*
X152952591Y-86957994D01*
X152981162Y-86929423D01*
X152952591Y-86900851D01*
X152952591Y-86957994D01*
X152552591Y-86357994D02*
X152495448Y-86357994D01*
X152438305Y-86386566D01*
X152409734Y-86415137D01*
X152381162Y-86472280D01*
X152352591Y-86586566D01*
X152352591Y-86729423D01*
X152381162Y-86843708D01*
X152409734Y-86900851D01*
X152438305Y-86929423D01*
X152495448Y-86957994D01*
X152552591Y-86957994D01*
X152609734Y-86929423D01*
X152638305Y-86900851D01*
X152666876Y-86843708D01*
X152695448Y-86729423D01*
X152695448Y-86586566D01*
X152666876Y-86472280D01*
X152638305Y-86415137D01*
X152609734Y-86386566D01*
X152552591Y-86357994D01*
D13*
X155844962Y-85036489D02*
X155844962Y-86574585D01*
X155916391Y-86755537D01*
X155987819Y-86846013D01*
X156130676Y-86936489D01*
X156416391Y-86936489D01*
X156559248Y-86846013D01*
X156630676Y-86755537D01*
X156702105Y-86574585D01*
X156702105Y-85036489D01*
D11*
X155086019Y-86007080D02*
X155124114Y-86045175D01*
X155238400Y-86083270D01*
X155314591Y-86083270D01*
X155428876Y-86045175D01*
X155505067Y-85968985D01*
X155543162Y-85892794D01*
X155581257Y-85740413D01*
X155581257Y-85626127D01*
X155543162Y-85473746D01*
X155505067Y-85397556D01*
X155428876Y-85321366D01*
X155314591Y-85283270D01*
X155238400Y-85283270D01*
X155124114Y-85321366D01*
X155086019Y-85359461D01*
X154781257Y-85854699D02*
X154400305Y-85854699D01*
X154857448Y-86083270D02*
X154590781Y-85283270D01*
X154324114Y-86083270D01*
X154057448Y-86083270D02*
X154057448Y-85283270D01*
X153600305Y-86083270D01*
X153600305Y-85283270D01*
D14*
X155867134Y-85010166D02*
X153221534Y-85010166D01*
D15*
X157300000Y-100088000D02*
X157300000Y-102748000D01*
X152160000Y-100088000D02*
X157300000Y-100088000D01*
X152160000Y-102748000D02*
X157300000Y-102748000D01*
X152160000Y-100088000D02*
X152160000Y-102748000D01*
X150890000Y-100088000D02*
X149560000Y-100088000D01*
X149560000Y-100088000D02*
X149560000Y-101418000D01*
X158032000Y-103246000D02*
X158032000Y-115846000D01*
X158032000Y-115846000D02*
X142632000Y-115846000D01*
X142632000Y-115846000D02*
X142632000Y-114896000D01*
X142632000Y-114896000D02*
X142132000Y-115196000D01*
X142132000Y-115196000D02*
X142132000Y-113196000D01*
X142132000Y-113196000D02*
X142632000Y-113446000D01*
X142632000Y-113446000D02*
X142632000Y-108046000D01*
X142632000Y-108046000D02*
X142132000Y-108296000D01*
X142132000Y-108296000D02*
X142132000Y-103246000D01*
X142132000Y-103246000D02*
X158032000Y-103246000D01*
X157300000Y-97160000D02*
X154640000Y-97160000D01*
X157300000Y-94560000D02*
X157300000Y-97160000D01*
X154640000Y-94560000D02*
X154640000Y-97160000D01*
X157300000Y-94560000D02*
X154640000Y-94560000D01*
X157300000Y-93290000D02*
X157300000Y-91960000D01*
X157300000Y-91960000D02*
X155970000Y-91960000D01*
D16*
X156351860Y-84021120D02*
X156351860Y-69924120D01*
X141365860Y-69924120D02*
X141365860Y-84021120D01*
X156351860Y-84021120D02*
X141365860Y-84021120D01*
X156351860Y-69924120D02*
X141365860Y-69924120D01*
D17*
X149146952Y-102554666D02*
X149432666Y-102554666D01*
X149489809Y-102535619D01*
X149527904Y-102497523D01*
X149546952Y-102440380D01*
X149546952Y-102402285D01*
X149546952Y-102954666D02*
X149546952Y-102726095D01*
X149546952Y-102840380D02*
X149146952Y-102840380D01*
X149204095Y-102802285D01*
X149242190Y-102764190D01*
X149261238Y-102726095D01*
X156611333Y-104754952D02*
X156611333Y-105040666D01*
X156630380Y-105097809D01*
X156668476Y-105135904D01*
X156725619Y-105154952D01*
X156763714Y-105154952D01*
X156439904Y-104793047D02*
X156420857Y-104774000D01*
X156382761Y-104754952D01*
X156287523Y-104754952D01*
X156249428Y-104774000D01*
X156230380Y-104793047D01*
X156211333Y-104831142D01*
X156211333Y-104869238D01*
X156230380Y-104926380D01*
X156458952Y-105154952D01*
X156211333Y-105154952D01*
X154579333Y-92308952D02*
X154579333Y-92594666D01*
X154598380Y-92651809D01*
X154636476Y-92689904D01*
X154693619Y-92708952D01*
X154731714Y-92708952D01*
X154198380Y-92308952D02*
X154388857Y-92308952D01*
X154407904Y-92499428D01*
X154388857Y-92480380D01*
X154350761Y-92461333D01*
X154255523Y-92461333D01*
X154217428Y-92480380D01*
X154198380Y-92499428D01*
X154179333Y-92537523D01*
X154179333Y-92632761D01*
X154198380Y-92670857D01*
X154217428Y-92689904D01*
X154255523Y-92708952D01*
X154350761Y-92708952D01*
X154388857Y-92689904D01*
X154407904Y-92670857D01*
X143304952Y-82742666D02*
X143590666Y-82742666D01*
X143647809Y-82723619D01*
X143685904Y-82685523D01*
X143704952Y-82628380D01*
X143704952Y-82590285D01*
X143438285Y-83104571D02*
X143704952Y-83104571D01*
X143285904Y-83009333D02*
X143571619Y-82914095D01*
X143571619Y-83161714D01*
M02*
