M48
;DRILL file {KiCad (2018-02-16 revision c95340fba)-makepkg} date 05/01/18 15:17:07
;FORMAT={-:-/ absolute / metric / decimal}
FMAT,2
METRIC,TZ
T1C0.400
T2C1.000
T3C1.001
T4C1.320
T5C2.000
%
G90
G05
M71
T1
X144.134Y-91.233
X145.2Y-88.921
X145.404Y-88.083
X150.456Y-90.078
X150.704Y-91.375
X151.119Y-99.03
X152.973Y-90.013
X153.938Y-95.703
X154.954Y-88.464
T2
X146.242Y-91.437
X146.242Y-93.977
X150.128Y-93.53
X152.668Y-93.53
X155.208Y-93.53
T3
X146.053Y-82.878
X148.593Y-82.878
X150.625Y-82.878
X153.165Y-82.878
T4
X144.903Y-101.52
X149.903Y-101.52
X154.903Y-101.52
T5
X143.295Y-96.973
T2
X143.766Y-81.34G85X143.766Y-79.84
G05
X155.45Y-81.34G85X155.45Y-79.84
G05
T0
M30
