G04 #@! TF.GenerationSoftware,KiCad,Pcbnew,(2018-02-16 revision c95340fba)-makepkg*
G04 #@! TF.CreationDate,2018-03-22T22:09:08+01:00*
G04 #@! TF.ProjectId,LIN_USB_CONVERTER,4C494E5F5553425F434F4E5645525445,rev?*
G04 #@! TF.SameCoordinates,Original*
G04 #@! TF.FileFunction,Paste,Top*
G04 #@! TF.FilePolarity,Positive*
%FSLAX46Y46*%
G04 Gerber Fmt 4.6, Leading zero omitted, Abs format (unit mm)*
G04 Created by KiCad (PCBNEW (2018-02-16 revision c95340fba)-makepkg) date 03/22/18 22:09:08*
%MOMM*%
%LPD*%
G01*
G04 APERTURE LIST*
%ADD10R,0.700000X0.300000*%
%ADD11R,0.300000X0.700000*%
%ADD12C,0.212000*%
%ADD13C,0.100000*%
%ADD14R,0.150000X0.150000*%
%ADD15R,0.500000X0.300000*%
%ADD16R,0.300000X0.500000*%
%ADD17R,0.500000X0.600000*%
%ADD18R,0.600000X0.500000*%
%ADD19R,0.750000X0.800000*%
%ADD20R,1.270000X0.970000*%
%ADD21R,0.900000X0.500000*%
%ADD22R,0.500000X0.900000*%
%ADD23R,0.900000X0.800000*%
%ADD24R,0.508000X2.000000*%
%ADD25R,0.600000X0.350000*%
G04 APERTURE END LIST*
D10*
X146532000Y-86964000D03*
D11*
X147482000Y-86014000D03*
X149482000Y-86014000D03*
D10*
X150432000Y-86964000D03*
X146532000Y-88964000D03*
X150432000Y-88464000D03*
D11*
X148982000Y-89914000D03*
X147982000Y-89914000D03*
D12*
X149984920Y-86161080D03*
D13*
G36*
X150134827Y-86161080D02*
X149984920Y-86310987D01*
X149835013Y-86161080D01*
X149984920Y-86011173D01*
X150134827Y-86161080D01*
X150134827Y-86161080D01*
G37*
D12*
X149990000Y-89766920D03*
D13*
G36*
X150139907Y-89766920D02*
X149990000Y-89916827D01*
X149840093Y-89766920D01*
X149990000Y-89617013D01*
X150139907Y-89766920D01*
X150139907Y-89766920D01*
G37*
D12*
X146974000Y-86166160D03*
D13*
G36*
X147123907Y-86166160D02*
X146974000Y-86316067D01*
X146824093Y-86166160D01*
X146974000Y-86016253D01*
X147123907Y-86166160D01*
X147123907Y-86166160D01*
G37*
D12*
X146973240Y-89762320D03*
D13*
G36*
X147123147Y-89762320D02*
X146973240Y-89912227D01*
X146823333Y-89762320D01*
X146973240Y-89612413D01*
X147123147Y-89762320D01*
X147123147Y-89762320D01*
G37*
D12*
X150284920Y-86461080D03*
D13*
G36*
X150434827Y-86461080D02*
X150284920Y-86610987D01*
X150135013Y-86461080D01*
X150284920Y-86311173D01*
X150434827Y-86461080D01*
X150434827Y-86461080D01*
G37*
D12*
X150290000Y-89472000D03*
D13*
G36*
X150439907Y-89472000D02*
X150290000Y-89621907D01*
X150140093Y-89472000D01*
X150290000Y-89322093D01*
X150439907Y-89472000D01*
X150439907Y-89472000D01*
G37*
D12*
X146684160Y-86461080D03*
D13*
G36*
X146834067Y-86461080D02*
X146684160Y-86610987D01*
X146534253Y-86461080D01*
X146684160Y-86311173D01*
X146834067Y-86461080D01*
X146834067Y-86461080D01*
G37*
D12*
X146673520Y-89467680D03*
D13*
G36*
X146823427Y-89467680D02*
X146673520Y-89617587D01*
X146523613Y-89467680D01*
X146673520Y-89317773D01*
X146823427Y-89467680D01*
X146823427Y-89467680D01*
G37*
D14*
X146749720Y-89391920D03*
X146759160Y-86536080D03*
X147049000Y-86241160D03*
X149909920Y-86236080D03*
X150209920Y-86536080D03*
X150215000Y-89397000D03*
X149915000Y-89691920D03*
X147049440Y-89686120D03*
D15*
X146424600Y-89467680D03*
D10*
X146532000Y-88464000D03*
X146532000Y-87964000D03*
X146532000Y-87464000D03*
D15*
X146434760Y-86461080D03*
D16*
X146973240Y-85911680D03*
D11*
X147982000Y-86014000D03*
X148482000Y-86014000D03*
X148982000Y-86014000D03*
D16*
X149985680Y-85911680D03*
D15*
X150534320Y-86460320D03*
D10*
X150432000Y-87464000D03*
X150432000Y-87964000D03*
X150432000Y-88964000D03*
D15*
X150539400Y-89472760D03*
D16*
X149990000Y-90016320D03*
D11*
X149482000Y-89914000D03*
X148482000Y-89914000D03*
X147482000Y-89914000D03*
D16*
X146974000Y-90013040D03*
D17*
X152668000Y-85374000D03*
X152668000Y-86474000D03*
D18*
X149408000Y-92528000D03*
X148308000Y-92528000D03*
D17*
X155208000Y-97820000D03*
X155208000Y-98920000D03*
D18*
X155504000Y-85416000D03*
X154404000Y-85416000D03*
D19*
X152922000Y-107780000D03*
X152922000Y-109280000D03*
X147842000Y-109534000D03*
X147842000Y-108034000D03*
D18*
X152710000Y-93036000D03*
X151610000Y-93036000D03*
X153726000Y-91512000D03*
X152626000Y-91512000D03*
D20*
X155970000Y-93920000D03*
X155970000Y-95200000D03*
D21*
X156224000Y-104478000D03*
X156224000Y-105978000D03*
X145556000Y-104224000D03*
X145556000Y-105724000D03*
D22*
X146306000Y-92782000D03*
X144806000Y-92782000D03*
X140996000Y-95576000D03*
X142496000Y-95576000D03*
D23*
X154462000Y-87768000D03*
X154462000Y-89668000D03*
X156462000Y-88718000D03*
X143492000Y-106112000D03*
X143492000Y-104212000D03*
X141492000Y-105162000D03*
D21*
X146064000Y-99120000D03*
X146064000Y-97620000D03*
X144032000Y-99120000D03*
X144032000Y-97620000D03*
X142254000Y-99120000D03*
X142254000Y-97620000D03*
X147588000Y-99108000D03*
X147588000Y-97608000D03*
D23*
X154192000Y-106112000D03*
X154192000Y-104212000D03*
X152192000Y-105162000D03*
X150128000Y-106244000D03*
X150128000Y-104344000D03*
X148128000Y-105294000D03*
D24*
X143778000Y-95870000D03*
X145048000Y-95870000D03*
X146318000Y-95870000D03*
X147588000Y-95870000D03*
X147588000Y-100870000D03*
X146318000Y-100870000D03*
X145048000Y-100870000D03*
X143778000Y-100870000D03*
D25*
X150820000Y-98512000D03*
X150820000Y-97862000D03*
X153560000Y-97212000D03*
X150820000Y-96562000D03*
X153560000Y-98512000D03*
X153560000Y-97862000D03*
X150820000Y-97212000D03*
X153560000Y-96562000D03*
D17*
X156478000Y-98920000D03*
X156478000Y-97820000D03*
M02*
