G04 #@! TF.GenerationSoftware,KiCad,Pcbnew,(2018-02-16 revision c95340fba)-makepkg*
G04 #@! TF.CreationDate,2018-05-01T15:17:05+02:00*
G04 #@! TF.ProjectId,LIN_USB_CONVERTER,4C494E5F5553425F434F4E5645525445,rev?*
G04 #@! TF.SameCoordinates,Original*
G04 #@! TF.FileFunction,Other,Fab,Top*
%FSLAX46Y46*%
G04 Gerber Fmt 4.6, Leading zero omitted, Abs format (unit mm)*
G04 Created by KiCad (PCBNEW (2018-02-16 revision c95340fba)-makepkg) date 05/01/18 15:17:05*
%MOMM*%
%LPD*%
G01*
G04 APERTURE LIST*
%ADD10C,0.075000*%
%ADD11C,0.200000*%
%ADD12C,0.150000*%
%ADD13C,0.100000*%
%ADD14C,0.090000*%
G04 APERTURE END LIST*
D10*
X153557028Y-91449314D02*
X153557028Y-91692171D01*
X153571314Y-91720742D01*
X153585600Y-91735028D01*
X153614171Y-91749314D01*
X153671314Y-91749314D01*
X153699885Y-91735028D01*
X153714171Y-91720742D01*
X153728457Y-91692171D01*
X153728457Y-91449314D01*
X154028457Y-91749314D02*
X153857028Y-91749314D01*
X153942742Y-91749314D02*
X153942742Y-91449314D01*
X153914171Y-91492171D01*
X153885600Y-91520742D01*
X153857028Y-91535028D01*
D11*
X145789962Y-89810200D02*
G75*
G03X145789962Y-89810200I-183162J0D01*
G01*
D12*
X151399200Y-91905000D02*
X151399200Y-88605000D01*
X151399200Y-88600000D02*
X154969200Y-88610000D01*
X154969200Y-88610000D02*
X154969200Y-91885000D01*
X154969200Y-91910000D02*
X151399200Y-91920000D01*
X155380621Y-91921421D02*
G75*
G03X155380621Y-91921421I-141421J0D01*
G01*
D13*
X156030200Y-86421600D02*
X156030200Y-87661600D01*
X154030200Y-86421600D02*
X156030200Y-86421600D01*
X154030200Y-87661600D02*
X154030200Y-86421600D01*
X156030200Y-87661600D02*
X154030200Y-87661600D01*
X146917200Y-100214800D02*
X148157200Y-100214800D01*
X146917200Y-102214800D02*
X146917200Y-100214800D01*
X148157200Y-102214800D02*
X146917200Y-102214800D01*
X148157200Y-100214800D02*
X148157200Y-102214800D01*
X155821600Y-89665800D02*
X156321600Y-89665800D01*
X155821600Y-90665800D02*
X155821600Y-89665800D01*
X156321600Y-90665800D02*
X155821600Y-90665800D01*
X156321600Y-89665800D02*
X156321600Y-90665800D01*
X147502400Y-89041600D02*
X146502400Y-88041600D01*
X150502400Y-89041600D02*
X147502400Y-89041600D01*
X150502400Y-85041600D02*
X150502400Y-89041600D01*
X146502400Y-85041600D02*
X150502400Y-85041600D01*
X146502400Y-88041600D02*
X146502400Y-85041600D01*
D12*
X149200000Y-90982600D02*
X149200000Y-91482600D01*
X148200000Y-90982600D02*
X149200000Y-90982600D01*
X148200000Y-91482600D02*
X148200000Y-90982600D01*
X149200000Y-91482600D02*
X148200000Y-91482600D01*
D13*
X152038000Y-101685600D02*
X152038000Y-100085600D01*
X152038000Y-100085600D02*
X152838000Y-100085600D01*
X152838000Y-100085600D02*
X152838000Y-101685600D01*
X152838000Y-101685600D02*
X152038000Y-101685600D01*
X151899200Y-86030000D02*
X152399200Y-86030000D01*
X151899200Y-87030000D02*
X151899200Y-86030000D01*
X152399200Y-87030000D02*
X151899200Y-87030000D01*
X152399200Y-86030000D02*
X152399200Y-87030000D01*
X145206800Y-95792000D02*
X146006800Y-95792000D01*
X145206800Y-97392000D02*
X145206800Y-95792000D01*
X146006800Y-97392000D02*
X145206800Y-97392000D01*
X146006800Y-95792000D02*
X146006800Y-97392000D01*
X152822800Y-96345200D02*
X152572800Y-96345200D01*
X152822800Y-96545200D02*
X153122800Y-96345200D01*
X152822800Y-96145200D02*
X152822800Y-96545200D01*
X153122800Y-96345200D02*
X152822800Y-96145200D01*
X153122800Y-96345200D02*
X153372800Y-96345200D01*
X153122800Y-96145200D02*
X153122800Y-96545200D01*
X153672800Y-95275200D02*
X153672800Y-98315200D01*
X152272800Y-98315200D02*
X153672800Y-98315200D01*
X152272800Y-95275200D02*
X153672800Y-95275200D01*
X152272800Y-95275200D02*
X152272800Y-98315200D01*
X148754000Y-97245200D02*
X149004000Y-97245200D01*
X148754000Y-97045200D02*
X148454000Y-97245200D01*
X148754000Y-97445200D02*
X148754000Y-97045200D01*
X148454000Y-97245200D02*
X148754000Y-97445200D01*
X148454000Y-97245200D02*
X148204000Y-97245200D01*
X148454000Y-97445200D02*
X148454000Y-97045200D01*
X147904000Y-98315200D02*
X147904000Y-95275200D01*
X149304000Y-95275200D02*
X147904000Y-95275200D01*
X149304000Y-98315200D02*
X147904000Y-98315200D01*
X149304000Y-98315200D02*
X149304000Y-95275200D01*
X154276200Y-84683400D02*
X155276200Y-84683400D01*
X155276200Y-84683400D02*
X155276200Y-85183400D01*
X155276200Y-85183400D02*
X154276200Y-85183400D01*
X154276200Y-85183400D02*
X154276200Y-84683400D01*
X155782723Y-85762085D02*
X155782723Y-86028752D01*
X155687485Y-85609704D02*
X155592247Y-85895419D01*
X155839866Y-85895419D01*
X156011295Y-86009704D02*
X156011295Y-86028752D01*
X155992247Y-86066847D01*
X155973200Y-86085895D01*
X156144628Y-85628752D02*
X156411295Y-85628752D01*
X156239866Y-86028752D01*
X156735104Y-85762085D02*
X156735104Y-86028752D01*
X156563676Y-85762085D02*
X156563676Y-85971609D01*
X156582723Y-86009704D01*
X156620819Y-86028752D01*
X156677961Y-86028752D01*
X156716057Y-86009704D01*
X156735104Y-85990657D01*
D14*
X148657952Y-101281466D02*
X148657952Y-101510038D01*
X148657952Y-101395752D02*
X148257952Y-101395752D01*
X148315095Y-101433847D01*
X148353190Y-101471942D01*
X148372238Y-101510038D01*
X148391285Y-100938609D02*
X148657952Y-100938609D01*
X148391285Y-101110038D02*
X148600809Y-101110038D01*
X148638904Y-101090990D01*
X148657952Y-101052895D01*
X148657952Y-100995752D01*
X148638904Y-100957657D01*
X148619857Y-100938609D01*
X157166952Y-90562619D02*
X157166952Y-90791190D01*
X157166952Y-90676904D02*
X156766952Y-90676904D01*
X156824095Y-90715000D01*
X156862190Y-90753095D01*
X156881238Y-90791190D01*
X156766952Y-90315000D02*
X156766952Y-90276904D01*
X156786000Y-90238809D01*
X156805047Y-90219761D01*
X156843142Y-90200714D01*
X156919333Y-90181666D01*
X157014571Y-90181666D01*
X157090761Y-90200714D01*
X157128857Y-90219761D01*
X157147904Y-90238809D01*
X157166952Y-90276904D01*
X157166952Y-90315000D01*
X157147904Y-90353095D01*
X157128857Y-90372142D01*
X157090761Y-90391190D01*
X157014571Y-90410238D01*
X156919333Y-90410238D01*
X156843142Y-90391190D01*
X156805047Y-90372142D01*
X156786000Y-90353095D01*
X156766952Y-90315000D01*
X156766952Y-89934047D02*
X156766952Y-89895952D01*
X156786000Y-89857857D01*
X156805047Y-89838809D01*
X156843142Y-89819761D01*
X156919333Y-89800714D01*
X157014571Y-89800714D01*
X157090761Y-89819761D01*
X157128857Y-89838809D01*
X157147904Y-89857857D01*
X157166952Y-89895952D01*
X157166952Y-89934047D01*
X157147904Y-89972142D01*
X157128857Y-89991190D01*
X157090761Y-90010238D01*
X157014571Y-90029285D01*
X156919333Y-90029285D01*
X156843142Y-90010238D01*
X156805047Y-89991190D01*
X156786000Y-89972142D01*
X156766952Y-89934047D01*
X156900285Y-89629285D02*
X157166952Y-89629285D01*
X156938380Y-89629285D02*
X156919333Y-89610238D01*
X156900285Y-89572142D01*
X156900285Y-89515000D01*
X156919333Y-89476904D01*
X156957428Y-89457857D01*
X157166952Y-89457857D01*
X148353980Y-92378752D02*
X148125409Y-92378752D01*
X148239695Y-92378752D02*
X148239695Y-91978752D01*
X148201600Y-92035895D01*
X148163504Y-92073990D01*
X148125409Y-92093038D01*
X148601600Y-91978752D02*
X148639695Y-91978752D01*
X148677790Y-91997800D01*
X148696838Y-92016847D01*
X148715885Y-92054942D01*
X148734933Y-92131133D01*
X148734933Y-92226371D01*
X148715885Y-92302561D01*
X148696838Y-92340657D01*
X148677790Y-92359704D01*
X148639695Y-92378752D01*
X148601600Y-92378752D01*
X148563504Y-92359704D01*
X148544457Y-92340657D01*
X148525409Y-92302561D01*
X148506361Y-92226371D01*
X148506361Y-92131133D01*
X148525409Y-92054942D01*
X148544457Y-92016847D01*
X148563504Y-91997800D01*
X148601600Y-91978752D01*
X148982552Y-91978752D02*
X149020647Y-91978752D01*
X149058742Y-91997800D01*
X149077790Y-92016847D01*
X149096838Y-92054942D01*
X149115885Y-92131133D01*
X149115885Y-92226371D01*
X149096838Y-92302561D01*
X149077790Y-92340657D01*
X149058742Y-92359704D01*
X149020647Y-92378752D01*
X148982552Y-92378752D01*
X148944457Y-92359704D01*
X148925409Y-92340657D01*
X148906361Y-92302561D01*
X148887314Y-92226371D01*
X148887314Y-92131133D01*
X148906361Y-92054942D01*
X148925409Y-92016847D01*
X148944457Y-91997800D01*
X148982552Y-91978752D01*
X149287314Y-92112085D02*
X149287314Y-92378752D01*
X149287314Y-92150180D02*
X149306361Y-92131133D01*
X149344457Y-92112085D01*
X149401600Y-92112085D01*
X149439695Y-92131133D01*
X149458742Y-92169228D01*
X149458742Y-92378752D01*
X153273047Y-101663390D02*
X153254000Y-101644342D01*
X153234952Y-101606247D01*
X153234952Y-101511009D01*
X153254000Y-101472914D01*
X153273047Y-101453866D01*
X153311142Y-101434819D01*
X153349238Y-101434819D01*
X153406380Y-101453866D01*
X153634952Y-101682438D01*
X153634952Y-101434819D01*
X153273047Y-101282438D02*
X153254000Y-101263390D01*
X153234952Y-101225295D01*
X153234952Y-101130057D01*
X153254000Y-101091961D01*
X153273047Y-101072914D01*
X153311142Y-101053866D01*
X153349238Y-101053866D01*
X153406380Y-101072914D01*
X153634952Y-101301485D01*
X153634952Y-101053866D01*
X153234952Y-100806247D02*
X153234952Y-100768152D01*
X153254000Y-100730057D01*
X153273047Y-100711009D01*
X153311142Y-100691961D01*
X153387333Y-100672914D01*
X153482571Y-100672914D01*
X153558761Y-100691961D01*
X153596857Y-100711009D01*
X153615904Y-100730057D01*
X153634952Y-100768152D01*
X153634952Y-100806247D01*
X153615904Y-100844342D01*
X153596857Y-100863390D01*
X153558761Y-100882438D01*
X153482571Y-100901485D01*
X153387333Y-100901485D01*
X153311142Y-100882438D01*
X153273047Y-100863390D01*
X153254000Y-100844342D01*
X153234952Y-100806247D01*
X153368285Y-100501485D02*
X153768285Y-100501485D01*
X153387333Y-100501485D02*
X153368285Y-100463390D01*
X153368285Y-100387200D01*
X153387333Y-100349104D01*
X153406380Y-100330057D01*
X153444476Y-100311009D01*
X153558761Y-100311009D01*
X153596857Y-100330057D01*
X153615904Y-100349104D01*
X153634952Y-100387200D01*
X153634952Y-100463390D01*
X153615904Y-100501485D01*
X153193752Y-86825219D02*
X153193752Y-87053790D01*
X153193752Y-86939504D02*
X152793752Y-86939504D01*
X152850895Y-86977600D01*
X152888990Y-87015695D01*
X152908038Y-87053790D01*
X152793752Y-86577600D02*
X152793752Y-86539504D01*
X152812800Y-86501409D01*
X152831847Y-86482361D01*
X152869942Y-86463314D01*
X152946133Y-86444266D01*
X153041371Y-86444266D01*
X153117561Y-86463314D01*
X153155657Y-86482361D01*
X153174704Y-86501409D01*
X153193752Y-86539504D01*
X153193752Y-86577600D01*
X153174704Y-86615695D01*
X153155657Y-86634742D01*
X153117561Y-86653790D01*
X153041371Y-86672838D01*
X152946133Y-86672838D01*
X152869942Y-86653790D01*
X152831847Y-86634742D01*
X152812800Y-86615695D01*
X152793752Y-86577600D01*
X152793752Y-86196647D02*
X152793752Y-86158552D01*
X152812800Y-86120457D01*
X152831847Y-86101409D01*
X152869942Y-86082361D01*
X152946133Y-86063314D01*
X153041371Y-86063314D01*
X153117561Y-86082361D01*
X153155657Y-86101409D01*
X153174704Y-86120457D01*
X153193752Y-86158552D01*
X153193752Y-86196647D01*
X153174704Y-86234742D01*
X153155657Y-86253790D01*
X153117561Y-86272838D01*
X153041371Y-86291885D01*
X152946133Y-86291885D01*
X152869942Y-86272838D01*
X152831847Y-86253790D01*
X152812800Y-86234742D01*
X152793752Y-86196647D01*
X152927085Y-85891885D02*
X153193752Y-85891885D01*
X152965180Y-85891885D02*
X152946133Y-85872838D01*
X152927085Y-85834742D01*
X152927085Y-85777600D01*
X152946133Y-85739504D01*
X152984228Y-85720457D01*
X153193752Y-85720457D01*
X145940209Y-92505800D02*
X145902114Y-92486752D01*
X145844971Y-92486752D01*
X145787828Y-92505800D01*
X145749733Y-92543895D01*
X145730685Y-92581990D01*
X145711638Y-92658180D01*
X145711638Y-92715323D01*
X145730685Y-92791514D01*
X145749733Y-92829609D01*
X145787828Y-92867704D01*
X145844971Y-92886752D01*
X145883066Y-92886752D01*
X145940209Y-92867704D01*
X145959257Y-92848657D01*
X145959257Y-92715323D01*
X145883066Y-92715323D01*
X146111638Y-92867704D02*
X146168780Y-92886752D01*
X146264019Y-92886752D01*
X146302114Y-92867704D01*
X146321161Y-92848657D01*
X146340209Y-92810561D01*
X146340209Y-92772466D01*
X146321161Y-92734371D01*
X146302114Y-92715323D01*
X146264019Y-92696276D01*
X146187828Y-92677228D01*
X146149733Y-92658180D01*
X146130685Y-92639133D01*
X146111638Y-92601038D01*
X146111638Y-92562942D01*
X146130685Y-92524847D01*
X146149733Y-92505800D01*
X146187828Y-92486752D01*
X146283066Y-92486752D01*
X146340209Y-92505800D01*
X146492590Y-92524847D02*
X146511638Y-92505800D01*
X146549733Y-92486752D01*
X146644971Y-92486752D01*
X146683066Y-92505800D01*
X146702114Y-92524847D01*
X146721161Y-92562942D01*
X146721161Y-92601038D01*
X146702114Y-92658180D01*
X146473542Y-92886752D01*
X146721161Y-92886752D01*
X146854552Y-96690419D02*
X146854552Y-96918990D01*
X146854552Y-96804704D02*
X146454552Y-96804704D01*
X146511695Y-96842800D01*
X146549790Y-96880895D01*
X146568838Y-96918990D01*
X146854552Y-96518990D02*
X146454552Y-96518990D01*
X146702171Y-96480895D02*
X146854552Y-96366609D01*
X146587885Y-96366609D02*
X146740266Y-96518990D01*
X155535057Y-84301552D02*
X155306485Y-84301552D01*
X155420771Y-84301552D02*
X155420771Y-83901552D01*
X155382676Y-83958695D01*
X155344580Y-83996790D01*
X155306485Y-84015838D01*
X155782676Y-83901552D02*
X155820771Y-83901552D01*
X155858866Y-83920600D01*
X155877914Y-83939647D01*
X155896961Y-83977742D01*
X155916009Y-84053933D01*
X155916009Y-84149171D01*
X155896961Y-84225361D01*
X155877914Y-84263457D01*
X155858866Y-84282504D01*
X155820771Y-84301552D01*
X155782676Y-84301552D01*
X155744580Y-84282504D01*
X155725533Y-84263457D01*
X155706485Y-84225361D01*
X155687438Y-84149171D01*
X155687438Y-84053933D01*
X155706485Y-83977742D01*
X155725533Y-83939647D01*
X155744580Y-83920600D01*
X155782676Y-83901552D01*
X156087438Y-84034885D02*
X156087438Y-84301552D01*
X156087438Y-84072980D02*
X156106485Y-84053933D01*
X156144580Y-84034885D01*
X156201723Y-84034885D01*
X156239819Y-84053933D01*
X156258866Y-84092028D01*
X156258866Y-84301552D01*
M02*
