G04 #@! TF.GenerationSoftware,KiCad,Pcbnew,(2018-02-16 revision c95340fba)-makepkg*
G04 #@! TF.CreationDate,2018-03-22T22:09:09+01:00*
G04 #@! TF.ProjectId,LIN_USB_CONVERTER,4C494E5F5553425F434F4E5645525445,rev?*
G04 #@! TF.SameCoordinates,Original*
G04 #@! TF.FileFunction,Other,Fab,Top*
%FSLAX46Y46*%
G04 Gerber Fmt 4.6, Leading zero omitted, Abs format (unit mm)*
G04 Created by KiCad (PCBNEW (2018-02-16 revision c95340fba)-makepkg) date 03/22/18 22:09:09*
%MOMM*%
%LPD*%
G01*
G04 APERTURE LIST*
%ADD10C,0.100000*%
%ADD11C,0.150000*%
%ADD12C,0.090000*%
G04 APERTURE END LIST*
D10*
X147482000Y-89964000D02*
X146482000Y-88964000D01*
X150482000Y-89964000D02*
X147482000Y-89964000D01*
X150482000Y-85964000D02*
X150482000Y-89964000D01*
X146482000Y-85964000D02*
X150482000Y-85964000D01*
X146482000Y-88964000D02*
X146482000Y-85964000D01*
D11*
X152418000Y-85424000D02*
X152918000Y-85424000D01*
X152418000Y-86424000D02*
X152418000Y-85424000D01*
X152918000Y-86424000D02*
X152418000Y-86424000D01*
X152918000Y-85424000D02*
X152918000Y-86424000D01*
X149358000Y-92278000D02*
X149358000Y-92778000D01*
X148358000Y-92278000D02*
X149358000Y-92278000D01*
X148358000Y-92778000D02*
X148358000Y-92278000D01*
X149358000Y-92778000D02*
X148358000Y-92778000D01*
D10*
X154958000Y-97870000D02*
X155458000Y-97870000D01*
X154958000Y-98870000D02*
X154958000Y-97870000D01*
X155458000Y-98870000D02*
X154958000Y-98870000D01*
X155458000Y-97870000D02*
X155458000Y-98870000D01*
X155454000Y-85166000D02*
X155454000Y-85666000D01*
X154454000Y-85166000D02*
X155454000Y-85166000D01*
X154454000Y-85666000D02*
X154454000Y-85166000D01*
X155454000Y-85666000D02*
X154454000Y-85666000D01*
X152522000Y-109330000D02*
X152522000Y-107730000D01*
X152522000Y-107730000D02*
X153322000Y-107730000D01*
X153322000Y-107730000D02*
X153322000Y-109330000D01*
X153322000Y-109330000D02*
X152522000Y-109330000D01*
X148242000Y-107984000D02*
X148242000Y-109584000D01*
X148242000Y-109584000D02*
X147442000Y-109584000D01*
X147442000Y-109584000D02*
X147442000Y-107984000D01*
X147442000Y-107984000D02*
X148242000Y-107984000D01*
X152660000Y-92786000D02*
X152660000Y-93286000D01*
X151660000Y-92786000D02*
X152660000Y-92786000D01*
X151660000Y-93286000D02*
X151660000Y-92786000D01*
X152660000Y-93286000D02*
X151660000Y-93286000D01*
X153676000Y-91262000D02*
X153676000Y-91762000D01*
X152676000Y-91262000D02*
X153676000Y-91262000D01*
X152676000Y-91762000D02*
X152676000Y-91262000D01*
X153676000Y-91762000D02*
X152676000Y-91762000D01*
X155824000Y-104428000D02*
X156624000Y-104428000D01*
X155824000Y-106028000D02*
X155824000Y-104428000D01*
X156624000Y-106028000D02*
X155824000Y-106028000D01*
X156624000Y-104428000D02*
X156624000Y-106028000D01*
X145156000Y-104174000D02*
X145956000Y-104174000D01*
X145156000Y-105774000D02*
X145156000Y-104174000D01*
X145956000Y-105774000D02*
X145156000Y-105774000D01*
X145956000Y-104174000D02*
X145956000Y-105774000D01*
X146356000Y-92382000D02*
X146356000Y-93182000D01*
X144756000Y-92382000D02*
X146356000Y-92382000D01*
X144756000Y-93182000D02*
X144756000Y-92382000D01*
X146356000Y-93182000D02*
X144756000Y-93182000D01*
X140946000Y-95976000D02*
X140946000Y-95176000D01*
X142546000Y-95976000D02*
X140946000Y-95976000D01*
X142546000Y-95176000D02*
X142546000Y-95976000D01*
X140946000Y-95176000D02*
X142546000Y-95176000D01*
X154762000Y-87768000D02*
X154762000Y-90218000D01*
X155312000Y-87198000D02*
X156162000Y-87198000D01*
X154762000Y-87768000D02*
X155312000Y-87198000D01*
X156162000Y-87198000D02*
X156162000Y-90238000D01*
X154762000Y-90238000D02*
X156162000Y-90238000D01*
X142642000Y-105612000D02*
X142892000Y-105612000D01*
X142642000Y-105412000D02*
X142342000Y-105612000D01*
X142642000Y-105812000D02*
X142642000Y-105412000D01*
X142342000Y-105612000D02*
X142642000Y-105812000D01*
X142342000Y-105612000D02*
X142092000Y-105612000D01*
X142342000Y-105812000D02*
X142342000Y-105412000D01*
X141792000Y-106682000D02*
X141792000Y-103642000D01*
X143192000Y-103642000D02*
X141792000Y-103642000D01*
X143192000Y-106682000D02*
X141792000Y-106682000D01*
X143192000Y-106682000D02*
X143192000Y-103642000D01*
X146464000Y-99170000D02*
X145664000Y-99170000D01*
X146464000Y-97570000D02*
X146464000Y-99170000D01*
X145664000Y-97570000D02*
X146464000Y-97570000D01*
X145664000Y-99170000D02*
X145664000Y-97570000D01*
X144432000Y-99170000D02*
X143632000Y-99170000D01*
X144432000Y-97570000D02*
X144432000Y-99170000D01*
X143632000Y-97570000D02*
X144432000Y-97570000D01*
X143632000Y-99170000D02*
X143632000Y-97570000D01*
X142654000Y-99170000D02*
X141854000Y-99170000D01*
X142654000Y-97570000D02*
X142654000Y-99170000D01*
X141854000Y-97570000D02*
X142654000Y-97570000D01*
X141854000Y-99170000D02*
X141854000Y-97570000D01*
X147988000Y-99158000D02*
X147188000Y-99158000D01*
X147988000Y-97558000D02*
X147988000Y-99158000D01*
X147188000Y-97558000D02*
X147988000Y-97558000D01*
X147188000Y-99158000D02*
X147188000Y-97558000D01*
X153342000Y-105612000D02*
X153592000Y-105612000D01*
X153342000Y-105412000D02*
X153042000Y-105612000D01*
X153342000Y-105812000D02*
X153342000Y-105412000D01*
X153042000Y-105612000D02*
X153342000Y-105812000D01*
X153042000Y-105612000D02*
X152792000Y-105612000D01*
X153042000Y-105812000D02*
X153042000Y-105412000D01*
X152492000Y-106682000D02*
X152492000Y-103642000D01*
X153892000Y-103642000D02*
X152492000Y-103642000D01*
X153892000Y-106682000D02*
X152492000Y-106682000D01*
X153892000Y-106682000D02*
X153892000Y-103642000D01*
X149278000Y-105744000D02*
X149528000Y-105744000D01*
X149278000Y-105544000D02*
X148978000Y-105744000D01*
X149278000Y-105944000D02*
X149278000Y-105544000D01*
X148978000Y-105744000D02*
X149278000Y-105944000D01*
X148978000Y-105744000D02*
X148728000Y-105744000D01*
X148978000Y-105944000D02*
X148978000Y-105544000D01*
X148428000Y-106814000D02*
X148428000Y-103774000D01*
X149828000Y-103774000D02*
X148428000Y-103774000D01*
X149828000Y-106814000D02*
X148428000Y-106814000D01*
X149828000Y-106814000D02*
X149828000Y-103774000D01*
X156728000Y-97870000D02*
X156728000Y-98870000D01*
X156728000Y-98870000D02*
X156228000Y-98870000D01*
X156228000Y-98870000D02*
X156228000Y-97870000D01*
X156228000Y-97870000D02*
X156728000Y-97870000D01*
D12*
X152936504Y-90424323D02*
X152955552Y-90367180D01*
X152955552Y-90271942D01*
X152936504Y-90233847D01*
X152917457Y-90214800D01*
X152879361Y-90195752D01*
X152841266Y-90195752D01*
X152803171Y-90214800D01*
X152784123Y-90233847D01*
X152765076Y-90271942D01*
X152746028Y-90348133D01*
X152726980Y-90386228D01*
X152707933Y-90405276D01*
X152669838Y-90424323D01*
X152631742Y-90424323D01*
X152593647Y-90405276D01*
X152574600Y-90386228D01*
X152555552Y-90348133D01*
X152555552Y-90252895D01*
X152574600Y-90195752D01*
X152555552Y-90081466D02*
X152555552Y-89852895D01*
X152955552Y-89967180D02*
X152555552Y-89967180D01*
X152955552Y-89719561D02*
X152555552Y-89719561D01*
X152841266Y-89586228D01*
X152555552Y-89452895D01*
X152955552Y-89452895D01*
X152555552Y-89300514D02*
X152555552Y-89052895D01*
X152707933Y-89186228D01*
X152707933Y-89129085D01*
X152726980Y-89090990D01*
X152746028Y-89071942D01*
X152784123Y-89052895D01*
X152879361Y-89052895D01*
X152917457Y-89071942D01*
X152936504Y-89090990D01*
X152955552Y-89129085D01*
X152955552Y-89243371D01*
X152936504Y-89281466D01*
X152917457Y-89300514D01*
X152593647Y-88900514D02*
X152574600Y-88881466D01*
X152555552Y-88843371D01*
X152555552Y-88748133D01*
X152574600Y-88710038D01*
X152593647Y-88690990D01*
X152631742Y-88671942D01*
X152669838Y-88671942D01*
X152726980Y-88690990D01*
X152955552Y-88919561D01*
X152955552Y-88671942D01*
X152746028Y-88367180D02*
X152746028Y-88500514D01*
X152955552Y-88500514D02*
X152555552Y-88500514D01*
X152555552Y-88310038D01*
X152555552Y-88081466D02*
X152555552Y-88043371D01*
X152574600Y-88005276D01*
X152593647Y-87986228D01*
X152631742Y-87967180D01*
X152707933Y-87948133D01*
X152803171Y-87948133D01*
X152879361Y-87967180D01*
X152917457Y-87986228D01*
X152936504Y-88005276D01*
X152955552Y-88043371D01*
X152955552Y-88081466D01*
X152936504Y-88119561D01*
X152917457Y-88138609D01*
X152879361Y-88157657D01*
X152803171Y-88176704D01*
X152707933Y-88176704D01*
X152631742Y-88157657D01*
X152593647Y-88138609D01*
X152574600Y-88119561D01*
X152555552Y-88081466D01*
X152688885Y-87605276D02*
X152955552Y-87605276D01*
X152536504Y-87700514D02*
X152822219Y-87795752D01*
X152822219Y-87548133D01*
X152593647Y-87414800D02*
X152574600Y-87395752D01*
X152555552Y-87357657D01*
X152555552Y-87262419D01*
X152574600Y-87224323D01*
X152593647Y-87205276D01*
X152631742Y-87186228D01*
X152669838Y-87186228D01*
X152726980Y-87205276D01*
X152955552Y-87433847D01*
X152955552Y-87186228D01*
X152574600Y-86805276D02*
X152555552Y-86843371D01*
X152555552Y-86900514D01*
X152574600Y-86957657D01*
X152612695Y-86995752D01*
X152650790Y-87014800D01*
X152726980Y-87033847D01*
X152784123Y-87033847D01*
X152860314Y-87014800D01*
X152898409Y-86995752D01*
X152936504Y-86957657D01*
X152955552Y-86900514D01*
X152955552Y-86862419D01*
X152936504Y-86805276D01*
X152917457Y-86786228D01*
X152784123Y-86786228D01*
X152784123Y-86862419D01*
X152688885Y-86443371D02*
X152955552Y-86443371D01*
X152536504Y-86538609D02*
X152822219Y-86633847D01*
X152822219Y-86386228D01*
X152555552Y-86233847D02*
X152879361Y-86233847D01*
X152917457Y-86214800D01*
X152936504Y-86195752D01*
X152955552Y-86157657D01*
X152955552Y-86081466D01*
X152936504Y-86043371D01*
X152917457Y-86024323D01*
X152879361Y-86005276D01*
X152555552Y-86005276D01*
X152555552Y-85643371D02*
X152555552Y-85719561D01*
X152574600Y-85757657D01*
X152593647Y-85776704D01*
X152650790Y-85814800D01*
X152726980Y-85833847D01*
X152879361Y-85833847D01*
X152917457Y-85814800D01*
X152936504Y-85795752D01*
X152955552Y-85757657D01*
X152955552Y-85681466D01*
X152936504Y-85643371D01*
X152917457Y-85624323D01*
X152879361Y-85605276D01*
X152784123Y-85605276D01*
X152746028Y-85624323D01*
X152726980Y-85643371D01*
X152707933Y-85681466D01*
X152707933Y-85757657D01*
X152726980Y-85795752D01*
X152746028Y-85814800D01*
X152784123Y-85833847D01*
X153688952Y-98817619D02*
X153688952Y-99046190D01*
X153688952Y-98931904D02*
X153288952Y-98931904D01*
X153346095Y-98970000D01*
X153384190Y-99008095D01*
X153403238Y-99046190D01*
X153288952Y-98570000D02*
X153288952Y-98531904D01*
X153308000Y-98493809D01*
X153327047Y-98474761D01*
X153365142Y-98455714D01*
X153441333Y-98436666D01*
X153536571Y-98436666D01*
X153612761Y-98455714D01*
X153650857Y-98474761D01*
X153669904Y-98493809D01*
X153688952Y-98531904D01*
X153688952Y-98570000D01*
X153669904Y-98608095D01*
X153650857Y-98627142D01*
X153612761Y-98646190D01*
X153536571Y-98665238D01*
X153441333Y-98665238D01*
X153365142Y-98646190D01*
X153327047Y-98627142D01*
X153308000Y-98608095D01*
X153288952Y-98570000D01*
X153288952Y-98189047D02*
X153288952Y-98150952D01*
X153308000Y-98112857D01*
X153327047Y-98093809D01*
X153365142Y-98074761D01*
X153441333Y-98055714D01*
X153536571Y-98055714D01*
X153612761Y-98074761D01*
X153650857Y-98093809D01*
X153669904Y-98112857D01*
X153688952Y-98150952D01*
X153688952Y-98189047D01*
X153669904Y-98227142D01*
X153650857Y-98246190D01*
X153612761Y-98265238D01*
X153536571Y-98284285D01*
X153441333Y-98284285D01*
X153365142Y-98265238D01*
X153327047Y-98246190D01*
X153308000Y-98227142D01*
X153288952Y-98189047D01*
X153422285Y-97884285D02*
X153688952Y-97884285D01*
X153460380Y-97884285D02*
X153441333Y-97865238D01*
X153422285Y-97827142D01*
X153422285Y-97770000D01*
X153441333Y-97731904D01*
X153479428Y-97712857D01*
X153688952Y-97712857D01*
X154506380Y-83896952D02*
X154277809Y-83896952D01*
X154392095Y-83896952D02*
X154392095Y-83496952D01*
X154354000Y-83554095D01*
X154315904Y-83592190D01*
X154277809Y-83611238D01*
X154754000Y-83496952D02*
X154792095Y-83496952D01*
X154830190Y-83516000D01*
X154849238Y-83535047D01*
X154868285Y-83573142D01*
X154887333Y-83649333D01*
X154887333Y-83744571D01*
X154868285Y-83820761D01*
X154849238Y-83858857D01*
X154830190Y-83877904D01*
X154792095Y-83896952D01*
X154754000Y-83896952D01*
X154715904Y-83877904D01*
X154696857Y-83858857D01*
X154677809Y-83820761D01*
X154658761Y-83744571D01*
X154658761Y-83649333D01*
X154677809Y-83573142D01*
X154696857Y-83535047D01*
X154715904Y-83516000D01*
X154754000Y-83496952D01*
X155134952Y-83496952D02*
X155173047Y-83496952D01*
X155211142Y-83516000D01*
X155230190Y-83535047D01*
X155249238Y-83573142D01*
X155268285Y-83649333D01*
X155268285Y-83744571D01*
X155249238Y-83820761D01*
X155230190Y-83858857D01*
X155211142Y-83877904D01*
X155173047Y-83896952D01*
X155134952Y-83896952D01*
X155096857Y-83877904D01*
X155077809Y-83858857D01*
X155058761Y-83820761D01*
X155039714Y-83744571D01*
X155039714Y-83649333D01*
X155058761Y-83573142D01*
X155077809Y-83535047D01*
X155096857Y-83516000D01*
X155134952Y-83496952D01*
X155439714Y-83630285D02*
X155439714Y-83896952D01*
X155439714Y-83668380D02*
X155458761Y-83649333D01*
X155496857Y-83630285D01*
X155554000Y-83630285D01*
X155592095Y-83649333D01*
X155611142Y-83687428D01*
X155611142Y-83896952D01*
X154241047Y-109206190D02*
X154222000Y-109187142D01*
X154202952Y-109149047D01*
X154202952Y-109053809D01*
X154222000Y-109015714D01*
X154241047Y-108996666D01*
X154279142Y-108977619D01*
X154317238Y-108977619D01*
X154374380Y-108996666D01*
X154602952Y-109225238D01*
X154602952Y-108977619D01*
X154241047Y-108825238D02*
X154222000Y-108806190D01*
X154202952Y-108768095D01*
X154202952Y-108672857D01*
X154222000Y-108634761D01*
X154241047Y-108615714D01*
X154279142Y-108596666D01*
X154317238Y-108596666D01*
X154374380Y-108615714D01*
X154602952Y-108844285D01*
X154602952Y-108596666D01*
X154202952Y-108349047D02*
X154202952Y-108310952D01*
X154222000Y-108272857D01*
X154241047Y-108253809D01*
X154279142Y-108234761D01*
X154355333Y-108215714D01*
X154450571Y-108215714D01*
X154526761Y-108234761D01*
X154564857Y-108253809D01*
X154583904Y-108272857D01*
X154602952Y-108310952D01*
X154602952Y-108349047D01*
X154583904Y-108387142D01*
X154564857Y-108406190D01*
X154526761Y-108425238D01*
X154450571Y-108444285D01*
X154355333Y-108444285D01*
X154279142Y-108425238D01*
X154241047Y-108406190D01*
X154222000Y-108387142D01*
X154202952Y-108349047D01*
X154336285Y-108044285D02*
X154736285Y-108044285D01*
X154355333Y-108044285D02*
X154336285Y-108006190D01*
X154336285Y-107930000D01*
X154355333Y-107891904D01*
X154374380Y-107872857D01*
X154412476Y-107853809D01*
X154526761Y-107853809D01*
X154564857Y-107872857D01*
X154583904Y-107891904D01*
X154602952Y-107930000D01*
X154602952Y-108006190D01*
X154583904Y-108044285D01*
X146522952Y-108850666D02*
X146522952Y-109079238D01*
X146522952Y-108964952D02*
X146122952Y-108964952D01*
X146180095Y-109003047D01*
X146218190Y-109041142D01*
X146237238Y-109079238D01*
X146256285Y-108507809D02*
X146522952Y-108507809D01*
X146256285Y-108679238D02*
X146465809Y-108679238D01*
X146503904Y-108660190D01*
X146522952Y-108622095D01*
X146522952Y-108564952D01*
X146503904Y-108526857D01*
X146484857Y-108507809D01*
X151712380Y-91946952D02*
X151483809Y-91946952D01*
X151598095Y-91946952D02*
X151598095Y-91546952D01*
X151560000Y-91604095D01*
X151521904Y-91642190D01*
X151483809Y-91661238D01*
X151960000Y-91546952D02*
X151998095Y-91546952D01*
X152036190Y-91566000D01*
X152055238Y-91585047D01*
X152074285Y-91623142D01*
X152093333Y-91699333D01*
X152093333Y-91794571D01*
X152074285Y-91870761D01*
X152055238Y-91908857D01*
X152036190Y-91927904D01*
X151998095Y-91946952D01*
X151960000Y-91946952D01*
X151921904Y-91927904D01*
X151902857Y-91908857D01*
X151883809Y-91870761D01*
X151864761Y-91794571D01*
X151864761Y-91699333D01*
X151883809Y-91623142D01*
X151902857Y-91585047D01*
X151921904Y-91566000D01*
X151960000Y-91546952D01*
X152340952Y-91546952D02*
X152379047Y-91546952D01*
X152417142Y-91566000D01*
X152436190Y-91585047D01*
X152455238Y-91623142D01*
X152474285Y-91699333D01*
X152474285Y-91794571D01*
X152455238Y-91870761D01*
X152436190Y-91908857D01*
X152417142Y-91927904D01*
X152379047Y-91946952D01*
X152340952Y-91946952D01*
X152302857Y-91927904D01*
X152283809Y-91908857D01*
X152264761Y-91870761D01*
X152245714Y-91794571D01*
X152245714Y-91699333D01*
X152264761Y-91623142D01*
X152283809Y-91585047D01*
X152302857Y-91566000D01*
X152340952Y-91546952D01*
X152645714Y-91680285D02*
X152645714Y-91946952D01*
X152645714Y-91718380D02*
X152664761Y-91699333D01*
X152702857Y-91680285D01*
X152760000Y-91680285D01*
X152798095Y-91699333D01*
X152817142Y-91737428D01*
X152817142Y-91946952D01*
X152728380Y-90422952D02*
X152499809Y-90422952D01*
X152614095Y-90422952D02*
X152614095Y-90022952D01*
X152576000Y-90080095D01*
X152537904Y-90118190D01*
X152499809Y-90137238D01*
X152976000Y-90022952D02*
X153014095Y-90022952D01*
X153052190Y-90042000D01*
X153071238Y-90061047D01*
X153090285Y-90099142D01*
X153109333Y-90175333D01*
X153109333Y-90270571D01*
X153090285Y-90346761D01*
X153071238Y-90384857D01*
X153052190Y-90403904D01*
X153014095Y-90422952D01*
X152976000Y-90422952D01*
X152937904Y-90403904D01*
X152918857Y-90384857D01*
X152899809Y-90346761D01*
X152880761Y-90270571D01*
X152880761Y-90175333D01*
X152899809Y-90099142D01*
X152918857Y-90061047D01*
X152937904Y-90042000D01*
X152976000Y-90022952D01*
X153356952Y-90022952D02*
X153395047Y-90022952D01*
X153433142Y-90042000D01*
X153452190Y-90061047D01*
X153471238Y-90099142D01*
X153490285Y-90175333D01*
X153490285Y-90270571D01*
X153471238Y-90346761D01*
X153452190Y-90384857D01*
X153433142Y-90403904D01*
X153395047Y-90422952D01*
X153356952Y-90422952D01*
X153318857Y-90403904D01*
X153299809Y-90384857D01*
X153280761Y-90346761D01*
X153261714Y-90270571D01*
X153261714Y-90175333D01*
X153280761Y-90099142D01*
X153299809Y-90061047D01*
X153318857Y-90042000D01*
X153356952Y-90022952D01*
X153661714Y-90156285D02*
X153661714Y-90422952D01*
X153661714Y-90194380D02*
X153680761Y-90175333D01*
X153718857Y-90156285D01*
X153776000Y-90156285D01*
X153814095Y-90175333D01*
X153833142Y-90213428D01*
X153833142Y-90422952D01*
X153970000Y-94836190D02*
X153950952Y-94874285D01*
X153950952Y-94931428D01*
X153970000Y-94988571D01*
X154008095Y-95026666D01*
X154046190Y-95045714D01*
X154122380Y-95064761D01*
X154179523Y-95064761D01*
X154255714Y-95045714D01*
X154293809Y-95026666D01*
X154331904Y-94988571D01*
X154350952Y-94931428D01*
X154350952Y-94893333D01*
X154331904Y-94836190D01*
X154312857Y-94817142D01*
X154179523Y-94817142D01*
X154179523Y-94893333D01*
X154331904Y-94664761D02*
X154350952Y-94607619D01*
X154350952Y-94512380D01*
X154331904Y-94474285D01*
X154312857Y-94455238D01*
X154274761Y-94436190D01*
X154236666Y-94436190D01*
X154198571Y-94455238D01*
X154179523Y-94474285D01*
X154160476Y-94512380D01*
X154141428Y-94588571D01*
X154122380Y-94626666D01*
X154103333Y-94645714D01*
X154065238Y-94664761D01*
X154027142Y-94664761D01*
X153989047Y-94645714D01*
X153970000Y-94626666D01*
X153950952Y-94588571D01*
X153950952Y-94493333D01*
X153970000Y-94436190D01*
X153989047Y-94283809D02*
X153970000Y-94264761D01*
X153950952Y-94226666D01*
X153950952Y-94131428D01*
X153970000Y-94093333D01*
X153989047Y-94074285D01*
X154027142Y-94055238D01*
X154065238Y-94055238D01*
X154122380Y-94074285D01*
X154350952Y-94302857D01*
X154350952Y-94055238D01*
X154904952Y-105275619D02*
X154904952Y-105504190D01*
X154904952Y-105389904D02*
X154504952Y-105389904D01*
X154562095Y-105428000D01*
X154600190Y-105466095D01*
X154619238Y-105504190D01*
X154904952Y-105104190D02*
X154504952Y-105104190D01*
X154752571Y-105066095D02*
X154904952Y-104951809D01*
X154638285Y-104951809D02*
X154790666Y-105104190D01*
X143836952Y-105069238D02*
X143836952Y-105259714D01*
X144027428Y-105278761D01*
X144008380Y-105259714D01*
X143989333Y-105221619D01*
X143989333Y-105126380D01*
X144008380Y-105088285D01*
X144027428Y-105069238D01*
X144065523Y-105050190D01*
X144160761Y-105050190D01*
X144198857Y-105069238D01*
X144217904Y-105088285D01*
X144236952Y-105126380D01*
X144236952Y-105221619D01*
X144217904Y-105259714D01*
X144198857Y-105278761D01*
X143836952Y-104802571D02*
X143836952Y-104764476D01*
X143856000Y-104726380D01*
X143875047Y-104707333D01*
X143913142Y-104688285D01*
X143989333Y-104669238D01*
X144084571Y-104669238D01*
X144160761Y-104688285D01*
X144198857Y-104707333D01*
X144217904Y-104726380D01*
X144236952Y-104764476D01*
X144236952Y-104802571D01*
X144217904Y-104840666D01*
X144198857Y-104859714D01*
X144160761Y-104878761D01*
X144084571Y-104897809D01*
X143989333Y-104897809D01*
X143913142Y-104878761D01*
X143875047Y-104859714D01*
X143856000Y-104840666D01*
X143836952Y-104802571D01*
X145317904Y-91462952D02*
X145089333Y-91462952D01*
X145203619Y-91462952D02*
X145203619Y-91062952D01*
X145165523Y-91120095D01*
X145127428Y-91158190D01*
X145089333Y-91177238D01*
X145565523Y-91062952D02*
X145603619Y-91062952D01*
X145641714Y-91082000D01*
X145660761Y-91101047D01*
X145679809Y-91139142D01*
X145698857Y-91215333D01*
X145698857Y-91310571D01*
X145679809Y-91386761D01*
X145660761Y-91424857D01*
X145641714Y-91443904D01*
X145603619Y-91462952D01*
X145565523Y-91462952D01*
X145527428Y-91443904D01*
X145508380Y-91424857D01*
X145489333Y-91386761D01*
X145470285Y-91310571D01*
X145470285Y-91215333D01*
X145489333Y-91139142D01*
X145508380Y-91101047D01*
X145527428Y-91082000D01*
X145565523Y-91062952D01*
X145870285Y-91462952D02*
X145870285Y-91062952D01*
X145908380Y-91310571D02*
X146022666Y-91462952D01*
X146022666Y-91196285D02*
X145870285Y-91348666D01*
X141507904Y-97256952D02*
X141279333Y-97256952D01*
X141393619Y-97256952D02*
X141393619Y-96856952D01*
X141355523Y-96914095D01*
X141317428Y-96952190D01*
X141279333Y-96971238D01*
X141755523Y-96856952D02*
X141793619Y-96856952D01*
X141831714Y-96876000D01*
X141850761Y-96895047D01*
X141869809Y-96933142D01*
X141888857Y-97009333D01*
X141888857Y-97104571D01*
X141869809Y-97180761D01*
X141850761Y-97218857D01*
X141831714Y-97237904D01*
X141793619Y-97256952D01*
X141755523Y-97256952D01*
X141717428Y-97237904D01*
X141698380Y-97218857D01*
X141679333Y-97180761D01*
X141660285Y-97104571D01*
X141660285Y-97009333D01*
X141679333Y-96933142D01*
X141698380Y-96895047D01*
X141717428Y-96876000D01*
X141755523Y-96856952D01*
X142060285Y-97256952D02*
X142060285Y-96856952D01*
X142098380Y-97104571D02*
X142212666Y-97256952D01*
X142212666Y-96990285D02*
X142060285Y-97142666D01*
X152309619Y-91398952D02*
X152309619Y-90998952D01*
X152442952Y-91284666D01*
X152576285Y-90998952D01*
X152576285Y-91398952D01*
X152995333Y-91360857D02*
X152976285Y-91379904D01*
X152919142Y-91398952D01*
X152881047Y-91398952D01*
X152823904Y-91379904D01*
X152785809Y-91341809D01*
X152766761Y-91303714D01*
X152747714Y-91227523D01*
X152747714Y-91170380D01*
X152766761Y-91094190D01*
X152785809Y-91056095D01*
X152823904Y-91018000D01*
X152881047Y-90998952D01*
X152919142Y-90998952D01*
X152976285Y-91018000D01*
X152995333Y-91037047D01*
X153166761Y-91398952D02*
X153166761Y-90998952D01*
X153319142Y-90998952D01*
X153357238Y-91018000D01*
X153376285Y-91037047D01*
X153395333Y-91075142D01*
X153395333Y-91132285D01*
X153376285Y-91170380D01*
X153357238Y-91189428D01*
X153319142Y-91208476D01*
X153166761Y-91208476D01*
X153776285Y-91398952D02*
X153547714Y-91398952D01*
X153662000Y-91398952D02*
X153662000Y-90998952D01*
X153623904Y-91056095D01*
X153585809Y-91094190D01*
X153547714Y-91113238D01*
X153909619Y-90998952D02*
X154176285Y-90998952D01*
X154004857Y-91398952D01*
X154404857Y-90998952D02*
X154442952Y-90998952D01*
X154481047Y-91018000D01*
X154500095Y-91037047D01*
X154519142Y-91075142D01*
X154538190Y-91151333D01*
X154538190Y-91246571D01*
X154519142Y-91322761D01*
X154500095Y-91360857D01*
X154481047Y-91379904D01*
X154442952Y-91398952D01*
X154404857Y-91398952D01*
X154366761Y-91379904D01*
X154347714Y-91360857D01*
X154328666Y-91322761D01*
X154309619Y-91246571D01*
X154309619Y-91151333D01*
X154328666Y-91075142D01*
X154347714Y-91037047D01*
X154366761Y-91018000D01*
X154404857Y-90998952D01*
X154785809Y-90998952D02*
X154823904Y-90998952D01*
X154862000Y-91018000D01*
X154881047Y-91037047D01*
X154900095Y-91075142D01*
X154919142Y-91151333D01*
X154919142Y-91246571D01*
X154900095Y-91322761D01*
X154881047Y-91360857D01*
X154862000Y-91379904D01*
X154823904Y-91398952D01*
X154785809Y-91398952D01*
X154747714Y-91379904D01*
X154728666Y-91360857D01*
X154709619Y-91322761D01*
X154690571Y-91246571D01*
X154690571Y-91151333D01*
X154709619Y-91075142D01*
X154728666Y-91037047D01*
X154747714Y-91018000D01*
X154785809Y-90998952D01*
X155033428Y-90998952D02*
X155262000Y-90998952D01*
X155147714Y-91398952D02*
X155147714Y-90998952D01*
X155395333Y-91246571D02*
X155700095Y-91246571D01*
X155852476Y-90998952D02*
X156100095Y-90998952D01*
X155966761Y-91151333D01*
X156023904Y-91151333D01*
X156062000Y-91170380D01*
X156081047Y-91189428D01*
X156100095Y-91227523D01*
X156100095Y-91322761D01*
X156081047Y-91360857D01*
X156062000Y-91379904D01*
X156023904Y-91398952D01*
X155909619Y-91398952D01*
X155871523Y-91379904D01*
X155852476Y-91360857D01*
X156233428Y-90998952D02*
X156481047Y-90998952D01*
X156347714Y-91151333D01*
X156404857Y-91151333D01*
X156442952Y-91170380D01*
X156462000Y-91189428D01*
X156481047Y-91227523D01*
X156481047Y-91322761D01*
X156462000Y-91360857D01*
X156442952Y-91379904D01*
X156404857Y-91398952D01*
X156290571Y-91398952D01*
X156252476Y-91379904D01*
X156233428Y-91360857D01*
X156728666Y-90998952D02*
X156766761Y-90998952D01*
X156804857Y-91018000D01*
X156823904Y-91037047D01*
X156842952Y-91075142D01*
X156862000Y-91151333D01*
X156862000Y-91246571D01*
X156842952Y-91322761D01*
X156823904Y-91360857D01*
X156804857Y-91379904D01*
X156766761Y-91398952D01*
X156728666Y-91398952D01*
X156690571Y-91379904D01*
X156671523Y-91360857D01*
X156652476Y-91322761D01*
X156633428Y-91246571D01*
X156633428Y-91151333D01*
X156652476Y-91075142D01*
X156671523Y-91037047D01*
X156690571Y-91018000D01*
X156728666Y-90998952D01*
X157014380Y-91037047D02*
X157033428Y-91018000D01*
X157071523Y-90998952D01*
X157166761Y-90998952D01*
X157204857Y-91018000D01*
X157223904Y-91037047D01*
X157242952Y-91075142D01*
X157242952Y-91113238D01*
X157223904Y-91170380D01*
X156995333Y-91398952D01*
X157242952Y-91398952D01*
X157414380Y-91189428D02*
X157547714Y-91189428D01*
X157604857Y-91398952D02*
X157414380Y-91398952D01*
X157414380Y-90998952D01*
X157604857Y-90998952D01*
X158062000Y-90979904D02*
X157719142Y-91494190D01*
X158138190Y-90998952D02*
X158366761Y-90998952D01*
X158252476Y-91398952D02*
X158252476Y-90998952D01*
X158442952Y-90998952D02*
X158671523Y-90998952D01*
X158557238Y-91398952D02*
X158557238Y-90998952D01*
X139320571Y-102823904D02*
X139377714Y-102842952D01*
X139472952Y-102842952D01*
X139511047Y-102823904D01*
X139530095Y-102804857D01*
X139549142Y-102766761D01*
X139549142Y-102728666D01*
X139530095Y-102690571D01*
X139511047Y-102671523D01*
X139472952Y-102652476D01*
X139396761Y-102633428D01*
X139358666Y-102614380D01*
X139339619Y-102595333D01*
X139320571Y-102557238D01*
X139320571Y-102519142D01*
X139339619Y-102481047D01*
X139358666Y-102462000D01*
X139396761Y-102442952D01*
X139492000Y-102442952D01*
X139549142Y-102462000D01*
X139720571Y-102842952D02*
X139720571Y-102442952D01*
X139853904Y-102728666D01*
X139987238Y-102442952D01*
X139987238Y-102842952D01*
X140311047Y-102633428D02*
X140368190Y-102652476D01*
X140387238Y-102671523D01*
X140406285Y-102709619D01*
X140406285Y-102766761D01*
X140387238Y-102804857D01*
X140368190Y-102823904D01*
X140330095Y-102842952D01*
X140177714Y-102842952D01*
X140177714Y-102442952D01*
X140311047Y-102442952D01*
X140349142Y-102462000D01*
X140368190Y-102481047D01*
X140387238Y-102519142D01*
X140387238Y-102557238D01*
X140368190Y-102595333D01*
X140349142Y-102614380D01*
X140311047Y-102633428D01*
X140177714Y-102633428D01*
X140577714Y-102842952D02*
X140577714Y-102442952D01*
X140672952Y-102442952D01*
X140730095Y-102462000D01*
X140768190Y-102500095D01*
X140787238Y-102538190D01*
X140806285Y-102614380D01*
X140806285Y-102671523D01*
X140787238Y-102747714D01*
X140768190Y-102785809D01*
X140730095Y-102823904D01*
X140672952Y-102842952D01*
X140577714Y-102842952D01*
X140996761Y-102842952D02*
X141072952Y-102842952D01*
X141111047Y-102823904D01*
X141130095Y-102804857D01*
X141168190Y-102747714D01*
X141187238Y-102671523D01*
X141187238Y-102519142D01*
X141168190Y-102481047D01*
X141149142Y-102462000D01*
X141111047Y-102442952D01*
X141034857Y-102442952D01*
X140996761Y-102462000D01*
X140977714Y-102481047D01*
X140958666Y-102519142D01*
X140958666Y-102614380D01*
X140977714Y-102652476D01*
X140996761Y-102671523D01*
X141034857Y-102690571D01*
X141111047Y-102690571D01*
X141149142Y-102671523D01*
X141168190Y-102652476D01*
X141187238Y-102614380D01*
X141568190Y-102842952D02*
X141339619Y-102842952D01*
X141453904Y-102842952D02*
X141453904Y-102442952D01*
X141415809Y-102500095D01*
X141377714Y-102538190D01*
X141339619Y-102557238D01*
X141911047Y-102576285D02*
X141911047Y-102842952D01*
X141815809Y-102423904D02*
X141720571Y-102709619D01*
X141968190Y-102709619D01*
X142120571Y-102633428D02*
X142253904Y-102633428D01*
X142311047Y-102842952D02*
X142120571Y-102842952D01*
X142120571Y-102442952D01*
X142311047Y-102442952D01*
X142653904Y-102442952D02*
X142577714Y-102442952D01*
X142539619Y-102462000D01*
X142520571Y-102481047D01*
X142482476Y-102538190D01*
X142463428Y-102614380D01*
X142463428Y-102766761D01*
X142482476Y-102804857D01*
X142501523Y-102823904D01*
X142539619Y-102842952D01*
X142615809Y-102842952D01*
X142653904Y-102823904D01*
X142672952Y-102804857D01*
X142692000Y-102766761D01*
X142692000Y-102671523D01*
X142672952Y-102633428D01*
X142653904Y-102614380D01*
X142615809Y-102595333D01*
X142539619Y-102595333D01*
X142501523Y-102614380D01*
X142482476Y-102633428D01*
X142463428Y-102671523D01*
X142825333Y-102442952D02*
X143072952Y-102442952D01*
X142939619Y-102595333D01*
X142996761Y-102595333D01*
X143034857Y-102614380D01*
X143053904Y-102633428D01*
X143072952Y-102671523D01*
X143072952Y-102766761D01*
X143053904Y-102804857D01*
X143034857Y-102823904D01*
X142996761Y-102842952D01*
X142882476Y-102842952D01*
X142844380Y-102823904D01*
X142825333Y-102804857D01*
X143225333Y-102481047D02*
X143244380Y-102462000D01*
X143282476Y-102442952D01*
X143377714Y-102442952D01*
X143415809Y-102462000D01*
X143434857Y-102481047D01*
X143453904Y-102519142D01*
X143453904Y-102557238D01*
X143434857Y-102614380D01*
X143206285Y-102842952D01*
X143453904Y-102842952D01*
X143587238Y-102442952D02*
X143853904Y-102442952D01*
X143682476Y-102842952D01*
X144006285Y-102842952D02*
X144006285Y-102442952D01*
X144006285Y-102633428D02*
X144234857Y-102633428D01*
X144234857Y-102842952D02*
X144234857Y-102442952D01*
X144368190Y-102442952D02*
X144596761Y-102442952D01*
X144482476Y-102842952D02*
X144482476Y-102442952D01*
X144711047Y-102823904D02*
X144768190Y-102842952D01*
X144863428Y-102842952D01*
X144901523Y-102823904D01*
X144920571Y-102804857D01*
X144939619Y-102766761D01*
X144939619Y-102728666D01*
X144920571Y-102690571D01*
X144901523Y-102671523D01*
X144863428Y-102652476D01*
X144787238Y-102633428D01*
X144749142Y-102614380D01*
X144730095Y-102595333D01*
X144711047Y-102557238D01*
X144711047Y-102519142D01*
X144730095Y-102481047D01*
X144749142Y-102462000D01*
X144787238Y-102442952D01*
X144882476Y-102442952D01*
X144939619Y-102462000D01*
X145092000Y-102728666D02*
X145282476Y-102728666D01*
X145053904Y-102842952D02*
X145187238Y-102442952D01*
X145320571Y-102842952D01*
X145663428Y-102842952D02*
X145434857Y-102842952D01*
X145549142Y-102842952D02*
X145549142Y-102442952D01*
X145511047Y-102500095D01*
X145472952Y-102538190D01*
X145434857Y-102557238D01*
X147344952Y-98389047D02*
X147344952Y-98350952D01*
X147364000Y-98312857D01*
X147383047Y-98293809D01*
X147421142Y-98274761D01*
X147497333Y-98255714D01*
X147592571Y-98255714D01*
X147668761Y-98274761D01*
X147706857Y-98293809D01*
X147725904Y-98312857D01*
X147744952Y-98350952D01*
X147744952Y-98389047D01*
X147725904Y-98427142D01*
X147706857Y-98446190D01*
X147668761Y-98465238D01*
X147592571Y-98484285D01*
X147497333Y-98484285D01*
X147421142Y-98465238D01*
X147383047Y-98446190D01*
X147364000Y-98427142D01*
X147344952Y-98389047D01*
X145312952Y-98389047D02*
X145312952Y-98350952D01*
X145332000Y-98312857D01*
X145351047Y-98293809D01*
X145389142Y-98274761D01*
X145465333Y-98255714D01*
X145560571Y-98255714D01*
X145636761Y-98274761D01*
X145674857Y-98293809D01*
X145693904Y-98312857D01*
X145712952Y-98350952D01*
X145712952Y-98389047D01*
X145693904Y-98427142D01*
X145674857Y-98446190D01*
X145636761Y-98465238D01*
X145560571Y-98484285D01*
X145465333Y-98484285D01*
X145389142Y-98465238D01*
X145351047Y-98446190D01*
X145332000Y-98427142D01*
X145312952Y-98389047D01*
X143534952Y-98389047D02*
X143534952Y-98350952D01*
X143554000Y-98312857D01*
X143573047Y-98293809D01*
X143611142Y-98274761D01*
X143687333Y-98255714D01*
X143782571Y-98255714D01*
X143858761Y-98274761D01*
X143896857Y-98293809D01*
X143915904Y-98312857D01*
X143934952Y-98350952D01*
X143934952Y-98389047D01*
X143915904Y-98427142D01*
X143896857Y-98446190D01*
X143858761Y-98465238D01*
X143782571Y-98484285D01*
X143687333Y-98484285D01*
X143611142Y-98465238D01*
X143573047Y-98446190D01*
X143554000Y-98427142D01*
X143534952Y-98389047D01*
X148868952Y-98377047D02*
X148868952Y-98338952D01*
X148888000Y-98300857D01*
X148907047Y-98281809D01*
X148945142Y-98262761D01*
X149021333Y-98243714D01*
X149116571Y-98243714D01*
X149192761Y-98262761D01*
X149230857Y-98281809D01*
X149249904Y-98300857D01*
X149268952Y-98338952D01*
X149268952Y-98377047D01*
X149249904Y-98415142D01*
X149230857Y-98434190D01*
X149192761Y-98453238D01*
X149116571Y-98472285D01*
X149021333Y-98472285D01*
X148945142Y-98453238D01*
X148907047Y-98434190D01*
X148888000Y-98415142D01*
X148868952Y-98377047D01*
X150020571Y-102823904D02*
X150077714Y-102842952D01*
X150172952Y-102842952D01*
X150211047Y-102823904D01*
X150230095Y-102804857D01*
X150249142Y-102766761D01*
X150249142Y-102728666D01*
X150230095Y-102690571D01*
X150211047Y-102671523D01*
X150172952Y-102652476D01*
X150096761Y-102633428D01*
X150058666Y-102614380D01*
X150039619Y-102595333D01*
X150020571Y-102557238D01*
X150020571Y-102519142D01*
X150039619Y-102481047D01*
X150058666Y-102462000D01*
X150096761Y-102442952D01*
X150192000Y-102442952D01*
X150249142Y-102462000D01*
X150420571Y-102842952D02*
X150420571Y-102442952D01*
X150553904Y-102728666D01*
X150687238Y-102442952D01*
X150687238Y-102842952D01*
X151011047Y-102633428D02*
X151068190Y-102652476D01*
X151087238Y-102671523D01*
X151106285Y-102709619D01*
X151106285Y-102766761D01*
X151087238Y-102804857D01*
X151068190Y-102823904D01*
X151030095Y-102842952D01*
X150877714Y-102842952D01*
X150877714Y-102442952D01*
X151011047Y-102442952D01*
X151049142Y-102462000D01*
X151068190Y-102481047D01*
X151087238Y-102519142D01*
X151087238Y-102557238D01*
X151068190Y-102595333D01*
X151049142Y-102614380D01*
X151011047Y-102633428D01*
X150877714Y-102633428D01*
X151277714Y-102842952D02*
X151277714Y-102442952D01*
X151372952Y-102442952D01*
X151430095Y-102462000D01*
X151468190Y-102500095D01*
X151487238Y-102538190D01*
X151506285Y-102614380D01*
X151506285Y-102671523D01*
X151487238Y-102747714D01*
X151468190Y-102785809D01*
X151430095Y-102823904D01*
X151372952Y-102842952D01*
X151277714Y-102842952D01*
X151696761Y-102842952D02*
X151772952Y-102842952D01*
X151811047Y-102823904D01*
X151830095Y-102804857D01*
X151868190Y-102747714D01*
X151887238Y-102671523D01*
X151887238Y-102519142D01*
X151868190Y-102481047D01*
X151849142Y-102462000D01*
X151811047Y-102442952D01*
X151734857Y-102442952D01*
X151696761Y-102462000D01*
X151677714Y-102481047D01*
X151658666Y-102519142D01*
X151658666Y-102614380D01*
X151677714Y-102652476D01*
X151696761Y-102671523D01*
X151734857Y-102690571D01*
X151811047Y-102690571D01*
X151849142Y-102671523D01*
X151868190Y-102652476D01*
X151887238Y-102614380D01*
X152268190Y-102842952D02*
X152039619Y-102842952D01*
X152153904Y-102842952D02*
X152153904Y-102442952D01*
X152115809Y-102500095D01*
X152077714Y-102538190D01*
X152039619Y-102557238D01*
X152611047Y-102576285D02*
X152611047Y-102842952D01*
X152515809Y-102423904D02*
X152420571Y-102709619D01*
X152668190Y-102709619D01*
X152820571Y-102633428D02*
X152953904Y-102633428D01*
X153011047Y-102842952D02*
X152820571Y-102842952D01*
X152820571Y-102442952D01*
X153011047Y-102442952D01*
X153353904Y-102442952D02*
X153277714Y-102442952D01*
X153239619Y-102462000D01*
X153220571Y-102481047D01*
X153182476Y-102538190D01*
X153163428Y-102614380D01*
X153163428Y-102766761D01*
X153182476Y-102804857D01*
X153201523Y-102823904D01*
X153239619Y-102842952D01*
X153315809Y-102842952D01*
X153353904Y-102823904D01*
X153372952Y-102804857D01*
X153392000Y-102766761D01*
X153392000Y-102671523D01*
X153372952Y-102633428D01*
X153353904Y-102614380D01*
X153315809Y-102595333D01*
X153239619Y-102595333D01*
X153201523Y-102614380D01*
X153182476Y-102633428D01*
X153163428Y-102671523D01*
X153525333Y-102442952D02*
X153772952Y-102442952D01*
X153639619Y-102595333D01*
X153696761Y-102595333D01*
X153734857Y-102614380D01*
X153753904Y-102633428D01*
X153772952Y-102671523D01*
X153772952Y-102766761D01*
X153753904Y-102804857D01*
X153734857Y-102823904D01*
X153696761Y-102842952D01*
X153582476Y-102842952D01*
X153544380Y-102823904D01*
X153525333Y-102804857D01*
X153925333Y-102481047D02*
X153944380Y-102462000D01*
X153982476Y-102442952D01*
X154077714Y-102442952D01*
X154115809Y-102462000D01*
X154134857Y-102481047D01*
X154153904Y-102519142D01*
X154153904Y-102557238D01*
X154134857Y-102614380D01*
X153906285Y-102842952D01*
X154153904Y-102842952D01*
X154287238Y-102442952D02*
X154553904Y-102442952D01*
X154382476Y-102842952D01*
X154706285Y-102842952D02*
X154706285Y-102442952D01*
X154706285Y-102633428D02*
X154934857Y-102633428D01*
X154934857Y-102842952D02*
X154934857Y-102442952D01*
X155068190Y-102442952D02*
X155296761Y-102442952D01*
X155182476Y-102842952D02*
X155182476Y-102442952D01*
X155411047Y-102823904D02*
X155468190Y-102842952D01*
X155563428Y-102842952D01*
X155601523Y-102823904D01*
X155620571Y-102804857D01*
X155639619Y-102766761D01*
X155639619Y-102728666D01*
X155620571Y-102690571D01*
X155601523Y-102671523D01*
X155563428Y-102652476D01*
X155487238Y-102633428D01*
X155449142Y-102614380D01*
X155430095Y-102595333D01*
X155411047Y-102557238D01*
X155411047Y-102519142D01*
X155430095Y-102481047D01*
X155449142Y-102462000D01*
X155487238Y-102442952D01*
X155582476Y-102442952D01*
X155639619Y-102462000D01*
X155792000Y-102728666D02*
X155982476Y-102728666D01*
X155753904Y-102842952D02*
X155887238Y-102442952D01*
X156020571Y-102842952D01*
X156363428Y-102842952D02*
X156134857Y-102842952D01*
X156249142Y-102842952D02*
X156249142Y-102442952D01*
X156211047Y-102500095D01*
X156172952Y-102538190D01*
X156134857Y-102557238D01*
X146975619Y-102974952D02*
X146747047Y-102974952D01*
X146861333Y-102974952D02*
X146861333Y-102574952D01*
X146823238Y-102632095D01*
X146785142Y-102670190D01*
X146747047Y-102689238D01*
X147147047Y-102974952D02*
X147147047Y-102574952D01*
X147375619Y-102974952D01*
X147375619Y-102574952D01*
X147756571Y-102574952D02*
X147566095Y-102574952D01*
X147547047Y-102765428D01*
X147566095Y-102746380D01*
X147604190Y-102727333D01*
X147699428Y-102727333D01*
X147737523Y-102746380D01*
X147756571Y-102765428D01*
X147775619Y-102803523D01*
X147775619Y-102898761D01*
X147756571Y-102936857D01*
X147737523Y-102955904D01*
X147699428Y-102974952D01*
X147604190Y-102974952D01*
X147566095Y-102955904D01*
X147547047Y-102936857D01*
X148004190Y-102746380D02*
X147966095Y-102727333D01*
X147947047Y-102708285D01*
X147928000Y-102670190D01*
X147928000Y-102651142D01*
X147947047Y-102613047D01*
X147966095Y-102594000D01*
X148004190Y-102574952D01*
X148080380Y-102574952D01*
X148118476Y-102594000D01*
X148137523Y-102613047D01*
X148156571Y-102651142D01*
X148156571Y-102670190D01*
X148137523Y-102708285D01*
X148118476Y-102727333D01*
X148080380Y-102746380D01*
X148004190Y-102746380D01*
X147966095Y-102765428D01*
X147947047Y-102784476D01*
X147928000Y-102822571D01*
X147928000Y-102898761D01*
X147947047Y-102936857D01*
X147966095Y-102955904D01*
X148004190Y-102974952D01*
X148080380Y-102974952D01*
X148118476Y-102955904D01*
X148137523Y-102936857D01*
X148156571Y-102898761D01*
X148156571Y-102822571D01*
X148137523Y-102784476D01*
X148118476Y-102765428D01*
X148080380Y-102746380D01*
X148537523Y-102974952D02*
X148308952Y-102974952D01*
X148423238Y-102974952D02*
X148423238Y-102574952D01*
X148385142Y-102632095D01*
X148347047Y-102670190D01*
X148308952Y-102689238D01*
X148728000Y-102974952D02*
X148804190Y-102974952D01*
X148842285Y-102955904D01*
X148861333Y-102936857D01*
X148899428Y-102879714D01*
X148918476Y-102803523D01*
X148918476Y-102651142D01*
X148899428Y-102613047D01*
X148880380Y-102594000D01*
X148842285Y-102574952D01*
X148766095Y-102574952D01*
X148728000Y-102594000D01*
X148708952Y-102613047D01*
X148689904Y-102651142D01*
X148689904Y-102746380D01*
X148708952Y-102784476D01*
X148728000Y-102803523D01*
X148766095Y-102822571D01*
X148842285Y-102822571D01*
X148880380Y-102803523D01*
X148899428Y-102784476D01*
X148918476Y-102746380D01*
X149089904Y-102974952D02*
X149089904Y-102574952D01*
X149089904Y-102765428D02*
X149318476Y-102765428D01*
X149318476Y-102974952D02*
X149318476Y-102574952D01*
X149470857Y-102574952D02*
X149566095Y-102974952D01*
X149642285Y-102689238D01*
X149718476Y-102974952D01*
X149813714Y-102574952D01*
X149966095Y-102822571D02*
X150270857Y-102822571D01*
X150423238Y-102574952D02*
X150689904Y-102574952D01*
X150518476Y-102974952D01*
X150842285Y-102822571D02*
X151147047Y-102822571D01*
X151470857Y-102765428D02*
X151337523Y-102765428D01*
X151337523Y-102974952D02*
X151337523Y-102574952D01*
X151528000Y-102574952D01*
X143112188Y-99409472D02*
X143112188Y-99009472D01*
X143245521Y-99295186D01*
X143378855Y-99009472D01*
X143378855Y-99409472D01*
X143550283Y-99295186D02*
X143740760Y-99295186D01*
X143512188Y-99409472D02*
X143645521Y-99009472D01*
X143778855Y-99409472D01*
X143874093Y-99009472D02*
X144140760Y-99409472D01*
X144140760Y-99009472D02*
X143874093Y-99409472D01*
X144502664Y-99409472D02*
X144274093Y-99409472D01*
X144388379Y-99409472D02*
X144388379Y-99009472D01*
X144350283Y-99066615D01*
X144312188Y-99104710D01*
X144274093Y-99123758D01*
X144655045Y-99047567D02*
X144674093Y-99028520D01*
X144712188Y-99009472D01*
X144807426Y-99009472D01*
X144845521Y-99028520D01*
X144864569Y-99047567D01*
X144883617Y-99085662D01*
X144883617Y-99123758D01*
X144864569Y-99180900D01*
X144635998Y-99409472D01*
X144883617Y-99409472D01*
X145074093Y-99409472D02*
X145150283Y-99409472D01*
X145188379Y-99390424D01*
X145207426Y-99371377D01*
X145245521Y-99314234D01*
X145264569Y-99238043D01*
X145264569Y-99085662D01*
X145245521Y-99047567D01*
X145226474Y-99028520D01*
X145188379Y-99009472D01*
X145112188Y-99009472D01*
X145074093Y-99028520D01*
X145055045Y-99047567D01*
X145035998Y-99085662D01*
X145035998Y-99180900D01*
X145055045Y-99218996D01*
X145074093Y-99238043D01*
X145112188Y-99257091D01*
X145188379Y-99257091D01*
X145226474Y-99238043D01*
X145245521Y-99218996D01*
X145264569Y-99180900D01*
X145397902Y-99009472D02*
X145645521Y-99009472D01*
X145512188Y-99161853D01*
X145569331Y-99161853D01*
X145607426Y-99180900D01*
X145626474Y-99199948D01*
X145645521Y-99238043D01*
X145645521Y-99333281D01*
X145626474Y-99371377D01*
X145607426Y-99390424D01*
X145569331Y-99409472D01*
X145455045Y-99409472D01*
X145416950Y-99390424D01*
X145397902Y-99371377D01*
X146026474Y-99409472D02*
X145797902Y-99409472D01*
X145912188Y-99409472D02*
X145912188Y-99009472D01*
X145874093Y-99066615D01*
X145835998Y-99104710D01*
X145797902Y-99123758D01*
X146331236Y-99199948D02*
X146388379Y-99218996D01*
X146407426Y-99238043D01*
X146426474Y-99276139D01*
X146426474Y-99333281D01*
X146407426Y-99371377D01*
X146388379Y-99390424D01*
X146350283Y-99409472D01*
X146197902Y-99409472D01*
X146197902Y-99009472D01*
X146331236Y-99009472D01*
X146369331Y-99028520D01*
X146388379Y-99047567D01*
X146407426Y-99085662D01*
X146407426Y-99123758D01*
X146388379Y-99161853D01*
X146369331Y-99180900D01*
X146331236Y-99199948D01*
X146197902Y-99199948D01*
X146578855Y-99295186D02*
X146769331Y-99295186D01*
X146540760Y-99409472D02*
X146674093Y-99009472D01*
X146807426Y-99409472D01*
X146921712Y-99390424D02*
X146978855Y-99409472D01*
X147074093Y-99409472D01*
X147112188Y-99390424D01*
X147131236Y-99371377D01*
X147150283Y-99333281D01*
X147150283Y-99295186D01*
X147131236Y-99257091D01*
X147112188Y-99238043D01*
X147074093Y-99218996D01*
X146997902Y-99199948D01*
X146959807Y-99180900D01*
X146940760Y-99161853D01*
X146921712Y-99123758D01*
X146921712Y-99085662D01*
X146940760Y-99047567D01*
X146959807Y-99028520D01*
X146997902Y-99009472D01*
X147093140Y-99009472D01*
X147150283Y-99028520D01*
X147302664Y-99295186D02*
X147493140Y-99295186D01*
X147264569Y-99409472D02*
X147397902Y-99009472D01*
X147531236Y-99409472D01*
X147664569Y-99257091D02*
X147969331Y-99257091D01*
X147816950Y-99409472D02*
X147816950Y-99104710D01*
X148638952Y-103302666D02*
X148638952Y-103074095D01*
X149038952Y-103188380D02*
X148638952Y-103188380D01*
X148638952Y-102826476D02*
X148924666Y-102826476D01*
X148981809Y-102845523D01*
X149019904Y-102883619D01*
X149038952Y-102940761D01*
X149038952Y-102978857D01*
X148924666Y-102655047D02*
X148924666Y-102464571D01*
X149038952Y-102693142D02*
X148638952Y-102559809D01*
X149038952Y-102426476D01*
X149038952Y-102083619D02*
X149038952Y-102312190D01*
X149038952Y-102197904D02*
X148638952Y-102197904D01*
X148696095Y-102236000D01*
X148734190Y-102274095D01*
X148753238Y-102312190D01*
X148638952Y-101836000D02*
X148638952Y-101797904D01*
X148658000Y-101759809D01*
X148677047Y-101740761D01*
X148715142Y-101721714D01*
X148791333Y-101702666D01*
X148886571Y-101702666D01*
X148962761Y-101721714D01*
X149000857Y-101740761D01*
X149019904Y-101759809D01*
X149038952Y-101797904D01*
X149038952Y-101836000D01*
X149019904Y-101874095D01*
X149000857Y-101893142D01*
X148962761Y-101912190D01*
X148886571Y-101931238D01*
X148791333Y-101931238D01*
X148715142Y-101912190D01*
X148677047Y-101893142D01*
X148658000Y-101874095D01*
X148638952Y-101836000D01*
X148677047Y-101550285D02*
X148658000Y-101531238D01*
X148638952Y-101493142D01*
X148638952Y-101397904D01*
X148658000Y-101359809D01*
X148677047Y-101340761D01*
X148715142Y-101321714D01*
X148753238Y-101321714D01*
X148810380Y-101340761D01*
X149038952Y-101569333D01*
X149038952Y-101321714D01*
X148810380Y-101093142D02*
X148791333Y-101131238D01*
X148772285Y-101150285D01*
X148734190Y-101169333D01*
X148715142Y-101169333D01*
X148677047Y-101150285D01*
X148658000Y-101131238D01*
X148638952Y-101093142D01*
X148638952Y-101016952D01*
X148658000Y-100978857D01*
X148677047Y-100959809D01*
X148715142Y-100940761D01*
X148734190Y-100940761D01*
X148772285Y-100959809D01*
X148791333Y-100978857D01*
X148810380Y-101016952D01*
X148810380Y-101093142D01*
X148829428Y-101131238D01*
X148848476Y-101150285D01*
X148886571Y-101169333D01*
X148962761Y-101169333D01*
X149000857Y-101150285D01*
X149019904Y-101131238D01*
X149038952Y-101093142D01*
X149038952Y-101016952D01*
X149019904Y-100978857D01*
X149000857Y-100959809D01*
X148962761Y-100940761D01*
X148886571Y-100940761D01*
X148848476Y-100959809D01*
X148829428Y-100978857D01*
X148810380Y-101016952D01*
X148638952Y-100826476D02*
X148638952Y-100597904D01*
X149038952Y-100712190D02*
X148638952Y-100712190D01*
X149038952Y-100464571D02*
X148638952Y-100464571D01*
X149038952Y-100236000D02*
X148810380Y-100407428D01*
X148638952Y-100236000D02*
X148867523Y-100464571D01*
X148619904Y-99778857D02*
X149134190Y-100121714D01*
X148638952Y-99683619D02*
X148638952Y-99436000D01*
X148791333Y-99569333D01*
X148791333Y-99512190D01*
X148810380Y-99474095D01*
X148829428Y-99455047D01*
X148867523Y-99436000D01*
X148962761Y-99436000D01*
X149000857Y-99455047D01*
X149019904Y-99474095D01*
X149038952Y-99512190D01*
X149038952Y-99626476D01*
X149019904Y-99664571D01*
X149000857Y-99683619D01*
X148638952Y-99321714D02*
X149038952Y-99188380D01*
X148638952Y-99055047D01*
X148638952Y-98959809D02*
X148638952Y-98712190D01*
X148791333Y-98845523D01*
X148791333Y-98788380D01*
X148810380Y-98750285D01*
X148829428Y-98731238D01*
X148867523Y-98712190D01*
X148962761Y-98712190D01*
X149000857Y-98731238D01*
X149019904Y-98750285D01*
X149038952Y-98788380D01*
X149038952Y-98902666D01*
X149019904Y-98940761D01*
X149000857Y-98959809D01*
X148619904Y-98255047D02*
X149134190Y-98597904D01*
X148677047Y-98140761D02*
X148658000Y-98121714D01*
X148638952Y-98083619D01*
X148638952Y-97988380D01*
X148658000Y-97950285D01*
X148677047Y-97931238D01*
X148715142Y-97912190D01*
X148753238Y-97912190D01*
X148810380Y-97931238D01*
X149038952Y-98159809D01*
X149038952Y-97912190D01*
X148638952Y-97664571D02*
X148638952Y-97626476D01*
X148658000Y-97588380D01*
X148677047Y-97569333D01*
X148715142Y-97550285D01*
X148791333Y-97531238D01*
X148886571Y-97531238D01*
X148962761Y-97550285D01*
X149000857Y-97569333D01*
X149019904Y-97588380D01*
X149038952Y-97626476D01*
X149038952Y-97664571D01*
X149019904Y-97702666D01*
X149000857Y-97721714D01*
X148962761Y-97740761D01*
X148886571Y-97759809D01*
X148791333Y-97759809D01*
X148715142Y-97740761D01*
X148677047Y-97721714D01*
X148658000Y-97702666D01*
X148638952Y-97664571D01*
X148619904Y-97074095D02*
X149134190Y-97416952D01*
X148638952Y-96826476D02*
X148924666Y-96826476D01*
X148981809Y-96845523D01*
X149019904Y-96883619D01*
X149038952Y-96940761D01*
X149038952Y-96978857D01*
D11*
X155660380Y-99012857D02*
X155660380Y-99584285D01*
X155660380Y-99298571D02*
X154660380Y-99298571D01*
X154803238Y-99393809D01*
X154898476Y-99489047D01*
X154946095Y-99584285D01*
X154660380Y-98393809D02*
X154660380Y-98298571D01*
X154708000Y-98203333D01*
X154755619Y-98155714D01*
X154850857Y-98108095D01*
X155041333Y-98060476D01*
X155279428Y-98060476D01*
X155469904Y-98108095D01*
X155565142Y-98155714D01*
X155612761Y-98203333D01*
X155660380Y-98298571D01*
X155660380Y-98393809D01*
X155612761Y-98489047D01*
X155565142Y-98536666D01*
X155469904Y-98584285D01*
X155279428Y-98631904D01*
X155041333Y-98631904D01*
X154850857Y-98584285D01*
X154755619Y-98536666D01*
X154708000Y-98489047D01*
X154660380Y-98393809D01*
X154993714Y-97203333D02*
X155660380Y-97203333D01*
X154993714Y-97631904D02*
X155517523Y-97631904D01*
X155612761Y-97584285D01*
X155660380Y-97489047D01*
X155660380Y-97346190D01*
X155612761Y-97250952D01*
X155565142Y-97203333D01*
M02*
