<?xml version="1.0" standalone="no"?>
 <!DOCTYPE svg PUBLIC "-//W3C//DTD SVG 1.1//EN" 
 "http://www.w3.org/Graphics/SVG/1.1/DTD/svg11.dtd"> 
<svg xmlns="http://www.w3.org/2000/svg" version="1.1" 
    width="1.98628cm" height="4.79552cm" viewBox="0 0 7820 18880 ">
<title>SVG Picture created as LIN_USB_CONVERTER-brd.svg date 2018/02/14 14:08:23 </title>
  <desc>Picture generated by PCBNEW </desc>
<g style="fill:#000000; fill-opacity:1;stroke:#000000; stroke-opacity:1;
stroke-linecap:round; stroke-linejoin:round; "
 transform="translate(0 0) scale(1 1)">
</g>
<g style="fill:#000000; fill-opacity:0.0; 
stroke:#000000; stroke-width:-0.000393701; stroke-opacity:1; 
stroke-linecap:round; stroke-linejoin:round;">
</g>
<g style="fill:#840000; fill-opacity:0.0; 
stroke:#840000; stroke-width:-0.000393701; stroke-opacity:1; 
stroke-linecap:round; stroke-linejoin:round;">
</g>
<g style="fill:#840000; fill-opacity:0.0; 
stroke:#840000; stroke-width:0; stroke-opacity:1; 
stroke-linecap:round; stroke-linejoin:round;">
</g>
<g style="fill:#840000; fill-opacity:1.0; 
stroke:#840000; stroke-width:0; stroke-opacity:1; 
stroke-linecap:round; stroke-linejoin:round;">
<polyline style="fill-rule:evenodd;"
points="5265,6150
5462,6150
5462,6387
5265,6387
5265,6150
" /> 
<polyline style="fill-rule:evenodd;"
points="5265,6583
5462,6583
5462,6820
5265,6820
5265,6583
" /> 
<polyline style="fill-rule:evenodd;"
points="4198,8987
4198,9183
3962,9183
3962,8987
4198,8987
" /> 
<polyline style="fill-rule:evenodd;"
points="3765,8987
3765,9183
3528,9183
3528,8987
3765,8987
" /> 
<polyline style="fill-rule:evenodd;"
points="6165,11100
6362,11100
6362,11337
6165,11337
6165,11100
" /> 
<polyline style="fill-rule:evenodd;"
points="6165,11533
6362,11533
6362,11770
6165,11770
6165,11533
" /> 
<polyline style="fill-rule:evenodd;"
points="6598,6187
6598,6383
6362,6383
6362,6187
6598,6187
" /> 
<polyline style="fill-rule:evenodd;"
points="6165,6187
6165,6383
5928,6383
5928,6187
6165,6187
" /> 
<polyline style="fill-rule:evenodd;"
points="5611,15247
5315,15247
5315,14932
5611,14932
5611,15247
" /> 
<polyline style="fill-rule:evenodd;"
points="5611,15838
5315,15838
5315,15523
5611,15523
5611,15838
" /> 
<polyline style="fill-rule:evenodd;"
points="3315,15623
3611,15623
3611,15938
3315,15938
3315,15623
" /> 
<polyline style="fill-rule:evenodd;"
points="3315,15032
3611,15032
3611,15347
3315,15347
3315,15032
" /> 
<polyline style="fill-rule:evenodd;"
points="5498,9187
5498,9383
5262,9383
5262,9187
5498,9187
" /> 
<polyline style="fill-rule:evenodd;"
points="5065,9187
5065,9383
4828,9383
4828,9187
5065,9187
" /> 
<polyline style="fill-rule:evenodd;"
points="5898,8587
5898,8783
5662,8783
5662,8587
5898,8587
" /> 
<polyline style="fill-rule:evenodd;"
points="5465,8587
5465,8783
5228,8783
5228,8587
5465,8587
" /> 
<polyline style="fill-rule:evenodd;"
points="6413,9824
6413,9442
6913,9442
6913,9824
6413,9824
" /> 
<polyline style="fill-rule:evenodd;"
points="6413,10328
6413,9946
6913,9946
6913,10328
6413,10328
" /> 
<polyline style="fill-rule:evenodd;"
points="6586,13691
6940,13691
6940,13888
6586,13888
6586,13691
" /> 
<polyline style="fill-rule:evenodd;"
points="6586,14282
6940,14282
6940,14479
6586,14479
6586,14282
" /> 
<polyline style="fill-rule:evenodd;"
points="2386,13591
2740,13591
2740,13788
2386,13788
2386,13591
" /> 
<polyline style="fill-rule:evenodd;"
points="2386,14182
2740,14182
2740,14379
2386,14379
2386,14182
" /> 
<polyline style="fill-rule:evenodd;"
points="2957,9008
2957,9362
2760,9362
2760,9008
2957,9008
" /> 
<polyline style="fill-rule:evenodd;"
points="2366,9008
2366,9362
2169,9362
2169,9008
2366,9008
" /> 
<polyline style="fill-rule:evenodd;"
points="669,10462
669,10108
866,10108
866,10462
669,10462
" /> 
<polyline style="fill-rule:evenodd;"
points="1260,10462
1260,10108
1457,10108
1457,10462
1260,10462
" /> 
<polyline style="fill-rule:evenodd;"
points="5892,7368
5892,7053
6247,7053
6247,7368
5892,7368
" /> 
<polyline style="fill-rule:evenodd;"
points="5892,8116
5892,7801
6247,7801
6247,8116
5892,8116
" /> 
<polyline style="fill-rule:evenodd;"
points="6680,7742
6680,7427
7034,7427
7034,7742
6680,7742
" /> 
<polyline style="fill-rule:evenodd;"
points="1928,14275
1928,14590
1573,14590
1573,14275
1928,14275
" /> 
<polyline style="fill-rule:evenodd;"
points="1928,13527
1928,13842
1573,13842
1573,13527
1928,13527
" /> 
<polyline style="fill-rule:evenodd;"
points="1140,13901
1140,14216
786,14216
786,13901
1140,13901
" /> 
<polyline style="fill-rule:evenodd;"
points="2940,11779
2586,11779
2586,11582
2940,11582
2940,11779
" /> 
<polyline style="fill-rule:evenodd;"
points="2940,11188
2586,11188
2586,10991
2940,10991
2940,11188
" /> 
<polyline style="fill-rule:evenodd;"
points="2140,11779
1786,11779
1786,11582
2140,11582
2140,11779
" /> 
<polyline style="fill-rule:evenodd;"
points="2140,11188
1786,11188
1786,10991
2140,10991
2140,11188
" /> 
<polyline style="fill-rule:evenodd;"
points="1440,11779
1086,11779
1086,11582
1440,11582
1440,11779
" /> 
<polyline style="fill-rule:evenodd;"
points="1440,11188
1086,11188
1086,10991
1440,10991
1440,11188
" /> 
<polyline style="fill-rule:evenodd;"
points="3540,11774
3186,11774
3186,11577
3540,11577
3540,11774
" /> 
<polyline style="fill-rule:evenodd;"
points="3540,11183
3186,11183
3186,10987
3540,10987
3540,11183
" /> 
<polyline style="fill-rule:evenodd;"
points="6140,14275
6140,14590
5786,14590
5786,14275
6140,14275
" /> 
<polyline style="fill-rule:evenodd;"
points="6140,13527
6140,13842
5786,13842
5786,13527
6140,13527
" /> 
<polyline style="fill-rule:evenodd;"
points="5353,13901
5353,14216
4999,14216
4999,13901
5353,13901
" /> 
<polyline style="fill-rule:evenodd;"
points="4540,14327
4540,14642
4186,14642
4186,14327
4540,14327
" /> 
<polyline style="fill-rule:evenodd;"
points="4540,13579
4540,13894
4186,13894
4186,13579
4540,13579
" /> 
<polyline style="fill-rule:evenodd;"
points="3753,13953
3753,14268
3399,14268
3399,13953
3753,13953
" /> 
<polyline style="fill-rule:evenodd;"
points="3180,8193
3062,8193
3062,7996
3180,7996
3180,8193
" /> 
<polyline style="fill-rule:evenodd;"
points="3380,8194
3262,8194
3262,7918
3380,7918
3380,8194
" /> 
<polyline style="fill-rule:evenodd;"
points="3774,8194
3656,8194
3656,7918
3774,7918
3774,8194
" /> 
<polyline style="fill-rule:evenodd;"
points="4168,8194
4050,8194
4050,7918
4168,7918
4168,8194
" /> 
<polyline style="fill-rule:evenodd;"
points="4368,8195
4250,8195
4250,7998
4368,7998
4368,8195
" /> 
<polyline style="fill-rule:evenodd;"
points="4624,7941
4427,7941
4427,7823
4624,7823
4624,7941
" /> 
<polyline style="fill-rule:evenodd;"
points="4621,7741
4345,7741
4345,7623
4621,7623
4621,7741
" /> 
<polyline style="fill-rule:evenodd;"
points="4621,7347
4345,7347
4345,7229
4621,7229
4621,7347
" /> 
<polyline style="fill-rule:evenodd;"
points="4621,7150
4345,7150
4345,7032
4621,7032
4621,7150
" /> 
<polyline style="fill-rule:evenodd;"
points="4622,6755
4425,6755
4425,6637
4622,6637
4622,6755
" /> 
<polyline style="fill-rule:evenodd;"
points="4366,6579
4248,6579
4248,6382
4366,6382
4366,6579
" /> 
<polyline style="fill-rule:evenodd;"
points="3971,6658
3853,6658
3853,6383
3971,6383
3971,6658
" /> 
<polyline style="fill-rule:evenodd;"
points="3774,6658
3656,6658
3656,6383
3774,6383
3774,6658
" /> 
<polyline style="fill-rule:evenodd;"
points="3577,6658
3459,6658
3459,6383
3577,6383
3577,6658
" /> 
<polyline style="fill-rule:evenodd;"
points="3180,6579
3062,6579
3062,6382
3180,6382
3180,6579
" /> 
<polyline style="fill-rule:evenodd;"
points="3008,6755
2811,6755
2811,6637
3008,6637
3008,6755
" /> 
<polyline style="fill-rule:evenodd;"
points="3085,7150
2810,7150
2810,7032
3085,7032
3085,7150
" /> 
<polyline style="fill-rule:evenodd;"
points="3085,7347
2810,7347
2810,7229
3085,7229
3085,7347
" /> 
<polyline style="fill-rule:evenodd;"
points="3085,7544
2810,7544
2810,7426
3085,7426
3085,7544
" /> 
<polyline style="fill-rule:evenodd;"
points="3004,7939
2807,7939
2807,7821
3004,7821
3004,7939
" /> 
<polyline style="fill-rule:evenodd;"
points="3181,7996
3122,7996
3122,7937
3181,7937
3181,7996
" /> 
<polyline style="fill-rule:evenodd;"
points="4309,7998
4250,7998
4250,7939
4309,7939
4309,7998
" /> 
<polyline style="fill-rule:evenodd;"
points="4427,7882
4368,7882
4368,7823
4427,7823
4427,7882
" /> 
<polyline style="fill-rule:evenodd;"
points="4425,6755
4366,6755
4366,6696
4425,6696
4425,6755
" /> 
<polyline style="fill-rule:evenodd;"
points="4307,6637
4248,6637
4248,6578
4307,6578
4307,6637
" /> 
<polyline style="fill-rule:evenodd;"
points="3180,6639
3121,6639
3121,6580
3180,6580
3180,6639
" /> 
<polyline style="fill-rule:evenodd;"
points="3066,6755
3007,6755
3007,6696
3066,6696
3066,6755
" /> 
<polyline style="fill-rule:evenodd;"
points="3063,7880
3004,7880
3004,7821
3063,7821
3063,7880
" /> 
<polyline style="fill-rule:evenodd;"
points="3062,7880
3003,7939
2944,7880
3003,7821
3062,7880
" /> 
<polyline style="fill-rule:evenodd;"
points="3066,6696
3007,6755
2948,6696
3007,6637
3066,6696
" /> 
<polyline style="fill-rule:evenodd;"
points="4486,7882
4427,7941
4368,7882
4427,7823
4486,7882
" /> 
<polyline style="fill-rule:evenodd;"
points="4484,6696
4425,6755
4366,6696
4425,6637
4484,6696
" /> 
<polyline style="fill-rule:evenodd;"
points="3180,7996
3121,8055
3062,7996
3121,7937
3180,7996
" /> 
<polyline style="fill-rule:evenodd;"
points="3180,6580
3121,6639
3062,6580
3121,6521
3180,6580
" /> 
<polyline style="fill-rule:evenodd;"
points="4368,7998
4309,8057
4250,7998
4309,7939
4368,7998
" /> 
<polyline style="fill-rule:evenodd;"
points="4366,6578
4307,6637
4248,6578
4307,6519
4366,6578
" /> 
<polyline style="fill-rule:evenodd;"
points="3577,8194
3459,8194
3459,7918
3577,7918
3577,8194
" /> 
<polyline style="fill-rule:evenodd;"
points="3971,8194
3853,8194
3853,7918
3971,7918
3971,8194
" /> 
<polyline style="fill-rule:evenodd;"
points="4621,7544
4345,7544
4345,7426
4621,7426
4621,7544
" /> 
<polyline style="fill-rule:evenodd;"
points="3085,7741
2810,7741
2810,7623
3085,7623
3085,7741
" /> 
<polyline style="fill-rule:evenodd;"
points="4621,6953
4345,6953
4345,6835
4621,6835
4621,6953
" /> 
<polyline style="fill-rule:evenodd;"
points="4168,6658
4050,6658
4050,6383
4168,6383
4168,6658
" /> 
<polyline style="fill-rule:evenodd;"
points="3380,6658
3262,6658
3262,6383
3380,6383
3380,6658
" /> 
<polyline style="fill-rule:evenodd;"
points="3085,6953
2810,6953
2810,6835
3085,6835
3085,6953
" /> 
<polyline style="fill-rule:evenodd;"
points="1763,10794
1763,10007
1963,10007
1963,10794
1763,10794
" /> 
<polyline style="fill-rule:evenodd;"
points="2263,10794
2263,10007
2463,10007
2463,10794
2263,10794
" /> 
<polyline style="fill-rule:evenodd;"
points="2763,10794
2763,10007
2963,10007
2963,10794
2763,10794
" /> 
<polyline style="fill-rule:evenodd;"
points="3263,10794
3263,10007
3463,10007
3463,10794
3263,10794
" /> 
<polyline style="fill-rule:evenodd;"
points="3263,12763
3263,11975
3463,11975
3463,12763
3263,12763
" /> 
<polyline style="fill-rule:evenodd;"
points="2763,12763
2763,11975
2963,11975
2963,12763
2763,12763
" /> 
<polyline style="fill-rule:evenodd;"
points="2263,12763
2263,11975
2463,11975
2463,12763
2263,12763
" /> 
<polyline style="fill-rule:evenodd;"
points="1763,12763
1763,11975
1963,11975
1963,12763
1763,12763
" /> 
<polyline style="fill-rule:evenodd;"
points="4754,11372
4754,11510
4517,11510
4517,11372
4754,11372
" /> 
<polyline style="fill-rule:evenodd;"
points="4754,11116
4754,11254
4517,11254
4517,11116
4754,11116
" /> 
<polyline style="fill-rule:evenodd;"
points="5832,10860
5832,10998
5596,10998
5596,10860
5832,10860
" /> 
<polyline style="fill-rule:evenodd;"
points="4754,10604
4754,10742
4517,10742
4517,10604
4754,10604
" /> 
<polyline style="fill-rule:evenodd;"
points="5832,11372
5832,11510
5596,11510
5596,11372
5832,11372
" /> 
<polyline style="fill-rule:evenodd;"
points="5832,11116
5832,11254
5596,11254
5596,11116
5832,11116
" /> 
<polyline style="fill-rule:evenodd;"
points="4754,10860
4754,10998
4517,10998
4517,10860
4754,10860
" /> 
<polyline style="fill-rule:evenodd;"
points="5832,10604
5832,10742
5596,10742
5596,10604
5832,10604
" /> 
</g>
<g style="fill:#000000; fill-opacity:1.0; 
stroke:#000000; stroke-width:0; stroke-opacity:1; 
stroke-linecap:round; stroke-linejoin:round;">
</g>
<g style="fill:#008484; fill-opacity:1.0; 
stroke:#008484; stroke-width:0; stroke-opacity:1; 
stroke-linecap:round; stroke-linejoin:round;">
</g>
<g style="fill:#008484; fill-opacity:1.0; 
stroke:#008484; stroke-width:78.7402; stroke-opacity:1; 
stroke-linecap:round; stroke-linejoin:round;">
</g>
<g style="fill:#008484; fill-opacity:0.0; 
stroke:#008484; stroke-width:78.7402; stroke-opacity:1; 
stroke-linecap:round; stroke-linejoin:round;">
<circle cx="1313.63" cy="12085.4" r="70.7106" /> 
</g>
<g style="fill:#008484; fill-opacity:0.0; 
stroke:#008484; stroke-width:39.3701; stroke-opacity:1; 
stroke-linecap:round; stroke-linejoin:round;">
<path d="M1243 6303
L1266 6314
L1299 6314
L1333 6303
L1356 6281
L1367 6258
L1378 6213
L1378 6179
L1367 6134
L1356 6112
L1333 6089
L1299 6078
L1277 6078
L1243 6089
L1232 6101
L1232 6179
L1277 6179
" />
<path d="M1131 6078
L1131 6314
L996 6078
L996 6314
" />
<path d="M883 6078
L883 6314
L827 6314
L793 6303
L771 6281
L759 6258
L748 6213
L748 6179
L759 6134
L771 6112
L793 6089
L827 6078
L883 6078
" />
<path d="M1870 9714
L1758 9793
" />
<path d="M1870 9849
L1634 9849
L1634 9759
L1645 9737
L1656 9726
L1679 9714
L1713 9714
L1735 9726
L1746 9737
L1758 9759
L1758 9849
" />
<path d="M1859 9624
L1870 9591
L1870 9534
L1859 9512
L1847 9501
L1825 9489
L1802 9489
L1780 9501
L1769 9512
L1758 9534
L1746 9579
L1735 9602
L1724 9613
L1701 9624
L1679 9624
L1656 9613
L1645 9602
L1634 9579
L1634 9523
L1645 9489
" />
<path d="M1634 9422
L1634 9287
" />
<path d="M1870 9354
L1634 9354
" />
<path d="M1305 7078
L1305 7314
L1249 7314
L1215 7303
L1192 7281
L1181 7258
L1170 7213
L1170 7179
L1181 7134
L1192 7112
L1215 7089
L1249 7078
L1305 7078
" />
<path d="M1069 7078
L1069 7314
" />
<path d="M911 7314
L866 7314
L844 7303
L821 7281
L810 7236
L810 7157
L821 7112
L844 7089
L866 7078
L911 7078
L934 7089
L956 7112
L968 7157
L968 7236
L956 7281
L934 7303
L911 7314
" />
<path d="M771 8056
L917 8056
L838 8146
L872 8146
L894 8157
L906 8168
L917 8191
L917 8247
L906 8269
L894 8281
L872 8292
L804 8292
L782 8281
L771 8269
" />
<path d="M984 8056
L1063 8292
L1142 8056
" />
<path d="M1198 8056
L1344 8056
L1266 8146
L1299 8146
L1322 8157
L1333 8168
L1344 8191
L1344 8247
L1333 8269
L1322 8281
L1299 8292
L1232 8292
L1209 8281
L1198 8269
" />
<path d="M923 9269
L911 9281
L878 9292
L855 9292
L821 9281
L799 9258
L788 9236
L776 9191
L776 9157
L788 9112
L799 9089
L821 9067
L855 9056
L878 9056
L911 9067
L923 9078
" />
<path d="M1136 9292
L1024 9292
L1024 9056
" />
<path d="M1215 9292
L1215 9056
" />
<path d="M1350 9292
L1249 9157
" />
<path d="M1350 9056
L1215 9191
" />
</g>
<g style="fill:#008484; fill-opacity:0.0; 
stroke:#008484; stroke-width:59.0551; stroke-opacity:1; 
stroke-linecap:round; stroke-linejoin:round;">
<path d="M5550 6583
L5550 6387
" />
<path d="M5176 6387
L5176 6583
" />
<path d="M3765 9272
L3962 9272
" />
<path d="M3962 8898
L3765 8898
" />
</g>
<g style="fill:#008484; fill-opacity:0.0; 
stroke:#008484; stroke-width:47.2441; stroke-opacity:1; 
stroke-linecap:round; stroke-linejoin:round;">
<path d="M6450 11533
L6450 11337
" />
<path d="M6076 11337
L6076 11533
" />
<path d="M6165 6472
L6362 6472
" />
<path d="M6362 6098
L6165 6098
" />
<path d="M5699 15247
L5699 15523
" />
<path d="M5227 15523
L5227 15247
" />
<path d="M3227 15623
L3227 15347
" />
<path d="M3699 15347
L3699 15623
" />
<path d="M5065 9470
L5262 9470
" />
<path d="M5262 9100
L5065 9100
" />
<path d="M5465 8870
L5662 8870
" />
<path d="M5662 8500
L5465 8500
" />
<path d="M6313 9385
L6313 10385
" />
<path d="M7014 10385
L7014 9385
" />
<path d="M7014 10385
L6313 10385
" />
<path d="M6313 9385
L7014 9385
" />
<path d="M6495 14282
L6495 13888
" />
<path d="M7031 13888
L7031 14282
" />
<path d="M2295 14182
L2295 13788
" />
<path d="M2831 13788
L2831 14182
" />
<path d="M2366 8917
L2760 8917
" />
<path d="M2760 9453
L2366 9453
" />
<path d="M1260 10553
L866 10553
" />
<path d="M866 10017
L1260 10017
" />
<path d="M6762 8207
L6762 7841
" />
<path d="M6762 6963
L6762 7329
" />
<path d="M6762 6963
L5912 6963
" />
<path d="M6762 8207
L6188 8207
" />
<path d="M1058 13437
L1058 13803
" />
<path d="M1058 14681
L1058 14315
" />
<path d="M1058 14681
L1908 14681
" />
<path d="M1058 13437
L1632 13437
" />
<path d="M3031 11188
L3031 11582
" />
<path d="M2495 11582
L2495 11188
" />
<path d="M2231 11188
L2231 11582
" />
<path d="M1695 11582
L1695 11188
" />
<path d="M1531 11188
L1531 11582
" />
<path d="M995 11582
L995 11188
" />
<path d="M3631 11183
L3631 11577
" />
<path d="M3095 11577
L3095 11183
" />
<path d="M5270 13437
L5270 13803
" />
<path d="M5270 14681
L5270 14315
" />
<path d="M5270 14681
L6121 14681
" />
<path d="M5270 13437
L5845 13437
" />
<path d="M3670 13489
L3670 13855
" />
<path d="M3670 14733
L3670 14367
" />
<path d="M3670 14733
L4521 14733
" />
<path d="M3670 13489
L4245 13489
" />
</g>
<g style="fill:#008484; fill-opacity:0.0; 
stroke:#008484; stroke-width:59.0551; stroke-opacity:1; 
stroke-linecap:round; stroke-linejoin:round;">
<circle cx="2815.6" cy="8188.58" r="33.526" /> 
</g>
<g style="fill:#008484; fill-opacity:0.0; 
stroke:#008484; stroke-width:47.2441; stroke-opacity:1; 
stroke-linecap:round; stroke-linejoin:round;">
<path d="M2867 6440
L2985 6440
" />
<path d="M4593 8156
L4475 8156
" />
<path d="M4573 6420
L4455 6420
" />
<path d="M2895 7986
L2895 7868
" />
<path d="M4593 8156
L4593 8038
" />
<path d="M4573 6420
L4573 6538
" />
<path d="M2867 6440
L2867 6558
" />
</g>
<g style="fill:#008484; fill-opacity:0.0; 
stroke:#008484; stroke-width:59.0551; stroke-opacity:1; 
stroke-linecap:round; stroke-linejoin:round;">
<circle cx="1577.63" cy="12411.4" r="30.463" /> 
<path d="M1613 10485
L3613 10485
" />
<path d="M3613 10485
L3613 12285
" />
<path d="M3613 12285
L1613 12285
" />
<path d="M1613 12285
L1613 10485
" />
<path d="M1613 11085
L1813 11085
" />
<path d="M1813 11085
L1813 11585
" />
<path d="M1813 11585
L1613 11585
" />
<circle cx="5963.63" cy="11691.3" r="50" /> 
<path d="M5813 11691
L4563 11691
" />
<path d="M5813 10391
L5813 11691
" />
<path d="M4563 10391
L5813 10391
" />
<path d="M4563 11691
L4563 10391
" />
</g>
<g style="fill:#C2C200; fill-opacity:0.0; 
stroke:#C2C200; stroke-width:59.0551; stroke-opacity:1; 
stroke-linecap:round; stroke-linejoin:round;">
</g>
<g style="fill:#C2C200; fill-opacity:0.0; 
stroke:#C2C200; stroke-width:35.4331; stroke-opacity:1; 
stroke-linecap:round; stroke-linejoin:round;">
<path d="M5337 7132
L5329 7139
L5307 7147
L5292 7147
L5269 7139
L5254 7124
L5247 7109
L5239 7079
L5239 7057
L5247 7027
L5254 7012
L5269 6997
L5292 6989
L5307 6989
L5329 6997
L5337 7004
" />
<path d="M5427 7057
L5412 7049
L5404 7042
L5397 7027
L5397 7019
L5404 7004
L5412 6997
L5427 6989
L5457 6989
L5472 6997
L5479 7004
L5487 7019
L5487 7027
L5479 7042
L5472 7049
L5457 7057
L5427 7057
L5412 7064
L5404 7072
L5397 7087
L5397 7117
L5404 7132
L5412 7139
L5427 7147
L5457 7147
L5472 7139
L5479 7132
L5487 7117
L5487 7087
L5479 7072
L5472 7064
L5457 7057
" />
<path d="M4519 9111
L4527 9119
L4534 9141
L4534 9156
L4527 9179
L4512 9194
L4497 9201
L4467 9209
L4444 9209
L4414 9201
L4399 9194
L4384 9179
L4377 9156
L4377 9141
L4384 9119
L4392 9111
" />
<path d="M4534 9036
L4534 9006
L4527 8991
L4519 8984
L4497 8969
L4467 8961
L4407 8961
L4392 8969
L4384 8976
L4377 8991
L4377 9021
L4384 9036
L4392 9044
L4407 9051
L4444 9051
L4459 9044
L4467 9036
L4474 9021
L4474 8991
L4467 8976
L4459 8969
L4444 8961
" />
<path d="M6237 12091
L6229 12099
L6207 12106
L6192 12106
L6169 12099
L6154 12084
L6147 12069
L6139 12039
L6139 12016
L6147 11986
L6154 11971
L6169 11956
L6192 11949
L6207 11949
L6229 11956
L6237 11964
" />
<path d="M6289 11949
L6387 11949
L6334 12009
L6357 12009
L6372 12016
L6379 12024
L6387 12039
L6387 12076
L6379 12091
L6372 12099
L6357 12106
L6312 12106
L6297 12099
L6289 12091
" />
<path d="M6919 6311
L6927 6319
L6934 6341
L6934 6356
L6927 6379
L6912 6394
L6897 6401
L6867 6409
L6844 6409
L6814 6401
L6799 6394
L6784 6379
L6777 6356
L6777 6341
L6784 6319
L6792 6311
" />
<path d="M6777 6169
L6777 6244
L6852 6251
L6844 6244
L6837 6229
L6837 6191
L6844 6176
L6852 6169
L6867 6161
L6904 6161
L6919 6169
L6927 6176
L6934 6191
L6934 6229
L6927 6244
L6919 6251
" />
<path d="M5437 16141
L5429 16149
L5407 16156
L5392 16156
L5369 16149
L5354 16134
L5347 16119
L5339 16089
L5339 16066
L5347 16036
L5354 16021
L5369 16006
L5392 15999
L5407 15999
L5429 16006
L5437 16014
" />
<path d="M5587 16156
L5497 16156
" />
<path d="M5542 16156
L5542 15999
L5527 16021
L5512 16036
L5497 16044
" />
<path d="M3437 16241
L3429 16249
L3407 16256
L3392 16256
L3369 16249
L3354 16234
L3347 16219
L3339 16189
L3339 16166
L3347 16136
L3354 16121
L3369 16106
L3392 16099
L3407 16099
L3429 16106
L3437 16114
" />
<path d="M3497 16114
L3504 16106
L3519 16099
L3557 16099
L3572 16106
L3579 16114
L3587 16129
L3587 16144
L3579 16166
L3489 16256
L3587 16256
" />
<path d="M5819 9311
L5827 9319
L5834 9341
L5834 9356
L5827 9379
L5812 9394
L5797 9401
L5767 9409
L5744 9409
L5714 9401
L5699 9394
L5684 9379
L5677 9356
L5677 9341
L5684 9319
L5692 9311
" />
<path d="M5729 9176
L5834 9176
" />
<path d="M5669 9214
L5782 9251
L5782 9154
" />
<path d="M6219 8711
L6227 8719
L6234 8741
L6234 8756
L6227 8779
L6212 8794
L6197 8801
L6167 8809
L6144 8809
L6114 8801
L6099 8794
L6084 8779
L6077 8756
L6077 8741
L6084 8719
L6092 8711
" />
<path d="M6077 8576
L6077 8606
L6084 8621
L6092 8629
L6114 8644
L6144 8651
L6204 8651
L6219 8644
L6227 8636
L6234 8621
L6234 8591
L6227 8576
L6219 8569
L6204 8561
L6167 8561
L6152 8569
L6144 8576
L6137 8591
L6137 8621
L6144 8636
L6152 8644
L6167 8651
" />
<path d="M5977 9637
L6089 9637
L6112 9645
L6127 9660
L6134 9682
L6134 9697
" />
<path d="M5977 9577
L5977 9480
L6037 9532
L6037 9510
L6044 9495
L6052 9487
L6067 9480
L6104 9480
L6119 9487
L6127 9495
L6134 9510
L6134 9555
L6127 9570
L6119 9577
" />
<path d="M6834 14111
L6759 14164
" />
<path d="M6834 14201
L6677 14201
L6677 14141
L6684 14126
L6692 14119
L6707 14111
L6729 14111
L6744 14119
L6752 14126
L6759 14141
L6759 14201
" />
<path d="M6834 13961
L6834 14051
" />
<path d="M6834 14006
L6677 14006
L6699 14021
L6714 14036
L6722 14051
" />
<path d="M2634 14011
L2559 14064
" />
<path d="M2634 14101
L2477 14101
L2477 14041
L2484 14026
L2492 14019
L2507 14011
L2529 14011
L2544 14019
L2552 14026
L2559 14041
L2559 14101
" />
<path d="M2492 13951
L2484 13944
L2477 13929
L2477 13891
L2484 13876
L2492 13869
L2507 13861
L2522 13861
L2544 13869
L2634 13959
L2634 13861
" />
<path d="M2537 9256
L2484 9181
" />
<path d="M2447 9256
L2447 9099
L2507 9099
L2522 9106
L2529 9114
L2537 9129
L2537 9151
L2529 9166
L2522 9174
L2507 9181
L2447 9181
" />
<path d="M2589 9099
L2687 9099
L2634 9159
L2657 9159
L2672 9166
L2679 9174
L2687 9189
L2687 9226
L2679 9241
L2672 9249
L2657 9256
L2612 9256
L2597 9249
L2589 9241
" />
<path d="M1037 10356
L984 10281
" />
<path d="M947 10356
L947 10199
L1007 10199
L1022 10206
L1029 10214
L1037 10229
L1037 10251
L1029 10266
L1022 10274
L1007 10281
L947 10281
" />
<path d="M1179 10199
L1104 10199
L1097 10274
L1104 10266
L1119 10259
L1157 10259
L1172 10266
L1179 10274
L1187 10289
L1187 10326
L1179 10341
L1172 10349
L1157 10356
L1119 10356
L1104 10349
L1097 10341
" />
<path d="M6883 8231
L7011 8231
L7026 8223
L7033 8216
L7041 8201
L7041 8171
L7033 8156
L7026 8148
L7011 8141
L6883 8141
" />
<path d="M6883 8081
L6883 7983
L6943 8036
L6943 8013
L6951 7998
L6958 7991
L6973 7983
L7011 7983
L7026 7991
L7033 7998
L7041 8013
L7041 8058
L7033 8073
L7026 8081
" />
<path d="M1428 14149
L1271 14149
L1271 14112
L1278 14089
L1293 14074
L1308 14067
L1338 14059
L1361 14059
L1391 14067
L1406 14074
L1421 14089
L1428 14112
L1428 14149
" />
<path d="M1428 13909
L1428 13999
" />
<path d="M1428 13954
L1271 13954
L1293 13969
L1308 13984
L1316 13999
" />
<path d="M2834 11411
L2759 11464
" />
<path d="M2834 11501
L2677 11501
L2677 11441
L2684 11426
L2692 11419
L2707 11411
L2729 11411
L2744 11419
L2752 11426
L2759 11441
L2759 11501
" />
<path d="M2729 11276
L2834 11276
" />
<path d="M2669 11314
L2782 11351
L2782 11254
" />
<path d="M2034 11411
L1959 11464
" />
<path d="M2034 11501
L1877 11501
L1877 11441
L1884 11426
L1892 11419
L1907 11411
L1929 11411
L1944 11419
L1952 11426
L1959 11441
L1959 11501
" />
<path d="M1877 11276
L1877 11306
L1884 11321
L1892 11329
L1914 11344
L1944 11351
L2004 11351
L2019 11344
L2027 11336
L2034 11321
L2034 11291
L2027 11276
L2019 11269
L2004 11261
L1967 11261
L1952 11269
L1944 11276
L1937 11291
L1937 11321
L1944 11336
L1952 11344
L1967 11351
" />
<path d="M1334 11411
L1259 11464
" />
<path d="M1334 11501
L1177 11501
L1177 11441
L1184 11426
L1192 11419
L1207 11411
L1229 11411
L1244 11419
L1252 11426
L1259 11441
L1259 11501
" />
<path d="M1177 11359
L1177 11254
L1334 11321
" />
<path d="M3434 11406
L3359 11459
" />
<path d="M3434 11496
L3277 11496
L3277 11436
L3284 11421
L3292 11414
L3307 11406
L3329 11406
L3344 11414
L3352 11421
L3359 11436
L3359 11496
" />
<path d="M3344 11316
L3337 11331
L3329 11339
L3314 11346
L3307 11346
L3292 11339
L3284 11331
L3277 11316
L3277 11286
L3284 11271
L3292 11264
L3307 11256
L3314 11256
L3329 11264
L3337 11271
L3344 11286
L3344 11316
L3352 11331
L3359 11339
L3374 11346
L3404 11346
L3419 11339
L3427 11331
L3434 11316
L3434 11286
L3427 11271
L3419 11264
L3404 11256
L3374 11256
L3359 11264
L3352 11271
L3344 11286
" />
<path d="M5641 14175
L5483 14175
L5483 14138
L5491 14115
L5506 14100
L5521 14093
L5551 14085
L5573 14085
L5603 14093
L5618 14100
L5633 14115
L5641 14138
L5641 14175
" />
<path d="M5483 14033
L5483 13935
L5543 13988
L5543 13965
L5551 13950
L5558 13943
L5573 13935
L5611 13935
L5626 13943
L5633 13950
L5641 13965
L5641 14010
L5633 14025
L5626 14033
" />
<path d="M4041 14201
L3883 14201
L3883 14164
L3891 14141
L3906 14126
L3921 14119
L3951 14111
L3973 14111
L4003 14119
L4018 14126
L4033 14141
L4041 14164
L4041 14201
" />
<path d="M3898 14051
L3891 14044
L3883 14029
L3883 13991
L3891 13976
L3898 13969
L3913 13961
L3928 13961
L3951 13969
L4041 14059
L4041 13961
" />
<path d="M2327 8155
L2454 8155
L2469 8147
L2477 8140
L2484 8125
L2484 8095
L2477 8080
L2469 8072
L2454 8065
L2327 8065
" />
<path d="M2379 7922
L2484 7922
" />
<path d="M2319 7960
L2432 7997
L2432 7900
" />
<path d="M1329 12265
L1456 12265
L1471 12257
L1479 12250
L1486 12235
L1486 12205
L1479 12190
L1471 12182
L1456 12175
L1329 12175
" />
<path d="M1344 12107
L1336 12100
L1329 12085
L1329 12047
L1336 12032
L1344 12025
L1359 12017
L1374 12017
L1396 12025
L1486 12115
L1486 12017
" />
<path d="M5543 11843
L5543 11970
L5551 11985
L5558 11993
L5573 12000
L5603 12000
L5618 11993
L5626 11985
L5633 11970
L5633 11843
" />
<path d="M5791 12000
L5701 12000
" />
<path d="M5746 12000
L5746 11843
L5731 11865
L5716 11880
L5701 11888
" />
</g>
<g style="fill:#000000; fill-opacity:0.0; 
stroke:#000000; stroke-width:35.4331; stroke-opacity:1; 
stroke-linecap:round; stroke-linejoin:round;">
</g>
<g style="fill:#840000; fill-opacity:0.0; 
stroke:#840000; stroke-width:35.4331; stroke-opacity:1; 
stroke-linecap:round; stroke-linejoin:round;">
</g>
<g style="fill:#840000; fill-opacity:0.0; 
stroke:#840000; stroke-width:0; stroke-opacity:1; 
stroke-linecap:round; stroke-linejoin:round;">
</g>
<g style="fill:#840000; fill-opacity:1.0; 
stroke:#840000; stroke-width:0; stroke-opacity:1; 
stroke-linecap:round; stroke-linejoin:round;">
<polyline style="fill-rule:evenodd;"
points="3085,7347
2810,7347
2810,7229
3085,7229
3085,7347
" /> 
</g>
<g style="fill:#000000; fill-opacity:1.0; 
stroke:#000000; stroke-width:0; stroke-opacity:1; 
stroke-linecap:round; stroke-linejoin:round;">
</g>
<g style="fill:#848484; fill-opacity:1.0; 
stroke:#848484; stroke-width:0; stroke-opacity:1; 
stroke-linecap:round; stroke-linejoin:round;">
</g>
<g style="fill:#848484; fill-opacity:1.0; 
stroke:#848484; stroke-width:19.685; stroke-opacity:1; 
stroke-linecap:round; stroke-linejoin:round;">
</g>
<g style="fill:#848484; fill-opacity:0.0; 
stroke:#848484; stroke-width:19.685; stroke-opacity:1; 
stroke-linecap:round; stroke-linejoin:round;">
<path d="M5599 6032
L5599 6938
" />
<path d="M5127 6032
L5127 6938
" />
<path d="M5599 6032
L5127 6032
" />
<path d="M5599 6938
L5127 6938
" />
<path d="M4316 9321
L3410 9321
" />
<path d="M4316 8849
L3410 8849
" />
<path d="M4316 9321
L4316 8849
" />
<path d="M3410 9321
L3410 8849
" />
<circle cx="3863.63" cy="4185.43" r="610.236" /> 
<path d="M6499 10982
L6499 11888
" />
<path d="M6027 10982
L6027 11888
" />
<path d="M6499 10982
L6027 10982
" />
<path d="M6499 11888
L6027 11888
" />
<path d="M6716 6521
L5810 6521
" />
<path d="M6716 6049
L5810 6049
" />
<path d="M6716 6521
L6716 6049
" />
<path d="M5810 6521
L5810 6049
" />
<path d="M5719 14834
L5719 15936
" />
<path d="M5719 14834
L5207 14834
" />
<path d="M5207 15936
L5719 15936
" />
<path d="M5207 15936
L5207 14834
" />
<path d="M3207 16036
L3207 14934
" />
<path d="M3207 16036
L3719 16036
" />
<path d="M3719 14934
L3207 14934
" />
<path d="M3719 14934
L3719 16036
" />
<path d="M5557 9442
L4769 9442
" />
<path d="M5557 9442
L5557 9127
" />
<path d="M4769 9127
L4769 9442
" />
<path d="M4769 9127
L5557 9127
" />
<path d="M5957 8842
L5169 8842
" />
<path d="M5957 8842
L5957 8527
" />
<path d="M5169 8527
L5169 8842
" />
<path d="M5169 8527
L5957 8527
" />
<path d="M7096 9314
L7096 10475
" />
<path d="M7096 10475
L6230 10475
" />
<path d="M6230 10475
L6230 9314
" />
<path d="M6230 9314
L7096 9314
" />
<path d="M7039 13593
L7039 14577
" />
<path d="M7039 13593
L6488 13593
" />
<path d="M6488 14577
L7039 14577
" />
<path d="M6488 14577
L6488 13593
" />
<path d="M2839 13493
L2839 14477
" />
<path d="M2839 13493
L2288 13493
" />
<path d="M2288 14477
L2839 14477
" />
<path d="M2288 14477
L2288 13493
" />
<path d="M3055 9461
L2071 9461
" />
<path d="M3055 9461
L3055 8909
" />
<path d="M2071 8909
L2071 9461
" />
<path d="M2071 8909
L3055 8909
" />
<path d="M571 10009
L1555 10009
" />
<path d="M571 10009
L571 10561
" />
<path d="M1555 10561
L1555 10009
" />
<path d="M1555 10561
L571 10561
" />
<path d="M5794 6896
L7132 6896
" />
<path d="M7132 6896
L7132 8274
" />
<path d="M7132 8274
L5794 8274
" />
<path d="M5794 8274
L5794 6896
" />
<path d="M2026 14748
L688 14748
" />
<path d="M688 14748
L688 13370
" />
<path d="M688 13370
L2026 13370
" />
<path d="M2026 13370
L2026 14748
" />
<path d="M2488 11877
L2488 10893
" />
<path d="M2488 11877
L3039 11877
" />
<path d="M3039 10893
L2488 10893
" />
<path d="M3039 10893
L3039 11877
" />
<path d="M1688 11877
L1688 10893
" />
<path d="M1688 11877
L2239 11877
" />
<path d="M2239 10893
L1688 10893
" />
<path d="M2239 10893
L2239 11877
" />
<path d="M988 11877
L988 10893
" />
<path d="M988 11877
L1539 11877
" />
<path d="M1539 10893
L988 10893
" />
<path d="M1539 10893
L1539 11877
" />
<path d="M3088 11872
L3088 10888
" />
<path d="M3088 11872
L3639 11872
" />
<path d="M3639 10888
L3088 10888
" />
<path d="M3639 10888
L3639 11872
" />
<path d="M6239 14748
L4900 14748
" />
<path d="M4900 14748
L4900 13370
" />
<path d="M4900 13370
L6239 13370
" />
<path d="M6239 13370
L6239 14748
" />
<path d="M4639 14800
L3300 14800
" />
<path d="M3300 14800
L3300 13422
" />
<path d="M3300 13422
L4639 13422
" />
<path d="M4639 13422
L4639 14800
" />
<path d="M2731 8272
L2731 6304
" />
<path d="M2731 6304
L4699 6304
" />
<path d="M4699 6304
L4699 8272
" />
<path d="M4699 8272
L2731 8272
" />
</g>
<g style="fill:#000000; fill-opacity:0.0; 
stroke:#000000; stroke-width:19.685; stroke-opacity:1; 
stroke-linecap:round; stroke-linejoin:round;">
</g>
<g style="fill:#C2C200; fill-opacity:0.0; 
stroke:#C2C200; stroke-width:19.685; stroke-opacity:1; 
stroke-linecap:round; stroke-linejoin:round;">
</g>
<g style="fill:#C2C200; fill-opacity:0.0; 
stroke:#C2C200; stroke-width:78.7402; stroke-opacity:1; 
stroke-linecap:round; stroke-linejoin:round;">
<path d="M7463 16885
L463 16885
" />
<path d="M7463 3485
L7463 16885
" />
<path d="M463 3485
L7463 3485
" />
<path d="M463 16871
L463 3485
" />
</g> 
</svg>
