G04 #@! TF.GenerationSoftware,KiCad,Pcbnew,(2018-02-16 revision c95340fba)-makepkg*
G04 #@! TF.CreationDate,2018-05-22T14:01:30+02:00*
G04 #@! TF.ProjectId,LIN_USB_CONVERTER,4C494E5F5553425F434F4E5645525445,rev?*
G04 #@! TF.SameCoordinates,PX85b9e30PY4aad300*
G04 #@! TF.FileFunction,Copper,L1,Top,Signal*
G04 #@! TF.FilePolarity,Positive*
%FSLAX46Y46*%
G04 Gerber Fmt 4.6, Leading zero omitted, Abs format (unit mm)*
G04 Created by KiCad (PCBNEW (2018-02-16 revision c95340fba)-makepkg) date 05/22/18 14:01:30*
%MOMM*%
%LPD*%
G01*
G04 APERTURE LIST*
%ADD10R,1.250000X1.000000*%
%ADD11R,0.500000X0.900000*%
%ADD12R,0.508000X2.000000*%
%ADD13R,0.900000X0.800000*%
%ADD14R,0.600000X0.500000*%
%ADD15R,0.500000X0.600000*%
%ADD16R,1.800000X1.000000*%
%ADD17R,1.700000X1.700000*%
%ADD18O,1.700000X1.700000*%
%ADD19R,1.270000X0.970000*%
%ADD20R,0.750000X0.800000*%
%ADD21R,0.700000X0.300000*%
%ADD22R,0.300000X0.700000*%
%ADD23C,0.212000*%
%ADD24C,0.100000*%
%ADD25R,0.150000X0.150000*%
%ADD26R,0.500000X0.300000*%
%ADD27R,0.300000X0.500000*%
%ADD28C,1.000000*%
%ADD29C,2.500000*%
%ADD30R,0.900000X0.500000*%
%ADD31R,1.980000X3.960000*%
%ADD32O,1.980000X3.960000*%
%ADD33C,1.501140*%
%ADD34O,1.400000X3.800000*%
%ADD35R,0.600000X0.350000*%
%ADD36C,0.600000*%
%ADD37C,0.250000*%
%ADD38C,0.254000*%
G04 APERTURE END LIST*
D10*
X7620000Y-29835600D03*
X7620000Y-31835600D03*
D11*
X774000Y-17272000D03*
X2274000Y-17272000D03*
D12*
X3556000Y-17566000D03*
X4826000Y-17566000D03*
X6096000Y-17566000D03*
X7366000Y-17566000D03*
X7366000Y-22566000D03*
X6096000Y-22566000D03*
X4826000Y-22566000D03*
X3556000Y-22566000D03*
D11*
X6084000Y-14478000D03*
X4584000Y-14478000D03*
D13*
X14240000Y-9464000D03*
X14240000Y-11364000D03*
X16240000Y-10414000D03*
D14*
X15282000Y-7112000D03*
X14182000Y-7112000D03*
D15*
X12446000Y-7070000D03*
X12446000Y-8170000D03*
D16*
X1524000Y-15748000D03*
X1524000Y-8128000D03*
X1524000Y-10668000D03*
X1524000Y-5588000D03*
X1524000Y-13208000D03*
D17*
X15748000Y-14986000D03*
D18*
X15748000Y-17526000D03*
D19*
X15748000Y-15616000D03*
X15748000Y-16896000D03*
D13*
X9906000Y-27940000D03*
X9906000Y-26040000D03*
X7906000Y-26990000D03*
D20*
X16129000Y-21006500D03*
X16129000Y-19506500D03*
D15*
X14859000Y-19516000D03*
X14859000Y-20616000D03*
D21*
X6310000Y-8660000D03*
D22*
X7260000Y-7710000D03*
X9260000Y-7710000D03*
D21*
X10210000Y-8660000D03*
X6310000Y-10660000D03*
X10210000Y-10160000D03*
D22*
X8760000Y-11610000D03*
X7760000Y-11610000D03*
D23*
X9762920Y-7857080D03*
D24*
G36*
X9912827Y-7857080D02*
X9762920Y-8006987D01*
X9613013Y-7857080D01*
X9762920Y-7707173D01*
X9912827Y-7857080D01*
X9912827Y-7857080D01*
G37*
D23*
X9768000Y-11462920D03*
D24*
G36*
X9917907Y-11462920D02*
X9768000Y-11612827D01*
X9618093Y-11462920D01*
X9768000Y-11313013D01*
X9917907Y-11462920D01*
X9917907Y-11462920D01*
G37*
D23*
X6752000Y-7862160D03*
D24*
G36*
X6901907Y-7862160D02*
X6752000Y-8012067D01*
X6602093Y-7862160D01*
X6752000Y-7712253D01*
X6901907Y-7862160D01*
X6901907Y-7862160D01*
G37*
D23*
X6751240Y-11458320D03*
D24*
G36*
X6901147Y-11458320D02*
X6751240Y-11608227D01*
X6601333Y-11458320D01*
X6751240Y-11308413D01*
X6901147Y-11458320D01*
X6901147Y-11458320D01*
G37*
D23*
X10062920Y-8157080D03*
D24*
G36*
X10212827Y-8157080D02*
X10062920Y-8306987D01*
X9913013Y-8157080D01*
X10062920Y-8007173D01*
X10212827Y-8157080D01*
X10212827Y-8157080D01*
G37*
D23*
X10068000Y-11168000D03*
D24*
G36*
X10217907Y-11168000D02*
X10068000Y-11317907D01*
X9918093Y-11168000D01*
X10068000Y-11018093D01*
X10217907Y-11168000D01*
X10217907Y-11168000D01*
G37*
D23*
X6462160Y-8157080D03*
D24*
G36*
X6612067Y-8157080D02*
X6462160Y-8306987D01*
X6312253Y-8157080D01*
X6462160Y-8007173D01*
X6612067Y-8157080D01*
X6612067Y-8157080D01*
G37*
D23*
X6451520Y-11163680D03*
D24*
G36*
X6601427Y-11163680D02*
X6451520Y-11313587D01*
X6301613Y-11163680D01*
X6451520Y-11013773D01*
X6601427Y-11163680D01*
X6601427Y-11163680D01*
G37*
D25*
X6527720Y-11087920D03*
X6537160Y-8232080D03*
X6827000Y-7937160D03*
X9687920Y-7932080D03*
X9987920Y-8232080D03*
X9993000Y-11093000D03*
X9693000Y-11387920D03*
X6827440Y-11382120D03*
D26*
X6202600Y-11163680D03*
D21*
X6310000Y-10160000D03*
X6310000Y-9660000D03*
X6310000Y-9160000D03*
D26*
X6212760Y-8157080D03*
D27*
X6751240Y-7607680D03*
D22*
X7760000Y-7710000D03*
X8260000Y-7710000D03*
X8760000Y-7710000D03*
D27*
X9763680Y-7607680D03*
D26*
X10312320Y-8156320D03*
D21*
X10210000Y-9160000D03*
X10210000Y-9660000D03*
X10210000Y-10660000D03*
D26*
X10317400Y-11168760D03*
D27*
X9768000Y-11712320D03*
D22*
X9260000Y-11610000D03*
X8260000Y-11610000D03*
X7260000Y-11610000D03*
D27*
X6752000Y-11709040D03*
D14*
X9186000Y-14224000D03*
X8086000Y-14224000D03*
D28*
X8636000Y-1778000D03*
D29*
X1778000Y-31496000D03*
D20*
X12700000Y-29476000D03*
X12700000Y-30976000D03*
D14*
X12488000Y-14732000D03*
X11388000Y-14732000D03*
X13504000Y-13208000D03*
X12404000Y-13208000D03*
D30*
X16002000Y-26174000D03*
X16002000Y-27674000D03*
D13*
X3270000Y-27808000D03*
X3270000Y-25908000D03*
X1270000Y-26858000D03*
D17*
X10668000Y-23114000D03*
D18*
X13208000Y-23114000D03*
X15748000Y-23114000D03*
D31*
X15160000Y-31242000D03*
D32*
X10160000Y-31242000D03*
X5160000Y-31242000D03*
D30*
X5842000Y-20816000D03*
X5842000Y-19316000D03*
X3810000Y-20816000D03*
X3810000Y-19316000D03*
X2032000Y-20816000D03*
X2032000Y-19316000D03*
X7366000Y-20804000D03*
X7366000Y-19304000D03*
D13*
X13970000Y-27808000D03*
X13970000Y-25908000D03*
X11970000Y-26858000D03*
D33*
X12192860Y-4574120D03*
X9652860Y-4574120D03*
X7620860Y-4574120D03*
X5080860Y-4574120D03*
D34*
X14478000Y-2286000D03*
X2794000Y-2286000D03*
D35*
X10598000Y-20208000D03*
X10598000Y-19558000D03*
X13338000Y-18908000D03*
X10598000Y-18258000D03*
X13338000Y-20208000D03*
X13338000Y-19558000D03*
X10598000Y-18908000D03*
X13338000Y-18258000D03*
D36*
X11938000Y-10414000D03*
X3810000Y-10160000D03*
X7112000Y-14224000D03*
X10922000Y-13766000D03*
X3556000Y-15240000D03*
X8128000Y-15240000D03*
X7874000Y-12954000D03*
X3302000Y-14224000D03*
X11938000Y-17780000D03*
X1524000Y-28702000D03*
X1524000Y-24638000D03*
X2032000Y-22606000D03*
X11684000Y-19558000D03*
D37*
X12446000Y-10414000D02*
X11938000Y-10414000D01*
X13396000Y-9464000D02*
X12446000Y-10414000D01*
X14240000Y-9464000D02*
X13396000Y-9464000D01*
X12446000Y-8170000D02*
X11946000Y-8170000D01*
X11946000Y-8170000D02*
X10761000Y-6985000D01*
X9449998Y-6985000D02*
X9260000Y-7174998D01*
X10761000Y-6985000D02*
X9449998Y-6985000D01*
X9260000Y-7174998D02*
X9260000Y-7235000D01*
X9260000Y-7235000D02*
X9260000Y-7760000D01*
X8086000Y-14224000D02*
X7112000Y-14224000D01*
X11388000Y-14732000D02*
X11388000Y-14232000D01*
X11388000Y-14232000D02*
X10922000Y-13766000D01*
X8086000Y-14224000D02*
X8036000Y-14224000D01*
X8036000Y-14224000D02*
X7366000Y-14894000D01*
X7366000Y-14894000D02*
X7366000Y-18796000D01*
X7366000Y-18796000D02*
X7366000Y-19304000D01*
X11338000Y-14732000D02*
X11388000Y-14732000D01*
X12404000Y-13208000D02*
X12404000Y-13716000D01*
X12404000Y-13716000D02*
X11388000Y-14732000D01*
X14240000Y-9464000D02*
X13540000Y-9464000D01*
X13540000Y-9464000D02*
X12404000Y-10600000D01*
X12404000Y-10600000D02*
X12404000Y-12708000D01*
X12404000Y-12708000D02*
X12404000Y-13208000D01*
X2794000Y-2286000D02*
X2794000Y-3486000D01*
X2794000Y-3486000D02*
X1524000Y-4756000D01*
X1524000Y-4756000D02*
X1524000Y-4838000D01*
X1524000Y-4838000D02*
X1524000Y-5588000D01*
X5080860Y-4574120D02*
X2794000Y-2287260D01*
X2794000Y-2287260D02*
X2794000Y-2286000D01*
X8636000Y-15240000D02*
X8128000Y-15240000D01*
X1524000Y-13208000D02*
X3514000Y-13208000D01*
X3514000Y-13208000D02*
X4584000Y-14278000D01*
X4584000Y-14278000D02*
X4584000Y-14478000D01*
X2274000Y-17272000D02*
X3429000Y-17272000D01*
X3429000Y-17272000D02*
X3556000Y-17145000D01*
X2032000Y-18796000D02*
X2032000Y-19316000D01*
X4584000Y-14478000D02*
X4084000Y-14478000D01*
X4084000Y-14478000D02*
X3556000Y-15006000D01*
X3556000Y-15006000D02*
X3556000Y-17272000D01*
X3556000Y-17272000D02*
X2032000Y-18796000D01*
X1524000Y-13020000D02*
X1524000Y-13208000D01*
X9186000Y-14224000D02*
X9186000Y-14690000D01*
X9186000Y-14690000D02*
X8636000Y-15240000D01*
X12488000Y-14732000D02*
X12438000Y-14732000D01*
X12438000Y-14732000D02*
X11862999Y-15307001D01*
X11862999Y-15307001D02*
X10819001Y-15307001D01*
X10819001Y-15307001D02*
X9736000Y-14224000D01*
X9736000Y-14224000D02*
X9186000Y-14224000D01*
X13504000Y-13208000D02*
X13504000Y-12100000D01*
X13504000Y-12100000D02*
X14240000Y-11364000D01*
X12488000Y-14732000D02*
X13504000Y-13716000D01*
X13504000Y-13716000D02*
X13504000Y-13208000D01*
X8760000Y-11560000D02*
X8760000Y-11035000D01*
X8760000Y-11035000D02*
X8760000Y-7760000D01*
X11396000Y-6520000D02*
X11946000Y-7070000D01*
X9278587Y-6520000D02*
X11396000Y-6520000D01*
X8760000Y-7760000D02*
X8760000Y-7038587D01*
X11946000Y-7070000D02*
X12446000Y-7070000D01*
X8760000Y-7038587D02*
X9278587Y-6520000D01*
X8260000Y-7760000D02*
X8760000Y-7760000D01*
X8760000Y-11560000D02*
X8760000Y-13798000D01*
X8760000Y-13798000D02*
X9186000Y-14224000D01*
X1524000Y-13208000D02*
X1124000Y-13208000D01*
X1524000Y-10668000D02*
X1924000Y-10668000D01*
X1924000Y-10668000D02*
X3638999Y-8953001D01*
X3638999Y-8953001D02*
X4762999Y-8953001D01*
X4762999Y-8953001D02*
X5556000Y-8160000D01*
X5556000Y-8160000D02*
X6260000Y-8160000D01*
X6751240Y-7607680D02*
X6751240Y-7710558D01*
X1524000Y-8128000D02*
X3048000Y-8128000D01*
X3048000Y-8128000D02*
X3516000Y-7660000D01*
X3516000Y-7660000D02*
X6760000Y-7660000D01*
X3810000Y-19316000D02*
X4510000Y-19316000D01*
X4510000Y-19316000D02*
X4826000Y-19000000D01*
X4826000Y-19000000D02*
X4826000Y-18816000D01*
X4826000Y-18816000D02*
X4826000Y-17566000D01*
X4826000Y-16637000D02*
X4826000Y-15815500D01*
X4826000Y-15815500D02*
X5209010Y-15432490D01*
X5209010Y-15432490D02*
X5209010Y-11285990D01*
X5209010Y-11285990D02*
X5835000Y-10660000D01*
X5835000Y-10660000D02*
X6360000Y-10660000D01*
X4826000Y-17526000D02*
X4826000Y-16637000D01*
X4826000Y-16637000D02*
X4826000Y-16954500D01*
X6202600Y-11163680D02*
X6427439Y-11163680D01*
X6096000Y-17566000D02*
X6096000Y-18923000D01*
X6096000Y-18923000D02*
X5842000Y-19177000D01*
X5842000Y-19177000D02*
X5842000Y-19316000D01*
X6202600Y-11163680D02*
X6436338Y-11163680D01*
X6084000Y-14478000D02*
X6084000Y-12966000D01*
X6084000Y-12966000D02*
X5969000Y-12851000D01*
X5969000Y-12851000D02*
X5969000Y-11451000D01*
X5969000Y-11451000D02*
X6260000Y-11160000D01*
X6096000Y-16637000D02*
X6096000Y-14490000D01*
X6096000Y-14490000D02*
X6084000Y-14478000D01*
X7874000Y-12954000D02*
X8260000Y-12568000D01*
X8260000Y-12568000D02*
X8260000Y-11560000D01*
X3302000Y-14370000D02*
X3302000Y-14224000D01*
X1924000Y-15748000D02*
X3302000Y-14370000D01*
X774000Y-17272000D02*
X774000Y-16498000D01*
X774000Y-16498000D02*
X1524000Y-15748000D01*
X1524000Y-15748000D02*
X1924000Y-15748000D01*
X8260000Y-11560000D02*
X8260000Y-12085000D01*
X12192860Y-4574120D02*
X12943429Y-5324689D01*
X15282000Y-7112000D02*
X15282000Y-6612000D01*
X15282000Y-6612000D02*
X13994689Y-5324689D01*
X13994689Y-5324689D02*
X12943429Y-5324689D01*
X16240000Y-10414000D02*
X16240000Y-8020000D01*
X16240000Y-8020000D02*
X15332000Y-7112000D01*
X15332000Y-7112000D02*
X15282000Y-7112000D01*
X7620000Y-31835600D02*
X7620000Y-31230000D01*
X16129000Y-19643000D02*
X14782000Y-19643000D01*
X16256000Y-19516000D02*
X16129000Y-19643000D01*
X14782000Y-19643000D02*
X14047000Y-18908000D01*
X14047000Y-18908000D02*
X13970000Y-18908000D01*
X10921002Y-17526000D02*
X10160000Y-17526000D01*
X11683002Y-18288000D02*
X10921002Y-17526000D01*
X10160000Y-17526000D02*
X9005978Y-18680022D01*
X9005978Y-18680022D02*
X9005978Y-20180022D01*
X9005978Y-20180022D02*
X7366000Y-21820000D01*
X7366000Y-21820000D02*
X7366000Y-22566000D01*
X11683002Y-18034998D02*
X11938000Y-17780000D01*
X12303002Y-18908000D02*
X11683002Y-18288000D01*
X11683002Y-18288000D02*
X11683002Y-18034998D01*
X13970000Y-18908000D02*
X13338000Y-18908000D01*
X13970000Y-18908000D02*
X12303002Y-18908000D01*
X9906000Y-27940000D02*
X9906000Y-30988000D01*
X9906000Y-30988000D02*
X10160000Y-31242000D01*
X14032000Y-18908000D02*
X13970000Y-18908000D01*
X10540000Y-30862000D02*
X10160000Y-31242000D01*
X1524000Y-28702000D02*
X1524000Y-31242000D01*
X1524000Y-31242000D02*
X1778000Y-31496000D01*
X12700000Y-29476000D02*
X10908000Y-29476000D01*
X12700000Y-29476000D02*
X12075000Y-29476000D01*
X10309000Y-31242000D02*
X10160000Y-31242000D01*
X12075000Y-29476000D02*
X10309000Y-31242000D01*
X7620000Y-31230000D02*
X10148000Y-31230000D01*
X10148000Y-31230000D02*
X10160000Y-31242000D01*
X15748000Y-14986000D02*
X14648000Y-14986000D01*
X13268000Y-16450000D02*
X13268000Y-18258000D01*
X13268000Y-18258000D02*
X14740998Y-18258000D01*
X15183999Y-18701001D02*
X16850979Y-18701001D01*
X16850979Y-18701001D02*
X16850979Y-21757021D01*
X14740998Y-18258000D02*
X15183999Y-18701001D01*
X13462000Y-16256000D02*
X13268000Y-16450000D01*
X14648000Y-14986000D02*
X13462000Y-16172000D01*
X13462000Y-16172000D02*
X13462000Y-16256000D01*
X16850979Y-21757021D02*
X15494000Y-23114000D01*
X15494000Y-23114000D02*
X15494000Y-24316081D01*
X15494000Y-24316081D02*
X15494000Y-23368000D01*
X15494000Y-23368000D02*
X15748000Y-23114000D01*
X15494000Y-24316081D02*
X14986000Y-24824081D01*
X15466998Y-26924000D02*
X16764000Y-26924000D01*
X17018000Y-27178000D02*
X17018000Y-28394000D01*
X14986000Y-24824081D02*
X14986000Y-26443002D01*
X14986000Y-26443002D02*
X15466998Y-26924000D01*
X16764000Y-26924000D02*
X17018000Y-27178000D01*
X17018000Y-28394000D02*
X15160000Y-30252000D01*
X15160000Y-30252000D02*
X15160000Y-31242000D01*
X12700000Y-30976000D02*
X14894000Y-30976000D01*
X14894000Y-30976000D02*
X15160000Y-31242000D01*
X11484998Y-27808000D02*
X10666998Y-26990000D01*
X13970000Y-27808000D02*
X11484998Y-27808000D01*
X10666998Y-26990000D02*
X9298998Y-26990000D01*
X9298998Y-26990000D02*
X7906000Y-26990000D01*
X1270000Y-26858000D02*
X7890000Y-26858000D01*
X7890000Y-26858000D02*
X7555000Y-26858000D01*
X10827001Y-21938999D02*
X12506000Y-20260000D01*
X9130999Y-25815001D02*
X9130999Y-22365998D01*
X9557998Y-21938999D02*
X10827001Y-21938999D01*
X7906000Y-26990000D02*
X7956000Y-26990000D01*
X7956000Y-26990000D02*
X9130999Y-25815001D01*
X9130999Y-22365998D02*
X9557998Y-21938999D01*
X7620000Y-29730000D02*
X7620000Y-27276000D01*
X7620000Y-27276000D02*
X7906000Y-26990000D01*
X12558000Y-20208000D02*
X13268000Y-20208000D01*
X12192000Y-20574000D02*
X12558000Y-20208000D01*
X16002000Y-25674000D02*
X17300990Y-24375010D01*
X16002000Y-26174000D02*
X16002000Y-25674000D01*
X17300990Y-24375010D02*
X17300990Y-17876909D01*
X16950081Y-17526000D02*
X15748000Y-17526000D01*
X17300990Y-17876909D02*
X16950081Y-17526000D01*
X7760000Y-7760000D02*
X7760000Y-6466980D01*
X7760000Y-6466980D02*
X9652860Y-4574120D01*
X7260000Y-7760000D02*
X7260000Y-4934980D01*
X7260000Y-4934980D02*
X7620860Y-4574120D01*
X6752000Y-11709040D02*
X6752000Y-11487921D01*
X10668000Y-23114000D02*
X10668000Y-23842998D01*
X3297000Y-27808000D02*
X5397500Y-29908500D01*
X3270000Y-27808000D02*
X3297000Y-27808000D01*
X5397500Y-29908500D02*
X5160000Y-30146000D01*
X5160000Y-30146000D02*
X5160000Y-31242000D01*
X5160000Y-31242000D02*
X5922000Y-30480000D01*
X5160000Y-32232000D02*
X5160000Y-31242000D01*
X14759000Y-20574000D02*
X14986000Y-20574000D01*
X13743000Y-19558000D02*
X14759000Y-20574000D01*
X14986000Y-20574000D02*
X15155000Y-20743000D01*
X15155000Y-20743000D02*
X16129000Y-20743000D01*
X13743000Y-19558000D02*
X13338000Y-19558000D01*
X10668000Y-20208000D02*
X11143000Y-20208000D01*
X11143000Y-20208000D02*
X11793000Y-19558000D01*
X11793000Y-19558000D02*
X13743000Y-19558000D01*
X3556000Y-23495000D02*
X3556000Y-22673500D01*
X3556000Y-23495000D02*
X3052000Y-23495000D01*
X3052000Y-23495000D02*
X2032000Y-22475000D01*
X2032000Y-22475000D02*
X2032000Y-21316000D01*
X2032000Y-21316000D02*
X2032000Y-20816000D01*
X2032000Y-22352000D02*
X2032000Y-20816000D01*
X7426000Y-25146000D02*
X6096000Y-23816000D01*
X8230976Y-24662024D02*
X7747000Y-25146000D01*
X6096000Y-23816000D02*
X6096000Y-22566000D01*
X8230976Y-21993200D02*
X8230976Y-24662024D01*
X9455989Y-20768187D02*
X8230976Y-21993200D01*
X9455989Y-19008600D02*
X9455989Y-20768187D01*
X10206589Y-18258000D02*
X9455989Y-19008600D01*
X10668000Y-18258000D02*
X10206589Y-18258000D01*
X7747000Y-25146000D02*
X7426000Y-25146000D01*
X5842000Y-20816000D02*
X5842000Y-22312000D01*
X5842000Y-22312000D02*
X6096000Y-22566000D01*
X5842000Y-21316000D02*
X5842000Y-20816000D01*
X8680987Y-25483424D02*
X8510411Y-25654000D01*
X9906000Y-19195000D02*
X9906000Y-20954587D01*
X6348590Y-25654000D02*
X4826000Y-24131410D01*
X10668000Y-18908000D02*
X10193000Y-18908000D01*
X10193000Y-18908000D02*
X9906000Y-19195000D01*
X9906000Y-20954587D02*
X8680987Y-22179600D01*
X8680987Y-22179600D02*
X8680987Y-25483424D01*
X8510411Y-25654000D02*
X6348590Y-25654000D01*
X4826000Y-24131410D02*
X4826000Y-23495000D01*
X3810000Y-20816000D02*
X4826000Y-21832000D01*
X4826000Y-21832000D02*
X4826000Y-22566000D01*
X4826000Y-23304500D02*
X4826000Y-22332000D01*
X11970000Y-26858000D02*
X14455002Y-26858000D01*
X14455002Y-26858000D02*
X15271002Y-27674000D01*
X15271002Y-27674000D02*
X15302000Y-27674000D01*
X15302000Y-27674000D02*
X16002000Y-27674000D01*
X15868000Y-27808000D02*
X16002000Y-27674000D01*
D38*
G36*
X7024588Y-12582293D02*
X6947000Y-12769608D01*
X6947000Y-13138392D01*
X7088127Y-13479103D01*
X7240542Y-13631518D01*
X7151000Y-13847690D01*
X7151000Y-13940250D01*
X7309750Y-14099000D01*
X7959000Y-14099000D01*
X7959000Y-14077000D01*
X8048765Y-14077000D01*
X8051632Y-14091415D01*
X8126818Y-14203938D01*
X8199692Y-14313000D01*
X7943608Y-14313000D01*
X7856696Y-14349000D01*
X7309750Y-14349000D01*
X7151000Y-14507750D01*
X7151000Y-14600310D01*
X7247673Y-14833699D01*
X7279666Y-14865692D01*
X7201000Y-15055608D01*
X7201000Y-15424392D01*
X7342127Y-15765103D01*
X7579887Y-16002863D01*
X7493000Y-16089750D01*
X7493000Y-17439000D01*
X7513000Y-17439000D01*
X7513000Y-17693000D01*
X7493000Y-17693000D01*
X7493000Y-17713000D01*
X7239000Y-17713000D01*
X7239000Y-17693000D01*
X7219000Y-17693000D01*
X7219000Y-17439000D01*
X7239000Y-17439000D01*
X7239000Y-16089750D01*
X7080250Y-15931000D01*
X6985691Y-15931000D01*
X6848000Y-15988034D01*
X6848000Y-15287313D01*
X6924620Y-15172643D01*
X6973283Y-14928000D01*
X6973283Y-14028000D01*
X6924620Y-13783357D01*
X6836000Y-13650728D01*
X6836000Y-13040059D01*
X6850731Y-12966000D01*
X6836000Y-12891941D01*
X6836000Y-12891937D01*
X6792368Y-12672584D01*
X6742748Y-12598323D01*
X6902000Y-12598323D01*
X7003587Y-12578116D01*
X7024588Y-12582293D01*
X7024588Y-12582293D01*
G37*
X7024588Y-12582293D02*
X6947000Y-12769608D01*
X6947000Y-13138392D01*
X7088127Y-13479103D01*
X7240542Y-13631518D01*
X7151000Y-13847690D01*
X7151000Y-13940250D01*
X7309750Y-14099000D01*
X7959000Y-14099000D01*
X7959000Y-14077000D01*
X8048765Y-14077000D01*
X8051632Y-14091415D01*
X8126818Y-14203938D01*
X8199692Y-14313000D01*
X7943608Y-14313000D01*
X7856696Y-14349000D01*
X7309750Y-14349000D01*
X7151000Y-14507750D01*
X7151000Y-14600310D01*
X7247673Y-14833699D01*
X7279666Y-14865692D01*
X7201000Y-15055608D01*
X7201000Y-15424392D01*
X7342127Y-15765103D01*
X7579887Y-16002863D01*
X7493000Y-16089750D01*
X7493000Y-17439000D01*
X7513000Y-17439000D01*
X7513000Y-17693000D01*
X7493000Y-17693000D01*
X7493000Y-17713000D01*
X7239000Y-17713000D01*
X7239000Y-17693000D01*
X7219000Y-17693000D01*
X7219000Y-17439000D01*
X7239000Y-17439000D01*
X7239000Y-16089750D01*
X7080250Y-15931000D01*
X6985691Y-15931000D01*
X6848000Y-15988034D01*
X6848000Y-15287313D01*
X6924620Y-15172643D01*
X6973283Y-14928000D01*
X6973283Y-14028000D01*
X6924620Y-13783357D01*
X6836000Y-13650728D01*
X6836000Y-13040059D01*
X6850731Y-12966000D01*
X6836000Y-12891941D01*
X6836000Y-12891937D01*
X6792368Y-12672584D01*
X6742748Y-12598323D01*
X6902000Y-12598323D01*
X7003587Y-12578116D01*
X7024588Y-12582293D01*
G36*
X14309000Y-6987000D02*
X14329000Y-6987000D01*
X14329000Y-7237000D01*
X14309000Y-7237000D01*
X14309000Y-7838250D01*
X14467750Y-7997000D01*
X14608309Y-7997000D01*
X14728974Y-7947019D01*
X14737357Y-7952620D01*
X14982000Y-8001283D01*
X15157796Y-8001283D01*
X15488001Y-8331489D01*
X15488000Y-9461704D01*
X15337959Y-9561959D01*
X15257550Y-9682300D01*
X15166250Y-9591000D01*
X14367000Y-9591000D01*
X14367000Y-9611000D01*
X14113000Y-9611000D01*
X14113000Y-9591000D01*
X13313750Y-9591000D01*
X13155000Y-9749750D01*
X13155000Y-9990310D01*
X13251673Y-10223699D01*
X13430302Y-10402327D01*
X13474584Y-10420669D01*
X13337959Y-10511959D01*
X13199380Y-10719357D01*
X13150717Y-10964000D01*
X13150717Y-11389796D01*
X13024627Y-11515886D01*
X12961840Y-11557839D01*
X12919887Y-11620626D01*
X12919886Y-11620627D01*
X12795632Y-11806585D01*
X12737269Y-12100000D01*
X12752001Y-12174063D01*
X12752001Y-12323000D01*
X12689750Y-12323000D01*
X12531000Y-12481750D01*
X12531000Y-13083000D01*
X12551000Y-13083000D01*
X12551000Y-13333000D01*
X12531000Y-13333000D01*
X12531000Y-13355000D01*
X12277000Y-13355000D01*
X12277000Y-13333000D01*
X11627750Y-13333000D01*
X11469000Y-13491750D01*
X11469000Y-13584310D01*
X11565673Y-13817699D01*
X11634362Y-13886388D01*
X11515000Y-14005750D01*
X11515000Y-14555001D01*
X11261000Y-14555001D01*
X11261000Y-14005750D01*
X11102250Y-13847000D01*
X10961691Y-13847000D01*
X10728302Y-13943673D01*
X10623731Y-14048244D01*
X10320116Y-13744629D01*
X10278161Y-13681839D01*
X10029416Y-13515632D01*
X9885826Y-13487070D01*
X9730643Y-13383380D01*
X9512000Y-13339889D01*
X9512000Y-12831690D01*
X11469000Y-12831690D01*
X11469000Y-12924250D01*
X11627750Y-13083000D01*
X12277000Y-13083000D01*
X12277000Y-12481750D01*
X12118250Y-12323000D01*
X11977691Y-12323000D01*
X11744302Y-12419673D01*
X11565673Y-12598301D01*
X11469000Y-12831690D01*
X9512000Y-12831690D01*
X9512000Y-12580518D01*
X9618000Y-12601603D01*
X9918000Y-12601603D01*
X10162643Y-12552940D01*
X10370041Y-12414361D01*
X10508620Y-12206963D01*
X10557283Y-11962320D01*
X10557283Y-11958043D01*
X10567400Y-11958043D01*
X10812043Y-11909380D01*
X11019441Y-11770801D01*
X11158020Y-11563403D01*
X11206683Y-11318760D01*
X11206683Y-11018760D01*
X11182220Y-10895779D01*
X11199283Y-10810000D01*
X11199283Y-10510000D01*
X11179392Y-10410000D01*
X11199283Y-10310000D01*
X11199283Y-10010000D01*
X11179392Y-9910000D01*
X11199283Y-9810000D01*
X11199283Y-9510000D01*
X11179392Y-9410000D01*
X11199283Y-9310000D01*
X11199283Y-9010000D01*
X11179392Y-8910000D01*
X11199283Y-8810000D01*
X11199283Y-8510000D01*
X11188493Y-8455750D01*
X11561000Y-8455750D01*
X11561000Y-8596309D01*
X11657673Y-8829698D01*
X11836301Y-9008327D01*
X12069690Y-9105000D01*
X12162250Y-9105000D01*
X12321000Y-8946250D01*
X12321000Y-8297000D01*
X12571000Y-8297000D01*
X12571000Y-8946250D01*
X12729750Y-9105000D01*
X12822310Y-9105000D01*
X13055699Y-9008327D01*
X13175269Y-8888756D01*
X13155000Y-8937690D01*
X13155000Y-9178250D01*
X13313750Y-9337000D01*
X14113000Y-9337000D01*
X14113000Y-8587750D01*
X14367000Y-8587750D01*
X14367000Y-9337000D01*
X15166250Y-9337000D01*
X15325000Y-9178250D01*
X15325000Y-8937690D01*
X15228327Y-8704301D01*
X15049698Y-8525673D01*
X14816309Y-8429000D01*
X14525750Y-8429000D01*
X14367000Y-8587750D01*
X14113000Y-8587750D01*
X13954250Y-8429000D01*
X13663691Y-8429000D01*
X13430302Y-8525673D01*
X13310731Y-8645244D01*
X13331000Y-8596309D01*
X13331000Y-8455750D01*
X13172250Y-8297000D01*
X12571000Y-8297000D01*
X12321000Y-8297000D01*
X11719750Y-8297000D01*
X11561000Y-8455750D01*
X11188493Y-8455750D01*
X11180186Y-8413992D01*
X11201603Y-8306320D01*
X11201603Y-8006320D01*
X11152940Y-7761677D01*
X11014361Y-7554279D01*
X10806963Y-7415700D01*
X10562320Y-7367037D01*
X10552963Y-7367037D01*
X10552963Y-7357680D01*
X10535920Y-7272000D01*
X11084512Y-7272000D01*
X11361887Y-7549376D01*
X11403839Y-7612161D01*
X11466623Y-7654112D01*
X11466625Y-7654114D01*
X11514252Y-7685937D01*
X11569603Y-7722922D01*
X11561000Y-7743691D01*
X11561000Y-7884250D01*
X11719750Y-8043000D01*
X12321000Y-8043000D01*
X12321000Y-8023000D01*
X12571000Y-8023000D01*
X12571000Y-8043000D01*
X13172250Y-8043000D01*
X13331000Y-7884250D01*
X13331000Y-7743691D01*
X13281019Y-7623026D01*
X13286620Y-7614643D01*
X13290743Y-7593915D01*
X13343673Y-7721699D01*
X13522302Y-7900327D01*
X13755691Y-7997000D01*
X13896250Y-7997000D01*
X14055000Y-7838250D01*
X14055000Y-7237000D01*
X14035000Y-7237000D01*
X14035000Y-6987000D01*
X14055000Y-6987000D01*
X14055000Y-6965000D01*
X14309000Y-6965000D01*
X14309000Y-6987000D01*
X14309000Y-6987000D01*
G37*
X14309000Y-6987000D02*
X14329000Y-6987000D01*
X14329000Y-7237000D01*
X14309000Y-7237000D01*
X14309000Y-7838250D01*
X14467750Y-7997000D01*
X14608309Y-7997000D01*
X14728974Y-7947019D01*
X14737357Y-7952620D01*
X14982000Y-8001283D01*
X15157796Y-8001283D01*
X15488001Y-8331489D01*
X15488000Y-9461704D01*
X15337959Y-9561959D01*
X15257550Y-9682300D01*
X15166250Y-9591000D01*
X14367000Y-9591000D01*
X14367000Y-9611000D01*
X14113000Y-9611000D01*
X14113000Y-9591000D01*
X13313750Y-9591000D01*
X13155000Y-9749750D01*
X13155000Y-9990310D01*
X13251673Y-10223699D01*
X13430302Y-10402327D01*
X13474584Y-10420669D01*
X13337959Y-10511959D01*
X13199380Y-10719357D01*
X13150717Y-10964000D01*
X13150717Y-11389796D01*
X13024627Y-11515886D01*
X12961840Y-11557839D01*
X12919887Y-11620626D01*
X12919886Y-11620627D01*
X12795632Y-11806585D01*
X12737269Y-12100000D01*
X12752001Y-12174063D01*
X12752001Y-12323000D01*
X12689750Y-12323000D01*
X12531000Y-12481750D01*
X12531000Y-13083000D01*
X12551000Y-13083000D01*
X12551000Y-13333000D01*
X12531000Y-13333000D01*
X12531000Y-13355000D01*
X12277000Y-13355000D01*
X12277000Y-13333000D01*
X11627750Y-13333000D01*
X11469000Y-13491750D01*
X11469000Y-13584310D01*
X11565673Y-13817699D01*
X11634362Y-13886388D01*
X11515000Y-14005750D01*
X11515000Y-14555001D01*
X11261000Y-14555001D01*
X11261000Y-14005750D01*
X11102250Y-13847000D01*
X10961691Y-13847000D01*
X10728302Y-13943673D01*
X10623731Y-14048244D01*
X10320116Y-13744629D01*
X10278161Y-13681839D01*
X10029416Y-13515632D01*
X9885826Y-13487070D01*
X9730643Y-13383380D01*
X9512000Y-13339889D01*
X9512000Y-12831690D01*
X11469000Y-12831690D01*
X11469000Y-12924250D01*
X11627750Y-13083000D01*
X12277000Y-13083000D01*
X12277000Y-12481750D01*
X12118250Y-12323000D01*
X11977691Y-12323000D01*
X11744302Y-12419673D01*
X11565673Y-12598301D01*
X11469000Y-12831690D01*
X9512000Y-12831690D01*
X9512000Y-12580518D01*
X9618000Y-12601603D01*
X9918000Y-12601603D01*
X10162643Y-12552940D01*
X10370041Y-12414361D01*
X10508620Y-12206963D01*
X10557283Y-11962320D01*
X10557283Y-11958043D01*
X10567400Y-11958043D01*
X10812043Y-11909380D01*
X11019441Y-11770801D01*
X11158020Y-11563403D01*
X11206683Y-11318760D01*
X11206683Y-11018760D01*
X11182220Y-10895779D01*
X11199283Y-10810000D01*
X11199283Y-10510000D01*
X11179392Y-10410000D01*
X11199283Y-10310000D01*
X11199283Y-10010000D01*
X11179392Y-9910000D01*
X11199283Y-9810000D01*
X11199283Y-9510000D01*
X11179392Y-9410000D01*
X11199283Y-9310000D01*
X11199283Y-9010000D01*
X11179392Y-8910000D01*
X11199283Y-8810000D01*
X11199283Y-8510000D01*
X11188493Y-8455750D01*
X11561000Y-8455750D01*
X11561000Y-8596309D01*
X11657673Y-8829698D01*
X11836301Y-9008327D01*
X12069690Y-9105000D01*
X12162250Y-9105000D01*
X12321000Y-8946250D01*
X12321000Y-8297000D01*
X12571000Y-8297000D01*
X12571000Y-8946250D01*
X12729750Y-9105000D01*
X12822310Y-9105000D01*
X13055699Y-9008327D01*
X13175269Y-8888756D01*
X13155000Y-8937690D01*
X13155000Y-9178250D01*
X13313750Y-9337000D01*
X14113000Y-9337000D01*
X14113000Y-8587750D01*
X14367000Y-8587750D01*
X14367000Y-9337000D01*
X15166250Y-9337000D01*
X15325000Y-9178250D01*
X15325000Y-8937690D01*
X15228327Y-8704301D01*
X15049698Y-8525673D01*
X14816309Y-8429000D01*
X14525750Y-8429000D01*
X14367000Y-8587750D01*
X14113000Y-8587750D01*
X13954250Y-8429000D01*
X13663691Y-8429000D01*
X13430302Y-8525673D01*
X13310731Y-8645244D01*
X13331000Y-8596309D01*
X13331000Y-8455750D01*
X13172250Y-8297000D01*
X12571000Y-8297000D01*
X12321000Y-8297000D01*
X11719750Y-8297000D01*
X11561000Y-8455750D01*
X11188493Y-8455750D01*
X11180186Y-8413992D01*
X11201603Y-8306320D01*
X11201603Y-8006320D01*
X11152940Y-7761677D01*
X11014361Y-7554279D01*
X10806963Y-7415700D01*
X10562320Y-7367037D01*
X10552963Y-7367037D01*
X10552963Y-7357680D01*
X10535920Y-7272000D01*
X11084512Y-7272000D01*
X11361887Y-7549376D01*
X11403839Y-7612161D01*
X11466623Y-7654112D01*
X11466625Y-7654114D01*
X11514252Y-7685937D01*
X11569603Y-7722922D01*
X11561000Y-7743691D01*
X11561000Y-7884250D01*
X11719750Y-8043000D01*
X12321000Y-8043000D01*
X12321000Y-8023000D01*
X12571000Y-8023000D01*
X12571000Y-8043000D01*
X13172250Y-8043000D01*
X13331000Y-7884250D01*
X13331000Y-7743691D01*
X13281019Y-7623026D01*
X13286620Y-7614643D01*
X13290743Y-7593915D01*
X13343673Y-7721699D01*
X13522302Y-7900327D01*
X13755691Y-7997000D01*
X13896250Y-7997000D01*
X14055000Y-7838250D01*
X14055000Y-7237000D01*
X14035000Y-7237000D01*
X14035000Y-6987000D01*
X14055000Y-6987000D01*
X14055000Y-6965000D01*
X14309000Y-6965000D01*
X14309000Y-6987000D01*
G36*
X5320717Y-9510000D02*
X5320717Y-9810000D01*
X5340608Y-9910000D01*
X5320717Y-10010000D01*
X5320717Y-10099211D01*
X5292839Y-10117839D01*
X5250887Y-10180624D01*
X4729637Y-10701876D01*
X4666850Y-10743829D01*
X4624897Y-10806616D01*
X4624896Y-10806617D01*
X4500642Y-10992575D01*
X4442279Y-11285990D01*
X4457011Y-11360054D01*
X4457011Y-13087523D01*
X4098116Y-12728629D01*
X4056161Y-12665839D01*
X3807416Y-12499632D01*
X3588063Y-12456000D01*
X3588059Y-12456000D01*
X3514000Y-12441269D01*
X3439941Y-12456000D01*
X3009704Y-12456000D01*
X2876041Y-12255959D01*
X2668643Y-12117380D01*
X2424000Y-12068717D01*
X727000Y-12068717D01*
X727000Y-11807283D01*
X2424000Y-11807283D01*
X2668643Y-11758620D01*
X2876041Y-11620041D01*
X3014620Y-11412643D01*
X3063283Y-11168000D01*
X3063283Y-10592204D01*
X3950487Y-9705001D01*
X4688940Y-9705001D01*
X4762999Y-9719732D01*
X4837058Y-9705001D01*
X4837062Y-9705001D01*
X5056415Y-9661369D01*
X5305160Y-9495162D01*
X5331514Y-9455721D01*
X5320717Y-9510000D01*
X5320717Y-9510000D01*
G37*
X5320717Y-9510000D02*
X5320717Y-9810000D01*
X5340608Y-9910000D01*
X5320717Y-10010000D01*
X5320717Y-10099211D01*
X5292839Y-10117839D01*
X5250887Y-10180624D01*
X4729637Y-10701876D01*
X4666850Y-10743829D01*
X4624897Y-10806616D01*
X4624896Y-10806617D01*
X4500642Y-10992575D01*
X4442279Y-11285990D01*
X4457011Y-11360054D01*
X4457011Y-13087523D01*
X4098116Y-12728629D01*
X4056161Y-12665839D01*
X3807416Y-12499632D01*
X3588063Y-12456000D01*
X3588059Y-12456000D01*
X3514000Y-12441269D01*
X3439941Y-12456000D01*
X3009704Y-12456000D01*
X2876041Y-12255959D01*
X2668643Y-12117380D01*
X2424000Y-12068717D01*
X727000Y-12068717D01*
X727000Y-11807283D01*
X2424000Y-11807283D01*
X2668643Y-11758620D01*
X2876041Y-11620041D01*
X3014620Y-11412643D01*
X3063283Y-11168000D01*
X3063283Y-10592204D01*
X3950487Y-9705001D01*
X4688940Y-9705001D01*
X4762999Y-9719732D01*
X4837058Y-9705001D01*
X4837062Y-9705001D01*
X5056415Y-9661369D01*
X5305160Y-9495162D01*
X5331514Y-9455721D01*
X5320717Y-9510000D01*
G36*
X13143000Y-959000D02*
X13143000Y-2159000D01*
X14351000Y-2159000D01*
X14351000Y-2139000D01*
X14605000Y-2139000D01*
X14605000Y-2159000D01*
X15813000Y-2159000D01*
X15813000Y-959000D01*
X15743466Y-727000D01*
X17053000Y-727000D01*
X17053000Y-9502464D01*
X16992000Y-9461705D01*
X16992000Y-8094059D01*
X17006731Y-8020000D01*
X16992000Y-7945941D01*
X16992000Y-7945937D01*
X16948368Y-7726584D01*
X16782161Y-7477839D01*
X16719373Y-7435885D01*
X16221283Y-6937796D01*
X16221283Y-6862000D01*
X16172620Y-6617357D01*
X16034041Y-6409959D01*
X16004635Y-6390311D01*
X15990368Y-6318584D01*
X15824161Y-6069839D01*
X15761373Y-6027885D01*
X14578805Y-4845318D01*
X14562556Y-4821000D01*
X14605002Y-4821000D01*
X14605002Y-4655375D01*
X14811329Y-4778716D01*
X14871550Y-4767980D01*
X15332185Y-4519790D01*
X15662778Y-4114215D01*
X15813000Y-3613000D01*
X15813000Y-2413000D01*
X14605000Y-2413000D01*
X14605000Y-2433000D01*
X14351000Y-2433000D01*
X14351000Y-2413000D01*
X13143000Y-2413000D01*
X13143000Y-3576082D01*
X12973191Y-3406273D01*
X12466876Y-3196550D01*
X11918844Y-3196550D01*
X11770288Y-3258084D01*
X12089364Y-2939008D01*
X12299000Y-2432902D01*
X12299000Y-1885098D01*
X12089364Y-1378992D01*
X11702008Y-991636D01*
X11195902Y-782000D01*
X10648098Y-782000D01*
X10141992Y-991636D01*
X9915992Y-1217636D01*
X9820320Y-986663D01*
X9560657Y-727000D01*
X13212534Y-727000D01*
X13143000Y-959000D01*
X13143000Y-959000D01*
G37*
X13143000Y-959000D02*
X13143000Y-2159000D01*
X14351000Y-2159000D01*
X14351000Y-2139000D01*
X14605000Y-2139000D01*
X14605000Y-2159000D01*
X15813000Y-2159000D01*
X15813000Y-959000D01*
X15743466Y-727000D01*
X17053000Y-727000D01*
X17053000Y-9502464D01*
X16992000Y-9461705D01*
X16992000Y-8094059D01*
X17006731Y-8020000D01*
X16992000Y-7945941D01*
X16992000Y-7945937D01*
X16948368Y-7726584D01*
X16782161Y-7477839D01*
X16719373Y-7435885D01*
X16221283Y-6937796D01*
X16221283Y-6862000D01*
X16172620Y-6617357D01*
X16034041Y-6409959D01*
X16004635Y-6390311D01*
X15990368Y-6318584D01*
X15824161Y-6069839D01*
X15761373Y-6027885D01*
X14578805Y-4845318D01*
X14562556Y-4821000D01*
X14605002Y-4821000D01*
X14605002Y-4655375D01*
X14811329Y-4778716D01*
X14871550Y-4767980D01*
X15332185Y-4519790D01*
X15662778Y-4114215D01*
X15813000Y-3613000D01*
X15813000Y-2413000D01*
X14605000Y-2413000D01*
X14605000Y-2433000D01*
X14351000Y-2433000D01*
X14351000Y-2413000D01*
X13143000Y-2413000D01*
X13143000Y-3576082D01*
X12973191Y-3406273D01*
X12466876Y-3196550D01*
X11918844Y-3196550D01*
X11770288Y-3258084D01*
X12089364Y-2939008D01*
X12299000Y-2432902D01*
X12299000Y-1885098D01*
X12089364Y-1378992D01*
X11702008Y-991636D01*
X11195902Y-782000D01*
X10648098Y-782000D01*
X10141992Y-991636D01*
X9915992Y-1217636D01*
X9820320Y-986663D01*
X9560657Y-727000D01*
X13212534Y-727000D01*
X13143000Y-959000D01*
G36*
X1459000Y-959000D02*
X1459000Y-2159000D01*
X2667000Y-2159000D01*
X2667000Y-2139000D01*
X2921000Y-2139000D01*
X2921000Y-2159000D01*
X4129000Y-2159000D01*
X4129000Y-959000D01*
X4059466Y-727000D01*
X7711343Y-727000D01*
X7451680Y-986663D01*
X7356008Y-1217636D01*
X7130008Y-991636D01*
X6623902Y-782000D01*
X6076098Y-782000D01*
X5569992Y-991636D01*
X5182636Y-1378992D01*
X4973000Y-1885098D01*
X4973000Y-2432902D01*
X5182636Y-2939008D01*
X5494120Y-3250492D01*
X5285826Y-3176353D01*
X4735322Y-3204315D01*
X4356595Y-3361189D01*
X4288536Y-3602188D01*
X4173483Y-3487135D01*
X4129000Y-3531618D01*
X4129000Y-2413000D01*
X2921000Y-2413000D01*
X2921000Y-2433000D01*
X2667000Y-2433000D01*
X2667000Y-2413000D01*
X1459000Y-2413000D01*
X1459000Y-3613000D01*
X1609222Y-4114215D01*
X1885373Y-4453000D01*
X1809750Y-4453000D01*
X1651000Y-4611750D01*
X1651000Y-5461000D01*
X2900250Y-5461000D01*
X3059000Y-5302250D01*
X3059000Y-4961691D01*
X2962327Y-4728302D01*
X2921002Y-4686977D01*
X2921002Y-4655375D01*
X3127329Y-4778716D01*
X3187550Y-4767980D01*
X3648185Y-4519790D01*
X3688248Y-4470640D01*
X3711055Y-4919658D01*
X3867929Y-5298385D01*
X4108930Y-5366445D01*
X4901255Y-4574120D01*
X4887113Y-4559978D01*
X5066718Y-4380373D01*
X5080860Y-4394515D01*
X5873185Y-3602190D01*
X5825136Y-3432048D01*
X6076098Y-3536000D01*
X6623902Y-3536000D01*
X6772250Y-3474552D01*
X6453013Y-3793789D01*
X6361790Y-4014020D01*
X6293791Y-3849855D01*
X6052790Y-3781795D01*
X5260465Y-4574120D01*
X6052790Y-5366445D01*
X6293791Y-5298385D01*
X6356644Y-5121797D01*
X6453013Y-5354451D01*
X6508001Y-5409439D01*
X6508000Y-6736944D01*
X6356597Y-6767060D01*
X6149199Y-6905639D01*
X6147621Y-6908000D01*
X3590059Y-6908000D01*
X3516000Y-6893269D01*
X3441941Y-6908000D01*
X3441937Y-6908000D01*
X3222584Y-6951632D01*
X2973839Y-7117839D01*
X2931884Y-7180629D01*
X2900279Y-7212234D01*
X2876041Y-7175959D01*
X2668643Y-7037380D01*
X2424000Y-6988717D01*
X727000Y-6988717D01*
X727000Y-6723000D01*
X1238250Y-6723000D01*
X1397000Y-6564250D01*
X1397000Y-5715000D01*
X1651000Y-5715000D01*
X1651000Y-6564250D01*
X1809750Y-6723000D01*
X2550310Y-6723000D01*
X2783699Y-6626327D01*
X2962327Y-6447698D01*
X3059000Y-6214309D01*
X3059000Y-5873750D01*
X2900250Y-5715000D01*
X1651000Y-5715000D01*
X1397000Y-5715000D01*
X1377000Y-5715000D01*
X1377000Y-5546050D01*
X4288535Y-5546050D01*
X4356595Y-5787051D01*
X4875894Y-5971887D01*
X5426398Y-5943925D01*
X5805125Y-5787051D01*
X5873185Y-5546050D01*
X5080860Y-4753725D01*
X4288535Y-5546050D01*
X1377000Y-5546050D01*
X1377000Y-5461000D01*
X1397000Y-5461000D01*
X1397000Y-4611750D01*
X1238250Y-4453000D01*
X727000Y-4453000D01*
X727000Y-727000D01*
X1528534Y-727000D01*
X1459000Y-959000D01*
X1459000Y-959000D01*
G37*
X1459000Y-959000D02*
X1459000Y-2159000D01*
X2667000Y-2159000D01*
X2667000Y-2139000D01*
X2921000Y-2139000D01*
X2921000Y-2159000D01*
X4129000Y-2159000D01*
X4129000Y-959000D01*
X4059466Y-727000D01*
X7711343Y-727000D01*
X7451680Y-986663D01*
X7356008Y-1217636D01*
X7130008Y-991636D01*
X6623902Y-782000D01*
X6076098Y-782000D01*
X5569992Y-991636D01*
X5182636Y-1378992D01*
X4973000Y-1885098D01*
X4973000Y-2432902D01*
X5182636Y-2939008D01*
X5494120Y-3250492D01*
X5285826Y-3176353D01*
X4735322Y-3204315D01*
X4356595Y-3361189D01*
X4288536Y-3602188D01*
X4173483Y-3487135D01*
X4129000Y-3531618D01*
X4129000Y-2413000D01*
X2921000Y-2413000D01*
X2921000Y-2433000D01*
X2667000Y-2433000D01*
X2667000Y-2413000D01*
X1459000Y-2413000D01*
X1459000Y-3613000D01*
X1609222Y-4114215D01*
X1885373Y-4453000D01*
X1809750Y-4453000D01*
X1651000Y-4611750D01*
X1651000Y-5461000D01*
X2900250Y-5461000D01*
X3059000Y-5302250D01*
X3059000Y-4961691D01*
X2962327Y-4728302D01*
X2921002Y-4686977D01*
X2921002Y-4655375D01*
X3127329Y-4778716D01*
X3187550Y-4767980D01*
X3648185Y-4519790D01*
X3688248Y-4470640D01*
X3711055Y-4919658D01*
X3867929Y-5298385D01*
X4108930Y-5366445D01*
X4901255Y-4574120D01*
X4887113Y-4559978D01*
X5066718Y-4380373D01*
X5080860Y-4394515D01*
X5873185Y-3602190D01*
X5825136Y-3432048D01*
X6076098Y-3536000D01*
X6623902Y-3536000D01*
X6772250Y-3474552D01*
X6453013Y-3793789D01*
X6361790Y-4014020D01*
X6293791Y-3849855D01*
X6052790Y-3781795D01*
X5260465Y-4574120D01*
X6052790Y-5366445D01*
X6293791Y-5298385D01*
X6356644Y-5121797D01*
X6453013Y-5354451D01*
X6508001Y-5409439D01*
X6508000Y-6736944D01*
X6356597Y-6767060D01*
X6149199Y-6905639D01*
X6147621Y-6908000D01*
X3590059Y-6908000D01*
X3516000Y-6893269D01*
X3441941Y-6908000D01*
X3441937Y-6908000D01*
X3222584Y-6951632D01*
X2973839Y-7117839D01*
X2931884Y-7180629D01*
X2900279Y-7212234D01*
X2876041Y-7175959D01*
X2668643Y-7037380D01*
X2424000Y-6988717D01*
X727000Y-6988717D01*
X727000Y-6723000D01*
X1238250Y-6723000D01*
X1397000Y-6564250D01*
X1397000Y-5715000D01*
X1651000Y-5715000D01*
X1651000Y-6564250D01*
X1809750Y-6723000D01*
X2550310Y-6723000D01*
X2783699Y-6626327D01*
X2962327Y-6447698D01*
X3059000Y-6214309D01*
X3059000Y-5873750D01*
X2900250Y-5715000D01*
X1651000Y-5715000D01*
X1397000Y-5715000D01*
X1377000Y-5715000D01*
X1377000Y-5546050D01*
X4288535Y-5546050D01*
X4356595Y-5787051D01*
X4875894Y-5971887D01*
X5426398Y-5943925D01*
X5805125Y-5787051D01*
X5873185Y-5546050D01*
X5080860Y-4753725D01*
X4288535Y-5546050D01*
X1377000Y-5546050D01*
X1377000Y-5461000D01*
X1397000Y-5461000D01*
X1397000Y-4611750D01*
X1238250Y-4453000D01*
X727000Y-4453000D01*
X727000Y-727000D01*
X1528534Y-727000D01*
X1459000Y-959000D01*
G36*
X7747000Y-31708600D02*
X7767000Y-31708600D01*
X7767000Y-31962600D01*
X7747000Y-31962600D01*
X7747000Y-32811850D01*
X7905750Y-32970600D01*
X8371310Y-32970600D01*
X8604699Y-32873927D01*
X8663401Y-32815225D01*
X8707297Y-32971193D01*
X8973304Y-33309000D01*
X6385119Y-33309000D01*
X6667042Y-32887074D01*
X6868690Y-32970600D01*
X7334250Y-32970600D01*
X7493000Y-32811850D01*
X7493000Y-31962600D01*
X7473000Y-31962600D01*
X7473000Y-31708600D01*
X7493000Y-31708600D01*
X7493000Y-31688600D01*
X7747000Y-31688600D01*
X7747000Y-31708600D01*
X7747000Y-31708600D01*
G37*
X7747000Y-31708600D02*
X7767000Y-31708600D01*
X7767000Y-31962600D01*
X7747000Y-31962600D01*
X7747000Y-32811850D01*
X7905750Y-32970600D01*
X8371310Y-32970600D01*
X8604699Y-32873927D01*
X8663401Y-32815225D01*
X8707297Y-32971193D01*
X8973304Y-33309000D01*
X6385119Y-33309000D01*
X6667042Y-32887074D01*
X6868690Y-32970600D01*
X7334250Y-32970600D01*
X7493000Y-32811850D01*
X7493000Y-31962600D01*
X7473000Y-31962600D01*
X7473000Y-31708600D01*
X7493000Y-31708600D01*
X7493000Y-31688600D01*
X7747000Y-31688600D01*
X7747000Y-31708600D01*
G36*
X2180717Y-28208000D02*
X2229380Y-28452643D01*
X2367959Y-28660041D01*
X2575357Y-28798620D01*
X2820000Y-28847283D01*
X3272795Y-28847283D01*
X3800952Y-29375440D01*
X3636821Y-29621078D01*
X3543001Y-30092744D01*
X3543001Y-30806814D01*
X3404123Y-30471533D01*
X3111320Y-30342285D01*
X1957605Y-31496000D01*
X3111320Y-32649715D01*
X3404123Y-32520467D01*
X3543000Y-32157945D01*
X3543000Y-32391255D01*
X3636820Y-32862921D01*
X3934881Y-33309000D01*
X2351306Y-33309000D01*
X2802467Y-33122123D01*
X2931715Y-32829320D01*
X1778000Y-31675605D01*
X1763858Y-31689748D01*
X1584253Y-31510143D01*
X1598395Y-31496000D01*
X1584253Y-31481858D01*
X1763858Y-31302253D01*
X1778000Y-31316395D01*
X2931715Y-30162680D01*
X2802467Y-29869877D01*
X2102194Y-29601612D01*
X1352565Y-29621750D01*
X753533Y-29869877D01*
X727000Y-29929986D01*
X727000Y-27878784D01*
X820000Y-27897283D01*
X1720000Y-27897283D01*
X1964643Y-27848620D01*
X2172041Y-27710041D01*
X2180717Y-27697056D01*
X2180717Y-28208000D01*
X2180717Y-28208000D01*
G37*
X2180717Y-28208000D02*
X2229380Y-28452643D01*
X2367959Y-28660041D01*
X2575357Y-28798620D01*
X2820000Y-28847283D01*
X3272795Y-28847283D01*
X3800952Y-29375440D01*
X3636821Y-29621078D01*
X3543001Y-30092744D01*
X3543001Y-30806814D01*
X3404123Y-30471533D01*
X3111320Y-30342285D01*
X1957605Y-31496000D01*
X3111320Y-32649715D01*
X3404123Y-32520467D01*
X3543000Y-32157945D01*
X3543000Y-32391255D01*
X3636820Y-32862921D01*
X3934881Y-33309000D01*
X2351306Y-33309000D01*
X2802467Y-33122123D01*
X2931715Y-32829320D01*
X1778000Y-31675605D01*
X1763858Y-31689748D01*
X1584253Y-31510143D01*
X1598395Y-31496000D01*
X1584253Y-31481858D01*
X1763858Y-31302253D01*
X1778000Y-31316395D01*
X2931715Y-30162680D01*
X2802467Y-29869877D01*
X2102194Y-29601612D01*
X1352565Y-29621750D01*
X753533Y-29869877D01*
X727000Y-29929986D01*
X727000Y-27878784D01*
X820000Y-27897283D01*
X1720000Y-27897283D01*
X1964643Y-27848620D01*
X2172041Y-27710041D01*
X2180717Y-27697056D01*
X2180717Y-28208000D01*
G36*
X10287000Y-31115000D02*
X10307000Y-31115000D01*
X10307000Y-31369000D01*
X10287000Y-31369000D01*
X10287000Y-31389000D01*
X10033000Y-31389000D01*
X10033000Y-31369000D01*
X10013000Y-31369000D01*
X10013000Y-31115000D01*
X10033000Y-31115000D01*
X10033000Y-31095000D01*
X10287000Y-31095000D01*
X10287000Y-31115000D01*
X10287000Y-31115000D01*
G37*
X10287000Y-31115000D02*
X10307000Y-31115000D01*
X10307000Y-31369000D01*
X10287000Y-31369000D01*
X10287000Y-31389000D01*
X10033000Y-31389000D01*
X10033000Y-31369000D01*
X10013000Y-31369000D01*
X10013000Y-31115000D01*
X10033000Y-31115000D01*
X10033000Y-31095000D01*
X10287000Y-31095000D01*
X10287000Y-31115000D01*
G36*
X11191582Y-28516368D02*
X11410935Y-28560000D01*
X11410939Y-28560000D01*
X11484998Y-28574731D01*
X11559057Y-28560000D01*
X11942974Y-28560000D01*
X11786673Y-28716302D01*
X11690000Y-28949691D01*
X11690000Y-29190250D01*
X11848750Y-29349000D01*
X12573000Y-29349000D01*
X12573000Y-29329000D01*
X12827000Y-29329000D01*
X12827000Y-29349000D01*
X12847000Y-29349000D01*
X12847000Y-29603000D01*
X12827000Y-29603000D01*
X12827000Y-29623000D01*
X12573000Y-29623000D01*
X12573000Y-29603000D01*
X11848750Y-29603000D01*
X11690000Y-29761750D01*
X11690000Y-29787453D01*
X11612703Y-29512807D01*
X11219246Y-29013149D01*
X10810229Y-28783796D01*
X10894327Y-28699699D01*
X10991000Y-28466310D01*
X10991000Y-28382343D01*
X11191582Y-28516368D01*
X11191582Y-28516368D01*
G37*
X11191582Y-28516368D02*
X11410935Y-28560000D01*
X11410939Y-28560000D01*
X11484998Y-28574731D01*
X11559057Y-28560000D01*
X11942974Y-28560000D01*
X11786673Y-28716302D01*
X11690000Y-28949691D01*
X11690000Y-29190250D01*
X11848750Y-29349000D01*
X12573000Y-29349000D01*
X12573000Y-29329000D01*
X12827000Y-29329000D01*
X12827000Y-29349000D01*
X12847000Y-29349000D01*
X12847000Y-29603000D01*
X12827000Y-29603000D01*
X12827000Y-29623000D01*
X12573000Y-29623000D01*
X12573000Y-29603000D01*
X11848750Y-29603000D01*
X11690000Y-29761750D01*
X11690000Y-29787453D01*
X11612703Y-29512807D01*
X11219246Y-29013149D01*
X10810229Y-28783796D01*
X10894327Y-28699699D01*
X10991000Y-28466310D01*
X10991000Y-28382343D01*
X11191582Y-28516368D01*
G36*
X8979750Y-27813000D02*
X9779000Y-27813000D01*
X9779000Y-27793000D01*
X10033000Y-27793000D01*
X10033000Y-27813000D01*
X10053000Y-27813000D01*
X10053000Y-28067000D01*
X10033000Y-28067000D01*
X10033000Y-28087000D01*
X9779000Y-28087000D01*
X9779000Y-28067000D01*
X8979750Y-28067000D01*
X8821000Y-28225750D01*
X8821000Y-28466310D01*
X8917673Y-28699699D01*
X9096302Y-28878327D01*
X9237148Y-28936667D01*
X9100754Y-29013149D01*
X8876732Y-29297639D01*
X8835620Y-29090957D01*
X8697041Y-28883559D01*
X8489643Y-28744980D01*
X8372000Y-28721579D01*
X8372000Y-28026100D01*
X8600643Y-27980620D01*
X8808041Y-27842041D01*
X8874886Y-27742000D01*
X8908750Y-27742000D01*
X8979750Y-27813000D01*
X8979750Y-27813000D01*
G37*
X8979750Y-27813000D02*
X9779000Y-27813000D01*
X9779000Y-27793000D01*
X10033000Y-27793000D01*
X10033000Y-27813000D01*
X10053000Y-27813000D01*
X10053000Y-28067000D01*
X10033000Y-28067000D01*
X10033000Y-28087000D01*
X9779000Y-28087000D01*
X9779000Y-28067000D01*
X8979750Y-28067000D01*
X8821000Y-28225750D01*
X8821000Y-28466310D01*
X8917673Y-28699699D01*
X9096302Y-28878327D01*
X9237148Y-28936667D01*
X9100754Y-29013149D01*
X8876732Y-29297639D01*
X8835620Y-29090957D01*
X8697041Y-28883559D01*
X8489643Y-28744980D01*
X8372000Y-28721579D01*
X8372000Y-28026100D01*
X8600643Y-27980620D01*
X8808041Y-27842041D01*
X8874886Y-27742000D01*
X8908750Y-27742000D01*
X8979750Y-27813000D01*
G36*
X13969717Y-20916000D02*
X14018380Y-21160643D01*
X14156959Y-21368041D01*
X14364357Y-21506620D01*
X14609000Y-21555283D01*
X15109000Y-21555283D01*
X15142968Y-21548526D01*
X15163380Y-21651143D01*
X15206558Y-21715764D01*
X15171703Y-21722697D01*
X14683142Y-22049142D01*
X14468128Y-22370934D01*
X14403183Y-22232642D01*
X13974924Y-21842355D01*
X13564890Y-21672524D01*
X13335000Y-21793845D01*
X13335000Y-22987000D01*
X13355000Y-22987000D01*
X13355000Y-23241000D01*
X13335000Y-23241000D01*
X13335000Y-24434155D01*
X13564890Y-24555476D01*
X13974924Y-24385645D01*
X14403183Y-23995358D01*
X14468128Y-23857066D01*
X14636917Y-24109677D01*
X14506628Y-24239965D01*
X14443839Y-24281920D01*
X14277632Y-24530666D01*
X14234000Y-24750019D01*
X14234000Y-24750022D01*
X14219269Y-24824081D01*
X14228148Y-24868717D01*
X13520000Y-24868717D01*
X13275357Y-24917380D01*
X13067959Y-25055959D01*
X12929380Y-25263357D01*
X12880717Y-25508000D01*
X12880717Y-26018944D01*
X12872041Y-26005959D01*
X12664643Y-25867380D01*
X12420000Y-25818717D01*
X11520000Y-25818717D01*
X11275357Y-25867380D01*
X11067959Y-26005959D01*
X10995283Y-26114726D01*
X10995283Y-25640000D01*
X10946620Y-25395357D01*
X10808041Y-25187959D01*
X10600643Y-25049380D01*
X10356000Y-25000717D01*
X9882999Y-25000717D01*
X9882999Y-24603283D01*
X10635589Y-24603283D01*
X10668000Y-24609730D01*
X10700411Y-24603283D01*
X11518000Y-24603283D01*
X11762643Y-24554620D01*
X11970041Y-24416041D01*
X12108620Y-24208643D01*
X12129833Y-24101999D01*
X12441076Y-24385645D01*
X12851110Y-24555476D01*
X13081000Y-24434155D01*
X13081000Y-23241000D01*
X13061000Y-23241000D01*
X13061000Y-22987000D01*
X13081000Y-22987000D01*
X13081000Y-21793845D01*
X12851110Y-21672524D01*
X12441076Y-21842355D01*
X12129833Y-22126001D01*
X12108620Y-22019357D01*
X11989062Y-21840426D01*
X12845497Y-20983991D01*
X13038000Y-21022283D01*
X13638000Y-21022283D01*
X13882643Y-20973620D01*
X13969717Y-20915439D01*
X13969717Y-20916000D01*
X13969717Y-20916000D01*
G37*
X13969717Y-20916000D02*
X14018380Y-21160643D01*
X14156959Y-21368041D01*
X14364357Y-21506620D01*
X14609000Y-21555283D01*
X15109000Y-21555283D01*
X15142968Y-21548526D01*
X15163380Y-21651143D01*
X15206558Y-21715764D01*
X15171703Y-21722697D01*
X14683142Y-22049142D01*
X14468128Y-22370934D01*
X14403183Y-22232642D01*
X13974924Y-21842355D01*
X13564890Y-21672524D01*
X13335000Y-21793845D01*
X13335000Y-22987000D01*
X13355000Y-22987000D01*
X13355000Y-23241000D01*
X13335000Y-23241000D01*
X13335000Y-24434155D01*
X13564890Y-24555476D01*
X13974924Y-24385645D01*
X14403183Y-23995358D01*
X14468128Y-23857066D01*
X14636917Y-24109677D01*
X14506628Y-24239965D01*
X14443839Y-24281920D01*
X14277632Y-24530666D01*
X14234000Y-24750019D01*
X14234000Y-24750022D01*
X14219269Y-24824081D01*
X14228148Y-24868717D01*
X13520000Y-24868717D01*
X13275357Y-24917380D01*
X13067959Y-25055959D01*
X12929380Y-25263357D01*
X12880717Y-25508000D01*
X12880717Y-26018944D01*
X12872041Y-26005959D01*
X12664643Y-25867380D01*
X12420000Y-25818717D01*
X11520000Y-25818717D01*
X11275357Y-25867380D01*
X11067959Y-26005959D01*
X10995283Y-26114726D01*
X10995283Y-25640000D01*
X10946620Y-25395357D01*
X10808041Y-25187959D01*
X10600643Y-25049380D01*
X10356000Y-25000717D01*
X9882999Y-25000717D01*
X9882999Y-24603283D01*
X10635589Y-24603283D01*
X10668000Y-24609730D01*
X10700411Y-24603283D01*
X11518000Y-24603283D01*
X11762643Y-24554620D01*
X11970041Y-24416041D01*
X12108620Y-24208643D01*
X12129833Y-24101999D01*
X12441076Y-24385645D01*
X12851110Y-24555476D01*
X13081000Y-24434155D01*
X13081000Y-23241000D01*
X13061000Y-23241000D01*
X13061000Y-22987000D01*
X13081000Y-22987000D01*
X13081000Y-21793845D01*
X12851110Y-21672524D01*
X12441076Y-21842355D01*
X12129833Y-22126001D01*
X12108620Y-22019357D01*
X11989062Y-21840426D01*
X12845497Y-20983991D01*
X13038000Y-21022283D01*
X13638000Y-21022283D01*
X13882643Y-20973620D01*
X13969717Y-20915439D01*
X13969717Y-20916000D01*
G36*
X942717Y-20566000D02*
X942717Y-21066000D01*
X991380Y-21310643D01*
X1129959Y-21518041D01*
X1280000Y-21618296D01*
X1280000Y-22047024D01*
X1246127Y-22080897D01*
X1105000Y-22421608D01*
X1105000Y-22790392D01*
X1246127Y-23131103D01*
X1506897Y-23391873D01*
X1847608Y-23533000D01*
X2026512Y-23533000D01*
X2467885Y-23974373D01*
X2509839Y-24037161D01*
X2758584Y-24203368D01*
X2977937Y-24247000D01*
X2977941Y-24247000D01*
X3052000Y-24261731D01*
X3126059Y-24247000D01*
X3481937Y-24247000D01*
X3556000Y-24261732D01*
X3630063Y-24247000D01*
X3849416Y-24203368D01*
X3862043Y-24194931D01*
X4054643Y-24156620D01*
X4063153Y-24150934D01*
X4074000Y-24205469D01*
X4074000Y-24205472D01*
X4117632Y-24424825D01*
X4283839Y-24673571D01*
X4346629Y-24715526D01*
X5737101Y-26106000D01*
X4359283Y-26106000D01*
X4359283Y-25508000D01*
X4310620Y-25263357D01*
X4172041Y-25055959D01*
X3964643Y-24917380D01*
X3720000Y-24868717D01*
X2820000Y-24868717D01*
X2575357Y-24917380D01*
X2367959Y-25055959D01*
X2229380Y-25263357D01*
X2180717Y-25508000D01*
X2180717Y-26018944D01*
X2172041Y-26005959D01*
X1964643Y-25867380D01*
X1720000Y-25818717D01*
X820000Y-25818717D01*
X727000Y-25837216D01*
X727000Y-20447000D01*
X966388Y-20447000D01*
X942717Y-20566000D01*
X942717Y-20566000D01*
G37*
X942717Y-20566000D02*
X942717Y-21066000D01*
X991380Y-21310643D01*
X1129959Y-21518041D01*
X1280000Y-21618296D01*
X1280000Y-22047024D01*
X1246127Y-22080897D01*
X1105000Y-22421608D01*
X1105000Y-22790392D01*
X1246127Y-23131103D01*
X1506897Y-23391873D01*
X1847608Y-23533000D01*
X2026512Y-23533000D01*
X2467885Y-23974373D01*
X2509839Y-24037161D01*
X2758584Y-24203368D01*
X2977937Y-24247000D01*
X2977941Y-24247000D01*
X3052000Y-24261731D01*
X3126059Y-24247000D01*
X3481937Y-24247000D01*
X3556000Y-24261732D01*
X3630063Y-24247000D01*
X3849416Y-24203368D01*
X3862043Y-24194931D01*
X4054643Y-24156620D01*
X4063153Y-24150934D01*
X4074000Y-24205469D01*
X4074000Y-24205472D01*
X4117632Y-24424825D01*
X4283839Y-24673571D01*
X4346629Y-24715526D01*
X5737101Y-26106000D01*
X4359283Y-26106000D01*
X4359283Y-25508000D01*
X4310620Y-25263357D01*
X4172041Y-25055959D01*
X3964643Y-24917380D01*
X3720000Y-24868717D01*
X2820000Y-24868717D01*
X2575357Y-24917380D01*
X2367959Y-25055959D01*
X2229380Y-25263357D01*
X2180717Y-25508000D01*
X2180717Y-26018944D01*
X2172041Y-26005959D01*
X1964643Y-25867380D01*
X1720000Y-25818717D01*
X820000Y-25818717D01*
X727000Y-25837216D01*
X727000Y-20447000D01*
X966388Y-20447000D01*
X942717Y-20566000D01*
G36*
X7493000Y-20679000D02*
X7513000Y-20679000D01*
X7513000Y-20929000D01*
X7493000Y-20929000D01*
X7493000Y-21848635D01*
X7478976Y-21919138D01*
X7478976Y-21919141D01*
X7464245Y-21993200D01*
X7478976Y-22067259D01*
X7478976Y-22713000D01*
X7239000Y-22713000D01*
X7239000Y-22693000D01*
X7219000Y-22693000D01*
X7219000Y-22439000D01*
X7239000Y-22439000D01*
X7239000Y-20929000D01*
X7219000Y-20929000D01*
X7219000Y-20679000D01*
X7239000Y-20679000D01*
X7239000Y-20657000D01*
X7493000Y-20657000D01*
X7493000Y-20679000D01*
X7493000Y-20679000D01*
G37*
X7493000Y-20679000D02*
X7513000Y-20679000D01*
X7513000Y-20929000D01*
X7493000Y-20929000D01*
X7493000Y-21848635D01*
X7478976Y-21919138D01*
X7478976Y-21919141D01*
X7464245Y-21993200D01*
X7478976Y-22067259D01*
X7478976Y-22713000D01*
X7239000Y-22713000D01*
X7239000Y-22693000D01*
X7219000Y-22693000D01*
X7219000Y-22439000D01*
X7239000Y-22439000D01*
X7239000Y-20929000D01*
X7219000Y-20929000D01*
X7219000Y-20679000D01*
X7239000Y-20679000D01*
X7239000Y-20657000D01*
X7493000Y-20657000D01*
X7493000Y-20679000D01*
G36*
X14890583Y-19409369D02*
X15109936Y-19453001D01*
X15109939Y-19453001D01*
X15183998Y-19467732D01*
X15258057Y-19453001D01*
X16098979Y-19453001D01*
X16098979Y-19653500D01*
X16002000Y-19653500D01*
X16002000Y-19633500D01*
X15277750Y-19633500D01*
X15268250Y-19643000D01*
X14984000Y-19643000D01*
X14984000Y-19663000D01*
X14911488Y-19663000D01*
X14712000Y-19463513D01*
X14712000Y-19389000D01*
X14734000Y-19389000D01*
X14734000Y-19369000D01*
X14830167Y-19369000D01*
X14890583Y-19409369D01*
X14890583Y-19409369D01*
G37*
X14890583Y-19409369D02*
X15109936Y-19453001D01*
X15109939Y-19453001D01*
X15183998Y-19467732D01*
X15258057Y-19453001D01*
X16098979Y-19453001D01*
X16098979Y-19653500D01*
X16002000Y-19653500D01*
X16002000Y-19633500D01*
X15277750Y-19633500D01*
X15268250Y-19643000D01*
X14984000Y-19643000D01*
X14984000Y-19663000D01*
X14911488Y-19663000D01*
X14712000Y-19463513D01*
X14712000Y-19389000D01*
X14734000Y-19389000D01*
X14734000Y-19369000D01*
X14830167Y-19369000D01*
X14890583Y-19409369D01*
G36*
X12516001Y-17735659D02*
X12447380Y-17838357D01*
X12398717Y-18083000D01*
X12398717Y-18433000D01*
X12423447Y-18557326D01*
X12403000Y-18606690D01*
X12403000Y-18661750D01*
X12504744Y-18763494D01*
X12516440Y-18780998D01*
X12403000Y-18780998D01*
X12403000Y-18806000D01*
X12242976Y-18806000D01*
X12209103Y-18772127D01*
X11868392Y-18631000D01*
X11516994Y-18631000D01*
X11507446Y-18583000D01*
X11537283Y-18433000D01*
X11537283Y-18083000D01*
X11488620Y-17838357D01*
X11364768Y-17653000D01*
X12516001Y-17653000D01*
X12516001Y-17735659D01*
X12516001Y-17735659D01*
G37*
X12516001Y-17735659D02*
X12447380Y-17838357D01*
X12398717Y-18083000D01*
X12398717Y-18433000D01*
X12423447Y-18557326D01*
X12403000Y-18606690D01*
X12403000Y-18661750D01*
X12504744Y-18763494D01*
X12516440Y-18780998D01*
X12403000Y-18780998D01*
X12403000Y-18806000D01*
X12242976Y-18806000D01*
X12209103Y-18772127D01*
X11868392Y-18631000D01*
X11516994Y-18631000D01*
X11507446Y-18583000D01*
X11537283Y-18433000D01*
X11537283Y-18083000D01*
X11488620Y-17838357D01*
X11364768Y-17653000D01*
X12516001Y-17653000D01*
X12516001Y-17735659D01*
M02*
