G04 #@! TF.GenerationSoftware,KiCad,Pcbnew,(2018-02-16 revision c95340fba)-makepkg*
G04 #@! TF.CreationDate,2018-05-28T07:37:03+02:00*
G04 #@! TF.ProjectId,LIN_USB_CONVERTER,4C494E5F5553425F434F4E5645525445,rev?*
G04 #@! TF.SameCoordinates,PX85b9e30PY4aad300*
G04 #@! TF.FileFunction,Soldermask,Top*
G04 #@! TF.FilePolarity,Negative*
%FSLAX46Y46*%
G04 Gerber Fmt 4.6, Leading zero omitted, Abs format (unit mm)*
G04 Created by KiCad (PCBNEW (2018-02-16 revision c95340fba)-makepkg) date 05/28/18 07:37:03*
%MOMM*%
%LPD*%
G01*
G04 APERTURE LIST*
%ADD10R,1.300000X0.900000*%
%ADD11R,2.380000X4.360000*%
%ADD12O,2.380000X4.360000*%
%ADD13R,1.650000X1.400000*%
%ADD14R,0.908000X2.400000*%
%ADD15R,0.900000X1.300000*%
%ADD16R,1.300000X1.200000*%
%ADD17R,2.200000X1.400000*%
%ADD18R,0.702000X0.302000*%
%ADD19R,0.302000X0.702000*%
%ADD20R,0.102000X0.102000*%
%ADD21C,0.214000*%
%ADD22C,0.100000*%
%ADD23R,0.152000X0.152000*%
%ADD24R,0.502000X0.302000*%
%ADD25R,0.302000X0.502000*%
%ADD26C,2.540000*%
%ADD27C,2.900000*%
%ADD28R,1.150000X1.200000*%
%ADD29R,2.100000X2.100000*%
%ADD30O,2.100000X2.100000*%
%ADD31C,1.901140*%
%ADD32O,1.800000X4.200000*%
%ADD33C,1.900000*%
%ADD34R,1.400000X1.650000*%
%ADD35R,1.950000X1.000000*%
%ADD36R,1.200000X1.150000*%
G04 APERTURE END LIST*
D10*
X3251200Y-21222400D03*
X3251200Y-19722400D03*
D11*
X15160000Y-31242000D03*
D12*
X10160000Y-31242000D03*
X5160000Y-31242000D03*
D13*
X7620000Y-29835600D03*
X7620000Y-31835600D03*
D14*
X2311400Y-17972400D03*
X3581400Y-17972400D03*
X4851400Y-17972400D03*
X6121400Y-17972400D03*
X6121400Y-22972400D03*
X4851400Y-22972400D03*
X3581400Y-22972400D03*
X2311400Y-22972400D03*
D15*
X6084000Y-14478000D03*
X4584000Y-14478000D03*
D16*
X14240000Y-9464000D03*
X14240000Y-11364000D03*
X16240000Y-10414000D03*
D17*
X1524000Y-15392400D03*
X1524000Y-7772400D03*
X1524000Y-10312400D03*
X1524000Y-5232400D03*
X1524000Y-12852400D03*
D18*
X6310000Y-8660000D03*
D19*
X7260000Y-7710000D03*
X9260000Y-7710000D03*
D18*
X10210000Y-8660000D03*
X6310000Y-10660000D03*
X10210000Y-10160000D03*
D19*
X8760000Y-11610000D03*
X7760000Y-11610000D03*
D20*
X6860000Y-11060000D03*
X6860000Y-8260000D03*
X9660000Y-8260000D03*
X9660000Y-11060000D03*
D21*
X9762920Y-7857080D03*
D22*
G36*
X9914241Y-7857080D02*
X9762920Y-8008401D01*
X9611599Y-7857080D01*
X9762920Y-7705759D01*
X9914241Y-7857080D01*
X9914241Y-7857080D01*
G37*
D21*
X9768000Y-11462920D03*
D22*
G36*
X9919321Y-11462920D02*
X9768000Y-11614241D01*
X9616679Y-11462920D01*
X9768000Y-11311599D01*
X9919321Y-11462920D01*
X9919321Y-11462920D01*
G37*
D21*
X6752000Y-7862160D03*
D22*
G36*
X6903321Y-7862160D02*
X6752000Y-8013481D01*
X6600679Y-7862160D01*
X6752000Y-7710839D01*
X6903321Y-7862160D01*
X6903321Y-7862160D01*
G37*
D21*
X6751240Y-11458320D03*
D22*
G36*
X6902561Y-11458320D02*
X6751240Y-11609641D01*
X6599919Y-11458320D01*
X6751240Y-11306999D01*
X6902561Y-11458320D01*
X6902561Y-11458320D01*
G37*
D21*
X10062920Y-8157080D03*
D22*
G36*
X10214241Y-8157080D02*
X10062920Y-8308401D01*
X9911599Y-8157080D01*
X10062920Y-8005759D01*
X10214241Y-8157080D01*
X10214241Y-8157080D01*
G37*
D21*
X10068000Y-11168000D03*
D22*
G36*
X10219321Y-11168000D02*
X10068000Y-11319321D01*
X9916679Y-11168000D01*
X10068000Y-11016679D01*
X10219321Y-11168000D01*
X10219321Y-11168000D01*
G37*
D21*
X6462160Y-8157080D03*
D22*
G36*
X6613481Y-8157080D02*
X6462160Y-8308401D01*
X6310839Y-8157080D01*
X6462160Y-8005759D01*
X6613481Y-8157080D01*
X6613481Y-8157080D01*
G37*
D21*
X6451520Y-11163680D03*
D22*
G36*
X6602841Y-11163680D02*
X6451520Y-11315001D01*
X6300199Y-11163680D01*
X6451520Y-11012359D01*
X6602841Y-11163680D01*
X6602841Y-11163680D01*
G37*
D23*
X6527720Y-11087920D03*
X6537160Y-8232080D03*
X6827000Y-7937160D03*
X9687920Y-7932080D03*
X9987920Y-8232080D03*
X9993000Y-11093000D03*
X9693000Y-11387920D03*
X6827440Y-11382120D03*
D24*
X6202600Y-11163680D03*
D18*
X6310000Y-10160000D03*
X6310000Y-9660000D03*
X6310000Y-9160000D03*
D24*
X6212760Y-8157080D03*
D25*
X6751240Y-7607680D03*
D19*
X7760000Y-7710000D03*
X8260000Y-7710000D03*
X8760000Y-7710000D03*
D25*
X9763680Y-7607680D03*
D24*
X10312320Y-8156320D03*
D18*
X10210000Y-9160000D03*
X10210000Y-9660000D03*
X10210000Y-10660000D03*
D24*
X10317400Y-11168760D03*
D25*
X9768000Y-11712320D03*
D19*
X9260000Y-11610000D03*
X8260000Y-11610000D03*
X7260000Y-11610000D03*
D25*
X6752000Y-11709040D03*
D26*
X8636000Y-1778000D03*
D27*
X1778000Y-31496000D03*
D28*
X12700000Y-29476000D03*
X12700000Y-30976000D03*
D10*
X16002000Y-26174000D03*
X16002000Y-27674000D03*
D16*
X3270000Y-27808000D03*
X3270000Y-25908000D03*
X1270000Y-26858000D03*
D29*
X10668000Y-23114000D03*
D30*
X13208000Y-23114000D03*
X15748000Y-23114000D03*
D10*
X4876800Y-21222400D03*
X4876800Y-19722400D03*
X1676400Y-21222400D03*
X1676400Y-19722400D03*
X6400800Y-21210400D03*
X6400800Y-19710400D03*
D16*
X11970000Y-25908000D03*
X11970000Y-27808000D03*
X13970000Y-26858000D03*
D31*
X12192860Y-4574120D03*
X9652860Y-4574120D03*
X7620860Y-4574120D03*
X5080860Y-4574120D03*
D32*
X14478000Y-2286000D03*
X2794000Y-2286000D03*
D33*
X6350000Y-2159000D03*
X10922000Y-2159000D03*
D34*
X8467600Y-25857200D03*
X6467600Y-25857200D03*
D35*
X9034800Y-20751800D03*
X9034800Y-19481800D03*
X9034800Y-18211800D03*
X9034800Y-16941800D03*
X14434800Y-16941800D03*
X14434800Y-18211800D03*
X14434800Y-19481800D03*
X14434800Y-20751800D03*
D28*
X16501200Y-18249200D03*
X16501200Y-19749200D03*
D36*
X12831600Y-14986000D03*
X11331600Y-14986000D03*
X15634400Y-7112000D03*
X14134400Y-7112000D03*
X12204000Y-13208000D03*
X13704000Y-13208000D03*
D28*
X12446000Y-8370000D03*
X12446000Y-6870000D03*
D36*
X7886000Y-14224000D03*
X9386000Y-14224000D03*
M02*
